<svg width="96" height="131" viewBox="0 0 96 131" fill="none" xmlns="http://www.w3.org/2000/svg">
<g clip-path="url(#clip0)">
<path d="M58.2587 19.7638C58.9449 19.1229 59.2851 18.4224 59.2851 17.6586C59.2851 15.4238 56.3758 13.7312 50.3911 12.4843C45.4863 11.4625 39.0697 10.8749 32.2116 10.8129V1.58545C32.2116 0.916438 31.6691 0.374023 31.0001 0.374023C30.3311 0.374023 29.7887 0.916438 29.7887 1.58545V10.8132C22.9302 10.8753 16.5136 11.4625 11.6089 12.4846C5.62414 13.7315 2.7149 15.4241 2.7149 17.6589C2.7149 18.4227 3.05501 19.1229 3.74128 19.7638C3.05895 20.4037 2.7146 21.1085 2.7146 21.8716C2.7146 24.107 5.62383 25.7997 11.6089 27.0462C16.5127 28.0678 22.9293 28.6553 29.7884 28.7174V55.2103C28.1115 55.518 26.8359 56.9875 26.8359 58.7522V64.4153C26.8359 66.1798 28.1115 67.6492 29.7884 67.9572V89.2002L8.19478 128.58C7.87314 129.167 8.08787 129.903 8.6745 130.225C9.26113 130.546 9.99738 130.332 10.3193 129.745L29.7884 94.2394V121.895C29.7884 122.564 30.3308 123.106 30.9998 123.106C31.6688 123.106 32.2113 122.564 32.2113 121.895V94.2394L51.6806 129.745C51.9011 130.147 52.3157 130.375 52.744 130.375C52.9408 130.375 53.1407 130.326 53.3255 130.225C53.9121 129.903 54.1268 129.167 53.8052 128.581L32.2116 89.2002V67.9572C33.8888 67.6495 35.1644 66.1801 35.1644 64.4153V62.7951H36.3031C36.9721 62.7951 37.5146 62.2526 37.5146 61.5836C37.5146 60.9146 36.9721 60.3722 36.3031 60.3722H35.1644V58.7519C35.1644 56.9872 33.8885 55.5177 32.2116 55.21V28.7171C39.0706 28.655 45.4872 28.0678 50.3914 27.0459C56.3761 25.7994 59.2854 24.1067 59.2854 21.8713C59.2851 21.1085 58.941 20.4037 58.2587 19.7638ZM12.2815 14.8193C17.0082 13.8532 23.1858 13.2966 29.7887 13.2357V13.978C28.6067 14.1267 27.4573 14.4917 26.4125 15.0553C25.8237 15.3727 25.6035 16.1077 25.9212 16.6964C26.2386 17.2855 26.974 17.506 27.5624 17.1877C28.6097 16.6228 29.7987 16.3242 31.0004 16.3242C32.2019 16.3242 33.3909 16.6225 34.4385 17.1877C34.6214 17.2864 34.8182 17.333 35.0124 17.333C35.4433 17.333 35.8607 17.1023 36.0796 16.6961C36.397 16.1074 36.1771 15.3724 35.5881 15.055C34.5429 14.4913 33.3936 14.1267 32.2119 13.9777V13.2351C38.8147 13.296 44.9924 13.8526 49.7191 14.8187C55.5378 16.0087 56.834 17.3615 56.8625 17.6571C56.834 17.9542 55.5387 19.3071 49.7203 20.497C44.7056 21.5225 38.0573 22.087 31.0001 22.087C23.943 22.087 17.2947 21.5225 12.28 20.497C6.46153 19.3071 5.16622 17.9542 5.13775 17.6589C5.16622 17.3624 6.46275 16.0093 12.2815 14.8193ZM32.7416 58.7519V64.415C32.7416 65.0662 32.2116 65.5959 31.5607 65.5959H30.4401C29.789 65.5959 29.2593 65.0662 29.2593 64.415V58.7519C29.2593 58.1008 29.7893 57.5711 30.4401 57.5711H31.5607C32.2116 57.5708 32.7416 58.1005 32.7416 58.7519ZM49.7248 24.7097C44.7101 25.7355 38.0606 26.3003 31.001 26.3003C23.9406 26.3003 17.2901 25.7355 12.2752 24.7097C6.4576 23.5198 5.16501 22.1675 5.13745 21.8723C5.14411 21.8068 5.30674 21.5237 5.92669 21.1309C7.34345 21.7723 9.23297 22.3377 11.6092 22.8329C16.8016 23.9147 23.688 24.5104 31.0004 24.5104C38.3126 24.5104 45.1992 23.9147 50.3914 22.8329C52.7673 22.338 54.6565 21.7726 56.0736 21.1312C56.6932 21.5237 56.8559 21.8068 56.8625 21.871C56.8347 22.1678 55.5421 23.5201 49.7248 24.7097Z" fill="#EEE6E6"/>
</g>
<defs>
<clipPath id="clip0">
<rect width="130" height="130" fill="white" transform="translate(-34 0.374023)"/>
</clipPath>
</defs>
</svg>
