<svg width="70" height="101" viewBox="0 0 70 101" fill="none" xmlns="http://www.w3.org/2000/svg">
<g clip-path="url(#clip0)">
<path d="M82.665 43.4339L70.4551 7.94925L76.9301 3.64339L74.7544 0.374023L10.0039 43.4339H3.52637V68.6784H8.7547L9.87682 71.203L12.0314 97.9198H13.6492V99.5325H15.3321V97.9198H17.2608L18.137 68.6784H35.6541L36.9016 83.0971H37.9457V84.2535H39.6287V83.0971H40.8951L41.3981 68.6784H43.9903V90.686C42.5747 91.086 41.5332 92.386 41.5332 93.9278V98.9717H44.8991V99.5325C44.8991 99.9972 45.2759 100.374 45.7406 100.374C46.2053 100.374 46.582 99.9972 46.582 99.5325V98.9717H48.8261V99.5325C48.8261 99.9972 49.2028 100.374 49.6675 100.374C50.1323 100.374 50.509 99.9972 50.509 99.5325V98.9717H52.753V99.5325C52.753 99.9972 53.1298 100.374 53.5945 100.374C54.0592 100.374 54.436 99.9972 54.436 99.5325V98.9717H57.8019V93.9278C57.8019 92.3863 56.7604 91.086 55.3448 90.686V68.6784H81.8995L82.7754 97.9198H84.7043V99.5325H86.3873V97.9198H88.005L90.1597 71.203L91.2818 68.6784H96.5101V43.4339H82.665ZM94.8271 60.8946H92.4079V45.1169H94.8271V60.8946ZM90.7249 45.1169V46.2739H9.31155V45.1169H90.7249ZM33.022 38.1961C32.9951 37.8957 33.1034 37.6026 33.319 37.3921C33.5349 37.1815 33.8302 37.0786 34.13 37.1144C36.1281 37.3418 38.13 37.2103 40.0803 36.7229C46.9026 35.017 54.115 35.017 60.9377 36.7229C62.8881 37.2101 64.8902 37.3416 66.8876 37.1144C67.1891 37.0816 67.483 37.1813 67.6988 37.3921C67.9145 37.6026 68.0228 37.8959 67.9959 38.1961C67.8292 40.0596 68.5996 41.8732 70.0566 43.047L70.5369 43.4339H30.4809L30.961 43.047C32.4182 41.8732 33.1886 40.0596 33.022 38.1961ZM9.31155 58.265V47.9569H90.7249V58.265H9.31155ZM9.31155 59.948H11.0909V60.8946H9.31155V59.948ZM12.7738 59.948H14.5531V60.8946H12.7738V59.948ZM16.2363 59.948H18.0156V60.8946H16.2363V59.948ZM19.6986 59.948H21.4779V60.8946H19.6986V59.948ZM23.1609 59.948H24.9402V60.8946H23.1609V59.948ZM26.6234 59.948H28.4027V60.8946H26.6234V59.948ZM30.0856 59.948H31.865V60.8946H30.0856V59.948ZM33.5479 59.948H35.3272V60.8946H33.5479V59.948ZM37.0104 59.948H38.7897V60.8946H37.0104V59.948ZM40.4727 59.948H42.252V60.8946H40.4727V59.948ZM43.935 59.948H45.7143V60.8946H43.935V59.948ZM47.3974 59.948H49.1768V60.8946H47.3974V59.948ZM50.8597 59.948H52.639V60.8946H50.8597V59.948ZM54.322 59.948H56.1013V60.8946H54.322V59.948ZM57.7845 59.948H59.5638V60.8946H57.7845V59.948ZM61.2468 59.948H63.0261V60.8946H61.2468V59.948ZM64.709 59.948H66.4883V60.8946H64.709V59.948ZM68.1715 59.948H69.9508V60.8946H68.1715V59.948ZM71.6338 59.948H73.4131V60.8946H71.6338V59.948ZM75.0961 59.948H76.8754V60.8946H75.0961V59.948ZM78.5586 59.948H80.3379V60.8946H78.5586V59.948ZM82.0208 59.948H83.8001V60.8946H82.0208V59.948ZM85.4831 59.948H87.2624V60.8946H85.4831V59.948ZM88.9456 59.948H90.7249V60.8946H88.9456V59.948ZM80.885 43.4339H73.22L71.1127 41.7364C70.0941 40.9162 69.5558 39.6487 69.6723 38.3463C69.7445 37.5402 69.4537 36.7534 68.8744 36.1879C68.295 35.6222 67.5023 35.3513 66.697 35.4421C64.9003 35.6475 63.0999 35.5284 61.3456 35.09C54.2564 33.3176 46.7615 33.3176 39.6722 35.09C37.9175 35.5284 36.117 35.647 34.3206 35.4421C33.518 35.35 32.7228 35.6222 32.1435 36.1879C31.5641 36.7534 31.2734 37.5402 31.3455 38.3463C31.4623 39.6487 30.9237 40.9162 29.9051 41.7364L27.7981 43.4339H17.095L69.0069 8.91254L80.885 43.4339ZM74.2855 2.70703L74.5964 3.17426L14.0556 43.4339H13.0433L74.2855 2.70703ZM7.62859 45.1169V60.8946H5.20933V45.1169H7.62859ZM11.6162 71.8339H16.4261L15.759 92.3269H13.2688L11.6162 71.8339ZM13.584 96.2369L13.4045 94.0099H15.7043L15.6317 96.2369H13.584ZM16.4541 70.1509H11.251L10.5965 68.6784H16.4543V70.1509H16.4541ZM38.4453 81.4142L38.3669 80.5083H39.3011L39.2696 81.4142H38.4453ZM39.3598 78.8254H38.2213L37.3434 68.6784H39.7137L39.3598 78.8254ZM47.9118 68.6784H51.4231V90.5569H47.9118V68.6784ZM46.2288 90.5569H45.673V68.6784H46.2288V90.5569ZM56.119 93.9278V97.2887H54.436V95.6058C54.436 95.1411 54.0592 94.7643 53.5945 94.7643C53.1298 94.7643 52.753 95.1411 52.753 95.6058V97.2887H50.509V95.6058C50.509 95.1411 50.1323 94.7643 49.6675 94.7643C49.2028 94.7643 48.8261 95.1411 48.8261 95.6058V97.2887H46.582V95.6058C46.582 95.1411 46.2053 94.7643 45.7406 94.7643C45.2759 94.7643 44.8991 95.1411 44.8991 95.6058V97.2887H43.2161V93.9278C43.2161 92.997 43.9737 92.2398 44.9043 92.2398H47.9118H51.4231H54.4305C55.3614 92.2398 56.119 92.997 56.119 93.9278ZM53.6618 90.5569H53.1061V68.6784H53.6618V90.5569ZM84.4045 96.2369L84.332 94.0099H86.632L86.4523 96.2369H84.4045ZM86.7676 92.3269H84.2773L83.6102 71.8339H88.4203L86.7676 92.3269ZM88.7855 70.1509H83.5824V68.6784H89.4402L88.7855 70.1509ZM5.20933 66.9954V62.5776H94.8271V66.9954H5.20933Z" fill="#EEE6E6"/>
</g>
<defs>
<clipPath id="clip0">
<rect width="100" height="100" fill="white" transform="translate(0.0183105 0.374023)"/>
</clipPath>
</defs>
</svg>
