<svg xmlns="http://www.w3.org/2000/svg" width="1346" height="49" fill="none" xmlns:v="https://vecta.io/nano"><g clip-path="url(#A)"><path fill-rule="evenodd" d="M488.275 50.585V3.733c0-.982-.867-1.733-1.964-1.733-1.04 0-1.964.75-1.964 1.733v46.852h3.928zm-349.164 0v-23.8c0-.924-.867-1.733-1.964-1.733s-1.965.81-1.965 1.733v23.8h3.93zm-7.106 0V12.803c0-.924-.924-1.733-1.964-1.733-1.098 0-1.964.81-1.964 1.733v37.782h3.928zm-7.164 0v-39.4c0-.924-.866-1.733-1.964-1.733-1.04 0-1.964.81-1.964 1.733v39.4h3.928zm-7.105 0V3.733c0-.982-.867-1.733-1.965-1.733-1.04 0-1.964.75-1.964 1.733v46.852h3.93zm-7.106 0V20.718c0-.924-.867-1.733-1.964-1.733s-1.964.81-1.964 1.733v29.867h3.928zm-7.106 0v-32.87c0-.982-.866-1.733-1.964-1.733s-1.964.75-1.964 1.733v32.87h3.928zm-7.105 0v-23.8c0-.924-.867-1.733-1.964-1.733s-1.964.81-1.964 1.733v23.8h3.928zm-7.106 0V35.102c0-.924-.924-1.733-1.964-1.733-1.098 0-1.964.81-1.964 1.733v15.482h3.928zm-7.163 0V21.353c0-.982-.867-1.733-1.964-1.733-1.04 0-1.964.75-1.964 1.733v29.232h3.928zm-7.106 0V19.33c0-.982-.867-1.733-1.964-1.733-1.04 0-1.964.75-1.964 1.733v31.254h3.928zm-7.106 0V17.078c0-.924-.867-1.733-1.964-1.733S64 16.154 64 17.078v33.507h3.928zm-7.106 0V15.23c0-.924-.867-1.733-1.964-1.733s-1.964.81-1.964 1.733v35.355h3.928zm-7.106 0V27.188c0-.924-.924-1.733-1.964-1.733-1.098 0-1.964.81-1.964 1.733v23.397h3.928zm-7.106 0V31.867c0-.924-.924-1.733-1.964-1.733-1.098 0-1.964.81-1.964 1.733v18.717h3.928zm-7.163 0V6.564c0-.982-.867-1.733-1.964-1.733-1.04 0-1.964.75-1.964 1.733v44.02h3.928zm-7.106 0V15.23c0-.924-.866-1.733-1.964-1.733-1.04 0-1.964.81-1.964 1.733v35.355h3.928zm-7.106 0V11.6c0-.924-.867-1.733-1.964-1.733s-1.964.81-1.964 1.733v38.995h3.928zm-7.106 0V7.546c0-.924-.867-1.733-1.964-1.733s-1.964.81-1.964 1.733v43.04h3.928zm-7.106 0V11.012c0-.982-.924-1.733-1.964-1.733-1.098 0-1.964.75-1.964 1.733v39.573h3.928zm-7.106 0V3.733C3.928 2.75 3.004 2 1.964 2 .867 2 0 2.75 0 3.733v46.852h3.928zm138.65 0v-23.8c0-.924.866-1.733 1.964-1.733s1.964.81 1.964 1.733v23.8h-3.928zm7.106 0V12.803c0-.924.866-1.733 1.964-1.733s1.964.81 1.964 1.733v37.782h-3.928zm7.105 0v-39.4c0-.924.867-1.733 1.965-1.733s1.964.81 1.964 1.733v39.4h-3.93zm7.106 0V3.733c0-.982.925-1.733 1.964-1.733 1.098 0 1.965.75 1.965 1.733v46.852h-3.93zm7.164 0V20.718c0-.924.866-1.733 1.964-1.733 1.04 0 1.964.81 1.964 1.733v29.867h-3.928zm7.106 0v-32.87c0-.982.866-1.733 1.964-1.733 1.04 0 1.964.75 1.964 1.733v32.87h-3.928zm7.105 0v-23.8c0-.924.867-1.733 1.964-1.733s1.965.81 1.965 1.733v23.8h-3.93zm7.106 0V35.102c0-.924.867-1.733 1.964-1.733s1.964.81 1.964 1.733v15.482h-3.928zm7.106 0V21.353c0-.982.924-1.733 1.964-1.733 1.098 0 1.964.75 1.964 1.733v29.232h-3.928zm146.16 0v-23.8c0-.924-.867-1.733-1.964-1.733s-1.964.81-1.964 1.733v23.8h3.928zm-7.106 0V12.803c0-.924-.924-1.733-1.964-1.733-1.098 0-1.964.81-1.964 1.733v37.782h3.928zm-7.106 0v-39.4c0-.924-.924-1.733-1.964-1.733-1.097 0-2.022.81-2.022 1.733v39.4h3.986zm-7.163 0V3.733c0-.982-.867-1.733-1.964-1.733-1.04 0-1.965.75-1.965 1.733v46.852h3.93zm-7.106 0V20.718c0-.924-.866-1.733-1.964-1.733s-1.964.81-1.964 1.733v29.867h3.928zm-7.106 0v-32.87c0-.982-.866-1.733-1.964-1.733s-1.964.75-1.964 1.733v32.87h3.928zm-7.105 0v-23.8c0-.924-.867-1.733-1.965-1.733s-1.964.81-1.964 1.733v23.8h3.93zm-7.106 0V35.102c0-.924-.924-1.733-1.964-1.733-1.098 0-1.965.81-1.965 1.733v15.482h3.93zm-7.164 0V21.353c0-.982-.866-1.733-1.964-1.733-1.04 0-1.964.75-1.964 1.733v29.232h3.928zm-7.105 0V19.33c0-.982-.867-1.733-1.965-1.733-1.04 0-1.964.75-1.964 1.733v31.254h3.93zm-7.106 0V17.078c0-.924-.867-1.733-1.964-1.733s-1.965.81-1.965 1.733v33.507h3.93zm-7.106 0V15.23c0-.924-.867-1.733-1.964-1.733s-1.964.81-1.964 1.733v35.355h3.928zm-7.106 0V27.188c0-.924-.924-1.733-1.964-1.733-1.098 0-1.964.81-1.964 1.733v23.397h3.928zm-7.105 0V31.867c0-.924-.925-1.733-1.965-1.733-1.097 0-1.964.81-1.964 1.733v18.717h3.93zm-7.164 0V6.564c0-.982-.867-1.733-1.964-1.733-1.04 0-1.964.75-1.964 1.733v44.02h3.928zm-7.106 0V15.23c0-.924-.866-1.733-1.964-1.733-1.04 0-1.964.81-1.964 1.733v35.355h3.928zm-7.106 0V11.6c0-.924-.866-1.733-1.964-1.733s-1.964.81-1.964 1.733v38.995h3.928zm-7.105 0V7.546c0-.924-.867-1.733-1.964-1.733s-1.965.81-1.965 1.733v43.04h3.93zm-7.106 0V11.012c0-.982-.924-1.733-1.964-1.733-1.098 0-1.964.75-1.964 1.733v39.573h3.928zm-7.106 0V3.733c0-.982-.924-1.733-1.964-1.733-1.098 0-1.964.75-1.964 1.733v46.852h3.928zm138.65 0v-23.8c0-.924.867-1.733 1.964-1.733s1.965.81 1.965 1.733v23.8h-3.93zm7.106 0V12.803c0-.924.866-1.733 1.964-1.733s1.964.81 1.964 1.733v37.782h-3.928zm7.106 0v-39.4c0-.924.866-1.733 1.964-1.733s1.964.81 1.964 1.733v39.4h-3.928zm7.105 0V3.733c0-.982.925-1.733 1.965-1.733 1.097 0 1.964.75 1.964 1.733v46.852h-3.93zm7.164 0V20.718c0-.924.866-1.733 1.964-1.733 1.04 0 1.964.81 1.964 1.733v29.867h-3.928zm7.106 0v-32.87c0-.982.866-1.733 1.964-1.733 1.04 0 1.964.75 1.964 1.733v32.87h-3.928zm7.105 0v-23.8c0-.924.867-1.733 1.965-1.733s1.964.81 1.964 1.733v23.8h-3.93zm7.106 0V35.102c0-.924.867-1.733 1.964-1.733s1.965.81 1.965 1.733v15.482h-3.93zm7.106 0V21.353c0-.982.924-1.733 1.964-1.733 1.098 0 1.964.75 1.964 1.733v29.232H406zm7.106 0V19.33c0-.982.924-1.733 1.964-1.733 1.098 0 1.964.75 1.964 1.733v31.254h-3.928zm7.163 0V17.078c0-.924.867-1.733 1.964-1.733 1.04 0 1.965.81 1.965 1.733v33.507h-3.93zm7.106 0V15.23c0-.924.867-1.733 1.964-1.733 1.04 0 1.964.81 1.964 1.733v35.355h-3.928zm7.106 0V27.188c0-.924.866-1.733 1.964-1.733s1.964.81 1.964 1.733v23.397h-3.928zm7.106 0V31.867c0-.924.866-1.733 1.964-1.733s1.964.81 1.964 1.733v18.717h-3.928zm7.105 0V6.564c0-.982.925-1.733 1.964-1.733 1.098 0 1.965.75 1.965 1.733v44.02h-3.93zm7.106 0V15.23c0-.924.924-1.733 1.964-1.733 1.098 0 1.964.81 1.964 1.733v35.355h-3.928zm7.164 0V11.6c0-.924.866-1.733 1.964-1.733 1.04 0 1.964.81 1.964 1.733v38.995h-3.928zm7.105 0V7.546c0-.924.867-1.733 1.965-1.733 1.04 0 1.964.81 1.964 1.733v43.04h-3.93zm7.106 0V11.012c0-.982.867-1.733 1.964-1.733s1.965.75 1.965 1.733v39.573h-3.93zm356.328 0v-23.8c0-.924.867-1.733 1.964-1.733 1.04 0 1.964.81 1.964 1.733v23.8h-3.928zm7.106 0V12.803c0-.924.866-1.733 1.964-1.733 1.04 0 1.964.81 1.964 1.733v37.782h-3.928zm7.105 0v-39.4c0-.924.867-1.733 1.965-1.733s1.964.81 1.964 1.733v39.4h-3.93zm7.106 0V3.733c0-.982.867-1.733 1.964-1.733s1.965.75 1.965 1.733v46.852h-3.93zm7.106 0V20.718c0-.924.924-1.733 1.964-1.733 1.098 0 1.964.81 1.964 1.733v29.867h-3.928zm7.106 0v-32.87c0-.982.924-1.733 1.964-1.733 1.098 0 1.964.75 1.964 1.733v32.87h-3.928zm7.163 0v-23.8c0-.924.867-1.733 1.964-1.733 1.04 0 1.965.81 1.965 1.733v23.8h-3.93zm7.106 0V35.102c0-.924.867-1.733 1.964-1.733s1.964.81 1.964 1.733v15.482h-3.928zm7.106 0V21.353c0-.982.866-1.733 1.964-1.733s1.964.75 1.964 1.733v29.232h-3.928zm7.106 0V19.33c0-.982.866-1.733 1.964-1.733s1.964.75 1.964 1.733v31.254h-3.928zm7.105 0V17.078c0-.924.925-1.733 1.965-1.733 1.097 0 1.964.81 1.964 1.733v33.507h-3.93zm7.164 0V15.23c0-.924.866-1.733 1.964-1.733 1.04 0 1.964.81 1.964 1.733v35.355H911.8zm7.106 0V27.188c0-.924.866-1.733 1.964-1.733 1.04 0 1.964.81 1.964 1.733v23.397h-3.928zm7.105 0V31.867c0-.924.867-1.733 1.965-1.733s1.964.81 1.964 1.733v18.717H926zm7.106 0V6.564c0-.982.867-1.733 1.964-1.733s1.965.75 1.965 1.733v44.02h-3.93zm7.106 0V15.23c0-.924.924-1.733 1.964-1.733 1.098 0 1.964.81 1.964 1.733v35.355h-3.928zm7.106 0V11.6c0-.924.924-1.733 1.964-1.733 1.097 0 1.964.81 1.964 1.733v38.995h-3.928zm7.163 0V7.546c0-.924.867-1.733 1.964-1.733 1.04 0 1.965.81 1.965 1.733v43.04h-3.93zm7.106 0V11.012c0-.982.866-1.733 1.964-1.733 1.04 0 1.964.75 1.964 1.733v39.573h-3.928zm7.106 0V3.733c0-.982.866-1.733 1.964-1.733s1.964.75 1.964 1.733v46.852h-3.928zm-138.65 0v-23.8c0-.924-.925-1.733-1.964-1.733-1.098 0-1.965.81-1.965 1.733v23.8h3.93zm-7.164 0V12.803c0-.924-.866-1.733-1.964-1.733-1.04 0-1.964.81-1.964 1.733v37.782h3.928zm-7.106 0v-39.4c0-.924-.866-1.733-1.964-1.733-1.04 0-1.964.81-1.964 1.733v39.4h3.928zm-7.105 0V3.733c0-.982-.867-1.733-1.964-1.733s-1.965.75-1.965 1.733v46.852h3.93zm-7.106 0V20.718c0-.924-.867-1.733-1.964-1.733s-1.964.81-1.964 1.733v29.867h3.928zm-7.106 0v-32.87c0-.982-.924-1.733-1.964-1.733-1.098 0-1.964.75-1.964 1.733v32.87h3.928zm-7.106 0v-23.8c0-.924-.924-1.733-1.964-1.733-1.097 0-1.964.81-1.964 1.733v23.8h3.928zm-7.163 0V35.102c0-.924-.867-1.733-1.964-1.733-1.04 0-1.965.81-1.965 1.733v15.482h3.93zm-7.106 0V21.353c0-.982-.866-1.733-1.964-1.733-1.04 0-1.964.75-1.964 1.733v29.232h3.928zm-146.1 0v-23.8c0-.924.866-1.733 1.964-1.733 1.04 0 1.964.81 1.964 1.733v23.8h-3.928zm7.106 0V12.803c0-.924.866-1.733 1.964-1.733 1.04 0 1.964.81 1.964 1.733v37.782h-3.928zm7.105 0v-39.4c0-.924.867-1.733 1.964-1.733s1.965.81 1.965 1.733v39.4h-3.93zm7.106 0V3.733c0-.982.867-1.733 1.964-1.733s1.964.75 1.964 1.733v46.852H648.3zm7.106 0V20.718c0-.924.924-1.733 1.964-1.733 1.098 0 1.964.81 1.964 1.733v29.867h-3.928zm7.106 0v-32.87c0-.982.924-1.733 1.964-1.733 1.097 0 1.964.75 1.964 1.733v32.87h-3.928zm7.163 0v-23.8c0-.924.867-1.733 1.964-1.733 1.04 0 1.965.81 1.965 1.733v23.8h-3.93zm7.106 0V35.102c0-.924.866-1.733 1.964-1.733s1.964.81 1.964 1.733v15.482h-3.928zm7.106 0V21.353c0-.982.866-1.733 1.964-1.733s1.964.75 1.964 1.733v29.232h-3.928zm7.105 0V19.33c0-.982.867-1.733 1.965-1.733s1.964.75 1.964 1.733v31.254h-3.93zm7.106 0V17.078c0-.924.924-1.733 1.964-1.733 1.098 0 1.965.81 1.965 1.733v33.507h-3.93zm7.164 0V15.23c0-.924.866-1.733 1.964-1.733 1.04 0 1.964.81 1.964 1.733v35.355h-3.928zm7.105 0V27.188c0-.924.867-1.733 1.965-1.733 1.04 0 1.964.81 1.964 1.733v23.397h-3.93zm7.106 0V31.867c0-.924.867-1.733 1.964-1.733s1.965.81 1.965 1.733v18.717h-3.93zm7.106 0V6.564c0-.982.867-1.733 1.964-1.733s1.964.75 1.964 1.733v44.02h-3.928zm7.106 0V15.23c0-.924.866-1.733 1.964-1.733s1.964.81 1.964 1.733v35.355h-3.928zm7.105 0V11.6c0-.924.925-1.733 1.965-1.733 1.097 0 1.964.81 1.964 1.733v38.995h-3.93zm7.164 0V7.546c0-.924.867-1.733 1.964-1.733 1.04 0 1.964.81 1.964 1.733v43.04h-3.928zm7.106 0V11.012c0-.982.866-1.733 1.964-1.733 1.04 0 1.964.75 1.964 1.733v39.573h-3.928zm7.106 0V3.733c0-.982.866-1.733 1.964-1.733s1.964.75 1.964 1.733v46.852h-3.928zm-138.65 0v-23.8c0-.924-.925-1.733-1.965-1.733-1.097 0-1.964.81-1.964 1.733v23.8h3.93zm-7.164 0V12.803c0-.924-.867-1.733-1.964-1.733-1.04 0-1.964.81-1.964 1.733v37.782h3.928zm-7.106 0v-39.4c0-.924-.866-1.733-1.964-1.733-1.04 0-1.964.81-1.964 1.733v39.4h3.928zm-7.106 0V3.733c0-.982-.866-1.733-1.964-1.733s-1.964.75-1.964 1.733v46.852h3.928zm-7.105 0V20.718c0-.924-.867-1.733-1.964-1.733s-1.965.81-1.965 1.733v29.867h3.93zm-7.106 0v-32.87c0-.982-.924-1.733-1.964-1.733-1.098 0-1.964.75-1.964 1.733v32.87h3.928zm-7.106 0v-23.8c0-.924-.924-1.733-1.964-1.733-1.098 0-1.964.81-1.964 1.733v23.8h3.928zm-7.163 0V35.102c0-.924-.867-1.733-1.964-1.733-1.04 0-1.965.81-1.965 1.733v15.482h3.93zm-7.106 0V21.353c0-.982-.867-1.733-1.964-1.733-1.04 0-1.964.75-1.964 1.733v29.232h3.928zm-7.106 0V19.33c0-.982-.866-1.733-1.964-1.733s-1.964.75-1.964 1.733v31.254h3.928zm-7.106 0V17.078c0-.924-.866-1.733-1.964-1.733s-1.964.81-1.964 1.733v33.507h3.928zm-7.105 0V15.23c0-.924-.925-1.733-1.965-1.733-1.097 0-1.964.81-1.964 1.733v35.355h3.93zm-7.106 0V27.188c0-.924-.924-1.733-1.964-1.733-1.098 0-1.964.81-1.964 1.733v23.397h3.928zm-7.164 0V31.867c0-.924-.866-1.733-1.964-1.733-1.04 0-1.964.81-1.964 1.733v18.717h3.928zm-7.105 0V6.564c0-.982-.867-1.733-1.965-1.733s-1.964.75-1.964 1.733v44.02h3.93zm-7.106 0V15.23c0-.924-.867-1.733-1.964-1.733s-1.965.81-1.965 1.733v35.355h3.93zm-7.106 0V11.6c0-.924-.866-1.733-1.964-1.733s-1.964.81-1.964 1.733v38.995h3.928zm-7.106 0V7.546c0-.924-.924-1.733-1.964-1.733-1.098 0-1.964.81-1.964 1.733v43.04h3.928zm-7.105 0V11.012c0-.982-.925-1.733-2.022-1.733-1.04 0-1.965.75-1.965 1.733v39.573h3.987zm843.56 0V3.733c0-.982.87-1.733 1.96-1.733 1.1 0 1.97.75 1.97 1.733v46.852H1339zm-7.1 0v-39.4c0-.924.87-1.733 1.97-1.733s1.96.81 1.96 1.733v39.4h-3.93zm-7.1 0V12.803c0-.924.86-1.733 1.96-1.733 1.04 0 1.97.81 1.97 1.733v37.782h-3.93zm-7.17 0v-23.8c0-.924.93-1.733 2.03-1.733 1.04 0 1.96.81 1.96 1.733v23.8h-4zm-138.64 0V3.733c0-.982-.87-1.733-1.97-1.733-1.04 0-1.96.75-1.96 1.733v46.852h3.93zm7.1 0V11.012c0-.982-.87-1.733-1.96-1.733-1.04 0-1.97.75-1.97 1.733v39.573h3.93zm7.16 0V7.546c0-.924-.92-1.733-1.96-1.733-1.1 0-1.96.81-1.96 1.733v43.04h3.92zm7.1 0V11.6c0-.924-.92-1.733-1.96-1.733-1.1 0-1.97.81-1.97 1.733v38.995h3.93zm7.1 0V15.23c0-.924-.87-1.733-1.97-1.733s-1.96.81-1.96 1.733v35.355h3.93zm7.1 0V6.564c0-.982-.87-1.733-1.96-1.733-1.1 0-1.97.75-1.97 1.733v44.02h3.93zm7.1 0V31.867c0-.924-.87-1.733-1.97-1.733-1.04 0-1.96.81-1.96 1.733v18.717h3.93zm7.1 0V27.188c0-.924-.86-1.733-1.96-1.733-1.04 0-1.97.81-1.97 1.733v23.397h3.93zm7.17 0V15.23c0-.924-.93-1.733-1.97-1.733-1.1 0-1.96.81-1.96 1.733v35.355h3.93zm7.1 0V17.078c0-.924-.92-1.733-1.96-1.733-1.1 0-1.97.81-1.97 1.733v33.507h3.93zm7.1 0V19.33c0-.982-.87-1.733-1.97-1.733-1.1 0-1.96.75-1.96 1.733v31.254h3.93zm7.1 0V21.353c0-.982-.86-1.733-1.96-1.733s-1.96.75-1.96 1.733v29.232h3.92zm7.1 0V35.102c0-.924-.87-1.733-1.96-1.733-1.04 0-1.97.81-1.97 1.733v15.482h3.93zm7.1 0v-23.8c0-.924-.87-1.733-1.97-1.733-1.04 0-1.96.81-1.96 1.733v23.8h3.93zm7.16 0v-32.87c0-.982-.93-1.733-1.97-1.733-1.1 0-1.96.75-1.96 1.733v32.87h3.93zm7.1 0V20.718c0-.924-.86-1.733-1.96-1.733s-1.96.81-1.96 1.733v29.867h3.92zm7.1 0V3.733c0-.982-.87-1.733-1.96-1.733-1.1 0-1.97.75-1.97 1.733v46.852h3.93zm7.1 0v-39.4c0-.924-.87-1.733-1.97-1.733s-1.96.81-1.96 1.733v39.4h3.93zm7.1 0V12.803c0-.924-.86-1.733-1.96-1.733-1.04 0-1.97.81-1.97 1.733v37.782h3.93zm7.17 0v-23.8c0-.924-.93-1.733-1.97-1.733-1.1 0-1.96.81-1.96 1.733v23.8h3.93zm-146.16 0V21.353c0-.982.86-1.733 1.96-1.733s1.96.75 1.96 1.733v29.232h-3.92zm-7.1 0V35.102c0-.924.87-1.733 1.96-1.733 1.04 0 1.97.81 1.97 1.733v15.482h-3.93zm-7.1 0v-23.8c0-.924.87-1.733 1.97-1.733 1.04 0 1.96.81 1.96 1.733v23.8h-3.93zm-7.16 0v-32.87c0-.982.93-1.733 1.97-1.733 1.1 0 1.96.75 1.96 1.733v32.87h-3.93zm-7.1 0V20.718c0-.924.86-1.733 1.96-1.733s1.96.81 1.96 1.733v29.867h-3.92zm-7.1 0V3.733c0-.982.87-1.733 1.96-1.733 1.1 0 1.97.75 1.97 1.733v46.852h-3.93zm-7.1 0v-39.4c0-.924.87-1.733 1.97-1.733s1.96.81 1.96 1.733v39.4h-3.93zm-7.1 0V12.803c0-.924.86-1.733 1.96-1.733 1.04 0 1.97.81 1.97 1.733v37.782h-3.93zm-7.17 0v-23.8c0-.924.93-1.733 1.97-1.733 1.1 0 1.96.81 1.96 1.733v23.8h-3.93zm-131.535 0V11.012c0-.982-.867-1.733-1.965-1.733-1.04 0-1.964.75-1.964 1.733v39.573h3.93zm7.163 0V7.546c0-.924-.924-1.733-1.964-1.733-1.098 0-1.964.81-1.964 1.733v43.04h3.928zm7.106 0V11.6c0-.924-.924-1.733-1.964-1.733-1.098 0-1.965.81-1.965 1.733v38.995h3.93zm7.106 0V15.23c0-.924-.87-1.733-1.965-1.733S997 14.305 997 15.23v35.355h3.93zm7.1 0V6.564c0-.982-.86-1.733-1.96-1.733s-1.97.75-1.97 1.733v44.02h3.93zm7.1 0V31.867c0-.924-.87-1.733-1.97-1.733-1.04 0-1.96.81-1.96 1.733v18.717h3.93zm7.1 0V27.188c0-.924-.86-1.733-1.96-1.733-1.04 0-1.96.81-1.96 1.733v23.397h3.92zm7.17 0V15.23c0-.924-.93-1.733-1.97-1.733-1.1 0-1.96.81-1.96 1.733v35.355h3.93zm7.1 0V17.078c0-.924-.92-1.733-1.96-1.733-1.1 0-1.97.81-1.97 1.733v33.507h3.93zm7.1 0V19.33c0-.982-.87-1.733-1.97-1.733-1.1 0-1.96.75-1.96 1.733v31.254h3.93zm7.1 0V21.353c0-.982-.86-1.733-1.96-1.733s-1.96.75-1.96 1.733v29.232h3.92zm7.1 0V35.102c0-.924-.87-1.733-1.96-1.733-1.04 0-1.97.81-1.97 1.733v15.482h3.93zm7.1 0v-23.8c0-.924-.87-1.733-1.97-1.733-1.04 0-1.96.81-1.96 1.733v23.8h3.93zm7.16 0v-32.87c0-.982-.92-1.733-1.96-1.733-1.1 0-1.97.75-1.97 1.733v32.87h3.93zm7.1 0V20.718c0-.924-.93-1.733-1.97-1.733-1.1 0-1.96.81-1.96 1.733v29.867h3.93zm7.1 0V3.733c0-.982-.87-1.733-1.96-1.733-1.1 0-1.97.75-1.97 1.733v46.852h3.93zm7.1 0v-39.4c0-.924-.87-1.733-1.97-1.733-1.1 0-1.96.81-1.96 1.733v39.4h3.93zm7.1 0V12.803c0-.924-.86-1.733-1.96-1.733-1.04 0-1.97.81-1.97 1.733v37.782h3.93zm7.17 0v-23.8c0-.924-.93-1.733-1.97-1.733-1.1 0-2.02.81-2.02 1.733v23.8h4z" fill="#6e6e6e"/></g><defs><clipPath id="A"><path fill="#fff" d="M0 0h1345.93v48.64H0z"/></clipPath></defs></svg>