<svg width="4036" height="50" viewBox="0 0 4036 50" fill="none" xmlns="http://www.w3.org/2000/svg">
<path fill-rule="evenodd" clip-rule="evenodd" d="M1835.03 49.365V2.51332C1835.03 1.53122 1834.16 0.780273 1833.07 0.780273C1832.03 0.780273 1831.1 1.53122 1831.1 2.51332V49.365H1835.03ZM1485.87 49.365V25.5637C1485.87 24.6393 1485 23.8306 1483.9 23.8306C1482.81 23.8306 1481.94 24.6393 1481.94 25.5637V49.365H1485.87ZM1478.76 49.365V11.5833C1478.76 10.659 1477.84 9.85027 1476.8 9.85027C1475.7 9.85027 1474.83 10.659 1474.83 11.5833V49.365H1478.76ZM1471.6 49.365V9.96592C1471.6 9.0416 1470.73 8.23253 1469.63 8.23253C1468.59 8.23253 1467.67 9.0416 1467.67 9.96592V49.365H1471.6ZM1464.49 49.365V2.51332C1464.49 1.53122 1463.63 0.780273 1462.53 0.780273C1461.49 0.780273 1460.56 1.53122 1460.56 2.51332V49.365H1464.49ZM1457.39 49.365V19.4978C1457.39 18.5735 1456.52 17.7648 1455.42 17.7648C1454.32 17.7648 1453.46 18.5735 1453.46 19.4978V49.365H1457.39ZM1450.28 49.365V16.4937C1450.28 15.5116 1449.42 14.7606 1448.32 14.7606C1447.22 14.7606 1446.35 15.5116 1446.35 16.4937V49.365H1450.28ZM1443.18 49.365V25.5637C1443.18 24.6393 1442.31 23.8306 1441.21 23.8306C1440.11 23.8306 1439.25 24.6393 1439.25 25.5637V49.365H1443.18ZM1436.07 49.365V33.8826C1436.07 32.9583 1435.15 32.1496 1434.11 32.1496C1433.01 32.1496 1432.14 32.9583 1432.14 33.8826V49.365H1436.07ZM1428.91 49.365V20.1332C1428.91 19.1511 1428.04 18.4002 1426.94 18.4002C1425.9 18.4002 1424.98 19.1511 1424.98 20.1332V49.365H1428.91ZM1421.8 49.365V18.1114C1421.8 17.1293 1420.93 16.3784 1419.84 16.3784C1418.8 16.3784 1417.87 17.1293 1417.87 18.1114V49.365H1421.8ZM1414.69 49.365V15.8583C1414.69 14.9339 1413.83 14.1252 1412.73 14.1252C1411.63 14.1252 1410.77 14.9339 1410.77 15.8583V49.365H1414.69ZM1407.59 49.365V14.0096C1407.59 13.0852 1406.72 12.2765 1405.62 12.2765C1404.53 12.2765 1403.66 13.0852 1403.66 14.0096V49.365H1407.59ZM1400.48 49.365V25.9681C1400.48 25.0438 1399.56 24.235 1398.52 24.235C1397.42 24.235 1396.55 25.0438 1396.55 25.9681V49.365H1400.48ZM1393.38 49.365V30.6475C1393.38 29.7231 1392.45 28.9144 1391.41 28.9144C1390.32 28.9144 1389.45 29.7231 1389.45 30.6475V49.365H1393.38ZM1386.21 49.365V5.34401C1386.21 4.36191 1385.35 3.61097 1384.25 3.61097C1383.21 3.61097 1382.29 4.36191 1382.29 5.34401V49.365H1386.21ZM1379.11 49.365V14.0096C1379.11 13.0852 1378.24 12.2765 1377.14 12.2765C1376.1 12.2765 1375.18 13.0852 1375.18 14.0096V49.365H1379.11ZM1372 49.365V10.37C1372 9.44568 1371.14 8.63696 1370.04 8.63696C1368.94 8.63696 1368.07 9.44568 1368.07 10.37V49.365H1372ZM1364.9 49.365V6.32636C1364.9 5.40203 1364.03 4.59297 1362.93 4.59297C1361.83 4.59297 1360.97 5.40203 1360.97 6.32636V49.365H1364.9ZM1357.79 49.365V9.79244C1357.79 8.81035 1356.87 8.0594 1355.83 8.0594C1354.73 8.0594 1353.86 8.81035 1353.86 9.79244V49.365H1357.79ZM1350.68 49.365V2.51332C1350.68 1.53122 1349.76 0.780273 1348.72 0.780273C1347.62 0.780273 1346.76 1.53122 1346.76 2.51332V49.365H1350.68ZM1489.33 49.365V25.5637C1489.33 24.6393 1490.2 23.8306 1491.3 23.8306C1492.4 23.8306 1493.26 24.6393 1493.26 25.5637V49.365H1489.33ZM1496.44 49.365V11.5833C1496.44 10.659 1497.31 9.85027 1498.4 9.85027C1499.5 9.85027 1500.37 10.659 1500.37 11.5833V49.365H1496.44ZM1503.54 49.365V9.96592C1503.54 9.0416 1504.41 8.23253 1505.51 8.23253C1506.61 8.23253 1507.47 9.0416 1507.47 9.96592V49.365H1503.54ZM1510.65 49.365V2.51332C1510.65 1.53122 1511.58 0.780273 1512.62 0.780273C1513.71 0.780273 1514.58 1.53122 1514.58 2.51332V49.365H1510.65ZM1517.82 49.365V19.4978C1517.82 18.5735 1518.68 17.7648 1519.78 17.7648C1520.82 17.7648 1521.74 18.5735 1521.74 19.4978V49.365H1517.82ZM1524.92 49.365V16.4937C1524.92 15.5116 1525.79 14.7606 1526.88 14.7606C1527.92 14.7606 1528.85 15.5116 1528.85 16.4937V49.365H1524.92ZM1532.03 49.365V25.5637C1532.03 24.6393 1532.89 23.8306 1533.99 23.8306C1535.09 23.8306 1535.96 24.6393 1535.96 25.5637V49.365H1532.03ZM1539.13 49.365V33.8826C1539.13 32.9583 1540 32.1496 1541.1 32.1496C1542.19 32.1496 1543.06 32.9583 1543.06 33.8826V49.365H1539.13ZM1546.24 49.365V20.1332C1546.24 19.1511 1547.16 18.4002 1548.2 18.4002C1549.3 18.4002 1550.17 19.1511 1550.17 20.1332V49.365H1546.24ZM1692.4 49.365V25.5637C1692.4 24.6393 1691.53 23.8306 1690.43 23.8306C1689.34 23.8306 1688.47 24.6393 1688.47 25.5637V49.365H1692.4ZM1685.29 49.365V11.5833C1685.29 10.659 1684.37 9.85027 1683.33 9.85027C1682.23 9.85027 1681.36 10.659 1681.36 11.5833V49.365H1685.29ZM1678.18 49.365V9.96592C1678.18 9.0416 1677.26 8.23253 1676.22 8.23253C1675.12 8.23253 1674.2 9.0416 1674.2 9.96592V49.365H1678.18ZM1671.02 49.365V2.51332C1671.02 1.53122 1670.16 0.780273 1669.06 0.780273C1668.02 0.780273 1667.09 1.53122 1667.09 2.51332V49.365H1671.02ZM1663.92 49.365V19.4978C1663.92 18.5735 1663.05 17.7648 1661.95 17.7648C1660.85 17.7648 1659.99 18.5735 1659.99 19.4978V49.365H1663.92ZM1656.81 49.365V16.4937C1656.81 15.5116 1655.94 14.7606 1654.85 14.7606C1653.75 14.7606 1652.88 15.5116 1652.88 16.4937V49.365H1656.81ZM1649.7 49.365V25.5637C1649.7 24.6393 1648.84 23.8306 1647.74 23.8306C1646.64 23.8306 1645.78 24.6393 1645.78 25.5637V49.365H1649.7ZM1642.6 49.365V33.8826C1642.6 32.9583 1641.68 32.1496 1640.64 32.1496C1639.54 32.1496 1638.67 32.9583 1638.67 33.8826V49.365H1642.6ZM1635.43 49.365V20.1332C1635.43 19.1511 1634.57 18.4002 1633.47 18.4002C1632.43 18.4002 1631.51 19.1511 1631.51 20.1332V49.365H1635.43ZM1628.33 49.365V18.1114C1628.33 17.1293 1627.46 16.3784 1626.36 16.3784C1625.32 16.3784 1624.4 17.1293 1624.4 18.1114V49.365H1628.33ZM1621.22 49.365V15.8583C1621.22 14.9339 1620.36 14.1252 1619.26 14.1252C1618.16 14.1252 1617.3 14.9339 1617.3 15.8583V49.365H1621.22ZM1614.12 49.365V14.0096C1614.12 13.0852 1613.25 12.2765 1612.15 12.2765C1611.06 12.2765 1610.19 13.0852 1610.19 14.0096V49.365H1614.12ZM1607.01 49.365V25.9681C1607.01 25.0438 1606.09 24.235 1605.05 24.235C1603.95 24.235 1603.08 25.0438 1603.08 25.9681V49.365H1607.01ZM1599.91 49.365V30.6475C1599.91 29.7231 1598.98 28.9144 1597.94 28.9144C1596.85 28.9144 1595.98 29.7231 1595.98 30.6475V49.365H1599.91ZM1592.74 49.365V5.34401C1592.74 4.36191 1591.88 3.61097 1590.78 3.61097C1589.74 3.61097 1588.82 4.36191 1588.82 5.34401V49.365H1592.74ZM1585.64 49.365V14.0096C1585.64 13.0852 1584.77 12.2765 1583.67 12.2765C1582.63 12.2765 1581.71 13.0852 1581.71 14.0096V49.365H1585.64ZM1578.53 49.365V10.37C1578.53 9.44568 1577.67 8.63696 1576.57 8.63696C1575.47 8.63696 1574.6 9.44568 1574.6 10.37V49.365H1578.53ZM1571.43 49.365V6.32636C1571.43 5.40203 1570.56 4.59297 1569.46 4.59297C1568.36 4.59297 1567.5 5.40203 1567.5 6.32636V49.365H1571.43ZM1564.32 49.365V9.79244C1564.32 8.81035 1563.4 8.0594 1562.36 8.0594C1561.26 8.0594 1560.39 8.81035 1560.39 9.79244V49.365H1564.32ZM1557.21 49.365V2.51332C1557.21 1.53122 1556.29 0.780273 1555.25 0.780273C1554.15 0.780273 1553.29 1.53122 1553.29 2.51332V49.365H1557.21ZM1695.86 49.365V25.5637C1695.86 24.6393 1696.73 23.8306 1697.83 23.8306C1698.92 23.8306 1699.79 24.6393 1699.79 25.5637V49.365H1695.86ZM1702.97 49.365V11.5833C1702.97 10.659 1703.84 9.85027 1704.93 9.85027C1706.03 9.85027 1706.9 10.659 1706.9 11.5833V49.365H1702.97ZM1710.08 49.365V9.96592C1710.08 9.0416 1710.94 8.23253 1712.04 8.23253C1713.14 8.23253 1714 9.0416 1714 9.96592V49.365H1710.08ZM1717.18 49.365V2.51332C1717.18 1.53122 1718.1 0.780273 1719.14 0.780273C1720.24 0.780273 1721.11 1.53122 1721.11 2.51332V49.365H1717.18ZM1724.34 49.365V19.4978C1724.34 18.5735 1725.21 17.7648 1726.31 17.7648C1727.35 17.7648 1728.27 18.5735 1728.27 19.4978V49.365H1724.34ZM1731.45 49.365V16.4937C1731.45 15.5116 1732.32 14.7606 1733.41 14.7606C1734.45 14.7606 1735.38 15.5116 1735.38 16.4937V49.365H1731.45ZM1738.55 49.365V25.5637C1738.55 24.6393 1739.42 23.8306 1740.52 23.8306C1741.62 23.8306 1742.48 24.6393 1742.48 25.5637V49.365H1738.55ZM1745.66 49.365V33.8826C1745.66 32.9583 1746.53 32.1496 1747.62 32.1496C1748.72 32.1496 1749.59 32.9583 1749.59 33.8826V49.365H1745.66ZM1752.77 49.365V20.1332C1752.77 19.1511 1753.69 18.4002 1754.73 18.4002C1755.83 18.4002 1756.7 19.1511 1756.7 20.1332V49.365H1752.77ZM1759.87 49.365V18.1114C1759.87 17.1293 1760.8 16.3784 1761.84 16.3784C1762.94 16.3784 1763.8 17.1293 1763.8 18.1114V49.365H1759.87ZM1767.04 49.365V15.8583C1767.04 14.9339 1767.9 14.1252 1769 14.1252C1770.04 14.1252 1770.96 14.9339 1770.96 15.8583V49.365H1767.04ZM1774.14 49.365V14.0096C1774.14 13.0852 1775.01 12.2765 1776.11 12.2765C1777.15 12.2765 1778.07 13.0852 1778.07 14.0096V49.365H1774.14ZM1781.25 49.365V25.9681C1781.25 25.0438 1782.11 24.235 1783.21 24.235C1784.31 24.235 1785.18 25.0438 1785.18 25.9681V49.365H1781.25ZM1788.35 49.365V30.6475C1788.35 29.7231 1789.22 28.9144 1790.32 28.9144C1791.41 28.9144 1792.28 29.7231 1792.28 30.6475V49.365H1788.35ZM1795.46 49.365V5.34401C1795.46 4.36191 1796.38 3.61097 1797.42 3.61097C1798.52 3.61097 1799.39 4.36191 1799.39 5.34401V49.365H1795.46ZM1802.57 49.365V14.0096C1802.57 13.0852 1803.49 12.2765 1804.53 12.2765C1805.63 12.2765 1806.49 13.0852 1806.49 14.0096V49.365H1802.57ZM1809.73 49.365V10.37C1809.73 9.44568 1810.59 8.63696 1811.69 8.63696C1812.73 8.63696 1813.66 9.44568 1813.66 10.37V49.365H1809.73ZM1816.83 49.365V6.32636C1816.83 5.40203 1817.7 4.59297 1818.8 4.59297C1819.84 4.59297 1820.76 5.40203 1820.76 6.32636V49.365H1816.83ZM1823.94 49.365V9.79244C1823.94 8.81035 1824.81 8.0594 1825.9 8.0594C1827 8.0594 1827.87 8.81035 1827.87 9.79244V49.365H1823.94ZM2180.27 49.365V25.5637C2180.27 24.6393 2181.13 23.8306 2182.23 23.8306C2183.27 23.8306 2184.2 24.6393 2184.2 25.5637V49.365H2180.27ZM2187.37 49.365V11.5833C2187.37 10.659 2188.24 9.85027 2189.34 9.85027C2190.38 9.85027 2191.3 10.659 2191.3 11.5833V49.365H2187.37ZM2194.48 49.365V9.96592C2194.48 9.0416 2195.35 8.23253 2196.44 8.23253C2197.54 8.23253 2198.41 9.0416 2198.41 9.96592V49.365H2194.48ZM2201.59 49.365V2.51332C2201.59 1.53122 2202.45 0.780273 2203.55 0.780273C2204.65 0.780273 2205.51 1.53122 2205.51 2.51332V49.365H2201.59ZM2208.69 49.365V19.4978C2208.69 18.5735 2209.62 17.7648 2210.66 17.7648C2211.75 17.7648 2212.62 18.5735 2212.62 19.4978V49.365H2208.69ZM2215.8 49.365V16.4937C2215.8 15.5116 2216.72 14.7606 2217.76 14.7606C2218.86 14.7606 2219.72 15.5116 2219.72 16.4937V49.365H2215.8ZM2222.96 49.365V25.5637C2222.96 24.6393 2223.83 23.8306 2224.92 23.8306C2225.96 23.8306 2226.89 24.6393 2226.89 25.5637V49.365H2222.96ZM2230.07 49.365V33.8826C2230.07 32.9583 2230.93 32.1496 2232.03 32.1496C2233.13 32.1496 2233.99 32.9583 2233.99 33.8826V49.365H2230.07ZM2237.17 49.365V20.1332C2237.17 19.1511 2238.04 18.4002 2239.14 18.4002C2240.23 18.4002 2241.1 19.1511 2241.1 20.1332V49.365H2237.17ZM2244.28 49.365V18.1114C2244.28 17.1293 2245.14 16.3784 2246.24 16.3784C2247.34 16.3784 2248.21 17.1293 2248.21 18.1114V49.365H2244.28ZM2251.38 49.365V15.8583C2251.38 14.9339 2252.31 14.1252 2253.35 14.1252C2254.45 14.1252 2255.31 14.9339 2255.31 15.8583V49.365H2251.38ZM2258.55 49.365V14.0096C2258.55 13.0852 2259.41 12.2765 2260.51 12.2765C2261.55 12.2765 2262.47 13.0852 2262.47 14.0096V49.365H2258.55ZM2265.65 49.365V25.9681C2265.65 25.0438 2266.52 24.235 2267.62 24.235C2268.66 24.235 2269.58 25.0438 2269.58 25.9681V49.365H2265.65ZM2272.76 49.365V30.6475C2272.76 29.7231 2273.63 28.9144 2274.72 28.9144C2275.82 28.9144 2276.69 29.7231 2276.69 30.6475V49.365H2272.76ZM2279.86 49.365V5.34401C2279.86 4.36191 2280.73 3.61097 2281.83 3.61097C2282.93 3.61097 2283.79 4.36191 2283.79 5.34401V49.365H2279.86ZM2286.97 49.365V14.0096C2286.97 13.0852 2287.89 12.2765 2288.93 12.2765C2290.03 12.2765 2290.9 13.0852 2290.9 14.0096V49.365H2286.97ZM2294.08 49.365V10.37C2294.08 9.44568 2295 8.63696 2296.04 8.63696C2297.14 8.63696 2298 9.44568 2298 10.37V49.365H2294.08ZM2301.24 49.365V6.32636C2301.24 5.40203 2302.11 4.59297 2303.2 4.59297C2304.24 4.59297 2305.17 5.40203 2305.17 6.32636V49.365H2301.24ZM2308.34 49.365V9.79244C2308.34 8.81035 2309.21 8.0594 2310.31 8.0594C2311.35 8.0594 2312.27 8.81035 2312.27 9.79244V49.365H2308.34ZM2315.45 49.365V2.51332C2315.45 1.53122 2316.32 0.780273 2317.41 0.780273C2318.51 0.780273 2319.38 1.53122 2319.38 2.51332V49.365H2315.45ZM2176.8 49.365V25.5637C2176.8 24.6393 2175.88 23.8306 2174.84 23.8306C2173.74 23.8306 2172.87 24.6393 2172.87 25.5637V49.365H2176.8ZM2169.64 49.365V11.5833C2169.64 10.659 2168.77 9.85027 2167.67 9.85027C2166.63 9.85027 2165.71 10.659 2165.71 11.5833V49.365H2169.64ZM2162.53 49.365V9.96592C2162.53 9.0416 2161.67 8.23253 2160.57 8.23253C2159.53 8.23253 2158.6 9.0416 2158.6 9.96592V49.365H2162.53ZM2155.43 49.365V2.51332C2155.43 1.53122 2154.56 0.780273 2153.46 0.780273C2152.37 0.780273 2151.5 1.53122 2151.5 2.51332V49.365H2155.43ZM2148.32 49.365V19.4978C2148.32 18.5735 2147.45 17.7648 2146.36 17.7648C2145.26 17.7648 2144.39 18.5735 2144.39 19.4978V49.365H2148.32ZM2141.22 49.365V16.4937C2141.22 15.5116 2140.29 14.7606 2139.25 14.7606C2138.15 14.7606 2137.29 15.5116 2137.29 16.4937V49.365H2141.22ZM2134.11 49.365V25.5637C2134.11 24.6393 2133.19 23.8306 2132.15 23.8306C2131.05 23.8306 2130.18 24.6393 2130.18 25.5637V49.365H2134.11ZM2126.95 49.365V33.8826C2126.95 32.9583 2126.08 32.1496 2124.98 32.1496C2123.94 32.1496 2123.02 32.9583 2123.02 33.8826V49.365H2126.95ZM2119.84 49.365V20.1332C2119.84 19.1511 2118.97 18.4002 2117.88 18.4002C2116.84 18.4002 2115.91 19.1511 2115.91 20.1332V49.365H2119.84ZM1973.74 49.365V25.5637C1973.74 24.6393 1974.61 23.8306 1975.7 23.8306C1976.74 23.8306 1977.67 24.6393 1977.67 25.5637V49.365H1973.74ZM1980.84 49.365V11.5833C1980.84 10.659 1981.71 9.85027 1982.81 9.85027C1983.85 9.85027 1984.77 10.659 1984.77 11.5833V49.365H1980.84ZM1987.95 49.365V9.96592C1987.95 9.0416 1988.82 8.23253 1989.91 8.23253C1991.01 8.23253 1991.88 9.0416 1991.88 9.96592V49.365H1987.95ZM1995.06 49.365V2.51332C1995.06 1.53122 1995.92 0.780273 1997.02 0.780273C1998.12 0.780273 1998.98 1.53122 1998.98 2.51332V49.365H1995.06ZM2002.16 49.365V19.4978C2002.16 18.5735 2003.09 17.7648 2004.13 17.7648C2005.22 17.7648 2006.09 18.5735 2006.09 19.4978V49.365H2002.16ZM2009.27 49.365V16.4937C2009.27 15.5116 2010.19 14.7606 2011.23 14.7606C2012.33 14.7606 2013.2 15.5116 2013.2 16.4937V49.365H2009.27ZM2016.43 49.365V25.5637C2016.43 24.6393 2017.3 23.8306 2018.4 23.8306C2019.44 23.8306 2020.36 24.6393 2020.36 25.5637V49.365H2016.43ZM2023.54 49.365V33.8826C2023.54 32.9583 2024.4 32.1496 2025.5 32.1496C2026.6 32.1496 2027.47 32.9583 2027.47 33.8826V49.365H2023.54ZM2030.64 49.365V20.1332C2030.64 19.1511 2031.51 18.4002 2032.61 18.4002C2033.7 18.4002 2034.57 19.1511 2034.57 20.1332V49.365H2030.64ZM2037.75 49.365V18.1114C2037.75 17.1293 2038.62 16.3784 2039.71 16.3784C2040.81 16.3784 2041.68 17.1293 2041.68 18.1114V49.365H2037.75ZM2044.85 49.365V15.8583C2044.85 14.9339 2045.78 14.1252 2046.82 14.1252C2047.92 14.1252 2048.78 14.9339 2048.78 15.8583V49.365H2044.85ZM2052.02 49.365V14.0096C2052.02 13.0852 2052.88 12.2765 2053.98 12.2765C2055.02 12.2765 2055.95 13.0852 2055.95 14.0096V49.365H2052.02ZM2059.12 49.365V25.9681C2059.12 25.0438 2059.99 24.235 2061.09 24.235C2062.13 24.235 2063.05 25.0438 2063.05 25.9681V49.365H2059.12ZM2066.23 49.365V30.6475C2066.23 29.7231 2067.1 28.9144 2068.19 28.9144C2069.29 28.9144 2070.16 29.7231 2070.16 30.6475V49.365H2066.23ZM2073.34 49.365V5.34401C2073.34 4.36191 2074.2 3.61097 2075.3 3.61097C2076.4 3.61097 2077.26 4.36191 2077.26 5.34401V49.365H2073.34ZM2080.44 49.365V14.0096C2080.44 13.0852 2081.31 12.2765 2082.41 12.2765C2083.5 12.2765 2084.37 13.0852 2084.37 14.0096V49.365H2080.44ZM2087.55 49.365V10.37C2087.55 9.44568 2088.47 8.63696 2089.51 8.63696C2090.61 8.63696 2091.47 9.44568 2091.47 10.37V49.365H2087.55ZM2094.71 49.365V6.32636C2094.71 5.40203 2095.58 4.59297 2096.67 4.59297C2097.71 4.59297 2098.64 5.40203 2098.64 6.32636V49.365H2094.71ZM2101.82 49.365V9.79244C2101.82 8.81035 2102.68 8.0594 2103.78 8.0594C2104.82 8.0594 2105.74 8.81035 2105.74 9.79244V49.365H2101.82ZM2108.92 49.365V2.51332C2108.92 1.53122 2109.79 0.780273 2110.89 0.780273C2111.98 0.780273 2112.85 1.53122 2112.85 2.51332V49.365H2108.92ZM1970.27 49.365V25.5637C1970.27 24.6393 1969.35 23.8306 1968.31 23.8306C1967.21 23.8306 1966.34 24.6393 1966.34 25.5637V49.365H1970.27ZM1963.11 49.365V11.5833C1963.11 10.659 1962.24 9.85027 1961.15 9.85027C1960.11 9.85027 1959.18 10.659 1959.18 11.5833V49.365H1963.11ZM1956 49.365V9.96592C1956 9.0416 1955.14 8.23253 1954.04 8.23253C1953 8.23253 1952.08 9.0416 1952.08 9.96592V49.365H1956ZM1948.9 49.365V2.51332C1948.9 1.53122 1948.03 0.780273 1946.93 0.780273C1945.84 0.780273 1944.97 1.53122 1944.97 2.51332V49.365H1948.9ZM1941.79 49.365V19.4978C1941.79 18.5735 1940.93 17.7648 1939.83 17.7648C1938.73 17.7648 1937.86 18.5735 1937.86 19.4978V49.365H1941.79ZM1934.69 49.365V16.4937C1934.69 15.5116 1933.76 14.7606 1932.72 14.7606C1931.62 14.7606 1930.76 15.5116 1930.76 16.4937V49.365H1934.69ZM1927.58 49.365V25.5637C1927.58 24.6393 1926.66 23.8306 1925.62 23.8306C1924.52 23.8306 1923.65 24.6393 1923.65 25.5637V49.365H1927.58ZM1920.42 49.365V33.8826C1920.42 32.9583 1919.55 32.1496 1918.45 32.1496C1917.41 32.1496 1916.49 32.9583 1916.49 33.8826V49.365H1920.42ZM1913.31 49.365V20.1332C1913.31 19.1511 1912.44 18.4002 1911.35 18.4002C1910.31 18.4002 1909.38 19.1511 1909.38 20.1332V49.365H1913.31ZM1906.21 49.365V18.1114C1906.21 17.1293 1905.34 16.3784 1904.24 16.3784C1903.14 16.3784 1902.28 17.1293 1902.28 18.1114V49.365H1906.21ZM1899.1 49.365V15.8583C1899.1 14.9339 1898.23 14.1252 1897.14 14.1252C1896.04 14.1252 1895.17 14.9339 1895.17 15.8583V49.365H1899.1ZM1891.99 49.365V14.0096C1891.99 13.0852 1891.07 12.2765 1890.03 12.2765C1888.93 12.2765 1888.07 13.0852 1888.07 14.0096V49.365H1891.99ZM1884.89 49.365V25.9681C1884.89 25.0438 1883.96 24.235 1882.92 24.235C1881.83 24.235 1880.96 25.0438 1880.96 25.9681V49.365H1884.89ZM1877.72 49.365V30.6475C1877.72 29.7231 1876.86 28.9144 1875.76 28.9144C1874.72 28.9144 1873.8 29.7231 1873.8 30.6475V49.365H1877.72ZM1870.62 49.365V5.34401C1870.62 4.36191 1869.75 3.61097 1868.65 3.61097C1867.56 3.61097 1866.69 4.36191 1866.69 5.34401V49.365H1870.62ZM1863.51 49.365V14.0096C1863.51 13.0852 1862.65 12.2765 1861.55 12.2765C1860.45 12.2765 1859.58 13.0852 1859.58 14.0096V49.365H1863.51ZM1856.41 49.365V10.37C1856.41 9.44568 1855.54 8.63696 1854.44 8.63696C1853.34 8.63696 1852.48 9.44568 1852.48 10.37V49.365H1856.41ZM1849.3 49.365V6.32636C1849.3 5.40203 1848.38 4.59297 1847.34 4.59297C1846.24 4.59297 1845.37 5.40203 1845.37 6.32636V49.365H1849.3ZM1842.2 49.365V9.79244C1842.2 8.81035 1841.27 8.0594 1840.17 8.0594C1839.13 8.0594 1838.21 8.81035 1838.21 9.79244V49.365H1842.2ZM2685.76 49.365V2.51332C2685.76 1.53122 2686.63 0.780273 2687.72 0.780273C2688.82 0.780273 2689.69 1.53122 2689.69 2.51332V49.365H2685.76ZM2678.65 49.365V9.96592C2678.65 9.0416 2679.52 8.23253 2680.62 8.23253C2681.72 8.23253 2682.58 9.0416 2682.58 9.96592V49.365H2678.65ZM2671.55 49.365V11.5833C2671.55 10.659 2672.41 9.85027 2673.51 9.85027C2674.55 9.85027 2675.48 10.659 2675.48 11.5833V49.365H2671.55ZM2664.38 49.365V25.5637C2664.38 24.6393 2665.31 23.8306 2666.41 23.8306C2667.45 23.8306 2668.37 24.6393 2668.37 25.5637V49.365H2664.38ZM2525.74 49.365V2.51332C2525.74 1.53122 2524.87 0.780273 2523.77 0.780273C2522.73 0.780273 2521.81 1.53122 2521.81 2.51332V49.365H2525.74ZM2532.84 49.365V9.79244C2532.84 8.81035 2531.97 8.0594 2530.88 8.0594C2529.84 8.0594 2528.91 8.81035 2528.91 9.79244V49.365H2532.84ZM2540 49.365V6.32636C2540 5.40203 2539.08 4.59297 2538.04 4.59297C2536.94 4.59297 2536.08 5.40203 2536.08 6.32636V49.365H2540ZM2547.11 49.365V10.37C2547.11 9.44568 2546.19 8.63696 2545.15 8.63696C2544.05 8.63696 2543.18 9.44568 2543.18 10.37V49.365H2547.11ZM2554.22 49.365V14.0096C2554.22 13.0852 2553.35 12.2765 2552.25 12.2765C2551.15 12.2765 2550.29 13.0852 2550.29 14.0096V49.365H2554.22ZM2561.32 49.365V5.34401C2561.32 4.36191 2560.45 3.61097 2559.36 3.61097C2558.26 3.61097 2557.39 4.36191 2557.39 5.34401V49.365H2561.32ZM2568.43 49.365V30.6475C2568.43 29.7231 2567.56 28.9144 2566.46 28.9144C2565.42 28.9144 2564.5 29.7231 2564.5 30.6475V49.365H2568.43ZM2575.53 49.365V25.9681C2575.53 25.0438 2574.67 24.235 2573.57 24.235C2572.53 24.235 2571.6 25.0438 2571.6 25.9681V49.365H2575.53ZM2582.7 49.365V14.0096C2582.7 13.0852 2581.77 12.2765 2580.73 12.2765C2579.63 12.2765 2578.77 13.0852 2578.77 14.0096V49.365H2582.7ZM2589.8 49.365V15.8583C2589.8 14.9339 2588.88 14.1252 2587.84 14.1252C2586.74 14.1252 2585.87 14.9339 2585.87 15.8583V49.365H2589.8ZM2596.91 49.365V18.1114C2596.91 17.1293 2596.04 16.3784 2594.94 16.3784C2593.85 16.3784 2592.98 17.1293 2592.98 18.1114V49.365H2596.91ZM2604.01 49.365V20.1332C2604.01 19.1511 2603.15 18.4002 2602.05 18.4002C2600.95 18.4002 2600.09 19.1511 2600.09 20.1332V49.365H2604.01ZM2611.12 49.365V33.8826C2611.12 32.9583 2610.25 32.1496 2609.16 32.1496C2608.12 32.1496 2607.19 32.9583 2607.19 33.8826V49.365H2611.12ZM2618.23 49.365V25.5637C2618.23 24.6393 2617.36 23.8306 2616.26 23.8306C2615.22 23.8306 2614.3 24.6393 2614.3 25.5637V49.365H2618.23ZM2625.39 49.365V16.4937C2625.39 15.5116 2624.46 14.7606 2623.42 14.7606C2622.33 14.7606 2621.46 15.5116 2621.46 16.4937V49.365H2625.39ZM2632.49 49.365V19.4978C2632.49 18.5735 2631.63 17.7648 2630.53 17.7648C2629.43 17.7648 2628.57 18.5735 2628.57 19.4978V49.365H2632.49ZM2639.6 49.365V2.51332C2639.6 1.53122 2638.73 0.780273 2637.64 0.780273C2636.54 0.780273 2635.67 1.53122 2635.67 2.51332V49.365H2639.6ZM2646.71 49.365V9.96592C2646.71 9.0416 2645.84 8.23253 2644.74 8.23253C2643.64 8.23253 2642.78 9.0416 2642.78 9.96592V49.365H2646.71ZM2653.81 49.365V11.5833C2653.81 10.659 2652.95 9.85027 2651.85 9.85027C2650.81 9.85027 2649.88 10.659 2649.88 11.5833V49.365H2653.81ZM2660.98 49.365V25.5637C2660.98 24.6393 2660.05 23.8306 2659.01 23.8306C2657.91 23.8306 2657.05 24.6393 2657.05 25.5637V49.365H2660.98ZM2514.82 49.365V20.1332C2514.82 19.1511 2515.68 18.4002 2516.78 18.4002C2517.88 18.4002 2518.74 19.1511 2518.74 20.1332V49.365H2514.82ZM2507.71 49.365V33.8826C2507.71 32.9583 2508.58 32.1496 2509.67 32.1496C2510.71 32.1496 2511.64 32.9583 2511.64 33.8826V49.365H2507.71ZM2500.6 49.365V25.5637C2500.6 24.6393 2501.47 23.8306 2502.57 23.8306C2503.61 23.8306 2504.53 24.6393 2504.53 25.5637V49.365H2500.6ZM2493.44 49.365V16.4937C2493.44 15.5116 2494.37 14.7606 2495.41 14.7606C2496.5 14.7606 2497.37 15.5116 2497.37 16.4937V49.365H2493.44ZM2486.34 49.365V19.4978C2486.34 18.5735 2487.2 17.7648 2488.3 17.7648C2489.4 17.7648 2490.26 18.5735 2490.26 19.4978V49.365H2486.34ZM2479.23 49.365V2.51332C2479.23 1.53122 2480.1 0.780273 2481.19 0.780273C2482.29 0.780273 2483.16 1.53122 2483.16 2.51332V49.365H2479.23ZM2472.12 49.365V9.96592C2472.12 9.0416 2472.99 8.23253 2474.09 8.23253C2475.19 8.23253 2476.05 9.0416 2476.05 9.96592V49.365H2472.12ZM2465.02 49.365V11.5833C2465.02 10.659 2465.88 9.85027 2466.98 9.85027C2468.02 9.85027 2468.95 10.659 2468.95 11.5833V49.365H2465.02ZM2457.85 49.365V25.5637C2457.85 24.6393 2458.78 23.8306 2459.82 23.8306C2460.92 23.8306 2461.78 24.6393 2461.78 25.5637V49.365H2457.85ZM2326.31 49.365V9.79244C2326.31 8.81035 2325.44 8.0594 2324.35 8.0594C2323.31 8.0594 2322.38 8.81035 2322.38 9.79244V49.365H2326.31ZM2333.47 49.365V6.32636C2333.47 5.40203 2332.55 4.59297 2331.51 4.59297C2330.41 4.59297 2329.55 5.40203 2329.55 6.32636V49.365H2333.47ZM2340.58 49.365V10.37C2340.58 9.44568 2339.66 8.63696 2338.62 8.63696C2337.52 8.63696 2336.65 9.44568 2336.65 10.37V49.365H2340.58ZM2347.69 49.365V14.0096C2347.69 13.0852 2346.82 12.2765 2345.72 12.2765C2344.62 12.2765 2343.76 13.0852 2343.76 14.0096V49.365H2347.69ZM2354.79 49.365V5.34401C2354.79 4.36191 2353.93 3.61097 2352.83 3.61097C2351.73 3.61097 2350.86 4.36191 2350.86 5.34401V49.365H2354.79ZM2361.9 49.365V30.6475C2361.9 29.7231 2361.03 28.9144 2359.93 28.9144C2358.89 28.9144 2357.97 29.7231 2357.97 30.6475V49.365H2361.9ZM2369 49.365V25.9681C2369 25.0438 2368.14 24.235 2367.04 24.235C2366 24.235 2365.08 25.0438 2365.08 25.9681V49.365H2369ZM2376.17 49.365V14.0096C2376.17 13.0852 2375.24 12.2765 2374.2 12.2765C2373.11 12.2765 2372.24 13.0852 2372.24 14.0096V49.365H2376.17ZM2383.27 49.365V15.8583C2383.27 14.9339 2382.35 14.1252 2381.31 14.1252C2380.21 14.1252 2379.34 14.9339 2379.34 15.8583V49.365H2383.27ZM2390.38 49.365V18.1114C2390.38 17.1293 2389.51 16.3784 2388.41 16.3784C2387.32 16.3784 2386.45 17.1293 2386.45 18.1114V49.365H2390.38ZM2397.48 49.365V20.1332C2397.48 19.1511 2396.62 18.4002 2395.52 18.4002C2394.42 18.4002 2393.56 19.1511 2393.56 20.1332V49.365H2397.48ZM2404.59 49.365V33.8826C2404.59 32.9583 2403.72 32.1496 2402.63 32.1496C2401.59 32.1496 2400.66 32.9583 2400.66 33.8826V49.365H2404.59ZM2411.7 49.365V25.5637C2411.7 24.6393 2410.83 23.8306 2409.73 23.8306C2408.69 23.8306 2407.77 24.6393 2407.77 25.5637V49.365H2411.7ZM2418.86 49.365V16.4937C2418.86 15.5116 2417.94 14.7606 2416.9 14.7606C2415.8 14.7606 2414.93 15.5116 2414.93 16.4937V49.365H2418.86ZM2425.97 49.365V19.4978C2425.97 18.5735 2425.04 17.7648 2424 17.7648C2422.9 17.7648 2422.04 18.5735 2422.04 19.4978V49.365H2425.97ZM2433.07 49.365V2.51332C2433.07 1.53122 2432.2 0.780273 2431.11 0.780273C2430.01 0.780273 2429.14 1.53122 2429.14 2.51332V49.365H2433.07ZM2440.18 49.365V9.96592C2440.18 9.0416 2439.31 8.23253 2438.21 8.23253C2437.12 8.23253 2436.25 9.0416 2436.25 9.96592V49.365H2440.18ZM2447.28 49.365V11.5833C2447.28 10.659 2446.42 9.85027 2445.32 9.85027C2444.28 9.85027 2443.35 10.659 2443.35 11.5833V49.365H2447.28ZM2454.45 49.365V25.5637C2454.45 24.6393 2453.52 23.8306 2452.48 23.8306C2451.38 23.8306 2450.46 24.6393 2450.46 25.5637V49.365H2454.45Z" fill="#6E6E6E"/>
<path fill-rule="evenodd" clip-rule="evenodd" d="M3181.03 49.365V2.51332C3181.03 1.53122 3180.16 0.780273 3179.07 0.780273C3178.03 0.780273 3177.1 1.53122 3177.1 2.51332V49.365H3181.03ZM2831.87 49.365V25.5637C2831.87 24.6393 2831 23.8306 2829.9 23.8306C2828.81 23.8306 2827.94 24.6393 2827.94 25.5637V49.365H2831.87ZM2824.76 49.365V11.5833C2824.76 10.659 2823.84 9.85027 2822.8 9.85027C2821.7 9.85027 2820.83 10.659 2820.83 11.5833V49.365H2824.76ZM2817.6 49.365V9.96592C2817.6 9.0416 2816.73 8.23253 2815.63 8.23253C2814.59 8.23253 2813.67 9.0416 2813.67 9.96592V49.365H2817.6ZM2810.49 49.365V2.51332C2810.49 1.53122 2809.63 0.780273 2808.53 0.780273C2807.49 0.780273 2806.56 1.53122 2806.56 2.51332V49.365H2810.49ZM2803.39 49.365V19.4978C2803.39 18.5735 2802.52 17.7648 2801.42 17.7648C2800.32 17.7648 2799.46 18.5735 2799.46 19.4978V49.365H2803.39ZM2796.28 49.365V16.4937C2796.28 15.5116 2795.42 14.7606 2794.32 14.7606C2793.22 14.7606 2792.35 15.5116 2792.35 16.4937V49.365H2796.28ZM2789.18 49.365V25.5637C2789.18 24.6393 2788.31 23.8306 2787.21 23.8306C2786.11 23.8306 2785.25 24.6393 2785.25 25.5637V49.365H2789.18ZM2782.07 49.365V33.8826C2782.07 32.9583 2781.15 32.1496 2780.11 32.1496C2779.01 32.1496 2778.14 32.9583 2778.14 33.8826V49.365H2782.07ZM2774.91 49.365V20.1332C2774.91 19.1511 2774.04 18.4002 2772.94 18.4002C2771.9 18.4002 2770.98 19.1511 2770.98 20.1332V49.365H2774.91ZM2767.8 49.365V18.1114C2767.8 17.1293 2766.93 16.3784 2765.84 16.3784C2764.8 16.3784 2763.87 17.1293 2763.87 18.1114V49.365H2767.8ZM2760.69 49.365V15.8583C2760.69 14.9339 2759.83 14.1252 2758.73 14.1252C2757.63 14.1252 2756.77 14.9339 2756.77 15.8583V49.365H2760.69ZM2753.59 49.365V14.0096C2753.59 13.0852 2752.72 12.2765 2751.62 12.2765C2750.53 12.2765 2749.66 13.0852 2749.66 14.0096V49.365H2753.59ZM2746.48 49.365V25.9681C2746.48 25.0438 2745.56 24.235 2744.52 24.235C2743.42 24.235 2742.55 25.0438 2742.55 25.9681V49.365H2746.48ZM2739.38 49.365V30.6475C2739.38 29.7231 2738.45 28.9144 2737.41 28.9144C2736.32 28.9144 2735.45 29.7231 2735.45 30.6475V49.365H2739.38ZM2732.21 49.365V5.34401C2732.21 4.36191 2731.35 3.61097 2730.25 3.61097C2729.21 3.61097 2728.29 4.36191 2728.29 5.34401V49.365H2732.21ZM2725.11 49.365V14.0096C2725.11 13.0852 2724.24 12.2765 2723.14 12.2765C2722.1 12.2765 2721.18 13.0852 2721.18 14.0096V49.365H2725.11ZM2718 49.365V10.37C2718 9.44568 2717.14 8.63696 2716.04 8.63696C2714.94 8.63696 2714.07 9.44568 2714.07 10.37V49.365H2718ZM2710.9 49.365V6.32636C2710.9 5.40203 2710.03 4.59297 2708.93 4.59297C2707.83 4.59297 2706.97 5.40203 2706.97 6.32636V49.365H2710.9ZM2703.79 49.365V9.79244C2703.79 8.81035 2702.87 8.0594 2701.83 8.0594C2700.73 8.0594 2699.86 8.81035 2699.86 9.79244V49.365H2703.79ZM2696.68 49.365V2.51332C2696.68 1.53122 2695.76 0.780273 2694.72 0.780273C2693.62 0.780273 2692.76 1.53122 2692.76 2.51332V49.365H2696.68ZM2835.33 49.365V25.5637C2835.33 24.6393 2836.2 23.8306 2837.3 23.8306C2838.4 23.8306 2839.26 24.6393 2839.26 25.5637V49.365H2835.33ZM2842.44 49.365V11.5833C2842.44 10.659 2843.31 9.85027 2844.4 9.85027C2845.5 9.85027 2846.37 10.659 2846.37 11.5833V49.365H2842.44ZM2849.54 49.365V9.96592C2849.54 9.0416 2850.41 8.23253 2851.51 8.23253C2852.61 8.23253 2853.47 9.0416 2853.47 9.96592V49.365H2849.54ZM2856.65 49.365V2.51332C2856.65 1.53122 2857.58 0.780273 2858.62 0.780273C2859.71 0.780273 2860.58 1.53122 2860.58 2.51332V49.365H2856.65ZM2863.82 49.365V19.4978C2863.82 18.5735 2864.68 17.7648 2865.78 17.7648C2866.82 17.7648 2867.74 18.5735 2867.74 19.4978V49.365H2863.82ZM2870.92 49.365V16.4937C2870.92 15.5116 2871.79 14.7606 2872.88 14.7606C2873.92 14.7606 2874.85 15.5116 2874.85 16.4937V49.365H2870.92ZM2878.03 49.365V25.5637C2878.03 24.6393 2878.89 23.8306 2879.99 23.8306C2881.09 23.8306 2881.96 24.6393 2881.96 25.5637V49.365H2878.03ZM2885.13 49.365V33.8826C2885.13 32.9583 2886 32.1496 2887.1 32.1496C2888.19 32.1496 2889.06 32.9583 2889.06 33.8826V49.365H2885.13ZM2892.24 49.365V20.1332C2892.24 19.1511 2893.16 18.4002 2894.2 18.4002C2895.3 18.4002 2896.17 19.1511 2896.17 20.1332V49.365H2892.24ZM3038.4 49.365V25.5637C3038.4 24.6393 3037.53 23.8306 3036.43 23.8306C3035.34 23.8306 3034.47 24.6393 3034.47 25.5637V49.365H3038.4ZM3031.29 49.365V11.5833C3031.29 10.659 3030.37 9.85027 3029.33 9.85027C3028.23 9.85027 3027.36 10.659 3027.36 11.5833V49.365H3031.29ZM3024.18 49.365V9.96592C3024.18 9.0416 3023.26 8.23253 3022.22 8.23253C3021.12 8.23253 3020.2 9.0416 3020.2 9.96592V49.365H3024.18ZM3017.02 49.365V2.51332C3017.02 1.53122 3016.16 0.780273 3015.06 0.780273C3014.02 0.780273 3013.09 1.53122 3013.09 2.51332V49.365H3017.02ZM3009.92 49.365V19.4978C3009.92 18.5735 3009.05 17.7648 3007.95 17.7648C3006.85 17.7648 3005.99 18.5735 3005.99 19.4978V49.365H3009.92ZM3002.81 49.365V16.4937C3002.81 15.5116 3001.94 14.7606 3000.85 14.7606C2999.75 14.7606 2998.88 15.5116 2998.88 16.4937V49.365H3002.81ZM2995.7 49.365V25.5637C2995.7 24.6393 2994.84 23.8306 2993.74 23.8306C2992.64 23.8306 2991.78 24.6393 2991.78 25.5637V49.365H2995.7ZM2988.6 49.365V33.8826C2988.6 32.9583 2987.68 32.1496 2986.64 32.1496C2985.54 32.1496 2984.67 32.9583 2984.67 33.8826V49.365H2988.6ZM2981.43 49.365V20.1332C2981.43 19.1511 2980.57 18.4002 2979.47 18.4002C2978.43 18.4002 2977.51 19.1511 2977.51 20.1332V49.365H2981.43ZM2974.33 49.365V18.1114C2974.33 17.1293 2973.46 16.3784 2972.36 16.3784C2971.32 16.3784 2970.4 17.1293 2970.4 18.1114V49.365H2974.33ZM2967.22 49.365V15.8583C2967.22 14.9339 2966.36 14.1252 2965.26 14.1252C2964.16 14.1252 2963.3 14.9339 2963.3 15.8583V49.365H2967.22ZM2960.12 49.365V14.0096C2960.12 13.0852 2959.25 12.2765 2958.15 12.2765C2957.06 12.2765 2956.19 13.0852 2956.19 14.0096V49.365H2960.12ZM2953.01 49.365V25.9681C2953.01 25.0438 2952.09 24.235 2951.05 24.235C2949.95 24.235 2949.08 25.0438 2949.08 25.9681V49.365H2953.01ZM2945.91 49.365V30.6475C2945.91 29.7231 2944.98 28.9144 2943.94 28.9144C2942.85 28.9144 2941.98 29.7231 2941.98 30.6475V49.365H2945.91ZM2938.74 49.365V5.34401C2938.74 4.36191 2937.88 3.61097 2936.78 3.61097C2935.74 3.61097 2934.82 4.36191 2934.82 5.34401V49.365H2938.74ZM2931.64 49.365V14.0096C2931.64 13.0852 2930.77 12.2765 2929.67 12.2765C2928.63 12.2765 2927.71 13.0852 2927.71 14.0096V49.365H2931.64ZM2924.53 49.365V10.37C2924.53 9.44568 2923.67 8.63696 2922.57 8.63696C2921.47 8.63696 2920.6 9.44568 2920.6 10.37V49.365H2924.53ZM2917.43 49.365V6.32636C2917.43 5.40203 2916.56 4.59297 2915.46 4.59297C2914.36 4.59297 2913.5 5.40203 2913.5 6.32636V49.365H2917.43ZM2910.32 49.365V9.79244C2910.32 8.81035 2909.4 8.0594 2908.36 8.0594C2907.26 8.0594 2906.39 8.81035 2906.39 9.79244V49.365H2910.32ZM2903.21 49.365V2.51332C2903.21 1.53122 2902.29 0.780273 2901.25 0.780273C2900.15 0.780273 2899.29 1.53122 2899.29 2.51332V49.365H2903.21ZM3041.86 49.365V25.5637C3041.86 24.6393 3042.73 23.8306 3043.83 23.8306C3044.92 23.8306 3045.79 24.6393 3045.79 25.5637V49.365H3041.86ZM3048.97 49.365V11.5833C3048.97 10.659 3049.84 9.85027 3050.93 9.85027C3052.03 9.85027 3052.9 10.659 3052.9 11.5833V49.365H3048.97ZM3056.08 49.365V9.96592C3056.08 9.0416 3056.94 8.23253 3058.04 8.23253C3059.14 8.23253 3060 9.0416 3060 9.96592V49.365H3056.08ZM3063.18 49.365V2.51332C3063.18 1.53122 3064.1 0.780273 3065.14 0.780273C3066.24 0.780273 3067.11 1.53122 3067.11 2.51332V49.365H3063.18ZM3070.34 49.365V19.4978C3070.34 18.5735 3071.21 17.7648 3072.31 17.7648C3073.35 17.7648 3074.27 18.5735 3074.27 19.4978V49.365H3070.34ZM3077.45 49.365V16.4937C3077.45 15.5116 3078.32 14.7606 3079.41 14.7606C3080.45 14.7606 3081.38 15.5116 3081.38 16.4937V49.365H3077.45ZM3084.55 49.365V25.5637C3084.55 24.6393 3085.42 23.8306 3086.52 23.8306C3087.62 23.8306 3088.48 24.6393 3088.48 25.5637V49.365H3084.55ZM3091.66 49.365V33.8826C3091.66 32.9583 3092.53 32.1496 3093.62 32.1496C3094.72 32.1496 3095.59 32.9583 3095.59 33.8826V49.365H3091.66ZM3098.77 49.365V20.1332C3098.77 19.1511 3099.69 18.4002 3100.73 18.4002C3101.83 18.4002 3102.7 19.1511 3102.7 20.1332V49.365H3098.77ZM3105.87 49.365V18.1114C3105.87 17.1293 3106.8 16.3784 3107.84 16.3784C3108.94 16.3784 3109.8 17.1293 3109.8 18.1114V49.365H3105.87ZM3113.04 49.365V15.8583C3113.04 14.9339 3113.9 14.1252 3115 14.1252C3116.04 14.1252 3116.96 14.9339 3116.96 15.8583V49.365H3113.04ZM3120.14 49.365V14.0096C3120.14 13.0852 3121.01 12.2765 3122.11 12.2765C3123.15 12.2765 3124.07 13.0852 3124.07 14.0096V49.365H3120.14ZM3127.25 49.365V25.9681C3127.25 25.0438 3128.11 24.235 3129.21 24.235C3130.31 24.235 3131.18 25.0438 3131.18 25.9681V49.365H3127.25ZM3134.35 49.365V30.6475C3134.35 29.7231 3135.22 28.9144 3136.32 28.9144C3137.41 28.9144 3138.28 29.7231 3138.28 30.6475V49.365H3134.35ZM3141.46 49.365V5.34401C3141.46 4.36191 3142.38 3.61097 3143.42 3.61097C3144.52 3.61097 3145.39 4.36191 3145.39 5.34401V49.365H3141.46ZM3148.57 49.365V14.0096C3148.57 13.0852 3149.49 12.2765 3150.53 12.2765C3151.63 12.2765 3152.49 13.0852 3152.49 14.0096V49.365H3148.57ZM3155.73 49.365V10.37C3155.73 9.44568 3156.59 8.63696 3157.69 8.63696C3158.73 8.63696 3159.66 9.44568 3159.66 10.37V49.365H3155.73ZM3162.83 49.365V6.32636C3162.83 5.40203 3163.7 4.59297 3164.8 4.59297C3165.84 4.59297 3166.76 5.40203 3166.76 6.32636V49.365H3162.83ZM3169.94 49.365V9.79244C3169.94 8.81035 3170.81 8.0594 3171.9 8.0594C3173 8.0594 3173.87 8.81035 3173.87 9.79244V49.365H3169.94ZM3526.27 49.365V25.5637C3526.27 24.6393 3527.13 23.8306 3528.23 23.8306C3529.27 23.8306 3530.2 24.6393 3530.2 25.5637V49.365H3526.27ZM3533.37 49.365V11.5833C3533.37 10.659 3534.24 9.85027 3535.34 9.85027C3536.38 9.85027 3537.3 10.659 3537.3 11.5833V49.365H3533.37ZM3540.48 49.365V9.96592C3540.48 9.0416 3541.35 8.23253 3542.44 8.23253C3543.54 8.23253 3544.41 9.0416 3544.41 9.96592V49.365H3540.48ZM3547.59 49.365V2.51332C3547.59 1.53122 3548.45 0.780273 3549.55 0.780273C3550.65 0.780273 3551.51 1.53122 3551.51 2.51332V49.365H3547.59ZM3554.69 49.365V19.4978C3554.69 18.5735 3555.62 17.7648 3556.66 17.7648C3557.75 17.7648 3558.62 18.5735 3558.62 19.4978V49.365H3554.69ZM3561.8 49.365V16.4937C3561.8 15.5116 3562.72 14.7606 3563.76 14.7606C3564.86 14.7606 3565.72 15.5116 3565.72 16.4937V49.365H3561.8ZM3568.96 49.365V25.5637C3568.96 24.6393 3569.83 23.8306 3570.92 23.8306C3571.96 23.8306 3572.89 24.6393 3572.89 25.5637V49.365H3568.96ZM3576.07 49.365V33.8826C3576.07 32.9583 3576.93 32.1496 3578.03 32.1496C3579.13 32.1496 3579.99 32.9583 3579.99 33.8826V49.365H3576.07ZM3583.17 49.365V20.1332C3583.17 19.1511 3584.04 18.4002 3585.14 18.4002C3586.23 18.4002 3587.1 19.1511 3587.1 20.1332V49.365H3583.17ZM3590.28 49.365V18.1114C3590.28 17.1293 3591.14 16.3784 3592.24 16.3784C3593.34 16.3784 3594.21 17.1293 3594.21 18.1114V49.365H3590.28ZM3597.38 49.365V15.8583C3597.38 14.9339 3598.31 14.1252 3599.35 14.1252C3600.45 14.1252 3601.31 14.9339 3601.31 15.8583V49.365H3597.38ZM3604.55 49.365V14.0096C3604.55 13.0852 3605.41 12.2765 3606.51 12.2765C3607.55 12.2765 3608.47 13.0852 3608.47 14.0096V49.365H3604.55ZM3611.65 49.365V25.9681C3611.65 25.0438 3612.52 24.235 3613.62 24.235C3614.66 24.235 3615.58 25.0438 3615.58 25.9681V49.365H3611.65ZM3618.76 49.365V30.6475C3618.76 29.7231 3619.63 28.9144 3620.72 28.9144C3621.82 28.9144 3622.69 29.7231 3622.69 30.6475V49.365H3618.76ZM3625.86 49.365V5.34401C3625.86 4.36191 3626.73 3.61097 3627.83 3.61097C3628.93 3.61097 3629.79 4.36191 3629.79 5.34401V49.365H3625.86ZM3632.97 49.365V14.0096C3632.97 13.0852 3633.89 12.2765 3634.93 12.2765C3636.03 12.2765 3636.9 13.0852 3636.9 14.0096V49.365H3632.97ZM3640.08 49.365V10.37C3640.08 9.44568 3641 8.63696 3642.04 8.63696C3643.14 8.63696 3644 9.44568 3644 10.37V49.365H3640.08ZM3647.24 49.365V6.32636C3647.24 5.40203 3648.11 4.59297 3649.2 4.59297C3650.24 4.59297 3651.17 5.40203 3651.17 6.32636V49.365H3647.24ZM3654.34 49.365V9.79244C3654.34 8.81035 3655.21 8.0594 3656.31 8.0594C3657.35 8.0594 3658.27 8.81035 3658.27 9.79244V49.365H3654.34ZM3661.45 49.365V2.51332C3661.45 1.53122 3662.32 0.780273 3663.41 0.780273C3664.51 0.780273 3665.38 1.53122 3665.38 2.51332V49.365H3661.45ZM3522.8 49.365V25.5637C3522.8 24.6393 3521.88 23.8306 3520.84 23.8306C3519.74 23.8306 3518.87 24.6393 3518.87 25.5637V49.365H3522.8ZM3515.64 49.365V11.5833C3515.64 10.659 3514.77 9.85027 3513.67 9.85027C3512.63 9.85027 3511.71 10.659 3511.71 11.5833V49.365H3515.64ZM3508.53 49.365V9.96592C3508.53 9.0416 3507.67 8.23253 3506.57 8.23253C3505.53 8.23253 3504.6 9.0416 3504.6 9.96592V49.365H3508.53ZM3501.43 49.365V2.51332C3501.43 1.53122 3500.56 0.780273 3499.46 0.780273C3498.37 0.780273 3497.5 1.53122 3497.5 2.51332V49.365H3501.43ZM3494.32 49.365V19.4978C3494.32 18.5735 3493.45 17.7648 3492.36 17.7648C3491.26 17.7648 3490.39 18.5735 3490.39 19.4978V49.365H3494.32ZM3487.22 49.365V16.4937C3487.22 15.5116 3486.29 14.7606 3485.25 14.7606C3484.15 14.7606 3483.29 15.5116 3483.29 16.4937V49.365H3487.22ZM3480.11 49.365V25.5637C3480.11 24.6393 3479.19 23.8306 3478.15 23.8306C3477.05 23.8306 3476.18 24.6393 3476.18 25.5637V49.365H3480.11ZM3472.95 49.365V33.8826C3472.95 32.9583 3472.08 32.1496 3470.98 32.1496C3469.94 32.1496 3469.02 32.9583 3469.02 33.8826V49.365H3472.95ZM3465.84 49.365V20.1332C3465.84 19.1511 3464.97 18.4002 3463.88 18.4002C3462.84 18.4002 3461.91 19.1511 3461.91 20.1332V49.365H3465.84ZM3319.74 49.365V25.5637C3319.74 24.6393 3320.61 23.8306 3321.7 23.8306C3322.74 23.8306 3323.67 24.6393 3323.67 25.5637V49.365H3319.74ZM3326.84 49.365V11.5833C3326.84 10.659 3327.71 9.85027 3328.81 9.85027C3329.85 9.85027 3330.77 10.659 3330.77 11.5833V49.365H3326.84ZM3333.95 49.365V9.96592C3333.95 9.0416 3334.82 8.23253 3335.91 8.23253C3337.01 8.23253 3337.88 9.0416 3337.88 9.96592V49.365H3333.95ZM3341.06 49.365V2.51332C3341.06 1.53122 3341.92 0.780273 3343.02 0.780273C3344.12 0.780273 3344.98 1.53122 3344.98 2.51332V49.365H3341.06ZM3348.16 49.365V19.4978C3348.16 18.5735 3349.09 17.7648 3350.13 17.7648C3351.22 17.7648 3352.09 18.5735 3352.09 19.4978V49.365H3348.16ZM3355.27 49.365V16.4937C3355.27 15.5116 3356.19 14.7606 3357.23 14.7606C3358.33 14.7606 3359.2 15.5116 3359.2 16.4937V49.365H3355.27ZM3362.43 49.365V25.5637C3362.43 24.6393 3363.3 23.8306 3364.4 23.8306C3365.44 23.8306 3366.36 24.6393 3366.36 25.5637V49.365H3362.43ZM3369.54 49.365V33.8826C3369.54 32.9583 3370.4 32.1496 3371.5 32.1496C3372.6 32.1496 3373.47 32.9583 3373.47 33.8826V49.365H3369.54ZM3376.64 49.365V20.1332C3376.64 19.1511 3377.51 18.4002 3378.61 18.4002C3379.7 18.4002 3380.57 19.1511 3380.57 20.1332V49.365H3376.64ZM3383.75 49.365V18.1114C3383.75 17.1293 3384.62 16.3784 3385.71 16.3784C3386.81 16.3784 3387.68 17.1293 3387.68 18.1114V49.365H3383.75ZM3390.85 49.365V15.8583C3390.85 14.9339 3391.78 14.1252 3392.82 14.1252C3393.92 14.1252 3394.78 14.9339 3394.78 15.8583V49.365H3390.85ZM3398.02 49.365V14.0096C3398.02 13.0852 3398.88 12.2765 3399.98 12.2765C3401.02 12.2765 3401.95 13.0852 3401.95 14.0096V49.365H3398.02ZM3405.12 49.365V25.9681C3405.12 25.0438 3405.99 24.235 3407.09 24.235C3408.13 24.235 3409.05 25.0438 3409.05 25.9681V49.365H3405.12ZM3412.23 49.365V30.6475C3412.23 29.7231 3413.1 28.9144 3414.19 28.9144C3415.29 28.9144 3416.16 29.7231 3416.16 30.6475V49.365H3412.23ZM3419.34 49.365V5.34401C3419.34 4.36191 3420.2 3.61097 3421.3 3.61097C3422.4 3.61097 3423.26 4.36191 3423.26 5.34401V49.365H3419.34ZM3426.44 49.365V14.0096C3426.44 13.0852 3427.31 12.2765 3428.41 12.2765C3429.5 12.2765 3430.37 13.0852 3430.37 14.0096V49.365H3426.44ZM3433.55 49.365V10.37C3433.55 9.44568 3434.47 8.63696 3435.51 8.63696C3436.61 8.63696 3437.47 9.44568 3437.47 10.37V49.365H3433.55ZM3440.71 49.365V6.32636C3440.71 5.40203 3441.58 4.59297 3442.67 4.59297C3443.71 4.59297 3444.64 5.40203 3444.64 6.32636V49.365H3440.71ZM3447.82 49.365V9.79244C3447.82 8.81035 3448.68 8.0594 3449.78 8.0594C3450.82 8.0594 3451.74 8.81035 3451.74 9.79244V49.365H3447.82ZM3454.92 49.365V2.51332C3454.92 1.53122 3455.79 0.780273 3456.89 0.780273C3457.98 0.780273 3458.85 1.53122 3458.85 2.51332V49.365H3454.92ZM3316.27 49.365V25.5637C3316.27 24.6393 3315.35 23.8306 3314.31 23.8306C3313.21 23.8306 3312.34 24.6393 3312.34 25.5637V49.365H3316.27ZM3309.11 49.365V11.5833C3309.11 10.659 3308.24 9.85027 3307.15 9.85027C3306.11 9.85027 3305.18 10.659 3305.18 11.5833V49.365H3309.11ZM3302 49.365V9.96592C3302 9.0416 3301.14 8.23253 3300.04 8.23253C3299 8.23253 3298.08 9.0416 3298.08 9.96592V49.365H3302ZM3294.9 49.365V2.51332C3294.9 1.53122 3294.03 0.780273 3292.93 0.780273C3291.84 0.780273 3290.97 1.53122 3290.97 2.51332V49.365H3294.9ZM3287.79 49.365V19.4978C3287.79 18.5735 3286.93 17.7648 3285.83 17.7648C3284.73 17.7648 3283.86 18.5735 3283.86 19.4978V49.365H3287.79ZM3280.69 49.365V16.4937C3280.69 15.5116 3279.76 14.7606 3278.72 14.7606C3277.62 14.7606 3276.76 15.5116 3276.76 16.4937V49.365H3280.69ZM3273.58 49.365V25.5637C3273.58 24.6393 3272.66 23.8306 3271.62 23.8306C3270.52 23.8306 3269.65 24.6393 3269.65 25.5637V49.365H3273.58ZM3266.42 49.365V33.8826C3266.42 32.9583 3265.55 32.1496 3264.45 32.1496C3263.41 32.1496 3262.49 32.9583 3262.49 33.8826V49.365H3266.42ZM3259.31 49.365V20.1332C3259.31 19.1511 3258.44 18.4002 3257.35 18.4002C3256.31 18.4002 3255.38 19.1511 3255.38 20.1332V49.365H3259.31ZM3252.21 49.365V18.1114C3252.21 17.1293 3251.34 16.3784 3250.24 16.3784C3249.14 16.3784 3248.28 17.1293 3248.28 18.1114V49.365H3252.21ZM3245.1 49.365V15.8583C3245.1 14.9339 3244.23 14.1252 3243.14 14.1252C3242.04 14.1252 3241.17 14.9339 3241.17 15.8583V49.365H3245.1ZM3237.99 49.365V14.0096C3237.99 13.0852 3237.07 12.2765 3236.03 12.2765C3234.93 12.2765 3234.07 13.0852 3234.07 14.0096V49.365H3237.99ZM3230.89 49.365V25.9681C3230.89 25.0438 3229.96 24.235 3228.92 24.235C3227.83 24.235 3226.96 25.0438 3226.96 25.9681V49.365H3230.89ZM3223.72 49.365V30.6475C3223.72 29.7231 3222.86 28.9144 3221.76 28.9144C3220.72 28.9144 3219.8 29.7231 3219.8 30.6475V49.365H3223.72ZM3216.62 49.365V5.34401C3216.62 4.36191 3215.75 3.61097 3214.65 3.61097C3213.56 3.61097 3212.69 4.36191 3212.69 5.34401V49.365H3216.62ZM3209.51 49.365V14.0096C3209.51 13.0852 3208.65 12.2765 3207.55 12.2765C3206.45 12.2765 3205.58 13.0852 3205.58 14.0096V49.365H3209.51ZM3202.41 49.365V10.37C3202.41 9.44568 3201.54 8.63696 3200.44 8.63696C3199.34 8.63696 3198.48 9.44568 3198.48 10.37V49.365H3202.41ZM3195.3 49.365V6.32636C3195.3 5.40203 3194.38 4.59297 3193.34 4.59297C3192.24 4.59297 3191.37 5.40203 3191.37 6.32636V49.365H3195.3ZM3188.2 49.365V9.79244C3188.2 8.81035 3187.27 8.0594 3186.17 8.0594C3185.13 8.0594 3184.21 8.81035 3184.21 9.79244V49.365H3188.2ZM4031.76 49.365V2.51332C4031.76 1.53122 4032.63 0.780273 4033.72 0.780273C4034.82 0.780273 4035.69 1.53122 4035.69 2.51332V49.365H4031.76ZM4024.65 49.365V9.96592C4024.65 9.0416 4025.52 8.23253 4026.62 8.23253C4027.72 8.23253 4028.58 9.0416 4028.58 9.96592V49.365H4024.65ZM4017.55 49.365V11.5833C4017.55 10.659 4018.41 9.85027 4019.51 9.85027C4020.55 9.85027 4021.48 10.659 4021.48 11.5833V49.365H4017.55ZM4010.38 49.365V25.5637C4010.38 24.6393 4011.31 23.8306 4012.41 23.8306C4013.45 23.8306 4014.37 24.6393 4014.37 25.5637V49.365H4010.38ZM3871.74 49.365V2.51332C3871.74 1.53122 3870.87 0.780273 3869.77 0.780273C3868.73 0.780273 3867.81 1.53122 3867.81 2.51332V49.365H3871.74ZM3878.84 49.365V9.79244C3878.84 8.81035 3877.97 8.0594 3876.88 8.0594C3875.84 8.0594 3874.91 8.81035 3874.91 9.79244V49.365H3878.84ZM3886 49.365V6.32636C3886 5.40203 3885.08 4.59297 3884.04 4.59297C3882.94 4.59297 3882.08 5.40203 3882.08 6.32636V49.365H3886ZM3893.11 49.365V10.37C3893.11 9.44568 3892.19 8.63696 3891.15 8.63696C3890.05 8.63696 3889.18 9.44568 3889.18 10.37V49.365H3893.11ZM3900.22 49.365V14.0096C3900.22 13.0852 3899.35 12.2765 3898.25 12.2765C3897.15 12.2765 3896.29 13.0852 3896.29 14.0096V49.365H3900.22ZM3907.32 49.365V5.34401C3907.32 4.36191 3906.45 3.61097 3905.36 3.61097C3904.26 3.61097 3903.39 4.36191 3903.39 5.34401V49.365H3907.32ZM3914.43 49.365V30.6475C3914.43 29.7231 3913.56 28.9144 3912.46 28.9144C3911.42 28.9144 3910.5 29.7231 3910.5 30.6475V49.365H3914.43ZM3921.53 49.365V25.9681C3921.53 25.0438 3920.67 24.235 3919.57 24.235C3918.53 24.235 3917.6 25.0438 3917.6 25.9681V49.365H3921.53ZM3928.7 49.365V14.0096C3928.7 13.0852 3927.77 12.2765 3926.73 12.2765C3925.63 12.2765 3924.77 13.0852 3924.77 14.0096V49.365H3928.7ZM3935.8 49.365V15.8583C3935.8 14.9339 3934.88 14.1252 3933.84 14.1252C3932.74 14.1252 3931.87 14.9339 3931.87 15.8583V49.365H3935.8ZM3942.91 49.365V18.1114C3942.91 17.1293 3942.04 16.3784 3940.94 16.3784C3939.85 16.3784 3938.98 17.1293 3938.98 18.1114V49.365H3942.91ZM3950.01 49.365V20.1332C3950.01 19.1511 3949.15 18.4002 3948.05 18.4002C3946.95 18.4002 3946.09 19.1511 3946.09 20.1332V49.365H3950.01ZM3957.12 49.365V33.8826C3957.12 32.9583 3956.25 32.1496 3955.16 32.1496C3954.12 32.1496 3953.19 32.9583 3953.19 33.8826V49.365H3957.12ZM3964.23 49.365V25.5637C3964.23 24.6393 3963.36 23.8306 3962.26 23.8306C3961.22 23.8306 3960.3 24.6393 3960.3 25.5637V49.365H3964.23ZM3971.39 49.365V16.4937C3971.39 15.5116 3970.46 14.7606 3969.42 14.7606C3968.33 14.7606 3967.46 15.5116 3967.46 16.4937V49.365H3971.39ZM3978.49 49.365V19.4978C3978.49 18.5735 3977.63 17.7648 3976.53 17.7648C3975.43 17.7648 3974.57 18.5735 3974.57 19.4978V49.365H3978.49ZM3985.6 49.365V2.51332C3985.6 1.53122 3984.73 0.780273 3983.64 0.780273C3982.54 0.780273 3981.67 1.53122 3981.67 2.51332V49.365H3985.6ZM3992.71 49.365V9.96592C3992.71 9.0416 3991.84 8.23253 3990.74 8.23253C3989.64 8.23253 3988.78 9.0416 3988.78 9.96592V49.365H3992.71ZM3999.81 49.365V11.5833C3999.81 10.659 3998.95 9.85027 3997.85 9.85027C3996.81 9.85027 3995.88 10.659 3995.88 11.5833V49.365H3999.81ZM4006.98 49.365V25.5637C4006.98 24.6393 4006.05 23.8306 4005.01 23.8306C4003.91 23.8306 4003.05 24.6393 4003.05 25.5637V49.365H4006.98ZM3860.82 49.365V20.1332C3860.82 19.1511 3861.68 18.4002 3862.78 18.4002C3863.88 18.4002 3864.74 19.1511 3864.74 20.1332V49.365H3860.82ZM3853.71 49.365V33.8826C3853.71 32.9583 3854.58 32.1496 3855.67 32.1496C3856.71 32.1496 3857.64 32.9583 3857.64 33.8826V49.365H3853.71ZM3846.6 49.365V25.5637C3846.6 24.6393 3847.47 23.8306 3848.57 23.8306C3849.61 23.8306 3850.53 24.6393 3850.53 25.5637V49.365H3846.6ZM3839.44 49.365V16.4937C3839.44 15.5116 3840.37 14.7606 3841.41 14.7606C3842.5 14.7606 3843.37 15.5116 3843.37 16.4937V49.365H3839.44ZM3832.34 49.365V19.4978C3832.34 18.5735 3833.2 17.7648 3834.3 17.7648C3835.4 17.7648 3836.26 18.5735 3836.26 19.4978V49.365H3832.34ZM3825.23 49.365V2.51332C3825.23 1.53122 3826.1 0.780273 3827.19 0.780273C3828.29 0.780273 3829.16 1.53122 3829.16 2.51332V49.365H3825.23ZM3818.12 49.365V9.96592C3818.12 9.0416 3818.99 8.23253 3820.09 8.23253C3821.19 8.23253 3822.05 9.0416 3822.05 9.96592V49.365H3818.12ZM3811.02 49.365V11.5833C3811.02 10.659 3811.88 9.85027 3812.98 9.85027C3814.02 9.85027 3814.95 10.659 3814.95 11.5833V49.365H3811.02ZM3803.85 49.365V25.5637C3803.85 24.6393 3804.78 23.8306 3805.82 23.8306C3806.92 23.8306 3807.78 24.6393 3807.78 25.5637V49.365H3803.85ZM3672.31 49.365V9.79244C3672.31 8.81035 3671.44 8.0594 3670.35 8.0594C3669.31 8.0594 3668.38 8.81035 3668.38 9.79244V49.365H3672.31ZM3679.47 49.365V6.32636C3679.47 5.40203 3678.55 4.59297 3677.51 4.59297C3676.41 4.59297 3675.55 5.40203 3675.55 6.32636V49.365H3679.47ZM3686.58 49.365V10.37C3686.58 9.44568 3685.66 8.63696 3684.62 8.63696C3683.52 8.63696 3682.65 9.44568 3682.65 10.37V49.365H3686.58ZM3693.69 49.365V14.0096C3693.69 13.0852 3692.82 12.2765 3691.72 12.2765C3690.62 12.2765 3689.76 13.0852 3689.76 14.0096V49.365H3693.69ZM3700.79 49.365V5.34401C3700.79 4.36191 3699.93 3.61097 3698.83 3.61097C3697.73 3.61097 3696.86 4.36191 3696.86 5.34401V49.365H3700.79ZM3707.9 49.365V30.6475C3707.9 29.7231 3707.03 28.9144 3705.93 28.9144C3704.89 28.9144 3703.97 29.7231 3703.97 30.6475V49.365H3707.9ZM3715 49.365V25.9681C3715 25.0438 3714.14 24.235 3713.04 24.235C3712 24.235 3711.08 25.0438 3711.08 25.9681V49.365H3715ZM3722.17 49.365V14.0096C3722.17 13.0852 3721.24 12.2765 3720.2 12.2765C3719.11 12.2765 3718.24 13.0852 3718.24 14.0096V49.365H3722.17ZM3729.27 49.365V15.8583C3729.27 14.9339 3728.35 14.1252 3727.31 14.1252C3726.21 14.1252 3725.34 14.9339 3725.34 15.8583V49.365H3729.27ZM3736.38 49.365V18.1114C3736.38 17.1293 3735.51 16.3784 3734.41 16.3784C3733.32 16.3784 3732.45 17.1293 3732.45 18.1114V49.365H3736.38ZM3743.48 49.365V20.1332C3743.48 19.1511 3742.62 18.4002 3741.52 18.4002C3740.42 18.4002 3739.56 19.1511 3739.56 20.1332V49.365H3743.48ZM3750.59 49.365V33.8826C3750.59 32.9583 3749.72 32.1496 3748.63 32.1496C3747.59 32.1496 3746.66 32.9583 3746.66 33.8826V49.365H3750.59ZM3757.7 49.365V25.5637C3757.7 24.6393 3756.83 23.8306 3755.73 23.8306C3754.69 23.8306 3753.77 24.6393 3753.77 25.5637V49.365H3757.7ZM3764.86 49.365V16.4937C3764.86 15.5116 3763.94 14.7606 3762.9 14.7606C3761.8 14.7606 3760.93 15.5116 3760.93 16.4937V49.365H3764.86ZM3771.97 49.365V19.4978C3771.97 18.5735 3771.04 17.7648 3770 17.7648C3768.9 17.7648 3768.04 18.5735 3768.04 19.4978V49.365H3771.97ZM3779.07 49.365V2.51332C3779.07 1.53122 3778.2 0.780273 3777.11 0.780273C3776.01 0.780273 3775.14 1.53122 3775.14 2.51332V49.365H3779.07ZM3786.18 49.365V9.96592C3786.18 9.0416 3785.31 8.23253 3784.21 8.23253C3783.12 8.23253 3782.25 9.0416 3782.25 9.96592V49.365H3786.18ZM3793.28 49.365V11.5833C3793.28 10.659 3792.42 9.85027 3791.32 9.85027C3790.28 9.85027 3789.35 10.659 3789.35 11.5833V49.365H3793.28ZM3800.45 49.365V25.5637C3800.45 24.6393 3799.52 23.8306 3798.48 23.8306C3797.38 23.8306 3796.46 24.6393 3796.46 25.5637V49.365H3800.45Z" fill="#6E6E6E"/>
<path fill-rule="evenodd" clip-rule="evenodd" d="M489.032 49.365V2.51332C489.032 1.53122 488.165 0.780273 487.068 0.780273C486.028 0.780273 485.104 1.53122 485.104 2.51332V49.365H489.032ZM139.868 49.365V25.5637C139.868 24.6393 139.001 23.8306 137.904 23.8306C136.806 23.8306 135.939 24.6393 135.939 25.5637V49.365H139.868ZM132.762 49.365V11.5833C132.762 10.659 131.838 9.85027 130.798 9.85027C129.7 9.85027 128.834 10.659 128.834 11.5833V49.365H132.762ZM125.598 49.365V9.96592C125.598 9.0416 124.732 8.23253 123.634 8.23253C122.594 8.23253 121.67 9.0416 121.67 9.96592V49.365H125.598ZM118.493 49.365V2.51332C118.493 1.53122 117.626 0.780273 116.528 0.780273C115.489 0.780273 114.564 1.53122 114.564 2.51332V49.365H118.493ZM111.387 49.365V19.4978C111.387 18.5735 110.52 17.7648 109.423 17.7648C108.325 17.7648 107.459 18.5735 107.459 19.4978V49.365H111.387ZM104.281 49.365V16.4937C104.281 15.5116 103.415 14.7606 102.317 14.7606C101.219 14.7606 100.353 15.5116 100.353 16.4937V49.365H104.281ZM97.1754 49.365V25.5637C97.1754 24.6393 96.3088 23.8306 95.2112 23.8306C94.1136 23.8306 93.247 24.6393 93.247 25.5637V49.365H97.1754ZM90.0696 49.365V33.8826C90.0696 32.9583 89.1453 32.1496 88.1054 32.1496C87.0078 32.1496 86.1413 32.9583 86.1413 33.8826V49.365H90.0696ZM82.9061 49.365V20.1332C82.9061 19.1511 82.0396 18.4002 80.9419 18.4002C79.902 18.4002 78.9777 19.1511 78.9777 20.1332V49.365H82.9061ZM75.8004 49.365V18.1114C75.8004 17.1293 74.9338 16.3784 73.8362 16.3784C72.7963 16.3784 71.872 17.1293 71.872 18.1114V49.365H75.8004ZM68.6946 49.365V15.8583C68.6946 14.9339 67.828 14.1252 66.7304 14.1252C65.6328 14.1252 64.7662 14.9339 64.7662 15.8583V49.365H68.6946ZM61.5888 49.365V14.0096C61.5888 13.0852 60.7223 12.2765 59.6246 12.2765C58.527 12.2765 57.6604 13.0852 57.6604 14.0096V49.365H61.5888ZM54.4831 49.365V25.9681C54.4831 25.0438 53.5587 24.235 52.5189 24.235C51.4212 24.235 50.5547 25.0438 50.5547 25.9681V49.365H54.4831ZM47.3773 49.365V30.6475C47.3773 29.7231 46.453 28.9144 45.4131 28.9144C44.3155 28.9144 43.4489 29.7231 43.4489 30.6475V49.365H47.3773ZM40.2138 49.365V5.34401C40.2138 4.36191 39.3472 3.61097 38.2496 3.61097C37.2097 3.61097 36.2854 4.36191 36.2854 5.34401V49.365H40.2138ZM33.108 49.365V14.0096C33.108 13.0852 32.2415 12.2765 31.1438 12.2765C30.104 12.2765 29.1796 13.0852 29.1796 14.0096V49.365H33.108ZM26.0023 49.365V10.37C26.0023 9.44568 25.1357 8.63696 24.0381 8.63696C22.9404 8.63696 22.0739 9.44568 22.0739 10.37V49.365H26.0023ZM18.8965 49.365V6.32636C18.8965 5.40203 18.0299 4.59297 16.9323 4.59297C15.8347 4.59297 14.9681 5.40203 14.9681 6.32636V49.365H18.8965ZM11.7907 49.365V9.79244C11.7907 8.81035 10.8664 8.0594 9.82654 8.0594C8.72891 8.0594 7.86235 8.81035 7.86235 9.79244V49.365H11.7907ZM4.68498 49.365V2.51332C4.68498 1.53122 3.76065 0.780273 2.72079 0.780273C1.62315 0.780273 0.756592 1.53122 0.756592 2.51332V49.365H4.68498ZM143.334 49.365V25.5637C143.334 24.6393 144.2 23.8306 145.298 23.8306C146.396 23.8306 147.262 24.6393 147.262 25.5637V49.365H143.334ZM150.44 49.365V11.5833C150.44 10.659 151.306 9.85027 152.404 9.85027C153.502 9.85027 154.368 10.659 154.368 11.5833V49.365H150.44ZM157.545 49.365V9.96592C157.545 9.0416 158.412 8.23253 159.51 8.23253C160.607 8.23253 161.474 9.0416 161.474 9.96592V49.365H157.545ZM164.651 49.365V2.51332C164.651 1.53122 165.576 0.780273 166.615 0.780273C167.713 0.780273 168.58 1.53122 168.58 2.51332V49.365H164.651ZM171.815 49.365V19.4978C171.815 18.5735 172.681 17.7648 173.779 17.7648C174.819 17.7648 175.743 18.5735 175.743 19.4978V49.365H171.815ZM178.921 49.365V16.4937C178.921 15.5116 179.787 14.7606 180.885 14.7606C181.925 14.7606 182.849 15.5116 182.849 16.4937V49.365H178.921ZM186.026 49.365V25.5637C186.026 24.6393 186.893 23.8306 187.99 23.8306C189.088 23.8306 189.955 24.6393 189.955 25.5637V49.365H186.026ZM193.132 49.365V33.8826C193.132 32.9583 193.999 32.1496 195.096 32.1496C196.194 32.1496 197.06 32.9583 197.06 33.8826V49.365H193.132ZM200.238 49.365V20.1332C200.238 19.1511 201.162 18.4002 202.202 18.4002C203.3 18.4002 204.166 19.1511 204.166 20.1332V49.365H200.238ZM346.397 49.365V25.5637C346.397 24.6393 345.53 23.8306 344.433 23.8306C343.335 23.8306 342.469 24.6393 342.469 25.5637V49.365H346.397ZM339.291 49.365V11.5833C339.291 10.659 338.367 9.85027 337.327 9.85027C336.229 9.85027 335.363 10.659 335.363 11.5833V49.365H339.291ZM332.185 49.365V9.96592C332.185 9.0416 331.261 8.23253 330.221 8.23253C329.124 8.23253 328.199 9.0416 328.199 9.96592V49.365H332.185ZM325.022 49.365V2.51332C325.022 1.53122 324.155 0.780273 323.058 0.780273C322.018 0.780273 321.093 1.53122 321.093 2.51332V49.365H325.022ZM317.916 49.365V19.4978C317.916 18.5735 317.05 17.7648 315.952 17.7648C314.854 17.7648 313.988 18.5735 313.988 19.4978V49.365H317.916ZM310.81 49.365V16.4937C310.81 15.5116 309.944 14.7606 308.846 14.7606C307.749 14.7606 306.882 15.5116 306.882 16.4937V49.365H310.81ZM303.705 49.365V25.5637C303.705 24.6393 302.838 23.8306 301.74 23.8306C300.643 23.8306 299.776 24.6393 299.776 25.5637V49.365H303.705ZM296.599 49.365V33.8826C296.599 32.9583 295.675 32.1496 294.635 32.1496C293.537 32.1496 292.67 32.9583 292.67 33.8826V49.365H296.599ZM289.435 49.365V20.1332C289.435 19.1511 288.569 18.4002 287.471 18.4002C286.431 18.4002 285.507 19.1511 285.507 20.1332V49.365H289.435ZM282.33 49.365V18.1114C282.33 17.1293 281.463 16.3784 280.365 16.3784C279.325 16.3784 278.401 17.1293 278.401 18.1114V49.365H282.33ZM275.224 49.365V15.8583C275.224 14.9339 274.357 14.1252 273.26 14.1252C272.162 14.1252 271.295 14.9339 271.295 15.8583V49.365H275.224ZM268.118 49.365V14.0096C268.118 13.0852 267.251 12.2765 266.154 12.2765C265.056 12.2765 264.19 13.0852 264.19 14.0096V49.365H268.118ZM261.012 49.365V25.9681C261.012 25.0438 260.088 24.235 259.048 24.235C257.95 24.235 257.084 25.0438 257.084 25.9681V49.365H261.012ZM253.907 49.365V30.6475C253.907 29.7231 252.982 28.9144 251.942 28.9144C250.845 28.9144 249.978 29.7231 249.978 30.6475V49.365H253.907ZM246.743 49.365V5.34401C246.743 4.36191 245.876 3.61097 244.779 3.61097C243.739 3.61097 242.815 4.36191 242.815 5.34401V49.365H246.743ZM239.637 49.365V14.0096C239.637 13.0852 238.771 12.2765 237.673 12.2765C236.633 12.2765 235.709 13.0852 235.709 14.0096V49.365H239.637ZM232.531 49.365V10.37C232.531 9.44568 231.665 8.63696 230.567 8.63696C229.47 8.63696 228.603 9.44568 228.603 10.37V49.365H232.531ZM225.426 49.365V6.32636C225.426 5.40203 224.559 4.59297 223.462 4.59297C222.364 4.59297 221.497 5.40203 221.497 6.32636V49.365H225.426ZM218.32 49.365V9.79244C218.32 8.81035 217.396 8.0594 216.356 8.0594C215.258 8.0594 214.392 8.81035 214.392 9.79244V49.365H218.32ZM211.214 49.365V2.51332C211.214 1.53122 210.29 0.780273 209.25 0.780273C208.152 0.780273 207.286 1.53122 207.286 2.51332V49.365H211.214ZM349.863 49.365V25.5637C349.863 24.6393 350.73 23.8306 351.827 23.8306C352.925 23.8306 353.792 24.6393 353.792 25.5637V49.365H349.863ZM356.969 49.365V11.5833C356.969 10.659 357.835 9.85027 358.933 9.85027C360.031 9.85027 360.897 10.659 360.897 11.5833V49.365H356.969ZM364.075 49.365V9.96592C364.075 9.0416 364.941 8.23253 366.039 8.23253C367.136 8.23253 368.003 9.0416 368.003 9.96592V49.365H364.075ZM371.18 49.365V2.51332C371.18 1.53122 372.105 0.780273 373.145 0.780273C374.242 0.780273 375.109 1.53122 375.109 2.51332V49.365H371.18ZM378.344 49.365V19.4978C378.344 18.5735 379.21 17.7648 380.308 17.7648C381.348 17.7648 382.272 18.5735 382.272 19.4978V49.365H378.344ZM385.45 49.365V16.4937C385.45 15.5116 386.316 14.7606 387.414 14.7606C388.454 14.7606 389.378 15.5116 389.378 16.4937V49.365H385.45ZM392.555 49.365V25.5637C392.555 24.6393 393.422 23.8306 394.52 23.8306C395.617 23.8306 396.484 24.6393 396.484 25.5637V49.365H392.555ZM399.661 49.365V33.8826C399.661 32.9583 400.528 32.1496 401.625 32.1496C402.723 32.1496 403.59 32.9583 403.59 33.8826V49.365H399.661ZM406.767 49.365V20.1332C406.767 19.1511 407.691 18.4002 408.731 18.4002C409.829 18.4002 410.695 19.1511 410.695 20.1332V49.365H406.767ZM413.873 49.365V18.1114C413.873 17.1293 414.797 16.3784 415.837 16.3784C416.935 16.3784 417.801 17.1293 417.801 18.1114V49.365H413.873ZM421.036 49.365V15.8583C421.036 14.9339 421.903 14.1252 423 14.1252C424.04 14.1252 424.965 14.9339 424.965 15.8583V49.365H421.036ZM428.142 49.365V14.0096C428.142 13.0852 429.009 12.2765 430.106 12.2765C431.146 12.2765 432.07 13.0852 432.07 14.0096V49.365H428.142ZM435.248 49.365V25.9681C435.248 25.0438 436.114 24.235 437.212 24.235C438.31 24.235 439.176 25.0438 439.176 25.9681V49.365H435.248ZM442.354 49.365V30.6475C442.354 29.7231 443.22 28.9144 444.318 28.9144C445.415 28.9144 446.282 29.7231 446.282 30.6475V49.365H442.354ZM449.459 49.365V5.34401C449.459 4.36191 450.384 3.61097 451.423 3.61097C452.521 3.61097 453.388 4.36191 453.388 5.34401V49.365H449.459ZM456.565 49.365V14.0096C456.565 13.0852 457.489 12.2765 458.529 12.2765C459.627 12.2765 460.493 13.0852 460.493 14.0096V49.365H456.565ZM463.729 49.365V10.37C463.729 9.44568 464.595 8.63696 465.693 8.63696C466.733 8.63696 467.657 9.44568 467.657 10.37V49.365H463.729ZM470.834 49.365V6.32636C470.834 5.40203 471.701 4.59297 472.799 4.59297C473.838 4.59297 474.763 5.40203 474.763 6.32636V49.365H470.834ZM477.94 49.365V9.79244C477.94 8.81035 478.807 8.0594 479.904 8.0594C481.002 8.0594 481.869 8.81035 481.869 9.79244V49.365H477.94ZM834.268 49.365V25.5637C834.268 24.6393 835.135 23.8306 836.232 23.8306C837.272 23.8306 838.196 24.6393 838.196 25.5637V49.365H834.268ZM841.374 49.365V11.5833C841.374 10.659 842.24 9.85027 843.338 9.85027C844.378 9.85027 845.302 10.659 845.302 11.5833V49.365H841.374ZM848.479 49.365V9.96592C848.479 9.0416 849.346 8.23253 850.444 8.23253C851.541 8.23253 852.408 9.0416 852.408 9.96592V49.365H848.479ZM855.585 49.365V2.51332C855.585 1.53122 856.452 0.780273 857.549 0.780273C858.647 0.780273 859.514 1.53122 859.514 2.51332V49.365H855.585ZM862.691 49.365V19.4978C862.691 18.5735 863.615 17.7648 864.655 17.7648C865.753 17.7648 866.619 18.5735 866.619 19.4978V49.365H862.691ZM869.797 49.365V16.4937C869.797 15.5116 870.721 14.7606 871.761 14.7606C872.859 14.7606 873.725 15.5116 873.725 16.4937V49.365H869.797ZM876.96 49.365V25.5637C876.96 24.6393 877.827 23.8306 878.924 23.8306C879.964 23.8306 880.889 24.6393 880.889 25.5637V49.365H876.96ZM884.066 49.365V33.8826C884.066 32.9583 884.933 32.1496 886.03 32.1496C887.128 32.1496 887.994 32.9583 887.994 33.8826V49.365H884.066ZM891.172 49.365V20.1332C891.172 19.1511 892.038 18.4002 893.136 18.4002C894.234 18.4002 895.1 19.1511 895.1 20.1332V49.365H891.172ZM898.278 49.365V18.1114C898.278 17.1293 899.144 16.3784 900.242 16.3784C901.339 16.3784 902.206 17.1293 902.206 18.1114V49.365H898.278ZM905.383 49.365V15.8583C905.383 14.9339 906.308 14.1252 907.348 14.1252C908.445 14.1252 909.312 14.9339 909.312 15.8583V49.365H905.383ZM912.547 49.365V14.0096C912.547 13.0852 913.413 12.2765 914.511 12.2765C915.551 12.2765 916.475 13.0852 916.475 14.0096V49.365H912.547ZM919.653 49.365V25.9681C919.653 25.0438 920.519 24.235 921.617 24.235C922.657 24.235 923.581 25.0438 923.581 25.9681V49.365H919.653ZM926.758 49.365V30.6475C926.758 29.7231 927.625 28.9144 928.723 28.9144C929.82 28.9144 930.687 29.7231 930.687 30.6475V49.365H926.758ZM933.864 49.365V5.34401C933.864 4.36191 934.731 3.61097 935.828 3.61097C936.926 3.61097 937.793 4.36191 937.793 5.34401V49.365H933.864ZM940.97 49.365V14.0096C940.97 13.0852 941.894 12.2765 942.934 12.2765C944.032 12.2765 944.898 13.0852 944.898 14.0096V49.365H940.97ZM948.076 49.365V10.37C948.076 9.44568 949 8.63696 950.04 8.63696C951.137 8.63696 952.004 9.44568 952.004 10.37V49.365H948.076ZM955.239 49.365V6.32636C955.239 5.40203 956.106 4.59297 957.203 4.59297C958.243 4.59297 959.168 5.40203 959.168 6.32636V49.365H955.239ZM962.345 49.365V9.79244C962.345 8.81035 963.211 8.0594 964.309 8.0594C965.349 8.0594 966.273 8.81035 966.273 9.79244V49.365H962.345ZM969.451 49.365V2.51332C969.451 1.53122 970.317 0.780273 971.415 0.780273C972.513 0.780273 973.379 1.53122 973.379 2.51332V49.365H969.451ZM830.802 49.365V25.5637C830.802 24.6393 829.877 23.8306 828.838 23.8306C827.74 23.8306 826.873 24.6393 826.873 25.5637V49.365H830.802ZM823.638 49.365V11.5833C823.638 10.659 822.772 9.85027 821.674 9.85027C820.634 9.85027 819.71 10.659 819.71 11.5833V49.365H823.638ZM816.532 49.365V9.96592C816.532 9.0416 815.666 8.23253 814.568 8.23253C813.528 8.23253 812.604 9.0416 812.604 9.96592V49.365H816.532ZM809.427 49.365V2.51332C809.427 1.53122 808.56 0.780273 807.463 0.780273C806.365 0.780273 805.498 1.53122 805.498 2.51332V49.365H809.427ZM802.321 49.365V19.4978C802.321 18.5735 801.454 17.7648 800.357 17.7648C799.259 17.7648 798.393 18.5735 798.393 19.4978V49.365H802.321ZM795.215 49.365V16.4937C795.215 15.5116 794.291 14.7606 793.251 14.7606C792.153 14.7606 791.287 15.5116 791.287 16.4937V49.365H795.215ZM788.109 49.365V25.5637C788.109 24.6393 787.185 23.8306 786.145 23.8306C785.048 23.8306 784.181 24.6393 784.181 25.5637V49.365H788.109ZM780.946 49.365V33.8826C780.946 32.9583 780.079 32.1496 778.982 32.1496C777.942 32.1496 777.017 32.9583 777.017 33.8826V49.365H780.946ZM773.84 49.365V20.1332C773.84 19.1511 772.974 18.4002 771.876 18.4002C770.836 18.4002 769.912 19.1511 769.912 20.1332V49.365H773.84ZM627.739 49.365V25.5637C627.739 24.6393 628.605 23.8306 629.703 23.8306C630.743 23.8306 631.667 24.6393 631.667 25.5637V49.365H627.739ZM634.845 49.365V11.5833C634.845 10.659 635.711 9.85027 636.809 9.85027C637.849 9.85027 638.773 10.659 638.773 11.5833V49.365H634.845ZM641.95 49.365V9.96592C641.95 9.0416 642.817 8.23253 643.914 8.23253C645.012 8.23253 645.879 9.0416 645.879 9.96592V49.365H641.95ZM649.056 49.365V2.51332C649.056 1.53122 649.923 0.780273 651.02 0.780273C652.118 0.780273 652.984 1.53122 652.984 2.51332V49.365H649.056ZM656.162 49.365V19.4978C656.162 18.5735 657.086 17.7648 658.126 17.7648C659.224 17.7648 660.09 18.5735 660.09 19.4978V49.365H656.162ZM663.268 49.365V16.4937C663.268 15.5116 664.192 14.7606 665.232 14.7606C666.329 14.7606 667.196 15.5116 667.196 16.4937V49.365H663.268ZM670.431 49.365V25.5637C670.431 24.6393 671.298 23.8306 672.395 23.8306C673.435 23.8306 674.36 24.6393 674.36 25.5637V49.365H670.431ZM677.537 49.365V33.8826C677.537 32.9583 678.403 32.1496 679.501 32.1496C680.599 32.1496 681.465 32.9583 681.465 33.8826V49.365H677.537ZM684.643 49.365V20.1332C684.643 19.1511 685.509 18.4002 686.607 18.4002C687.704 18.4002 688.571 19.1511 688.571 20.1332V49.365H684.643ZM691.748 49.365V18.1114C691.748 17.1293 692.615 16.3784 693.713 16.3784C694.81 16.3784 695.677 17.1293 695.677 18.1114V49.365H691.748ZM698.854 49.365V15.8583C698.854 14.9339 699.778 14.1252 700.818 14.1252C701.916 14.1252 702.783 14.9339 702.783 15.8583V49.365H698.854ZM706.018 49.365V14.0096C706.018 13.0852 706.884 12.2765 707.982 12.2765C709.022 12.2765 709.946 13.0852 709.946 14.0096V49.365H706.018ZM713.123 49.365V25.9681C713.123 25.0438 713.99 24.235 715.088 24.235C716.127 24.235 717.052 25.0438 717.052 25.9681V49.365H713.123ZM720.229 49.365V30.6475C720.229 29.7231 721.096 28.9144 722.193 28.9144C723.291 28.9144 724.158 29.7231 724.158 30.6475V49.365H720.229ZM727.335 49.365V5.34401C727.335 4.36191 728.202 3.61097 729.299 3.61097C730.397 3.61097 731.263 4.36191 731.263 5.34401V49.365H727.335ZM734.441 49.365V14.0096C734.441 13.0852 735.307 12.2765 736.405 12.2765C737.503 12.2765 738.369 13.0852 738.369 14.0096V49.365H734.441ZM741.546 49.365V10.37C741.546 9.44568 742.471 8.63696 743.511 8.63696C744.608 8.63696 745.475 9.44568 745.475 10.37V49.365H741.546ZM748.71 49.365V6.32636C748.71 5.40203 749.577 4.59297 750.674 4.59297C751.714 4.59297 752.638 5.40203 752.638 6.32636V49.365H748.71ZM755.816 49.365V9.79244C755.816 8.81035 756.682 8.0594 757.78 8.0594C758.82 8.0594 759.744 8.81035 759.744 9.79244V49.365H755.816ZM762.922 49.365V2.51332C762.922 1.53122 763.788 0.780273 764.886 0.780273C765.983 0.780273 766.85 1.53122 766.85 2.51332V49.365H762.922ZM624.273 49.365V25.5637C624.273 24.6393 623.348 23.8306 622.308 23.8306C621.211 23.8306 620.344 24.6393 620.344 25.5637V49.365H624.273ZM617.109 49.365V11.5833C617.109 10.659 616.242 9.85027 615.145 9.85027C614.105 9.85027 613.181 10.659 613.181 11.5833V49.365H617.109ZM610.003 49.365V9.96592C610.003 9.0416 609.137 8.23253 608.039 8.23253C606.999 8.23253 606.075 9.0416 606.075 9.96592V49.365H610.003ZM602.897 49.365V2.51332C602.897 1.53122 602.031 0.780273 600.933 0.780273C599.836 0.780273 598.969 1.53122 598.969 2.51332V49.365H602.897ZM595.792 49.365V19.4978C595.792 18.5735 594.925 17.7648 593.828 17.7648C592.73 17.7648 591.863 18.5735 591.863 19.4978V49.365H595.792ZM588.686 49.365V16.4937C588.686 15.5116 587.762 14.7606 586.722 14.7606C585.624 14.7606 584.758 15.5116 584.758 16.4937V49.365H588.686ZM581.58 49.365V25.5637C581.58 24.6393 580.656 23.8306 579.616 23.8306C578.518 23.8306 577.652 24.6393 577.652 25.5637V49.365H581.58ZM574.417 49.365V33.8826C574.417 32.9583 573.55 32.1496 572.453 32.1496C571.413 32.1496 570.488 32.9583 570.488 33.8826V49.365H574.417ZM567.311 49.365V20.1332C567.311 19.1511 566.444 18.4002 565.347 18.4002C564.307 18.4002 563.383 19.1511 563.383 20.1332V49.365H567.311ZM560.205 49.365V18.1114C560.205 17.1293 559.339 16.3784 558.241 16.3784C557.143 16.3784 556.277 17.1293 556.277 18.1114V49.365H560.205ZM553.099 49.365V15.8583C553.099 14.9339 552.233 14.1252 551.135 14.1252C550.038 14.1252 549.171 14.9339 549.171 15.8583V49.365H553.099ZM545.994 49.365V14.0096C545.994 13.0852 545.069 12.2765 544.029 12.2765C542.932 12.2765 542.065 13.0852 542.065 14.0096V49.365H545.994ZM538.888 49.365V25.9681C538.888 25.0438 537.964 24.235 536.924 24.235C535.826 24.235 534.96 25.0438 534.96 25.9681V49.365H538.888ZM531.724 49.365V30.6475C531.724 29.7231 530.858 28.9144 529.76 28.9144C528.72 28.9144 527.796 29.7231 527.796 30.6475V49.365H531.724ZM524.619 49.365V5.34401C524.619 4.36191 523.752 3.61097 522.654 3.61097C521.557 3.61097 520.69 4.36191 520.69 5.34401V49.365H524.619ZM517.513 49.365V14.0096C517.513 13.0852 516.646 12.2765 515.549 12.2765C514.451 12.2765 513.584 13.0852 513.584 14.0096V49.365H517.513ZM510.407 49.365V10.37C510.407 9.44568 509.541 8.63696 508.443 8.63696C507.345 8.63696 506.479 9.44568 506.479 10.37V49.365H510.407ZM503.301 49.365V6.32636C503.301 5.40203 502.377 4.59297 501.337 4.59297C500.239 4.59297 499.373 5.40203 499.373 6.32636V49.365H503.301ZM496.196 49.365V9.79244C496.196 8.81035 495.271 8.0594 494.174 8.0594C493.134 8.0594 492.209 8.81035 492.209 9.79244V49.365H496.196ZM1339.76 49.365V2.51332C1339.76 1.53122 1340.63 0.780273 1341.72 0.780273C1342.82 0.780273 1343.69 1.53122 1343.69 2.51332V49.365H1339.76ZM1332.65 49.365V9.96592C1332.65 9.0416 1333.52 8.23253 1334.62 8.23253C1335.72 8.23253 1336.58 9.0416 1336.58 9.96592V49.365H1332.65ZM1325.55 49.365V11.5833C1325.55 10.659 1326.41 9.85027 1327.51 9.85027C1328.55 9.85027 1329.48 10.659 1329.48 11.5833V49.365H1325.55ZM1318.38 49.365V25.5637C1318.38 24.6393 1319.31 23.8306 1320.41 23.8306C1321.45 23.8306 1322.37 24.6393 1322.37 25.5637V49.365H1318.38ZM1179.74 49.365V2.51332C1179.74 1.53122 1178.87 0.780273 1177.77 0.780273C1176.73 0.780273 1175.81 1.53122 1175.81 2.51332V49.365H1179.74ZM1186.84 49.365V9.79244C1186.84 8.81035 1185.97 8.0594 1184.88 8.0594C1183.84 8.0594 1182.91 8.81035 1182.91 9.79244V49.365H1186.84ZM1194 49.365V6.32636C1194 5.40203 1193.08 4.59297 1192.04 4.59297C1190.94 4.59297 1190.08 5.40203 1190.08 6.32636V49.365H1194ZM1201.11 49.365V10.37C1201.11 9.44568 1200.19 8.63696 1199.15 8.63696C1198.05 8.63696 1197.18 9.44568 1197.18 10.37V49.365H1201.11ZM1208.22 49.365V14.0096C1208.22 13.0852 1207.35 12.2765 1206.25 12.2765C1205.15 12.2765 1204.29 13.0852 1204.29 14.0096V49.365H1208.22ZM1215.32 49.365V5.34401C1215.32 4.36191 1214.45 3.61097 1213.36 3.61097C1212.26 3.61097 1211.39 4.36191 1211.39 5.34401V49.365H1215.32ZM1222.43 49.365V30.6475C1222.43 29.7231 1221.56 28.9144 1220.46 28.9144C1219.42 28.9144 1218.5 29.7231 1218.5 30.6475V49.365H1222.43ZM1229.53 49.365V25.9681C1229.53 25.0438 1228.67 24.235 1227.57 24.235C1226.53 24.235 1225.6 25.0438 1225.6 25.9681V49.365H1229.53ZM1236.7 49.365V14.0096C1236.7 13.0852 1235.77 12.2765 1234.73 12.2765C1233.63 12.2765 1232.77 13.0852 1232.77 14.0096V49.365H1236.7ZM1243.8 49.365V15.8583C1243.8 14.9339 1242.88 14.1252 1241.84 14.1252C1240.74 14.1252 1239.87 14.9339 1239.87 15.8583V49.365H1243.8ZM1250.91 49.365V18.1114C1250.91 17.1293 1250.04 16.3784 1248.94 16.3784C1247.85 16.3784 1246.98 17.1293 1246.98 18.1114V49.365H1250.91ZM1258.01 49.365V20.1332C1258.01 19.1511 1257.15 18.4002 1256.05 18.4002C1254.95 18.4002 1254.09 19.1511 1254.09 20.1332V49.365H1258.01ZM1265.12 49.365V33.8826C1265.12 32.9583 1264.25 32.1496 1263.16 32.1496C1262.12 32.1496 1261.19 32.9583 1261.19 33.8826V49.365H1265.12ZM1272.23 49.365V25.5637C1272.23 24.6393 1271.36 23.8306 1270.26 23.8306C1269.22 23.8306 1268.3 24.6393 1268.3 25.5637V49.365H1272.23ZM1279.39 49.365V16.4937C1279.39 15.5116 1278.46 14.7606 1277.42 14.7606C1276.33 14.7606 1275.46 15.5116 1275.46 16.4937V49.365H1279.39ZM1286.49 49.365V19.4978C1286.49 18.5735 1285.63 17.7648 1284.53 17.7648C1283.43 17.7648 1282.57 18.5735 1282.57 19.4978V49.365H1286.49ZM1293.6 49.365V2.51332C1293.6 1.53122 1292.73 0.780273 1291.64 0.780273C1290.54 0.780273 1289.67 1.53122 1289.67 2.51332V49.365H1293.6ZM1300.71 49.365V9.96592C1300.71 9.0416 1299.84 8.23253 1298.74 8.23253C1297.64 8.23253 1296.78 9.0416 1296.78 9.96592V49.365H1300.71ZM1307.81 49.365V11.5833C1307.81 10.659 1306.95 9.85027 1305.85 9.85027C1304.81 9.85027 1303.88 10.659 1303.88 11.5833V49.365H1307.81ZM1314.98 49.365V25.5637C1314.98 24.6393 1314.05 23.8306 1313.01 23.8306C1311.91 23.8306 1311.05 24.6393 1311.05 25.5637V49.365H1314.98ZM1168.82 49.365V20.1332C1168.82 19.1511 1169.68 18.4002 1170.78 18.4002C1171.88 18.4002 1172.74 19.1511 1172.74 20.1332V49.365H1168.82ZM1161.71 49.365V33.8826C1161.71 32.9583 1162.58 32.1496 1163.67 32.1496C1164.71 32.1496 1165.64 32.9583 1165.64 33.8826V49.365H1161.71ZM1154.6 49.365V25.5637C1154.6 24.6393 1155.47 23.8306 1156.57 23.8306C1157.61 23.8306 1158.53 24.6393 1158.53 25.5637V49.365H1154.6ZM1147.44 49.365V16.4937C1147.44 15.5116 1148.37 14.7606 1149.41 14.7606C1150.5 14.7606 1151.37 15.5116 1151.37 16.4937V49.365H1147.44ZM1140.34 49.365V19.4978C1140.34 18.5735 1141.2 17.7648 1142.3 17.7648C1143.4 17.7648 1144.26 18.5735 1144.26 19.4978V49.365H1140.34ZM1133.23 49.365V2.51332C1133.23 1.53122 1134.1 0.780273 1135.19 0.780273C1136.29 0.780273 1137.16 1.53122 1137.16 2.51332V49.365H1133.23ZM1126.12 49.365V9.96592C1126.12 9.0416 1126.99 8.23253 1128.09 8.23253C1129.19 8.23253 1130.05 9.0416 1130.05 9.96592V49.365H1126.12ZM1119.02 49.365V11.5833C1119.02 10.659 1119.88 9.85027 1120.98 9.85027C1122.02 9.85027 1122.95 10.659 1122.95 11.5833V49.365H1119.02ZM1111.85 49.365V25.5637C1111.85 24.6393 1112.78 23.8306 1113.82 23.8306C1114.92 23.8306 1115.78 24.6393 1115.78 25.5637V49.365H1111.85ZM980.312 49.365V9.79244C980.312 8.81035 979.445 8.0594 978.347 8.0594C977.308 8.0594 976.383 8.81035 976.383 9.79244V49.365H980.312ZM987.475 49.365V6.32636C987.475 5.40203 986.551 4.59297 985.511 4.59297C984.413 4.59297 983.547 5.40203 983.547 6.32636V49.365H987.475ZM994.581 49.365V10.37C994.581 9.44568 993.657 8.63696 992.617 8.63696C991.519 8.63696 990.652 9.44568 990.652 10.37V49.365H994.581ZM1001.69 49.365V14.0096C1001.69 13.0852 1000.82 12.2765 999.722 12.2765C998.625 12.2765 997.758 13.0852 997.758 14.0096V49.365H1001.69ZM1008.79 49.365V5.34401C1008.79 4.36191 1007.93 3.61097 1006.83 3.61097C1005.73 3.61097 1004.86 4.36191 1004.86 5.34401V49.365H1008.79ZM1015.9 49.365V30.6475C1015.9 29.7231 1015.03 28.9144 1013.93 28.9144C1012.89 28.9144 1011.97 29.7231 1011.97 30.6475V49.365H1015.9ZM1023 49.365V25.9681C1023 25.0438 1022.14 24.235 1021.04 24.235C1020 24.235 1019.08 25.0438 1019.08 25.9681V49.365H1023ZM1030.17 49.365V14.0096C1030.17 13.0852 1029.24 12.2765 1028.2 12.2765C1027.11 12.2765 1026.24 13.0852 1026.24 14.0096V49.365H1030.17ZM1037.27 49.365V15.8583C1037.27 14.9339 1036.35 14.1252 1035.31 14.1252C1034.21 14.1252 1033.34 14.9339 1033.34 15.8583V49.365H1037.27ZM1044.38 49.365V18.1114C1044.38 17.1293 1043.51 16.3784 1042.41 16.3784C1041.32 16.3784 1040.45 17.1293 1040.45 18.1114V49.365H1044.38ZM1051.48 49.365V20.1332C1051.48 19.1511 1050.62 18.4002 1049.52 18.4002C1048.42 18.4002 1047.56 19.1511 1047.56 20.1332V49.365H1051.48ZM1058.59 49.365V33.8826C1058.59 32.9583 1057.72 32.1496 1056.63 32.1496C1055.59 32.1496 1054.66 32.9583 1054.66 33.8826V49.365H1058.59ZM1065.7 49.365V25.5637C1065.7 24.6393 1064.83 23.8306 1063.73 23.8306C1062.69 23.8306 1061.77 24.6393 1061.77 25.5637V49.365H1065.7ZM1072.86 49.365V16.4937C1072.86 15.5116 1071.94 14.7606 1070.9 14.7606C1069.8 14.7606 1068.93 15.5116 1068.93 16.4937V49.365H1072.86ZM1079.97 49.365V19.4978C1079.97 18.5735 1079.04 17.7648 1078 17.7648C1076.9 17.7648 1076.04 18.5735 1076.04 19.4978V49.365H1079.97ZM1087.07 49.365V2.51332C1087.07 1.53122 1086.2 0.780273 1085.11 0.780273C1084.01 0.780273 1083.14 1.53122 1083.14 2.51332V49.365H1087.07ZM1094.18 49.365V9.96592C1094.18 9.0416 1093.31 8.23253 1092.21 8.23253C1091.12 8.23253 1090.25 9.0416 1090.25 9.96592V49.365H1094.18ZM1101.28 49.365V11.5833C1101.28 10.659 1100.42 9.85027 1099.32 9.85027C1098.28 9.85027 1097.35 10.659 1097.35 11.5833V49.365H1101.28ZM1108.45 49.365V25.5637C1108.45 24.6393 1107.52 23.8306 1106.48 23.8306C1105.38 23.8306 1104.46 24.6393 1104.46 25.5637V49.365H1108.45Z" fill="#6E6E6E"/>
</svg>
