<svg width="1344" height="50" viewBox="0 0 1344 50" fill="none" xmlns="http://www.w3.org/2000/svg">
<path fill-rule="evenodd" clip-rule="evenodd" d="M489.032 49.365V2.51332C489.032 1.53122 488.165 0.780273 487.068 0.780273C486.028 0.780273 485.104 1.53122 485.104 2.51332V49.365H489.032ZM139.868 49.365V25.5637C139.868 24.6393 139.001 23.8306 137.904 23.8306C136.806 23.8306 135.939 24.6393 135.939 25.5637V49.365H139.868ZM132.762 49.365V11.5833C132.762 10.659 131.838 9.85027 130.798 9.85027C129.7 9.85027 128.834 10.659 128.834 11.5833V49.365H132.762ZM125.598 49.365V9.96592C125.598 9.0416 124.732 8.23253 123.634 8.23253C122.594 8.23253 121.67 9.0416 121.67 9.96592V49.365H125.598ZM118.493 49.365V2.51332C118.493 1.53122 117.626 0.780273 116.528 0.780273C115.489 0.780273 114.564 1.53122 114.564 2.51332V49.365H118.493ZM111.387 49.365V19.4978C111.387 18.5735 110.52 17.7648 109.423 17.7648C108.325 17.7648 107.459 18.5735 107.459 19.4978V49.365H111.387ZM104.281 49.365V16.4937C104.281 15.5116 103.415 14.7606 102.317 14.7606C101.219 14.7606 100.353 15.5116 100.353 16.4937V49.365H104.281ZM97.1754 49.365V25.5637C97.1754 24.6393 96.3088 23.8306 95.2112 23.8306C94.1136 23.8306 93.247 24.6393 93.247 25.5637V49.365H97.1754ZM90.0696 49.365V33.8826C90.0696 32.9583 89.1453 32.1496 88.1054 32.1496C87.0078 32.1496 86.1413 32.9583 86.1413 33.8826V49.365H90.0696ZM82.9061 49.365V20.1332C82.9061 19.1511 82.0396 18.4002 80.9419 18.4002C79.902 18.4002 78.9777 19.1511 78.9777 20.1332V49.365H82.9061ZM75.8004 49.365V18.1114C75.8004 17.1293 74.9338 16.3784 73.8362 16.3784C72.7963 16.3784 71.872 17.1293 71.872 18.1114V49.365H75.8004ZM68.6946 49.365V15.8583C68.6946 14.9339 67.828 14.1252 66.7304 14.1252C65.6328 14.1252 64.7662 14.9339 64.7662 15.8583V49.365H68.6946ZM61.5888 49.365V14.0096C61.5888 13.0852 60.7223 12.2765 59.6246 12.2765C58.527 12.2765 57.6604 13.0852 57.6604 14.0096V49.365H61.5888ZM54.4831 49.365V25.9681C54.4831 25.0438 53.5587 24.235 52.5189 24.235C51.4212 24.235 50.5547 25.0438 50.5547 25.9681V49.365H54.4831ZM47.3773 49.365V30.6475C47.3773 29.7231 46.453 28.9144 45.4131 28.9144C44.3155 28.9144 43.4489 29.7231 43.4489 30.6475V49.365H47.3773ZM40.2138 49.365V5.34401C40.2138 4.36191 39.3472 3.61097 38.2496 3.61097C37.2097 3.61097 36.2854 4.36191 36.2854 5.34401V49.365H40.2138ZM33.108 49.365V14.0096C33.108 13.0852 32.2415 12.2765 31.1438 12.2765C30.104 12.2765 29.1796 13.0852 29.1796 14.0096V49.365H33.108ZM26.0023 49.365V10.37C26.0023 9.44568 25.1357 8.63696 24.0381 8.63696C22.9404 8.63696 22.0739 9.44568 22.0739 10.37V49.365H26.0023ZM18.8965 49.365V6.32636C18.8965 5.40203 18.0299 4.59297 16.9323 4.59297C15.8347 4.59297 14.9681 5.40203 14.9681 6.32636V49.365H18.8965V49.365ZM11.7907 49.365V9.79244C11.7907 8.81035 10.8664 8.0594 9.82654 8.0594C8.72891 8.0594 7.86235 8.81035 7.86235 9.79244V49.365H11.7907ZM4.68498 49.365V2.51332C4.68498 1.53122 3.76065 0.780273 2.72079 0.780273C1.62315 0.780273 0.756592 1.53122 0.756592 2.51332V49.365H4.68498ZM143.334 49.365V25.5637C143.334 24.6393 144.2 23.8306 145.298 23.8306C146.396 23.8306 147.262 24.6393 147.262 25.5637V49.365H143.334ZM150.44 49.365V11.5833C150.44 10.659 151.306 9.85027 152.404 9.85027C153.502 9.85027 154.368 10.659 154.368 11.5833V49.365H150.44ZM157.545 49.365V9.96592C157.545 9.0416 158.412 8.23253 159.51 8.23253C160.607 8.23253 161.474 9.0416 161.474 9.96592V49.365H157.545ZM164.651 49.365V2.51332C164.651 1.53122 165.576 0.780273 166.615 0.780273C167.713 0.780273 168.58 1.53122 168.58 2.51332V49.365H164.651ZM171.815 49.365V19.4978C171.815 18.5735 172.681 17.7648 173.779 17.7648C174.819 17.7648 175.743 18.5735 175.743 19.4978V49.365H171.815ZM178.921 49.365V16.4937C178.921 15.5116 179.787 14.7606 180.885 14.7606C181.925 14.7606 182.849 15.5116 182.849 16.4937V49.365H178.921V49.365ZM186.026 49.365V25.5637C186.026 24.6393 186.893 23.8306 187.99 23.8306C189.088 23.8306 189.955 24.6393 189.955 25.5637V49.365H186.026V49.365ZM193.132 49.365V33.8826C193.132 32.9583 193.999 32.1496 195.096 32.1496C196.194 32.1496 197.06 32.9583 197.06 33.8826V49.365H193.132V49.365ZM200.238 49.365V20.1332C200.238 19.1511 201.162 18.4002 202.202 18.4002C203.3 18.4002 204.166 19.1511 204.166 20.1332V49.365H200.238V49.365ZM346.397 49.365V25.5637C346.397 24.6393 345.53 23.8306 344.433 23.8306C343.335 23.8306 342.469 24.6393 342.469 25.5637V49.365H346.397V49.365ZM339.291 49.365V11.5833C339.291 10.659 338.367 9.85027 337.327 9.85027C336.229 9.85027 335.363 10.659 335.363 11.5833V49.365H339.291V49.365ZM332.185 49.365V9.96592C332.185 9.0416 331.261 8.23253 330.221 8.23253C329.124 8.23253 328.199 9.0416 328.199 9.96592V49.365H332.185V49.365ZM325.022 49.365V2.51332C325.022 1.53122 324.155 0.780273 323.058 0.780273C322.018 0.780273 321.093 1.53122 321.093 2.51332V49.365H325.022V49.365ZM317.916 49.365V19.4978C317.916 18.5735 317.05 17.7648 315.952 17.7648C314.854 17.7648 313.988 18.5735 313.988 19.4978V49.365H317.916V49.365ZM310.81 49.365V16.4937C310.81 15.5116 309.944 14.7606 308.846 14.7606C307.749 14.7606 306.882 15.5116 306.882 16.4937V49.365H310.81V49.365ZM303.705 49.365V25.5637C303.705 24.6393 302.838 23.8306 301.74 23.8306C300.643 23.8306 299.776 24.6393 299.776 25.5637V49.365H303.705V49.365ZM296.599 49.365V33.8826C296.599 32.9583 295.675 32.1496 294.635 32.1496C293.537 32.1496 292.67 32.9583 292.67 33.8826V49.365H296.599V49.365ZM289.435 49.365V20.1332C289.435 19.1511 288.569 18.4002 287.471 18.4002C286.431 18.4002 285.507 19.1511 285.507 20.1332V49.365H289.435V49.365ZM282.33 49.365V18.1114C282.33 17.1293 281.463 16.3784 280.365 16.3784C279.325 16.3784 278.401 17.1293 278.401 18.1114V49.365H282.33V49.365ZM275.224 49.365V15.8583C275.224 14.9339 274.357 14.1252 273.26 14.1252C272.162 14.1252 271.295 14.9339 271.295 15.8583V49.365H275.224V49.365ZM268.118 49.365V14.0096C268.118 13.0852 267.251 12.2765 266.154 12.2765C265.056 12.2765 264.19 13.0852 264.19 14.0096V49.365H268.118V49.365ZM261.012 49.365V25.9681C261.012 25.0438 260.088 24.235 259.048 24.235C257.95 24.235 257.084 25.0438 257.084 25.9681V49.365H261.012V49.365ZM253.907 49.365V30.6475C253.907 29.7231 252.982 28.9144 251.942 28.9144C250.845 28.9144 249.978 29.7231 249.978 30.6475V49.365H253.907V49.365ZM246.743 49.365V5.34401C246.743 4.36191 245.876 3.61097 244.779 3.61097C243.739 3.61097 242.815 4.36191 242.815 5.34401V49.365H246.743V49.365ZM239.637 49.365V14.0096C239.637 13.0852 238.771 12.2765 237.673 12.2765C236.633 12.2765 235.709 13.0852 235.709 14.0096V49.365H239.637V49.365ZM232.531 49.365V10.37C232.531 9.44568 231.665 8.63696 230.567 8.63696C229.47 8.63696 228.603 9.44568 228.603 10.37V49.365H232.531V49.365ZM225.426 49.365V6.32636C225.426 5.40203 224.559 4.59297 223.462 4.59297C222.364 4.59297 221.497 5.40203 221.497 6.32636V49.365H225.426V49.365ZM218.32 49.365V9.79244C218.32 8.81035 217.396 8.0594 216.356 8.0594C215.258 8.0594 214.392 8.81035 214.392 9.79244V49.365H218.32V49.365ZM211.214 49.365V2.51332C211.214 1.53122 210.29 0.780273 209.25 0.780273C208.152 0.780273 207.286 1.53122 207.286 2.51332V49.365H211.214V49.365ZM349.863 49.365V25.5637C349.863 24.6393 350.73 23.8306 351.827 23.8306C352.925 23.8306 353.792 24.6393 353.792 25.5637V49.365H349.863V49.365ZM356.969 49.365V11.5833C356.969 10.659 357.835 9.85027 358.933 9.85027C360.031 9.85027 360.897 10.659 360.897 11.5833V49.365H356.969V49.365ZM364.075 49.365V9.96592C364.075 9.0416 364.941 8.23253 366.039 8.23253C367.136 8.23253 368.003 9.0416 368.003 9.96592V49.365H364.075ZM371.18 49.365V2.51332C371.18 1.53122 372.105 0.780273 373.145 0.780273C374.242 0.780273 375.109 1.53122 375.109 2.51332V49.365H371.18ZM378.344 49.365V19.4978C378.344 18.5735 379.21 17.7648 380.308 17.7648C381.348 17.7648 382.272 18.5735 382.272 19.4978V49.365H378.344ZM385.45 49.365V16.4937C385.45 15.5116 386.316 14.7606 387.414 14.7606C388.454 14.7606 389.378 15.5116 389.378 16.4937V49.365H385.45ZM392.555 49.365V25.5637C392.555 24.6393 393.422 23.8306 394.52 23.8306C395.617 23.8306 396.484 24.6393 396.484 25.5637V49.365H392.555ZM399.661 49.365V33.8826C399.661 32.9583 400.528 32.1496 401.625 32.1496C402.723 32.1496 403.59 32.9583 403.59 33.8826V49.365H399.661ZM406.767 49.365V20.1332C406.767 19.1511 407.691 18.4002 408.731 18.4002C409.829 18.4002 410.695 19.1511 410.695 20.1332V49.365H406.767ZM413.873 49.365V18.1114C413.873 17.1293 414.797 16.3784 415.837 16.3784C416.935 16.3784 417.801 17.1293 417.801 18.1114V49.365H413.873ZM421.036 49.365V15.8583C421.036 14.9339 421.903 14.1252 423 14.1252C424.04 14.1252 424.965 14.9339 424.965 15.8583V49.365H421.036ZM428.142 49.365V14.0096C428.142 13.0852 429.009 12.2765 430.106 12.2765C431.146 12.2765 432.07 13.0852 432.07 14.0096V49.365H428.142ZM435.248 49.365V25.9681C435.248 25.0438 436.114 24.235 437.212 24.235C438.31 24.235 439.176 25.0438 439.176 25.9681V49.365H435.248ZM442.354 49.365V30.6475C442.354 29.7231 443.22 28.9144 444.318 28.9144C445.415 28.9144 446.282 29.7231 446.282 30.6475V49.365H442.354ZM449.459 49.365V5.34401C449.459 4.36191 450.384 3.61097 451.423 3.61097C452.521 3.61097 453.388 4.36191 453.388 5.34401V49.365H449.459ZM456.565 49.365V14.0096C456.565 13.0852 457.489 12.2765 458.529 12.2765C459.627 12.2765 460.493 13.0852 460.493 14.0096V49.365H456.565ZM463.729 49.365V10.37C463.729 9.44568 464.595 8.63696 465.693 8.63696C466.733 8.63696 467.657 9.44568 467.657 10.37V49.365H463.729ZM470.834 49.365V6.32636C470.834 5.40203 471.701 4.59297 472.799 4.59297C473.838 4.59297 474.763 5.40203 474.763 6.32636V49.365H470.834ZM477.94 49.365V9.79244C477.94 8.81035 478.807 8.0594 479.904 8.0594C481.002 8.0594 481.869 8.81035 481.869 9.79244V49.365H477.94ZM834.268 49.365V25.5637C834.268 24.6393 835.135 23.8306 836.232 23.8306C837.272 23.8306 838.196 24.6393 838.196 25.5637V49.365H834.268ZM841.374 49.365V11.5833C841.374 10.659 842.24 9.85027 843.338 9.85027C844.378 9.85027 845.302 10.659 845.302 11.5833V49.365H841.374ZM848.479 49.365V9.96592C848.479 9.0416 849.346 8.23253 850.444 8.23253C851.541 8.23253 852.408 9.0416 852.408 9.96592V49.365H848.479ZM855.585 49.365V2.51332C855.585 1.53122 856.452 0.780273 857.549 0.780273C858.647 0.780273 859.514 1.53122 859.514 2.51332V49.365H855.585ZM862.691 49.365V19.4978C862.691 18.5735 863.615 17.7648 864.655 17.7648C865.753 17.7648 866.619 18.5735 866.619 19.4978V49.365H862.691ZM869.797 49.365V16.4937C869.797 15.5116 870.721 14.7606 871.761 14.7606C872.859 14.7606 873.725 15.5116 873.725 16.4937V49.365H869.797ZM876.96 49.365V25.5637C876.96 24.6393 877.827 23.8306 878.924 23.8306C879.964 23.8306 880.889 24.6393 880.889 25.5637V49.365H876.96ZM884.066 49.365V33.8826C884.066 32.9583 884.933 32.1496 886.03 32.1496C887.128 32.1496 887.994 32.9583 887.994 33.8826V49.365H884.066ZM891.172 49.365V20.1332C891.172 19.1511 892.038 18.4002 893.136 18.4002C894.234 18.4002 895.1 19.1511 895.1 20.1332V49.365H891.172ZM898.278 49.365V18.1114C898.278 17.1293 899.144 16.3784 900.242 16.3784C901.339 16.3784 902.206 17.1293 902.206 18.1114V49.365H898.278ZM905.383 49.365V15.8583C905.383 14.9339 906.308 14.1252 907.348 14.1252C908.445 14.1252 909.312 14.9339 909.312 15.8583V49.365H905.383ZM912.547 49.365V14.0096C912.547 13.0852 913.413 12.2765 914.511 12.2765C915.551 12.2765 916.475 13.0852 916.475 14.0096V49.365H912.547ZM919.653 49.365V25.9681C919.653 25.0438 920.519 24.235 921.617 24.235C922.657 24.235 923.581 25.0438 923.581 25.9681V49.365H919.653ZM926.758 49.365V30.6475C926.758 29.7231 927.625 28.9144 928.723 28.9144C929.82 28.9144 930.687 29.7231 930.687 30.6475V49.365H926.758ZM933.864 49.365V5.34401C933.864 4.36191 934.731 3.61097 935.828 3.61097C936.926 3.61097 937.793 4.36191 937.793 5.34401V49.365H933.864ZM940.97 49.365V14.0096C940.97 13.0852 941.894 12.2765 942.934 12.2765C944.032 12.2765 944.898 13.0852 944.898 14.0096V49.365H940.97ZM948.076 49.365V10.37C948.076 9.44568 949 8.63696 950.04 8.63696C951.137 8.63696 952.004 9.44568 952.004 10.37V49.365H948.076ZM955.239 49.365V6.32636C955.239 5.40203 956.106 4.59297 957.203 4.59297C958.243 4.59297 959.168 5.40203 959.168 6.32636V49.365H955.239ZM962.345 49.365V9.79244C962.345 8.81035 963.211 8.0594 964.309 8.0594C965.349 8.0594 966.273 8.81035 966.273 9.79244V49.365H962.345ZM969.451 49.365V2.51332C969.451 1.53122 970.317 0.780273 971.415 0.780273C972.513 0.780273 973.379 1.53122 973.379 2.51332V49.365H969.451ZM830.802 49.365V25.5637C830.802 24.6393 829.877 23.8306 828.838 23.8306C827.74 23.8306 826.873 24.6393 826.873 25.5637V49.365H830.802ZM823.638 49.365V11.5833C823.638 10.659 822.772 9.85027 821.674 9.85027C820.634 9.85027 819.71 10.659 819.71 11.5833V49.365H823.638ZM816.532 49.365V9.96592C816.532 9.0416 815.666 8.23253 814.568 8.23253C813.528 8.23253 812.604 9.0416 812.604 9.96592V49.365H816.532ZM809.427 49.365V2.51332C809.427 1.53122 808.56 0.780273 807.463 0.780273C806.365 0.780273 805.498 1.53122 805.498 2.51332V49.365H809.427ZM802.321 49.365V19.4978C802.321 18.5735 801.454 17.7648 800.357 17.7648C799.259 17.7648 798.393 18.5735 798.393 19.4978V49.365H802.321ZM795.215 49.365V16.4937C795.215 15.5116 794.291 14.7606 793.251 14.7606C792.153 14.7606 791.287 15.5116 791.287 16.4937V49.365H795.215ZM788.109 49.365V25.5637C788.109 24.6393 787.185 23.8306 786.145 23.8306C785.048 23.8306 784.181 24.6393 784.181 25.5637V49.365H788.109ZM780.946 49.365V33.8826C780.946 32.9583 780.079 32.1496 778.982 32.1496C777.942 32.1496 777.017 32.9583 777.017 33.8826V49.365H780.946ZM773.84 49.365V20.1332C773.84 19.1511 772.974 18.4002 771.876 18.4002C770.836 18.4002 769.912 19.1511 769.912 20.1332V49.365H773.84ZM627.739 49.365V25.5637C627.739 24.6393 628.605 23.8306 629.703 23.8306C630.743 23.8306 631.667 24.6393 631.667 25.5637V49.365H627.739ZM634.845 49.365V11.5833C634.845 10.659 635.711 9.85027 636.809 9.85027C637.849 9.85027 638.773 10.659 638.773 11.5833V49.365H634.845ZM641.95 49.365V9.96592C641.95 9.0416 642.817 8.23253 643.914 8.23253C645.012 8.23253 645.879 9.0416 645.879 9.96592V49.365H641.95ZM649.056 49.365V2.51332C649.056 1.53122 649.923 0.780273 651.02 0.780273C652.118 0.780273 652.984 1.53122 652.984 2.51332V49.365H649.056ZM656.162 49.365V19.4978C656.162 18.5735 657.086 17.7648 658.126 17.7648C659.224 17.7648 660.09 18.5735 660.09 19.4978V49.365H656.162ZM663.268 49.365V16.4937C663.268 15.5116 664.192 14.7606 665.232 14.7606C666.329 14.7606 667.196 15.5116 667.196 16.4937V49.365H663.268ZM670.431 49.365V25.5637C670.431 24.6393 671.298 23.8306 672.395 23.8306C673.435 23.8306 674.36 24.6393 674.36 25.5637V49.365H670.431ZM677.537 49.365V33.8826C677.537 32.9583 678.403 32.1496 679.501 32.1496C680.599 32.1496 681.465 32.9583 681.465 33.8826V49.365H677.537ZM684.643 49.365V20.1332C684.643 19.1511 685.509 18.4002 686.607 18.4002C687.704 18.4002 688.571 19.1511 688.571 20.1332V49.365H684.643ZM691.748 49.365V18.1114C691.748 17.1293 692.615 16.3784 693.713 16.3784C694.81 16.3784 695.677 17.1293 695.677 18.1114V49.365H691.748ZM698.854 49.365V15.8583C698.854 14.9339 699.778 14.1252 700.818 14.1252C701.916 14.1252 702.783 14.9339 702.783 15.8583V49.365H698.854ZM706.018 49.365V14.0096C706.018 13.0852 706.884 12.2765 707.982 12.2765C709.022 12.2765 709.946 13.0852 709.946 14.0096V49.365H706.018ZM713.123 49.365V25.9681C713.123 25.0438 713.99 24.235 715.088 24.235C716.127 24.235 717.052 25.0438 717.052 25.9681V49.365H713.123ZM720.229 49.365V30.6475C720.229 29.7231 721.096 28.9144 722.193 28.9144C723.291 28.9144 724.158 29.7231 724.158 30.6475V49.365H720.229ZM727.335 49.365V5.34401C727.335 4.36191 728.202 3.61097 729.299 3.61097C730.397 3.61097 731.263 4.36191 731.263 5.34401V49.365H727.335ZM734.441 49.365V14.0096C734.441 13.0852 735.307 12.2765 736.405 12.2765C737.503 12.2765 738.369 13.0852 738.369 14.0096V49.365H734.441V49.365ZM741.546 49.365V10.37C741.546 9.44568 742.471 8.63696 743.511 8.63696C744.608 8.63696 745.475 9.44568 745.475 10.37V49.365H741.546ZM748.71 49.365V6.32636C748.71 5.40203 749.577 4.59297 750.674 4.59297C751.714 4.59297 752.638 5.40203 752.638 6.32636V49.365H748.71ZM755.816 49.365V9.79244C755.816 8.81035 756.682 8.0594 757.78 8.0594C758.82 8.0594 759.744 8.81035 759.744 9.79244V49.365H755.816ZM762.922 49.365V2.51332C762.922 1.53122 763.788 0.780273 764.886 0.780273C765.983 0.780273 766.85 1.53122 766.85 2.51332V49.365H762.922ZM624.273 49.365V25.5637C624.273 24.6393 623.348 23.8306 622.308 23.8306C621.211 23.8306 620.344 24.6393 620.344 25.5637V49.365H624.273ZM617.109 49.365V11.5833C617.109 10.659 616.242 9.85027 615.145 9.85027C614.105 9.85027 613.181 10.659 613.181 11.5833V49.365H617.109ZM610.003 49.365V9.96592C610.003 9.0416 609.137 8.23253 608.039 8.23253C606.999 8.23253 606.075 9.0416 606.075 9.96592V49.365H610.003ZM602.897 49.365V2.51332C602.897 1.53122 602.031 0.780273 600.933 0.780273C599.836 0.780273 598.969 1.53122 598.969 2.51332V49.365H602.897ZM595.792 49.365V19.4978C595.792 18.5735 594.925 17.7648 593.828 17.7648C592.73 17.7648 591.863 18.5735 591.863 19.4978V49.365H595.792ZM588.686 49.365V16.4937C588.686 15.5116 587.762 14.7606 586.722 14.7606C585.624 14.7606 584.758 15.5116 584.758 16.4937V49.365H588.686ZM581.58 49.365V25.5637C581.58 24.6393 580.656 23.8306 579.616 23.8306C578.518 23.8306 577.652 24.6393 577.652 25.5637V49.365H581.58ZM574.417 49.365V33.8826C574.417 32.9583 573.55 32.1496 572.453 32.1496C571.413 32.1496 570.488 32.9583 570.488 33.8826V49.365H574.417ZM567.311 49.365V20.1332C567.311 19.1511 566.444 18.4002 565.347 18.4002C564.307 18.4002 563.383 19.1511 563.383 20.1332V49.365H567.311ZM560.205 49.365V18.1114C560.205 17.1293 559.339 16.3784 558.241 16.3784C557.143 16.3784 556.277 17.1293 556.277 18.1114V49.365H560.205ZM553.099 49.365V15.8583C553.099 14.9339 552.233 14.1252 551.135 14.1252C550.038 14.1252 549.171 14.9339 549.171 15.8583V49.365H553.099ZM545.994 49.365V14.0096C545.994 13.0852 545.069 12.2765 544.029 12.2765C542.932 12.2765 542.065 13.0852 542.065 14.0096V49.365H545.994ZM538.888 49.365V25.9681C538.888 25.0438 537.964 24.235 536.924 24.235C535.826 24.235 534.96 25.0438 534.96 25.9681V49.365H538.888ZM531.724 49.365V30.6475C531.724 29.7231 530.858 28.9144 529.76 28.9144C528.72 28.9144 527.796 29.7231 527.796 30.6475V49.365H531.724ZM524.619 49.365V5.34401C524.619 4.36191 523.752 3.61097 522.654 3.61097C521.557 3.61097 520.69 4.36191 520.69 5.34401V49.365H524.619ZM517.513 49.365V14.0096C517.513 13.0852 516.646 12.2765 515.549 12.2765C514.451 12.2765 513.584 13.0852 513.584 14.0096V49.365H517.513ZM510.407 49.365V10.37C510.407 9.44568 509.541 8.63696 508.443 8.63696C507.345 8.63696 506.479 9.44568 506.479 10.37V49.365H510.407ZM503.301 49.365V6.32636C503.301 5.40203 502.377 4.59297 501.337 4.59297C500.239 4.59297 499.373 5.40203 499.373 6.32636V49.365H503.301ZM496.196 49.365V9.79244C496.196 8.81035 495.271 8.0594 494.174 8.0594C493.134 8.0594 492.209 8.81035 492.209 9.79244V49.365H496.196ZM1339.76 49.365V2.51332C1339.76 1.53122 1340.63 0.780273 1341.72 0.780273C1342.82 0.780273 1343.69 1.53122 1343.69 2.51332V49.365H1339.76ZM1332.65 49.365V9.96592C1332.65 9.0416 1333.52 8.23253 1334.62 8.23253C1335.72 8.23253 1336.58 9.0416 1336.58 9.96592V49.365H1332.65ZM1325.55 49.365V11.5833C1325.55 10.659 1326.41 9.85027 1327.51 9.85027C1328.55 9.85027 1329.48 10.659 1329.48 11.5833V49.365H1325.55ZM1318.38 49.365V25.5637C1318.38 24.6393 1319.31 23.8306 1320.41 23.8306C1321.45 23.8306 1322.37 24.6393 1322.37 25.5637V49.365H1318.38ZM1179.74 49.365V2.51332C1179.74 1.53122 1178.87 0.780273 1177.77 0.780273C1176.73 0.780273 1175.81 1.53122 1175.81 2.51332V49.365H1179.74ZM1186.84 49.365V9.79244C1186.84 8.81035 1185.97 8.0594 1184.88 8.0594C1183.84 8.0594 1182.91 8.81035 1182.91 9.79244V49.365H1186.84ZM1194 49.365V6.32636C1194 5.40203 1193.08 4.59297 1192.04 4.59297C1190.94 4.59297 1190.08 5.40203 1190.08 6.32636V49.365H1194ZM1201.11 49.365V10.37C1201.11 9.44568 1200.19 8.63696 1199.15 8.63696C1198.05 8.63696 1197.18 9.44568 1197.18 10.37V49.365H1201.11ZM1208.22 49.365V14.0096C1208.22 13.0852 1207.35 12.2765 1206.25 12.2765C1205.15 12.2765 1204.29 13.0852 1204.29 14.0096V49.365H1208.22ZM1215.32 49.365V5.34401C1215.32 4.36191 1214.45 3.61097 1213.36 3.61097C1212.26 3.61097 1211.39 4.36191 1211.39 5.34401V49.365H1215.32ZM1222.43 49.365V30.6475C1222.43 29.7231 1221.56 28.9144 1220.46 28.9144C1219.42 28.9144 1218.5 29.7231 1218.5 30.6475V49.365H1222.43ZM1229.53 49.365V25.9681C1229.53 25.0438 1228.67 24.235 1227.57 24.235C1226.53 24.235 1225.6 25.0438 1225.6 25.9681V49.365H1229.53ZM1236.7 49.365V14.0096C1236.7 13.0852 1235.77 12.2765 1234.73 12.2765C1233.63 12.2765 1232.77 13.0852 1232.77 14.0096V49.365H1236.7ZM1243.8 49.365V15.8583C1243.8 14.9339 1242.88 14.1252 1241.84 14.1252C1240.74 14.1252 1239.87 14.9339 1239.87 15.8583V49.365H1243.8ZM1250.91 49.365V18.1114C1250.91 17.1293 1250.04 16.3784 1248.94 16.3784C1247.85 16.3784 1246.98 17.1293 1246.98 18.1114V49.365H1250.91ZM1258.01 49.365V20.1332C1258.01 19.1511 1257.15 18.4002 1256.05 18.4002C1254.95 18.4002 1254.09 19.1511 1254.09 20.1332V49.365H1258.01ZM1265.12 49.365V33.8826C1265.12 32.9583 1264.25 32.1496 1263.16 32.1496C1262.12 32.1496 1261.19 32.9583 1261.19 33.8826V49.365H1265.12ZM1272.23 49.365V25.5637C1272.23 24.6393 1271.36 23.8306 1270.26 23.8306C1269.22 23.8306 1268.3 24.6393 1268.3 25.5637V49.365H1272.23ZM1279.39 49.365V16.4937C1279.39 15.5116 1278.46 14.7606 1277.42 14.7606C1276.33 14.7606 1275.46 15.5116 1275.46 16.4937V49.365H1279.39ZM1286.49 49.365V19.4978C1286.49 18.5735 1285.63 17.7648 1284.53 17.7648C1283.43 17.7648 1282.57 18.5735 1282.57 19.4978V49.365H1286.49ZM1293.6 49.365V2.51332C1293.6 1.53122 1292.73 0.780273 1291.64 0.780273C1290.54 0.780273 1289.67 1.53122 1289.67 2.51332V49.365H1293.6ZM1300.71 49.365V9.96592C1300.71 9.0416 1299.84 8.23253 1298.74 8.23253C1297.64 8.23253 1296.78 9.0416 1296.78 9.96592V49.365H1300.71ZM1307.81 49.365V11.5833C1307.81 10.659 1306.95 9.85027 1305.85 9.85027C1304.81 9.85027 1303.88 10.659 1303.88 11.5833V49.365H1307.81ZM1314.98 49.365V25.5637C1314.98 24.6393 1314.05 23.8306 1313.01 23.8306C1311.91 23.8306 1311.05 24.6393 1311.05 25.5637V49.365H1314.98ZM1168.82 49.365V20.1332C1168.82 19.1511 1169.68 18.4002 1170.78 18.4002C1171.88 18.4002 1172.74 19.1511 1172.74 20.1332V49.365H1168.82ZM1161.71 49.365V33.8826C1161.71 32.9583 1162.58 32.1496 1163.67 32.1496C1164.71 32.1496 1165.64 32.9583 1165.64 33.8826V49.365H1161.71ZM1154.6 49.365V25.5637C1154.6 24.6393 1155.47 23.8306 1156.57 23.8306C1157.61 23.8306 1158.53 24.6393 1158.53 25.5637V49.365H1154.6ZM1147.44 49.365V16.4937C1147.44 15.5116 1148.37 14.7606 1149.41 14.7606C1150.5 14.7606 1151.37 15.5116 1151.37 16.4937V49.365H1147.44ZM1140.34 49.365V19.4978C1140.34 18.5735 1141.2 17.7648 1142.3 17.7648C1143.4 17.7648 1144.26 18.5735 1144.26 19.4978V49.365H1140.34ZM1133.23 49.365V2.51332C1133.23 1.53122 1134.1 0.780273 1135.19 0.780273C1136.29 0.780273 1137.16 1.53122 1137.16 2.51332V49.365H1133.23ZM1126.12 49.365V9.96592C1126.12 9.0416 1126.99 8.23253 1128.09 8.23253C1129.19 8.23253 1130.05 9.0416 1130.05 9.96592V49.365H1126.12ZM1119.02 49.365V11.5833C1119.02 10.659 1119.88 9.85027 1120.98 9.85027C1122.02 9.85027 1122.95 10.659 1122.95 11.5833V49.365H1119.02ZM1111.85 49.365V25.5637C1111.85 24.6393 1112.78 23.8306 1113.82 23.8306C1114.92 23.8306 1115.78 24.6393 1115.78 25.5637V49.365H1111.85ZM980.312 49.365V9.79244C980.312 8.81035 979.445 8.0594 978.347 8.0594C977.308 8.0594 976.383 8.81035 976.383 9.79244V49.365H980.312ZM987.475 49.365V6.32636C987.475 5.40203 986.551 4.59297 985.511 4.59297C984.413 4.59297 983.547 5.40203 983.547 6.32636V49.365H987.475ZM994.581 49.365V10.37C994.581 9.44568 993.657 8.63696 992.617 8.63696C991.519 8.63696 990.652 9.44568 990.652 10.37V49.365H994.581ZM1001.69 49.365V14.0096C1001.69 13.0852 1000.82 12.2765 999.722 12.2765C998.625 12.2765 997.758 13.0852 997.758 14.0096V49.365H1001.69ZM1008.79 49.365V5.34401C1008.79 4.36191 1007.93 3.61097 1006.83 3.61097C1005.73 3.61097 1004.86 4.36191 1004.86 5.34401V49.365H1008.79ZM1015.9 49.365V30.6475C1015.9 29.7231 1015.03 28.9144 1013.93 28.9144C1012.89 28.9144 1011.97 29.7231 1011.97 30.6475V49.365H1015.9ZM1023 49.365V25.9681C1023 25.0438 1022.14 24.235 1021.04 24.235C1020 24.235 1019.08 25.0438 1019.08 25.9681V49.365H1023ZM1030.17 49.365V14.0096C1030.17 13.0852 1029.24 12.2765 1028.2 12.2765C1027.11 12.2765 1026.24 13.0852 1026.24 14.0096V49.365H1030.17ZM1037.27 49.365V15.8583C1037.27 14.9339 1036.35 14.1252 1035.31 14.1252C1034.21 14.1252 1033.34 14.9339 1033.34 15.8583V49.365H1037.27ZM1044.38 49.365V18.1114C1044.38 17.1293 1043.51 16.3784 1042.41 16.3784C1041.32 16.3784 1040.45 17.1293 1040.45 18.1114V49.365H1044.38ZM1051.48 49.365V20.1332C1051.48 19.1511 1050.62 18.4002 1049.52 18.4002C1048.42 18.4002 1047.56 19.1511 1047.56 20.1332V49.365H1051.48ZM1058.59 49.365V33.8826C1058.59 32.9583 1057.72 32.1496 1056.63 32.1496C1055.59 32.1496 1054.66 32.9583 1054.66 33.8826V49.365H1058.59ZM1065.7 49.365V25.5637C1065.7 24.6393 1064.83 23.8306 1063.73 23.8306C1062.69 23.8306 1061.77 24.6393 1061.77 25.5637V49.365H1065.7ZM1072.86 49.365V16.4937C1072.86 15.5116 1071.94 14.7606 1070.9 14.7606C1069.8 14.7606 1068.93 15.5116 1068.93 16.4937V49.365H1072.86ZM1079.97 49.365V19.4978C1079.97 18.5735 1079.04 17.7648 1078 17.7648C1076.9 17.7648 1076.04 18.5735 1076.04 19.4978V49.365H1079.97ZM1087.07 49.365V2.51332C1087.07 1.53122 1086.2 0.780273 1085.11 0.780273C1084.01 0.780273 1083.14 1.53122 1083.14 2.51332V49.365H1087.07ZM1094.18 49.365V9.96592C1094.18 9.0416 1093.31 8.23253 1092.21 8.23253C1091.12 8.23253 1090.25 9.0416 1090.25 9.96592V49.365H1094.18ZM1101.28 49.365V11.5833C1101.28 10.659 1100.42 9.85027 1099.32 9.85027C1098.28 9.85027 1097.35 10.659 1097.35 11.5833V49.365H1101.28ZM1108.45 49.365V25.5637C1108.45 24.6393 1107.52 23.8306 1106.48 23.8306C1105.38 23.8306 1104.46 24.6393 1104.46 25.5637V49.365H1108.45Z" fill="#6E6E6E"/>
</svg>
