<svg width="130" height="151" viewBox="0 0 130 151" fill="none" xmlns="http://www.w3.org/2000/svg">
<g clip-path="url(#clip0)">
<path d="M150.27 8.44777C149.509 7.18115 148.754 5.90145 148.224 4.99915C147.839 4.34311 147.083 3.58765 146.427 3.2024C145.525 2.67358 144.245 1.9178 142.979 1.15612C142.541 0.892858 142.04 0.75354 141.532 0.75354C140.539 0.75354 139.604 1.28727 139.093 2.14607C138.972 2.35014 138.842 2.55454 138.709 2.75894L138.247 2.29618C137.736 1.78502 136.908 1.78535 136.397 2.29618C135.886 2.80701 135.886 3.6354 136.397 4.14623L137.143 4.89254C136.45 5.74611 135.697 6.58071 134.932 7.3741L134.051 6.49241C133.54 5.98125 132.712 5.98157 132.201 6.49241C131.69 7.00324 131.69 7.83163 132.201 8.34246L133.07 9.21108C132.183 10.0454 131.332 10.7959 130.592 11.4261L129.854 10.689C129.344 10.1778 128.516 10.1781 128.005 10.689C127.494 11.1998 127.494 12.0282 128.005 12.539L128.558 13.092C127.97 13.5587 127.527 14.1785 127.277 14.8885L126.613 16.7778C126.457 17.2206 126.196 17.6271 125.858 17.9531L81.8456 60.4014C80.9109 59 79.45 56.8857 78.5938 56.0299C71.2652 48.7006 59.9304 48.1087 53.3288 54.7103C51.5311 56.508 50.2206 59.3617 49.5398 62.9628C48.1152 70.4738 41.6192 75.8768 34.0525 75.8768C33.9894 75.8768 33.9253 75.8765 33.8619 75.8755C24.2293 75.7705 15.2541 79.1551 9.23099 85.1781C-3.82307 98.2325 -1.65448 121.642 14.0653 137.361C21.647 144.943 31.224 149.638 41.0322 150.58C42.2412 150.696 43.4366 150.754 44.6146 150.754C53.0832 150.754 60.6666 147.777 66.2478 142.196C72.7009 135.742 76.0684 126.104 75.4866 115.751C75.0543 108.098 80.091 101.284 87.4644 99.5488C90.5824 98.8137 92.9871 97.6174 94.6115 95.993C96.2935 94.311 97.5395 92.3053 98.3149 90.0324C99.1086 87.7173 98.7849 85.2056 97.4263 83.141C96.0894 81.1091 93.9522 79.8386 91.5635 79.6551C90.1164 79.5436 88.7543 78.9167 87.7274 77.8894C86.8663 77.0283 86.2864 75.9252 86.0578 74.7374L133.47 25.5679C133.797 25.2291 134.204 24.9678 134.648 24.8118L136.536 24.1492C137.247 23.9 137.867 23.4565 138.335 22.8685L138.888 23.4215C139.143 23.677 139.478 23.8048 139.813 23.8048C140.147 23.8048 140.482 23.677 140.738 23.4219C141.249 22.911 141.249 22.0826 140.738 21.5718L140.001 20.8347C140.63 20.0939 141.381 19.243 142.215 18.3567L143.084 19.2256C143.339 19.4811 143.674 19.6089 144.009 19.6089C144.344 19.6089 144.678 19.4811 144.934 19.226C145.445 18.7151 145.445 17.8867 144.934 17.3759L144.052 16.4942C144.846 15.7286 145.68 14.9768 146.534 14.2831L147.28 15.0294C147.535 15.2848 147.87 15.4127 148.205 15.4127C148.539 15.4127 148.874 15.2848 149.13 15.0297C149.641 14.5189 149.641 13.6905 149.13 13.1797L148.667 12.7166C148.872 12.5835 149.076 12.454 149.28 12.3327C149.938 11.9415 150.402 11.3195 150.587 10.5817C150.771 9.85142 150.659 9.09367 150.27 8.44777ZM127.352 20.1466L131.277 24.0723L76.1515 81.2422L70.1883 75.2793L127.352 20.1466ZM15.915 135.511C15.6367 135.233 15.3643 134.951 15.0951 134.668L29.7203 114.97L36.4563 121.706L16.7588 136.331C16.4749 136.062 16.193 135.789 15.915 135.511ZM85.8776 79.7398C87.3457 81.2079 89.2936 82.1043 91.3634 82.2642C92.939 82.3852 94.3525 83.229 95.2407 84.5793C96.1506 85.9624 96.369 87.6407 95.8392 89.186C95.1936 91.0789 94.1579 92.7465 92.7618 94.1429C91.504 95.4004 89.4646 96.3893 86.8646 97.0025C78.2537 99.0289 72.3703 106.976 72.8746 115.898C73.4145 125.508 70.325 134.418 64.3981 140.346C58.602 146.141 50.3907 148.851 41.282 147.975C33.2526 147.204 25.3729 143.737 18.7436 138.116L40.4494 121.999L29.4269 110.977L13.3105 132.682C1.00009 118.136 -0.202753 98.3117 11.0804 87.0282C16.6083 81.4999 24.8948 78.3954 33.8308 78.4915C33.9054 78.4925 33.979 78.4928 34.0535 78.4928C42.8767 78.4925 50.4509 72.1986 52.1103 63.4491C52.6931 60.3664 53.7543 57.9842 55.1786 56.5597C60.7604 50.9781 70.4346 51.57 76.7438 57.8796C77.4217 58.5575 78.8721 60.6424 79.9311 62.2472L66.4545 75.245L76.1852 84.976L83.9877 76.8844C84.4226 77.9447 85.0581 78.9206 85.8776 79.7398ZM136.295 21.2337C136.134 21.439 135.918 21.5937 135.67 21.6807L133.782 22.3433C133.654 22.3884 133.531 22.4463 133.406 22.5006L128.924 18.0189C128.978 17.8949 129.036 17.7729 129.081 17.6454L129.745 15.7561C129.832 15.5089 129.987 15.293 130.192 15.1328C132.225 13.5414 136.797 9.75167 139.914 5.59763C139.943 5.56002 139.974 5.52339 139.999 5.48382C140.489 4.82353 140.943 4.15506 141.342 3.48431C141.405 3.37802 141.503 3.36985 141.532 3.36985C141.566 3.36985 141.598 3.37933 141.63 3.3983C142.906 4.16553 144.195 4.92622 145.103 5.45897C145.373 5.61725 145.809 6.05385 145.968 6.32366C146.501 7.23184 147.261 8.52037 148.028 9.79549C148.056 9.84193 148.063 9.89164 148.05 9.94364C148.04 9.98452 148.013 10.0424 147.942 10.0843C147.272 10.4836 146.602 10.9375 145.942 11.4281C145.904 11.4519 145.868 11.4817 145.832 11.5098C141.676 14.6265 137.886 19.2005 136.295 21.2337Z" fill="#EEE6E6"/>
<path d="M64.6777 76.7913C64.0564 76.1699 63.2296 75.8275 62.3509 75.8275C61.4718 75.8275 60.645 76.1699 60.0237 76.7916L58.2308 78.5844C57.6091 79.2058 57.2667 80.0326 57.2667 80.9117C57.2667 81.7907 57.6091 82.6172 58.2308 83.2389L68.1878 93.1959C68.8092 93.8172 69.636 94.1597 70.5147 94.1597C71.3938 94.1597 72.2205 93.8172 72.8419 93.1959L74.6347 91.4031C75.2564 90.7814 75.5988 89.9549 75.5988 89.0758C75.5988 88.1968 75.2564 87.3703 74.6347 86.7486L64.6777 76.7913ZM72.785 89.5527L70.9922 91.3455C70.7378 91.6002 70.2926 91.6006 70.0376 91.3455L60.0806 81.3885C59.953 81.2609 59.883 81.0915 59.883 80.9113C59.883 80.7311 59.9533 80.5617 60.0806 80.4342L61.8734 78.6413C62.0009 78.5138 62.1703 78.4438 62.3509 78.4438C62.5311 78.4438 62.7005 78.5141 62.828 78.6413L72.785 88.5987C72.9126 88.7262 72.9825 88.8956 72.9825 89.0755C72.9829 89.256 72.9126 89.4254 72.785 89.5527Z" fill="#EEE6E6"/>
<path d="M46.0235 90.7911C44.7408 92.074 44.7408 94.1619 46.0238 95.4452L55.9808 105.402C56.6022 106.024 57.4289 106.366 58.308 106.366C59.1871 106.366 60.0138 106.024 60.6349 105.402L62.4277 103.609C63.0494 102.988 63.3918 102.161 63.3918 101.282C63.3918 100.403 63.0494 99.5766 62.4277 98.9549L52.471 88.9979C51.8496 88.3762 51.0229 88.0338 50.1438 88.0338C49.2647 88.0338 48.438 88.3762 47.8169 88.9976L46.0235 90.7911ZM49.6673 90.8476C49.7945 90.7201 49.9639 90.6501 50.1441 90.6501C50.3243 90.6501 50.4938 90.7201 50.6213 90.8476L60.5783 100.805C60.7058 100.933 60.7758 101.102 60.7758 101.282C60.7758 101.462 60.7055 101.631 60.5783 101.759L58.7851 103.552C58.531 103.807 58.0859 103.807 57.8312 103.552L47.8742 93.5951C47.6109 93.3318 47.6109 92.9041 47.8738 92.6411L49.6673 90.8476Z" fill="#EEE6E6"/>
<path d="M53.0643 112.419L39.0079 98.3623L33.77 103.6L47.8265 117.657L53.0643 112.419ZM39.0075 102.062L49.3639 112.419L47.8265 113.956L37.4701 103.6L39.0075 102.062Z" fill="#EEE6E6"/>
<path d="M32.5177 90.5723C42.1451 88.648 46.0424 84.3864 47.1625 82.8565C47.1661 82.8529 47.17 82.8499 47.1736 82.8463C48.4922 81.5277 48.4922 79.382 47.1736 78.0634C46.5349 77.4247 45.6856 77.0731 44.7823 77.0731C43.8787 77.0731 43.0297 77.4247 42.3907 78.0637C41.0727 79.382 41.0727 81.5277 42.391 82.8463C42.5899 83.0452 42.8113 83.2129 43.0464 83.3542C41.075 84.9423 37.5551 86.9559 31.6459 88.0783L31.3767 87.3088C31.1383 86.6269 30.392 86.2665 29.7101 86.5056C29.0282 86.744 28.6685 87.4903 28.9072 88.1721L29.0384 88.5469C17.5695 90.7816 14.0761 95.5416 13.9269 95.7519C13.9269 95.7519 13.337 96.5509 13.1705 97.01C13.0384 97.375 12.9694 97.7642 12.9694 98.1638C12.9694 99.0671 13.3213 99.9164 13.9596 100.555C14.5983 101.194 15.4477 101.546 16.3513 101.546C17.2549 101.546 18.1039 101.194 18.7426 100.555C19.3813 99.9164 19.7332 99.0674 19.7332 98.1638C19.7332 97.2602 19.3813 96.4112 18.7429 95.7725C18.5934 95.6231 18.4316 95.4909 18.2612 95.3735C20.295 93.9862 23.9255 92.161 29.9109 91.0422L30.0908 91.557C30.2792 92.096 30.7848 92.4338 31.3254 92.4338C31.4686 92.4338 31.6145 92.4102 31.757 92.3602C32.4389 92.1218 32.7987 91.3755 32.5599 90.6936L32.5177 90.5723ZM44.2407 79.9138C44.3853 79.7692 44.5776 79.6894 44.7823 79.6894C44.9867 79.6894 45.179 79.7692 45.3236 79.9138C45.6218 80.2124 45.6218 80.698 45.3236 80.9966C45.0341 81.2864 44.5295 81.2857 44.2407 80.9969C43.9425 80.698 43.9425 80.2124 44.2407 79.9138ZM16.8925 98.7061C16.6037 98.9952 16.0994 98.9952 15.81 98.7061C15.6655 98.5615 15.5857 98.3692 15.5857 98.1648C15.5857 97.9604 15.6651 97.7681 15.8103 97.6232C15.9546 97.4787 16.1469 97.3992 16.3513 97.3992C16.5557 97.3992 16.748 97.4787 16.8925 97.6236C17.0371 97.7681 17.1169 97.9604 17.1169 98.1648C17.1169 98.3692 17.0374 98.5615 16.8925 98.7061Z" fill="#EEE6E6"/>
<path d="M70.2579 102.549C69.3543 102.549 68.5053 102.9 67.8663 103.539C67.863 103.542 67.86 103.546 67.8565 103.55C66.3269 104.67 62.0639 108.566 60.14 118.195L60.0183 118.152C59.3345 117.913 58.5901 118.274 58.3514 118.956C58.113 119.638 58.4727 120.384 59.1546 120.622L59.6694 120.802C58.5506 126.788 56.7254 130.418 55.3381 132.452C55.221 132.282 55.0889 132.12 54.9394 131.97C54.3007 131.331 53.4514 130.98 52.5478 130.98C51.6442 130.98 50.7952 131.331 50.1562 131.97C48.8382 133.289 48.8382 135.434 50.1565 136.753C50.7952 137.391 51.6445 137.743 52.5481 137.743C53.0933 137.743 53.6188 137.615 54.0901 137.373C54.3991 137.215 54.96 136.786 54.96 136.786C55.1703 136.637 59.9304 133.143 62.165 121.675L62.5398 121.806C62.683 121.856 62.8286 121.879 62.9715 121.879C63.5121 121.879 64.0177 121.542 64.2064 121.003C64.4448 120.321 64.085 119.574 63.4032 119.336L62.6333 119.067C63.6583 113.69 65.4403 110.331 66.7959 108.429C66.9895 108.157 67.1798 107.907 67.3646 107.677C67.5046 107.909 67.67 108.126 67.8659 108.322C68.5046 108.961 69.354 109.312 70.2576 109.312C71.1608 109.312 72.0098 108.961 72.6492 108.322C73.9672 107.003 73.9672 104.858 72.6489 103.539C72.0102 102.9 71.1612 102.549 70.2579 102.549ZM53.0894 134.903C52.8006 135.192 52.2956 135.192 52.0069 134.903C51.7083 134.604 51.7083 134.119 52.0065 133.82C52.1511 133.676 52.3434 133.596 52.5481 133.596C52.7525 133.596 52.9448 133.675 53.0894 133.82C53.2339 133.965 53.3137 134.157 53.3137 134.361C53.3137 134.566 53.2342 134.758 53.0894 134.903ZM70.7991 106.472C70.5094 106.761 70.0051 106.761 69.716 106.472C69.5714 106.327 69.4916 106.135 69.4916 105.931C69.4916 105.779 69.5358 105.634 69.6179 105.51C69.6555 105.485 69.6761 105.473 69.6767 105.473L69.665 105.452C69.682 105.431 69.6967 105.409 69.716 105.389C69.8605 105.245 70.0528 105.165 70.2576 105.165C70.462 105.165 70.6543 105.245 70.7985 105.389C71.0974 105.688 71.0974 106.173 70.7991 106.472Z" fill="#EEE6E6"/>
<path d="M39.6946 131.125C38.791 131.125 37.942 131.477 37.3033 132.115C36.6646 132.754 36.3127 133.603 36.3127 134.507C36.3127 135.411 36.6646 136.259 37.303 136.898C37.9417 137.537 38.791 137.889 39.6946 137.889C40.5982 137.889 41.4472 137.537 42.0859 136.899C42.7247 136.26 43.0765 135.411 43.0765 134.507C43.0765 133.604 42.7247 132.754 42.0863 132.116C41.4472 131.477 40.5979 131.125 39.6946 131.125ZM40.2356 135.048C39.9468 135.338 39.4425 135.338 39.1531 135.048C39.0085 134.904 38.9287 134.711 38.9287 134.507C38.9287 134.303 39.0082 134.11 39.1534 133.965C39.2976 133.821 39.4899 133.741 39.6943 133.741C39.8987 133.741 40.091 133.821 40.2356 133.966C40.3801 134.11 40.4599 134.303 40.4599 134.507C40.4602 134.711 40.3804 134.904 40.2356 135.048Z" fill="#EEE6E6"/>
<path d="M50.5248 127.058C50.5248 126.155 50.1729 125.306 49.5342 124.667C48.8955 124.028 48.0462 123.676 47.1429 123.676C46.2393 123.676 45.3903 124.028 44.7512 124.667C43.4333 125.985 43.4333 128.131 44.7516 129.45C45.3903 130.088 46.2396 130.44 47.1432 130.44C48.0465 130.44 48.8955 130.088 49.5345 129.45C50.1729 128.811 50.5248 127.962 50.5248 127.058ZM47.6841 127.6C47.3947 127.889 46.8901 127.888 46.6013 127.6C46.3027 127.301 46.3027 126.816 46.601 126.517C46.7455 126.373 46.9378 126.293 47.1426 126.293C47.347 126.293 47.5393 126.373 47.6838 126.517C47.8284 126.662 47.9082 126.854 47.9082 127.058C47.9082 127.263 47.829 127.455 47.6841 127.6Z" fill="#EEE6E6"/>
</g>
<defs>
<clipPath id="clip0">
<rect width="150" height="150" fill="white" transform="translate(0.685791 0.75354)"/>
</clipPath>
</defs>
</svg>
