<svg width="101" height="101" viewBox="0 0 101 101" fill="none" xmlns="http://www.w3.org/2000/svg">
<g clip-path="url(#clip0)">
<path d="M69.5008 69.2857H32.4405C31.922 69.2857 31.5016 68.8653 31.5016 68.3468C31.5016 67.8283 31.922 67.4079 32.4405 67.4079H69.5006C70.0191 67.4079 70.4395 67.8283 70.4395 68.3468C70.4395 68.8653 70.0193 69.2857 69.5008 69.2857Z" fill="#EEE6E6"/>
<path d="M69.5008 73.4684H32.4405C31.922 73.4684 31.5016 73.048 31.5016 72.5295C31.5016 72.011 31.922 71.5906 32.4405 71.5906H69.5006C70.0191 71.5906 70.4395 72.011 70.4395 72.5295C70.4395 73.048 70.0193 73.4684 69.5008 73.4684Z" fill="#EEE6E6"/>
<path d="M69.5008 77.6514H32.4405C31.922 77.6514 31.5016 77.231 31.5016 76.7125C31.5016 76.1939 31.922 75.7735 32.4405 75.7735H69.5006C70.0191 75.7735 70.4395 76.1939 70.4395 76.7125C70.4395 77.231 70.0193 77.6514 69.5008 77.6514Z" fill="#EEE6E6"/>
<path d="M69.5008 81.8344H32.4405C31.922 81.8344 31.5016 81.414 31.5016 80.8954C31.5016 80.3769 31.922 79.9565 32.4405 79.9565H69.5006C70.0191 79.9565 70.4395 80.3769 70.4395 80.8954C70.4395 81.414 70.0193 81.8344 69.5008 81.8344Z" fill="#EEE6E6"/>
<path d="M69.5008 86.0173H32.4405C31.922 86.0173 31.5016 85.5969 31.5016 85.0784C31.5016 84.5599 31.922 84.1395 32.4405 84.1395H69.5006C70.0191 84.1395 70.4395 84.5599 70.4395 85.0784C70.4395 85.5969 70.0193 86.0173 69.5008 86.0173Z" fill="#EEE6E6"/>
<path d="M69.5008 90.2003H32.4405C31.922 90.2003 31.5016 89.7799 31.5016 89.2613C31.5016 88.7428 31.922 88.3224 32.4405 88.3224H69.5006C70.0191 88.3224 70.4395 88.7428 70.4395 89.2613C70.4395 89.7799 70.0193 90.2003 69.5008 90.2003Z" fill="#EEE6E6"/>
<path d="M74.3625 61.732H27.5788C27.0603 61.732 26.6399 62.1524 26.6399 62.6709V94.937C26.6399 95.4555 27.0603 95.8759 27.5788 95.8759H74.3625C74.881 95.8759 75.3014 95.4555 75.3014 94.937V62.6709C75.3014 62.1524 74.881 61.732 74.3625 61.732ZM73.4236 93.9981H28.5178V63.6099H73.4236V93.9981Z" fill="#EEE6E6"/>
<path d="M30.3391 41.6021C30.525 41.8185 30.7877 41.9296 31.052 41.9296C31.2684 41.9296 31.486 41.8552 31.6632 41.7031C32.0566 41.3653 32.1019 40.7726 31.7642 40.3789L30.06 38.3938H35.529C36.0476 38.3938 36.468 37.9734 36.468 37.4548C36.468 36.9363 36.0476 36.5159 35.529 36.5159H30.06L31.7642 34.531C32.1019 34.1376 32.0569 33.5449 31.6635 33.2071C31.27 32.8693 30.6771 32.9144 30.3396 33.3078L27.304 36.8434C27.0019 37.1952 27.0019 37.7147 27.304 38.0666L30.3391 41.6021Z" fill="#EEE6E6"/>
<path d="M30.3391 54.5005C30.525 54.7169 30.7877 54.828 31.052 54.828C31.2684 54.828 31.486 54.7536 31.6632 54.6015C32.0566 54.2637 32.1019 53.671 31.7642 53.2773L30.06 51.2922H35.529C36.0476 51.2922 36.468 50.8718 36.468 50.3532C36.468 49.8347 36.0476 49.4143 35.529 49.4143H30.06L31.7642 47.4294C32.1019 47.036 32.0569 46.4433 31.6635 46.1055C31.27 45.7677 30.6771 45.8128 30.3396 46.2062L27.304 49.7418C27.0019 50.0936 27.0019 50.6131 27.304 50.965L30.3391 54.5005Z" fill="#EEE6E6"/>
<path d="M66.4123 51.2922H71.8814L70.1772 53.2773C69.8397 53.6707 69.8845 54.2634 70.2782 54.6012C70.4554 54.7533 70.673 54.8277 70.8894 54.8277C71.1537 54.8277 71.4166 54.7167 71.6023 54.5003L74.6379 50.9647C74.9397 50.6129 74.9397 50.0934 74.6379 49.7415L71.6023 46.206C71.2643 45.8125 70.6716 45.7675 70.2782 46.1053C69.8845 46.443 69.8397 47.0357 70.1772 47.4292L71.8814 49.4141H66.4123C65.8938 49.4141 65.4734 49.8345 65.4734 50.353C65.4734 50.8715 65.8938 51.2922 66.4123 51.2922Z" fill="#EEE6E6"/>
<path d="M66.4123 38.3938H71.8814L70.1772 40.3789C69.8397 40.7723 69.8845 41.365 70.2782 41.7028C70.4554 41.8549 70.673 41.9293 70.8894 41.9293C71.1537 41.9293 71.4166 41.8183 71.6023 41.6019L74.6379 38.0663C74.9397 37.7145 74.9397 37.195 74.6379 36.8431L71.6023 33.3076C71.2643 32.9141 70.6716 32.8691 70.2782 33.2069C69.8845 33.5446 69.8397 34.1373 70.1772 34.5308L71.8814 36.5157H66.4123C65.8938 36.5157 65.4734 36.9361 65.4734 37.4546C65.4734 37.9731 65.8938 38.3938 66.4123 38.3938Z" fill="#EEE6E6"/>
<path d="M83.0604 42.3002C83.5789 42.3002 83.9993 41.8798 83.9993 41.3613V33.5486C83.9993 33.0301 83.5789 32.6097 83.0604 32.6097H79.8847V30.3236C79.8847 28.4589 78.4429 26.927 76.616 26.7775V0.577179H25.3275V26.7775C23.4997 26.9261 22.0567 28.4582 22.0567 30.3239V32.6099H18.8817C18.3632 32.6099 17.9428 33.0303 17.9428 33.5489V41.3615C17.9428 41.88 18.3632 42.3005 18.8817 42.3005H22.0567V45.0858H18.7C18.1815 45.0858 17.7611 45.5062 17.7611 46.0247V53.8374C17.7611 54.3559 18.1815 54.7763 18.7 54.7763H22.0567V97.0165C22.0567 98.98 23.6543 100.577 25.6177 100.577H76.3235C78.287 100.577 79.8847 98.9798 79.8847 97.0165V54.7761H83.0604C83.5789 54.7761 83.9993 54.3557 83.9993 53.8372V46.0245C83.9993 45.506 83.5789 45.0856 83.0604 45.0856H79.8847V42.3002H83.0604ZM19.8207 40.4223V34.4876H22.0567V40.4223H19.8207ZM19.639 52.8982V46.9634H22.0567V52.8982H19.639ZM74.7381 2.45505V26.7627H27.2054V2.45505H74.7381ZM78.0068 97.0163C78.0068 97.9444 77.2516 98.6993 76.3235 98.6993H25.6177C24.6895 98.6993 23.9346 97.9442 23.9346 97.0163V30.3239C23.9346 29.3957 24.6898 28.6408 25.6177 28.6408H76.3235C77.2516 28.6408 78.0068 29.396 78.0068 30.3239V97.0163ZM82.1214 34.4876V40.4223H79.8847V34.4876H82.1214ZM82.1214 46.9634V52.8982H79.8847V46.9634H82.1214Z" fill="#EEE6E6"/>
<path d="M33.4151 21.8025C36.0364 21.8025 38.1689 19.67 38.1689 17.0487C38.1689 14.4274 36.0364 12.2949 33.4151 12.2949C30.7938 12.2949 28.6613 14.4274 28.6613 17.0487C28.6613 19.67 30.7938 21.8025 33.4151 21.8025ZM32.4762 14.3331V15.7769C32.4762 16.2954 32.8966 16.7158 33.4151 16.7158C33.9336 16.7158 34.354 16.2954 34.354 15.7769V14.3331C35.4796 14.7234 36.291 15.7919 36.291 17.0485C36.291 18.6343 35.0007 19.9244 33.4151 19.9244C31.8295 19.9244 30.5391 18.6341 30.5391 17.0485C30.5389 15.7919 31.3506 14.7237 32.4762 14.3331Z" fill="#EEE6E6"/>
<path d="M45.0837 21.8025C47.7049 21.8025 49.8375 19.67 49.8375 17.0487C49.8375 14.4274 47.7049 12.2949 45.0837 12.2949C42.4624 12.2949 40.3298 14.4274 40.3298 17.0487C40.3298 19.67 42.4624 21.8025 45.0837 21.8025ZM44.1447 14.3331V15.7769C44.1447 16.2954 44.5651 16.7158 45.0837 16.7158C45.6022 16.7158 46.0226 16.2954 46.0226 15.7769V14.3331C47.1482 14.7234 47.9596 15.7919 47.9596 17.0485C47.9596 18.6343 46.6693 19.9244 45.0837 19.9244C43.498 19.9244 42.2077 18.6341 42.2077 17.0485C42.2077 15.7919 43.0192 14.7237 44.1447 14.3331Z" fill="#EEE6E6"/>
<path d="M51.9985 17.0487C51.9985 19.67 54.1311 21.8025 56.7526 21.8025C59.3739 21.8025 61.5064 19.67 61.5064 17.0487C61.5064 14.4274 59.3739 12.2949 56.7526 12.2949C54.1311 12.2946 51.9985 14.4274 51.9985 17.0487ZM55.8137 14.3331V15.7769C55.8137 16.2954 56.2341 16.7158 56.7526 16.7158C57.2711 16.7158 57.6915 16.2954 57.6915 15.7769V14.3331C58.8171 14.7234 59.6286 15.7919 59.6286 17.0485C59.6286 18.6343 58.3385 19.9244 56.7526 19.9244C55.1667 19.9244 53.8764 18.6341 53.8764 17.0485C53.8764 15.7919 54.6881 14.7237 55.8137 14.3331Z" fill="#EEE6E6"/>
<path d="M68.4214 21.8025C71.0427 21.8025 73.1753 19.67 73.1753 17.0487C73.1753 14.4274 71.0427 12.2949 68.4214 12.2949C65.7999 12.2949 63.6674 14.4274 63.6674 17.0487C63.6674 19.67 65.7999 21.8025 68.4214 21.8025ZM67.4825 14.3331V15.7769C67.4825 16.2954 67.9029 16.7158 68.4214 16.7158C68.94 16.7158 69.3604 16.2954 69.3604 15.7769V14.3331C70.4859 14.7234 71.2974 15.7919 71.2974 17.0485C71.2974 18.6343 70.0073 19.9244 68.4214 19.9244C66.8356 19.9244 65.5452 18.6341 65.5452 17.0485C65.5452 15.7919 66.3569 14.7237 67.4825 14.3331Z" fill="#EEE6E6"/>
<path d="M50.9718 10.6301C52.5414 10.6301 53.8181 9.35342 53.8181 7.78375C53.8181 6.21408 52.5414 4.93736 50.9718 4.93736C49.4021 4.93736 48.1254 6.21432 48.1254 7.78375C48.1254 9.35318 49.4023 10.6301 50.9718 10.6301ZM50.9718 6.815C51.5058 6.815 51.9403 7.2495 51.9403 7.78351C51.9403 8.31753 51.5058 8.75203 50.9718 8.75203C50.4377 8.75203 50.0032 8.31753 50.0032 7.78351C50.0032 7.2495 50.4377 6.815 50.9718 6.815Z" fill="#EEE6E6"/>
</g>
<defs>
<clipPath id="clip0">
<rect width="100" height="100" fill="white" transform="translate(0.880249 0.577179)"/>
</clipPath>
</defs>
</svg>
