<svg width="141" height="151" viewBox="0 0 141 151" fill="none" xmlns="http://www.w3.org/2000/svg">
<g clip-path="url(#clip0)">
<path d="M150.104 9.44197C149.847 8.24487 148.943 7.34346 147.745 7.08932C147.002 6.93167 146.239 6.85121 145.478 6.85121C144.987 6.85121 144.499 6.88555 144.017 6.95031L143.523 5.82877C143.232 5.16776 142.459 4.86783 141.798 5.15925C141.137 5.45068 140.837 6.2229 141.129 6.88392L141.453 7.61984C141.452 7.62016 141.45 7.62082 141.449 7.62114L140.46 8.01363L140.095 7.18679C139.803 6.52544 139.031 6.22682 138.37 6.51792C137.709 6.80967 137.409 7.58189 137.701 8.24291L138.026 8.97948L137.033 9.37328L136.669 8.54775C136.378 7.8864 135.606 7.5868 134.945 7.8779C134.284 8.16932 133.984 8.94122 134.275 9.60256L134.599 10.3391L133.606 10.7333L133.241 9.90576C132.95 9.24474 132.176 8.94547 131.516 9.23689C130.855 9.52864 130.555 10.3009 130.847 10.9619L131.172 11.6991L130.181 12.0923L129.818 11.2654C129.527 10.6037 128.755 10.3035 128.094 10.5943C127.433 10.885 127.132 11.6569 127.422 12.3183L127.747 13.0574L126.756 13.4509L126.391 12.6241C126.099 11.9631 125.327 11.6641 124.666 11.9552C124.005 12.247 123.705 13.0192 123.998 13.6802L124.373 14.5306C123.248 15.3633 122.656 16.7868 122.921 18.2135C123.123 19.3016 122.847 20.4245 122.162 21.2942L79.7771 75.1208C78.2303 77.0826 75.9117 78.2078 73.4142 78.2078C73.0093 78.2078 72.6004 78.177 72.1991 78.1162L64.5527 76.9577C64.2842 76.9168 64.0108 76.8962 63.7403 76.8962C61.4501 76.8962 59.4003 78.3487 58.6396 80.5104L53.5637 94.9311C52.9998 96.5338 51.7808 97.8375 50.2194 98.508L2.60547 118.952C1.14182 119.58 0.211288 120.959 0.176291 122.551C0.141622 124.145 1.01197 125.565 2.44815 126.258C12.4776 131.094 38.7188 142.715 65.7093 146.169C65.9559 146.2 66.2064 146.216 66.4537 146.216C69.138 146.216 71.4632 144.397 72.1088 141.791L77.8549 118.583C78.3978 116.39 79.7535 114.527 81.6721 113.336L110.809 95.2441C111.85 94.5971 112.307 93.4223 111.973 92.2504C111.639 91.0801 110.617 90.2942 109.43 90.2942C109.214 90.2942 108.994 90.3203 108.777 90.3723L87.148 95.5395C86.8115 95.6199 86.4736 95.6608 86.1449 95.6608C84.6348 95.6608 83.2624 94.7859 82.5638 93.3775C81.8717 91.9815 82.027 90.3998 82.9801 89.1458L131.46 25.3555L148.921 12.5564C149.908 11.8322 150.362 10.6391 150.104 9.44197ZM86.1452 98.2771C86.6787 98.2771 87.2206 98.212 87.7564 98.0841L109.386 92.917C109.409 92.9111 109.458 93.0027 109.429 93.021L80.2922 111.112C77.7911 112.666 76.0236 115.095 75.3155 117.954L69.5694 141.162C69.2139 142.597 67.9327 143.6 66.4544 143.6C66.3176 143.6 66.1786 143.591 66.0419 143.573C39.4318 140.168 13.4993 128.681 3.58506 123.901C2.83148 123.537 2.78798 122.82 2.79256 122.609C2.79747 122.398 2.87171 121.685 3.63805 121.356L51.2519 100.912C53.4836 99.954 55.2259 98.0906 56.0321 95.7998L61.1073 81.3801C61.5002 80.2638 62.5579 79.5138 63.7396 79.5138C63.8796 79.5138 64.0209 79.5246 64.1606 79.5458L71.8069 80.7043C72.3374 80.7848 72.8778 80.8253 73.4135 80.8253C74.0801 80.8253 74.7362 80.7619 75.3769 80.6438L74.1292 82.2102C73.912 82.4826 73.8125 82.831 73.8531 83.1773C73.8933 83.5237 74.0703 83.8393 74.3444 84.0546L80.2131 88.6627C79.2865 90.5077 79.2711 92.6275 80.2199 94.5406C81.3634 96.8455 83.6339 98.2774 86.1452 98.2771ZM81.7013 86.504L76.9963 82.8097L124.217 22.9135C124.523 22.525 124.779 22.1053 124.986 21.6657L128.718 24.6392L81.7013 86.504ZM147.374 10.4458L130.566 22.766L125.6 18.8094C125.594 18.4516 125.559 18.0921 125.493 17.7349C125.395 17.2126 125.683 16.6912 126.178 16.4953L142.414 10.0533C143.931 9.45145 145.606 9.31016 147.203 9.64868C147.449 9.70101 147.524 9.88614 147.547 9.99145C147.569 10.0974 147.577 10.2969 147.374 10.4458Z" fill="#EEE6E6"/>
<path d="M61.3265 121.774C61.7765 121.209 61.6837 120.386 61.1181 119.936L50.3737 111.376C49.8082 110.925 48.9853 111.019 48.5353 111.584C48.0852 112.149 48.1781 112.972 48.7436 113.422L59.488 121.982C59.7287 122.174 60.0166 122.268 60.3021 122.268C60.6871 122.267 61.0681 122.099 61.3265 121.774Z" fill="#EEE6E6"/>
<path d="M52.4124 108.818L63.1565 117.378C63.3973 117.57 63.6851 117.663 63.9706 117.663C64.3556 117.663 64.7366 117.494 64.995 117.17C65.4451 116.605 65.3522 115.782 64.7867 115.332L54.0426 106.772C53.4771 106.321 52.6542 106.415 52.2041 106.98C51.754 107.544 51.8473 108.367 52.4124 108.818Z" fill="#EEE6E6"/>
<path d="M54.5142 104.08L67.3044 114.27L72.6037 107.619L59.8131 97.4286L54.5142 104.08ZM68.9267 108.035L66.8887 110.593L58.1911 103.664L60.2288 101.106L68.9267 108.035Z" fill="#EEE6E6"/>
<path d="M62.1233 94.5294L74.9135 104.72L80.2128 98.069L67.4222 87.8784L62.1233 94.5294ZM76.5358 98.4851L74.4978 101.043L65.8003 94.1134L67.8379 91.5554L76.5358 98.4851Z" fill="#EEE6E6"/>
<path d="M69.6234 123.782C68.9885 123.276 68.1924 122.998 67.3816 122.998C66.2784 122.998 65.2514 123.493 64.5645 124.355C63.3282 125.907 63.585 128.176 65.1372 129.413C65.7718 129.919 66.5682 130.197 67.379 130.197C68.4822 130.197 69.5089 129.703 70.1958 128.841C70.7946 128.089 71.0651 127.148 70.9572 126.193C70.8493 125.238 70.3757 124.382 69.6234 123.782ZM68.1489 127.21C67.9615 127.446 67.6806 127.581 67.379 127.581C67.2227 127.581 66.9901 127.544 66.7677 127.367C66.3438 127.029 66.2735 126.409 66.6114 125.985C66.7988 125.75 67.0797 125.615 67.3816 125.615C67.538 125.615 67.7705 125.652 67.9929 125.829C68.1983 125.992 68.3275 126.226 68.357 126.487C68.3867 126.748 68.3128 127.005 68.1489 127.21Z" fill="#EEE6E6"/>
<path d="M66.0644 132.962C65.4296 132.456 64.6335 132.178 63.8227 132.178C62.7194 132.178 61.6924 132.672 61.0056 133.534C59.7689 135.087 60.0257 137.356 61.5783 138.593C62.2128 139.099 63.0092 139.377 63.82 139.377C64.9233 139.377 65.9499 138.883 66.6368 138.021C67.8738 136.469 67.6167 134.199 66.0644 132.962ZM64.5903 136.39C64.4029 136.626 64.1219 136.761 63.8204 136.761C63.664 136.761 63.4315 136.724 63.2091 136.547C63.0037 136.383 62.8745 136.149 62.845 135.888C62.8153 135.627 62.8892 135.371 63.0527 135.165C63.2405 134.93 63.5214 134.795 63.8233 134.795C63.9793 134.795 64.2119 134.832 64.4343 135.009C64.6397 135.172 64.7689 135.406 64.7983 135.667C64.8278 135.928 64.7542 136.185 64.5903 136.39Z" fill="#EEE6E6"/>
</g>
<defs>
<clipPath id="clip0">
<rect width="150" height="150" fill="white" transform="translate(0.175293 0.632217)"/>
</clipPath>
</defs>
</svg>
