<svg width="160" height="200" viewBox="0 0 160 200" fill="none" xmlns="http://www.w3.org/2000/svg">
<g clip-path="url(#clip0)">
<path d="M194.9 18.1471C194.322 17.9993 193.731 17.9241 193.142 17.9241C191.828 17.9241 190.544 18.3021 189.373 19.0172L188.466 17.8318C187.981 17.1986 187.112 16.9525 186.395 17.3017C185.409 17.7825 185.156 19.0046 185.785 19.8279L186.741 21.0763L185.203 22.3465L184.352 21.2346C183.802 20.5162 182.771 20.284 182.025 20.7956C181.229 21.3411 181.062 22.4342 181.641 23.1902L182.625 24.4754L181.096 25.7381L180.272 24.6588C179.723 23.9396 178.692 23.7061 177.945 24.2173C177.149 24.762 176.981 25.8546 177.558 26.6115L178.517 27.8679L176.984 29.1339L176.159 28.0554C175.609 27.337 174.578 27.1048 173.832 27.6164C173.036 28.1619 172.868 29.2546 173.447 30.011L174.406 31.2632L172.868 32.5334L171.983 31.3781C171.498 30.7449 170.629 30.4989 169.913 30.848C168.927 31.3288 168.673 32.5509 169.303 33.3742L170.289 34.6628L168.76 35.9254L167.903 34.8018C167.419 34.1682 166.55 33.9205 165.833 34.2693C164.846 34.7488 164.591 35.9705 165.22 36.7946L166.182 38.0548L164.653 39.3174L163.851 38.2661C163.301 37.5469 162.271 37.3134 161.524 37.8246C160.728 38.3693 160.56 39.4619 161.137 40.2188L162.075 41.4468L160.546 42.7099L159.734 41.6468C159.249 41.0132 158.38 40.766 157.663 41.1151C156.677 41.5951 156.423 42.8164 157.052 43.6405L157.967 44.8392L156.438 46.1023L155.68 45.1107C155.131 44.3919 154.101 44.1588 153.354 44.6696C152.558 45.2143 152.39 46.3074 152.968 47.0646L153.835 48.1999C152.955 49.0394 152.291 50.0882 151.921 51.2661L151.44 52.7965C151.151 53.7162 150.633 54.5562 149.94 55.227L86.0671 117.157C83.3521 115.834 79.986 117.825 76.7202 119.758C72.398 122.317 69.4182 123.849 67.4668 121.897C66.8403 121.271 66.3633 120.661 66.0082 120.074C64.7823 118.047 65.1165 115.441 66.7722 113.746L137.336 41.5115L139.79 39.0572C141.032 37.8154 142.682 37.1321 144.438 37.1321C145.406 37.1321 146.378 37.3493 147.248 37.7603C147.902 38.0694 148.627 38.2327 149.343 38.2327C151.01 38.2327 152.517 37.3911 153.373 35.9818L167.061 13.4498C167.796 12.2394 167.827 10.7909 167.143 9.57499C166.447 8.33948 165.155 7.57178 163.769 7.57178C163.083 7.57178 162.396 7.76516 161.783 8.13106L158.209 10.2642L157.757 9.18696C157.42 8.38208 156.53 7.9101 155.696 8.1699C154.741 8.46771 154.27 9.51234 154.648 10.4129L155.311 11.9934L153.567 13.0342L153.115 11.9575C152.777 11.1526 151.887 10.6806 151.054 10.9404C150.098 11.2382 149.628 12.2828 150.006 13.1834L150.669 14.7635L148.924 15.8047L148.474 14.7288C148.137 13.9239 147.248 13.4511 146.415 13.7092C145.459 14.0058 144.986 15.05 145.363 15.9514L146.025 17.5344L144.282 18.5748L143.832 17.4993C143.495 16.6944 142.606 16.2212 141.773 16.4797C140.817 16.7763 140.345 17.8205 140.721 18.7218L141.383 20.3049L139.639 21.3457L139.187 20.266C138.85 19.4611 137.961 18.9887 137.128 19.2477C136.172 19.5447 135.7 20.5889 136.077 21.4903L136.741 23.0754L134.997 24.1158L134.545 23.0361C134.208 22.2312 133.319 21.7588 132.486 22.0178C131.529 22.3148 131.057 23.359 131.435 24.2603L132.14 25.9457C131.113 26.8237 130.345 27.9731 129.934 29.2788L129.453 30.8096C129.164 31.7285 128.645 32.5689 127.953 33.2397L64.2109 95.0448C62.2942 94.8518 61.0328 94.0449 60.471 92.6285C59.327 89.744 61.019 85.0141 64.4068 81.6263C65.4439 80.5892 66.6402 79.6511 67.9622 78.8387C69.9767 77.6007 70.8275 75.2687 70.079 73.0354C69.3347 70.815 67.2575 69.4742 64.9198 69.6993C59.631 70.2085 55.0804 72.4799 51.3947 76.4495C48.5052 79.56 46.1165 83.508 44.2962 88.1831C41.1815 96.1667 34.4414 102.038 26.2669 103.888C18.0059 105.752 10.894 109.194 6.7556 113.333C0.502868 119.585 -1.49742 129.259 1.12271 140.573C3.67768 151.605 10.3514 162.948 19.9143 172.511C29.4784 182.075 40.8219 188.75 51.8546 191.305C55.1 192.057 58.2097 192.428 61.1435 192.428C68.4362 192.428 74.6363 190.131 79.0951 185.673C83.183 181.585 85.4134 175.828 85.725 168.561C85.9034 164.388 88.3644 160.644 92.1473 158.79L93.3707 158.192C98.2346 155.816 102.435 153.764 104.598 151.601C106.096 150.103 107.408 148.33 108.391 146.475C109.457 144.465 109.036 142.09 107.341 140.566C105.637 139.032 103.214 138.861 101.316 140.14C94.4642 144.746 90.9703 145.595 88.4249 143.27C85.895 140.962 87.2646 137.969 88.3568 136.335C88.5068 136.111 159.321 63.4988 159.321 63.4988L161.776 61.0445C163.017 59.8031 164.668 59.1194 166.424 59.1194C167.392 59.1194 168.364 59.3366 169.233 59.7472C169.897 60.0609 170.602 60.22 171.329 60.22C172.983 60.22 174.479 59.3917 175.338 58.0021L192.481 32.2285L194.687 31.6721C197.859 30.8727 199.993 28.1114 200 24.8C200.006 21.5529 198.004 18.9416 194.9 18.1471ZM132.641 31.8125L133.123 30.2817C133.39 29.4308 133.937 28.7012 134.674 28.207C134.731 28.1686 163.495 11.001 163.495 11.001C163.593 10.9421 163.683 10.9137 163.769 10.9137C163.941 10.9137 164.131 11.0369 164.23 11.2136C164.323 11.3785 164.315 11.5331 164.204 11.7152L150.517 34.2476C150.268 34.6569 149.84 34.8916 149.343 34.8916C149.114 34.8916 148.889 34.8403 148.675 34.7396C147.362 34.1189 145.897 33.791 144.438 33.791C141.789 33.791 139.3 34.8223 137.427 36.6948L136.593 37.5289L132.135 33.071C132.334 32.6646 132.505 32.2448 132.641 31.8125ZM130.127 35.788L134.239 39.9005L58.4051 117.53L52.2096 111.334L130.127 35.788ZM103.183 142.911C104.123 142.278 104.893 142.856 105.107 143.049C105.316 143.237 105.959 143.928 105.439 144.909C104.609 146.475 103.502 147.972 102.236 149.237C100.468 151.006 96.3083 153.038 91.9051 155.188L90.6775 155.789C85.7943 158.181 82.6179 163.021 82.3869 168.417C82.1125 174.822 80.2099 179.832 76.7327 183.309C71.3254 188.717 62.7582 190.4 52.6085 188.049C42.1769 185.633 31.4052 179.275 22.2771 170.147C3.63675 151.507 -2.26596 127.079 9.11843 115.695C12.8225 111.991 19.3408 108.875 27.0032 107.146C36.262 105.051 43.8906 98.4159 47.4092 89.396C49.0762 85.1144 51.2406 81.5235 53.8428 78.723C56.9554 75.3706 60.7897 73.4535 65.2393 73.0249C66.4213 72.9138 66.8169 73.8169 66.9104 74.0971C67.0061 74.382 67.2379 75.361 66.2121 75.9917C64.6679 76.9407 63.2653 78.0417 62.0436 79.2635C57.7005 83.6065 55.7328 89.7457 57.3647 93.8607C58.104 95.7248 59.4894 97.0605 61.3778 97.7919L47.4476 111.299L58.4331 122.284L61.9325 118.701C62.4629 121.301 64.132 123.289 65.104 124.261C66.4598 125.616 67.9668 126.138 69.5318 126.138C72.5036 126.138 75.6826 124.256 78.4226 122.634C79.8954 121.762 81.4805 120.826 82.7544 120.369L69.4341 133.285L80.4192 144.27L83.6733 140.939C83.8312 142.623 84.5768 144.281 86.1732 145.737C91.1829 150.312 97.5789 146.678 103.183 142.911ZM80.3916 139.516L74.1961 133.321L152.116 57.7715L156.228 61.8836L80.3916 139.516ZM193.871 28.4317L190.413 29.303L172.503 56.234C172.255 56.6434 171.827 56.8781 171.329 56.8781C171.1 56.8781 170.876 56.8267 170.661 56.7257C169.348 56.1054 167.883 55.7771 166.424 55.7771C163.776 55.7771 161.286 56.8084 159.414 58.6808L158.582 59.5124L154.123 55.0532C154.32 54.6477 154.492 54.2296 154.627 53.7981L155.108 52.2677C155.294 51.6767 155.614 51.1446 156.04 50.7089C156.275 50.4688 190.524 22.2851 190.524 22.2851C191.62 21.38 192.85 21.0717 194.071 21.3842C195.982 21.8733 196.66 23.4663 196.658 24.7937C196.656 26.1483 195.924 27.9142 193.871 28.4317Z" fill="white"/>
<path d="M35.9897 121.432L27.5065 129.916L39.8199 142.229L48.303 133.746L35.9897 121.432ZM32.2322 129.916L35.9901 126.158L43.5782 133.746L39.8203 137.503L32.2322 129.916Z" fill="white"/>
<path d="M20.8403 136.582C18.6107 138.812 18.6107 142.44 20.8403 144.67L25.0652 148.895C26.1453 149.975 27.5817 150.57 29.1096 150.57C30.6375 150.57 32.0735 149.975 33.154 148.895L37.5928 144.456L25.2794 132.143L20.8403 136.582ZM30.7908 146.532C30.3418 146.981 29.7445 147.229 29.1096 147.229C28.4743 147.229 27.877 146.981 27.428 146.532L23.2031 142.307C22.2759 141.38 22.2759 139.871 23.2031 138.944L25.279 136.868L32.8671 144.456L30.7908 146.532Z" fill="white"/>
<path d="M59.5843 166.448L47.271 154.135L42.8322 158.574C40.6026 160.804 40.6026 164.432 42.8322 166.662L47.0571 170.887C48.1372 171.967 49.5737 172.562 51.1015 172.562C52.6294 172.562 54.0654 171.967 55.146 170.887L59.5843 166.448ZM52.7827 168.524C52.3337 168.973 51.7364 169.221 51.1015 169.221C50.4662 169.221 49.869 168.973 49.4199 168.524L45.1951 164.299C44.2678 163.372 44.2678 161.863 45.1951 160.936L47.271 158.86L54.8586 166.448L52.7827 168.524Z" fill="white"/>
<path d="M56.9738 125.075L44.6604 112.762L38.2177 119.205L50.531 131.518L56.9738 125.075ZM44.6604 117.487L52.2485 125.075L50.531 126.793L42.9429 119.205L44.6604 117.487Z" fill="white"/>
<path d="M61.8122 164.221L70.2954 155.738L57.9821 143.424L49.4989 151.907L61.8122 164.221ZM65.5697 155.738L61.8122 159.495L54.2242 151.907L57.9821 148.15L65.5697 155.738Z" fill="white"/>
<path d="M60.2091 141.197L72.5224 153.51L78.9656 147.067L66.6523 134.754L60.2091 141.197ZM72.5224 148.784L64.9344 141.196L66.6519 139.479L74.24 147.067L72.5224 148.784Z" fill="white"/>
<path d="M71.1491 175.399C70.9724 175.399 70.7928 175.409 70.6166 175.429C69.3685 175.571 68.25 176.19 67.4672 177.172C66.6845 178.154 66.3311 179.383 66.4723 180.631C66.7417 183.01 68.7487 184.805 71.1412 184.805H71.1416C71.3183 184.805 71.4975 184.795 71.6737 184.775C72.9218 184.634 74.0403 184.015 74.8231 183.032C75.6058 182.05 75.9592 180.822 75.818 179.574C75.549 177.194 73.542 175.399 71.1491 175.399ZM72.21 180.951C71.9837 181.235 71.66 181.414 71.2982 181.455C71.2456 181.461 71.1934 181.464 71.1416 181.464C70.4503 181.464 69.8706 180.944 69.7925 180.255C69.7081 179.509 70.2461 178.834 70.9921 178.75C71.0447 178.744 71.0969 178.741 71.1487 178.741C71.8396 178.741 72.4197 179.261 72.4974 179.95C72.5388 180.311 72.4368 180.666 72.21 180.951Z" fill="white"/>
<path d="M58.017 178.077C57.8404 178.077 57.6608 178.087 57.4845 178.108C56.2365 178.249 55.1179 178.868 54.3352 179.85C53.5524 180.832 53.1991 182.061 53.3402 183.309C53.6096 185.688 55.6166 187.483 58.0095 187.483H58.0099C58.1866 187.483 58.3658 187.473 58.5421 187.453C59.7901 187.312 60.9087 186.693 61.6914 185.711C62.4741 184.728 62.8275 183.5 62.6863 182.252C62.4169 179.872 60.4095 178.077 58.017 178.077ZM59.078 183.628C58.8516 183.913 58.5279 184.092 58.1662 184.133C58.1135 184.139 58.0613 184.142 58.0095 184.142C57.3183 184.142 56.7385 183.622 56.6604 182.933C56.576 182.187 57.114 181.512 57.86 181.428C57.9126 181.422 57.9648 181.419 58.0166 181.419C58.7075 181.419 59.2876 181.939 59.3653 182.628C59.4067 182.989 59.3043 183.344 59.078 183.628Z" fill="white"/>
</g>
<defs>
<clipPath id="clip0">
<rect width="200" height="200" fill="white"/>
</clipPath>
</defs>
</svg>
