<svg width="151" height="151" viewBox="0 0 151 151" fill="none" xmlns="http://www.w3.org/2000/svg">
<g clip-path="url(#clip0)">
<path d="M137.051 62.232C136.869 62.232 136.693 62.2447 136.514 62.252C134.906 54.8933 132.003 48.0135 128.05 41.8691C128.187 41.7432 128.326 41.6224 128.459 41.4897C133.673 36.2752 133.671 27.7894 128.456 22.5734C123.241 17.359 114.756 17.359 109.543 22.5734C109.41 22.7066 109.289 22.8454 109.163 22.9824C103.018 19.029 96.1383 16.126 88.7796 14.5185C88.7866 14.3397 88.7996 14.1629 88.7996 13.9818C88.7996 6.60705 82.7987 0.607666 75.4224 0.607666C68.048 0.607666 62.0487 6.60705 62.0487 13.981C62.0487 14.1617 62.0613 14.3386 62.0686 14.5174C54.71 16.1248 47.8301 19.0278 41.6853 22.9809C41.5595 22.8443 41.439 22.7054 41.3063 22.5727C38.7808 20.0472 35.4232 18.6569 31.8511 18.6569C31.8507 18.6569 31.8499 18.6569 31.8495 18.6569C28.2767 18.6572 24.9171 20.0491 22.3905 22.5757C19.8646 25.1013 18.4735 28.46 18.4735 32.0329C18.4735 35.6058 19.8642 38.9638 22.3897 41.4893C22.5225 41.622 22.6613 41.7425 22.7979 41.8683C18.8445 48.0131 15.9415 54.8929 14.3336 62.252C14.1548 62.2451 13.9784 62.2324 13.7977 62.2324C6.4237 62.232 0.424316 68.2314 0.424316 75.6058C0.424316 82.9824 6.4237 88.9833 13.7981 88.9833C13.9788 88.9833 14.1556 88.9707 14.334 88.9638C15.9415 96.3228 18.8449 103.203 22.7979 109.347C22.6613 109.473 22.5225 109.594 22.3901 109.726C19.8646 112.252 18.4739 115.61 18.4739 119.183C18.4739 122.755 19.8646 126.114 22.3901 128.639C24.9989 131.248 28.4248 132.552 31.8507 132.552C35.2751 132.552 38.6995 131.249 41.3059 128.642C41.4387 128.51 41.5595 128.371 41.685 128.234C47.8298 132.187 54.7096 135.091 62.0682 136.698C62.0613 136.875 62.0487 137.051 62.0487 137.23C62.0487 144.607 68.048 150.608 75.4224 150.608C82.7987 150.608 88.8 144.606 88.8 137.23C88.8 137.051 88.7873 136.875 88.7804 136.698C96.139 135.091 103.019 132.187 109.164 128.234C109.289 128.369 109.408 128.508 109.54 128.64C112.149 131.248 115.574 132.552 119 132.552C122.425 132.552 125.85 131.249 128.456 128.642C133.672 123.426 133.672 114.94 128.456 109.724C128.324 109.592 128.186 109.472 128.05 109.347C132.003 103.202 134.906 96.3224 136.513 88.9638C136.692 88.9707 136.869 88.9837 137.05 88.9837C144.425 88.9837 150.424 82.9824 150.424 75.6061C150.424 68.2314 144.425 62.232 137.051 62.232ZM126.286 24.7433C130.299 28.7566 130.305 35.282 126.306 39.3014C122.283 33.6795 117.353 28.7493 111.731 24.7264C115.75 20.7262 122.274 20.7316 126.286 24.7433ZM75.4224 3.6768C81.0896 3.6768 85.7021 8.27206 85.7293 13.9312C82.3755 13.3726 78.9339 13.0772 75.4239 13.0772C71.9144 13.0772 68.4727 13.3726 65.1193 13.9312C65.1462 8.27244 69.7572 3.6768 75.4224 3.6768ZM21.5426 32.0329C21.5426 29.2799 22.6141 26.6922 24.5604 24.7464C26.5073 22.7994 29.0958 21.7267 31.8495 21.7267C31.8499 21.7267 31.8503 21.7267 31.8507 21.7267C34.5945 21.7267 37.1741 22.7917 39.1172 24.7261C33.4954 28.7489 28.5652 33.6791 24.5423 39.3006C22.6084 37.3567 21.5426 34.7771 21.5426 32.0329ZM3.49345 75.6058C3.49345 69.9409 8.08871 65.3303 13.7474 65.3027C13.1888 68.6565 12.8934 72.0981 12.8934 75.6081C12.8934 79.1176 13.1888 82.5592 13.7474 85.913C8.08871 85.8854 3.49345 81.2729 3.49345 75.6058ZM24.5604 126.469C22.6145 124.524 21.5426 121.936 21.5426 119.183C21.5426 116.439 22.608 113.859 24.5423 111.915C28.5652 117.537 33.4954 122.467 39.1169 126.49C35.0982 130.489 28.5736 130.482 24.5604 126.469ZM75.4224 147.539C69.7587 147.539 65.1489 142.944 65.1193 137.285C68.4731 137.843 71.9144 138.139 75.4239 138.139C78.9339 138.139 82.3755 137.843 85.7293 137.285C85.6998 142.944 81.088 147.539 75.4224 147.539ZM126.286 126.472C122.275 130.483 115.752 130.488 111.731 126.489C117.353 122.466 122.283 117.536 126.306 111.914C130.305 115.935 130.298 122.46 126.286 126.472ZM75.4239 135.069C42.6368 135.069 15.9626 108.395 15.9626 75.6081C15.9626 42.8209 42.6368 16.1463 75.4239 16.1463C108.211 16.1463 134.886 42.8205 134.886 75.6077C134.886 108.395 108.211 135.069 75.4239 135.069ZM137.101 85.913C137.659 82.5592 137.955 79.1176 137.955 75.6081C137.955 72.0981 137.659 68.6565 137.101 65.3027C142.76 65.3299 147.356 69.9405 147.356 75.6058C147.355 81.2729 142.76 85.8858 137.101 85.913Z" fill="#EEE6E6"/>
<path d="M88.9131 82.1614L109.362 61.7118C109.962 61.1122 109.962 60.1408 109.362 59.5419C108.763 58.9423 107.791 58.9423 107.193 59.5419L86.7429 79.9915L80.4458 73.6944L100.894 53.244C101.494 52.6444 101.494 51.673 100.894 51.0742C100.295 50.4745 99.3229 50.4745 98.7244 51.0742L78.2763 71.5246L72.6782 65.9265L103.148 35.4534C103.748 34.8538 103.748 33.8824 103.148 33.2836C102.549 32.6839 101.577 32.6839 100.978 33.2836L72.0187 62.2466L70.5083 63.7566L51.6401 44.8883C51.0404 44.2887 50.069 44.2887 49.4698 44.8883C48.8706 45.4876 48.8706 46.4594 49.4698 47.0582L68.3384 65.9265L62.7396 71.5246L36.8326 45.6173C36.233 45.0176 35.2616 45.0176 34.6624 45.6173C34.0631 46.2165 34.0631 47.1883 34.6624 47.7871L60.5697 73.6944L38.6837 95.5781C38.0841 96.1778 38.0841 97.1491 38.6837 97.7484C38.9833 98.048 39.3762 98.198 39.769 98.198C40.1615 98.198 40.5544 98.048 40.854 97.7488L62.7407 75.8651L68.3392 81.4636L40.1032 109.697C39.5036 110.297 39.5036 111.268 40.1032 111.867C40.4028 112.167 40.7957 112.317 41.1885 112.317C41.581 112.317 41.9738 112.167 42.2735 111.867L67.0375 87.1062L70.5095 83.6338L76.8062 89.9305L66.1743 100.562C65.5747 101.162 65.5747 102.133 66.1739 102.733C66.4736 103.032 66.8664 103.182 67.2593 103.182C67.6517 103.182 68.0446 103.032 68.3442 102.733L78.9764 92.1008L84.1587 97.283C84.4579 97.5826 84.8511 97.7327 85.2436 97.7327C85.6361 97.7327 86.0293 97.5826 86.3285 97.283C86.9282 96.6838 86.9282 95.712 86.3285 95.1131L81.1463 89.9309L86.7448 84.3321L111.353 108.94C111.652 109.24 112.046 109.39 112.438 109.39C112.831 109.39 113.224 109.24 113.523 108.94C114.123 108.341 114.123 107.369 113.523 106.77L88.9131 82.1614ZM64.9091 73.6948L67.0582 71.5457L70.5075 68.096L76.1056 73.6941L71.426 78.3741L70.5072 79.2929L64.9091 73.6948ZM78.9741 87.7599L72.6774 81.4632L78.2759 75.8643L84.573 82.1614L78.9741 87.7599Z" fill="#EEE6E6"/>
</g>
<defs>
<clipPath id="clip0">
<rect width="150" height="150" fill="white" transform="translate(0.424316 0.607666)"/>
</clipPath>
</defs>
</svg>
