<svg width="205" height="206" viewBox="0 0 205 206" fill="none" xmlns="http://www.w3.org/2000/svg">
<g clip-path="url(#clip0)">
<path d="M40.9463 119.712C39.1831 120.73 38.5771 122.992 39.5951 124.755C40.613 126.518 42.8754 127.124 44.6383 126.107C46.4013 125.089 47.0075 122.826 45.9897 121.063C44.9717 119.3 42.7092 118.694 40.9463 119.712ZM43.3682 123.907C42.8183 124.224 42.1126 124.035 41.795 123.485C41.4775 122.935 41.6664 122.229 42.2164 121.912C42.7664 121.594 43.4723 121.784 43.7898 122.334C44.1073 122.883 43.9182 123.589 43.3682 123.907Z" fill="#EEE6E6"/>
<path d="M53.9476 142.231C52.1844 143.249 51.5785 145.511 52.5963 147.274C53.6141 149.037 55.8766 149.643 57.6395 148.625C59.4025 147.607 60.0087 145.345 58.9909 143.582C57.973 141.819 55.7106 141.213 53.9476 142.231ZM56.3694 146.425C55.8194 146.743 55.1137 146.554 54.7962 146.004C54.4787 145.454 54.6678 144.748 55.2177 144.431C55.7677 144.113 56.4734 144.302 56.791 144.852C57.1085 145.402 56.9194 146.108 56.3694 146.425Z" fill="#EEE6E6"/>
<path d="M71.368 102.148C69.6048 103.166 68.9989 105.428 70.0169 107.191C71.0347 108.954 73.2972 109.56 75.0601 108.543C76.823 107.525 77.4293 105.262 76.4114 103.499C75.3932 101.736 73.131 101.13 71.368 102.148ZM73.79 106.343C73.24 106.66 72.5343 106.471 72.2168 105.921C71.8992 105.371 72.0882 104.665 72.6382 104.348C73.1881 104.03 73.894 104.219 74.2115 104.769C74.5291 105.319 74.34 106.025 73.79 106.343Z" fill="#EEE6E6"/>
<path d="M84.3694 124.667C82.6062 125.685 82.0002 127.947 83.0181 129.71C84.0359 131.473 86.2983 132.079 88.0613 131.061C89.8242 130.043 90.4304 127.781 89.4126 126.018C88.3948 124.255 86.1323 123.649 84.3694 124.667ZM86.7912 128.861C86.2412 129.179 85.5355 128.99 85.218 128.44C84.9004 127.89 85.0895 127.184 85.6395 126.867C86.1895 126.549 86.8952 126.738 87.2127 127.288C87.5302 127.838 87.3411 128.544 86.7912 128.861Z" fill="#EEE6E6"/>
<path d="M56.1571 110.93C54.3939 111.948 53.788 114.21 54.8059 115.973C55.8238 117.736 58.0862 118.342 59.8492 117.325C61.6121 116.307 62.2183 114.044 61.2005 112.281C60.1825 110.518 57.9201 109.912 56.1571 110.93ZM58.5791 115.125C58.0291 115.442 57.3234 115.253 57.0058 114.703C56.6883 114.153 56.8772 113.447 57.4272 113.13C57.9772 112.812 58.6831 113.002 59.0006 113.552C59.3181 114.101 59.129 114.807 58.5791 115.125Z" fill="#EEE6E6"/>
<path d="M69.1585 133.449C67.3952 134.467 66.7893 136.729 67.8071 138.492C68.825 140.255 71.0874 140.861 72.8503 139.843C74.6133 138.825 75.2195 136.563 74.2017 134.8C73.1838 133.037 70.9214 132.431 69.1585 133.449ZM71.5802 137.643C71.0303 137.961 70.3245 137.772 70.007 137.222C69.6895 136.672 69.8786 135.966 70.4286 135.649C70.9785 135.331 71.6842 135.52 72.0018 136.07C72.3193 136.62 72.1302 137.326 71.5802 137.643Z" fill="#EEE6E6"/>
<path d="M86.5786 93.366C84.8157 94.3838 84.2095 96.6462 85.2275 98.4095C86.2453 100.172 88.5077 100.779 90.2707 99.7608C92.0339 98.7428 92.6398 96.4805 91.622 94.7176C90.604 92.9544 88.3418 92.348 86.5786 93.366ZM89.0006 97.5609C88.4506 97.8784 87.7449 97.6893 87.4274 97.1394C87.1098 96.5894 87.2988 95.8834 87.8487 95.5659C88.3987 95.2483 89.1046 95.4377 89.4221 95.9877C89.7396 96.5377 89.5505 97.2434 89.0006 97.5609Z" fill="#EEE6E6"/>
<path d="M99.58 115.885C97.817 116.903 97.2108 119.165 98.2286 120.928C99.2465 122.691 101.509 123.297 103.272 122.279C105.035 121.261 105.641 118.999 104.623 117.236C103.605 115.473 101.343 114.867 99.58 115.885ZM102.002 120.08C101.452 120.397 100.746 120.208 100.429 119.658C100.111 119.108 100.3 118.402 100.85 118.085C101.4 117.767 102.106 117.956 102.423 118.506C102.741 119.056 102.552 119.762 102.002 120.08Z" fill="#EEE6E6"/>
<path d="M101.79 84.5839C100.027 85.6017 99.4204 87.8641 100.438 89.6274C101.456 91.3903 103.719 91.9965 105.482 90.9787C107.245 89.9609 107.851 87.6984 106.833 85.9355C105.815 84.1722 103.553 83.5659 101.79 84.5839ZM104.212 88.7788C103.662 89.0963 102.956 88.9072 102.638 88.3572C102.321 87.8073 102.51 87.1013 103.06 86.7838C103.61 86.4662 104.316 86.6556 104.633 87.2056C104.951 87.7555 104.761 88.4613 104.212 88.7788Z" fill="#EEE6E6"/>
<path d="M114.791 107.103C113.028 108.121 112.422 110.383 113.44 112.146C114.457 113.909 116.72 114.515 118.483 113.497C120.246 112.479 120.852 110.217 119.834 108.454C118.816 106.691 116.554 106.085 114.791 107.103ZM117.213 111.297C116.663 111.615 115.957 111.426 115.639 110.876C115.322 110.326 115.511 109.62 116.061 109.303C116.611 108.985 117.317 109.174 117.634 109.724C117.952 110.274 117.763 110.98 117.213 111.297Z" fill="#EEE6E6"/>
<path d="M117 75.8019C115.238 76.8197 114.631 79.0822 115.649 80.8454C116.667 82.6083 118.93 83.2145 120.693 82.1967C122.455 81.1789 123.062 78.9164 122.044 77.1535C121.026 75.3903 118.763 74.784 117 75.8019ZM119.422 79.9968C118.872 80.3143 118.167 80.1252 117.849 79.5753C117.532 79.0253 117.721 78.3193 118.271 78.0018C118.821 77.6843 119.526 77.8736 119.844 78.4236C120.162 78.9736 119.972 79.6793 119.422 79.9968Z" fill="#EEE6E6"/>
<path d="M130.002 98.3208C128.239 99.3386 127.633 101.601 128.651 103.364C129.668 105.127 131.931 105.733 133.694 104.715C135.457 103.698 136.063 101.435 135.045 99.6721C134.027 97.9092 131.765 97.303 130.002 98.3208ZM132.424 102.515C131.874 102.833 131.168 102.644 130.85 102.094C130.533 101.544 130.722 100.838 131.272 100.521C131.822 100.203 132.528 100.392 132.845 100.942C133.163 101.492 132.974 102.198 132.424 102.515Z" fill="#EEE6E6"/>
<path d="M132.211 67.0199C130.448 68.0379 129.842 70.3003 130.86 72.0635C131.878 73.8265 134.14 74.4327 135.903 73.4147C137.666 72.3969 138.273 70.1344 137.255 68.3715C136.237 66.6082 133.974 66.002 132.211 67.0199ZM134.633 71.2148C134.083 71.5323 133.377 71.3434 133.06 70.7934C132.742 70.2434 132.931 69.5373 133.481 69.2198C134.031 68.9022 134.737 69.0916 135.055 69.6416C135.372 70.1915 135.183 70.8973 134.633 71.2148Z" fill="#EEE6E6"/>
<path d="M145.213 89.5388C143.449 90.5568 142.843 92.8192 143.861 94.5822C144.879 96.3451 147.141 96.9513 148.905 95.9333C150.668 94.9155 151.274 92.653 150.256 90.8901C149.238 89.1272 146.976 88.521 145.213 89.5388ZM147.634 93.7334C147.084 94.051 146.379 93.862 146.061 93.312C145.743 92.7621 145.933 92.0562 146.483 91.7387C147.033 91.4212 147.738 91.6102 148.056 92.1602C148.374 92.7102 148.184 93.4159 147.634 93.7334Z" fill="#EEE6E6"/>
<path d="M147.369 58.2688C145.606 59.2866 144.999 61.5491 146.017 63.3123C147.035 65.0752 149.298 65.6815 151.061 64.6636C152.824 63.6456 153.43 61.3832 152.412 59.6202C151.394 57.857 149.132 57.2507 147.369 58.2688ZM149.791 62.4637C149.241 62.7813 148.535 62.5922 148.217 62.0422C147.9 61.4922 148.089 60.7862 148.639 60.4687C149.189 60.1512 149.895 60.3404 150.212 60.8904C150.53 61.4403 150.341 62.1462 149.791 62.4637Z" fill="#EEE6E6"/>
<path d="M160.37 80.7877C158.607 81.8056 158.001 84.068 159.019 85.8309C160.037 87.5939 162.299 88.2001 164.062 87.1823C165.825 86.1643 166.431 83.9018 165.413 82.1389C164.396 80.3759 162.133 79.7696 160.37 80.7877ZM162.792 84.9824C162.242 85.2999 161.536 85.1108 161.219 84.5608C160.901 84.0109 161.09 83.3051 161.64 82.9876C162.19 82.6701 162.896 82.859 163.214 83.409C163.531 83.959 163.342 84.6648 162.792 84.9824Z" fill="#EEE6E6"/>
<path d="M162.549 61.7612C163.594 61.1579 163.952 59.8158 163.348 58.7698L158.617 50.5752C158.013 49.5289 156.672 49.1685 155.627 49.7718L152.406 51.6316L149.745 47.0233C148.821 45.4235 146.768 44.8728 145.168 45.7967L137.668 50.1265C136.069 51.0502 135.518 53.1035 136.442 54.7037L139.103 59.3119L137.248 60.3828L133.893 54.5723C132.97 52.9724 130.917 52.4221 129.316 53.3459L121.817 57.6757C120.217 58.5994 119.667 60.6525 120.591 62.2527L123.945 68.0631L122.037 69.1647L118.292 62.678C117.369 61.0781 115.316 60.5278 113.715 61.4516L106.216 65.7814C104.616 66.7051 104.065 68.7583 104.989 70.3585L108.734 76.8452L106.826 77.9467L102.617 70.6551C101.693 69.0552 99.6397 68.5046 98.0396 69.4284L90.5402 73.7583C88.9403 74.6819 88.3901 76.7353 89.3139 78.3355L93.5237 85.627L91.6158 86.7285L86.7486 78.2982C85.8249 76.6984 83.7718 76.148 82.1717 77.0719L74.672 81.4018C73.0721 82.3255 72.5217 84.3786 73.4456 85.9788L78.3128 94.409L76.4049 95.5105L71.0537 86.2418C70.13 84.642 68.0769 84.0916 66.4767 85.0154L58.977 89.3454C57.3771 90.2691 56.8268 92.3222 57.7506 93.9223L63.1019 103.191L61.194 104.293L55.2463 93.9907C54.3226 92.3909 52.2695 91.8405 50.6693 92.7643L43.1693 97.0945C41.5695 98.0182 41.0191 100.071 41.943 101.671L47.8907 111.973L45.9829 113.075L39.2934 101.488C38.3697 99.8883 36.3166 99.3379 34.7164 100.262L27.2167 104.592C25.6168 105.515 25.0665 107.569 25.9903 109.169L32.6798 120.755L29.5123 122.584C28.4676 123.187 28.1091 124.529 28.7131 125.575L33.4442 133.77C34.0483 134.816 35.3897 135.177 36.4344 134.573L39.6019 132.745L45.6808 143.274L42.5133 145.102C41.4686 145.706 41.1101 147.048 41.7141 148.094L46.4452 156.288C47.0493 157.335 48.3905 157.695 49.4352 157.092L52.6028 155.263L59.2921 166.849C60.2158 168.449 62.2694 168.999 63.8692 168.076L71.3687 163.746C72.9685 162.822 73.5187 160.769 72.5949 159.169L65.9055 147.582L67.8134 146.481L73.7612 156.783C74.6849 158.383 76.738 158.933 78.3381 158.009L85.8378 153.679C87.4377 152.756 87.9881 150.702 87.0642 149.102L81.1164 138.8L83.0243 137.699L88.3756 146.968C89.2993 148.568 91.3524 149.118 92.9525 148.194L100.452 143.864C102.052 142.94 102.602 140.887 101.679 139.287L96.3273 130.018L98.2352 128.917L103.102 137.347C104.026 138.947 106.079 139.497 107.679 138.574L115.179 134.244C116.779 133.32 117.329 131.267 116.405 129.667L111.538 121.236L113.446 120.135L117.656 127.426C118.58 129.026 120.633 129.577 122.233 128.653L129.732 124.323C131.332 123.399 131.882 121.346 130.959 119.746L126.749 112.455L128.657 111.353L132.402 117.84C133.325 119.44 135.379 119.99 136.979 119.066L144.478 114.736C146.078 113.812 146.629 111.759 145.705 110.159L141.96 103.673L143.868 102.571L147.222 108.381C148.146 109.981 150.199 110.532 151.799 109.608L159.299 105.278C160.899 104.354 161.449 102.301 160.525 100.701L157.17 94.8907L159.025 93.8198L161.686 98.428C162.609 100.028 164.663 100.578 166.263 99.6544L173.762 95.3246C175.362 94.4009 175.912 92.3478 174.989 90.7477L172.328 86.1395L175.549 84.2797C176.594 83.6764 176.953 82.3346 176.349 81.2885L171.618 73.0939C171.014 72.0476 169.672 71.6872 168.627 72.2905L165.406 74.1503L159.327 63.6213L162.549 61.7612ZM156.592 52.1479L160.974 59.7379L158.058 61.4214L153.676 53.8315L156.592 52.1479ZM140.373 61.5118L144.755 69.1017L142.9 70.1726L138.518 62.5827L140.373 61.5118ZM146.025 71.3014L152.104 81.8303L150.249 82.9012L144.17 72.3722L146.025 71.3014ZM125.215 70.263L129.597 77.853L127.69 78.9545L123.307 71.3645L125.215 70.263ZM130.867 80.0526L136.946 90.5815L135.038 91.6831L128.959 81.1541L130.867 80.0526ZM110.004 79.0452L114.386 86.6351L112.478 87.7366L108.096 80.1467L110.004 79.0452ZM115.656 88.8348L121.735 99.3637L119.827 100.465L113.748 89.9363L115.656 88.8348ZM94.7935 87.8271L99.1756 95.417L97.2677 96.5185L92.8857 88.9286L94.7935 87.8271ZM100.446 97.6166L106.524 108.146L104.617 109.247L98.5377 98.7181L100.446 97.6166ZM79.5826 96.6091L83.9647 104.199L82.0568 105.301L77.6748 97.7106L79.5826 96.6091ZM85.2346 106.399L91.3135 116.928L89.4057 118.029L83.3268 107.5L85.2346 106.399ZM64.3717 105.391L68.7538 112.981L66.8459 114.083L62.4639 106.493L64.3717 105.391ZM70.0237 115.181L76.1026 125.71L74.1948 126.811L68.1159 116.282L70.0237 115.181ZM49.1608 114.173L53.5429 121.763L51.635 122.865L47.253 115.275L49.1608 114.173ZM54.8128 123.963L60.8917 134.492L58.9839 135.593L52.905 125.064L54.8128 123.963ZM35.4695 132.197L31.0874 124.607L33.9498 122.955L38.3318 130.545L35.4695 132.197ZM48.4705 154.716L44.0886 147.126L46.9509 145.474L51.3328 153.063L48.4705 154.716ZM70.3954 160.439C70.6188 160.826 70.4859 161.323 70.099 161.546L62.5993 165.876C62.2124 166.1 61.7156 165.966 61.4922 165.579L28.1902 107.899C27.9668 107.512 28.0999 107.015 28.4868 106.792L35.9863 102.462C36.3732 102.238 36.8698 102.372 37.0932 102.758L70.3952 160.439L70.3954 160.439ZM64.6359 145.383L60.254 137.793L62.1618 136.692L66.5437 144.281L64.6359 145.383ZM84.8647 150.372C85.0881 150.759 84.9551 151.256 84.5682 151.479L77.0684 155.809C76.6815 156.033 76.1849 155.9 75.9615 155.513L44.1429 100.401C43.9195 100.014 44.0526 99.5177 44.4395 99.2944L51.9392 94.9644C52.3261 94.741 52.8227 94.8741 53.0461 95.261L84.8647 150.372ZM79.8468 136.601L75.4649 129.011L77.3727 127.91L81.7546 135.499L79.8468 136.601ZM99.4792 140.557C99.7026 140.944 99.5695 141.441 99.1826 141.664L91.6829 145.994C91.296 146.218 90.7993 146.085 90.5759 145.698L59.9502 92.6524C59.7269 92.2655 59.8599 91.7688 60.2468 91.5455L67.7466 87.2155C68.1335 86.9921 68.6301 87.1252 68.8535 87.5121L99.4792 140.557ZM95.0577 127.819L90.6758 120.229L92.5837 119.128L96.9655 126.717L95.0577 127.819ZM114.206 130.937C114.429 131.324 114.296 131.821 113.909 132.044L106.409 136.374C106.023 136.597 105.526 136.464 105.302 136.077L75.6448 84.7087C75.4214 84.3218 75.5545 83.8251 75.9414 83.6018L83.4411 79.2718C83.828 79.0484 84.3246 79.1815 84.548 79.5684L114.206 130.937ZM110.268 119.037L105.886 111.447L107.794 110.346L112.176 117.935L110.268 119.037ZM128.759 121.016C128.982 121.403 128.849 121.9 128.462 122.123L120.963 126.453C120.576 126.676 120.079 126.543 119.856 126.156L91.5136 77.0655C91.2902 76.6786 91.4231 76.1817 91.81 75.9583L99.3094 71.6285C99.6963 71.4051 100.193 71.5385 100.417 71.9254L128.759 121.016ZM125.479 110.255L121.097 102.665L123.005 101.564L127.387 109.153L125.479 110.255ZM143.505 111.429C143.729 111.816 143.596 112.313 143.209 112.536L135.709 116.866C135.322 117.09 134.826 116.957 134.602 116.57L107.189 69.0885C106.965 68.7016 107.099 68.2048 107.486 67.9815L114.985 63.6516C115.372 63.4283 115.869 63.5613 116.092 63.9483L143.505 111.429ZM140.69 101.473L136.308 93.8831L138.216 92.7816L142.598 100.371L140.69 101.473ZM158.326 101.971C158.549 102.358 158.416 102.855 158.029 103.078L150.53 107.408C150.143 107.631 149.646 107.498 149.423 107.111L122.79 60.9826C122.567 60.5957 122.7 60.099 123.087 59.8756L130.586 55.5458C130.973 55.3224 131.47 55.4555 131.693 55.8424L158.326 101.971ZM155.901 92.6907L151.519 85.1011L153.374 84.0302L157.756 91.6199L155.901 92.6907ZM172.789 92.0177C173.013 92.4047 172.88 92.9013 172.493 93.1247L164.993 97.4545C164.606 97.6779 164.11 97.5448 163.886 97.1579L138.642 53.4336C138.419 53.0467 138.552 52.5498 138.939 52.3264L146.438 47.9966C146.825 47.7732 147.322 47.9065 147.545 48.2935L172.789 92.0177ZM169.593 74.6663L173.975 82.256L171.059 83.9395L166.677 76.3499L169.593 74.6663Z" fill="#EEE6E6"/>
</g>
<defs>
<clipPath id="clip0">
<rect width="150" height="150" fill="white" transform="translate(0.0790405 75.9799) rotate(-30)"/>
</clipPath>
</defs>
</svg>
