<svg width="1344" height="49" viewBox="0 0 1344 49" fill="none" xmlns="http://www.w3.org/2000/svg">
<path fill-rule="evenodd" clip-rule="evenodd" d="M489.032 0.0446777V46.9542C489.032 47.9363 488.165 48.6874 487.068 48.6874C486.028 48.6874 485.104 47.9363 485.104 46.9542V0.0446777H489.032ZM139.868 0.0446777V23.8461C139.868 24.8282 139.001 25.5792 137.904 25.5792C136.806 25.5792 135.939 24.8282 135.939 23.8461V0.0446777H139.868ZM132.762 0.0446777V37.8265C132.762 38.8086 131.838 39.5596 130.798 39.5596C129.7 39.5596 128.834 38.8086 128.834 37.8265V0.0446777H132.762ZM125.598 0.0446777V39.4441C125.598 40.4262 124.732 41.1772 123.634 41.1772C122.594 41.1772 121.67 40.4262 121.67 39.4441V0.0446777H125.598ZM118.493 0.0446777V46.9542C118.493 47.9363 117.626 48.6874 116.528 48.6874C115.489 48.6874 114.564 47.9363 114.564 46.9542V0.0446777H118.493ZM111.387 0.0446777V29.9698C111.387 30.8941 110.52 31.7029 109.423 31.7029C108.325 31.7029 107.459 30.8941 107.459 29.9698V0.0446777H111.387ZM104.281 0.0446777V32.9738C104.281 33.9559 103.415 34.7069 102.317 34.7069C101.219 34.7069 100.353 33.9559 100.353 32.9738V0.0446777H104.281V0.0446777ZM97.1754 0.0446777V23.8461C97.1754 24.8282 96.3088 25.5792 95.2112 25.5792C94.1136 25.5792 93.247 24.8282 93.247 23.8461V0.0446777H97.1754ZM90.0696 0.0446777V15.5849C90.0696 16.5092 89.1453 17.318 88.1054 17.318C87.0078 17.318 86.1413 16.5092 86.1413 15.5849V0.0446777H90.0696ZM82.9061 0.0446777V29.3343C82.9061 30.3164 82.0396 31.0674 80.9419 31.0674C79.902 31.0674 78.9777 30.3164 78.9777 29.3343V0.0446777H82.9061ZM75.8004 0.0446777V31.3562C75.8004 32.3383 74.9338 33.0893 73.8362 33.0893C72.7963 33.0893 71.872 32.3383 71.872 31.3562V0.0446777H75.8004V0.0446777ZM68.6946 0.0446777V33.6093C68.6946 34.5336 67.828 35.3424 66.7304 35.3424C65.6328 35.3424 64.7662 34.5336 64.7662 33.6093V0.0446777H68.6946V0.0446777ZM61.5888 0.0446777V35.4002C61.5888 36.3823 60.7223 37.1333 59.6246 37.1333C58.527 37.1333 57.6604 36.3823 57.6604 35.4002V0.0446777H61.5888ZM54.4831 0.0446777V23.4417C54.4831 24.4238 53.5587 25.1748 52.5189 25.1748C51.4212 25.1748 50.5547 24.4238 50.5547 23.4417V0.0446777H54.4831V0.0446777ZM47.3773 0.0446777V18.8201C47.3773 19.7444 46.453 20.5532 45.4131 20.5532C44.3155 20.5532 43.4489 19.7444 43.4489 18.8201V0.0446777H47.3773ZM40.2138 0.0446777V44.1235C40.2138 45.1056 39.3472 45.8566 38.2496 45.8566C37.2097 45.8566 36.2854 45.1056 36.2854 44.1235V0.0446777H40.2138ZM33.108 0.0446777V35.4002C33.108 36.3823 32.2415 37.1333 31.1438 37.1333C30.104 37.1333 29.1796 36.3823 29.1796 35.4002V0.0446777H33.108ZM26.0023 0.0446777V39.0397C26.0023 40.0218 25.1357 40.7728 24.0381 40.7728C22.9404 40.7728 22.0739 40.0218 22.0739 39.0397V0.0446777H26.0023V0.0446777ZM18.8965 0.0446777V43.1414C18.8965 44.0657 18.0299 44.8745 16.9323 44.8745C15.8347 44.8745 14.9681 44.0657 14.9681 43.1414V0.0446777H18.8965V0.0446777ZM11.7907 0.0446777V39.6752C11.7907 40.5995 10.8664 41.4083 9.82654 41.4083C8.72891 41.4083 7.86235 40.5995 7.86235 39.6752V0.0446777H11.7907V0.0446777ZM4.68498 0.0446777V46.9542C4.68498 47.9363 3.76065 48.6874 2.72079 48.6874C1.62315 48.6874 0.756592 47.9363 0.756592 46.9542V0.0446777H4.68498ZM143.334 0.0446777V23.8461C143.334 24.8282 144.2 25.5792 145.298 25.5792C146.396 25.5792 147.262 24.8282 147.262 23.8461V0.0446777H143.334ZM150.44 0.0446777V37.8265C150.44 38.8086 151.306 39.5596 152.404 39.5596C153.502 39.5596 154.368 38.8086 154.368 37.8265V0.0446777H150.44ZM157.545 0.0446777V39.4441C157.545 40.4262 158.412 41.1772 159.51 41.1772C160.607 41.1772 161.474 40.4262 161.474 39.4441V0.0446777H157.545ZM164.651 0.0446777V46.9542C164.651 47.9363 165.576 48.6874 166.615 48.6874C167.713 48.6874 168.58 47.9363 168.58 46.9542V0.0446777H164.651ZM171.815 0.0446777V29.9698C171.815 30.8941 172.681 31.7029 173.779 31.7029C174.819 31.7029 175.743 30.8941 175.743 29.9698V0.0446777H171.815ZM178.921 0.0446777V32.9738C178.921 33.9559 179.787 34.7069 180.885 34.7069C181.925 34.7069 182.849 33.9559 182.849 32.9738V0.0446777H178.921V0.0446777ZM186.026 0.0446777V23.8461C186.026 24.8282 186.893 25.5792 187.99 25.5792C189.088 25.5792 189.955 24.8282 189.955 23.8461V0.0446777H186.026V0.0446777ZM193.132 0.0446777V15.5849C193.132 16.5092 193.999 17.318 195.096 17.318C196.194 17.318 197.06 16.5092 197.06 15.5849V0.0446777H193.132V0.0446777ZM200.238 0.0446777V29.3343C200.238 30.3164 201.162 31.0674 202.202 31.0674C203.3 31.0674 204.166 30.3164 204.166 29.3343V0.0446777H200.238V0.0446777ZM346.397 0.0446777V23.8461C346.397 24.8282 345.53 25.5792 344.433 25.5792C343.335 25.5792 342.469 24.8282 342.469 23.8461V0.0446777H346.397V0.0446777ZM339.291 0.0446777V37.8265C339.291 38.8086 338.367 39.5596 337.327 39.5596C336.229 39.5596 335.363 38.8086 335.363 37.8265V0.0446777H339.291V0.0446777ZM332.185 0.0446777V39.4441C332.185 40.4262 331.261 41.1772 330.221 41.1772C329.124 41.1772 328.199 40.4262 328.199 39.4441V0.0446777H332.185V0.0446777ZM325.022 0.0446777V46.9542C325.022 47.9363 324.155 48.6874 323.058 48.6874C322.018 48.6874 321.093 47.9363 321.093 46.9542V0.0446777H325.022V0.0446777ZM317.916 0.0446777V29.9698C317.916 30.8941 317.05 31.7029 315.952 31.7029C314.854 31.7029 313.988 30.8941 313.988 29.9698V0.0446777H317.916V0.0446777ZM310.81 0.0446777V32.9738C310.81 33.9559 309.944 34.7069 308.846 34.7069C307.749 34.7069 306.882 33.9559 306.882 32.9738V0.0446777H310.81V0.0446777ZM303.705 0.0446777V23.8461C303.705 24.8282 302.838 25.5792 301.74 25.5792C300.643 25.5792 299.776 24.8282 299.776 23.8461V0.0446777H303.705V0.0446777ZM296.599 0.0446777V15.5849C296.599 16.5092 295.675 17.318 294.635 17.318C293.537 17.318 292.67 16.5092 292.67 15.5849V0.0446777H296.599V0.0446777ZM289.435 0.0446777V29.3343C289.435 30.3164 288.569 31.0674 287.471 31.0674C286.431 31.0674 285.507 30.3164 285.507 29.3343V0.0446777H289.435V0.0446777ZM282.33 0.0446777V31.3562C282.33 32.3383 281.463 33.0893 280.365 33.0893C279.325 33.0893 278.401 32.3383 278.401 31.3562V0.0446777H282.33V0.0446777ZM275.224 0.0446777V33.6093C275.224 34.5336 274.357 35.3424 273.26 35.3424C272.162 35.3424 271.295 34.5336 271.295 33.6093V0.0446777H275.224V0.0446777ZM268.118 0.0446777V35.4002C268.118 36.3823 267.251 37.1333 266.154 37.1333C265.056 37.1333 264.19 36.3823 264.19 35.4002V0.0446777H268.118V0.0446777ZM261.012 0.0446777V23.4417C261.012 24.4238 260.088 25.1748 259.048 25.1748C257.95 25.1748 257.084 24.4238 257.084 23.4417V0.0446777H261.012V0.0446777ZM253.907 0.0446777V18.8201C253.907 19.7444 252.982 20.5532 251.942 20.5532C250.845 20.5532 249.978 19.7444 249.978 18.8201V0.0446777H253.907V0.0446777ZM246.743 0.0446777V44.1235C246.743 45.1056 245.876 45.8566 244.779 45.8566C243.739 45.8566 242.815 45.1056 242.815 44.1235V0.0446777H246.743V0.0446777ZM239.637 0.0446777V35.4002C239.637 36.3823 238.771 37.1333 237.673 37.1333C236.633 37.1333 235.709 36.3823 235.709 35.4002V0.0446777H239.637V0.0446777ZM232.531 0.0446777V39.0397C232.531 40.0218 231.665 40.7728 230.567 40.7728C229.47 40.7728 228.603 40.0218 228.603 39.0397V0.0446777H232.531V0.0446777ZM225.426 0.0446777V43.1414C225.426 44.0657 224.559 44.8745 223.462 44.8745C222.364 44.8745 221.497 44.0657 221.497 43.1414V0.0446777H225.426V0.0446777ZM218.32 0.0446777V39.6752C218.32 40.5995 217.396 41.4083 216.356 41.4083C215.258 41.4083 214.392 40.5995 214.392 39.6752V0.0446777H218.32V0.0446777ZM211.214 0.0446777V46.9542C211.214 47.9363 210.29 48.6874 209.25 48.6874C208.152 48.6874 207.286 47.9363 207.286 46.9542V0.0446777H211.214V0.0446777ZM349.863 0.0446777V23.8461C349.863 24.8282 350.73 25.5792 351.827 25.5792C352.925 25.5792 353.792 24.8282 353.792 23.8461V0.0446777H349.863V0.0446777ZM356.969 0.0446777V37.8265C356.969 38.8086 357.835 39.5596 358.933 39.5596C360.031 39.5596 360.897 38.8086 360.897 37.8265V0.0446777H356.969V0.0446777ZM364.075 0.0446777V39.4441C364.075 40.4262 364.941 41.1772 366.039 41.1772C367.136 41.1772 368.003 40.4262 368.003 39.4441V0.0446777H364.075ZM371.18 0.0446777V46.9542C371.18 47.9363 372.105 48.6874 373.145 48.6874C374.242 48.6874 375.109 47.9363 375.109 46.9542V0.0446777H371.18ZM378.344 0.0446777V29.9698C378.344 30.8941 379.21 31.7029 380.308 31.7029C381.348 31.7029 382.272 30.8941 382.272 29.9698V0.0446777H378.344ZM385.45 0.0446777V32.9738C385.45 33.9559 386.316 34.7069 387.414 34.7069C388.454 34.7069 389.378 33.9559 389.378 32.9738V0.0446777H385.45V0.0446777ZM392.555 0.0446777V23.8461C392.555 24.8282 393.422 25.5792 394.52 25.5792C395.617 25.5792 396.484 24.8282 396.484 23.8461V0.0446777H392.555ZM399.661 0.0446777V15.5849C399.661 16.5092 400.528 17.318 401.625 17.318C402.723 17.318 403.59 16.5092 403.59 15.5849V0.0446777H399.661ZM406.767 0.0446777V29.3343C406.767 30.3164 407.691 31.0674 408.731 31.0674C409.829 31.0674 410.695 30.3164 410.695 29.3343V0.0446777H406.767ZM413.873 0.0446777V31.3562C413.873 32.3383 414.797 33.0893 415.837 33.0893C416.935 33.0893 417.801 32.3383 417.801 31.3562V0.0446777H413.873V0.0446777ZM421.036 0.0446777V33.6093C421.036 34.5336 421.903 35.3424 423 35.3424C424.04 35.3424 424.965 34.5336 424.965 33.6093V0.0446777H421.036V0.0446777ZM428.142 0.0446777V35.4002C428.142 36.3823 429.009 37.1333 430.106 37.1333C431.146 37.1333 432.07 36.3823 432.07 35.4002V0.0446777H428.142ZM435.248 0.0446777V23.4417C435.248 24.4238 436.114 25.1748 437.212 25.1748C438.31 25.1748 439.176 24.4238 439.176 23.4417V0.0446777H435.248V0.0446777ZM442.354 0.0446777V18.8201C442.354 19.7444 443.22 20.5532 444.318 20.5532C445.415 20.5532 446.282 19.7444 446.282 18.8201V0.0446777H442.354ZM449.459 0.0446777V44.1235C449.459 45.1056 450.384 45.8566 451.423 45.8566C452.521 45.8566 453.388 45.1056 453.388 44.1235V0.0446777H449.459ZM456.565 0.0446777V35.4002C456.565 36.3823 457.489 37.1333 458.529 37.1333C459.627 37.1333 460.493 36.3823 460.493 35.4002V0.0446777H456.565ZM463.729 0.0446777V39.0397C463.729 40.0218 464.595 40.7728 465.693 40.7728C466.733 40.7728 467.657 40.0218 467.657 39.0397V0.0446777H463.729V0.0446777ZM470.834 0.0446777V43.1414C470.834 44.0657 471.701 44.8745 472.799 44.8745C473.838 44.8745 474.763 44.0657 474.763 43.1414V0.0446777H470.834ZM477.94 0.0446777V39.6752C477.94 40.5995 478.807 41.4083 479.904 41.4083C481.002 41.4083 481.869 40.5995 481.869 39.6752V0.0446777H477.94V0.0446777ZM834.268 0.0446777V23.8461C834.268 24.8282 835.135 25.5792 836.232 25.5792C837.272 25.5792 838.196 24.8282 838.196 23.8461V0.0446777H834.268ZM841.374 0.0446777V37.8265C841.374 38.8086 842.24 39.5596 843.338 39.5596C844.378 39.5596 845.302 38.8086 845.302 37.8265V0.0446777H841.374ZM848.479 0.0446777V39.4441C848.479 40.4262 849.346 41.1772 850.444 41.1772C851.541 41.1772 852.408 40.4262 852.408 39.4441V0.0446777H848.479ZM855.585 0.0446777V46.9542C855.585 47.9363 856.452 48.6874 857.549 48.6874C858.647 48.6874 859.514 47.9363 859.514 46.9542V0.0446777H855.585ZM862.691 0.0446777V29.9698C862.691 30.8941 863.615 31.7029 864.655 31.7029C865.753 31.7029 866.619 30.8941 866.619 29.9698V0.0446777H862.691ZM869.797 0.0446777V32.9738C869.797 33.9559 870.721 34.7069 871.761 34.7069C872.859 34.7069 873.725 33.9559 873.725 32.9738V0.0446777H869.797V0.0446777ZM876.96 0.0446777V23.8461C876.96 24.8282 877.827 25.5792 878.924 25.5792C879.964 25.5792 880.889 24.8282 880.889 23.8461V0.0446777H876.96ZM884.066 0.0446777V15.5849C884.066 16.5092 884.933 17.318 886.03 17.318C887.128 17.318 887.994 16.5092 887.994 15.5849V0.0446777H884.066ZM891.172 0.0446777V29.3343C891.172 30.3164 892.038 31.0674 893.136 31.0674C894.234 31.0674 895.1 30.3164 895.1 29.3343V0.0446777H891.172ZM898.278 0.0446777V31.3562C898.278 32.3383 899.144 33.0893 900.242 33.0893C901.339 33.0893 902.206 32.3383 902.206 31.3562V0.0446777H898.278V0.0446777ZM905.383 0.0446777V33.6093C905.383 34.5336 906.308 35.3424 907.348 35.3424C908.445 35.3424 909.312 34.5336 909.312 33.6093V0.0446777H905.383V0.0446777ZM912.547 0.0446777V35.4002C912.547 36.3823 913.413 37.1333 914.511 37.1333C915.551 37.1333 916.475 36.3823 916.475 35.4002V0.0446777H912.547ZM919.653 0.0446777V23.4417C919.653 24.4238 920.519 25.1748 921.617 25.1748C922.657 25.1748 923.581 24.4238 923.581 23.4417V0.0446777H919.653V0.0446777ZM926.758 0.0446777V18.8201C926.758 19.7444 927.625 20.5532 928.723 20.5532C929.82 20.5532 930.687 19.7444 930.687 18.8201V0.0446777H926.758ZM933.864 0.0446777V44.1235C933.864 45.1056 934.731 45.8566 935.828 45.8566C936.926 45.8566 937.793 45.1056 937.793 44.1235V0.0446777H933.864ZM940.97 0.0446777V35.4002C940.97 36.3823 941.894 37.1333 942.934 37.1333C944.032 37.1333 944.898 36.3823 944.898 35.4002V0.0446777H940.97ZM948.076 0.0446777V39.0397C948.076 40.0218 949 40.7728 950.04 40.7728C951.137 40.7728 952.004 40.0218 952.004 39.0397V0.0446777H948.076V0.0446777ZM955.239 0.0446777V43.1414C955.239 44.0657 956.106 44.8745 957.203 44.8745C958.243 44.8745 959.168 44.0657 959.168 43.1414V0.0446777H955.239ZM962.345 0.0446777V39.6752C962.345 40.5995 963.211 41.4083 964.309 41.4083C965.349 41.4083 966.273 40.5995 966.273 39.6752V0.0446777H962.345V0.0446777ZM969.451 0.0446777V46.9542C969.451 47.9363 970.317 48.6874 971.415 48.6874C972.513 48.6874 973.379 47.9363 973.379 46.9542V0.0446777H969.451ZM830.802 0.0446777V23.8461C830.802 24.8282 829.877 25.5792 828.838 25.5792C827.74 25.5792 826.873 24.8282 826.873 23.8461V0.0446777H830.802ZM823.638 0.0446777V37.8265C823.638 38.8086 822.772 39.5596 821.674 39.5596C820.634 39.5596 819.71 38.8086 819.71 37.8265V0.0446777H823.638ZM816.532 0.0446777V39.4441C816.532 40.4262 815.666 41.1772 814.568 41.1772C813.528 41.1772 812.604 40.4262 812.604 39.4441V0.0446777H816.532ZM809.427 0.0446777V46.9542C809.427 47.9363 808.56 48.6874 807.463 48.6874C806.365 48.6874 805.498 47.9363 805.498 46.9542V0.0446777H809.427ZM802.321 0.0446777V29.9698C802.321 30.8941 801.454 31.7029 800.357 31.7029C799.259 31.7029 798.393 30.8941 798.393 29.9698V0.0446777H802.321ZM795.215 0.0446777V32.9738C795.215 33.9559 794.291 34.7069 793.251 34.7069C792.153 34.7069 791.287 33.9559 791.287 32.9738V0.0446777H795.215V0.0446777ZM788.109 0.0446777V23.8461C788.109 24.8282 787.185 25.5792 786.145 25.5792C785.048 25.5792 784.181 24.8282 784.181 23.8461V0.0446777H788.109ZM780.946 0.0446777V15.5849C780.946 16.5092 780.079 17.318 778.982 17.318C777.942 17.318 777.017 16.5092 777.017 15.5849V0.0446777H780.946ZM773.84 0.0446777V29.3343C773.84 30.3164 772.974 31.0674 771.876 31.0674C770.836 31.0674 769.912 30.3164 769.912 29.3343V0.0446777H773.84ZM627.739 0.0446777V23.8461C627.739 24.8282 628.605 25.5792 629.703 25.5792C630.743 25.5792 631.667 24.8282 631.667 23.8461V0.0446777H627.739ZM634.845 0.0446777V37.8265C634.845 38.8086 635.711 39.5596 636.809 39.5596C637.849 39.5596 638.773 38.8086 638.773 37.8265V0.0446777H634.845ZM641.95 0.0446777V39.4441C641.95 40.4262 642.817 41.1772 643.914 41.1772C645.012 41.1772 645.879 40.4262 645.879 39.4441V0.0446777H641.95ZM649.056 0.0446777V46.9542C649.056 47.9363 649.923 48.6874 651.02 48.6874C652.118 48.6874 652.984 47.9363 652.984 46.9542V0.0446777H649.056ZM656.162 0.0446777V29.9698C656.162 30.8941 657.086 31.7029 658.126 31.7029C659.224 31.7029 660.09 30.8941 660.09 29.9698V0.0446777H656.162ZM663.268 0.0446777V32.9738C663.268 33.9559 664.192 34.7069 665.232 34.7069C666.329 34.7069 667.196 33.9559 667.196 32.9738V0.0446777H663.268V0.0446777ZM670.431 0.0446777V23.8461C670.431 24.8282 671.298 25.5792 672.395 25.5792C673.435 25.5792 674.36 24.8282 674.36 23.8461V0.0446777H670.431ZM677.537 0.0446777V15.5849C677.537 16.5092 678.403 17.318 679.501 17.318C680.599 17.318 681.465 16.5092 681.465 15.5849V0.0446777H677.537ZM684.643 0.0446777V29.3343C684.643 30.3164 685.509 31.0674 686.607 31.0674C687.704 31.0674 688.571 30.3164 688.571 29.3343V0.0446777H684.643ZM691.748 0.0446777V31.3562C691.748 32.3383 692.615 33.0893 693.713 33.0893C694.81 33.0893 695.677 32.3383 695.677 31.3562V0.0446777H691.748V0.0446777ZM698.854 0.0446777V33.6093C698.854 34.5336 699.778 35.3424 700.818 35.3424C701.916 35.3424 702.783 34.5336 702.783 33.6093V0.0446777H698.854V0.0446777ZM706.018 0.0446777V35.4002C706.018 36.3823 706.884 37.1333 707.982 37.1333C709.022 37.1333 709.946 36.3823 709.946 35.4002V0.0446777H706.018ZM713.123 0.0446777V23.4417C713.123 24.4238 713.99 25.1748 715.088 25.1748C716.127 25.1748 717.052 24.4238 717.052 23.4417V0.0446777H713.123V0.0446777ZM720.229 0.0446777V18.8201C720.229 19.7444 721.096 20.5532 722.193 20.5532C723.291 20.5532 724.158 19.7444 724.158 18.8201V0.0446777H720.229ZM727.335 0.0446777V44.1235C727.335 45.1056 728.202 45.8566 729.299 45.8566C730.397 45.8566 731.263 45.1056 731.263 44.1235V0.0446777H727.335ZM734.441 0.0446777V35.4002C734.441 36.3823 735.307 37.1333 736.405 37.1333C737.503 37.1333 738.369 36.3823 738.369 35.4002V0.0446777H734.441V0.0446777ZM741.546 0.0446777V39.0397C741.546 40.0218 742.471 40.7728 743.511 40.7728C744.608 40.7728 745.475 40.0218 745.475 39.0397V0.0446777H741.546V0.0446777ZM748.71 0.0446777V43.1414C748.71 44.0657 749.577 44.8745 750.674 44.8745C751.714 44.8745 752.638 44.0657 752.638 43.1414V0.0446777H748.71ZM755.816 0.0446777V39.6752C755.816 40.5995 756.682 41.4083 757.78 41.4083C758.82 41.4083 759.744 40.5995 759.744 39.6752V0.0446777H755.816V0.0446777ZM762.922 0.0446777V46.9542C762.922 47.9363 763.788 48.6874 764.886 48.6874C765.983 48.6874 766.85 47.9363 766.85 46.9542V0.0446777H762.922ZM624.273 0.0446777V23.8461C624.273 24.8282 623.348 25.5792 622.308 25.5792C621.211 25.5792 620.344 24.8282 620.344 23.8461V0.0446777H624.273ZM617.109 0.0446777V37.8265C617.109 38.8086 616.242 39.5596 615.145 39.5596C614.105 39.5596 613.181 38.8086 613.181 37.8265V0.0446777H617.109ZM610.003 0.0446777V39.4441C610.003 40.4262 609.137 41.1772 608.039 41.1772C606.999 41.1772 606.075 40.4262 606.075 39.4441V0.0446777H610.003ZM602.897 0.0446777V46.9542C602.897 47.9363 602.031 48.6874 600.933 48.6874C599.836 48.6874 598.969 47.9363 598.969 46.9542V0.0446777H602.897ZM595.792 0.0446777V29.9698C595.792 30.8941 594.925 31.7029 593.828 31.7029C592.73 31.7029 591.863 30.8941 591.863 29.9698V0.0446777H595.792ZM588.686 0.0446777V32.9738C588.686 33.9559 587.762 34.7069 586.722 34.7069C585.624 34.7069 584.758 33.9559 584.758 32.9738V0.0446777H588.686V0.0446777ZM581.58 0.0446777V23.8461C581.58 24.8282 580.656 25.5792 579.616 25.5792C578.518 25.5792 577.652 24.8282 577.652 23.8461V0.0446777H581.58ZM574.417 0.0446777V15.5849C574.417 16.5092 573.55 17.318 572.453 17.318C571.413 17.318 570.488 16.5092 570.488 15.5849V0.0446777H574.417ZM567.311 0.0446777V29.3343C567.311 30.3164 566.444 31.0674 565.347 31.0674C564.307 31.0674 563.383 30.3164 563.383 29.3343V0.0446777H567.311ZM560.205 0.0446777V31.3562C560.205 32.3383 559.339 33.0893 558.241 33.0893C557.143 33.0893 556.277 32.3383 556.277 31.3562V0.0446777H560.205V0.0446777ZM553.099 0.0446777V33.6093C553.099 34.5336 552.233 35.3424 551.135 35.3424C550.038 35.3424 549.171 34.5336 549.171 33.6093V0.0446777H553.099V0.0446777ZM545.994 0.0446777V35.4002C545.994 36.3823 545.069 37.1333 544.029 37.1333C542.932 37.1333 542.065 36.3823 542.065 35.4002V0.0446777H545.994ZM538.888 0.0446777V23.4417C538.888 24.4238 537.964 25.1748 536.924 25.1748C535.826 25.1748 534.96 24.4238 534.96 23.4417V0.0446777H538.888V0.0446777ZM531.724 0.0446777V18.8201C531.724 19.7444 530.858 20.5532 529.76 20.5532C528.72 20.5532 527.796 19.7444 527.796 18.8201V0.0446777H531.724ZM524.619 0.0446777V44.1235C524.619 45.1056 523.752 45.8566 522.654 45.8566C521.557 45.8566 520.69 45.1056 520.69 44.1235V0.0446777H524.619ZM517.513 0.0446777V35.4002C517.513 36.3823 516.646 37.1333 515.549 37.1333C514.451 37.1333 513.584 36.3823 513.584 35.4002V0.0446777H517.513ZM510.407 0.0446777V39.0397C510.407 40.0218 509.541 40.7728 508.443 40.7728C507.345 40.7728 506.479 40.0218 506.479 39.0397V0.0446777H510.407V0.0446777ZM503.301 0.0446777V43.1414C503.301 44.0657 502.377 44.8745 501.337 44.8745C500.239 44.8745 499.373 44.0657 499.373 43.1414V0.0446777H503.301ZM496.196 0.0446777V39.6752C496.196 40.5995 495.271 41.4083 494.174 41.4083C493.134 41.4083 492.209 40.5995 492.209 39.6752V0.0446777H496.196V0.0446777ZM1339.76 0.0446777V46.9542C1339.76 47.9363 1340.63 48.6874 1341.72 48.6874C1342.82 48.6874 1343.69 47.9363 1343.69 46.9542V0.0446777H1339.76ZM1332.65 0.0446777V39.4441C1332.65 40.4262 1333.52 41.1772 1334.62 41.1772C1335.72 41.1772 1336.58 40.4262 1336.58 39.4441V0.0446777H1332.65ZM1325.55 0.0446777V37.8265C1325.55 38.8086 1326.41 39.5596 1327.51 39.5596C1328.55 39.5596 1329.48 38.8086 1329.48 37.8265V0.0446777H1325.55ZM1318.38 0.0446777V23.8461C1318.38 24.8282 1319.31 25.5792 1320.41 25.5792C1321.45 25.5792 1322.37 24.8282 1322.37 23.8461V0.0446777H1318.38ZM1179.74 0.0446777V46.9542C1179.74 47.9363 1178.87 48.6874 1177.77 48.6874C1176.73 48.6874 1175.81 47.9363 1175.81 46.9542V0.0446777H1179.74ZM1186.84 0.0446777V39.6752C1186.84 40.5995 1185.97 41.4083 1184.88 41.4083C1183.84 41.4083 1182.91 40.5995 1182.91 39.6752V0.0446777H1186.84V0.0446777ZM1194 0.0446777V43.1414C1194 44.0657 1193.08 44.8745 1192.04 44.8745C1190.94 44.8745 1190.08 44.0657 1190.08 43.1414V0.0446777H1194ZM1201.11 0.0446777V39.0397C1201.11 40.0218 1200.19 40.7728 1199.15 40.7728C1198.05 40.7728 1197.18 40.0218 1197.18 39.0397V0.0446777H1201.11V0.0446777ZM1208.22 0.0446777V35.4002C1208.22 36.3823 1207.35 37.1333 1206.25 37.1333C1205.15 37.1333 1204.29 36.3823 1204.29 35.4002V0.0446777H1208.22ZM1215.32 0.0446777V44.1235C1215.32 45.1056 1214.45 45.8566 1213.36 45.8566C1212.26 45.8566 1211.39 45.1056 1211.39 44.1235V0.0446777H1215.32ZM1222.43 0.0446777V18.8201C1222.43 19.7444 1221.56 20.5532 1220.46 20.5532C1219.42 20.5532 1218.5 19.7444 1218.5 18.8201V0.0446777H1222.43ZM1229.53 0.0446777V23.4417C1229.53 24.4238 1228.67 25.1748 1227.57 25.1748C1226.53 25.1748 1225.6 24.4238 1225.6 23.4417V0.0446777H1229.53V0.0446777ZM1236.7 0.0446777V35.4002C1236.7 36.3823 1235.77 37.1333 1234.73 37.1333C1233.63 37.1333 1232.77 36.3823 1232.77 35.4002V0.0446777H1236.7ZM1243.8 0.0446777V33.6093C1243.8 34.5336 1242.88 35.3424 1241.84 35.3424C1240.74 35.3424 1239.87 34.5336 1239.87 33.6093V0.0446777H1243.8V0.0446777ZM1250.91 0.0446777V31.3562C1250.91 32.3383 1250.04 33.0893 1248.94 33.0893C1247.85 33.0893 1246.98 32.3383 1246.98 31.3562V0.0446777H1250.91V0.0446777ZM1258.01 0.0446777V29.3343C1258.01 30.3164 1257.15 31.0674 1256.05 31.0674C1254.95 31.0674 1254.09 30.3164 1254.09 29.3343V0.0446777H1258.01ZM1265.12 0.0446777V15.5849C1265.12 16.5092 1264.25 17.318 1263.16 17.318C1262.12 17.318 1261.19 16.5092 1261.19 15.5849V0.0446777H1265.12ZM1272.23 0.0446777V23.8461C1272.23 24.8282 1271.36 25.5792 1270.26 25.5792C1269.22 25.5792 1268.3 24.8282 1268.3 23.8461V0.0446777H1272.23ZM1279.39 0.0446777V32.9738C1279.39 33.9559 1278.46 34.7069 1277.42 34.7069C1276.33 34.7069 1275.46 33.9559 1275.46 32.9738V0.0446777H1279.39V0.0446777ZM1286.49 0.0446777V29.9698C1286.49 30.8941 1285.63 31.7029 1284.53 31.7029C1283.43 31.7029 1282.57 30.8941 1282.57 29.9698V0.0446777H1286.49ZM1293.6 0.0446777V46.9542C1293.6 47.9363 1292.73 48.6874 1291.64 48.6874C1290.54 48.6874 1289.67 47.9363 1289.67 46.9542V0.0446777H1293.6ZM1300.71 0.0446777V39.4441C1300.71 40.4262 1299.84 41.1772 1298.74 41.1772C1297.64 41.1772 1296.78 40.4262 1296.78 39.4441V0.0446777H1300.71ZM1307.81 0.0446777V37.8265C1307.81 38.8086 1306.95 39.5596 1305.85 39.5596C1304.81 39.5596 1303.88 38.8086 1303.88 37.8265V0.0446777H1307.81ZM1314.98 0.0446777V23.8461C1314.98 24.8282 1314.05 25.5792 1313.01 25.5792C1311.91 25.5792 1311.05 24.8282 1311.05 23.8461V0.0446777H1314.98ZM1168.82 0.0446777V29.3343C1168.82 30.3164 1169.68 31.0674 1170.78 31.0674C1171.88 31.0674 1172.74 30.3164 1172.74 29.3343V0.0446777H1168.82ZM1161.71 0.0446777V15.5849C1161.71 16.5092 1162.58 17.318 1163.67 17.318C1164.71 17.318 1165.64 16.5092 1165.64 15.5849V0.0446777H1161.71ZM1154.6 0.0446777V23.8461C1154.6 24.8282 1155.47 25.5792 1156.57 25.5792C1157.61 25.5792 1158.53 24.8282 1158.53 23.8461V0.0446777H1154.6ZM1147.44 0.0446777V32.9738C1147.44 33.9559 1148.37 34.7069 1149.41 34.7069C1150.5 34.7069 1151.37 33.9559 1151.37 32.9738V0.0446777H1147.44V0.0446777ZM1140.34 0.0446777V29.9698C1140.34 30.8941 1141.2 31.7029 1142.3 31.7029C1143.4 31.7029 1144.26 30.8941 1144.26 29.9698V0.0446777H1140.34ZM1133.23 0.0446777V46.9542C1133.23 47.9363 1134.1 48.6874 1135.19 48.6874C1136.29 48.6874 1137.16 47.9363 1137.16 46.9542V0.0446777H1133.23ZM1126.12 0.0446777V39.4441C1126.12 40.4262 1126.99 41.1772 1128.09 41.1772C1129.19 41.1772 1130.05 40.4262 1130.05 39.4441V0.0446777H1126.12ZM1119.02 0.0446777V37.8265C1119.02 38.8086 1119.88 39.5596 1120.98 39.5596C1122.02 39.5596 1122.95 38.8086 1122.95 37.8265V0.0446777H1119.02ZM1111.85 0.0446777V23.8461C1111.85 24.8282 1112.78 25.5792 1113.82 25.5792C1114.92 25.5792 1115.78 24.8282 1115.78 23.8461V0.0446777H1111.85ZM980.312 0.0446777V39.6752C980.312 40.5995 979.445 41.4083 978.347 41.4083C977.308 41.4083 976.383 40.5995 976.383 39.6752V0.0446777H980.312V0.0446777ZM987.475 0.0446777V43.1414C987.475 44.0657 986.551 44.8745 985.511 44.8745C984.413 44.8745 983.547 44.0657 983.547 43.1414V0.0446777H987.475ZM994.581 0.0446777V39.0397C994.581 40.0218 993.657 40.7728 992.617 40.7728C991.519 40.7728 990.652 40.0218 990.652 39.0397V0.0446777H994.581V0.0446777ZM1001.69 0.0446777V35.4002C1001.69 36.3823 1000.82 37.1333 999.722 37.1333C998.625 37.1333 997.758 36.3823 997.758 35.4002V0.0446777H1001.69ZM1008.79 0.0446777V44.1235C1008.79 45.1056 1007.93 45.8566 1006.83 45.8566C1005.73 45.8566 1004.86 45.1056 1004.86 44.1235V0.0446777H1008.79ZM1015.9 0.0446777V18.8201C1015.9 19.7444 1015.03 20.5532 1013.93 20.5532C1012.89 20.5532 1011.97 19.7444 1011.97 18.8201V0.0446777H1015.9ZM1023 0.0446777V23.4417C1023 24.4238 1022.14 25.1748 1021.04 25.1748C1020 25.1748 1019.08 24.4238 1019.08 23.4417V0.0446777H1023V0.0446777ZM1030.17 0.0446777V35.4002C1030.17 36.3823 1029.24 37.1333 1028.2 37.1333C1027.11 37.1333 1026.24 36.3823 1026.24 35.4002V0.0446777H1030.17ZM1037.27 0.0446777V33.6093C1037.27 34.5336 1036.35 35.3424 1035.31 35.3424C1034.21 35.3424 1033.34 34.5336 1033.34 33.6093V0.0446777H1037.27V0.0446777ZM1044.38 0.0446777V31.3562C1044.38 32.3383 1043.51 33.0893 1042.41 33.0893C1041.32 33.0893 1040.45 32.3383 1040.45 31.3562V0.0446777H1044.38V0.0446777ZM1051.48 0.0446777V29.3343C1051.48 30.3164 1050.62 31.0674 1049.52 31.0674C1048.42 31.0674 1047.56 30.3164 1047.56 29.3343V0.0446777H1051.48ZM1058.59 0.0446777V15.5849C1058.59 16.5092 1057.72 17.318 1056.63 17.318C1055.59 17.318 1054.66 16.5092 1054.66 15.5849V0.0446777H1058.59ZM1065.7 0.0446777V23.8461C1065.7 24.8282 1064.83 25.5792 1063.73 25.5792C1062.69 25.5792 1061.77 24.8282 1061.77 23.8461V0.0446777H1065.7ZM1072.86 0.0446777V32.9738C1072.86 33.9559 1071.94 34.7069 1070.9 34.7069C1069.8 34.7069 1068.93 33.9559 1068.93 32.9738V0.0446777H1072.86V0.0446777ZM1079.97 0.0446777V29.9698C1079.97 30.8941 1079.04 31.7029 1078 31.7029C1076.9 31.7029 1076.04 30.8941 1076.04 29.9698V0.0446777H1079.97ZM1087.07 0.0446777V46.9542C1087.07 47.9363 1086.2 48.6874 1085.11 48.6874C1084.01 48.6874 1083.14 47.9363 1083.14 46.9542V0.0446777H1087.07ZM1094.18 0.0446777V39.4441C1094.18 40.4262 1093.31 41.1772 1092.21 41.1772C1091.12 41.1772 1090.25 40.4262 1090.25 39.4441V0.0446777H1094.18ZM1101.28 0.0446777V37.8265C1101.28 38.8086 1100.42 39.5596 1099.32 39.5596C1098.28 39.5596 1097.35 38.8086 1097.35 37.8265V0.0446777H1101.28ZM1108.45 0.0446777V23.8461C1108.45 24.8282 1107.52 25.5792 1106.48 25.5792C1105.38 25.5792 1104.46 24.8282 1104.46 23.8461V0.0446777H1108.45Z" fill="#6E6E6E"/>
</svg>
