<svg width="4035" height="49" viewBox="0 0 4035 49" fill="none" xmlns="http://www.w3.org/2000/svg">
<path fill-rule="evenodd" clip-rule="evenodd" d="M1834.03 0.0446777V46.9542C1834.03 47.9363 1833.16 48.6874 1832.07 48.6874C1831.03 48.6874 1830.1 47.9363 1830.1 46.9542V0.0446777H1834.03ZM1484.87 0.0446777V23.8461C1484.87 24.8282 1484 25.5792 1482.9 25.5792C1481.81 25.5792 1480.94 24.8282 1480.94 23.8461V0.0446777H1484.87ZM1477.76 0.0446777V37.8265C1477.76 38.8086 1476.84 39.5596 1475.8 39.5596C1474.7 39.5596 1473.83 38.8086 1473.83 37.8265V0.0446777H1477.76ZM1470.6 0.0446777V39.4441C1470.6 40.4262 1469.73 41.1772 1468.63 41.1772C1467.59 41.1772 1466.67 40.4262 1466.67 39.4441V0.0446777H1470.6ZM1463.49 0.0446777V46.9542C1463.49 47.9363 1462.63 48.6874 1461.53 48.6874C1460.49 48.6874 1459.56 47.9363 1459.56 46.9542V0.0446777H1463.49ZM1456.39 0.0446777V29.9698C1456.39 30.8941 1455.52 31.7029 1454.42 31.7029C1453.32 31.7029 1452.46 30.8941 1452.46 29.9698V0.0446777H1456.39ZM1449.28 0.0446777V32.9738C1449.28 33.9559 1448.42 34.7069 1447.32 34.7069C1446.22 34.7069 1445.35 33.9559 1445.35 32.9738V0.0446777H1449.28ZM1442.18 0.0446777V23.8461C1442.18 24.8282 1441.31 25.5792 1440.21 25.5792C1439.11 25.5792 1438.25 24.8282 1438.25 23.8461V0.0446777H1442.18ZM1435.07 0.0446777V15.5849C1435.07 16.5092 1434.15 17.318 1433.11 17.318C1432.01 17.318 1431.14 16.5092 1431.14 15.5849V0.0446777H1435.07ZM1427.91 0.0446777V29.3343C1427.91 30.3164 1427.04 31.0674 1425.94 31.0674C1424.9 31.0674 1423.98 30.3164 1423.98 29.3343V0.0446777H1427.91ZM1420.8 0.0446777V31.3562C1420.8 32.3383 1419.93 33.0893 1418.84 33.0893C1417.8 33.0893 1416.87 32.3383 1416.87 31.3562V0.0446777H1420.8ZM1413.69 0.0446777V33.6093C1413.69 34.5336 1412.83 35.3424 1411.73 35.3424C1410.63 35.3424 1409.77 34.5336 1409.77 33.6093V0.0446777H1413.69ZM1406.59 0.0446777V35.4002C1406.59 36.3823 1405.72 37.1333 1404.62 37.1333C1403.53 37.1333 1402.66 36.3823 1402.66 35.4002V0.0446777H1406.59ZM1399.48 0.0446777V23.4417C1399.48 24.4238 1398.56 25.1748 1397.52 25.1748C1396.42 25.1748 1395.55 24.4238 1395.55 23.4417V0.0446777H1399.48ZM1392.38 0.0446777V18.8201C1392.38 19.7444 1391.45 20.5532 1390.41 20.5532C1389.32 20.5532 1388.45 19.7444 1388.45 18.8201V0.0446777H1392.38ZM1385.21 0.0446777V44.1235C1385.21 45.1056 1384.35 45.8566 1383.25 45.8566C1382.21 45.8566 1381.29 45.1056 1381.29 44.1235V0.0446777H1385.21ZM1378.11 0.0446777V35.4002C1378.11 36.3823 1377.24 37.1333 1376.14 37.1333C1375.1 37.1333 1374.18 36.3823 1374.18 35.4002V0.0446777H1378.11ZM1371 0.0446777V39.0397C1371 40.0218 1370.14 40.7728 1369.04 40.7728C1367.94 40.7728 1367.07 40.0218 1367.07 39.0397V0.0446777H1371ZM1363.9 0.0446777V43.1414C1363.9 44.0657 1363.03 44.8745 1361.93 44.8745C1360.83 44.8745 1359.97 44.0657 1359.97 43.1414V0.0446777H1363.9ZM1356.79 0.0446777V39.6752C1356.79 40.5995 1355.87 41.4083 1354.83 41.4083C1353.73 41.4083 1352.86 40.5995 1352.86 39.6752V0.0446777H1356.79ZM1349.68 0.0446777V46.9542C1349.68 47.9363 1348.76 48.6874 1347.72 48.6874C1346.62 48.6874 1345.76 47.9363 1345.76 46.9542V0.0446777H1349.68ZM1488.33 0.0446777V23.8461C1488.33 24.8282 1489.2 25.5792 1490.3 25.5792C1491.4 25.5792 1492.26 24.8282 1492.26 23.8461V0.0446777H1488.33ZM1495.44 0.0446777V37.8265C1495.44 38.8086 1496.31 39.5596 1497.4 39.5596C1498.5 39.5596 1499.37 38.8086 1499.37 37.8265V0.0446777H1495.44ZM1502.54 0.0446777V39.4441C1502.54 40.4262 1503.41 41.1772 1504.51 41.1772C1505.61 41.1772 1506.47 40.4262 1506.47 39.4441V0.0446777H1502.54ZM1509.65 0.0446777V46.9542C1509.65 47.9363 1510.58 48.6874 1511.62 48.6874C1512.71 48.6874 1513.58 47.9363 1513.58 46.9542V0.0446777H1509.65ZM1516.82 0.0446777V29.9698C1516.82 30.8941 1517.68 31.7029 1518.78 31.7029C1519.82 31.7029 1520.74 30.8941 1520.74 29.9698V0.0446777H1516.82ZM1523.92 0.0446777V32.9738C1523.92 33.9559 1524.79 34.7069 1525.88 34.7069C1526.92 34.7069 1527.85 33.9559 1527.85 32.9738V0.0446777H1523.92ZM1531.03 0.0446777V23.8461C1531.03 24.8282 1531.89 25.5792 1532.99 25.5792C1534.09 25.5792 1534.96 24.8282 1534.96 23.8461V0.0446777H1531.03ZM1538.13 0.0446777V15.5849C1538.13 16.5092 1539 17.318 1540.1 17.318C1541.19 17.318 1542.06 16.5092 1542.06 15.5849V0.0446777H1538.13ZM1545.24 0.0446777V29.3343C1545.24 30.3164 1546.16 31.0674 1547.2 31.0674C1548.3 31.0674 1549.17 30.3164 1549.17 29.3343V0.0446777H1545.24ZM1691.4 0.0446777V23.8461C1691.4 24.8282 1690.53 25.5792 1689.43 25.5792C1688.34 25.5792 1687.47 24.8282 1687.47 23.8461V0.0446777H1691.4ZM1684.29 0.0446777V37.8265C1684.29 38.8086 1683.37 39.5596 1682.33 39.5596C1681.23 39.5596 1680.36 38.8086 1680.36 37.8265V0.0446777H1684.29ZM1677.18 0.0446777V39.4441C1677.18 40.4262 1676.26 41.1772 1675.22 41.1772C1674.12 41.1772 1673.2 40.4262 1673.2 39.4441V0.0446777H1677.18ZM1670.02 0.0446777V46.9542C1670.02 47.9363 1669.16 48.6874 1668.06 48.6874C1667.02 48.6874 1666.09 47.9363 1666.09 46.9542V0.0446777H1670.02ZM1662.92 0.0446777V29.9698C1662.92 30.8941 1662.05 31.7029 1660.95 31.7029C1659.85 31.7029 1658.99 30.8941 1658.99 29.9698V0.0446777H1662.92ZM1655.81 0.0446777V32.9738C1655.81 33.9559 1654.94 34.7069 1653.85 34.7069C1652.75 34.7069 1651.88 33.9559 1651.88 32.9738V0.0446777H1655.81ZM1648.7 0.0446777V23.8461C1648.7 24.8282 1647.84 25.5792 1646.74 25.5792C1645.64 25.5792 1644.78 24.8282 1644.78 23.8461V0.0446777H1648.7ZM1641.6 0.0446777V15.5849C1641.6 16.5092 1640.68 17.318 1639.64 17.318C1638.54 17.318 1637.67 16.5092 1637.67 15.5849V0.0446777H1641.6ZM1634.43 0.0446777V29.3343C1634.43 30.3164 1633.57 31.0674 1632.47 31.0674C1631.43 31.0674 1630.51 30.3164 1630.51 29.3343V0.0446777H1634.43ZM1627.33 0.0446777V31.3562C1627.33 32.3383 1626.46 33.0893 1625.36 33.0893C1624.32 33.0893 1623.4 32.3383 1623.4 31.3562V0.0446777H1627.33ZM1620.22 0.0446777V33.6093C1620.22 34.5336 1619.36 35.3424 1618.26 35.3424C1617.16 35.3424 1616.3 34.5336 1616.3 33.6093V0.0446777H1620.22ZM1613.12 0.0446777V35.4002C1613.12 36.3823 1612.25 37.1333 1611.15 37.1333C1610.06 37.1333 1609.19 36.3823 1609.19 35.4002V0.0446777H1613.12ZM1606.01 0.0446777V23.4417C1606.01 24.4238 1605.09 25.1748 1604.05 25.1748C1602.95 25.1748 1602.08 24.4238 1602.08 23.4417V0.0446777H1606.01ZM1598.91 0.0446777V18.8201C1598.91 19.7444 1597.98 20.5532 1596.94 20.5532C1595.85 20.5532 1594.98 19.7444 1594.98 18.8201V0.0446777H1598.91ZM1591.74 0.0446777V44.1235C1591.74 45.1056 1590.88 45.8566 1589.78 45.8566C1588.74 45.8566 1587.82 45.1056 1587.82 44.1235V0.0446777H1591.74ZM1584.64 0.0446777V35.4002C1584.64 36.3823 1583.77 37.1333 1582.67 37.1333C1581.63 37.1333 1580.71 36.3823 1580.71 35.4002V0.0446777H1584.64ZM1577.53 0.0446777V39.0397C1577.53 40.0218 1576.67 40.7728 1575.57 40.7728C1574.47 40.7728 1573.6 40.0218 1573.6 39.0397V0.0446777H1577.53ZM1570.43 0.0446777V43.1414C1570.43 44.0657 1569.56 44.8745 1568.46 44.8745C1567.36 44.8745 1566.5 44.0657 1566.5 43.1414V0.0446777H1570.43ZM1563.32 0.0446777V39.6752C1563.32 40.5995 1562.4 41.4083 1561.36 41.4083C1560.26 41.4083 1559.39 40.5995 1559.39 39.6752V0.0446777H1563.32ZM1556.21 0.0446777V46.9542C1556.21 47.9363 1555.29 48.6874 1554.25 48.6874C1553.15 48.6874 1552.29 47.9363 1552.29 46.9542V0.0446777H1556.21ZM1694.86 0.0446777V23.8461C1694.86 24.8282 1695.73 25.5792 1696.83 25.5792C1697.92 25.5792 1698.79 24.8282 1698.79 23.8461V0.0446777H1694.86ZM1701.97 0.0446777V37.8265C1701.97 38.8086 1702.84 39.5596 1703.93 39.5596C1705.03 39.5596 1705.9 38.8086 1705.9 37.8265V0.0446777H1701.97ZM1709.08 0.0446777V39.4441C1709.08 40.4262 1709.94 41.1772 1711.04 41.1772C1712.14 41.1772 1713 40.4262 1713 39.4441V0.0446777H1709.08ZM1716.18 0.0446777V46.9542C1716.18 47.9363 1717.1 48.6874 1718.14 48.6874C1719.24 48.6874 1720.11 47.9363 1720.11 46.9542V0.0446777H1716.18ZM1723.34 0.0446777V29.9698C1723.34 30.8941 1724.21 31.7029 1725.31 31.7029C1726.35 31.7029 1727.27 30.8941 1727.27 29.9698V0.0446777H1723.34ZM1730.45 0.0446777V32.9738C1730.45 33.9559 1731.32 34.7069 1732.41 34.7069C1733.45 34.7069 1734.38 33.9559 1734.38 32.9738V0.0446777H1730.45ZM1737.55 0.0446777V23.8461C1737.55 24.8282 1738.42 25.5792 1739.52 25.5792C1740.62 25.5792 1741.48 24.8282 1741.48 23.8461V0.0446777H1737.55ZM1744.66 0.0446777V15.5849C1744.66 16.5092 1745.53 17.318 1746.62 17.318C1747.72 17.318 1748.59 16.5092 1748.59 15.5849V0.0446777H1744.66ZM1751.77 0.0446777V29.3343C1751.77 30.3164 1752.69 31.0674 1753.73 31.0674C1754.83 31.0674 1755.7 30.3164 1755.7 29.3343V0.0446777H1751.77ZM1758.87 0.0446777V31.3562C1758.87 32.3383 1759.8 33.0893 1760.84 33.0893C1761.94 33.0893 1762.8 32.3383 1762.8 31.3562V0.0446777H1758.87ZM1766.04 0.0446777V33.6093C1766.04 34.5336 1766.9 35.3424 1768 35.3424C1769.04 35.3424 1769.96 34.5336 1769.96 33.6093V0.0446777H1766.04ZM1773.14 0.0446777V35.4002C1773.14 36.3823 1774.01 37.1333 1775.11 37.1333C1776.15 37.1333 1777.07 36.3823 1777.07 35.4002V0.0446777H1773.14ZM1780.25 0.0446777V23.4417C1780.25 24.4238 1781.11 25.1748 1782.21 25.1748C1783.31 25.1748 1784.18 24.4238 1784.18 23.4417V0.0446777H1780.25ZM1787.35 0.0446777V18.8201C1787.35 19.7444 1788.22 20.5532 1789.32 20.5532C1790.41 20.5532 1791.28 19.7444 1791.28 18.8201V0.0446777H1787.35ZM1794.46 0.0446777V44.1235C1794.46 45.1056 1795.38 45.8566 1796.42 45.8566C1797.52 45.8566 1798.39 45.1056 1798.39 44.1235V0.0446777H1794.46ZM1801.57 0.0446777V35.4002C1801.57 36.3823 1802.49 37.1333 1803.53 37.1333C1804.63 37.1333 1805.49 36.3823 1805.49 35.4002V0.0446777H1801.57ZM1808.73 0.0446777V39.0397C1808.73 40.0218 1809.59 40.7728 1810.69 40.7728C1811.73 40.7728 1812.66 40.0218 1812.66 39.0397V0.0446777H1808.73ZM1815.83 0.0446777V43.1414C1815.83 44.0657 1816.7 44.8745 1817.8 44.8745C1818.84 44.8745 1819.76 44.0657 1819.76 43.1414V0.0446777H1815.83ZM1822.94 0.0446777V39.6752C1822.94 40.5995 1823.81 41.4083 1824.9 41.4083C1826 41.4083 1826.87 40.5995 1826.87 39.6752V0.0446777H1822.94ZM2179.27 0.0446777V23.8461C2179.27 24.8282 2180.13 25.5792 2181.23 25.5792C2182.27 25.5792 2183.2 24.8282 2183.2 23.8461V0.0446777H2179.27ZM2186.37 0.0446777V37.8265C2186.37 38.8086 2187.24 39.5596 2188.34 39.5596C2189.38 39.5596 2190.3 38.8086 2190.3 37.8265V0.0446777H2186.37ZM2193.48 0.0446777V39.4441C2193.48 40.4262 2194.35 41.1772 2195.44 41.1772C2196.54 41.1772 2197.41 40.4262 2197.41 39.4441V0.0446777H2193.48ZM2200.59 0.0446777V46.9542C2200.59 47.9363 2201.45 48.6874 2202.55 48.6874C2203.65 48.6874 2204.51 47.9363 2204.51 46.9542V0.0446777H2200.59ZM2207.69 0.0446777V29.9698C2207.69 30.8941 2208.62 31.7029 2209.66 31.7029C2210.75 31.7029 2211.62 30.8941 2211.62 29.9698V0.0446777H2207.69ZM2214.8 0.0446777V32.9738C2214.8 33.9559 2215.72 34.7069 2216.76 34.7069C2217.86 34.7069 2218.72 33.9559 2218.72 32.9738V0.0446777H2214.8ZM2221.96 0.0446777V23.8461C2221.96 24.8282 2222.83 25.5792 2223.92 25.5792C2224.96 25.5792 2225.89 24.8282 2225.89 23.8461V0.0446777H2221.96ZM2229.07 0.0446777V15.5849C2229.07 16.5092 2229.93 17.318 2231.03 17.318C2232.13 17.318 2232.99 16.5092 2232.99 15.5849V0.0446777H2229.07ZM2236.17 0.0446777V29.3343C2236.17 30.3164 2237.04 31.0674 2238.14 31.0674C2239.23 31.0674 2240.1 30.3164 2240.1 29.3343V0.0446777H2236.17ZM2243.28 0.0446777V31.3562C2243.28 32.3383 2244.14 33.0893 2245.24 33.0893C2246.34 33.0893 2247.21 32.3383 2247.21 31.3562V0.0446777H2243.28ZM2250.38 0.0446777V33.6093C2250.38 34.5336 2251.31 35.3424 2252.35 35.3424C2253.45 35.3424 2254.31 34.5336 2254.31 33.6093V0.0446777H2250.38ZM2257.55 0.0446777V35.4002C2257.55 36.3823 2258.41 37.1333 2259.51 37.1333C2260.55 37.1333 2261.47 36.3823 2261.47 35.4002V0.0446777H2257.55ZM2264.65 0.0446777V23.4417C2264.65 24.4238 2265.52 25.1748 2266.62 25.1748C2267.66 25.1748 2268.58 24.4238 2268.58 23.4417V0.0446777H2264.65ZM2271.76 0.0446777V18.8201C2271.76 19.7444 2272.63 20.5532 2273.72 20.5532C2274.82 20.5532 2275.69 19.7444 2275.69 18.8201V0.0446777H2271.76ZM2278.86 0.0446777V44.1235C2278.86 45.1056 2279.73 45.8566 2280.83 45.8566C2281.93 45.8566 2282.79 45.1056 2282.79 44.1235V0.0446777H2278.86ZM2285.97 0.0446777V35.4002C2285.97 36.3823 2286.89 37.1333 2287.93 37.1333C2289.03 37.1333 2289.9 36.3823 2289.9 35.4002V0.0446777H2285.97ZM2293.08 0.0446777V39.0397C2293.08 40.0218 2294 40.7728 2295.04 40.7728C2296.14 40.7728 2297 40.0218 2297 39.0397V0.0446777H2293.08ZM2300.24 0.0446777V43.1414C2300.24 44.0657 2301.11 44.8745 2302.2 44.8745C2303.24 44.8745 2304.17 44.0657 2304.17 43.1414V0.0446777H2300.24ZM2307.34 0.0446777V39.6752C2307.34 40.5995 2308.21 41.4083 2309.31 41.4083C2310.35 41.4083 2311.27 40.5995 2311.27 39.6752V0.0446777H2307.34ZM2314.45 0.0446777V46.9542C2314.45 47.9363 2315.32 48.6874 2316.41 48.6874C2317.51 48.6874 2318.38 47.9363 2318.38 46.9542V0.0446777H2314.45ZM2175.8 0.0446777V23.8461C2175.8 24.8282 2174.88 25.5792 2173.84 25.5792C2172.74 25.5792 2171.87 24.8282 2171.87 23.8461V0.0446777H2175.8ZM2168.64 0.0446777V37.8265C2168.64 38.8086 2167.77 39.5596 2166.67 39.5596C2165.63 39.5596 2164.71 38.8086 2164.71 37.8265V0.0446777H2168.64ZM2161.53 0.0446777V39.4441C2161.53 40.4262 2160.67 41.1772 2159.57 41.1772C2158.53 41.1772 2157.6 40.4262 2157.6 39.4441V0.0446777H2161.53ZM2154.43 0.0446777V46.9542C2154.43 47.9363 2153.56 48.6874 2152.46 48.6874C2151.37 48.6874 2150.5 47.9363 2150.5 46.9542V0.0446777H2154.43ZM2147.32 0.0446777V29.9698C2147.32 30.8941 2146.45 31.7029 2145.36 31.7029C2144.26 31.7029 2143.39 30.8941 2143.39 29.9698V0.0446777H2147.32ZM2140.22 0.0446777V32.9738C2140.22 33.9559 2139.29 34.7069 2138.25 34.7069C2137.15 34.7069 2136.29 33.9559 2136.29 32.9738V0.0446777H2140.22ZM2133.11 0.0446777V23.8461C2133.11 24.8282 2132.19 25.5792 2131.15 25.5792C2130.05 25.5792 2129.18 24.8282 2129.18 23.8461V0.0446777H2133.11ZM2125.95 0.0446777V15.5849C2125.95 16.5092 2125.08 17.318 2123.98 17.318C2122.94 17.318 2122.02 16.5092 2122.02 15.5849V0.0446777H2125.95ZM2118.84 0.0446777V29.3343C2118.84 30.3164 2117.97 31.0674 2116.88 31.0674C2115.84 31.0674 2114.91 30.3164 2114.91 29.3343V0.0446777H2118.84ZM1972.74 0.0446777V23.8461C1972.74 24.8282 1973.61 25.5792 1974.7 25.5792C1975.74 25.5792 1976.67 24.8282 1976.67 23.8461V0.0446777H1972.74ZM1979.84 0.0446777V37.8265C1979.84 38.8086 1980.71 39.5596 1981.81 39.5596C1982.85 39.5596 1983.77 38.8086 1983.77 37.8265V0.0446777H1979.84ZM1986.95 0.0446777V39.4441C1986.95 40.4262 1987.82 41.1772 1988.91 41.1772C1990.01 41.1772 1990.88 40.4262 1990.88 39.4441V0.0446777H1986.95ZM1994.06 0.0446777V46.9542C1994.06 47.9363 1994.92 48.6874 1996.02 48.6874C1997.12 48.6874 1997.98 47.9363 1997.98 46.9542V0.0446777H1994.06ZM2001.16 0.0446777V29.9698C2001.16 30.8941 2002.09 31.7029 2003.13 31.7029C2004.22 31.7029 2005.09 30.8941 2005.09 29.9698V0.0446777H2001.16ZM2008.27 0.0446777V32.9738C2008.27 33.9559 2009.19 34.7069 2010.23 34.7069C2011.33 34.7069 2012.2 33.9559 2012.2 32.9738V0.0446777H2008.27ZM2015.43 0.0446777V23.8461C2015.43 24.8282 2016.3 25.5792 2017.4 25.5792C2018.44 25.5792 2019.36 24.8282 2019.36 23.8461V0.0446777H2015.43ZM2022.54 0.0446777V15.5849C2022.54 16.5092 2023.4 17.318 2024.5 17.318C2025.6 17.318 2026.47 16.5092 2026.47 15.5849V0.0446777H2022.54ZM2029.64 0.0446777V29.3343C2029.64 30.3164 2030.51 31.0674 2031.61 31.0674C2032.7 31.0674 2033.57 30.3164 2033.57 29.3343V0.0446777H2029.64ZM2036.75 0.0446777V31.3562C2036.75 32.3383 2037.62 33.0893 2038.71 33.0893C2039.81 33.0893 2040.68 32.3383 2040.68 31.3562V0.0446777H2036.75ZM2043.85 0.0446777V33.6093C2043.85 34.5336 2044.78 35.3424 2045.82 35.3424C2046.92 35.3424 2047.78 34.5336 2047.78 33.6093V0.0446777H2043.85ZM2051.02 0.0446777V35.4002C2051.02 36.3823 2051.88 37.1333 2052.98 37.1333C2054.02 37.1333 2054.95 36.3823 2054.95 35.4002V0.0446777H2051.02ZM2058.12 0.0446777V23.4417C2058.12 24.4238 2058.99 25.1748 2060.09 25.1748C2061.13 25.1748 2062.05 24.4238 2062.05 23.4417V0.0446777H2058.12ZM2065.23 0.0446777V18.8201C2065.23 19.7444 2066.1 20.5532 2067.19 20.5532C2068.29 20.5532 2069.16 19.7444 2069.16 18.8201V0.0446777H2065.23ZM2072.34 0.0446777V44.1235C2072.34 45.1056 2073.2 45.8566 2074.3 45.8566C2075.4 45.8566 2076.26 45.1056 2076.26 44.1235V0.0446777H2072.34ZM2079.44 0.0446777V35.4002C2079.44 36.3823 2080.31 37.1333 2081.41 37.1333C2082.5 37.1333 2083.37 36.3823 2083.37 35.4002V0.0446777H2079.44ZM2086.55 0.0446777V39.0397C2086.55 40.0218 2087.47 40.7728 2088.51 40.7728C2089.61 40.7728 2090.47 40.0218 2090.47 39.0397V0.0446777H2086.55ZM2093.71 0.0446777V43.1414C2093.71 44.0657 2094.58 44.8745 2095.67 44.8745C2096.71 44.8745 2097.64 44.0657 2097.64 43.1414V0.0446777H2093.71ZM2100.82 0.0446777V39.6752C2100.82 40.5995 2101.68 41.4083 2102.78 41.4083C2103.82 41.4083 2104.74 40.5995 2104.74 39.6752V0.0446777H2100.82ZM2107.92 0.0446777V46.9542C2107.92 47.9363 2108.79 48.6874 2109.89 48.6874C2110.98 48.6874 2111.85 47.9363 2111.85 46.9542V0.0446777H2107.92ZM1969.27 0.0446777V23.8461C1969.27 24.8282 1968.35 25.5792 1967.31 25.5792C1966.21 25.5792 1965.34 24.8282 1965.34 23.8461V0.0446777H1969.27ZM1962.11 0.0446777V37.8265C1962.11 38.8086 1961.24 39.5596 1960.15 39.5596C1959.11 39.5596 1958.18 38.8086 1958.18 37.8265V0.0446777H1962.11ZM1955 0.0446777V39.4441C1955 40.4262 1954.14 41.1772 1953.04 41.1772C1952 41.1772 1951.08 40.4262 1951.08 39.4441V0.0446777H1955ZM1947.9 0.0446777V46.9542C1947.9 47.9363 1947.03 48.6874 1945.93 48.6874C1944.84 48.6874 1943.97 47.9363 1943.97 46.9542V0.0446777H1947.9ZM1940.79 0.0446777V29.9698C1940.79 30.8941 1939.93 31.7029 1938.83 31.7029C1937.73 31.7029 1936.86 30.8941 1936.86 29.9698V0.0446777H1940.79ZM1933.69 0.0446777V32.9738C1933.69 33.9559 1932.76 34.7069 1931.72 34.7069C1930.62 34.7069 1929.76 33.9559 1929.76 32.9738V0.0446777H1933.69ZM1926.58 0.0446777V23.8461C1926.58 24.8282 1925.66 25.5792 1924.62 25.5792C1923.52 25.5792 1922.65 24.8282 1922.65 23.8461V0.0446777H1926.58ZM1919.42 0.0446777V15.5849C1919.42 16.5092 1918.55 17.318 1917.45 17.318C1916.41 17.318 1915.49 16.5092 1915.49 15.5849V0.0446777H1919.42ZM1912.31 0.0446777V29.3343C1912.31 30.3164 1911.44 31.0674 1910.35 31.0674C1909.31 31.0674 1908.38 30.3164 1908.38 29.3343V0.0446777H1912.31ZM1905.21 0.0446777V31.3562C1905.21 32.3383 1904.34 33.0893 1903.24 33.0893C1902.14 33.0893 1901.28 32.3383 1901.28 31.3562V0.0446777H1905.21ZM1898.1 0.0446777V33.6093C1898.1 34.5336 1897.23 35.3424 1896.14 35.3424C1895.04 35.3424 1894.17 34.5336 1894.17 33.6093V0.0446777H1898.1ZM1890.99 0.0446777V35.4002C1890.99 36.3823 1890.07 37.1333 1889.03 37.1333C1887.93 37.1333 1887.07 36.3823 1887.07 35.4002V0.0446777H1890.99ZM1883.89 0.0446777V23.4417C1883.89 24.4238 1882.96 25.1748 1881.92 25.1748C1880.83 25.1748 1879.96 24.4238 1879.96 23.4417V0.0446777H1883.89ZM1876.72 0.0446777V18.8201C1876.72 19.7444 1875.86 20.5532 1874.76 20.5532C1873.72 20.5532 1872.8 19.7444 1872.8 18.8201V0.0446777H1876.72ZM1869.62 0.0446777V44.1235C1869.62 45.1056 1868.75 45.8566 1867.65 45.8566C1866.56 45.8566 1865.69 45.1056 1865.69 44.1235V0.0446777H1869.62ZM1862.51 0.0446777V35.4002C1862.51 36.3823 1861.65 37.1333 1860.55 37.1333C1859.45 37.1333 1858.58 36.3823 1858.58 35.4002V0.0446777H1862.51ZM1855.41 0.0446777V39.0397C1855.41 40.0218 1854.54 40.7728 1853.44 40.7728C1852.34 40.7728 1851.48 40.0218 1851.48 39.0397V0.0446777H1855.41ZM1848.3 0.0446777V43.1414C1848.3 44.0657 1847.38 44.8745 1846.34 44.8745C1845.24 44.8745 1844.37 44.0657 1844.37 43.1414V0.0446777H1848.3ZM1841.2 0.0446777V39.6752C1841.2 40.5995 1840.27 41.4083 1839.17 41.4083C1838.13 41.4083 1837.21 40.5995 1837.21 39.6752V0.0446777H1841.2ZM2684.76 0.0446777V46.9542C2684.76 47.9363 2685.63 48.6874 2686.72 48.6874C2687.82 48.6874 2688.69 47.9363 2688.69 46.9542V0.0446777H2684.76ZM2677.65 0.0446777V39.4441C2677.65 40.4262 2678.52 41.1772 2679.62 41.1772C2680.72 41.1772 2681.58 40.4262 2681.58 39.4441V0.0446777H2677.65ZM2670.55 0.0446777V37.8265C2670.55 38.8086 2671.41 39.5596 2672.51 39.5596C2673.55 39.5596 2674.48 38.8086 2674.48 37.8265V0.0446777H2670.55ZM2663.38 0.0446777V23.8461C2663.38 24.8282 2664.31 25.5792 2665.41 25.5792C2666.45 25.5792 2667.37 24.8282 2667.37 23.8461V0.0446777H2663.38ZM2524.74 0.0446777V46.9542C2524.74 47.9363 2523.87 48.6874 2522.77 48.6874C2521.73 48.6874 2520.81 47.9363 2520.81 46.9542V0.0446777H2524.74ZM2531.84 0.0446777V39.6752C2531.84 40.5995 2530.97 41.4083 2529.88 41.4083C2528.84 41.4083 2527.91 40.5995 2527.91 39.6752V0.0446777H2531.84ZM2539 0.0446777V43.1414C2539 44.0657 2538.08 44.8745 2537.04 44.8745C2535.94 44.8745 2535.08 44.0657 2535.08 43.1414V0.0446777H2539ZM2546.11 0.0446777V39.0397C2546.11 40.0218 2545.19 40.7728 2544.15 40.7728C2543.05 40.7728 2542.18 40.0218 2542.18 39.0397V0.0446777H2546.11ZM2553.22 0.0446777V35.4002C2553.22 36.3823 2552.35 37.1333 2551.25 37.1333C2550.15 37.1333 2549.29 36.3823 2549.29 35.4002V0.0446777H2553.22ZM2560.32 0.0446777V44.1235C2560.32 45.1056 2559.45 45.8566 2558.36 45.8566C2557.26 45.8566 2556.39 45.1056 2556.39 44.1235V0.0446777H2560.32ZM2567.43 0.0446777V18.8201C2567.43 19.7444 2566.56 20.5532 2565.46 20.5532C2564.42 20.5532 2563.5 19.7444 2563.5 18.8201V0.0446777H2567.43ZM2574.53 0.0446777V23.4417C2574.53 24.4238 2573.67 25.1748 2572.57 25.1748C2571.53 25.1748 2570.6 24.4238 2570.6 23.4417V0.0446777H2574.53ZM2581.7 0.0446777V35.4002C2581.7 36.3823 2580.77 37.1333 2579.73 37.1333C2578.63 37.1333 2577.77 36.3823 2577.77 35.4002V0.0446777H2581.7ZM2588.8 0.0446777V33.6093C2588.8 34.5336 2587.88 35.3424 2586.84 35.3424C2585.74 35.3424 2584.87 34.5336 2584.87 33.6093V0.0446777H2588.8ZM2595.91 0.0446777V31.3562C2595.91 32.3383 2595.04 33.0893 2593.94 33.0893C2592.85 33.0893 2591.98 32.3383 2591.98 31.3562V0.0446777H2595.91ZM2603.01 0.0446777V29.3343C2603.01 30.3164 2602.15 31.0674 2601.05 31.0674C2599.95 31.0674 2599.09 30.3164 2599.09 29.3343V0.0446777H2603.01ZM2610.12 0.0446777V15.5849C2610.12 16.5092 2609.25 17.318 2608.16 17.318C2607.12 17.318 2606.19 16.5092 2606.19 15.5849V0.0446777H2610.12ZM2617.23 0.0446777V23.8461C2617.23 24.8282 2616.36 25.5792 2615.26 25.5792C2614.22 25.5792 2613.3 24.8282 2613.3 23.8461V0.0446777H2617.23ZM2624.39 0.0446777V32.9738C2624.39 33.9559 2623.46 34.7069 2622.42 34.7069C2621.33 34.7069 2620.46 33.9559 2620.46 32.9738V0.0446777H2624.39ZM2631.49 0.0446777V29.9698C2631.49 30.8941 2630.63 31.7029 2629.53 31.7029C2628.43 31.7029 2627.57 30.8941 2627.57 29.9698V0.0446777H2631.49ZM2638.6 0.0446777V46.9542C2638.6 47.9363 2637.73 48.6874 2636.64 48.6874C2635.54 48.6874 2634.67 47.9363 2634.67 46.9542V0.0446777H2638.6ZM2645.71 0.0446777V39.4441C2645.71 40.4262 2644.84 41.1772 2643.74 41.1772C2642.64 41.1772 2641.78 40.4262 2641.78 39.4441V0.0446777H2645.71ZM2652.81 0.0446777V37.8265C2652.81 38.8086 2651.95 39.5596 2650.85 39.5596C2649.81 39.5596 2648.88 38.8086 2648.88 37.8265V0.0446777H2652.81ZM2659.98 0.0446777V23.8461C2659.98 24.8282 2659.05 25.5792 2658.01 25.5792C2656.91 25.5792 2656.05 24.8282 2656.05 23.8461V0.0446777H2659.98ZM2513.82 0.0446777V29.3343C2513.82 30.3164 2514.68 31.0674 2515.78 31.0674C2516.88 31.0674 2517.74 30.3164 2517.74 29.3343V0.0446777H2513.82ZM2506.71 0.0446777V15.5849C2506.71 16.5092 2507.58 17.318 2508.67 17.318C2509.71 17.318 2510.64 16.5092 2510.64 15.5849V0.0446777H2506.71ZM2499.6 0.0446777V23.8461C2499.6 24.8282 2500.47 25.5792 2501.57 25.5792C2502.61 25.5792 2503.53 24.8282 2503.53 23.8461V0.0446777H2499.6ZM2492.44 0.0446777V32.9738C2492.44 33.9559 2493.37 34.7069 2494.41 34.7069C2495.5 34.7069 2496.37 33.9559 2496.37 32.9738V0.0446777H2492.44ZM2485.34 0.0446777V29.9698C2485.34 30.8941 2486.2 31.7029 2487.3 31.7029C2488.4 31.7029 2489.26 30.8941 2489.26 29.9698V0.0446777H2485.34ZM2478.23 0.0446777V46.9542C2478.23 47.9363 2479.1 48.6874 2480.19 48.6874C2481.29 48.6874 2482.16 47.9363 2482.16 46.9542V0.0446777H2478.23ZM2471.12 0.0446777V39.4441C2471.12 40.4262 2471.99 41.1772 2473.09 41.1772C2474.19 41.1772 2475.05 40.4262 2475.05 39.4441V0.0446777H2471.12ZM2464.02 0.0446777V37.8265C2464.02 38.8086 2464.88 39.5596 2465.98 39.5596C2467.02 39.5596 2467.95 38.8086 2467.95 37.8265V0.0446777H2464.02ZM2456.85 0.0446777V23.8461C2456.85 24.8282 2457.78 25.5792 2458.82 25.5792C2459.92 25.5792 2460.78 24.8282 2460.78 23.8461V0.0446777H2456.85ZM2325.31 0.0446777V39.6752C2325.31 40.5995 2324.44 41.4083 2323.35 41.4083C2322.31 41.4083 2321.38 40.5995 2321.38 39.6752V0.0446777H2325.31ZM2332.47 0.0446777V43.1414C2332.47 44.0657 2331.55 44.8745 2330.51 44.8745C2329.41 44.8745 2328.55 44.0657 2328.55 43.1414V0.0446777H2332.47ZM2339.58 0.0446777V39.0397C2339.58 40.0218 2338.66 40.7728 2337.62 40.7728C2336.52 40.7728 2335.65 40.0218 2335.65 39.0397V0.0446777H2339.58ZM2346.69 0.0446777V35.4002C2346.69 36.3823 2345.82 37.1333 2344.72 37.1333C2343.62 37.1333 2342.76 36.3823 2342.76 35.4002V0.0446777H2346.69ZM2353.79 0.0446777V44.1235C2353.79 45.1056 2352.93 45.8566 2351.83 45.8566C2350.73 45.8566 2349.86 45.1056 2349.86 44.1235V0.0446777H2353.79ZM2360.9 0.0446777V18.8201C2360.9 19.7444 2360.03 20.5532 2358.93 20.5532C2357.89 20.5532 2356.97 19.7444 2356.97 18.8201V0.0446777H2360.9ZM2368 0.0446777V23.4417C2368 24.4238 2367.14 25.1748 2366.04 25.1748C2365 25.1748 2364.08 24.4238 2364.08 23.4417V0.0446777H2368ZM2375.17 0.0446777V35.4002C2375.17 36.3823 2374.24 37.1333 2373.2 37.1333C2372.11 37.1333 2371.24 36.3823 2371.24 35.4002V0.0446777H2375.17ZM2382.27 0.0446777V33.6093C2382.27 34.5336 2381.35 35.3424 2380.31 35.3424C2379.21 35.3424 2378.34 34.5336 2378.34 33.6093V0.0446777H2382.27ZM2389.38 0.0446777V31.3562C2389.38 32.3383 2388.51 33.0893 2387.41 33.0893C2386.32 33.0893 2385.45 32.3383 2385.45 31.3562V0.0446777H2389.38ZM2396.48 0.0446777V29.3343C2396.48 30.3164 2395.62 31.0674 2394.52 31.0674C2393.42 31.0674 2392.56 30.3164 2392.56 29.3343V0.0446777H2396.48ZM2403.59 0.0446777V15.5849C2403.59 16.5092 2402.72 17.318 2401.63 17.318C2400.59 17.318 2399.66 16.5092 2399.66 15.5849V0.0446777H2403.59ZM2410.7 0.0446777V23.8461C2410.7 24.8282 2409.83 25.5792 2408.73 25.5792C2407.69 25.5792 2406.77 24.8282 2406.77 23.8461V0.0446777H2410.7ZM2417.86 0.0446777V32.9738C2417.86 33.9559 2416.94 34.7069 2415.9 34.7069C2414.8 34.7069 2413.93 33.9559 2413.93 32.9738V0.0446777H2417.86ZM2424.97 0.0446777V29.9698C2424.97 30.8941 2424.04 31.7029 2423 31.7029C2421.9 31.7029 2421.04 30.8941 2421.04 29.9698V0.0446777H2424.97ZM2432.07 0.0446777V46.9542C2432.07 47.9363 2431.2 48.6874 2430.11 48.6874C2429.01 48.6874 2428.14 47.9363 2428.14 46.9542V0.0446777H2432.07ZM2439.18 0.0446777V39.4441C2439.18 40.4262 2438.31 41.1772 2437.21 41.1772C2436.12 41.1772 2435.25 40.4262 2435.25 39.4441V0.0446777H2439.18ZM2446.28 0.0446777V37.8265C2446.28 38.8086 2445.42 39.5596 2444.32 39.5596C2443.28 39.5596 2442.35 38.8086 2442.35 37.8265V0.0446777H2446.28ZM2453.45 0.0446777V23.8461C2453.45 24.8282 2452.52 25.5792 2451.48 25.5792C2450.38 25.5792 2449.46 24.8282 2449.46 23.8461V0.0446777H2453.45Z" fill="#6E6E6E"/>
<path fill-rule="evenodd" clip-rule="evenodd" d="M488.275 0V46.9095C488.275 47.8916 487.408 48.6427 486.311 48.6427C485.271 48.6427 484.347 47.8916 484.347 46.9095V0H488.275ZM139.111 0V23.8014C139.111 24.7835 138.244 25.5345 137.147 25.5345C136.049 25.5345 135.182 24.7835 135.182 23.8014V0H139.111ZM132.005 0V37.7818C132.005 38.7639 131.081 39.5149 130.041 39.5149C128.943 39.5149 128.077 38.7639 128.077 37.7818V0H132.005ZM124.841 0V39.3994C124.841 40.3815 123.975 41.1325 122.877 41.1325C121.837 41.1325 120.913 40.3815 120.913 39.3994V0H124.841ZM117.736 0V46.9095C117.736 47.8916 116.869 48.6427 115.771 48.6427C114.732 48.6427 113.807 47.8916 113.807 46.9095V0H117.736ZM110.63 0V29.9251C110.63 30.8494 109.763 31.6582 108.666 31.6582C107.568 31.6582 106.702 30.8494 106.702 29.9251V0H110.63ZM103.524 0V32.9291C103.524 33.9112 102.658 34.6622 101.56 34.6622C100.462 34.6622 99.5964 33.9112 99.5964 32.9291V0H103.524ZM96.4188 0V23.8014C96.4188 24.7835 95.5522 25.5345 94.4546 25.5345C93.357 25.5345 92.4904 24.7835 92.4904 23.8014V0H96.4188ZM89.313 0V15.5402C89.313 16.4645 88.3887 17.2733 87.3488 17.2733C86.2512 17.2733 85.3847 16.4645 85.3847 15.5402V0H89.313ZM82.1495 0V29.2896C82.1495 30.2717 81.283 31.0227 80.1853 31.0227C79.1454 31.0227 78.2211 30.2717 78.2211 29.2896V0H82.1495ZM75.0438 0V31.3115C75.0438 32.2936 74.1772 33.0446 73.0796 33.0446C72.0397 33.0446 71.1154 32.2936 71.1154 31.3115V0H75.0438ZM67.938 0V33.5646C67.938 34.4889 67.0714 35.2977 65.9738 35.2977C64.8762 35.2977 64.0096 34.4889 64.0096 33.5646V0H67.938ZM60.8322 0V35.3555C60.8322 36.3376 59.9657 37.0886 58.868 37.0886C57.7704 37.0886 56.9038 36.3376 56.9038 35.3555V0H60.8322ZM53.7265 0V23.397C53.7265 24.3791 52.8021 25.1301 51.7623 25.1301C50.6646 25.1301 49.7981 24.3791 49.7981 23.397V0H53.7265ZM46.6207 0V18.7754C46.6207 19.6997 45.6964 20.5085 44.6565 20.5085C43.5589 20.5085 42.6923 19.6997 42.6923 18.7754V0H46.6207ZM39.4572 0V44.0788C39.4572 45.0609 38.5906 45.8119 37.493 45.8119C36.4531 45.8119 35.5288 45.0609 35.5288 44.0788V0H39.4572ZM32.3514 0V35.3555C32.3514 36.3376 31.4849 37.0886 30.3872 37.0886C29.3474 37.0886 28.423 36.3376 28.423 35.3555V0H32.3514ZM25.2457 0V38.995C25.2457 39.9771 24.3791 40.7281 23.2815 40.7281C22.1838 40.7281 21.3173 39.9771 21.3173 38.995V0H25.2457ZM18.1399 0V43.0967C18.1399 44.021 17.2733 44.8298 16.1757 44.8298C15.0781 44.8298 14.2115 44.021 14.2115 43.0967V0H18.1399ZM11.0341 0V39.6305C11.0341 40.5548 10.1098 41.3636 9.06995 41.3636C7.97232 41.3636 7.10576 40.5548 7.10576 39.6305V0H11.0341ZM3.92839 0V46.9095C3.92839 47.8916 3.00406 48.6427 1.9642 48.6427C0.866558 48.6427 0 47.8916 0 46.9095V0H3.92839ZM142.577 0V23.8014C142.577 24.7835 143.443 25.5345 144.541 25.5345C145.639 25.5345 146.505 24.7835 146.505 23.8014V0H142.577ZM149.683 0V37.7818C149.683 38.7639 150.549 39.5149 151.647 39.5149C152.745 39.5149 153.611 38.7639 153.611 37.7818V0H149.683ZM156.788 0V39.3994C156.788 40.3815 157.655 41.1325 158.753 41.1325C159.85 41.1325 160.717 40.3815 160.717 39.3994V0H156.788ZM163.894 0V46.9095C163.894 47.8916 164.819 48.6427 165.858 48.6427C166.956 48.6427 167.823 47.8916 167.823 46.9095V0H163.894ZM171.058 0V29.9251C171.058 30.8494 171.924 31.6582 173.022 31.6582C174.062 31.6582 174.986 30.8494 174.986 29.9251V0H171.058ZM178.164 0V32.9291C178.164 33.9112 179.03 34.6622 180.128 34.6622C181.168 34.6622 182.092 33.9112 182.092 32.9291V0H178.164ZM185.269 0V23.8014C185.269 24.7835 186.136 25.5345 187.233 25.5345C188.331 25.5345 189.198 24.7835 189.198 23.8014V0H185.269ZM192.375 0V15.5402C192.375 16.4645 193.242 17.2733 194.339 17.2733C195.437 17.2733 196.303 16.4645 196.303 15.5402V0H192.375ZM199.481 0V29.2896C199.481 30.2717 200.405 31.0227 201.445 31.0227C202.543 31.0227 203.409 30.2717 203.409 29.2896V0H199.481ZM345.64 0V23.8014C345.64 24.7835 344.773 25.5345 343.676 25.5345C342.578 25.5345 341.712 24.7835 341.712 23.8014V0H345.64ZM338.534 0V37.7818C338.534 38.7639 337.61 39.5149 336.57 39.5149C335.472 39.5149 334.606 38.7639 334.606 37.7818V0H338.534ZM331.428 0V39.3994C331.428 40.3815 330.504 41.1325 329.464 41.1325C328.367 41.1325 327.442 40.3815 327.442 39.3994V0H331.428ZM324.265 0V46.9095C324.265 47.8916 323.398 48.6427 322.301 48.6427C321.261 48.6427 320.336 47.8916 320.336 46.9095V0H324.265ZM317.159 0V29.9251C317.159 30.8494 316.293 31.6582 315.195 31.6582C314.097 31.6582 313.231 30.8494 313.231 29.9251V0H317.159ZM310.053 0V32.9291C310.053 33.9112 309.187 34.6622 308.089 34.6622C306.992 34.6622 306.125 33.9112 306.125 32.9291V0H310.053ZM302.948 0V23.8014C302.948 24.7835 302.081 25.5345 300.983 25.5345C299.886 25.5345 299.019 24.7835 299.019 23.8014V0H302.948ZM295.842 0V15.5402C295.842 16.4645 294.918 17.2733 293.878 17.2733C292.78 17.2733 291.913 16.4645 291.913 15.5402V0H295.842ZM288.678 0V29.2896C288.678 30.2717 287.812 31.0227 286.714 31.0227C285.674 31.0227 284.75 30.2717 284.75 29.2896V0H288.678ZM281.573 0V31.3115C281.573 32.2936 280.706 33.0446 279.608 33.0446C278.568 33.0446 277.644 32.2936 277.644 31.3115V0H281.573ZM274.467 0V33.5646C274.467 34.4889 273.6 35.2977 272.503 35.2977C271.405 35.2977 270.538 34.4889 270.538 33.5646V0H274.467ZM267.361 0V35.3555C267.361 36.3376 266.494 37.0886 265.397 37.0886C264.299 37.0886 263.433 36.3376 263.433 35.3555V0H267.361ZM260.255 0V23.397C260.255 24.3791 259.331 25.1301 258.291 25.1301C257.193 25.1301 256.327 24.3791 256.327 23.397V0H260.255ZM253.15 0V18.7754C253.15 19.6997 252.225 20.5085 251.185 20.5085C250.088 20.5085 249.221 19.6997 249.221 18.7754V0H253.15ZM245.986 0V44.0788C245.986 45.0609 245.119 45.8119 244.022 45.8119C242.982 45.8119 242.058 45.0609 242.058 44.0788V0H245.986ZM238.88 0V35.3555C238.88 36.3376 238.014 37.0886 236.916 37.0886C235.876 37.0886 234.952 36.3376 234.952 35.3555V0H238.88ZM231.774 0V38.995C231.774 39.9771 230.908 40.7281 229.81 40.7281C228.713 40.7281 227.846 39.9771 227.846 38.995V0H231.774ZM224.669 0V43.0967C224.669 44.021 223.802 44.8298 222.705 44.8298C221.607 44.8298 220.74 44.021 220.74 43.0967V0H224.669ZM217.563 0V39.6305C217.563 40.5548 216.639 41.3636 215.599 41.3636C214.501 41.3636 213.635 40.5548 213.635 39.6305V0H217.563ZM210.457 0V46.9095C210.457 47.8916 209.533 48.6427 208.493 48.6427C207.395 48.6427 206.529 47.8916 206.529 46.9095V0H210.457ZM349.106 0V23.8014C349.106 24.7835 349.973 25.5345 351.07 25.5345C352.168 25.5345 353.035 24.7835 353.035 23.8014V0H349.106ZM356.212 0V37.7818C356.212 38.7639 357.078 39.5149 358.176 39.5149C359.274 39.5149 360.14 38.7639 360.14 37.7818V0H356.212ZM363.318 0V39.3994C363.318 40.3815 364.184 41.1325 365.282 41.1325C366.379 41.1325 367.246 40.3815 367.246 39.3994V0H363.318ZM370.423 0V46.9095C370.423 47.8916 371.348 48.6427 372.388 48.6427C373.485 48.6427 374.352 47.8916 374.352 46.9095V0H370.423ZM377.587 0V29.9251C377.587 30.8494 378.453 31.6582 379.551 31.6582C380.591 31.6582 381.515 30.8494 381.515 29.9251V0H377.587ZM384.693 0V32.9291C384.693 33.9112 385.559 34.6622 386.657 34.6622C387.697 34.6622 388.621 33.9112 388.621 32.9291V0H384.693ZM391.798 0V23.8014C391.798 24.7835 392.665 25.5345 393.763 25.5345C394.86 25.5345 395.727 24.7835 395.727 23.8014V0H391.798ZM398.904 0V15.5402C398.904 16.4645 399.771 17.2733 400.868 17.2733C401.966 17.2733 402.833 16.4645 402.833 15.5402V0H398.904ZM406.01 0V29.2896C406.01 30.2717 406.934 31.0227 407.974 31.0227C409.072 31.0227 409.938 30.2717 409.938 29.2896V0H406.01ZM413.116 0V31.3115C413.116 32.2936 414.04 33.0446 415.08 33.0446C416.178 33.0446 417.044 32.2936 417.044 31.3115V0H413.116ZM420.279 0V33.5646C420.279 34.4889 421.146 35.2977 422.243 35.2977C423.283 35.2977 424.208 34.4889 424.208 33.5646V0H420.279ZM427.385 0V35.3555C427.385 36.3376 428.252 37.0886 429.349 37.0886C430.389 37.0886 431.313 36.3376 431.313 35.3555V0H427.385ZM434.491 0V23.397C434.491 24.3791 435.357 25.1301 436.455 25.1301C437.553 25.1301 438.419 24.3791 438.419 23.397V0H434.491ZM441.597 0V18.7754C441.597 19.6997 442.463 20.5085 443.561 20.5085C444.658 20.5085 445.525 19.6997 445.525 18.7754V0H441.597ZM448.702 0V44.0788C448.702 45.0609 449.627 45.8119 450.666 45.8119C451.764 45.8119 452.631 45.0609 452.631 44.0788V0H448.702ZM455.808 0V35.3555C455.808 36.3376 456.732 37.0886 457.772 37.0886C458.87 37.0886 459.736 36.3376 459.736 35.3555V0H455.808ZM462.972 0V38.995C462.972 39.9771 463.838 40.7281 464.936 40.7281C465.976 40.7281 466.9 39.9771 466.9 38.995V0H462.972ZM470.077 0V43.0967C470.077 44.021 470.944 44.8298 472.042 44.8298C473.081 44.8298 474.006 44.021 474.006 43.0967V0H470.077ZM477.183 0V39.6305C477.183 40.5548 478.05 41.3636 479.147 41.3636C480.245 41.3636 481.112 40.5548 481.112 39.6305V0H477.183ZM833.511 0V23.8014C833.511 24.7835 834.378 25.5345 835.475 25.5345C836.515 25.5345 837.439 24.7835 837.439 23.8014V0H833.511ZM840.617 0V37.7818C840.617 38.7639 841.483 39.5149 842.581 39.5149C843.621 39.5149 844.545 38.7639 844.545 37.7818V0H840.617ZM847.722 0V39.3994C847.722 40.3815 848.589 41.1325 849.687 41.1325C850.784 41.1325 851.651 40.3815 851.651 39.3994V0H847.722ZM854.828 0V46.9095C854.828 47.8916 855.695 48.6427 856.792 48.6427C857.89 48.6427 858.757 47.8916 858.757 46.9095V0H854.828ZM861.934 0V29.9251C861.934 30.8494 862.858 31.6582 863.898 31.6582C864.996 31.6582 865.862 30.8494 865.862 29.9251V0H861.934ZM869.04 0V32.9291C869.04 33.9112 869.964 34.6622 871.004 34.6622C872.102 34.6622 872.968 33.9112 872.968 32.9291V0H869.04ZM876.203 0V23.8014C876.203 24.7835 877.07 25.5345 878.167 25.5345C879.207 25.5345 880.132 24.7835 880.132 23.8014V0H876.203ZM883.309 0V15.5402C883.309 16.4645 884.176 17.2733 885.273 17.2733C886.371 17.2733 887.237 16.4645 887.237 15.5402V0H883.309ZM890.415 0V29.2896C890.415 30.2717 891.281 31.0227 892.379 31.0227C893.477 31.0227 894.343 30.2717 894.343 29.2896V0H890.415ZM897.521 0V31.3115C897.521 32.2936 898.387 33.0446 899.485 33.0446C900.582 33.0446 901.449 32.2936 901.449 31.3115V0H897.521ZM904.626 0V33.5646C904.626 34.4889 905.551 35.2977 906.591 35.2977C907.688 35.2977 908.555 34.4889 908.555 33.5646V0H904.626ZM911.79 0V35.3555C911.79 36.3376 912.656 37.0886 913.754 37.0886C914.794 37.0886 915.718 36.3376 915.718 35.3555V0H911.79ZM918.896 0V23.397C918.896 24.3791 919.762 25.1301 920.86 25.1301C921.9 25.1301 922.824 24.3791 922.824 23.397V0H918.896ZM926.001 0V18.7754C926.001 19.6997 926.868 20.5085 927.966 20.5085C929.063 20.5085 929.93 19.6997 929.93 18.7754V0H926.001ZM933.107 0V44.0788C933.107 45.0609 933.974 45.8119 935.071 45.8119C936.169 45.8119 937.036 45.0609 937.036 44.0788V0H933.107ZM940.213 0V35.3555C940.213 36.3376 941.137 37.0886 942.177 37.0886C943.275 37.0886 944.141 36.3376 944.141 35.3555V0H940.213ZM947.319 0V38.995C947.319 39.9771 948.243 40.7281 949.283 40.7281C950.38 40.7281 951.247 39.9771 951.247 38.995V0H947.319ZM954.482 0V43.0967C954.482 44.021 955.349 44.8298 956.446 44.8298C957.486 44.8298 958.411 44.021 958.411 43.0967V0H954.482ZM961.588 0V39.6305C961.588 40.5548 962.454 41.3636 963.552 41.3636C964.592 41.3636 965.516 40.5548 965.516 39.6305V0H961.588ZM968.694 0V46.9095C968.694 47.8916 969.56 48.6427 970.658 48.6427C971.756 48.6427 972.622 47.8916 972.622 46.9095V0H968.694ZM830.045 0V23.8014C830.045 24.7835 829.12 25.5345 828.081 25.5345C826.983 25.5345 826.116 24.7835 826.116 23.8014V0H830.045ZM822.881 0V37.7818C822.881 38.7639 822.015 39.5149 820.917 39.5149C819.877 39.5149 818.953 38.7639 818.953 37.7818V0H822.881ZM815.775 0V39.3994C815.775 40.3815 814.909 41.1325 813.811 41.1325C812.771 41.1325 811.847 40.3815 811.847 39.3994V0H815.775ZM808.67 0V46.9095C808.67 47.8916 807.803 48.6427 806.706 48.6427C805.608 48.6427 804.741 47.8916 804.741 46.9095V0H808.67ZM801.564 0V29.9251C801.564 30.8494 800.697 31.6582 799.6 31.6582C798.502 31.6582 797.636 30.8494 797.636 29.9251V0H801.564ZM794.458 0V32.9291C794.458 33.9112 793.534 34.6622 792.494 34.6622C791.396 34.6622 790.53 33.9112 790.53 32.9291V0H794.458ZM787.352 0V23.8014C787.352 24.7835 786.428 25.5345 785.388 25.5345C784.291 25.5345 783.424 24.7835 783.424 23.8014V0H787.352ZM780.189 0V15.5402C780.189 16.4645 779.322 17.2733 778.225 17.2733C777.185 17.2733 776.26 16.4645 776.26 15.5402V0H780.189ZM773.083 0V29.2896C773.083 30.2717 772.217 31.0227 771.119 31.0227C770.079 31.0227 769.155 30.2717 769.155 29.2896V0H773.083ZM626.982 0V23.8014C626.982 24.7835 627.848 25.5345 628.946 25.5345C629.986 25.5345 630.91 24.7835 630.91 23.8014V0H626.982ZM634.088 0V37.7818C634.088 38.7639 634.954 39.5149 636.052 39.5149C637.092 39.5149 638.016 38.7639 638.016 37.7818V0H634.088ZM641.193 0V39.3994C641.193 40.3815 642.06 41.1325 643.157 41.1325C644.255 41.1325 645.122 40.3815 645.122 39.3994V0H641.193ZM648.299 0V46.9095C648.299 47.8916 649.166 48.6427 650.263 48.6427C651.361 48.6427 652.227 47.8916 652.227 46.9095V0H648.299ZM655.405 0V29.9251C655.405 30.8494 656.329 31.6582 657.369 31.6582C658.467 31.6582 659.333 30.8494 659.333 29.9251V0H655.405ZM662.511 0V32.9291C662.511 33.9112 663.435 34.6622 664.475 34.6622C665.572 34.6622 666.439 33.9112 666.439 32.9291V0H662.511ZM669.674 0V23.8014C669.674 24.7835 670.541 25.5345 671.638 25.5345C672.678 25.5345 673.603 24.7835 673.603 23.8014V0H669.674ZM676.78 0V15.5402C676.78 16.4645 677.646 17.2733 678.744 17.2733C679.842 17.2733 680.708 16.4645 680.708 15.5402V0H676.78ZM683.886 0V29.2896C683.886 30.2717 684.752 31.0227 685.85 31.0227C686.947 31.0227 687.814 30.2717 687.814 29.2896V0H683.886ZM690.991 0V31.3115C690.991 32.2936 691.858 33.0446 692.956 33.0446C694.053 33.0446 694.92 32.2936 694.92 31.3115V0H690.991ZM698.097 0V33.5646C698.097 34.4889 699.021 35.2977 700.061 35.2977C701.159 35.2977 702.026 34.4889 702.026 33.5646V0H698.097ZM705.261 0V35.3555C705.261 36.3376 706.127 37.0886 707.225 37.0886C708.265 37.0886 709.189 36.3376 709.189 35.3555V0H705.261ZM712.366 0V23.397C712.366 24.3791 713.233 25.1301 714.331 25.1301C715.37 25.1301 716.295 24.3791 716.295 23.397V0H712.366ZM719.472 0V18.7754C719.472 19.6997 720.339 20.5085 721.436 20.5085C722.534 20.5085 723.401 19.6997 723.401 18.7754V0H719.472ZM726.578 0V44.0788C726.578 45.0609 727.445 45.8119 728.542 45.8119C729.64 45.8119 730.506 45.0609 730.506 44.0788V0H726.578ZM733.684 0V35.3555C733.684 36.3376 734.55 37.0886 735.648 37.0886C736.746 37.0886 737.612 36.3376 737.612 35.3555V0H733.684ZM740.789 0V38.995C740.789 39.9771 741.714 40.7281 742.754 40.7281C743.851 40.7281 744.718 39.9771 744.718 38.995V0H740.789ZM747.953 0V43.0967C747.953 44.021 748.82 44.8298 749.917 44.8298C750.957 44.8298 751.881 44.021 751.881 43.0967V0H747.953ZM755.059 0V39.6305C755.059 40.5548 755.925 41.3636 757.023 41.3636C758.063 41.3636 758.987 40.5548 758.987 39.6305V0H755.059ZM762.165 0V46.9095C762.165 47.8916 763.031 48.6427 764.129 48.6427C765.226 48.6427 766.093 47.8916 766.093 46.9095V0H762.165ZM623.516 0V23.8014C623.516 24.7835 622.591 25.5345 621.551 25.5345C620.454 25.5345 619.587 24.7835 619.587 23.8014V0H623.516ZM616.352 0V37.7818C616.352 38.7639 615.485 39.5149 614.388 39.5149C613.348 39.5149 612.424 38.7639 612.424 37.7818V0H616.352ZM609.246 0V39.3994C609.246 40.3815 608.38 41.1325 607.282 41.1325C606.242 41.1325 605.318 40.3815 605.318 39.3994V0H609.246ZM602.14 0V46.9095C602.14 47.8916 601.274 48.6427 600.176 48.6427C599.079 48.6427 598.212 47.8916 598.212 46.9095V0H602.14ZM595.035 0V29.9251C595.035 30.8494 594.168 31.6582 593.071 31.6582C591.973 31.6582 591.106 30.8494 591.106 29.9251V0H595.035ZM587.929 0V32.9291C587.929 33.9112 587.005 34.6622 585.965 34.6622C584.867 34.6622 584.001 33.9112 584.001 32.9291V0H587.929ZM580.823 0V23.8014C580.823 24.7835 579.899 25.5345 578.859 25.5345C577.761 25.5345 576.895 24.7835 576.895 23.8014V0H580.823ZM573.66 0V15.5402C573.66 16.4645 572.793 17.2733 571.696 17.2733C570.656 17.2733 569.731 16.4645 569.731 15.5402V0H573.66ZM566.554 0V29.2896C566.554 30.2717 565.687 31.0227 564.59 31.0227C563.55 31.0227 562.626 30.2717 562.626 29.2896V0H566.554ZM559.448 0V31.3115C559.448 32.2936 558.582 33.0446 557.484 33.0446C556.386 33.0446 555.52 32.2936 555.52 31.3115V0H559.448ZM552.342 0V33.5646C552.342 34.4889 551.476 35.2977 550.378 35.2977C549.281 35.2977 548.414 34.4889 548.414 33.5646V0H552.342ZM545.237 0V35.3555C545.237 36.3376 544.312 37.0886 543.272 37.0886C542.175 37.0886 541.308 36.3376 541.308 35.3555V0H545.237ZM538.131 0V23.397C538.131 24.3791 537.207 25.1301 536.167 25.1301C535.069 25.1301 534.203 24.3791 534.203 23.397V0H538.131ZM530.967 0V18.7754C530.967 19.6997 530.101 20.5085 529.003 20.5085C527.963 20.5085 527.039 19.6997 527.039 18.7754V0H530.967ZM523.862 0V44.0788C523.862 45.0609 522.995 45.8119 521.897 45.8119C520.8 45.8119 519.933 45.0609 519.933 44.0788V0H523.862ZM516.756 0V35.3555C516.756 36.3376 515.889 37.0886 514.792 37.0886C513.694 37.0886 512.827 36.3376 512.827 35.3555V0H516.756ZM509.65 0V38.995C509.65 39.9771 508.784 40.7281 507.686 40.7281C506.588 40.7281 505.722 39.9771 505.722 38.995V0H509.65ZM502.544 0V43.0967C502.544 44.021 501.62 44.8298 500.58 44.8298C499.482 44.8298 498.616 44.021 498.616 43.0967V0H502.544ZM495.439 0V39.6305C495.439 40.5548 494.514 41.3636 493.417 41.3636C492.377 41.3636 491.452 40.5548 491.452 39.6305V0H495.439ZM1339 0V46.9095C1339 47.8916 1339.87 48.6427 1340.96 48.6427C1342.06 48.6427 1342.93 47.8916 1342.93 46.9095V0H1339ZM1331.89 0V39.3994C1331.89 40.3815 1332.76 41.1325 1333.86 41.1325C1334.96 41.1325 1335.82 40.3815 1335.82 39.3994V0H1331.89ZM1324.79 0V37.7818C1324.79 38.7639 1325.65 39.5149 1326.75 39.5149C1327.79 39.5149 1328.72 38.7639 1328.72 37.7818V0H1324.79ZM1317.62 0V23.8014C1317.62 24.7835 1318.55 25.5345 1319.65 25.5345C1320.69 25.5345 1321.61 24.7835 1321.61 23.8014V0H1317.62ZM1178.98 0V46.9095C1178.98 47.8916 1178.11 48.6427 1177.01 48.6427C1175.97 48.6427 1175.05 47.8916 1175.05 46.9095V0H1178.98ZM1186.08 0V39.6305C1186.08 40.5548 1185.21 41.3636 1184.12 41.3636C1183.08 41.3636 1182.15 40.5548 1182.15 39.6305V0H1186.08ZM1193.24 0V43.0967C1193.24 44.021 1192.32 44.8298 1191.28 44.8298C1190.18 44.8298 1189.32 44.021 1189.32 43.0967V0H1193.24ZM1200.35 0V38.995C1200.35 39.9771 1199.43 40.7281 1198.39 40.7281C1197.29 40.7281 1196.42 39.9771 1196.42 38.995V0H1200.35ZM1207.46 0V35.3555C1207.46 36.3376 1206.59 37.0886 1205.49 37.0886C1204.39 37.0886 1203.53 36.3376 1203.53 35.3555V0H1207.46ZM1214.56 0V44.0788C1214.56 45.0609 1213.69 45.8119 1212.6 45.8119C1211.5 45.8119 1210.63 45.0609 1210.63 44.0788V0H1214.56ZM1221.67 0V18.7754C1221.67 19.6997 1220.8 20.5085 1219.7 20.5085C1218.66 20.5085 1217.74 19.6997 1217.74 18.7754V0H1221.67ZM1228.77 0V23.397C1228.77 24.3791 1227.91 25.1301 1226.81 25.1301C1225.77 25.1301 1224.84 24.3791 1224.84 23.397V0H1228.77ZM1235.94 0V35.3555C1235.94 36.3376 1235.01 37.0886 1233.97 37.0886C1232.87 37.0886 1232.01 36.3376 1232.01 35.3555V0H1235.94ZM1243.04 0V33.5646C1243.04 34.4889 1242.12 35.2977 1241.08 35.2977C1239.98 35.2977 1239.11 34.4889 1239.11 33.5646V0H1243.04ZM1250.15 0V31.3115C1250.15 32.2936 1249.28 33.0446 1248.18 33.0446C1247.09 33.0446 1246.22 32.2936 1246.22 31.3115V0H1250.15ZM1257.25 0V29.2896C1257.25 30.2717 1256.39 31.0227 1255.29 31.0227C1254.19 31.0227 1253.33 30.2717 1253.33 29.2896V0H1257.25ZM1264.36 0V15.5402C1264.36 16.4645 1263.49 17.2733 1262.4 17.2733C1261.36 17.2733 1260.43 16.4645 1260.43 15.5402V0H1264.36ZM1271.47 0V23.8014C1271.47 24.7835 1270.6 25.5345 1269.5 25.5345C1268.46 25.5345 1267.54 24.7835 1267.54 23.8014V0H1271.47ZM1278.63 0V32.9291C1278.63 33.9112 1277.7 34.6622 1276.66 34.6622C1275.57 34.6622 1274.7 33.9112 1274.7 32.9291V0H1278.63ZM1285.73 0V29.9251C1285.73 30.8494 1284.87 31.6582 1283.77 31.6582C1282.67 31.6582 1281.81 30.8494 1281.81 29.9251V0H1285.73ZM1292.84 0V46.9095C1292.84 47.8916 1291.97 48.6427 1290.88 48.6427C1289.78 48.6427 1288.91 47.8916 1288.91 46.9095V0H1292.84ZM1299.95 0V39.3994C1299.95 40.3815 1299.08 41.1325 1297.98 41.1325C1296.88 41.1325 1296.02 40.3815 1296.02 39.3994V0H1299.95ZM1307.05 0V37.7818C1307.05 38.7639 1306.19 39.5149 1305.09 39.5149C1304.05 39.5149 1303.12 38.7639 1303.12 37.7818V0H1307.05ZM1314.22 0V23.8014C1314.22 24.7835 1313.29 25.5345 1312.25 25.5345C1311.15 25.5345 1310.29 24.7835 1310.29 23.8014V0H1314.22ZM1168.06 0V29.2896C1168.06 30.2717 1168.92 31.0227 1170.02 31.0227C1171.12 31.0227 1171.98 30.2717 1171.98 29.2896V0H1168.06ZM1160.95 0V15.5402C1160.95 16.4645 1161.82 17.2733 1162.91 17.2733C1163.95 17.2733 1164.88 16.4645 1164.88 15.5402V0H1160.95ZM1153.84 0V23.8014C1153.84 24.7835 1154.71 25.5345 1155.81 25.5345C1156.85 25.5345 1157.77 24.7835 1157.77 23.8014V0H1153.84ZM1146.68 0V32.9291C1146.68 33.9112 1147.61 34.6622 1148.65 34.6622C1149.74 34.6622 1150.61 33.9112 1150.61 32.9291V0H1146.68ZM1139.58 0V29.9251C1139.58 30.8494 1140.44 31.6582 1141.54 31.6582C1142.64 31.6582 1143.5 30.8494 1143.5 29.9251V0H1139.58ZM1132.47 0V46.9095C1132.47 47.8916 1133.34 48.6427 1134.43 48.6427C1135.53 48.6427 1136.4 47.8916 1136.4 46.9095V0H1132.47ZM1125.36 0V39.3994C1125.36 40.3815 1126.23 41.1325 1127.33 41.1325C1128.43 41.1325 1129.29 40.3815 1129.29 39.3994V0H1125.36ZM1118.26 0V37.7818C1118.26 38.7639 1119.12 39.5149 1120.22 39.5149C1121.26 39.5149 1122.19 38.7639 1122.19 37.7818V0H1118.26ZM1111.09 0V23.8014C1111.09 24.7835 1112.02 25.5345 1113.06 25.5345C1114.16 25.5345 1115.02 24.7835 1115.02 23.8014V0H1111.09ZM979.555 0V39.6305C979.555 40.5548 978.688 41.3636 977.59 41.3636C976.551 41.3636 975.626 40.5548 975.626 39.6305V0H979.555ZM986.718 0V43.0967C986.718 44.021 985.794 44.8298 984.754 44.8298C983.656 44.8298 982.79 44.021 982.79 43.0967V0H986.718ZM993.824 0V38.995C993.824 39.9771 992.9 40.7281 991.86 40.7281C990.762 40.7281 989.895 39.9771 989.895 38.995V0H993.824ZM1000.93 0V35.3555C1000.93 36.3376 1000.06 37.0886 998.965 37.0886C997.868 37.0886 997.001 36.3376 997.001 35.3555V0H1000.93ZM1008.03 0V44.0788C1008.03 45.0609 1007.17 45.8119 1006.07 45.8119C1004.97 45.8119 1004.1 45.0609 1004.1 44.0788V0H1008.03ZM1015.14 0V18.7754C1015.14 19.6997 1014.27 20.5085 1013.17 20.5085C1012.13 20.5085 1011.21 19.6997 1011.21 18.7754V0H1015.14ZM1022.24 0V23.397C1022.24 24.3791 1021.38 25.1301 1020.28 25.1301C1019.24 25.1301 1018.32 24.3791 1018.32 23.397V0H1022.24ZM1029.41 0V35.3555C1029.41 36.3376 1028.48 37.0886 1027.44 37.0886C1026.35 37.0886 1025.48 36.3376 1025.48 35.3555V0H1029.41ZM1036.51 0V33.5646C1036.51 34.4889 1035.59 35.2977 1034.55 35.2977C1033.45 35.2977 1032.58 34.4889 1032.58 33.5646V0H1036.51ZM1043.62 0V31.3115C1043.62 32.2936 1042.75 33.0446 1041.65 33.0446C1040.56 33.0446 1039.69 32.2936 1039.69 31.3115V0H1043.62ZM1050.72 0V29.2896C1050.72 30.2717 1049.86 31.0227 1048.76 31.0227C1047.66 31.0227 1046.8 30.2717 1046.8 29.2896V0H1050.72ZM1057.83 0V15.5402C1057.83 16.4645 1056.96 17.2733 1055.87 17.2733C1054.83 17.2733 1053.9 16.4645 1053.9 15.5402V0H1057.83ZM1064.94 0V23.8014C1064.94 24.7835 1064.07 25.5345 1062.97 25.5345C1061.93 25.5345 1061.01 24.7835 1061.01 23.8014V0H1064.94ZM1072.1 0V32.9291C1072.1 33.9112 1071.18 34.6622 1070.14 34.6622C1069.04 34.6622 1068.17 33.9112 1068.17 32.9291V0H1072.1ZM1079.21 0V29.9251C1079.21 30.8494 1078.28 31.6582 1077.24 31.6582C1076.14 31.6582 1075.28 30.8494 1075.28 29.9251V0H1079.21ZM1086.31 0V46.9095C1086.31 47.8916 1085.44 48.6427 1084.35 48.6427C1083.25 48.6427 1082.38 47.8916 1082.38 46.9095V0H1086.31ZM1093.42 0V39.3994C1093.42 40.3815 1092.55 41.1325 1091.45 41.1325C1090.36 41.1325 1089.49 40.3815 1089.49 39.3994V0H1093.42ZM1100.52 0V37.7818C1100.52 38.7639 1099.66 39.5149 1098.56 39.5149C1097.52 39.5149 1096.59 38.7639 1096.59 37.7818V0H1100.52ZM1107.69 0V23.8014C1107.69 24.7835 1106.76 25.5345 1105.72 25.5345C1104.62 25.5345 1103.7 24.7835 1103.7 23.8014V0H1107.69Z" fill="#6E6E6E"/>
<path fill-rule="evenodd" clip-rule="evenodd" d="M3180.28 0V46.9095C3180.28 47.8916 3179.41 48.6427 3178.31 48.6427C3177.27 48.6427 3176.35 47.8916 3176.35 46.9095V0H3180.28ZM2831.11 0V23.8014C2831.11 24.7835 2830.24 25.5345 2829.15 25.5345C2828.05 25.5345 2827.18 24.7835 2827.18 23.8014V0H2831.11ZM2824.01 0V37.7818C2824.01 38.7639 2823.08 39.5149 2822.04 39.5149C2820.94 39.5149 2820.08 38.7639 2820.08 37.7818V0H2824.01ZM2816.84 0V39.3994C2816.84 40.3815 2815.98 41.1325 2814.88 41.1325C2813.84 41.1325 2812.91 40.3815 2812.91 39.3994V0H2816.84ZM2809.74 0V46.9095C2809.74 47.8916 2808.87 48.6427 2807.77 48.6427C2806.73 48.6427 2805.81 47.8916 2805.81 46.9095V0H2809.74ZM2802.63 0V29.9251C2802.63 30.8494 2801.76 31.6582 2800.67 31.6582C2799.57 31.6582 2798.7 30.8494 2798.7 29.9251V0H2802.63ZM2795.52 0V32.9291C2795.52 33.9112 2794.66 34.6622 2793.56 34.6622C2792.46 34.6622 2791.6 33.9112 2791.6 32.9291V0H2795.52ZM2788.42 0V23.8014C2788.42 24.7835 2787.55 25.5345 2786.45 25.5345C2785.36 25.5345 2784.49 24.7835 2784.49 23.8014V0H2788.42ZM2781.31 0V15.5402C2781.31 16.4645 2780.39 17.2733 2779.35 17.2733C2778.25 17.2733 2777.38 16.4645 2777.38 15.5402V0H2781.31ZM2774.15 0V29.2896C2774.15 30.2717 2773.28 31.0227 2772.19 31.0227C2771.15 31.0227 2770.22 30.2717 2770.22 29.2896V0H2774.15ZM2767.04 0V31.3115C2767.04 32.2936 2766.18 33.0446 2765.08 33.0446C2764.04 33.0446 2763.12 32.2936 2763.12 31.3115V0H2767.04ZM2759.94 0V33.5646C2759.94 34.4889 2759.07 35.2977 2757.97 35.2977C2756.88 35.2977 2756.01 34.4889 2756.01 33.5646V0H2759.94ZM2752.83 0V35.3555C2752.83 36.3376 2751.97 37.0886 2750.87 37.0886C2749.77 37.0886 2748.9 36.3376 2748.9 35.3555V0H2752.83ZM2745.73 0V23.397C2745.73 24.3791 2744.8 25.1301 2743.76 25.1301C2742.66 25.1301 2741.8 24.3791 2741.8 23.397V0H2745.73ZM2738.62 0V18.7754C2738.62 19.6997 2737.7 20.5085 2736.66 20.5085C2735.56 20.5085 2734.69 19.6997 2734.69 18.7754V0H2738.62ZM2731.46 0V44.0788C2731.46 45.0609 2730.59 45.8119 2729.49 45.8119C2728.45 45.8119 2727.53 45.0609 2727.53 44.0788V0H2731.46ZM2724.35 0V35.3555C2724.35 36.3376 2723.48 37.0886 2722.39 37.0886C2721.35 37.0886 2720.42 36.3376 2720.42 35.3555V0H2724.35ZM2717.25 0V38.995C2717.25 39.9771 2716.38 40.7281 2715.28 40.7281C2714.18 40.7281 2713.32 39.9771 2713.32 38.995V0H2717.25ZM2710.14 0V43.0967C2710.14 44.021 2709.27 44.8298 2708.18 44.8298C2707.08 44.8298 2706.21 44.021 2706.21 43.0967V0H2710.14ZM2703.03 0V39.6305C2703.03 40.5548 2702.11 41.3636 2701.07 41.3636C2699.97 41.3636 2699.11 40.5548 2699.11 39.6305V0H2703.03ZM2695.93 0V46.9095C2695.93 47.8916 2695 48.6427 2693.96 48.6427C2692.87 48.6427 2692 47.8916 2692 46.9095V0H2695.93ZM2834.58 0V23.8014C2834.58 24.7835 2835.44 25.5345 2836.54 25.5345C2837.64 25.5345 2838.51 24.7835 2838.51 23.8014V0H2834.58ZM2841.68 0V37.7818C2841.68 38.7639 2842.55 39.5149 2843.65 39.5149C2844.75 39.5149 2845.61 38.7639 2845.61 37.7818V0H2841.68ZM2848.79 0V39.3994C2848.79 40.3815 2849.66 41.1325 2850.75 41.1325C2851.85 41.1325 2852.72 40.3815 2852.72 39.3994V0H2848.79ZM2855.89 0V46.9095C2855.89 47.8916 2856.82 48.6427 2857.86 48.6427C2858.96 48.6427 2859.82 47.8916 2859.82 46.9095V0H2855.89ZM2863.06 0V29.9251C2863.06 30.8494 2863.92 31.6582 2865.02 31.6582C2866.06 31.6582 2866.99 30.8494 2866.99 29.9251V0H2863.06ZM2870.16 0V32.9291C2870.16 33.9112 2871.03 34.6622 2872.13 34.6622C2873.17 34.6622 2874.09 33.9112 2874.09 32.9291V0H2870.16ZM2877.27 0V23.8014C2877.27 24.7835 2878.14 25.5345 2879.23 25.5345C2880.33 25.5345 2881.2 24.7835 2881.2 23.8014V0H2877.27ZM2884.38 0V15.5402C2884.38 16.4645 2885.24 17.2733 2886.34 17.2733C2887.44 17.2733 2888.3 16.4645 2888.3 15.5402V0H2884.38ZM2891.48 0V29.2896C2891.48 30.2717 2892.41 31.0227 2893.45 31.0227C2894.54 31.0227 2895.41 30.2717 2895.41 29.2896V0H2891.48ZM3037.64 0V23.8014C3037.64 24.7835 3036.77 25.5345 3035.68 25.5345C3034.58 25.5345 3033.71 24.7835 3033.71 23.8014V0H3037.64ZM3030.53 0V37.7818C3030.53 38.7639 3029.61 39.5149 3028.57 39.5149C3027.47 39.5149 3026.61 38.7639 3026.61 37.7818V0H3030.53ZM3023.43 0V39.3994C3023.43 40.3815 3022.5 41.1325 3021.46 41.1325C3020.37 41.1325 3019.44 40.3815 3019.44 39.3994V0H3023.43ZM3016.27 0V46.9095C3016.27 47.8916 3015.4 48.6427 3014.3 48.6427C3013.26 48.6427 3012.34 47.8916 3012.34 46.9095V0H3016.27ZM3009.16 0V29.9251C3009.16 30.8494 3008.29 31.6582 3007.2 31.6582C3006.1 31.6582 3005.23 30.8494 3005.23 29.9251V0H3009.16ZM3002.05 0V32.9291C3002.05 33.9112 3001.19 34.6622 3000.09 34.6622C2998.99 34.6622 2998.13 33.9112 2998.13 32.9291V0H3002.05ZM2994.95 0V23.8014C2994.95 24.7835 2994.08 25.5345 2992.98 25.5345C2991.89 25.5345 2991.02 24.7835 2991.02 23.8014V0H2994.95ZM2987.84 0V15.5402C2987.84 16.4645 2986.92 17.2733 2985.88 17.2733C2984.78 17.2733 2983.91 16.4645 2983.91 15.5402V0H2987.84ZM2980.68 0V29.2896C2980.68 30.2717 2979.81 31.0227 2978.71 31.0227C2977.67 31.0227 2976.75 30.2717 2976.75 29.2896V0H2980.68ZM2973.57 0V31.3115C2973.57 32.2936 2972.71 33.0446 2971.61 33.0446C2970.57 33.0446 2969.64 32.2936 2969.64 31.3115V0H2973.57ZM2966.47 0V33.5646C2966.47 34.4889 2965.6 35.2977 2964.5 35.2977C2963.41 35.2977 2962.54 34.4889 2962.54 33.5646V0H2966.47ZM2959.36 0V35.3555C2959.36 36.3376 2958.49 37.0886 2957.4 37.0886C2956.3 37.0886 2955.43 36.3376 2955.43 35.3555V0H2959.36ZM2952.26 0V23.397C2952.26 24.3791 2951.33 25.1301 2950.29 25.1301C2949.19 25.1301 2948.33 24.3791 2948.33 23.397V0H2952.26ZM2945.15 0V18.7754C2945.15 19.6997 2944.23 20.5085 2943.19 20.5085C2942.09 20.5085 2941.22 19.6997 2941.22 18.7754V0H2945.15ZM2937.99 0V44.0788C2937.99 45.0609 2937.12 45.8119 2936.02 45.8119C2934.98 45.8119 2934.06 45.0609 2934.06 44.0788V0H2937.99ZM2930.88 0V35.3555C2930.88 36.3376 2930.01 37.0886 2928.92 37.0886C2927.88 37.0886 2926.95 36.3376 2926.95 35.3555V0H2930.88ZM2923.77 0V38.995C2923.77 39.9771 2922.91 40.7281 2921.81 40.7281C2920.71 40.7281 2919.85 39.9771 2919.85 38.995V0H2923.77ZM2916.67 0V43.0967C2916.67 44.021 2915.8 44.8298 2914.71 44.8298C2913.61 44.8298 2912.74 44.021 2912.74 43.0967V0H2916.67ZM2909.56 0V39.6305C2909.56 40.5548 2908.64 41.3636 2907.6 41.3636C2906.5 41.3636 2905.64 40.5548 2905.64 39.6305V0H2909.56ZM2902.46 0V46.9095C2902.46 47.8916 2901.53 48.6427 2900.49 48.6427C2899.4 48.6427 2898.53 47.8916 2898.53 46.9095V0H2902.46ZM3041.11 0V23.8014C3041.11 24.7835 3041.97 25.5345 3043.07 25.5345C3044.17 25.5345 3045.04 24.7835 3045.04 23.8014V0H3041.11ZM3048.21 0V37.7818C3048.21 38.7639 3049.08 39.5149 3050.18 39.5149C3051.27 39.5149 3052.14 38.7639 3052.14 37.7818V0H3048.21ZM3055.32 0V39.3994C3055.32 40.3815 3056.18 41.1325 3057.28 41.1325C3058.38 41.1325 3059.25 40.3815 3059.25 39.3994V0H3055.32ZM3062.42 0V46.9095C3062.42 47.8916 3063.35 48.6427 3064.39 48.6427C3065.49 48.6427 3066.35 47.8916 3066.35 46.9095V0H3062.42ZM3069.59 0V29.9251C3069.59 30.8494 3070.45 31.6582 3071.55 31.6582C3072.59 31.6582 3073.52 30.8494 3073.52 29.9251V0H3069.59ZM3076.69 0V32.9291C3076.69 33.9112 3077.56 34.6622 3078.66 34.6622C3079.7 34.6622 3080.62 33.9112 3080.62 32.9291V0H3076.69ZM3083.8 0V23.8014C3083.8 24.7835 3084.67 25.5345 3085.76 25.5345C3086.86 25.5345 3087.73 24.7835 3087.73 23.8014V0H3083.8ZM3090.9 0V15.5402C3090.9 16.4645 3091.77 17.2733 3092.87 17.2733C3093.97 17.2733 3094.83 16.4645 3094.83 15.5402V0H3090.9ZM3098.01 0V29.2896C3098.01 30.2717 3098.93 31.0227 3099.97 31.0227C3101.07 31.0227 3101.94 30.2717 3101.94 29.2896V0H3098.01ZM3105.12 0V31.3115C3105.12 32.2936 3106.04 33.0446 3107.08 33.0446C3108.18 33.0446 3109.04 32.2936 3109.04 31.3115V0H3105.12ZM3112.28 0V33.5646C3112.28 34.4889 3113.15 35.2977 3114.24 35.2977C3115.28 35.2977 3116.21 34.4889 3116.21 33.5646V0H3112.28ZM3119.39 0V35.3555C3119.39 36.3376 3120.25 37.0886 3121.35 37.0886C3122.39 37.0886 3123.31 36.3376 3123.31 35.3555V0H3119.39ZM3126.49 0V23.397C3126.49 24.3791 3127.36 25.1301 3128.46 25.1301C3129.55 25.1301 3130.42 24.3791 3130.42 23.397V0H3126.49ZM3133.6 0V18.7754C3133.6 19.6997 3134.46 20.5085 3135.56 20.5085C3136.66 20.5085 3137.53 19.6997 3137.53 18.7754V0H3133.6ZM3140.7 0V44.0788C3140.7 45.0609 3141.63 45.8119 3142.67 45.8119C3143.76 45.8119 3144.63 45.0609 3144.63 44.0788V0H3140.7ZM3147.81 0V35.3555C3147.81 36.3376 3148.73 37.0886 3149.77 37.0886C3150.87 37.0886 3151.74 36.3376 3151.74 35.3555V0H3147.81ZM3154.97 0V38.995C3154.97 39.9771 3155.84 40.7281 3156.94 40.7281C3157.98 40.7281 3158.9 39.9771 3158.9 38.995V0H3154.97ZM3162.08 0V43.0967C3162.08 44.021 3162.94 44.8298 3164.04 44.8298C3165.08 44.8298 3166.01 44.021 3166.01 43.0967V0H3162.08ZM3169.18 0V39.6305C3169.18 40.5548 3170.05 41.3636 3171.15 41.3636C3172.25 41.3636 3173.11 40.5548 3173.11 39.6305V0H3169.18ZM3525.51 0V23.8014C3525.51 24.7835 3526.38 25.5345 3527.48 25.5345C3528.52 25.5345 3529.44 24.7835 3529.44 23.8014V0H3525.51ZM3532.62 0V37.7818C3532.62 38.7639 3533.48 39.5149 3534.58 39.5149C3535.62 39.5149 3536.55 38.7639 3536.55 37.7818V0H3532.62ZM3539.72 0V39.3994C3539.72 40.3815 3540.59 41.1325 3541.69 41.1325C3542.78 41.1325 3543.65 40.3815 3543.65 39.3994V0H3539.72ZM3546.83 0V46.9095C3546.83 47.8916 3547.7 48.6427 3548.79 48.6427C3549.89 48.6427 3550.76 47.8916 3550.76 46.9095V0H3546.83ZM3553.93 0V29.9251C3553.93 30.8494 3554.86 31.6582 3555.9 31.6582C3557 31.6582 3557.86 30.8494 3557.86 29.9251V0H3553.93ZM3561.04 0V32.9291C3561.04 33.9112 3561.96 34.6622 3563 34.6622C3564.1 34.6622 3564.97 33.9112 3564.97 32.9291V0H3561.04ZM3568.2 0V23.8014C3568.2 24.7835 3569.07 25.5345 3570.17 25.5345C3571.21 25.5345 3572.13 24.7835 3572.13 23.8014V0H3568.2ZM3575.31 0V15.5402C3575.31 16.4645 3576.18 17.2733 3577.27 17.2733C3578.37 17.2733 3579.24 16.4645 3579.24 15.5402V0H3575.31ZM3582.42 0V29.2896C3582.42 30.2717 3583.28 31.0227 3584.38 31.0227C3585.48 31.0227 3586.34 30.2717 3586.34 29.2896V0H3582.42ZM3589.52 0V31.3115C3589.52 32.2936 3590.39 33.0446 3591.49 33.0446C3592.58 33.0446 3593.45 32.2936 3593.45 31.3115V0H3589.52ZM3596.63 0V33.5646C3596.63 34.4889 3597.55 35.2977 3598.59 35.2977C3599.69 35.2977 3600.56 34.4889 3600.56 33.5646V0H3596.63ZM3603.79 0V35.3555C3603.79 36.3376 3604.66 37.0886 3605.75 37.0886C3606.79 37.0886 3607.72 36.3376 3607.72 35.3555V0H3603.79ZM3610.9 0V23.397C3610.9 24.3791 3611.76 25.1301 3612.86 25.1301C3613.9 25.1301 3614.82 24.3791 3614.82 23.397V0H3610.9ZM3618 0V18.7754C3618 19.6997 3618.87 20.5085 3619.97 20.5085C3621.06 20.5085 3621.93 19.6997 3621.93 18.7754V0H3618ZM3625.11 0V44.0788C3625.11 45.0609 3625.97 45.8119 3627.07 45.8119C3628.17 45.8119 3629.04 45.0609 3629.04 44.0788V0H3625.11ZM3632.21 0V35.3555C3632.21 36.3376 3633.14 37.0886 3634.18 37.0886C3635.28 37.0886 3636.14 36.3376 3636.14 35.3555V0H3632.21ZM3639.32 0V38.995C3639.32 39.9771 3640.24 40.7281 3641.28 40.7281C3642.38 40.7281 3643.25 39.9771 3643.25 38.995V0H3639.32ZM3646.48 0V43.0967C3646.48 44.021 3647.35 44.8298 3648.45 44.8298C3649.49 44.8298 3650.41 44.021 3650.41 43.0967V0H3646.48ZM3653.59 0V39.6305C3653.59 40.5548 3654.45 41.3636 3655.55 41.3636C3656.59 41.3636 3657.52 40.5548 3657.52 39.6305V0H3653.59ZM3660.69 0V46.9095C3660.69 47.8916 3661.56 48.6427 3662.66 48.6427C3663.76 48.6427 3664.62 47.8916 3664.62 46.9095V0H3660.69ZM3522.05 0V23.8014C3522.05 24.7835 3521.12 25.5345 3520.08 25.5345C3518.98 25.5345 3518.12 24.7835 3518.12 23.8014V0H3522.05ZM3514.88 0V37.7818C3514.88 38.7639 3514.02 39.5149 3512.92 39.5149C3511.88 39.5149 3510.95 38.7639 3510.95 37.7818V0H3514.88ZM3507.78 0V39.3994C3507.78 40.3815 3506.91 41.1325 3505.81 41.1325C3504.77 41.1325 3503.85 40.3815 3503.85 39.3994V0H3507.78ZM3500.67 0V46.9095C3500.67 47.8916 3499.8 48.6427 3498.71 48.6427C3497.61 48.6427 3496.74 47.8916 3496.74 46.9095V0H3500.67ZM3493.56 0V29.9251C3493.56 30.8494 3492.7 31.6582 3491.6 31.6582C3490.5 31.6582 3489.64 30.8494 3489.64 29.9251V0H3493.56ZM3486.46 0V32.9291C3486.46 33.9112 3485.53 34.6622 3484.49 34.6622C3483.4 34.6622 3482.53 33.9112 3482.53 32.9291V0H3486.46ZM3479.35 0V23.8014C3479.35 24.7835 3478.43 25.5345 3477.39 25.5345C3476.29 25.5345 3475.42 24.7835 3475.42 23.8014V0H3479.35ZM3472.19 0V15.5402C3472.19 16.4645 3471.32 17.2733 3470.23 17.2733C3469.19 17.2733 3468.26 16.4645 3468.26 15.5402V0H3472.19ZM3465.08 0V29.2896C3465.08 30.2717 3464.22 31.0227 3463.12 31.0227C3462.08 31.0227 3461.16 30.2717 3461.16 29.2896V0H3465.08ZM3318.98 0V23.8014C3318.98 24.7835 3319.85 25.5345 3320.95 25.5345C3321.99 25.5345 3322.91 24.7835 3322.91 23.8014V0H3318.98ZM3326.09 0V37.7818C3326.09 38.7639 3326.95 39.5149 3328.05 39.5149C3329.09 39.5149 3330.02 38.7639 3330.02 37.7818V0H3326.09ZM3333.19 0V39.3994C3333.19 40.3815 3334.06 41.1325 3335.16 41.1325C3336.26 41.1325 3337.12 40.3815 3337.12 39.3994V0H3333.19ZM3340.3 0V46.9095C3340.3 47.8916 3341.17 48.6427 3342.26 48.6427C3343.36 48.6427 3344.23 47.8916 3344.23 46.9095V0H3340.3ZM3347.41 0V29.9251C3347.41 30.8494 3348.33 31.6582 3349.37 31.6582C3350.47 31.6582 3351.33 30.8494 3351.33 29.9251V0H3347.41ZM3354.51 0V32.9291C3354.51 33.9112 3355.44 34.6622 3356.48 34.6622C3357.57 34.6622 3358.44 33.9112 3358.44 32.9291V0H3354.51ZM3361.67 0V23.8014C3361.67 24.7835 3362.54 25.5345 3363.64 25.5345C3364.68 25.5345 3365.6 24.7835 3365.6 23.8014V0H3361.67ZM3368.78 0V15.5402C3368.78 16.4645 3369.65 17.2733 3370.74 17.2733C3371.84 17.2733 3372.71 16.4645 3372.71 15.5402V0H3368.78ZM3375.89 0V29.2896C3375.89 30.2717 3376.75 31.0227 3377.85 31.0227C3378.95 31.0227 3379.81 30.2717 3379.81 29.2896V0H3375.89ZM3382.99 0V31.3115C3382.99 32.2936 3383.86 33.0446 3384.96 33.0446C3386.05 33.0446 3386.92 32.2936 3386.92 31.3115V0H3382.99ZM3390.1 0V33.5646C3390.1 34.4889 3391.02 35.2977 3392.06 35.2977C3393.16 35.2977 3394.03 34.4889 3394.03 33.5646V0H3390.1ZM3397.26 0V35.3555C3397.26 36.3376 3398.13 37.0886 3399.23 37.0886C3400.27 37.0886 3401.19 36.3376 3401.19 35.3555V0H3397.26ZM3404.37 0V23.397C3404.37 24.3791 3405.23 25.1301 3406.33 25.1301C3407.37 25.1301 3408.3 24.3791 3408.3 23.397V0H3404.37ZM3411.47 0V18.7754C3411.47 19.6997 3412.34 20.5085 3413.44 20.5085C3414.53 20.5085 3415.4 19.6997 3415.4 18.7754V0H3411.47ZM3418.58 0V44.0788C3418.58 45.0609 3419.45 45.8119 3420.54 45.8119C3421.64 45.8119 3422.51 45.0609 3422.51 44.0788V0H3418.58ZM3425.68 0V35.3555C3425.68 36.3376 3426.55 37.0886 3427.65 37.0886C3428.75 37.0886 3429.61 36.3376 3429.61 35.3555V0H3425.68ZM3432.79 0V38.995C3432.79 39.9771 3433.71 40.7281 3434.75 40.7281C3435.85 40.7281 3436.72 39.9771 3436.72 38.995V0H3432.79ZM3439.95 0V43.0967C3439.95 44.021 3440.82 44.8298 3441.92 44.8298C3442.96 44.8298 3443.88 44.021 3443.88 43.0967V0H3439.95ZM3447.06 0V39.6305C3447.06 40.5548 3447.93 41.3636 3449.02 41.3636C3450.06 41.3636 3450.99 40.5548 3450.99 39.6305V0H3447.06ZM3454.17 0V46.9095C3454.17 47.8916 3455.03 48.6427 3456.13 48.6427C3457.23 48.6427 3458.09 47.8916 3458.09 46.9095V0H3454.17ZM3315.52 0V23.8014C3315.52 24.7835 3314.59 25.5345 3313.55 25.5345C3312.45 25.5345 3311.59 24.7835 3311.59 23.8014V0H3315.52ZM3308.35 0V37.7818C3308.35 38.7639 3307.49 39.5149 3306.39 39.5149C3305.35 39.5149 3304.42 38.7639 3304.42 37.7818V0H3308.35ZM3301.25 0V39.3994C3301.25 40.3815 3300.38 41.1325 3299.28 41.1325C3298.24 41.1325 3297.32 40.3815 3297.32 39.3994V0H3301.25ZM3294.14 0V46.9095C3294.14 47.8916 3293.27 48.6427 3292.18 48.6427C3291.08 48.6427 3290.21 47.8916 3290.21 46.9095V0H3294.14ZM3287.04 0V29.9251C3287.04 30.8494 3286.17 31.6582 3285.07 31.6582C3283.97 31.6582 3283.11 30.8494 3283.11 29.9251V0H3287.04ZM3279.93 0V32.9291C3279.93 33.9112 3279.01 34.6622 3277.97 34.6622C3276.87 34.6622 3276 33.9112 3276 32.9291V0H3279.93ZM3272.82 0V23.8014C3272.82 24.7835 3271.9 25.5345 3270.86 25.5345C3269.76 25.5345 3268.9 24.7835 3268.9 23.8014V0H3272.82ZM3265.66 0V15.5402C3265.66 16.4645 3264.79 17.2733 3263.7 17.2733C3262.66 17.2733 3261.73 16.4645 3261.73 15.5402V0H3265.66ZM3258.55 0V29.2896C3258.55 30.2717 3257.69 31.0227 3256.59 31.0227C3255.55 31.0227 3254.63 30.2717 3254.63 29.2896V0H3258.55ZM3251.45 0V31.3115C3251.45 32.2936 3250.58 33.0446 3249.48 33.0446C3248.39 33.0446 3247.52 32.2936 3247.52 31.3115V0H3251.45ZM3244.34 0V33.5646C3244.34 34.4889 3243.48 35.2977 3242.38 35.2977C3241.28 35.2977 3240.41 34.4889 3240.41 33.5646V0H3244.34ZM3237.24 0V35.3555C3237.24 36.3376 3236.31 37.0886 3235.27 37.0886C3234.18 37.0886 3233.31 36.3376 3233.31 35.3555V0H3237.24ZM3230.13 0V23.397C3230.13 24.3791 3229.21 25.1301 3228.17 25.1301C3227.07 25.1301 3226.2 24.3791 3226.2 23.397V0H3230.13ZM3222.97 0V18.7754C3222.97 19.6997 3222.1 20.5085 3221 20.5085C3219.96 20.5085 3219.04 19.6997 3219.04 18.7754V0H3222.97ZM3215.86 0V44.0788C3215.86 45.0609 3215 45.8119 3213.9 45.8119C3212.8 45.8119 3211.93 45.0609 3211.93 44.0788V0H3215.86ZM3208.76 0V35.3555C3208.76 36.3376 3207.89 37.0886 3206.79 37.0886C3205.69 37.0886 3204.83 36.3376 3204.83 35.3555V0H3208.76ZM3201.65 0V38.995C3201.65 39.9771 3200.78 40.7281 3199.69 40.7281C3198.59 40.7281 3197.72 39.9771 3197.72 38.995V0H3201.65ZM3194.54 0V43.0967C3194.54 44.021 3193.62 44.8298 3192.58 44.8298C3191.48 44.8298 3190.62 44.021 3190.62 43.0967V0H3194.54ZM3187.44 0V39.6305C3187.44 40.5548 3186.51 41.3636 3185.42 41.3636C3184.38 41.3636 3183.45 40.5548 3183.45 39.6305V0H3187.44ZM4031 0V46.9095C4031 47.8916 4031.87 48.6427 4032.96 48.6427C4034.06 48.6427 4034.93 47.8916 4034.93 46.9095V0H4031ZM4023.89 0V39.3994C4023.89 40.3815 4024.76 41.1325 4025.86 41.1325C4026.96 41.1325 4027.82 40.3815 4027.82 39.3994V0H4023.89ZM4016.79 0V37.7818C4016.79 38.7639 4017.65 39.5149 4018.75 39.5149C4019.79 39.5149 4020.72 38.7639 4020.72 37.7818V0H4016.79ZM4009.62 0V23.8014C4009.62 24.7835 4010.55 25.5345 4011.65 25.5345C4012.69 25.5345 4013.61 24.7835 4013.61 23.8014V0H4009.62ZM3870.98 0V46.9095C3870.98 47.8916 3870.11 48.6427 3869.01 48.6427C3867.97 48.6427 3867.05 47.8916 3867.05 46.9095V0H3870.98ZM3878.08 0V39.6305C3878.08 40.5548 3877.21 41.3636 3876.12 41.3636C3875.08 41.3636 3874.15 40.5548 3874.15 39.6305V0H3878.08ZM3885.24 0V43.0967C3885.24 44.021 3884.32 44.8298 3883.28 44.8298C3882.18 44.8298 3881.32 44.021 3881.32 43.0967V0H3885.24ZM3892.35 0V38.995C3892.35 39.9771 3891.43 40.7281 3890.39 40.7281C3889.29 40.7281 3888.42 39.9771 3888.42 38.995V0H3892.35ZM3899.46 0V35.3555C3899.46 36.3376 3898.59 37.0886 3897.49 37.0886C3896.39 37.0886 3895.53 36.3376 3895.53 35.3555V0H3899.46ZM3906.56 0V44.0788C3906.56 45.0609 3905.69 45.8119 3904.6 45.8119C3903.5 45.8119 3902.63 45.0609 3902.63 44.0788V0H3906.56ZM3913.67 0V18.7754C3913.67 19.6997 3912.8 20.5085 3911.7 20.5085C3910.66 20.5085 3909.74 19.6997 3909.74 18.7754V0H3913.67ZM3920.77 0V23.397C3920.77 24.3791 3919.91 25.1301 3918.81 25.1301C3917.77 25.1301 3916.84 24.3791 3916.84 23.397V0H3920.77ZM3927.94 0V35.3555C3927.94 36.3376 3927.01 37.0886 3925.97 37.0886C3924.87 37.0886 3924.01 36.3376 3924.01 35.3555V0H3927.94ZM3935.04 0V33.5646C3935.04 34.4889 3934.12 35.2977 3933.08 35.2977C3931.98 35.2977 3931.11 34.4889 3931.11 33.5646V0H3935.04ZM3942.15 0V31.3115C3942.15 32.2936 3941.28 33.0446 3940.18 33.0446C3939.09 33.0446 3938.22 32.2936 3938.22 31.3115V0H3942.15ZM3949.25 0V29.2896C3949.25 30.2717 3948.39 31.0227 3947.29 31.0227C3946.19 31.0227 3945.33 30.2717 3945.33 29.2896V0H3949.25ZM3956.36 0V15.5402C3956.36 16.4645 3955.49 17.2733 3954.4 17.2733C3953.36 17.2733 3952.43 16.4645 3952.43 15.5402V0H3956.36ZM3963.47 0V23.8014C3963.47 24.7835 3962.6 25.5345 3961.5 25.5345C3960.46 25.5345 3959.54 24.7835 3959.54 23.8014V0H3963.47ZM3970.63 0V32.9291C3970.63 33.9112 3969.7 34.6622 3968.66 34.6622C3967.57 34.6622 3966.7 33.9112 3966.7 32.9291V0H3970.63ZM3977.73 0V29.9251C3977.73 30.8494 3976.87 31.6582 3975.77 31.6582C3974.67 31.6582 3973.81 30.8494 3973.81 29.9251V0H3977.73ZM3984.84 0V46.9095C3984.84 47.8916 3983.97 48.6427 3982.88 48.6427C3981.78 48.6427 3980.91 47.8916 3980.91 46.9095V0H3984.84ZM3991.95 0V39.3994C3991.95 40.3815 3991.08 41.1325 3989.98 41.1325C3988.88 41.1325 3988.02 40.3815 3988.02 39.3994V0H3991.95ZM3999.05 0V37.7818C3999.05 38.7639 3998.19 39.5149 3997.09 39.5149C3996.05 39.5149 3995.12 38.7639 3995.12 37.7818V0H3999.05ZM4006.22 0V23.8014C4006.22 24.7835 4005.29 25.5345 4004.25 25.5345C4003.15 25.5345 4002.29 24.7835 4002.29 23.8014V0H4006.22ZM3860.06 0V29.2896C3860.06 30.2717 3860.92 31.0227 3862.02 31.0227C3863.12 31.0227 3863.98 30.2717 3863.98 29.2896V0H3860.06ZM3852.95 0V15.5402C3852.95 16.4645 3853.82 17.2733 3854.91 17.2733C3855.95 17.2733 3856.88 16.4645 3856.88 15.5402V0H3852.95ZM3845.84 0V23.8014C3845.84 24.7835 3846.71 25.5345 3847.81 25.5345C3848.85 25.5345 3849.77 24.7835 3849.77 23.8014V0H3845.84ZM3838.68 0V32.9291C3838.68 33.9112 3839.61 34.6622 3840.65 34.6622C3841.74 34.6622 3842.61 33.9112 3842.61 32.9291V0H3838.68ZM3831.58 0V29.9251C3831.58 30.8494 3832.44 31.6582 3833.54 31.6582C3834.64 31.6582 3835.5 30.8494 3835.5 29.9251V0H3831.58ZM3824.47 0V46.9095C3824.47 47.8916 3825.34 48.6427 3826.43 48.6427C3827.53 48.6427 3828.4 47.8916 3828.4 46.9095V0H3824.47ZM3817.36 0V39.3994C3817.36 40.3815 3818.23 41.1325 3819.33 41.1325C3820.43 41.1325 3821.29 40.3815 3821.29 39.3994V0H3817.36ZM3810.26 0V37.7818C3810.26 38.7639 3811.12 39.5149 3812.22 39.5149C3813.26 39.5149 3814.19 38.7639 3814.19 37.7818V0H3810.26ZM3803.09 0V23.8014C3803.09 24.7835 3804.02 25.5345 3805.06 25.5345C3806.16 25.5345 3807.02 24.7835 3807.02 23.8014V0H3803.09ZM3671.56 0V39.6305C3671.56 40.5548 3670.69 41.3636 3669.59 41.3636C3668.55 41.3636 3667.63 40.5548 3667.63 39.6305V0H3671.56ZM3678.72 0V43.0967C3678.72 44.021 3677.79 44.8298 3676.75 44.8298C3675.66 44.8298 3674.79 44.021 3674.79 43.0967V0H3678.72ZM3685.82 0V38.995C3685.82 39.9771 3684.9 40.7281 3683.86 40.7281C3682.76 40.7281 3681.9 39.9771 3681.9 38.995V0H3685.82ZM3692.93 0V35.3555C3692.93 36.3376 3692.06 37.0886 3690.97 37.0886C3689.87 37.0886 3689 36.3376 3689 35.3555V0H3692.93ZM3700.03 0V44.0788C3700.03 45.0609 3699.17 45.8119 3698.07 45.8119C3696.97 45.8119 3696.1 45.0609 3696.1 44.0788V0H3700.03ZM3707.14 0V18.7754C3707.14 19.6997 3706.27 20.5085 3705.17 20.5085C3704.13 20.5085 3703.21 19.6997 3703.21 18.7754V0H3707.14ZM3714.24 0V23.397C3714.24 24.3791 3713.38 25.1301 3712.28 25.1301C3711.24 25.1301 3710.32 24.3791 3710.32 23.397V0H3714.24ZM3721.41 0V35.3555C3721.41 36.3376 3720.48 37.0886 3719.44 37.0886C3718.35 37.0886 3717.48 36.3376 3717.48 35.3555V0H3721.41ZM3728.51 0V33.5646C3728.51 34.4889 3727.59 35.2977 3726.55 35.2977C3725.45 35.2977 3724.58 34.4889 3724.58 33.5646V0H3728.51ZM3735.62 0V31.3115C3735.62 32.2936 3734.75 33.0446 3733.65 33.0446C3732.56 33.0446 3731.69 32.2936 3731.69 31.3115V0H3735.62ZM3742.72 0V29.2896C3742.72 30.2717 3741.86 31.0227 3740.76 31.0227C3739.66 31.0227 3738.8 30.2717 3738.8 29.2896V0H3742.72ZM3749.83 0V15.5402C3749.83 16.4645 3748.96 17.2733 3747.87 17.2733C3746.83 17.2733 3745.9 16.4645 3745.9 15.5402V0H3749.83ZM3756.94 0V23.8014C3756.94 24.7835 3756.07 25.5345 3754.97 25.5345C3753.93 25.5345 3753.01 24.7835 3753.01 23.8014V0H3756.94ZM3764.1 0V32.9291C3764.1 33.9112 3763.18 34.6622 3762.14 34.6622C3761.04 34.6622 3760.17 33.9112 3760.17 32.9291V0H3764.1ZM3771.21 0V29.9251C3771.21 30.8494 3770.28 31.6582 3769.24 31.6582C3768.14 31.6582 3767.28 30.8494 3767.28 29.9251V0H3771.21ZM3778.31 0V46.9095C3778.31 47.8916 3777.44 48.6427 3776.35 48.6427C3775.25 48.6427 3774.38 47.8916 3774.38 46.9095V0H3778.31ZM3785.42 0V39.3994C3785.42 40.3815 3784.55 41.1325 3783.45 41.1325C3782.36 41.1325 3781.49 40.3815 3781.49 39.3994V0H3785.42ZM3792.52 0V37.7818C3792.52 38.7639 3791.66 39.5149 3790.56 39.5149C3789.52 39.5149 3788.59 38.7639 3788.59 37.7818V0H3792.52ZM3799.69 0V23.8014C3799.69 24.7835 3798.76 25.5345 3797.72 25.5345C3796.62 25.5345 3795.7 24.7835 3795.7 23.8014V0H3799.69Z" fill="#6E6E6E"/>
</svg>
