<svg width="4035" height="49" viewBox="0 0 4035 49" fill="none" xmlns="http://www.w3.org/2000/svg">
<path fill-rule="evenodd" clip-rule="evenodd" d="M3180.28 0.00700378V46.9165C3180.28 47.8986 3179.41 48.6497 3178.31 48.6497C3177.27 48.6497 3176.35 47.8986 3176.35 46.9165V0.00700378H3180.28ZM2831.11 0.00700378V23.8084C2831.11 24.7905 2830.24 25.5415 2829.15 25.5415C2828.05 25.5415 2827.18 24.7905 2827.18 23.8084V0.00700378H2831.11ZM2824.01 0.00700378V37.7888C2824.01 38.7709 2823.08 39.5219 2822.04 39.5219C2820.94 39.5219 2820.08 38.7709 2820.08 37.7888V0.00700378H2824.01ZM2816.84 0.00700378V39.4064C2816.84 40.3885 2815.98 41.1395 2814.88 41.1395C2813.84 41.1395 2812.91 40.3885 2812.91 39.4064V0.00700378H2816.84ZM2809.74 0.00700378V46.9165C2809.74 47.8986 2808.87 48.6497 2807.77 48.6497C2806.73 48.6497 2805.81 47.8986 2805.81 46.9165V0.00700378H2809.74ZM2802.63 0.00700378V29.9321C2802.63 30.8564 2801.76 31.6652 2800.67 31.6652C2799.57 31.6652 2798.7 30.8564 2798.7 29.9321V0.00700378H2802.63ZM2795.52 0.00700378V32.9361C2795.52 33.9182 2794.66 34.6692 2793.56 34.6692C2792.46 34.6692 2791.6 33.9182 2791.6 32.9361V0.00700378H2795.52ZM2788.42 0.00700378V23.8084C2788.42 24.7905 2787.55 25.5415 2786.45 25.5415C2785.36 25.5415 2784.49 24.7905 2784.49 23.8084V0.00700378H2788.42ZM2781.31 0.00700378V15.5472C2781.31 16.4715 2780.39 17.2803 2779.35 17.2803C2778.25 17.2803 2777.38 16.4715 2777.38 15.5472V0.00700378H2781.31ZM2774.15 0.00700378V29.2966C2774.15 30.2787 2773.28 31.0297 2772.19 31.0297C2771.15 31.0297 2770.22 30.2787 2770.22 29.2966V0.00700378H2774.15ZM2767.04 0.00700378V31.3185C2767.04 32.3006 2766.18 33.0516 2765.08 33.0516C2764.04 33.0516 2763.12 32.3006 2763.12 31.3185V0.00700378H2767.04ZM2759.94 0.00700378V33.5716C2759.94 34.4959 2759.07 35.3047 2757.97 35.3047C2756.88 35.3047 2756.01 34.4959 2756.01 33.5716V0.00700378H2759.94ZM2752.83 0.00700378V35.3625C2752.83 36.3446 2751.97 37.0956 2750.87 37.0956C2749.77 37.0956 2748.9 36.3446 2748.9 35.3625V0.00700378H2752.83ZM2745.73 0.00700378V23.404C2745.73 24.3861 2744.8 25.1371 2743.76 25.1371C2742.66 25.1371 2741.8 24.3861 2741.8 23.404V0.00700378H2745.73ZM2738.62 0.00700378V18.7824C2738.62 19.7067 2737.7 20.5155 2736.66 20.5155C2735.56 20.5155 2734.69 19.7067 2734.69 18.7824V0.00700378H2738.62ZM2731.46 0.00700378V44.0858C2731.46 45.0679 2730.59 45.8189 2729.49 45.8189C2728.45 45.8189 2727.53 45.0679 2727.53 44.0858V0.00700378H2731.46ZM2724.35 0.00700378V35.3625C2724.35 36.3446 2723.48 37.0956 2722.39 37.0956C2721.35 37.0956 2720.42 36.3446 2720.42 35.3625V0.00700378H2724.35ZM2717.25 0.00700378V39.002C2717.25 39.9841 2716.38 40.7351 2715.28 40.7351C2714.18 40.7351 2713.32 39.9841 2713.32 39.002V0.00700378H2717.25ZM2710.14 0.00700378V43.1037C2710.14 44.028 2709.27 44.8368 2708.18 44.8368C2707.08 44.8368 2706.21 44.028 2706.21 43.1037V0.00700378H2710.14ZM2703.03 0.00700378V39.6375C2703.03 40.5618 2702.11 41.3706 2701.07 41.3706C2699.97 41.3706 2699.11 40.5618 2699.11 39.6375V0.00700378H2703.03ZM2695.93 0.00700378V46.9165C2695.93 47.8986 2695 48.6497 2693.96 48.6497C2692.87 48.6497 2692 47.8986 2692 46.9165V0.00700378H2695.93ZM2834.58 0.00700378V23.8084C2834.58 24.7905 2835.44 25.5415 2836.54 25.5415C2837.64 25.5415 2838.51 24.7905 2838.51 23.8084V0.00700378H2834.58ZM2841.68 0.00700378V37.7888C2841.68 38.7709 2842.55 39.5219 2843.65 39.5219C2844.75 39.5219 2845.61 38.7709 2845.61 37.7888V0.00700378H2841.68ZM2848.79 0.00700378V39.4064C2848.79 40.3885 2849.66 41.1395 2850.75 41.1395C2851.85 41.1395 2852.72 40.3885 2852.72 39.4064V0.00700378H2848.79ZM2855.89 0.00700378V46.9165C2855.89 47.8986 2856.82 48.6497 2857.86 48.6497C2858.96 48.6497 2859.82 47.8986 2859.82 46.9165V0.00700378H2855.89ZM2863.06 0.00700378V29.9321C2863.06 30.8564 2863.92 31.6652 2865.02 31.6652C2866.06 31.6652 2866.99 30.8564 2866.99 29.9321V0.00700378H2863.06ZM2870.16 0.00700378V32.9361C2870.16 33.9182 2871.03 34.6692 2872.13 34.6692C2873.17 34.6692 2874.09 33.9182 2874.09 32.9361V0.00700378H2870.16ZM2877.27 0.00700378V23.8084C2877.27 24.7905 2878.14 25.5415 2879.23 25.5415C2880.33 25.5415 2881.2 24.7905 2881.2 23.8084V0.00700378H2877.27ZM2884.38 0.00700378V15.5472C2884.38 16.4715 2885.24 17.2803 2886.34 17.2803C2887.44 17.2803 2888.3 16.4715 2888.3 15.5472V0.00700378H2884.38ZM2891.48 0.00700378V29.2966C2891.48 30.2787 2892.41 31.0297 2893.45 31.0297C2894.54 31.0297 2895.41 30.2787 2895.41 29.2966V0.00700378H2891.48ZM3037.64 0.00700378V23.8084C3037.64 24.7905 3036.77 25.5415 3035.68 25.5415C3034.58 25.5415 3033.71 24.7905 3033.71 23.8084V0.00700378H3037.64ZM3030.53 0.00700378V37.7888C3030.53 38.7709 3029.61 39.5219 3028.57 39.5219C3027.47 39.5219 3026.61 38.7709 3026.61 37.7888V0.00700378H3030.53ZM3023.43 0.00700378V39.4064C3023.43 40.3885 3022.5 41.1395 3021.46 41.1395C3020.37 41.1395 3019.44 40.3885 3019.44 39.4064V0.00700378H3023.43ZM3016.27 0.00700378V46.9165C3016.27 47.8986 3015.4 48.6497 3014.3 48.6497C3013.26 48.6497 3012.34 47.8986 3012.34 46.9165V0.00700378H3016.27ZM3009.16 0.00700378V29.9321C3009.16 30.8564 3008.29 31.6652 3007.2 31.6652C3006.1 31.6652 3005.23 30.8564 3005.23 29.9321V0.00700378H3009.16ZM3002.05 0.00700378V32.9361C3002.05 33.9182 3001.19 34.6692 3000.09 34.6692C2998.99 34.6692 2998.13 33.9182 2998.13 32.9361V0.00700378H3002.05ZM2994.95 0.00700378V23.8084C2994.95 24.7905 2994.08 25.5415 2992.98 25.5415C2991.89 25.5415 2991.02 24.7905 2991.02 23.8084V0.00700378H2994.95ZM2987.84 0.00700378V15.5472C2987.84 16.4715 2986.92 17.2803 2985.88 17.2803C2984.78 17.2803 2983.91 16.4715 2983.91 15.5472V0.00700378H2987.84ZM2980.68 0.00700378V29.2966C2980.68 30.2787 2979.81 31.0297 2978.71 31.0297C2977.67 31.0297 2976.75 30.2787 2976.75 29.2966V0.00700378H2980.68ZM2973.57 0.00700378V31.3185C2973.57 32.3006 2972.71 33.0516 2971.61 33.0516C2970.57 33.0516 2969.64 32.3006 2969.64 31.3185V0.00700378H2973.57ZM2966.47 0.00700378V33.5716C2966.47 34.4959 2965.6 35.3047 2964.5 35.3047C2963.41 35.3047 2962.54 34.4959 2962.54 33.5716V0.00700378H2966.47ZM2959.36 0.00700378V35.3625C2959.36 36.3446 2958.49 37.0956 2957.4 37.0956C2956.3 37.0956 2955.43 36.3446 2955.43 35.3625V0.00700378H2959.36ZM2952.26 0.00700378V23.404C2952.26 24.3861 2951.33 25.1371 2950.29 25.1371C2949.19 25.1371 2948.33 24.3861 2948.33 23.404V0.00700378H2952.26ZM2945.15 0.00700378V18.7824C2945.15 19.7067 2944.23 20.5155 2943.19 20.5155C2942.09 20.5155 2941.22 19.7067 2941.22 18.7824V0.00700378H2945.15ZM2937.99 0.00700378V44.0858C2937.99 45.0679 2937.12 45.8189 2936.02 45.8189C2934.98 45.8189 2934.06 45.0679 2934.06 44.0858V0.00700378H2937.99ZM2930.88 0.00700378V35.3625C2930.88 36.3446 2930.01 37.0956 2928.92 37.0956C2927.88 37.0956 2926.95 36.3446 2926.95 35.3625V0.00700378H2930.88ZM2923.77 0.00700378V39.002C2923.77 39.9841 2922.91 40.7351 2921.81 40.7351C2920.71 40.7351 2919.85 39.9841 2919.85 39.002V0.00700378H2923.77ZM2916.67 0.00700378V43.1037C2916.67 44.028 2915.8 44.8368 2914.71 44.8368C2913.61 44.8368 2912.74 44.028 2912.74 43.1037V0.00700378H2916.67ZM2909.56 0.00700378V39.6375C2909.56 40.5618 2908.64 41.3706 2907.6 41.3706C2906.5 41.3706 2905.64 40.5618 2905.64 39.6375V0.00700378H2909.56ZM2902.46 0.00700378V46.9165C2902.46 47.8986 2901.53 48.6497 2900.49 48.6497C2899.4 48.6497 2898.53 47.8986 2898.53 46.9165V0.00700378H2902.46ZM3041.11 0.00700378V23.8084C3041.11 24.7905 3041.97 25.5415 3043.07 25.5415C3044.17 25.5415 3045.04 24.7905 3045.04 23.8084V0.00700378H3041.11ZM3048.21 0.00700378V37.7888C3048.21 38.7709 3049.08 39.5219 3050.18 39.5219C3051.27 39.5219 3052.14 38.7709 3052.14 37.7888V0.00700378H3048.21ZM3055.32 0.00700378V39.4064C3055.32 40.3885 3056.18 41.1395 3057.28 41.1395C3058.38 41.1395 3059.25 40.3885 3059.25 39.4064V0.00700378H3055.32ZM3062.42 0.00700378V46.9165C3062.42 47.8986 3063.35 48.6497 3064.39 48.6497C3065.49 48.6497 3066.35 47.8986 3066.35 46.9165V0.00700378H3062.42ZM3069.59 0.00700378V29.9321C3069.59 30.8564 3070.45 31.6652 3071.55 31.6652C3072.59 31.6652 3073.52 30.8564 3073.52 29.9321V0.00700378H3069.59ZM3076.69 0.00700378V32.9361C3076.69 33.9182 3077.56 34.6692 3078.66 34.6692C3079.7 34.6692 3080.62 33.9182 3080.62 32.9361V0.00700378H3076.69ZM3083.8 0.00700378V23.8084C3083.8 24.7905 3084.67 25.5415 3085.76 25.5415C3086.86 25.5415 3087.73 24.7905 3087.73 23.8084V0.00700378H3083.8ZM3090.9 0.00700378V15.5472C3090.9 16.4715 3091.77 17.2803 3092.87 17.2803C3093.97 17.2803 3094.83 16.4715 3094.83 15.5472V0.00700378H3090.9ZM3098.01 0.00700378V29.2966C3098.01 30.2787 3098.93 31.0297 3099.97 31.0297C3101.07 31.0297 3101.94 30.2787 3101.94 29.2966V0.00700378H3098.01ZM3105.12 0.00700378V31.3185C3105.12 32.3006 3106.04 33.0516 3107.08 33.0516C3108.18 33.0516 3109.04 32.3006 3109.04 31.3185V0.00700378H3105.12ZM3112.28 0.00700378V33.5716C3112.28 34.4959 3113.15 35.3047 3114.24 35.3047C3115.28 35.3047 3116.21 34.4959 3116.21 33.5716V0.00700378H3112.28ZM3119.39 0.00700378V35.3625C3119.39 36.3446 3120.25 37.0956 3121.35 37.0956C3122.39 37.0956 3123.31 36.3446 3123.31 35.3625V0.00700378H3119.39ZM3126.49 0.00700378V23.404C3126.49 24.3861 3127.36 25.1371 3128.46 25.1371C3129.55 25.1371 3130.42 24.3861 3130.42 23.404V0.00700378H3126.49ZM3133.6 0.00700378V18.7824C3133.6 19.7067 3134.46 20.5155 3135.56 20.5155C3136.66 20.5155 3137.53 19.7067 3137.53 18.7824V0.00700378H3133.6ZM3140.7 0.00700378V44.0858C3140.7 45.0679 3141.63 45.8189 3142.67 45.8189C3143.76 45.8189 3144.63 45.0679 3144.63 44.0858V0.00700378H3140.7ZM3147.81 0.00700378V35.3625C3147.81 36.3446 3148.73 37.0956 3149.77 37.0956C3150.87 37.0956 3151.74 36.3446 3151.74 35.3625V0.00700378H3147.81ZM3154.97 0.00700378V39.002C3154.97 39.9841 3155.84 40.7351 3156.94 40.7351C3157.98 40.7351 3158.9 39.9841 3158.9 39.002V0.00700378H3154.97ZM3162.08 0.00700378V43.1037C3162.08 44.028 3162.94 44.8368 3164.04 44.8368C3165.08 44.8368 3166.01 44.028 3166.01 43.1037V0.00700378H3162.08ZM3169.18 0.00700378V39.6375C3169.18 40.5618 3170.05 41.3706 3171.15 41.3706C3172.25 41.3706 3173.11 40.5618 3173.11 39.6375V0.00700378H3169.18ZM3525.51 0.00700378V23.8084C3525.51 24.7905 3526.38 25.5415 3527.48 25.5415C3528.52 25.5415 3529.44 24.7905 3529.44 23.8084V0.00700378H3525.51ZM3532.62 0.00700378V37.7888C3532.62 38.7709 3533.48 39.5219 3534.58 39.5219C3535.62 39.5219 3536.55 38.7709 3536.55 37.7888V0.00700378H3532.62ZM3539.72 0.00700378V39.4064C3539.72 40.3885 3540.59 41.1395 3541.69 41.1395C3542.78 41.1395 3543.65 40.3885 3543.65 39.4064V0.00700378H3539.72ZM3546.83 0.00700378V46.9165C3546.83 47.8986 3547.7 48.6497 3548.79 48.6497C3549.89 48.6497 3550.76 47.8986 3550.76 46.9165V0.00700378H3546.83ZM3553.93 0.00700378V29.9321C3553.93 30.8564 3554.86 31.6652 3555.9 31.6652C3557 31.6652 3557.86 30.8564 3557.86 29.9321V0.00700378H3553.93ZM3561.04 0.00700378V32.9361C3561.04 33.9182 3561.96 34.6692 3563 34.6692C3564.1 34.6692 3564.97 33.9182 3564.97 32.9361V0.00700378H3561.04ZM3568.2 0.00700378V23.8084C3568.2 24.7905 3569.07 25.5415 3570.17 25.5415C3571.21 25.5415 3572.13 24.7905 3572.13 23.8084V0.00700378H3568.2ZM3575.31 0.00700378V15.5472C3575.31 16.4715 3576.18 17.2803 3577.27 17.2803C3578.37 17.2803 3579.24 16.4715 3579.24 15.5472V0.00700378H3575.31ZM3582.42 0.00700378V29.2966C3582.42 30.2787 3583.28 31.0297 3584.38 31.0297C3585.48 31.0297 3586.34 30.2787 3586.34 29.2966V0.00700378H3582.42ZM3589.52 0.00700378V31.3185C3589.52 32.3006 3590.39 33.0516 3591.49 33.0516C3592.58 33.0516 3593.45 32.3006 3593.45 31.3185V0.00700378H3589.52ZM3596.63 0.00700378V33.5716C3596.63 34.4959 3597.55 35.3047 3598.59 35.3047C3599.69 35.3047 3600.56 34.4959 3600.56 33.5716V0.00700378H3596.63ZM3603.79 0.00700378V35.3625C3603.79 36.3446 3604.66 37.0956 3605.75 37.0956C3606.79 37.0956 3607.72 36.3446 3607.72 35.3625V0.00700378H3603.79ZM3610.9 0.00700378V23.404C3610.9 24.3861 3611.76 25.1371 3612.86 25.1371C3613.9 25.1371 3614.82 24.3861 3614.82 23.404V0.00700378H3610.9ZM3618 0.00700378V18.7824C3618 19.7067 3618.87 20.5155 3619.97 20.5155C3621.06 20.5155 3621.93 19.7067 3621.93 18.7824V0.00700378H3618ZM3625.11 0.00700378V44.0858C3625.11 45.0679 3625.97 45.8189 3627.07 45.8189C3628.17 45.8189 3629.04 45.0679 3629.04 44.0858V0.00700378H3625.11ZM3632.21 0.00700378V35.3625C3632.21 36.3446 3633.14 37.0956 3634.18 37.0956C3635.28 37.0956 3636.14 36.3446 3636.14 35.3625V0.00700378H3632.21ZM3639.32 0.00700378V39.002C3639.32 39.9841 3640.24 40.7351 3641.28 40.7351C3642.38 40.7351 3643.25 39.9841 3643.25 39.002V0.00700378H3639.32ZM3646.48 0.00700378V43.1037C3646.48 44.028 3647.35 44.8368 3648.45 44.8368C3649.49 44.8368 3650.41 44.028 3650.41 43.1037V0.00700378H3646.48ZM3653.59 0.00700378V39.6375C3653.59 40.5618 3654.45 41.3706 3655.55 41.3706C3656.59 41.3706 3657.52 40.5618 3657.52 39.6375V0.00700378H3653.59ZM3660.69 0.00700378V46.9165C3660.69 47.8986 3661.56 48.6497 3662.66 48.6497C3663.76 48.6497 3664.62 47.8986 3664.62 46.9165V0.00700378H3660.69ZM3522.05 0.00700378V23.8084C3522.05 24.7905 3521.12 25.5415 3520.08 25.5415C3518.98 25.5415 3518.12 24.7905 3518.12 23.8084V0.00700378H3522.05ZM3514.88 0.00700378V37.7888C3514.88 38.7709 3514.02 39.5219 3512.92 39.5219C3511.88 39.5219 3510.95 38.7709 3510.95 37.7888V0.00700378H3514.88ZM3507.78 0.00700378V39.4064C3507.78 40.3885 3506.91 41.1395 3505.81 41.1395C3504.77 41.1395 3503.85 40.3885 3503.85 39.4064V0.00700378H3507.78ZM3500.67 0.00700378V46.9165C3500.67 47.8986 3499.8 48.6497 3498.71 48.6497C3497.61 48.6497 3496.74 47.8986 3496.74 46.9165V0.00700378H3500.67ZM3493.56 0.00700378V29.9321C3493.56 30.8564 3492.7 31.6652 3491.6 31.6652C3490.5 31.6652 3489.64 30.8564 3489.64 29.9321V0.00700378H3493.56ZM3486.46 0.00700378V32.9361C3486.46 33.9182 3485.53 34.6692 3484.49 34.6692C3483.4 34.6692 3482.53 33.9182 3482.53 32.9361V0.00700378H3486.46ZM3479.35 0.00700378V23.8084C3479.35 24.7905 3478.43 25.5415 3477.39 25.5415C3476.29 25.5415 3475.42 24.7905 3475.42 23.8084V0.00700378H3479.35ZM3472.19 0.00700378V15.5472C3472.19 16.4715 3471.32 17.2803 3470.23 17.2803C3469.19 17.2803 3468.26 16.4715 3468.26 15.5472V0.00700378H3472.19ZM3465.08 0.00700378V29.2966C3465.08 30.2787 3464.22 31.0297 3463.12 31.0297C3462.08 31.0297 3461.16 30.2787 3461.16 29.2966V0.00700378H3465.08ZM3318.98 0.00700378V23.8084C3318.98 24.7905 3319.85 25.5415 3320.95 25.5415C3321.99 25.5415 3322.91 24.7905 3322.91 23.8084V0.00700378H3318.98ZM3326.09 0.00700378V37.7888C3326.09 38.7709 3326.95 39.5219 3328.05 39.5219C3329.09 39.5219 3330.02 38.7709 3330.02 37.7888V0.00700378H3326.09ZM3333.19 0.00700378V39.4064C3333.19 40.3885 3334.06 41.1395 3335.16 41.1395C3336.26 41.1395 3337.12 40.3885 3337.12 39.4064V0.00700378H3333.19ZM3340.3 0.00700378V46.9165C3340.3 47.8986 3341.17 48.6497 3342.26 48.6497C3343.36 48.6497 3344.23 47.8986 3344.23 46.9165V0.00700378H3340.3ZM3347.41 0.00700378V29.9321C3347.41 30.8564 3348.33 31.6652 3349.37 31.6652C3350.47 31.6652 3351.33 30.8564 3351.33 29.9321V0.00700378H3347.41ZM3354.51 0.00700378V32.9361C3354.51 33.9182 3355.44 34.6692 3356.48 34.6692C3357.57 34.6692 3358.44 33.9182 3358.44 32.9361V0.00700378H3354.51ZM3361.67 0.00700378V23.8084C3361.67 24.7905 3362.54 25.5415 3363.64 25.5415C3364.68 25.5415 3365.6 24.7905 3365.6 23.8084V0.00700378H3361.67ZM3368.78 0.00700378V15.5472C3368.78 16.4715 3369.65 17.2803 3370.74 17.2803C3371.84 17.2803 3372.71 16.4715 3372.71 15.5472V0.00700378H3368.78ZM3375.89 0.00700378V29.2966C3375.89 30.2787 3376.75 31.0297 3377.85 31.0297C3378.95 31.0297 3379.81 30.2787 3379.81 29.2966V0.00700378H3375.89ZM3382.99 0.00700378V31.3185C3382.99 32.3006 3383.86 33.0516 3384.96 33.0516C3386.05 33.0516 3386.92 32.3006 3386.92 31.3185V0.00700378H3382.99ZM3390.1 0.00700378V33.5716C3390.1 34.4959 3391.02 35.3047 3392.06 35.3047C3393.16 35.3047 3394.03 34.4959 3394.03 33.5716V0.00700378H3390.1ZM3397.26 0.00700378V35.3625C3397.26 36.3446 3398.13 37.0956 3399.23 37.0956C3400.27 37.0956 3401.19 36.3446 3401.19 35.3625V0.00700378H3397.26ZM3404.37 0.00700378V23.404C3404.37 24.3861 3405.23 25.1371 3406.33 25.1371C3407.37 25.1371 3408.3 24.3861 3408.3 23.404V0.00700378H3404.37ZM3411.47 0.00700378V18.7824C3411.47 19.7067 3412.34 20.5155 3413.44 20.5155C3414.53 20.5155 3415.4 19.7067 3415.4 18.7824V0.00700378H3411.47ZM3418.58 0.00700378V44.0858C3418.58 45.0679 3419.45 45.8189 3420.54 45.8189C3421.64 45.8189 3422.51 45.0679 3422.51 44.0858V0.00700378H3418.58ZM3425.68 0.00700378V35.3625C3425.68 36.3446 3426.55 37.0956 3427.65 37.0956C3428.75 37.0956 3429.61 36.3446 3429.61 35.3625V0.00700378H3425.68ZM3432.79 0.00700378V39.002C3432.79 39.9841 3433.71 40.7351 3434.75 40.7351C3435.85 40.7351 3436.72 39.9841 3436.72 39.002V0.00700378H3432.79ZM3439.95 0.00700378V43.1037C3439.95 44.028 3440.82 44.8368 3441.92 44.8368C3442.96 44.8368 3443.88 44.028 3443.88 43.1037V0.00700378H3439.95ZM3447.06 0.00700378V39.6375C3447.06 40.5618 3447.93 41.3706 3449.02 41.3706C3450.06 41.3706 3450.99 40.5618 3450.99 39.6375V0.00700378H3447.06ZM3454.17 0.00700378V46.9165C3454.17 47.8986 3455.03 48.6497 3456.13 48.6497C3457.23 48.6497 3458.09 47.8986 3458.09 46.9165V0.00700378H3454.17ZM3315.52 0.00700378V23.8084C3315.52 24.7905 3314.59 25.5415 3313.55 25.5415C3312.45 25.5415 3311.59 24.7905 3311.59 23.8084V0.00700378H3315.52ZM3308.35 0.00700378V37.7888C3308.35 38.7709 3307.49 39.5219 3306.39 39.5219C3305.35 39.5219 3304.42 38.7709 3304.42 37.7888V0.00700378H3308.35ZM3301.25 0.00700378V39.4064C3301.25 40.3885 3300.38 41.1395 3299.28 41.1395C3298.24 41.1395 3297.32 40.3885 3297.32 39.4064V0.00700378H3301.25ZM3294.14 0.00700378V46.9165C3294.14 47.8986 3293.27 48.6497 3292.18 48.6497C3291.08 48.6497 3290.21 47.8986 3290.21 46.9165V0.00700378H3294.14ZM3287.04 0.00700378V29.9321C3287.04 30.8564 3286.17 31.6652 3285.07 31.6652C3283.97 31.6652 3283.11 30.8564 3283.11 29.9321V0.00700378H3287.04ZM3279.93 0.00700378V32.9361C3279.93 33.9182 3279.01 34.6692 3277.97 34.6692C3276.87 34.6692 3276 33.9182 3276 32.9361V0.00700378H3279.93ZM3272.82 0.00700378V23.8084C3272.82 24.7905 3271.9 25.5415 3270.86 25.5415C3269.76 25.5415 3268.9 24.7905 3268.9 23.8084V0.00700378H3272.82ZM3265.66 0.00700378V15.5472C3265.66 16.4715 3264.79 17.2803 3263.7 17.2803C3262.66 17.2803 3261.73 16.4715 3261.73 15.5472V0.00700378H3265.66ZM3258.55 0.00700378V29.2966C3258.55 30.2787 3257.69 31.0297 3256.59 31.0297C3255.55 31.0297 3254.63 30.2787 3254.63 29.2966V0.00700378H3258.55ZM3251.45 0.00700378V31.3185C3251.45 32.3006 3250.58 33.0516 3249.48 33.0516C3248.39 33.0516 3247.52 32.3006 3247.52 31.3185V0.00700378H3251.45ZM3244.34 0.00700378V33.5716C3244.34 34.4959 3243.48 35.3047 3242.38 35.3047C3241.28 35.3047 3240.41 34.4959 3240.41 33.5716V0.00700378H3244.34ZM3237.24 0.00700378V35.3625C3237.24 36.3446 3236.31 37.0956 3235.27 37.0956C3234.18 37.0956 3233.31 36.3446 3233.31 35.3625V0.00700378H3237.24ZM3230.13 0.00700378V23.404C3230.13 24.3861 3229.21 25.1371 3228.17 25.1371C3227.07 25.1371 3226.2 24.3861 3226.2 23.404V0.00700378H3230.13ZM3222.97 0.00700378V18.7824C3222.97 19.7067 3222.1 20.5155 3221 20.5155C3219.96 20.5155 3219.04 19.7067 3219.04 18.7824V0.00700378H3222.97ZM3215.86 0.00700378V44.0858C3215.86 45.0679 3215 45.8189 3213.9 45.8189C3212.8 45.8189 3211.93 45.0679 3211.93 44.0858V0.00700378H3215.86ZM3208.76 0.00700378V35.3625C3208.76 36.3446 3207.89 37.0956 3206.79 37.0956C3205.69 37.0956 3204.83 36.3446 3204.83 35.3625V0.00700378H3208.76ZM3201.65 0.00700378V39.002C3201.65 39.9841 3200.78 40.7351 3199.69 40.7351C3198.59 40.7351 3197.72 39.9841 3197.72 39.002V0.00700378H3201.65ZM3194.54 0.00700378V43.1037C3194.54 44.028 3193.62 44.8368 3192.58 44.8368C3191.48 44.8368 3190.62 44.028 3190.62 43.1037V0.00700378H3194.54ZM3187.44 0.00700378V39.6375C3187.44 40.5618 3186.51 41.3706 3185.42 41.3706C3184.38 41.3706 3183.45 40.5618 3183.45 39.6375V0.00700378H3187.44ZM4031 0.00700378V46.9165C4031 47.8986 4031.87 48.6497 4032.96 48.6497C4034.06 48.6497 4034.93 47.8986 4034.93 46.9165V0.00700378H4031ZM4023.89 0.00700378V39.4064C4023.89 40.3885 4024.76 41.1395 4025.86 41.1395C4026.96 41.1395 4027.82 40.3885 4027.82 39.4064V0.00700378H4023.89ZM4016.79 0.00700378V37.7888C4016.79 38.7709 4017.65 39.5219 4018.75 39.5219C4019.79 39.5219 4020.72 38.7709 4020.72 37.7888V0.00700378H4016.79ZM4009.62 0.00700378V23.8084C4009.62 24.7905 4010.55 25.5415 4011.65 25.5415C4012.69 25.5415 4013.61 24.7905 4013.61 23.8084V0.00700378H4009.62ZM3870.98 0.00700378V46.9165C3870.98 47.8986 3870.11 48.6497 3869.01 48.6497C3867.97 48.6497 3867.05 47.8986 3867.05 46.9165V0.00700378H3870.98ZM3878.08 0.00700378V39.6375C3878.08 40.5618 3877.21 41.3706 3876.12 41.3706C3875.08 41.3706 3874.15 40.5618 3874.15 39.6375V0.00700378H3878.08ZM3885.24 0.00700378V43.1037C3885.24 44.028 3884.32 44.8368 3883.28 44.8368C3882.18 44.8368 3881.32 44.028 3881.32 43.1037V0.00700378H3885.24ZM3892.35 0.00700378V39.002C3892.35 39.9841 3891.43 40.7351 3890.39 40.7351C3889.29 40.7351 3888.42 39.9841 3888.42 39.002V0.00700378H3892.35ZM3899.46 0.00700378V35.3625C3899.46 36.3446 3898.59 37.0956 3897.49 37.0956C3896.39 37.0956 3895.53 36.3446 3895.53 35.3625V0.00700378H3899.46ZM3906.56 0.00700378V44.0858C3906.56 45.0679 3905.69 45.8189 3904.6 45.8189C3903.5 45.8189 3902.63 45.0679 3902.63 44.0858V0.00700378H3906.56ZM3913.67 0.00700378V18.7824C3913.67 19.7067 3912.8 20.5155 3911.7 20.5155C3910.66 20.5155 3909.74 19.7067 3909.74 18.7824V0.00700378H3913.67ZM3920.77 0.00700378V23.404C3920.77 24.3861 3919.91 25.1371 3918.81 25.1371C3917.77 25.1371 3916.84 24.3861 3916.84 23.404V0.00700378H3920.77ZM3927.94 0.00700378V35.3625C3927.94 36.3446 3927.01 37.0956 3925.97 37.0956C3924.87 37.0956 3924.01 36.3446 3924.01 35.3625V0.00700378H3927.94ZM3935.04 0.00700378V33.5716C3935.04 34.4959 3934.12 35.3047 3933.08 35.3047C3931.98 35.3047 3931.11 34.4959 3931.11 33.5716V0.00700378H3935.04ZM3942.15 0.00700378V31.3185C3942.15 32.3006 3941.28 33.0516 3940.18 33.0516C3939.09 33.0516 3938.22 32.3006 3938.22 31.3185V0.00700378H3942.15ZM3949.25 0.00700378V29.2966C3949.25 30.2787 3948.39 31.0297 3947.29 31.0297C3946.19 31.0297 3945.33 30.2787 3945.33 29.2966V0.00700378H3949.25ZM3956.36 0.00700378V15.5472C3956.36 16.4715 3955.49 17.2803 3954.4 17.2803C3953.36 17.2803 3952.43 16.4715 3952.43 15.5472V0.00700378H3956.36ZM3963.47 0.00700378V23.8084C3963.47 24.7905 3962.6 25.5415 3961.5 25.5415C3960.46 25.5415 3959.54 24.7905 3959.54 23.8084V0.00700378H3963.47ZM3970.63 0.00700378V32.9361C3970.63 33.9182 3969.7 34.6692 3968.66 34.6692C3967.57 34.6692 3966.7 33.9182 3966.7 32.9361V0.00700378H3970.63ZM3977.73 0.00700378V29.9321C3977.73 30.8564 3976.87 31.6652 3975.77 31.6652C3974.67 31.6652 3973.81 30.8564 3973.81 29.9321V0.00700378H3977.73ZM3984.84 0.00700378V46.9165C3984.84 47.8986 3983.97 48.6497 3982.88 48.6497C3981.78 48.6497 3980.91 47.8986 3980.91 46.9165V0.00700378H3984.84ZM3991.95 0.00700378V39.4064C3991.95 40.3885 3991.08 41.1395 3989.98 41.1395C3988.88 41.1395 3988.02 40.3885 3988.02 39.4064V0.00700378H3991.95ZM3999.05 0.00700378V37.7888C3999.05 38.7709 3998.19 39.5219 3997.09 39.5219C3996.05 39.5219 3995.12 38.7709 3995.12 37.7888V0.00700378H3999.05ZM4006.22 0.00700378V23.8084C4006.22 24.7905 4005.29 25.5415 4004.25 25.5415C4003.15 25.5415 4002.29 24.7905 4002.29 23.8084V0.00700378H4006.22ZM3860.06 0.00700378V29.2966C3860.06 30.2787 3860.92 31.0297 3862.02 31.0297C3863.12 31.0297 3863.98 30.2787 3863.98 29.2966V0.00700378H3860.06ZM3852.95 0.00700378V15.5472C3852.95 16.4715 3853.82 17.2803 3854.91 17.2803C3855.95 17.2803 3856.88 16.4715 3856.88 15.5472V0.00700378H3852.95ZM3845.84 0.00700378V23.8084C3845.84 24.7905 3846.71 25.5415 3847.81 25.5415C3848.85 25.5415 3849.77 24.7905 3849.77 23.8084V0.00700378H3845.84ZM3838.68 0.00700378V32.9361C3838.68 33.9182 3839.61 34.6692 3840.65 34.6692C3841.74 34.6692 3842.61 33.9182 3842.61 32.9361V0.00700378H3838.68ZM3831.58 0.00700378V29.9321C3831.58 30.8564 3832.44 31.6652 3833.54 31.6652C3834.64 31.6652 3835.5 30.8564 3835.5 29.9321V0.00700378H3831.58ZM3824.47 0.00700378V46.9165C3824.47 47.8986 3825.34 48.6497 3826.43 48.6497C3827.53 48.6497 3828.4 47.8986 3828.4 46.9165V0.00700378H3824.47ZM3817.36 0.00700378V39.4064C3817.36 40.3885 3818.23 41.1395 3819.33 41.1395C3820.43 41.1395 3821.29 40.3885 3821.29 39.4064V0.00700378H3817.36ZM3810.26 0.00700378V37.7888C3810.26 38.7709 3811.12 39.5219 3812.22 39.5219C3813.26 39.5219 3814.19 38.7709 3814.19 37.7888V0.00700378H3810.26ZM3803.09 0.00700378V23.8084C3803.09 24.7905 3804.02 25.5415 3805.06 25.5415C3806.16 25.5415 3807.02 24.7905 3807.02 23.8084V0.00700378H3803.09ZM3671.56 0.00700378V39.6375C3671.56 40.5618 3670.69 41.3706 3669.59 41.3706C3668.55 41.3706 3667.63 40.5618 3667.63 39.6375V0.00700378H3671.56ZM3678.72 0.00700378V43.1037C3678.72 44.028 3677.79 44.8368 3676.75 44.8368C3675.66 44.8368 3674.79 44.028 3674.79 43.1037V0.00700378H3678.72ZM3685.82 0.00700378V39.002C3685.82 39.9841 3684.9 40.7351 3683.86 40.7351C3682.76 40.7351 3681.9 39.9841 3681.9 39.002V0.00700378H3685.82ZM3692.93 0.00700378V35.3625C3692.93 36.3446 3692.06 37.0956 3690.97 37.0956C3689.87 37.0956 3689 36.3446 3689 35.3625V0.00700378H3692.93ZM3700.03 0.00700378V44.0858C3700.03 45.0679 3699.17 45.8189 3698.07 45.8189C3696.97 45.8189 3696.1 45.0679 3696.1 44.0858V0.00700378H3700.03ZM3707.14 0.00700378V18.7824C3707.14 19.7067 3706.27 20.5155 3705.17 20.5155C3704.13 20.5155 3703.21 19.7067 3703.21 18.7824V0.00700378H3707.14ZM3714.24 0.00700378V23.404C3714.24 24.3861 3713.38 25.1371 3712.28 25.1371C3711.24 25.1371 3710.32 24.3861 3710.32 23.404V0.00700378H3714.24ZM3721.41 0.00700378V35.3625C3721.41 36.3446 3720.48 37.0956 3719.44 37.0956C3718.35 37.0956 3717.48 36.3446 3717.48 35.3625V0.00700378H3721.41ZM3728.51 0.00700378V33.5716C3728.51 34.4959 3727.59 35.3047 3726.55 35.3047C3725.45 35.3047 3724.58 34.4959 3724.58 33.5716V0.00700378H3728.51ZM3735.62 0.00700378V31.3185C3735.62 32.3006 3734.75 33.0516 3733.65 33.0516C3732.56 33.0516 3731.69 32.3006 3731.69 31.3185V0.00700378H3735.62ZM3742.72 0.00700378V29.2966C3742.72 30.2787 3741.86 31.0297 3740.76 31.0297C3739.66 31.0297 3738.8 30.2787 3738.8 29.2966V0.00700378H3742.72ZM3749.83 0.00700378V15.5472C3749.83 16.4715 3748.96 17.2803 3747.87 17.2803C3746.83 17.2803 3745.9 16.4715 3745.9 15.5472V0.00700378H3749.83ZM3756.94 0.00700378V23.8084C3756.94 24.7905 3756.07 25.5415 3754.97 25.5415C3753.93 25.5415 3753.01 24.7905 3753.01 23.8084V0.00700378H3756.94ZM3764.1 0.00700378V32.9361C3764.1 33.9182 3763.18 34.6692 3762.14 34.6692C3761.04 34.6692 3760.17 33.9182 3760.17 32.9361V0.00700378H3764.1ZM3771.21 0.00700378V29.9321C3771.21 30.8564 3770.28 31.6652 3769.24 31.6652C3768.14 31.6652 3767.28 30.8564 3767.28 29.9321V0.00700378H3771.21ZM3778.31 0.00700378V46.9165C3778.31 47.8986 3777.44 48.6497 3776.35 48.6497C3775.25 48.6497 3774.38 47.8986 3774.38 46.9165V0.00700378H3778.31ZM3785.42 0.00700378V39.4064C3785.42 40.3885 3784.55 41.1395 3783.45 41.1395C3782.36 41.1395 3781.49 40.3885 3781.49 39.4064V0.00700378H3785.42ZM3792.52 0.00700378V37.7888C3792.52 38.7709 3791.66 39.5219 3790.56 39.5219C3789.52 39.5219 3788.59 38.7709 3788.59 37.7888V0.00700378H3792.52ZM3799.69 0.00700378V23.8084C3799.69 24.7905 3798.76 25.5415 3797.72 25.5415C3796.62 25.5415 3795.7 24.7905 3795.7 23.8084V0.00700378H3799.69Z" fill="#6E6E6E"/>
<path fill-rule="evenodd" clip-rule="evenodd" d="M1834.28 0.00700378V46.9165C1834.28 47.8986 1833.41 48.6497 1832.31 48.6497C1831.27 48.6497 1830.35 47.8986 1830.35 46.9165V0.00700378H1834.28ZM1485.11 0.00700378V23.8084C1485.11 24.7905 1484.24 25.5415 1483.15 25.5415C1482.05 25.5415 1481.18 24.7905 1481.18 23.8084V0.00700378H1485.11ZM1478.01 0.00700378V37.7888C1478.01 38.7709 1477.08 39.5219 1476.04 39.5219C1474.94 39.5219 1474.08 38.7709 1474.08 37.7888V0.00700378H1478.01ZM1470.84 0.00700378V39.4064C1470.84 40.3885 1469.98 41.1395 1468.88 41.1395C1467.84 41.1395 1466.91 40.3885 1466.91 39.4064V0.00700378H1470.84ZM1463.74 0.00700378V46.9165C1463.74 47.8986 1462.87 48.6497 1461.77 48.6497C1460.73 48.6497 1459.81 47.8986 1459.81 46.9165V0.00700378H1463.74ZM1456.63 0.00700378V29.9321C1456.63 30.8564 1455.76 31.6652 1454.67 31.6652C1453.57 31.6652 1452.7 30.8564 1452.7 29.9321V0.00700378H1456.63ZM1449.52 0.00700378V32.9361C1449.52 33.9182 1448.66 34.6692 1447.56 34.6692C1446.46 34.6692 1445.6 33.9182 1445.6 32.9361V0.00700378H1449.52ZM1442.42 0.00700378V23.8084C1442.42 24.7905 1441.55 25.5415 1440.45 25.5415C1439.36 25.5415 1438.49 24.7905 1438.49 23.8084V0.00700378H1442.42ZM1435.31 0.00700378V15.5472C1435.31 16.4715 1434.39 17.2803 1433.35 17.2803C1432.25 17.2803 1431.38 16.4715 1431.38 15.5472V0.00700378H1435.31ZM1428.15 0.00700378V29.2966C1428.15 30.2787 1427.28 31.0297 1426.19 31.0297C1425.15 31.0297 1424.22 30.2787 1424.22 29.2966V0.00700378H1428.15ZM1421.04 0.00700378V31.3185C1421.04 32.3006 1420.18 33.0516 1419.08 33.0516C1418.04 33.0516 1417.12 32.3006 1417.12 31.3185V0.00700378H1421.04ZM1413.94 0.00700378V33.5716C1413.94 34.4959 1413.07 35.3047 1411.97 35.3047C1410.88 35.3047 1410.01 34.4959 1410.01 33.5716V0.00700378H1413.94ZM1406.83 0.00700378V35.3625C1406.83 36.3446 1405.97 37.0956 1404.87 37.0956C1403.77 37.0956 1402.9 36.3446 1402.9 35.3625V0.00700378H1406.83ZM1399.73 0.00700378V23.404C1399.73 24.3861 1398.8 25.1371 1397.76 25.1371C1396.66 25.1371 1395.8 24.3861 1395.8 23.404V0.00700378H1399.73ZM1392.62 0.00700378V18.7824C1392.62 19.7067 1391.7 20.5155 1390.66 20.5155C1389.56 20.5155 1388.69 19.7067 1388.69 18.7824V0.00700378H1392.62ZM1385.46 0.00700378V44.0858C1385.46 45.0679 1384.59 45.8189 1383.49 45.8189C1382.45 45.8189 1381.53 45.0679 1381.53 44.0858V0.00700378H1385.46ZM1378.35 0.00700378V35.3625C1378.35 36.3446 1377.48 37.0956 1376.39 37.0956C1375.35 37.0956 1374.42 36.3446 1374.42 35.3625V0.00700378H1378.35ZM1371.25 0.00700378V39.002C1371.25 39.9841 1370.38 40.7351 1369.28 40.7351C1368.18 40.7351 1367.32 39.9841 1367.32 39.002V0.00700378H1371.25ZM1364.14 0.00700378V43.1037C1364.14 44.028 1363.27 44.8368 1362.18 44.8368C1361.08 44.8368 1360.21 44.028 1360.21 43.1037V0.00700378H1364.14ZM1357.03 0.00700378V39.6375C1357.03 40.5618 1356.11 41.3706 1355.07 41.3706C1353.97 41.3706 1353.11 40.5618 1353.11 39.6375V0.00700378H1357.03ZM1349.93 0.00700378V46.9165C1349.93 47.8986 1349 48.6497 1347.96 48.6497C1346.87 48.6497 1346 47.8986 1346 46.9165V0.00700378H1349.93ZM1488.58 0.00700378V23.8084C1488.58 24.7905 1489.44 25.5415 1490.54 25.5415C1491.64 25.5415 1492.51 24.7905 1492.51 23.8084V0.00700378H1488.58ZM1495.68 0.00700378V37.7888C1495.68 38.7709 1496.55 39.5219 1497.65 39.5219C1498.75 39.5219 1499.61 38.7709 1499.61 37.7888V0.00700378H1495.68ZM1502.79 0.00700378V39.4064C1502.79 40.3885 1503.66 41.1395 1504.75 41.1395C1505.85 41.1395 1506.72 40.3885 1506.72 39.4064V0.00700378H1502.79ZM1509.89 0.00700378V46.9165C1509.89 47.8986 1510.82 48.6497 1511.86 48.6497C1512.96 48.6497 1513.82 47.8986 1513.82 46.9165V0.00700378H1509.89ZM1517.06 0.00700378V29.9321C1517.06 30.8564 1517.92 31.6652 1519.02 31.6652C1520.06 31.6652 1520.99 30.8564 1520.99 29.9321V0.00700378H1517.06ZM1524.16 0.00700378V32.9361C1524.16 33.9182 1525.03 34.6692 1526.13 34.6692C1527.17 34.6692 1528.09 33.9182 1528.09 32.9361V0.00700378H1524.16ZM1531.27 0.00700378V23.8084C1531.27 24.7905 1532.14 25.5415 1533.23 25.5415C1534.33 25.5415 1535.2 24.7905 1535.2 23.8084V0.00700378H1531.27ZM1538.38 0.00700378V15.5472C1538.38 16.4715 1539.24 17.2803 1540.34 17.2803C1541.44 17.2803 1542.3 16.4715 1542.3 15.5472V0.00700378H1538.38ZM1545.48 0.00700378V29.2966C1545.48 30.2787 1546.41 31.0297 1547.45 31.0297C1548.54 31.0297 1549.41 30.2787 1549.41 29.2966V0.00700378H1545.48ZM1691.64 0.00700378V23.8084C1691.64 24.7905 1690.77 25.5415 1689.68 25.5415C1688.58 25.5415 1687.71 24.7905 1687.71 23.8084V0.00700378H1691.64ZM1684.53 0.00700378V37.7888C1684.53 38.7709 1683.61 39.5219 1682.57 39.5219C1681.47 39.5219 1680.61 38.7709 1680.61 37.7888V0.00700378H1684.53ZM1677.43 0.00700378V39.4064C1677.43 40.3885 1676.5 41.1395 1675.46 41.1395C1674.37 41.1395 1673.44 40.3885 1673.44 39.4064V0.00700378H1677.43ZM1670.27 0.00700378V46.9165C1670.27 47.8986 1669.4 48.6497 1668.3 48.6497C1667.26 48.6497 1666.34 47.8986 1666.34 46.9165V0.00700378H1670.27ZM1663.16 0.00700378V29.9321C1663.16 30.8564 1662.29 31.6652 1661.2 31.6652C1660.1 31.6652 1659.23 30.8564 1659.23 29.9321V0.00700378H1663.16ZM1656.05 0.00700378V32.9361C1656.05 33.9182 1655.19 34.6692 1654.09 34.6692C1652.99 34.6692 1652.13 33.9182 1652.13 32.9361V0.00700378H1656.05ZM1648.95 0.00700378V23.8084C1648.95 24.7905 1648.08 25.5415 1646.98 25.5415C1645.89 25.5415 1645.02 24.7905 1645.02 23.8084V0.00700378H1648.95ZM1641.84 0.00700378V15.5472C1641.84 16.4715 1640.92 17.2803 1639.88 17.2803C1638.78 17.2803 1637.91 16.4715 1637.91 15.5472V0.00700378H1641.84ZM1634.68 0.00700378V29.2966C1634.68 30.2787 1633.81 31.0297 1632.71 31.0297C1631.67 31.0297 1630.75 30.2787 1630.75 29.2966V0.00700378H1634.68ZM1627.57 0.00700378V31.3185C1627.57 32.3006 1626.71 33.0516 1625.61 33.0516C1624.57 33.0516 1623.64 32.3006 1623.64 31.3185V0.00700378H1627.57ZM1620.47 0.00700378V33.5716C1620.47 34.4959 1619.6 35.3047 1618.5 35.3047C1617.41 35.3047 1616.54 34.4959 1616.54 33.5716V0.00700378H1620.47ZM1613.36 0.00700378V35.3625C1613.36 36.3446 1612.49 37.0956 1611.4 37.0956C1610.3 37.0956 1609.43 36.3446 1609.43 35.3625V0.00700378H1613.36ZM1606.26 0.00700378V23.404C1606.26 24.3861 1605.33 25.1371 1604.29 25.1371C1603.19 25.1371 1602.33 24.3861 1602.33 23.404V0.00700378H1606.26ZM1599.15 0.00700378V18.7824C1599.15 19.7067 1598.23 20.5155 1597.19 20.5155C1596.09 20.5155 1595.22 19.7067 1595.22 18.7824V0.00700378H1599.15ZM1591.99 0.00700378V44.0858C1591.99 45.0679 1591.12 45.8189 1590.02 45.8189C1588.98 45.8189 1588.06 45.0679 1588.06 44.0858V0.00700378H1591.99ZM1584.88 0.00700378V35.3625C1584.88 36.3446 1584.01 37.0956 1582.92 37.0956C1581.88 37.0956 1580.95 36.3446 1580.95 35.3625V0.00700378H1584.88ZM1577.77 0.00700378V39.002C1577.77 39.9841 1576.91 40.7351 1575.81 40.7351C1574.71 40.7351 1573.85 39.9841 1573.85 39.002V0.00700378H1577.77ZM1570.67 0.00700378V43.1037C1570.67 44.028 1569.8 44.8368 1568.71 44.8368C1567.61 44.8368 1566.74 44.028 1566.74 43.1037V0.00700378H1570.67ZM1563.56 0.00700378V39.6375C1563.56 40.5618 1562.64 41.3706 1561.6 41.3706C1560.5 41.3706 1559.64 40.5618 1559.64 39.6375V0.00700378H1563.56ZM1556.46 0.00700378V46.9165C1556.46 47.8986 1555.53 48.6497 1554.49 48.6497C1553.4 48.6497 1552.53 47.8986 1552.53 46.9165V0.00700378H1556.46ZM1695.11 0.00700378V23.8084C1695.11 24.7905 1695.97 25.5415 1697.07 25.5415C1698.17 25.5415 1699.04 24.7905 1699.04 23.8084V0.00700378H1695.11ZM1702.21 0.00700378V37.7888C1702.21 38.7709 1703.08 39.5219 1704.18 39.5219C1705.27 39.5219 1706.14 38.7709 1706.14 37.7888V0.00700378H1702.21ZM1709.32 0.00700378V39.4064C1709.32 40.3885 1710.18 41.1395 1711.28 41.1395C1712.38 41.1395 1713.25 40.3885 1713.25 39.4064V0.00700378H1709.32ZM1716.42 0.00700378V46.9165C1716.42 47.8986 1717.35 48.6497 1718.39 48.6497C1719.49 48.6497 1720.35 47.8986 1720.35 46.9165V0.00700378H1716.42ZM1723.59 0.00700378V29.9321C1723.59 30.8564 1724.45 31.6652 1725.55 31.6652C1726.59 31.6652 1727.52 30.8564 1727.52 29.9321V0.00700378H1723.59ZM1730.69 0.00700378V32.9361C1730.69 33.9182 1731.56 34.6692 1732.66 34.6692C1733.7 34.6692 1734.62 33.9182 1734.62 32.9361V0.00700378H1730.69ZM1737.8 0.00700378V23.8084C1737.8 24.7905 1738.67 25.5415 1739.76 25.5415C1740.86 25.5415 1741.73 24.7905 1741.73 23.8084V0.00700378H1737.8ZM1744.9 0.00700378V15.5472C1744.9 16.4715 1745.77 17.2803 1746.87 17.2803C1747.97 17.2803 1748.83 16.4715 1748.83 15.5472V0.00700378H1744.9ZM1752.01 0.00700378V29.2966C1752.01 30.2787 1752.93 31.0297 1753.97 31.0297C1755.07 31.0297 1755.94 30.2787 1755.94 29.2966V0.00700378H1752.01ZM1759.12 0.00700378V31.3185C1759.12 32.3006 1760.04 33.0516 1761.08 33.0516C1762.18 33.0516 1763.04 32.3006 1763.04 31.3185V0.00700378H1759.12ZM1766.28 0.00700378V33.5716C1766.28 34.4959 1767.15 35.3047 1768.24 35.3047C1769.28 35.3047 1770.21 34.4959 1770.21 33.5716V0.00700378H1766.28ZM1773.39 0.00700378V35.3625C1773.39 36.3446 1774.25 37.0956 1775.35 37.0956C1776.39 37.0956 1777.31 36.3446 1777.31 35.3625V0.00700378H1773.39ZM1780.49 0.00700378V23.404C1780.49 24.3861 1781.36 25.1371 1782.46 25.1371C1783.55 25.1371 1784.42 24.3861 1784.42 23.404V0.00700378H1780.49ZM1787.6 0.00700378V18.7824C1787.6 19.7067 1788.46 20.5155 1789.56 20.5155C1790.66 20.5155 1791.53 19.7067 1791.53 18.7824V0.00700378H1787.6ZM1794.7 0.00700378V44.0858C1794.7 45.0679 1795.63 45.8189 1796.67 45.8189C1797.76 45.8189 1798.63 45.0679 1798.63 44.0858V0.00700378H1794.7ZM1801.81 0.00700378V35.3625C1801.81 36.3446 1802.73 37.0956 1803.77 37.0956C1804.87 37.0956 1805.74 36.3446 1805.74 35.3625V0.00700378H1801.81ZM1808.97 0.00700378V39.002C1808.97 39.9841 1809.84 40.7351 1810.94 40.7351C1811.98 40.7351 1812.9 39.9841 1812.9 39.002V0.00700378H1808.97ZM1816.08 0.00700378V43.1037C1816.08 44.028 1816.94 44.8368 1818.04 44.8368C1819.08 44.8368 1820.01 44.028 1820.01 43.1037V0.00700378H1816.08ZM1823.18 0.00700378V39.6375C1823.18 40.5618 1824.05 41.3706 1825.15 41.3706C1826.25 41.3706 1827.11 40.5618 1827.11 39.6375V0.00700378H1823.18ZM2179.51 0.00700378V23.8084C2179.51 24.7905 2180.38 25.5415 2181.48 25.5415C2182.52 25.5415 2183.44 24.7905 2183.44 23.8084V0.00700378H2179.51ZM2186.62 0.00700378V37.7888C2186.62 38.7709 2187.48 39.5219 2188.58 39.5219C2189.62 39.5219 2190.55 38.7709 2190.55 37.7888V0.00700378H2186.62ZM2193.72 0.00700378V39.4064C2193.72 40.3885 2194.59 41.1395 2195.69 41.1395C2196.78 41.1395 2197.65 40.3885 2197.65 39.4064V0.00700378H2193.72ZM2200.83 0.00700378V46.9165C2200.83 47.8986 2201.7 48.6497 2202.79 48.6497C2203.89 48.6497 2204.76 47.8986 2204.76 46.9165V0.00700378H2200.83ZM2207.93 0.00700378V29.9321C2207.93 30.8564 2208.86 31.6652 2209.9 31.6652C2211 31.6652 2211.86 30.8564 2211.86 29.9321V0.00700378H2207.93ZM2215.04 0.00700378V32.9361C2215.04 33.9182 2215.96 34.6692 2217 34.6692C2218.1 34.6692 2218.97 33.9182 2218.97 32.9361V0.00700378H2215.04ZM2222.2 0.00700378V23.8084C2222.2 24.7905 2223.07 25.5415 2224.17 25.5415C2225.21 25.5415 2226.13 24.7905 2226.13 23.8084V0.00700378H2222.2ZM2229.31 0.00700378V15.5472C2229.31 16.4715 2230.18 17.2803 2231.27 17.2803C2232.37 17.2803 2233.24 16.4715 2233.24 15.5472V0.00700378H2229.31ZM2236.42 0.00700378V29.2966C2236.42 30.2787 2237.28 31.0297 2238.38 31.0297C2239.48 31.0297 2240.34 30.2787 2240.34 29.2966V0.00700378H2236.42ZM2243.52 0.00700378V31.3185C2243.52 32.3006 2244.39 33.0516 2245.49 33.0516C2246.58 33.0516 2247.45 32.3006 2247.45 31.3185V0.00700378H2243.52ZM2250.63 0.00700378V33.5716C2250.63 34.4959 2251.55 35.3047 2252.59 35.3047C2253.69 35.3047 2254.56 34.4959 2254.56 33.5716V0.00700378H2250.63ZM2257.79 0.00700378V35.3625C2257.79 36.3446 2258.66 37.0956 2259.75 37.0956C2260.79 37.0956 2261.72 36.3446 2261.72 35.3625V0.00700378H2257.79ZM2264.9 0.00700378V23.404C2264.9 24.3861 2265.76 25.1371 2266.86 25.1371C2267.9 25.1371 2268.82 24.3861 2268.82 23.404V0.00700378H2264.9ZM2272 0.00700378V18.7824C2272 19.7067 2272.87 20.5155 2273.97 20.5155C2275.06 20.5155 2275.93 19.7067 2275.93 18.7824V0.00700378H2272ZM2279.11 0.00700378V44.0858C2279.11 45.0679 2279.97 45.8189 2281.07 45.8189C2282.17 45.8189 2283.04 45.0679 2283.04 44.0858V0.00700378H2279.11ZM2286.21 0.00700378V35.3625C2286.21 36.3446 2287.14 37.0956 2288.18 37.0956C2289.28 37.0956 2290.14 36.3446 2290.14 35.3625V0.00700378H2286.21ZM2293.32 0.00700378V39.002C2293.32 39.9841 2294.24 40.7351 2295.28 40.7351C2296.38 40.7351 2297.25 39.9841 2297.25 39.002V0.00700378H2293.32ZM2300.48 0.00700378V43.1037C2300.48 44.028 2301.35 44.8368 2302.45 44.8368C2303.49 44.8368 2304.41 44.028 2304.41 43.1037V0.00700378H2300.48ZM2307.59 0.00700378V39.6375C2307.59 40.5618 2308.45 41.3706 2309.55 41.3706C2310.59 41.3706 2311.52 40.5618 2311.52 39.6375V0.00700378H2307.59ZM2314.69 0.00700378V46.9165C2314.69 47.8986 2315.56 48.6497 2316.66 48.6497C2317.76 48.6497 2318.62 47.8986 2318.62 46.9165V0.00700378H2314.69ZM2176.05 0.00700378V23.8084C2176.05 24.7905 2175.12 25.5415 2174.08 25.5415C2172.98 25.5415 2172.12 24.7905 2172.12 23.8084V0.00700378H2176.05ZM2168.88 0.00700378V37.7888C2168.88 38.7709 2168.02 39.5219 2166.92 39.5219C2165.88 39.5219 2164.95 38.7709 2164.95 37.7888V0.00700378H2168.88ZM2161.78 0.00700378V39.4064C2161.78 40.3885 2160.91 41.1395 2159.81 41.1395C2158.77 41.1395 2157.85 40.3885 2157.85 39.4064V0.00700378H2161.78ZM2154.67 0.00700378V46.9165C2154.67 47.8986 2153.8 48.6497 2152.71 48.6497C2151.61 48.6497 2150.74 47.8986 2150.74 46.9165V0.00700378H2154.67ZM2147.56 0.00700378V29.9321C2147.56 30.8564 2146.7 31.6652 2145.6 31.6652C2144.5 31.6652 2143.64 30.8564 2143.64 29.9321V0.00700378H2147.56ZM2140.46 0.00700378V32.9361C2140.46 33.9182 2139.53 34.6692 2138.49 34.6692C2137.4 34.6692 2136.53 33.9182 2136.53 32.9361V0.00700378H2140.46ZM2133.35 0.00700378V23.8084C2133.35 24.7905 2132.43 25.5415 2131.39 25.5415C2130.29 25.5415 2129.42 24.7905 2129.42 23.8084V0.00700378H2133.35ZM2126.19 0.00700378V15.5472C2126.19 16.4715 2125.32 17.2803 2124.23 17.2803C2123.19 17.2803 2122.26 16.4715 2122.26 15.5472V0.00700378H2126.19ZM2119.08 0.00700378V29.2966C2119.08 30.2787 2118.22 31.0297 2117.12 31.0297C2116.08 31.0297 2115.16 30.2787 2115.16 29.2966V0.00700378H2119.08ZM1972.98 0.00700378V23.8084C1972.98 24.7905 1973.85 25.5415 1974.95 25.5415C1975.99 25.5415 1976.91 24.7905 1976.91 23.8084V0.00700378H1972.98ZM1980.09 0.00700378V37.7888C1980.09 38.7709 1980.95 39.5219 1982.05 39.5219C1983.09 39.5219 1984.02 38.7709 1984.02 37.7888V0.00700378H1980.09ZM1987.19 0.00700378V39.4064C1987.19 40.3885 1988.06 41.1395 1989.16 41.1395C1990.26 41.1395 1991.12 40.3885 1991.12 39.4064V0.00700378H1987.19ZM1994.3 0.00700378V46.9165C1994.3 47.8986 1995.17 48.6497 1996.26 48.6497C1997.36 48.6497 1998.23 47.8986 1998.23 46.9165V0.00700378H1994.3ZM2001.41 0.00700378V29.9321C2001.41 30.8564 2002.33 31.6652 2003.37 31.6652C2004.47 31.6652 2005.33 30.8564 2005.33 29.9321V0.00700378H2001.41ZM2008.51 0.00700378V32.9361C2008.51 33.9182 2009.44 34.6692 2010.48 34.6692C2011.57 34.6692 2012.44 33.9182 2012.44 32.9361V0.00700378H2008.51ZM2015.67 0.00700378V23.8084C2015.67 24.7905 2016.54 25.5415 2017.64 25.5415C2018.68 25.5415 2019.6 24.7905 2019.6 23.8084V0.00700378H2015.67ZM2022.78 0.00700378V15.5472C2022.78 16.4715 2023.65 17.2803 2024.74 17.2803C2025.84 17.2803 2026.71 16.4715 2026.71 15.5472V0.00700378H2022.78ZM2029.89 0.00700378V29.2966C2029.89 30.2787 2030.75 31.0297 2031.85 31.0297C2032.95 31.0297 2033.81 30.2787 2033.81 29.2966V0.00700378H2029.89ZM2036.99 0.00700378V31.3185C2036.99 32.3006 2037.86 33.0516 2038.96 33.0516C2040.05 33.0516 2040.92 32.3006 2040.92 31.3185V0.00700378H2036.99ZM2044.1 0.00700378V33.5716C2044.1 34.4959 2045.02 35.3047 2046.06 35.3047C2047.16 35.3047 2048.03 34.4959 2048.03 33.5716V0.00700378H2044.1ZM2051.26 0.00700378V35.3625C2051.26 36.3446 2052.13 37.0956 2053.23 37.0956C2054.27 37.0956 2055.19 36.3446 2055.19 35.3625V0.00700378H2051.26ZM2058.37 0.00700378V23.404C2058.37 24.3861 2059.23 25.1371 2060.33 25.1371C2061.37 25.1371 2062.3 24.3861 2062.3 23.404V0.00700378H2058.37ZM2065.47 0.00700378V18.7824C2065.47 19.7067 2066.34 20.5155 2067.44 20.5155C2068.53 20.5155 2069.4 19.7067 2069.4 18.7824V0.00700378H2065.47ZM2072.58 0.00700378V44.0858C2072.58 45.0679 2073.45 45.8189 2074.54 45.8189C2075.64 45.8189 2076.51 45.0679 2076.51 44.0858V0.00700378H2072.58ZM2079.68 0.00700378V35.3625C2079.68 36.3446 2080.55 37.0956 2081.65 37.0956C2082.75 37.0956 2083.61 36.3446 2083.61 35.3625V0.00700378H2079.68ZM2086.79 0.00700378V39.002C2086.79 39.9841 2087.71 40.7351 2088.75 40.7351C2089.85 40.7351 2090.72 39.9841 2090.72 39.002V0.00700378H2086.79ZM2093.95 0.00700378V43.1037C2093.95 44.028 2094.82 44.8368 2095.92 44.8368C2096.96 44.8368 2097.88 44.028 2097.88 43.1037V0.00700378H2093.95ZM2101.06 0.00700378V39.6375C2101.06 40.5618 2101.93 41.3706 2103.02 41.3706C2104.06 41.3706 2104.99 40.5618 2104.99 39.6375V0.00700378H2101.06ZM2108.17 0.00700378V46.9165C2108.17 47.8986 2109.03 48.6497 2110.13 48.6497C2111.23 48.6497 2112.09 47.8986 2112.09 46.9165V0.00700378H2108.17ZM1969.52 0.00700378V23.8084C1969.52 24.7905 1968.59 25.5415 1967.55 25.5415C1966.45 25.5415 1965.59 24.7905 1965.59 23.8084V0.00700378H1969.52ZM1962.35 0.00700378V37.7888C1962.35 38.7709 1961.49 39.5219 1960.39 39.5219C1959.35 39.5219 1958.42 38.7709 1958.42 37.7888V0.00700378H1962.35ZM1955.25 0.00700378V39.4064C1955.25 40.3885 1954.38 41.1395 1953.28 41.1395C1952.24 41.1395 1951.32 40.3885 1951.32 39.4064V0.00700378H1955.25ZM1948.14 0.00700378V46.9165C1948.14 47.8986 1947.27 48.6497 1946.18 48.6497C1945.08 48.6497 1944.21 47.8986 1944.21 46.9165V0.00700378H1948.14ZM1941.04 0.00700378V29.9321C1941.04 30.8564 1940.17 31.6652 1939.07 31.6652C1937.97 31.6652 1937.11 30.8564 1937.11 29.9321V0.00700378H1941.04ZM1933.93 0.00700378V32.9361C1933.93 33.9182 1933.01 34.6692 1931.97 34.6692C1930.87 34.6692 1930 33.9182 1930 32.9361V0.00700378H1933.93ZM1926.82 0.00700378V23.8084C1926.82 24.7905 1925.9 25.5415 1924.86 25.5415C1923.76 25.5415 1922.9 24.7905 1922.9 23.8084V0.00700378H1926.82ZM1919.66 0.00700378V15.5472C1919.66 16.4715 1918.79 17.2803 1917.7 17.2803C1916.66 17.2803 1915.73 16.4715 1915.73 15.5472V0.00700378H1919.66ZM1912.55 0.00700378V29.2966C1912.55 30.2787 1911.69 31.0297 1910.59 31.0297C1909.55 31.0297 1908.63 30.2787 1908.63 29.2966V0.00700378H1912.55ZM1905.45 0.00700378V31.3185C1905.45 32.3006 1904.58 33.0516 1903.48 33.0516C1902.39 33.0516 1901.52 32.3006 1901.52 31.3185V0.00700378H1905.45ZM1898.34 0.00700378V33.5716C1898.34 34.4959 1897.48 35.3047 1896.38 35.3047C1895.28 35.3047 1894.41 34.4959 1894.41 33.5716V0.00700378H1898.34ZM1891.24 0.00700378V35.3625C1891.24 36.3446 1890.31 37.0956 1889.27 37.0956C1888.18 37.0956 1887.31 36.3446 1887.31 35.3625V0.00700378H1891.24ZM1884.13 0.00700378V23.404C1884.13 24.3861 1883.21 25.1371 1882.17 25.1371C1881.07 25.1371 1880.2 24.3861 1880.2 23.404V0.00700378H1884.13ZM1876.97 0.00700378V18.7824C1876.97 19.7067 1876.1 20.5155 1875 20.5155C1873.96 20.5155 1873.04 19.7067 1873.04 18.7824V0.00700378H1876.97ZM1869.86 0.00700378V44.0858C1869.86 45.0679 1869 45.8189 1867.9 45.8189C1866.8 45.8189 1865.93 45.0679 1865.93 44.0858V0.00700378H1869.86ZM1862.76 0.00700378V35.3625C1862.76 36.3446 1861.89 37.0956 1860.79 37.0956C1859.69 37.0956 1858.83 36.3446 1858.83 35.3625V0.00700378H1862.76ZM1855.65 0.00700378V39.002C1855.65 39.9841 1854.78 40.7351 1853.69 40.7351C1852.59 40.7351 1851.72 39.9841 1851.72 39.002V0.00700378H1855.65ZM1848.54 0.00700378V43.1037C1848.54 44.028 1847.62 44.8368 1846.58 44.8368C1845.48 44.8368 1844.62 44.028 1844.62 43.1037V0.00700378H1848.54ZM1841.44 0.00700378V39.6375C1841.44 40.5618 1840.51 41.3706 1839.42 41.3706C1838.38 41.3706 1837.45 40.5618 1837.45 39.6375V0.00700378H1841.44ZM2685 0.00700378V46.9165C2685 47.8986 2685.87 48.6497 2686.96 48.6497C2688.06 48.6497 2688.93 47.8986 2688.93 46.9165V0.00700378H2685ZM2677.89 0.00700378V39.4064C2677.89 40.3885 2678.76 41.1395 2679.86 41.1395C2680.96 41.1395 2681.82 40.3885 2681.82 39.4064V0.00700378H2677.89ZM2670.79 0.00700378V37.7888C2670.79 38.7709 2671.65 39.5219 2672.75 39.5219C2673.79 39.5219 2674.72 38.7709 2674.72 37.7888V0.00700378H2670.79ZM2663.62 0.00700378V23.8084C2663.62 24.7905 2664.55 25.5415 2665.65 25.5415C2666.69 25.5415 2667.61 24.7905 2667.61 23.8084V0.00700378H2663.62ZM2524.98 0.00700378V46.9165C2524.98 47.8986 2524.11 48.6497 2523.01 48.6497C2521.97 48.6497 2521.05 47.8986 2521.05 46.9165V0.00700378H2524.98ZM2532.08 0.00700378V39.6375C2532.08 40.5618 2531.21 41.3706 2530.12 41.3706C2529.08 41.3706 2528.15 40.5618 2528.15 39.6375V0.00700378H2532.08ZM2539.24 0.00700378V43.1037C2539.24 44.028 2538.32 44.8368 2537.28 44.8368C2536.18 44.8368 2535.32 44.028 2535.32 43.1037V0.00700378H2539.24ZM2546.35 0.00700378V39.002C2546.35 39.9841 2545.43 40.7351 2544.39 40.7351C2543.29 40.7351 2542.42 39.9841 2542.42 39.002V0.00700378H2546.35ZM2553.46 0.00700378V35.3625C2553.46 36.3446 2552.59 37.0956 2551.49 37.0956C2550.39 37.0956 2549.53 36.3446 2549.53 35.3625V0.00700378H2553.46ZM2560.56 0.00700378V44.0858C2560.56 45.0679 2559.69 45.8189 2558.6 45.8189C2557.5 45.8189 2556.63 45.0679 2556.63 44.0858V0.00700378H2560.56ZM2567.67 0.00700378V18.7824C2567.67 19.7067 2566.8 20.5155 2565.7 20.5155C2564.66 20.5155 2563.74 19.7067 2563.74 18.7824V0.00700378H2567.67ZM2574.77 0.00700378V23.404C2574.77 24.3861 2573.91 25.1371 2572.81 25.1371C2571.77 25.1371 2570.84 24.3861 2570.84 23.404V0.00700378H2574.77ZM2581.94 0.00700378V35.3625C2581.94 36.3446 2581.01 37.0956 2579.97 37.0956C2578.87 37.0956 2578.01 36.3446 2578.01 35.3625V0.00700378H2581.94ZM2589.04 0.00700378V33.5716C2589.04 34.4959 2588.12 35.3047 2587.08 35.3047C2585.98 35.3047 2585.11 34.4959 2585.11 33.5716V0.00700378H2589.04ZM2596.15 0.00700378V31.3185C2596.15 32.3006 2595.28 33.0516 2594.18 33.0516C2593.09 33.0516 2592.22 32.3006 2592.22 31.3185V0.00700378H2596.15ZM2603.25 0.00700378V29.2966C2603.25 30.2787 2602.39 31.0297 2601.29 31.0297C2600.19 31.0297 2599.33 30.2787 2599.33 29.2966V0.00700378H2603.25ZM2610.36 0.00700378V15.5472C2610.36 16.4715 2609.49 17.2803 2608.4 17.2803C2607.36 17.2803 2606.43 16.4715 2606.43 15.5472V0.00700378H2610.36ZM2617.47 0.00700378V23.8084C2617.47 24.7905 2616.6 25.5415 2615.5 25.5415C2614.46 25.5415 2613.54 24.7905 2613.54 23.8084V0.00700378H2617.47ZM2624.63 0.00700378V32.9361C2624.63 33.9182 2623.7 34.6692 2622.66 34.6692C2621.57 34.6692 2620.7 33.9182 2620.7 32.9361V0.00700378H2624.63ZM2631.73 0.00700378V29.9321C2631.73 30.8564 2630.87 31.6652 2629.77 31.6652C2628.67 31.6652 2627.81 30.8564 2627.81 29.9321V0.00700378H2631.73ZM2638.84 0.00700378V46.9165C2638.84 47.8986 2637.97 48.6497 2636.88 48.6497C2635.78 48.6497 2634.91 47.8986 2634.91 46.9165V0.00700378H2638.84ZM2645.95 0.00700378V39.4064C2645.95 40.3885 2645.08 41.1395 2643.98 41.1395C2642.88 41.1395 2642.02 40.3885 2642.02 39.4064V0.00700378H2645.95ZM2653.05 0.00700378V37.7888C2653.05 38.7709 2652.19 39.5219 2651.09 39.5219C2650.05 39.5219 2649.12 38.7709 2649.12 37.7888V0.00700378H2653.05ZM2660.22 0.00700378V23.8084C2660.22 24.7905 2659.29 25.5415 2658.25 25.5415C2657.15 25.5415 2656.29 24.7905 2656.29 23.8084V0.00700378H2660.22ZM2514.06 0.00700378V29.2966C2514.06 30.2787 2514.92 31.0297 2516.02 31.0297C2517.12 31.0297 2517.98 30.2787 2517.98 29.2966V0.00700378H2514.06ZM2506.95 0.00700378V15.5472C2506.95 16.4715 2507.82 17.2803 2508.91 17.2803C2509.95 17.2803 2510.88 16.4715 2510.88 15.5472V0.00700378H2506.95ZM2499.84 0.00700378V23.8084C2499.84 24.7905 2500.71 25.5415 2501.81 25.5415C2502.85 25.5415 2503.77 24.7905 2503.77 23.8084V0.00700378H2499.84ZM2492.68 0.00700378V32.9361C2492.68 33.9182 2493.61 34.6692 2494.65 34.6692C2495.74 34.6692 2496.61 33.9182 2496.61 32.9361V0.00700378H2492.68ZM2485.58 0.00700378V29.9321C2485.58 30.8564 2486.44 31.6652 2487.54 31.6652C2488.64 31.6652 2489.5 30.8564 2489.5 29.9321V0.00700378H2485.58ZM2478.47 0.00700378V46.9165C2478.47 47.8986 2479.34 48.6497 2480.43 48.6497C2481.53 48.6497 2482.4 47.8986 2482.4 46.9165V0.00700378H2478.47ZM2471.36 0.00700378V39.4064C2471.36 40.3885 2472.23 41.1395 2473.33 41.1395C2474.43 41.1395 2475.29 40.3885 2475.29 39.4064V0.00700378H2471.36ZM2464.26 0.00700378V37.7888C2464.26 38.7709 2465.12 39.5219 2466.22 39.5219C2467.26 39.5219 2468.19 38.7709 2468.19 37.7888V0.00700378H2464.26ZM2457.09 0.00700378V23.8084C2457.09 24.7905 2458.02 25.5415 2459.06 25.5415C2460.16 25.5415 2461.02 24.7905 2461.02 23.8084V0.00700378H2457.09ZM2325.56 0.00700378V39.6375C2325.56 40.5618 2324.69 41.3706 2323.59 41.3706C2322.55 41.3706 2321.63 40.5618 2321.63 39.6375V0.00700378H2325.56ZM2332.72 0.00700378V43.1037C2332.72 44.028 2331.79 44.8368 2330.75 44.8368C2329.66 44.8368 2328.79 44.028 2328.79 43.1037V0.00700378H2332.72ZM2339.82 0.00700378V39.002C2339.82 39.9841 2338.9 40.7351 2337.86 40.7351C2336.76 40.7351 2335.9 39.9841 2335.9 39.002V0.00700378H2339.82ZM2346.93 0.00700378V35.3625C2346.93 36.3446 2346.06 37.0956 2344.97 37.0956C2343.87 37.0956 2343 36.3446 2343 35.3625V0.00700378H2346.93ZM2354.03 0.00700378V44.0858C2354.03 45.0679 2353.17 45.8189 2352.07 45.8189C2350.97 45.8189 2350.1 45.0679 2350.1 44.0858V0.00700378H2354.03ZM2361.14 0.00700378V18.7824C2361.14 19.7067 2360.27 20.5155 2359.17 20.5155C2358.13 20.5155 2357.21 19.7067 2357.21 18.7824V0.00700378H2361.14ZM2368.24 0.00700378V23.404C2368.24 24.3861 2367.38 25.1371 2366.28 25.1371C2365.24 25.1371 2364.32 24.3861 2364.32 23.404V0.00700378H2368.24ZM2375.41 0.00700378V35.3625C2375.41 36.3446 2374.48 37.0956 2373.44 37.0956C2372.35 37.0956 2371.48 36.3446 2371.48 35.3625V0.00700378H2375.41ZM2382.51 0.00700378V33.5716C2382.51 34.4959 2381.59 35.3047 2380.55 35.3047C2379.45 35.3047 2378.58 34.4959 2378.58 33.5716V0.00700378H2382.51ZM2389.62 0.00700378V31.3185C2389.62 32.3006 2388.75 33.0516 2387.65 33.0516C2386.56 33.0516 2385.69 32.3006 2385.69 31.3185V0.00700378H2389.62ZM2396.72 0.00700378V29.2966C2396.72 30.2787 2395.86 31.0297 2394.76 31.0297C2393.66 31.0297 2392.8 30.2787 2392.8 29.2966V0.00700378H2396.72ZM2403.83 0.00700378V15.5472C2403.83 16.4715 2402.96 17.2803 2401.87 17.2803C2400.83 17.2803 2399.9 16.4715 2399.9 15.5472V0.00700378H2403.83ZM2410.94 0.00700378V23.8084C2410.94 24.7905 2410.07 25.5415 2408.97 25.5415C2407.93 25.5415 2407.01 24.7905 2407.01 23.8084V0.00700378H2410.94ZM2418.1 0.00700378V32.9361C2418.1 33.9182 2417.18 34.6692 2416.14 34.6692C2415.04 34.6692 2414.17 33.9182 2414.17 32.9361V0.00700378H2418.1ZM2425.21 0.00700378V29.9321C2425.21 30.8564 2424.28 31.6652 2423.24 31.6652C2422.14 31.6652 2421.28 30.8564 2421.28 29.9321V0.00700378H2425.21ZM2432.31 0.00700378V46.9165C2432.31 47.8986 2431.44 48.6497 2430.35 48.6497C2429.25 48.6497 2428.38 47.8986 2428.38 46.9165V0.00700378H2432.31ZM2439.42 0.00700378V39.4064C2439.42 40.3885 2438.55 41.1395 2437.45 41.1395C2436.36 41.1395 2435.49 40.3885 2435.49 39.4064V0.00700378H2439.42ZM2446.52 0.00700378V37.7888C2446.52 38.7709 2445.66 39.5219 2444.56 39.5219C2443.52 39.5219 2442.59 38.7709 2442.59 37.7888V0.00700378H2446.52ZM2453.69 0.00700378V23.8084C2453.69 24.7905 2452.76 25.5415 2451.72 25.5415C2450.62 25.5415 2449.7 24.7905 2449.7 23.8084V0.00700378H2453.69Z" fill="#6E6E6E"/>
<path fill-rule="evenodd" clip-rule="evenodd" d="M488.275 0.00700378V46.9165C488.275 47.8986 487.408 48.6497 486.311 48.6497C485.271 48.6497 484.347 47.8986 484.347 46.9165V0.00700378H488.275ZM139.111 0.00700378V23.8084C139.111 24.7905 138.244 25.5415 137.147 25.5415C136.049 25.5415 135.182 24.7905 135.182 23.8084V0.00700378H139.111ZM132.005 0.00700378V37.7888C132.005 38.7709 131.081 39.5219 130.041 39.5219C128.943 39.5219 128.077 38.7709 128.077 37.7888V0.00700378H132.005ZM124.841 0.00700378V39.4064C124.841 40.3885 123.975 41.1395 122.877 41.1395C121.837 41.1395 120.913 40.3885 120.913 39.4064V0.00700378H124.841ZM117.736 0.00700378V46.9165C117.736 47.8986 116.869 48.6497 115.771 48.6497C114.732 48.6497 113.807 47.8986 113.807 46.9165V0.00700378H117.736ZM110.63 0.00700378V29.9321C110.63 30.8564 109.763 31.6652 108.666 31.6652C107.568 31.6652 106.702 30.8564 106.702 29.9321V0.00700378H110.63ZM103.524 0.00700378V32.9361C103.524 33.9182 102.658 34.6692 101.56 34.6692C100.462 34.6692 99.5964 33.9182 99.5964 32.9361V0.00700378H103.524ZM96.4188 0.00700378V23.8084C96.4188 24.7905 95.5522 25.5415 94.4546 25.5415C93.357 25.5415 92.4904 24.7905 92.4904 23.8084V0.00700378H96.4188ZM89.313 0.00700378V15.5472C89.313 16.4715 88.3887 17.2803 87.3488 17.2803C86.2512 17.2803 85.3847 16.4715 85.3847 15.5472V0.00700378H89.313ZM82.1495 0.00700378V29.2966C82.1495 30.2787 81.283 31.0297 80.1853 31.0297C79.1454 31.0297 78.2211 30.2787 78.2211 29.2966V0.00700378H82.1495ZM75.0438 0.00700378V31.3185C75.0438 32.3006 74.1772 33.0516 73.0796 33.0516C72.0397 33.0516 71.1154 32.3006 71.1154 31.3185V0.00700378H75.0438ZM67.938 0.00700378V33.5716C67.938 34.4959 67.0714 35.3047 65.9738 35.3047C64.8762 35.3047 64.0096 34.4959 64.0096 33.5716V0.00700378H67.938ZM60.8322 0.00700378V35.3625C60.8322 36.3446 59.9657 37.0956 58.868 37.0956C57.7704 37.0956 56.9038 36.3446 56.9038 35.3625V0.00700378H60.8322ZM53.7265 0.00700378V23.404C53.7265 24.3861 52.8021 25.1371 51.7623 25.1371C50.6646 25.1371 49.7981 24.3861 49.7981 23.404V0.00700378H53.7265ZM46.6207 0.00700378V18.7824C46.6207 19.7067 45.6964 20.5155 44.6565 20.5155C43.5589 20.5155 42.6923 19.7067 42.6923 18.7824V0.00700378H46.6207ZM39.4572 0.00700378V44.0858C39.4572 45.0679 38.5906 45.8189 37.493 45.8189C36.4531 45.8189 35.5288 45.0679 35.5288 44.0858V0.00700378H39.4572ZM32.3514 0.00700378V35.3625C32.3514 36.3446 31.4849 37.0956 30.3872 37.0956C29.3474 37.0956 28.423 36.3446 28.423 35.3625V0.00700378H32.3514ZM25.2457 0.00700378V39.002C25.2457 39.9841 24.3791 40.7351 23.2815 40.7351C22.1838 40.7351 21.3173 39.9841 21.3173 39.002V0.00700378H25.2457ZM18.1399 0.00700378V43.1037C18.1399 44.028 17.2733 44.8368 16.1757 44.8368C15.0781 44.8368 14.2115 44.028 14.2115 43.1037V0.00700378H18.1399ZM11.0341 0.00700378V39.6375C11.0341 40.5618 10.1098 41.3706 9.06995 41.3706C7.97232 41.3706 7.10576 40.5618 7.10576 39.6375V0.00700378H11.0341ZM3.92839 0.00700378V46.9165C3.92839 47.8986 3.00406 48.6497 1.9642 48.6497C0.866558 48.6497 0 47.8986 0 46.9165V0.00700378H3.92839ZM142.577 0.00700378V23.8084C142.577 24.7905 143.443 25.5415 144.541 25.5415C145.639 25.5415 146.505 24.7905 146.505 23.8084V0.00700378H142.577ZM149.683 0.00700378V37.7888C149.683 38.7709 150.549 39.5219 151.647 39.5219C152.745 39.5219 153.611 38.7709 153.611 37.7888V0.00700378H149.683ZM156.788 0.00700378V39.4064C156.788 40.3885 157.655 41.1395 158.753 41.1395C159.85 41.1395 160.717 40.3885 160.717 39.4064V0.00700378H156.788ZM163.894 0.00700378V46.9165C163.894 47.8986 164.819 48.6497 165.858 48.6497C166.956 48.6497 167.823 47.8986 167.823 46.9165V0.00700378H163.894ZM171.058 0.00700378V29.9321C171.058 30.8564 171.924 31.6652 173.022 31.6652C174.062 31.6652 174.986 30.8564 174.986 29.9321V0.00700378H171.058ZM178.164 0.00700378V32.9361C178.164 33.9182 179.03 34.6692 180.128 34.6692C181.168 34.6692 182.092 33.9182 182.092 32.9361V0.00700378H178.164ZM185.269 0.00700378V23.8084C185.269 24.7905 186.136 25.5415 187.233 25.5415C188.331 25.5415 189.198 24.7905 189.198 23.8084V0.00700378H185.269ZM192.375 0.00700378V15.5472C192.375 16.4715 193.242 17.2803 194.339 17.2803C195.437 17.2803 196.303 16.4715 196.303 15.5472V0.00700378H192.375ZM199.481 0.00700378V29.2966C199.481 30.2787 200.405 31.0297 201.445 31.0297C202.543 31.0297 203.409 30.2787 203.409 29.2966V0.00700378H199.481ZM345.64 0.00700378V23.8084C345.64 24.7905 344.773 25.5415 343.676 25.5415C342.578 25.5415 341.712 24.7905 341.712 23.8084V0.00700378H345.64ZM338.534 0.00700378V37.7888C338.534 38.7709 337.61 39.5219 336.57 39.5219C335.472 39.5219 334.606 38.7709 334.606 37.7888V0.00700378H338.534ZM331.428 0.00700378V39.4064C331.428 40.3885 330.504 41.1395 329.464 41.1395C328.367 41.1395 327.442 40.3885 327.442 39.4064V0.00700378H331.428ZM324.265 0.00700378V46.9165C324.265 47.8986 323.398 48.6497 322.301 48.6497C321.261 48.6497 320.336 47.8986 320.336 46.9165V0.00700378H324.265ZM317.159 0.00700378V29.9321C317.159 30.8564 316.293 31.6652 315.195 31.6652C314.097 31.6652 313.231 30.8564 313.231 29.9321V0.00700378H317.159ZM310.053 0.00700378V32.9361C310.053 33.9182 309.187 34.6692 308.089 34.6692C306.992 34.6692 306.125 33.9182 306.125 32.9361V0.00700378H310.053ZM302.948 0.00700378V23.8084C302.948 24.7905 302.081 25.5415 300.983 25.5415C299.886 25.5415 299.019 24.7905 299.019 23.8084V0.00700378H302.948ZM295.842 0.00700378V15.5472C295.842 16.4715 294.918 17.2803 293.878 17.2803C292.78 17.2803 291.913 16.4715 291.913 15.5472V0.00700378H295.842ZM288.678 0.00700378V29.2966C288.678 30.2787 287.812 31.0297 286.714 31.0297C285.674 31.0297 284.75 30.2787 284.75 29.2966V0.00700378H288.678ZM281.573 0.00700378V31.3185C281.573 32.3006 280.706 33.0516 279.608 33.0516C278.568 33.0516 277.644 32.3006 277.644 31.3185V0.00700378H281.573ZM274.467 0.00700378V33.5716C274.467 34.4959 273.6 35.3047 272.503 35.3047C271.405 35.3047 270.538 34.4959 270.538 33.5716V0.00700378H274.467ZM267.361 0.00700378V35.3625C267.361 36.3446 266.494 37.0956 265.397 37.0956C264.299 37.0956 263.433 36.3446 263.433 35.3625V0.00700378H267.361ZM260.255 0.00700378V23.404C260.255 24.3861 259.331 25.1371 258.291 25.1371C257.193 25.1371 256.327 24.3861 256.327 23.404V0.00700378H260.255ZM253.15 0.00700378V18.7824C253.15 19.7067 252.225 20.5155 251.185 20.5155C250.088 20.5155 249.221 19.7067 249.221 18.7824V0.00700378H253.15ZM245.986 0.00700378V44.0858C245.986 45.0679 245.119 45.8189 244.022 45.8189C242.982 45.8189 242.058 45.0679 242.058 44.0858V0.00700378H245.986ZM238.88 0.00700378V35.3625C238.88 36.3446 238.014 37.0956 236.916 37.0956C235.876 37.0956 234.952 36.3446 234.952 35.3625V0.00700378H238.88ZM231.774 0.00700378V39.002C231.774 39.9841 230.908 40.7351 229.81 40.7351C228.713 40.7351 227.846 39.9841 227.846 39.002V0.00700378H231.774ZM224.669 0.00700378V43.1037C224.669 44.028 223.802 44.8368 222.705 44.8368C221.607 44.8368 220.74 44.028 220.74 43.1037V0.00700378H224.669ZM217.563 0.00700378V39.6375C217.563 40.5618 216.639 41.3706 215.599 41.3706C214.501 41.3706 213.635 40.5618 213.635 39.6375V0.00700378H217.563ZM210.457 0.00700378V46.9165C210.457 47.8986 209.533 48.6497 208.493 48.6497C207.395 48.6497 206.529 47.8986 206.529 46.9165V0.00700378H210.457ZM349.106 0.00700378V23.8084C349.106 24.7905 349.973 25.5415 351.07 25.5415C352.168 25.5415 353.035 24.7905 353.035 23.8084V0.00700378H349.106ZM356.212 0.00700378V37.7888C356.212 38.7709 357.078 39.5219 358.176 39.5219C359.274 39.5219 360.14 38.7709 360.14 37.7888V0.00700378H356.212ZM363.318 0.00700378V39.4064C363.318 40.3885 364.184 41.1395 365.282 41.1395C366.379 41.1395 367.246 40.3885 367.246 39.4064V0.00700378H363.318ZM370.423 0.00700378V46.9165C370.423 47.8986 371.348 48.6497 372.388 48.6497C373.485 48.6497 374.352 47.8986 374.352 46.9165V0.00700378H370.423ZM377.587 0.00700378V29.9321C377.587 30.8564 378.453 31.6652 379.551 31.6652C380.591 31.6652 381.515 30.8564 381.515 29.9321V0.00700378H377.587ZM384.693 0.00700378V32.9361C384.693 33.9182 385.559 34.6692 386.657 34.6692C387.697 34.6692 388.621 33.9182 388.621 32.9361V0.00700378H384.693ZM391.798 0.00700378V23.8084C391.798 24.7905 392.665 25.5415 393.763 25.5415C394.86 25.5415 395.727 24.7905 395.727 23.8084V0.00700378H391.798ZM398.904 0.00700378V15.5472C398.904 16.4715 399.771 17.2803 400.868 17.2803C401.966 17.2803 402.833 16.4715 402.833 15.5472V0.00700378H398.904ZM406.01 0.00700378V29.2966C406.01 30.2787 406.934 31.0297 407.974 31.0297C409.072 31.0297 409.938 30.2787 409.938 29.2966V0.00700378H406.01ZM413.116 0.00700378V31.3185C413.116 32.3006 414.04 33.0516 415.08 33.0516C416.178 33.0516 417.044 32.3006 417.044 31.3185V0.00700378H413.116ZM420.279 0.00700378V33.5716C420.279 34.4959 421.146 35.3047 422.243 35.3047C423.283 35.3047 424.208 34.4959 424.208 33.5716V0.00700378H420.279ZM427.385 0.00700378V35.3625C427.385 36.3446 428.252 37.0956 429.349 37.0956C430.389 37.0956 431.313 36.3446 431.313 35.3625V0.00700378H427.385ZM434.491 0.00700378V23.404C434.491 24.3861 435.357 25.1371 436.455 25.1371C437.553 25.1371 438.419 24.3861 438.419 23.404V0.00700378H434.491ZM441.597 0.00700378V18.7824C441.597 19.7067 442.463 20.5155 443.561 20.5155C444.658 20.5155 445.525 19.7067 445.525 18.7824V0.00700378H441.597ZM448.702 0.00700378V44.0858C448.702 45.0679 449.627 45.8189 450.666 45.8189C451.764 45.8189 452.631 45.0679 452.631 44.0858V0.00700378H448.702ZM455.808 0.00700378V35.3625C455.808 36.3446 456.732 37.0956 457.772 37.0956C458.87 37.0956 459.736 36.3446 459.736 35.3625V0.00700378H455.808ZM462.972 0.00700378V39.002C462.972 39.9841 463.838 40.7351 464.936 40.7351C465.976 40.7351 466.9 39.9841 466.9 39.002V0.00700378H462.972ZM470.077 0.00700378V43.1037C470.077 44.028 470.944 44.8368 472.042 44.8368C473.081 44.8368 474.006 44.028 474.006 43.1037V0.00700378H470.077ZM477.183 0.00700378V39.6375C477.183 40.5618 478.05 41.3706 479.147 41.3706C480.245 41.3706 481.112 40.5618 481.112 39.6375V0.00700378H477.183ZM833.511 0.00700378V23.8084C833.511 24.7905 834.378 25.5415 835.475 25.5415C836.515 25.5415 837.439 24.7905 837.439 23.8084V0.00700378H833.511ZM840.617 0.00700378V37.7888C840.617 38.7709 841.483 39.5219 842.581 39.5219C843.621 39.5219 844.545 38.7709 844.545 37.7888V0.00700378H840.617ZM847.722 0.00700378V39.4064C847.722 40.3885 848.589 41.1395 849.687 41.1395C850.784 41.1395 851.651 40.3885 851.651 39.4064V0.00700378H847.722ZM854.828 0.00700378V46.9165C854.828 47.8986 855.695 48.6497 856.792 48.6497C857.89 48.6497 858.757 47.8986 858.757 46.9165V0.00700378H854.828ZM861.934 0.00700378V29.9321C861.934 30.8564 862.858 31.6652 863.898 31.6652C864.996 31.6652 865.862 30.8564 865.862 29.9321V0.00700378H861.934ZM869.04 0.00700378V32.9361C869.04 33.9182 869.964 34.6692 871.004 34.6692C872.102 34.6692 872.968 33.9182 872.968 32.9361V0.00700378H869.04ZM876.203 0.00700378V23.8084C876.203 24.7905 877.07 25.5415 878.167 25.5415C879.207 25.5415 880.132 24.7905 880.132 23.8084V0.00700378H876.203ZM883.309 0.00700378V15.5472C883.309 16.4715 884.176 17.2803 885.273 17.2803C886.371 17.2803 887.237 16.4715 887.237 15.5472V0.00700378H883.309ZM890.415 0.00700378V29.2966C890.415 30.2787 891.281 31.0297 892.379 31.0297C893.477 31.0297 894.343 30.2787 894.343 29.2966V0.00700378H890.415ZM897.521 0.00700378V31.3185C897.521 32.3006 898.387 33.0516 899.485 33.0516C900.582 33.0516 901.449 32.3006 901.449 31.3185V0.00700378H897.521ZM904.626 0.00700378V33.5716C904.626 34.4959 905.551 35.3047 906.591 35.3047C907.688 35.3047 908.555 34.4959 908.555 33.5716V0.00700378H904.626ZM911.79 0.00700378V35.3625C911.79 36.3446 912.656 37.0956 913.754 37.0956C914.794 37.0956 915.718 36.3446 915.718 35.3625V0.00700378H911.79ZM918.896 0.00700378V23.404C918.896 24.3861 919.762 25.1371 920.86 25.1371C921.9 25.1371 922.824 24.3861 922.824 23.404V0.00700378H918.896ZM926.001 0.00700378V18.7824C926.001 19.7067 926.868 20.5155 927.966 20.5155C929.063 20.5155 929.93 19.7067 929.93 18.7824V0.00700378H926.001ZM933.107 0.00700378V44.0858C933.107 45.0679 933.974 45.8189 935.071 45.8189C936.169 45.8189 937.036 45.0679 937.036 44.0858V0.00700378H933.107ZM940.213 0.00700378V35.3625C940.213 36.3446 941.137 37.0956 942.177 37.0956C943.275 37.0956 944.141 36.3446 944.141 35.3625V0.00700378H940.213ZM947.319 0.00700378V39.002C947.319 39.9841 948.243 40.7351 949.283 40.7351C950.38 40.7351 951.247 39.9841 951.247 39.002V0.00700378H947.319ZM954.482 0.00700378V43.1037C954.482 44.028 955.349 44.8368 956.446 44.8368C957.486 44.8368 958.411 44.028 958.411 43.1037V0.00700378H954.482ZM961.588 0.00700378V39.6375C961.588 40.5618 962.454 41.3706 963.552 41.3706C964.592 41.3706 965.516 40.5618 965.516 39.6375V0.00700378H961.588ZM968.694 0.00700378V46.9165C968.694 47.8986 969.56 48.6497 970.658 48.6497C971.756 48.6497 972.622 47.8986 972.622 46.9165V0.00700378H968.694ZM830.045 0.00700378V23.8084C830.045 24.7905 829.12 25.5415 828.081 25.5415C826.983 25.5415 826.116 24.7905 826.116 23.8084V0.00700378H830.045ZM822.881 0.00700378V37.7888C822.881 38.7709 822.015 39.5219 820.917 39.5219C819.877 39.5219 818.953 38.7709 818.953 37.7888V0.00700378H822.881ZM815.775 0.00700378V39.4064C815.775 40.3885 814.909 41.1395 813.811 41.1395C812.771 41.1395 811.847 40.3885 811.847 39.4064V0.00700378H815.775ZM808.67 0.00700378V46.9165C808.67 47.8986 807.803 48.6497 806.706 48.6497C805.608 48.6497 804.741 47.8986 804.741 46.9165V0.00700378H808.67ZM801.564 0.00700378V29.9321C801.564 30.8564 800.697 31.6652 799.6 31.6652C798.502 31.6652 797.636 30.8564 797.636 29.9321V0.00700378H801.564ZM794.458 0.00700378V32.9361C794.458 33.9182 793.534 34.6692 792.494 34.6692C791.396 34.6692 790.53 33.9182 790.53 32.9361V0.00700378H794.458ZM787.352 0.00700378V23.8084C787.352 24.7905 786.428 25.5415 785.388 25.5415C784.291 25.5415 783.424 24.7905 783.424 23.8084V0.00700378H787.352ZM780.189 0.00700378V15.5472C780.189 16.4715 779.322 17.2803 778.225 17.2803C777.185 17.2803 776.26 16.4715 776.26 15.5472V0.00700378H780.189ZM773.083 0.00700378V29.2966C773.083 30.2787 772.217 31.0297 771.119 31.0297C770.079 31.0297 769.155 30.2787 769.155 29.2966V0.00700378H773.083ZM626.982 0.00700378V23.8084C626.982 24.7905 627.848 25.5415 628.946 25.5415C629.986 25.5415 630.91 24.7905 630.91 23.8084V0.00700378H626.982ZM634.088 0.00700378V37.7888C634.088 38.7709 634.954 39.5219 636.052 39.5219C637.092 39.5219 638.016 38.7709 638.016 37.7888V0.00700378H634.088ZM641.193 0.00700378V39.4064C641.193 40.3885 642.06 41.1395 643.157 41.1395C644.255 41.1395 645.122 40.3885 645.122 39.4064V0.00700378H641.193ZM648.299 0.00700378V46.9165C648.299 47.8986 649.166 48.6497 650.263 48.6497C651.361 48.6497 652.227 47.8986 652.227 46.9165V0.00700378H648.299ZM655.405 0.00700378V29.9321C655.405 30.8564 656.329 31.6652 657.369 31.6652C658.467 31.6652 659.333 30.8564 659.333 29.9321V0.00700378H655.405ZM662.511 0.00700378V32.9361C662.511 33.9182 663.435 34.6692 664.475 34.6692C665.572 34.6692 666.439 33.9182 666.439 32.9361V0.00700378H662.511ZM669.674 0.00700378V23.8084C669.674 24.7905 670.541 25.5415 671.638 25.5415C672.678 25.5415 673.603 24.7905 673.603 23.8084V0.00700378H669.674ZM676.78 0.00700378V15.5472C676.78 16.4715 677.646 17.2803 678.744 17.2803C679.842 17.2803 680.708 16.4715 680.708 15.5472V0.00700378H676.78ZM683.886 0.00700378V29.2966C683.886 30.2787 684.752 31.0297 685.85 31.0297C686.947 31.0297 687.814 30.2787 687.814 29.2966V0.00700378H683.886ZM690.991 0.00700378V31.3185C690.991 32.3006 691.858 33.0516 692.956 33.0516C694.053 33.0516 694.92 32.3006 694.92 31.3185V0.00700378H690.991ZM698.097 0.00700378V33.5716C698.097 34.4959 699.021 35.3047 700.061 35.3047C701.159 35.3047 702.026 34.4959 702.026 33.5716V0.00700378H698.097ZM705.261 0.00700378V35.3625C705.261 36.3446 706.127 37.0956 707.225 37.0956C708.265 37.0956 709.189 36.3446 709.189 35.3625V0.00700378H705.261ZM712.366 0.00700378V23.404C712.366 24.3861 713.233 25.1371 714.331 25.1371C715.37 25.1371 716.295 24.3861 716.295 23.404V0.00700378H712.366ZM719.472 0.00700378V18.7824C719.472 19.7067 720.339 20.5155 721.436 20.5155C722.534 20.5155 723.401 19.7067 723.401 18.7824V0.00700378H719.472ZM726.578 0.00700378V44.0858C726.578 45.0679 727.445 45.8189 728.542 45.8189C729.64 45.8189 730.506 45.0679 730.506 44.0858V0.00700378H726.578ZM733.684 0.00700378V35.3625C733.684 36.3446 734.55 37.0956 735.648 37.0956C736.746 37.0956 737.612 36.3446 737.612 35.3625V0.00700378H733.684ZM740.789 0.00700378V39.002C740.789 39.9841 741.714 40.7351 742.754 40.7351C743.851 40.7351 744.718 39.9841 744.718 39.002V0.00700378H740.789ZM747.953 0.00700378V43.1037C747.953 44.028 748.82 44.8368 749.917 44.8368C750.957 44.8368 751.881 44.028 751.881 43.1037V0.00700378H747.953ZM755.059 0.00700378V39.6375C755.059 40.5618 755.925 41.3706 757.023 41.3706C758.063 41.3706 758.987 40.5618 758.987 39.6375V0.00700378H755.059ZM762.165 0.00700378V46.9165C762.165 47.8986 763.031 48.6497 764.129 48.6497C765.226 48.6497 766.093 47.8986 766.093 46.9165V0.00700378H762.165ZM623.516 0.00700378V23.8084C623.516 24.7905 622.591 25.5415 621.551 25.5415C620.454 25.5415 619.587 24.7905 619.587 23.8084V0.00700378H623.516ZM616.352 0.00700378V37.7888C616.352 38.7709 615.485 39.5219 614.388 39.5219C613.348 39.5219 612.424 38.7709 612.424 37.7888V0.00700378H616.352ZM609.246 0.00700378V39.4064C609.246 40.3885 608.38 41.1395 607.282 41.1395C606.242 41.1395 605.318 40.3885 605.318 39.4064V0.00700378H609.246ZM602.14 0.00700378V46.9165C602.14 47.8986 601.274 48.6497 600.176 48.6497C599.079 48.6497 598.212 47.8986 598.212 46.9165V0.00700378H602.14ZM595.035 0.00700378V29.9321C595.035 30.8564 594.168 31.6652 593.071 31.6652C591.973 31.6652 591.106 30.8564 591.106 29.9321V0.00700378H595.035ZM587.929 0.00700378V32.9361C587.929 33.9182 587.005 34.6692 585.965 34.6692C584.867 34.6692 584.001 33.9182 584.001 32.9361V0.00700378H587.929ZM580.823 0.00700378V23.8084C580.823 24.7905 579.899 25.5415 578.859 25.5415C577.761 25.5415 576.895 24.7905 576.895 23.8084V0.00700378H580.823ZM573.66 0.00700378V15.5472C573.66 16.4715 572.793 17.2803 571.696 17.2803C570.656 17.2803 569.731 16.4715 569.731 15.5472V0.00700378H573.66ZM566.554 0.00700378V29.2966C566.554 30.2787 565.687 31.0297 564.59 31.0297C563.55 31.0297 562.626 30.2787 562.626 29.2966V0.00700378H566.554ZM559.448 0.00700378V31.3185C559.448 32.3006 558.582 33.0516 557.484 33.0516C556.386 33.0516 555.52 32.3006 555.52 31.3185V0.00700378H559.448ZM552.342 0.00700378V33.5716C552.342 34.4959 551.476 35.3047 550.378 35.3047C549.281 35.3047 548.414 34.4959 548.414 33.5716V0.00700378H552.342ZM545.237 0.00700378V35.3625C545.237 36.3446 544.312 37.0956 543.272 37.0956C542.175 37.0956 541.308 36.3446 541.308 35.3625V0.00700378H545.237ZM538.131 0.00700378V23.404C538.131 24.3861 537.207 25.1371 536.167 25.1371C535.069 25.1371 534.203 24.3861 534.203 23.404V0.00700378H538.131ZM530.967 0.00700378V18.7824C530.967 19.7067 530.101 20.5155 529.003 20.5155C527.963 20.5155 527.039 19.7067 527.039 18.7824V0.00700378H530.967ZM523.862 0.00700378V44.0858C523.862 45.0679 522.995 45.8189 521.897 45.8189C520.8 45.8189 519.933 45.0679 519.933 44.0858V0.00700378H523.862ZM516.756 0.00700378V35.3625C516.756 36.3446 515.889 37.0956 514.792 37.0956C513.694 37.0956 512.827 36.3446 512.827 35.3625V0.00700378H516.756ZM509.65 0.00700378V39.002C509.65 39.9841 508.784 40.7351 507.686 40.7351C506.588 40.7351 505.722 39.9841 505.722 39.002V0.00700378H509.65ZM502.544 0.00700378V43.1037C502.544 44.028 501.62 44.8368 500.58 44.8368C499.482 44.8368 498.616 44.028 498.616 43.1037V0.00700378H502.544ZM495.439 0.00700378V39.6375C495.439 40.5618 494.514 41.3706 493.417 41.3706C492.377 41.3706 491.452 40.5618 491.452 39.6375V0.00700378H495.439ZM1339 0.00700378V46.9165C1339 47.8986 1339.87 48.6497 1340.96 48.6497C1342.06 48.6497 1342.93 47.8986 1342.93 46.9165V0.00700378H1339ZM1331.89 0.00700378V39.4064C1331.89 40.3885 1332.76 41.1395 1333.86 41.1395C1334.96 41.1395 1335.82 40.3885 1335.82 39.4064V0.00700378H1331.89ZM1324.79 0.00700378V37.7888C1324.79 38.7709 1325.65 39.5219 1326.75 39.5219C1327.79 39.5219 1328.72 38.7709 1328.72 37.7888V0.00700378H1324.79ZM1317.62 0.00700378V23.8084C1317.62 24.7905 1318.55 25.5415 1319.65 25.5415C1320.69 25.5415 1321.61 24.7905 1321.61 23.8084V0.00700378H1317.62ZM1178.98 0.00700378V46.9165C1178.98 47.8986 1178.11 48.6497 1177.01 48.6497C1175.97 48.6497 1175.05 47.8986 1175.05 46.9165V0.00700378H1178.98ZM1186.08 0.00700378V39.6375C1186.08 40.5618 1185.21 41.3706 1184.12 41.3706C1183.08 41.3706 1182.15 40.5618 1182.15 39.6375V0.00700378H1186.08ZM1193.24 0.00700378V43.1037C1193.24 44.028 1192.32 44.8368 1191.28 44.8368C1190.18 44.8368 1189.32 44.028 1189.32 43.1037V0.00700378H1193.24ZM1200.35 0.00700378V39.002C1200.35 39.9841 1199.43 40.7351 1198.39 40.7351C1197.29 40.7351 1196.42 39.9841 1196.42 39.002V0.00700378H1200.35ZM1207.46 0.00700378V35.3625C1207.46 36.3446 1206.59 37.0956 1205.49 37.0956C1204.39 37.0956 1203.53 36.3446 1203.53 35.3625V0.00700378H1207.46ZM1214.56 0.00700378V44.0858C1214.56 45.0679 1213.69 45.8189 1212.6 45.8189C1211.5 45.8189 1210.63 45.0679 1210.63 44.0858V0.00700378H1214.56ZM1221.67 0.00700378V18.7824C1221.67 19.7067 1220.8 20.5155 1219.7 20.5155C1218.66 20.5155 1217.74 19.7067 1217.74 18.7824V0.00700378H1221.67ZM1228.77 0.00700378V23.404C1228.77 24.3861 1227.91 25.1371 1226.81 25.1371C1225.77 25.1371 1224.84 24.3861 1224.84 23.404V0.00700378H1228.77ZM1235.94 0.00700378V35.3625C1235.94 36.3446 1235.01 37.0956 1233.97 37.0956C1232.87 37.0956 1232.01 36.3446 1232.01 35.3625V0.00700378H1235.94ZM1243.04 0.00700378V33.5716C1243.04 34.4959 1242.12 35.3047 1241.08 35.3047C1239.98 35.3047 1239.11 34.4959 1239.11 33.5716V0.00700378H1243.04ZM1250.15 0.00700378V31.3185C1250.15 32.3006 1249.28 33.0516 1248.18 33.0516C1247.09 33.0516 1246.22 32.3006 1246.22 31.3185V0.00700378H1250.15ZM1257.25 0.00700378V29.2966C1257.25 30.2787 1256.39 31.0297 1255.29 31.0297C1254.19 31.0297 1253.33 30.2787 1253.33 29.2966V0.00700378H1257.25ZM1264.36 0.00700378V15.5472C1264.36 16.4715 1263.49 17.2803 1262.4 17.2803C1261.36 17.2803 1260.43 16.4715 1260.43 15.5472V0.00700378H1264.36ZM1271.47 0.00700378V23.8084C1271.47 24.7905 1270.6 25.5415 1269.5 25.5415C1268.46 25.5415 1267.54 24.7905 1267.54 23.8084V0.00700378H1271.47ZM1278.63 0.00700378V32.9361C1278.63 33.9182 1277.7 34.6692 1276.66 34.6692C1275.57 34.6692 1274.7 33.9182 1274.7 32.9361V0.00700378H1278.63ZM1285.73 0.00700378V29.9321C1285.73 30.8564 1284.87 31.6652 1283.77 31.6652C1282.67 31.6652 1281.81 30.8564 1281.81 29.9321V0.00700378H1285.73ZM1292.84 0.00700378V46.9165C1292.84 47.8986 1291.97 48.6497 1290.88 48.6497C1289.78 48.6497 1288.91 47.8986 1288.91 46.9165V0.00700378H1292.84ZM1299.95 0.00700378V39.4064C1299.95 40.3885 1299.08 41.1395 1297.98 41.1395C1296.88 41.1395 1296.02 40.3885 1296.02 39.4064V0.00700378H1299.95ZM1307.05 0.00700378V37.7888C1307.05 38.7709 1306.19 39.5219 1305.09 39.5219C1304.05 39.5219 1303.12 38.7709 1303.12 37.7888V0.00700378H1307.05ZM1314.22 0.00700378V23.8084C1314.22 24.7905 1313.29 25.5415 1312.25 25.5415C1311.15 25.5415 1310.29 24.7905 1310.29 23.8084V0.00700378H1314.22ZM1168.06 0.00700378V29.2966C1168.06 30.2787 1168.92 31.0297 1170.02 31.0297C1171.12 31.0297 1171.98 30.2787 1171.98 29.2966V0.00700378H1168.06ZM1160.95 0.00700378V15.5472C1160.95 16.4715 1161.82 17.2803 1162.91 17.2803C1163.95 17.2803 1164.88 16.4715 1164.88 15.5472V0.00700378H1160.95ZM1153.84 0.00700378V23.8084C1153.84 24.7905 1154.71 25.5415 1155.81 25.5415C1156.85 25.5415 1157.77 24.7905 1157.77 23.8084V0.00700378H1153.84ZM1146.68 0.00700378V32.9361C1146.68 33.9182 1147.61 34.6692 1148.65 34.6692C1149.74 34.6692 1150.61 33.9182 1150.61 32.9361V0.00700378H1146.68ZM1139.58 0.00700378V29.9321C1139.58 30.8564 1140.44 31.6652 1141.54 31.6652C1142.64 31.6652 1143.5 30.8564 1143.5 29.9321V0.00700378H1139.58ZM1132.47 0.00700378V46.9165C1132.47 47.8986 1133.34 48.6497 1134.43 48.6497C1135.53 48.6497 1136.4 47.8986 1136.4 46.9165V0.00700378H1132.47ZM1125.36 0.00700378V39.4064C1125.36 40.3885 1126.23 41.1395 1127.33 41.1395C1128.43 41.1395 1129.29 40.3885 1129.29 39.4064V0.00700378H1125.36ZM1118.26 0.00700378V37.7888C1118.26 38.7709 1119.12 39.5219 1120.22 39.5219C1121.26 39.5219 1122.19 38.7709 1122.19 37.7888V0.00700378H1118.26ZM1111.09 0.00700378V23.8084C1111.09 24.7905 1112.02 25.5415 1113.06 25.5415C1114.16 25.5415 1115.02 24.7905 1115.02 23.8084V0.00700378H1111.09ZM979.555 0.00700378V39.6375C979.555 40.5618 978.688 41.3706 977.59 41.3706C976.551 41.3706 975.626 40.5618 975.626 39.6375V0.00700378H979.555ZM986.718 0.00700378V43.1037C986.718 44.028 985.794 44.8368 984.754 44.8368C983.656 44.8368 982.79 44.028 982.79 43.1037V0.00700378H986.718ZM993.824 0.00700378V39.002C993.824 39.9841 992.9 40.7351 991.86 40.7351C990.762 40.7351 989.895 39.9841 989.895 39.002V0.00700378H993.824ZM1000.93 0.00700378V35.3625C1000.93 36.3446 1000.06 37.0956 998.965 37.0956C997.868 37.0956 997.001 36.3446 997.001 35.3625V0.00700378H1000.93ZM1008.03 0.00700378V44.0858C1008.03 45.0679 1007.17 45.8189 1006.07 45.8189C1004.97 45.8189 1004.1 45.0679 1004.1 44.0858V0.00700378H1008.03ZM1015.14 0.00700378V18.7824C1015.14 19.7067 1014.27 20.5155 1013.17 20.5155C1012.13 20.5155 1011.21 19.7067 1011.21 18.7824V0.00700378H1015.14ZM1022.24 0.00700378V23.404C1022.24 24.3861 1021.38 25.1371 1020.28 25.1371C1019.24 25.1371 1018.32 24.3861 1018.32 23.404V0.00700378H1022.24ZM1029.41 0.00700378V35.3625C1029.41 36.3446 1028.48 37.0956 1027.44 37.0956C1026.35 37.0956 1025.48 36.3446 1025.48 35.3625V0.00700378H1029.41ZM1036.51 0.00700378V33.5716C1036.51 34.4959 1035.59 35.3047 1034.55 35.3047C1033.45 35.3047 1032.58 34.4959 1032.58 33.5716V0.00700378H1036.51ZM1043.62 0.00700378V31.3185C1043.62 32.3006 1042.75 33.0516 1041.65 33.0516C1040.56 33.0516 1039.69 32.3006 1039.69 31.3185V0.00700378H1043.62ZM1050.72 0.00700378V29.2966C1050.72 30.2787 1049.86 31.0297 1048.76 31.0297C1047.66 31.0297 1046.8 30.2787 1046.8 29.2966V0.00700378H1050.72ZM1057.83 0.00700378V15.5472C1057.83 16.4715 1056.96 17.2803 1055.87 17.2803C1054.83 17.2803 1053.9 16.4715 1053.9 15.5472V0.00700378H1057.83ZM1064.94 0.00700378V23.8084C1064.94 24.7905 1064.07 25.5415 1062.97 25.5415C1061.93 25.5415 1061.01 24.7905 1061.01 23.8084V0.00700378H1064.94ZM1072.1 0.00700378V32.9361C1072.1 33.9182 1071.18 34.6692 1070.14 34.6692C1069.04 34.6692 1068.17 33.9182 1068.17 32.9361V0.00700378H1072.1ZM1079.21 0.00700378V29.9321C1079.21 30.8564 1078.28 31.6652 1077.24 31.6652C1076.14 31.6652 1075.28 30.8564 1075.28 29.9321V0.00700378H1079.21ZM1086.31 0.00700378V46.9165C1086.31 47.8986 1085.44 48.6497 1084.35 48.6497C1083.25 48.6497 1082.38 47.8986 1082.38 46.9165V0.00700378H1086.31ZM1093.42 0.00700378V39.4064C1093.42 40.3885 1092.55 41.1395 1091.45 41.1395C1090.36 41.1395 1089.49 40.3885 1089.49 39.4064V0.00700378H1093.42ZM1100.52 0.00700378V37.7888C1100.52 38.7709 1099.66 39.5219 1098.56 39.5219C1097.52 39.5219 1096.59 38.7709 1096.59 37.7888V0.00700378H1100.52ZM1107.69 0.00700378V23.8084C1107.69 24.7905 1106.76 25.5415 1105.72 25.5415C1104.62 25.5415 1103.7 24.7905 1103.7 23.8084V0.00700378H1107.69Z" fill="#6E6E6E"/>
</svg>
