<svg xmlns="http://www.w3.org/2000/svg" width="4035" height="49" fill="#6e6e6e" fill-rule="evenodd" xmlns:v="https://vecta.io/nano"><path d="M1834.03.045v46.9c0 .982-.87 1.733-1.96 1.733-1.04 0-1.97-.75-1.97-1.733V.045h3.93zm-349.16 0v23.8c0 .982-.87 1.733-1.97 1.733-1.1 0-1.96-.75-1.96-1.733V.045h3.93zm-7.1 0v37.782c0 .982-.92 1.733-1.96 1.733-1.1 0-1.97-.75-1.97-1.733V.045h3.93zm-7.16 0v39.4c0 .982-.87 1.733-1.97 1.733-1.04 0-1.96-.75-1.96-1.733V.045h3.93zm-7.1 0v46.9c0 .982-.86 1.733-1.96 1.733-1.04 0-1.97-.75-1.97-1.733V.045h3.93zm-7.1 0V29.97c0 .924-.87 1.733-1.97 1.733s-1.96-.81-1.96-1.733V.045h3.93zm-7.1 0v32.93c0 .982-.86 1.733-1.96 1.733s-1.97-.75-1.97-1.733V.045h3.93zm-7.1 0v23.8c0 .982-.87 1.733-1.97 1.733s-1.96-.75-1.96-1.733V.045h3.93zm-7.1 0v15.54c0 .924-.92 1.733-1.96 1.733-1.1 0-1.97-.81-1.97-1.733V.045h3.93zm-7.16 0v29.3c0 .982-.87 1.733-1.97 1.733-1.04 0-1.96-.75-1.96-1.733V.045h3.93zm-7.1 0v31.312c0 .982-.87 1.733-1.96 1.733-1.04 0-1.97-.75-1.97-1.733V.045h3.93zm-7.1 0V33.61c0 .924-.86 1.733-1.96 1.733s-1.96-.81-1.96-1.733V.045h3.92zm-7.1 0V35.4c0 .982-.87 1.733-1.97 1.733-1.1 0-1.96-.75-1.96-1.733V.045h3.93zm-7.1 0v23.397c0 .982-.92 1.733-1.96 1.733-1.1 0-1.97-.75-1.97-1.733V.045h3.93zm-7.1 0V18.82c0 .924-.93 1.733-1.97 1.733-1.1 0-1.96-.81-1.96-1.733V.045h3.93zm-7.17 0v44.08c0 .982-.86 1.733-1.96 1.733-1.04 0-1.96-.75-1.96-1.733V.045h3.92zm-7.1 0V35.4c0 .982-.87 1.733-1.97 1.733-1.04 0-1.96-.75-1.96-1.733V.045h3.93zm-7.1 0V39.04c0 .982-.86 1.733-1.96 1.733s-1.97-.75-1.97-1.733V.045h3.93zm-7.1 0V43.14c0 .924-.87 1.733-1.97 1.733s-1.96-.81-1.96-1.733V.045h3.93zm-7.1 0v39.63c0 .924-.92 1.733-1.96 1.733-1.1 0-1.97-.81-1.97-1.733V.045h3.93zm-7.1 0v46.9c0 .982-.92 1.733-1.96 1.733-1.1 0-1.96-.75-1.96-1.733V.045h3.92zm138.65 0v23.8c0 .982.87 1.733 1.97 1.733s1.96-.75 1.96-1.733V.045h-3.93zm7.1 0v37.782c0 .982.87 1.733 1.96 1.733 1.1 0 1.97-.75 1.97-1.733V.045h-3.93zm7.1 0v39.4c0 .982.87 1.733 1.97 1.733s1.96-.75 1.96-1.733V.045h-3.93zm7.1 0v46.9c0 .982.93 1.733 1.97 1.733 1.1 0 1.96-.75 1.96-1.733V.045h-3.93zm7.17 0V29.97c0 .924.86 1.733 1.96 1.733 1.04 0 1.96-.81 1.96-1.733V.045h-3.92zm7.1 0v32.93c0 .982.87 1.733 1.96 1.733 1.04 0 1.97-.75 1.97-1.733V.045h-3.93zm7.1 0v23.8c0 .982.86 1.733 1.96 1.733s1.97-.75 1.97-1.733V.045h-3.93zm7.1 0v15.54c0 .924.87 1.733 1.97 1.733 1.1 0 1.96-.81 1.96-1.733V.045h-3.93zm7.1 0v29.3c0 .982.92 1.733 1.96 1.733 1.1 0 1.97-.75 1.97-1.733V.045h-3.93zm146.16 0v23.8c0 .982-.87 1.733-1.97 1.733-1.1 0-1.96-.75-1.96-1.733V.045h3.93zm-7.1 0v37.782c0 .982-.92 1.733-1.96 1.733-1.1 0-1.97-.75-1.97-1.733V.045h3.93zm-7.1 0v39.4c0 .982-.92 1.733-1.96 1.733-1.1 0-2.02-.75-2.02-1.733V.045h3.98zm-7.16 0v46.9c0 .982-.86 1.733-1.96 1.733-1.04 0-1.97-.75-1.97-1.733V.045h3.93zm-7.1 0V29.97c0 .924-.87 1.733-1.97 1.733s-1.96-.81-1.96-1.733V.045h3.93zm-7.1 0v32.93c0 .982-.87 1.733-1.96 1.733-1.1 0-1.97-.75-1.97-1.733V.045h3.93zm-7.1 0v23.8c0 .982-.86 1.733-1.96 1.733s-1.96-.75-1.96-1.733V.045h3.92zm-7.1 0v15.54c0 .924-.92 1.733-1.96 1.733-1.1 0-1.97-.81-1.97-1.733V.045h3.93zm-7.17 0v29.3c0 .982-.86 1.733-1.96 1.733-1.04 0-1.96-.75-1.96-1.733V.045h3.92zm-7.1 0v31.312c0 .982-.87 1.733-1.97 1.733-1.04 0-1.96-.75-1.96-1.733V.045h3.93zm-7.1 0V33.61c0 .924-.86 1.733-1.96 1.733s-1.96-.81-1.96-1.733V.045h3.92zm-7.1 0V35.4c0 .982-.87 1.733-1.97 1.733-1.1 0-1.96-.75-1.96-1.733V.045h3.93zm-7.1 0v23.397c0 .982-.92 1.733-1.96 1.733-1.1 0-1.97-.75-1.97-1.733V.045h3.93zm-7.1 0V18.82c0 .924-.93 1.733-1.97 1.733-1.1 0-1.96-.81-1.96-1.733V.045h3.93zm-7.17 0v44.08c0 .982-.86 1.733-1.96 1.733-1.04 0-1.96-.75-1.96-1.733V.045h3.92zm-7.1 0V35.4c0 .982-.87 1.733-1.97 1.733-1.04 0-1.96-.75-1.96-1.733V.045h3.93zm-7.1 0V39.04c0 .982-.86 1.733-1.96 1.733s-1.97-.75-1.97-1.733V.045h3.93zm-7.1 0V43.14c0 .924-.87 1.733-1.97 1.733s-1.96-.81-1.96-1.733V.045h3.93zm-7.1 0v39.63c0 .924-.92 1.733-1.96 1.733-1.1 0-1.97-.81-1.97-1.733V.045h3.93zm-7.1 0v46.9c0 .982-.92 1.733-1.96 1.733-1.1 0-1.96-.75-1.96-1.733V.045h3.92zm138.65 0v23.8c0 .982.87 1.733 1.97 1.733 1.1 0 1.96-.75 1.96-1.733V.045h-3.93zm7.1 0v37.782c0 .982.87 1.733 1.96 1.733 1.1 0 1.97-.75 1.97-1.733V.045h-3.93zm7.1 0v39.4c0 .982.86 1.733 1.96 1.733s1.96-.75 1.96-1.733V.045h-3.92zm7.1 0v46.9c0 .982.92 1.733 1.96 1.733 1.1 0 1.97-.75 1.97-1.733V.045h-3.93zm7.16 0V29.97c0 .924.87 1.733 1.97 1.733 1.04 0 1.96-.81 1.96-1.733V.045h-3.93zm7.1 0v32.93c0 .982.87 1.733 1.96 1.733 1.04 0 1.97-.75 1.97-1.733V.045h-3.93zm7.1 0v23.8c0 .982.87 1.733 1.97 1.733s1.96-.75 1.96-1.733V.045h-3.93zm7.1 0v15.54c0 .924.87 1.733 1.96 1.733 1.1 0 1.97-.81 1.97-1.733V.045h-3.93zm7.1 0v29.3c0 .982.92 1.733 1.96 1.733 1.1 0 1.97-.75 1.97-1.733V.045h-3.93zm7.1 0v31.312c0 .982.93 1.733 1.97 1.733 1.1 0 1.96-.75 1.96-1.733V.045h-3.93zm7.17 0V33.61c0 .924.86 1.733 1.96 1.733 1.04 0 1.96-.81 1.96-1.733V.045h-3.92zm7.1 0V35.4c0 .982.87 1.733 1.97 1.733 1.04 0 1.96-.75 1.96-1.733V.045h-3.93zm7.1 0v23.397c0 .982.86 1.733 1.96 1.733s1.97-.75 1.97-1.733V.045h-3.93zm7.1 0V18.82c0 .924.87 1.733 1.97 1.733 1.1 0 1.96-.81 1.96-1.733V.045h-3.93zm7.1 0v44.08c0 .982.92 1.733 1.96 1.733 1.1 0 1.97-.75 1.97-1.733V.045h-3.93zm7.1 0V35.4c0 .982.92 1.733 1.96 1.733 1.1 0 1.96-.75 1.96-1.733V.045h-3.92zm7.16 0V39.04c0 .982.86 1.733 1.96 1.733 1.04 0 1.97-.75 1.97-1.733V.045h-3.93zm7.1 0V43.14c0 .924.87 1.733 1.97 1.733 1.04 0 1.96-.81 1.96-1.733V.045h-3.93zm7.1 0v39.63c0 .924.87 1.733 1.96 1.733 1.1 0 1.97-.81 1.97-1.733V.045h-3.93zm356.33 0v23.8c0 .982.86 1.733 1.96 1.733 1.04 0 1.97-.75 1.97-1.733V.045h-3.93zm7.1 0v37.782c0 .982.87 1.733 1.97 1.733 1.04 0 1.96-.75 1.96-1.733V.045h-3.93zm7.1 0v39.4c0 .982.87 1.733 1.96 1.733 1.1 0 1.97-.75 1.97-1.733V.045h-3.93zm7.1 0v46.9c0 .982.86 1.733 1.96 1.733s1.96-.75 1.96-1.733V.045h-3.92zm7.1 0V29.97c0 .924.93 1.733 1.97 1.733 1.1 0 1.96-.81 1.96-1.733V.045h-3.93zm7.1 0v32.93c0 .982.92 1.733 1.96 1.733 1.1 0 1.96-.75 1.96-1.733V.045h-3.92zm7.16 0v23.8c0 .982.87 1.733 1.96 1.733 1.04 0 1.97-.75 1.97-1.733V.045h-3.93zm7.1 0v15.54c0 .924.86 1.733 1.96 1.733s1.96-.81 1.96-1.733V.045h-3.92zm7.1 0v29.3c0 .982.87 1.733 1.97 1.733 1.1 0 1.96-.75 1.96-1.733V.045h-3.93zm7.1 0v31.312c0 .982.86 1.733 1.96 1.733s1.97-.75 1.97-1.733V.045h-3.93zm7.1 0V33.61c0 .924.93 1.733 1.97 1.733 1.1 0 1.96-.81 1.96-1.733V.045h-3.93zm7.17 0V35.4c0 .982.86 1.733 1.96 1.733 1.04 0 1.96-.75 1.96-1.733V.045h-3.92zm7.1 0v23.397c0 .982.87 1.733 1.97 1.733 1.04 0 1.96-.75 1.96-1.733V.045h-3.93zm7.1 0V18.82c0 .924.87 1.733 1.96 1.733 1.1 0 1.97-.81 1.97-1.733V.045h-3.93zm7.1 0v44.08c0 .982.87 1.733 1.97 1.733s1.96-.75 1.96-1.733V.045h-3.93zm7.1 0V35.4c0 .982.92 1.733 1.96 1.733 1.1 0 1.97-.75 1.97-1.733V.045h-3.93zm7.1 0V39.04c0 .982.92 1.733 1.96 1.733 1.1 0 1.96-.75 1.96-1.733V.045h-3.92zm7.16 0V43.14c0 .924.87 1.733 1.96 1.733 1.04 0 1.97-.81 1.97-1.733V.045h-3.93zm7.1 0v39.63c0 .924.87 1.733 1.97 1.733 1.04 0 1.96-.81 1.96-1.733V.045h-3.93zm7.1 0v46.9c0 .982.87 1.733 1.96 1.733 1.1 0 1.97-.75 1.97-1.733V.045h-3.93zm-138.65 0v23.8c0 .982-.92 1.733-1.96 1.733-1.1 0-1.97-.75-1.97-1.733V.045h3.93zm-7.16 0v37.782c0 .982-.87 1.733-1.97 1.733-1.04 0-1.96-.75-1.96-1.733V.045h3.93zm-7.1 0v39.4c0 .982-.86 1.733-1.96 1.733-1.04 0-1.97-.75-1.97-1.733V.045h3.93zm-7.1 0v46.9c0 .982-.87 1.733-1.97 1.733-1.1 0-1.96-.75-1.96-1.733V.045h3.93zm-7.1 0V29.97c0 .924-.87 1.733-1.96 1.733-1.1 0-1.97-.81-1.97-1.733V.045h3.93zm-7.1 0v32.93c0 .982-.93 1.733-1.97 1.733-1.1 0-1.96-.75-1.96-1.733V.045h3.93zm-7.1 0v23.8c0 .982-.92 1.733-1.96 1.733-1.1 0-1.97-.75-1.97-1.733V.045h3.93zm-7.16 0v15.54c0 .924-.87 1.733-1.97 1.733-1.04 0-1.96-.81-1.96-1.733V.045h3.93zm-7.1 0v29.3c0 .982-.87 1.733-1.96 1.733-1.04 0-1.97-.75-1.97-1.733V.045h3.93zm-146.1 0v23.8c0 .982.87 1.733 1.96 1.733 1.04 0 1.97-.75 1.97-1.733V.045h-3.93zm7.1 0v37.782c0 .982.87 1.733 1.97 1.733 1.04 0 1.96-.75 1.96-1.733V.045h-3.93zm7.1 0v39.4c0 .982.87 1.733 1.96 1.733 1.1 0 1.97-.75 1.97-1.733V.045h-3.93zm7.1 0v46.9c0 .982.86 1.733 1.96 1.733s1.96-.75 1.96-1.733V.045h-3.92zm7.1 0V29.97c0 .924.93 1.733 1.97 1.733 1.1 0 1.96-.81 1.96-1.733V.045h-3.93zm7.1 0v32.93c0 .982.92 1.733 1.96 1.733 1.1 0 1.97-.75 1.97-1.733V.045h-3.93zm7.16 0v23.8c0 .982.87 1.733 1.97 1.733 1.04 0 1.96-.75 1.96-1.733V.045h-3.93zm7.1 0v15.54c0 .924.86 1.733 1.96 1.733s1.97-.81 1.97-1.733V.045h-3.93zm7.1 0v29.3c0 .982.87 1.733 1.97 1.733 1.1 0 1.96-.75 1.96-1.733V.045h-3.93zm7.1 0v31.312c0 .982.87 1.733 1.96 1.733 1.1 0 1.97-.75 1.97-1.733V.045h-3.93zm7.1 0V33.61c0 .924.93 1.733 1.97 1.733 1.1 0 1.96-.81 1.96-1.733V.045h-3.93zm7.17 0V35.4c0 .982.86 1.733 1.96 1.733 1.04 0 1.97-.75 1.97-1.733V.045h-3.93zm7.1 0v23.397c0 .982.87 1.733 1.97 1.733 1.04 0 1.96-.75 1.96-1.733V.045h-3.93zm7.1 0V18.82c0 .924.87 1.733 1.96 1.733 1.1 0 1.97-.81 1.97-1.733V.045h-3.93zm7.1 0v44.08c0 .982.86 1.733 1.96 1.733s1.96-.75 1.96-1.733V.045h-3.92zm7.1 0V35.4c0 .982.87 1.733 1.97 1.733 1.1 0 1.96-.75 1.96-1.733V.045h-3.93zm7.1 0V39.04c0 .982.92 1.733 1.96 1.733 1.1 0 1.96-.75 1.96-1.733V.045h-3.92zm7.16 0V43.14c0 .924.87 1.733 1.96 1.733 1.04 0 1.97-.81 1.97-1.733V.045h-3.93zm7.1 0v39.63c0 .924.86 1.733 1.96 1.733 1.04 0 1.96-.81 1.96-1.733V.045h-3.92zm7.1 0v46.9c0 .982.87 1.733 1.97 1.733 1.1 0 1.96-.75 1.96-1.733V.045h-3.93zm-138.65 0v23.8c0 .982-.92 1.733-1.96 1.733-1.1 0-1.97-.75-1.97-1.733V.045h3.93zm-7.16 0v37.782c0 .982-.87 1.733-1.96 1.733-1.04 0-1.97-.75-1.97-1.733V.045h3.93zm-7.1 0v39.4c0 .982-.86 1.733-1.96 1.733-1.04 0-1.96-.75-1.96-1.733V.045h3.92zm-7.1 0v46.9c0 .982-.87 1.733-1.97 1.733-1.1 0-1.96-.75-1.96-1.733V.045h3.93zm-7.1 0V29.97c0 .924-.86 1.733-1.96 1.733s-1.97-.81-1.97-1.733V.045h3.93zm-7.1 0v32.93c0 .982-.93 1.733-1.97 1.733-1.1 0-1.96-.75-1.96-1.733V.045h3.93zm-7.1 0v23.8c0 .982-.92 1.733-1.96 1.733-1.1 0-1.97-.75-1.97-1.733V.045h3.93zm-7.16 0v15.54c0 .924-.87 1.733-1.97 1.733-1.04 0-1.96-.81-1.96-1.733V.045h3.93zm-7.1 0v29.3c0 .982-.87 1.733-1.96 1.733-1.04 0-1.97-.75-1.97-1.733V.045h3.93zm-7.1 0v31.312c0 .982-.87 1.733-1.97 1.733s-1.96-.75-1.96-1.733V.045h3.93zm-7.1 0V33.61c0 .924-.87 1.733-1.96 1.733-1.1 0-1.97-.81-1.97-1.733V.045h3.93zm-7.1 0V35.4c0 .982-.92 1.733-1.96 1.733-1.1 0-1.96-.75-1.96-1.733V.045h3.92zm-7.1 0v23.397c0 .982-.93 1.733-1.97 1.733-1.1 0-1.96-.75-1.96-1.733V.045h3.93zm-7.17 0V18.82c0 .924-.86 1.733-1.96 1.733-1.04 0-1.96-.81-1.96-1.733V.045h3.92zm-7.1 0v44.08c0 .982-.87 1.733-1.97 1.733-1.1 0-1.96-.75-1.96-1.733V.045h3.93zm-7.1 0V35.4c0 .982-.86 1.733-1.96 1.733s-1.97-.75-1.97-1.733V.045h3.93zm-7.1 0V39.04c0 .982-.87 1.733-1.97 1.733s-1.96-.75-1.96-1.733V.045h3.93zm-7.1 0V43.14c0 .924-.92 1.733-1.96 1.733-1.1 0-1.97-.81-1.97-1.733V.045h3.93zm-7.1 0v39.63c0 .924-.93 1.733-2.03 1.733-1.04 0-1.96-.81-1.96-1.733V.045h4zm843.56 0v46.9c0 .982.87 1.733 1.96 1.733 1.1 0 1.97-.75 1.97-1.733V.045h-3.93zm-7.1 0v39.4c0 .982.87 1.733 1.97 1.733s1.96-.75 1.96-1.733V.045h-3.93zm-7.1 0v37.782c0 .982.86 1.733 1.96 1.733 1.04 0 1.97-.75 1.97-1.733V.045h-3.93zm-7.17 0v23.8c0 .982.93 1.733 2.03 1.733 1.04 0 1.96-.75 1.96-1.733V.045h-4zm-138.64 0v46.9c0 .982-.87 1.733-1.97 1.733-1.04 0-1.96-.75-1.96-1.733V.045h3.93zm7.1 0v39.63c0 .924-.87 1.733-1.96 1.733-1.04 0-1.97-.81-1.97-1.733V.045h3.93zm7.16 0V43.14c0 .924-.92 1.733-1.96 1.733-1.1 0-1.96-.81-1.96-1.733V.045h3.92zm7.1 0V39.04c0 .982-.92 1.733-1.96 1.733-1.1 0-1.97-.75-1.97-1.733V.045h3.93zm7.1 0V35.4c0 .982-.87 1.733-1.97 1.733s-1.96-.75-1.96-1.733V.045h3.93zm7.1 0v44.08c0 .982-.87 1.733-1.96 1.733-1.1 0-1.97-.75-1.97-1.733V.045h3.93zm7.1 0V18.82c0 .924-.87 1.733-1.97 1.733-1.04 0-1.96-.81-1.96-1.733V.045h3.93zm7.1 0v23.397c0 .982-.86 1.733-1.96 1.733-1.04 0-1.97-.75-1.97-1.733V.045h3.93zm7.17 0V35.4c0 .982-.93 1.733-1.97 1.733-1.1 0-1.96-.75-1.96-1.733V.045h3.93zm7.1 0V33.61c0 .924-.92 1.733-1.96 1.733-1.1 0-1.97-.81-1.97-1.733V.045h3.93zm7.1 0v31.312c0 .982-.87 1.733-1.97 1.733-1.1 0-1.96-.75-1.96-1.733V.045h3.93zm7.1 0v29.3c0 .982-.86 1.733-1.96 1.733s-1.96-.75-1.96-1.733V.045h3.92zm7.1 0v15.54c0 .924-.87 1.733-1.96 1.733-1.04 0-1.97-.81-1.97-1.733V.045h3.93zm7.1 0v23.8c0 .982-.87 1.733-1.97 1.733-1.04 0-1.96-.75-1.96-1.733V.045h3.93zm7.16 0v32.93c0 .982-.93 1.733-1.97 1.733-1.1 0-1.96-.75-1.96-1.733V.045h3.93zm7.1 0V29.97c0 .924-.86 1.733-1.96 1.733s-1.96-.81-1.96-1.733V.045h3.92zm7.1 0v46.9c0 .982-.87 1.733-1.96 1.733-1.1 0-1.97-.75-1.97-1.733V.045h3.93zm7.1 0v39.4c0 .982-.87 1.733-1.97 1.733s-1.96-.75-1.96-1.733V.045h3.93zm7.1 0v37.782c0 .982-.86 1.733-1.96 1.733-1.04 0-1.97-.75-1.97-1.733V.045h3.93zm7.17 0v23.8c0 .982-.93 1.733-1.97 1.733-1.1 0-1.96-.75-1.96-1.733V.045h3.93zm-146.16 0v29.3c0 .982.86 1.733 1.96 1.733s1.96-.75 1.96-1.733V.045h-3.92zm-7.1 0v15.54c0 .924.87 1.733 1.96 1.733 1.04 0 1.97-.81 1.97-1.733V.045h-3.93zm-7.1 0v23.8c0 .982.87 1.733 1.97 1.733 1.04 0 1.96-.75 1.96-1.733V.045h-3.93zm-7.16 0v32.93c0 .982.93 1.733 1.97 1.733 1.1 0 1.96-.75 1.96-1.733V.045h-3.93zm-7.1 0V29.97c0 .924.86 1.733 1.96 1.733s1.96-.81 1.96-1.733V.045h-3.92zm-7.1 0v46.9c0 .982.87 1.733 1.96 1.733 1.1 0 1.97-.75 1.97-1.733V.045h-3.93zm-7.1 0v39.4c0 .982.87 1.733 1.97 1.733s1.96-.75 1.96-1.733V.045h-3.93zm-7.1 0v37.782c0 .982.86 1.733 1.96 1.733 1.04 0 1.97-.75 1.97-1.733V.045h-3.93zm-7.17 0v23.8c0 .982.93 1.733 1.97 1.733 1.1 0 1.96-.75 1.96-1.733V.045h-3.93zm-131.54 0v39.63c0 .924-.87 1.733-1.96 1.733-1.04 0-1.97-.81-1.97-1.733V.045h3.93zm7.16 0V43.14c0 .924-.92 1.733-1.96 1.733-1.1 0-1.96-.81-1.96-1.733V.045h3.92zm7.1 0V39.04c0 .982-.92 1.733-1.96 1.733-1.1 0-1.97-.75-1.97-1.733V.045h3.93zm7.1 0V35.4c0 .982-.87 1.733-1.97 1.733s-1.96-.75-1.96-1.733V.045h3.93zm7.1 0v44.08c0 .982-.86 1.733-1.96 1.733s-1.97-.75-1.97-1.733V.045h3.93zm7.1 0V18.82c0 .924-.87 1.733-1.97 1.733-1.04 0-1.96-.81-1.96-1.733V.045h3.93zm7.1 0v23.397c0 .982-.86 1.733-1.96 1.733-1.04 0-1.96-.75-1.96-1.733V.045h3.92zm7.17 0V35.4c0 .982-.93 1.733-1.97 1.733-1.1 0-1.96-.75-1.96-1.733V.045h3.93zm7.1 0V33.61c0 .924-.92 1.733-1.96 1.733-1.1 0-1.97-.81-1.97-1.733V.045h3.93zm7.1 0v31.312c0 .982-.87 1.733-1.97 1.733-1.1 0-1.96-.75-1.96-1.733V.045h3.93zm7.1 0v29.3c0 .982-.86 1.733-1.96 1.733s-1.96-.75-1.96-1.733V.045h3.92zm7.1 0v15.54c0 .924-.87 1.733-1.96 1.733-1.04 0-1.97-.81-1.97-1.733V.045h3.93zm7.1 0v23.8c0 .982-.87 1.733-1.97 1.733-1.04 0-1.96-.75-1.96-1.733V.045h3.93zm7.16 0v32.93c0 .982-.92 1.733-1.96 1.733-1.1 0-1.97-.75-1.97-1.733V.045h3.93zm7.1 0V29.97c0 .924-.93 1.733-1.97 1.733-1.1 0-1.96-.81-1.96-1.733V.045h3.93zm7.1 0v46.9c0 .982-.87 1.733-1.96 1.733-1.1 0-1.97-.75-1.97-1.733V.045h3.93zm7.1 0v39.4c0 .982-.87 1.733-1.97 1.733-1.1 0-1.96-.75-1.96-1.733V.045h3.93zm7.1 0v37.782c0 .982-.86 1.733-1.96 1.733-1.04 0-1.97-.75-1.97-1.733V.045h3.93zm7.17 0v23.8c0 .982-.93 1.733-1.97 1.733-1.1 0-2.02-.75-2.02-1.733V.045h4z"/><path d="M488.275 0v46.9c0 .982-.867 1.733-1.964 1.733-1.04 0-1.964-.75-1.964-1.733V0h3.928zM139.11 0v23.8c0 .982-.867 1.733-1.964 1.733s-1.965-.75-1.965-1.733V0h3.93zm-7.106 0v37.782c0 .982-.924 1.733-1.964 1.733-1.098 0-1.964-.75-1.964-1.733V0h3.928zm-7.164 0v39.4c0 .982-.866 1.733-1.964 1.733-1.04 0-1.964-.75-1.964-1.733V0h3.928zm-7.105 0v46.9c0 .982-.867 1.733-1.965 1.733-1.04 0-1.964-.75-1.964-1.733V0h3.93zm-7.106 0v29.925c0 .924-.867 1.733-1.964 1.733s-1.964-.81-1.964-1.733V0h3.928zm-7.106 0v32.93c0 .982-.866 1.733-1.964 1.733s-1.964-.75-1.964-1.733V0h3.928zM96.42 0v23.8c0 .982-.867 1.733-1.964 1.733S92.5 24.784 92.5 23.8V0h3.928zm-7.106 0v15.54c0 .924-.924 1.733-1.964 1.733-1.098 0-1.964-.81-1.964-1.733V0h3.928zM82.15 0v29.3c0 .982-.867 1.733-1.964 1.733-1.04 0-1.964-.75-1.964-1.733V0h3.928zm-7.106 0v31.312c0 .982-.867 1.733-1.964 1.733-1.04 0-1.964-.75-1.964-1.733V0h3.928zm-7.106 0v33.565c0 .924-.867 1.733-1.964 1.733S64 34.49 64 33.565V0h3.928zm-7.106 0v35.356c0 .982-.867 1.733-1.964 1.733s-1.964-.75-1.964-1.733V0h3.928zm-7.106 0v23.397c0 .982-.924 1.733-1.964 1.733-1.098 0-1.964-.75-1.964-1.733V0h3.928zM46.62 0v18.775c0 .924-.924 1.733-1.964 1.733-1.098 0-1.964-.81-1.964-1.733V0h3.928zm-7.163 0v44.08c0 .982-.867 1.733-1.964 1.733-1.04 0-1.964-.75-1.964-1.733V0h3.928zM32.35 0v35.356c0 .982-.866 1.733-1.964 1.733-1.04 0-1.964-.75-1.964-1.733V0h3.928zm-7.106 0v38.995c0 .982-.867 1.733-1.964 1.733s-1.964-.75-1.964-1.733V0h3.928zM18.14 0v43.097c0 .924-.867 1.733-1.964 1.733s-1.964-.81-1.964-1.733V0h3.928zm-7.106 0v39.63c0 .924-.924 1.733-1.964 1.733-1.098 0-1.964-.81-1.964-1.733V0h3.928zM3.928 0v46.9c0 .982-.924 1.733-1.964 1.733C.867 48.643 0 47.892 0 46.9V0h3.928zm138.65 0v23.8c0 .982.866 1.733 1.964 1.733s1.964-.75 1.964-1.733V0h-3.928zm7.106 0v37.782c0 .982.866 1.733 1.964 1.733s1.964-.75 1.964-1.733V0h-3.928zm7.105 0v39.4c0 .982.867 1.733 1.965 1.733s1.964-.75 1.964-1.733V0h-3.93zm7.106 0v46.9c0 .982.925 1.733 1.964 1.733 1.098 0 1.965-.75 1.965-1.733V0h-3.93zm7.164 0v29.925c0 .924.866 1.733 1.964 1.733 1.04 0 1.964-.81 1.964-1.733V0h-3.928zm7.106 0v32.93c0 .982.866 1.733 1.964 1.733 1.04 0 1.964-.75 1.964-1.733V0h-3.928zm7.105 0v23.8c0 .982.867 1.733 1.964 1.733s1.965-.75 1.965-1.733V0h-3.93zm7.106 0v15.54c0 .924.867 1.733 1.964 1.733s1.964-.81 1.964-1.733V0h-3.928zm7.106 0v29.3c0 .982.924 1.733 1.964 1.733 1.098 0 1.964-.75 1.964-1.733V0h-3.928zm146.16 0v23.8c0 .982-.867 1.733-1.964 1.733s-1.964-.75-1.964-1.733V0h3.928zm-7.106 0v37.782c0 .982-.924 1.733-1.964 1.733-1.098 0-1.964-.75-1.964-1.733V0h3.928zm-7.106 0v39.4c0 .982-.924 1.733-1.964 1.733-1.097 0-2.022-.75-2.022-1.733V0h3.986zm-7.163 0v46.9c0 .982-.867 1.733-1.964 1.733-1.04 0-1.965-.75-1.965-1.733V0h3.93zm-7.106 0v29.925c0 .924-.866 1.733-1.964 1.733s-1.964-.81-1.964-1.733V0h3.928zm-7.106 0v32.93c0 .982-.866 1.733-1.964 1.733s-1.964-.75-1.964-1.733V0h3.928zm-7.105 0v23.8c0 .982-.867 1.733-1.965 1.733s-1.964-.75-1.964-1.733V0h3.93zm-7.106 0v15.54c0 .924-.924 1.733-1.964 1.733-1.098 0-1.965-.81-1.965-1.733V0h3.93zm-7.164 0v29.3c0 .982-.866 1.733-1.964 1.733-1.04 0-1.964-.75-1.964-1.733V0h3.928zm-7.105 0v31.312c0 .982-.867 1.733-1.965 1.733-1.04 0-1.964-.75-1.964-1.733V0h3.93zm-7.106 0v33.565c0 .924-.867 1.733-1.964 1.733s-1.965-.81-1.965-1.733V0h3.93zm-7.106 0v35.356c0 .982-.867 1.733-1.964 1.733s-1.964-.75-1.964-1.733V0h3.928zm-7.106 0v23.397c0 .982-.924 1.733-1.964 1.733-1.098 0-1.964-.75-1.964-1.733V0h3.928zm-7.105 0v18.775c0 .924-.925 1.733-1.965 1.733-1.097 0-1.964-.81-1.964-1.733V0h3.93zm-7.164 0v44.08c0 .982-.867 1.733-1.964 1.733-1.04 0-1.964-.75-1.964-1.733V0h3.928zm-7.106 0v35.356c0 .982-.866 1.733-1.964 1.733-1.04 0-1.964-.75-1.964-1.733V0h3.928zm-7.106 0v38.995c0 .982-.866 1.733-1.964 1.733s-1.964-.75-1.964-1.733V0h3.928zm-7.105 0v43.097c0 .924-.867 1.733-1.964 1.733s-1.965-.81-1.965-1.733V0h3.93zm-7.106 0v39.63c0 .924-.924 1.733-1.964 1.733-1.098 0-1.964-.81-1.964-1.733V0h3.928zm-7.106 0v46.9c0 .982-.924 1.733-1.964 1.733-1.098 0-1.964-.75-1.964-1.733V0h3.928zm138.65 0v23.8c0 .982.867 1.733 1.964 1.733s1.965-.75 1.965-1.733V0h-3.93zm7.106 0v37.782c0 .982.866 1.733 1.964 1.733s1.964-.75 1.964-1.733V0h-3.928zm7.106 0v39.4c0 .982.866 1.733 1.964 1.733s1.964-.75 1.964-1.733V0h-3.928zm7.105 0v46.9c0 .982.925 1.733 1.965 1.733 1.097 0 1.964-.75 1.964-1.733V0h-3.93zm7.164 0v29.925c0 .924.866 1.733 1.964 1.733 1.04 0 1.964-.81 1.964-1.733V0h-3.928zm7.106 0v32.93c0 .982.866 1.733 1.964 1.733 1.04 0 1.964-.75 1.964-1.733V0h-3.928zm7.105 0v23.8c0 .982.867 1.733 1.965 1.733s1.964-.75 1.964-1.733V0h-3.93zm7.106 0v15.54c0 .924.867 1.733 1.964 1.733s1.965-.81 1.965-1.733V0h-3.93zM406 0v29.3c0 .982.924 1.733 1.964 1.733 1.098 0 1.964-.75 1.964-1.733V0H406zm7.106 0v31.312c0 .982.924 1.733 1.964 1.733 1.098 0 1.964-.75 1.964-1.733V0h-3.928zm7.163 0v33.565c0 .924.867 1.733 1.964 1.733 1.04 0 1.965-.81 1.965-1.733V0h-3.93zm7.106 0v35.356c0 .982.867 1.733 1.964 1.733 1.04 0 1.964-.75 1.964-1.733V0h-3.928zm7.106 0v23.397c0 .982.866 1.733 1.964 1.733s1.964-.75 1.964-1.733V0h-3.928zm7.106 0v18.775c0 .924.866 1.733 1.964 1.733s1.964-.81 1.964-1.733V0h-3.928zm7.105 0v44.08c0 .982.925 1.733 1.964 1.733 1.098 0 1.965-.75 1.965-1.733V0h-3.93zm7.106 0v35.356c0 .982.924 1.733 1.964 1.733 1.098 0 1.964-.75 1.964-1.733V0h-3.928zm7.164 0v38.995c0 .982.866 1.733 1.964 1.733 1.04 0 1.964-.75 1.964-1.733V0h-3.928zm7.105 0v43.097c0 .924.867 1.733 1.965 1.733 1.04 0 1.964-.81 1.964-1.733V0h-3.93zm7.106 0v39.63c0 .924.867 1.733 1.964 1.733s1.965-.81 1.965-1.733V0h-3.93zM833.51 0v23.8c0 .982.867 1.733 1.964 1.733 1.04 0 1.964-.75 1.964-1.733V0h-3.928zm7.106 0v37.782c0 .982.866 1.733 1.964 1.733 1.04 0 1.964-.75 1.964-1.733V0h-3.928zm7.105 0v39.4c0 .982.867 1.733 1.965 1.733s1.964-.75 1.964-1.733V0h-3.93zm7.106 0v46.9c0 .982.867 1.733 1.964 1.733s1.965-.75 1.965-1.733V0h-3.93zm7.106 0v29.925c0 .924.924 1.733 1.964 1.733 1.098 0 1.964-.81 1.964-1.733V0h-3.928zm7.106 0v32.93c0 .982.924 1.733 1.964 1.733 1.098 0 1.964-.75 1.964-1.733V0h-3.928zm7.163 0v23.8c0 .982.867 1.733 1.964 1.733 1.04 0 1.965-.75 1.965-1.733V0h-3.93zm7.106 0v15.54c0 .924.867 1.733 1.964 1.733s1.964-.81 1.964-1.733V0h-3.928zm7.106 0v29.3c0 .982.866 1.733 1.964 1.733s1.964-.75 1.964-1.733V0h-3.928zm7.106 0v31.312c0 .982.866 1.733 1.964 1.733s1.964-.75 1.964-1.733V0h-3.928zm7.105 0v33.565c0 .924.925 1.733 1.965 1.733 1.097 0 1.964-.81 1.964-1.733V0h-3.93zm7.164 0v35.356c0 .982.866 1.733 1.964 1.733 1.04 0 1.964-.75 1.964-1.733V0H911.8zm7.106 0v23.397c0 .982.866 1.733 1.964 1.733 1.04 0 1.964-.75 1.964-1.733V0h-3.928zM926 0v18.775c0 .924.867 1.733 1.965 1.733s1.964-.81 1.964-1.733V0H926zm7.106 0v44.08c0 .982.867 1.733 1.964 1.733s1.965-.75 1.965-1.733V0h-3.93zm7.106 0v35.356c0 .982.924 1.733 1.964 1.733 1.098 0 1.964-.75 1.964-1.733V0h-3.928zm7.106 0v38.995c0 .982.924 1.733 1.964 1.733 1.097 0 1.964-.75 1.964-1.733V0h-3.928zm7.163 0v43.097c0 .924.867 1.733 1.964 1.733 1.04 0 1.965-.81 1.965-1.733V0h-3.93zm7.106 0v39.63c0 .924.866 1.733 1.964 1.733 1.04 0 1.964-.81 1.964-1.733V0h-3.928zm7.106 0v46.9c0 .982.866 1.733 1.964 1.733s1.964-.75 1.964-1.733V0h-3.928zm-138.65 0v23.8c0 .982-.925 1.733-1.964 1.733-1.098 0-1.965-.75-1.965-1.733V0h3.93zm-7.164 0v37.782c0 .982-.866 1.733-1.964 1.733-1.04 0-1.964-.75-1.964-1.733V0h3.928zm-7.106 0v39.4c0 .982-.866 1.733-1.964 1.733-1.04 0-1.964-.75-1.964-1.733V0h3.928zm-7.105 0v46.9c0 .982-.867 1.733-1.964 1.733s-1.965-.75-1.965-1.733V0h3.93zm-7.106 0v29.925c0 .924-.867 1.733-1.964 1.733s-1.964-.81-1.964-1.733V0h3.928zm-7.106 0v32.93c0 .982-.924 1.733-1.964 1.733-1.098 0-1.964-.75-1.964-1.733V0h3.928zm-7.106 0v23.8c0 .982-.924 1.733-1.964 1.733-1.097 0-1.964-.75-1.964-1.733V0h3.928zm-7.163 0v15.54c0 .924-.867 1.733-1.964 1.733-1.04 0-1.965-.81-1.965-1.733V0h3.93zm-7.106 0v29.3c0 .982-.866 1.733-1.964 1.733-1.04 0-1.964-.75-1.964-1.733V0h3.928zm-146.1 0v23.8c0 .982.866 1.733 1.964 1.733 1.04 0 1.964-.75 1.964-1.733V0h-3.928zm7.106 0v37.782c0 .982.866 1.733 1.964 1.733 1.04 0 1.964-.75 1.964-1.733V0h-3.928zm7.105 0v39.4c0 .982.867 1.733 1.964 1.733s1.965-.75 1.965-1.733V0h-3.93zm7.106 0v46.9c0 .982.867 1.733 1.964 1.733s1.964-.75 1.964-1.733V0H648.3zm7.106 0v29.925c0 .924.924 1.733 1.964 1.733 1.098 0 1.964-.81 1.964-1.733V0h-3.928zm7.106 0v32.93c0 .982.924 1.733 1.964 1.733 1.097 0 1.964-.75 1.964-1.733V0h-3.928zm7.163 0v23.8c0 .982.867 1.733 1.964 1.733 1.04 0 1.965-.75 1.965-1.733V0h-3.93zm7.106 0v15.54c0 .924.866 1.733 1.964 1.733s1.964-.81 1.964-1.733V0h-3.928zm7.106 0v29.3c0 .982.866 1.733 1.964 1.733s1.964-.75 1.964-1.733V0h-3.928zm7.105 0v31.312c0 .982.867 1.733 1.965 1.733s1.964-.75 1.964-1.733V0h-3.93zm7.106 0v33.565c0 .924.924 1.733 1.964 1.733 1.098 0 1.965-.81 1.965-1.733V0h-3.93zm7.164 0v35.356c0 .982.866 1.733 1.964 1.733 1.04 0 1.964-.75 1.964-1.733V0h-3.928zm7.105 0v23.397c0 .982.867 1.733 1.965 1.733 1.04 0 1.964-.75 1.964-1.733V0h-3.93zm7.106 0v18.775c0 .924.867 1.733 1.964 1.733s1.965-.81 1.965-1.733V0h-3.93zm7.106 0v44.08c0 .982.867 1.733 1.964 1.733s1.964-.75 1.964-1.733V0h-3.928zm7.106 0v35.356c0 .982.866 1.733 1.964 1.733s1.964-.75 1.964-1.733V0h-3.928zm7.105 0v38.995c0 .982.925 1.733 1.965 1.733 1.097 0 1.964-.75 1.964-1.733V0h-3.93zm7.164 0v43.097c0 .924.867 1.733 1.964 1.733 1.04 0 1.964-.81 1.964-1.733V0h-3.928zm7.106 0v39.63c0 .924.866 1.733 1.964 1.733 1.04 0 1.964-.81 1.964-1.733V0h-3.928zm7.106 0v46.9c0 .982.866 1.733 1.964 1.733s1.964-.75 1.964-1.733V0h-3.928zm-138.65 0v23.8c0 .982-.925 1.733-1.965 1.733-1.097 0-1.964-.75-1.964-1.733V0h3.93zm-7.164 0v37.782c0 .982-.867 1.733-1.964 1.733-1.04 0-1.964-.75-1.964-1.733V0h3.928zm-7.106 0v39.4c0 .982-.866 1.733-1.964 1.733-1.04 0-1.964-.75-1.964-1.733V0h3.928zm-7.106 0v46.9c0 .982-.866 1.733-1.964 1.733s-1.964-.75-1.964-1.733V0h3.928zm-7.105 0v29.925c0 .924-.867 1.733-1.964 1.733s-1.965-.81-1.965-1.733V0h3.93zm-7.106 0v32.93c0 .982-.924 1.733-1.964 1.733-1.098 0-1.964-.75-1.964-1.733V0h3.928zm-7.106 0v23.8c0 .982-.924 1.733-1.964 1.733-1.098 0-1.964-.75-1.964-1.733V0h3.928zm-7.163 0v15.54c0 .924-.867 1.733-1.964 1.733-1.04 0-1.965-.81-1.965-1.733V0h3.93zm-7.106 0v29.3c0 .982-.867 1.733-1.964 1.733-1.04 0-1.964-.75-1.964-1.733V0h3.928zm-7.106 0v31.312c0 .982-.866 1.733-1.964 1.733s-1.964-.75-1.964-1.733V0h3.928zm-7.106 0v33.565c0 .924-.866 1.733-1.964 1.733s-1.964-.81-1.964-1.733V0h3.928zm-7.105 0v35.356c0 .982-.925 1.733-1.965 1.733-1.097 0-1.964-.75-1.964-1.733V0h3.93zm-7.106 0v23.397c0 .982-.924 1.733-1.964 1.733-1.098 0-1.964-.75-1.964-1.733V0h3.928zm-7.164 0v18.775c0 .924-.866 1.733-1.964 1.733-1.04 0-1.964-.81-1.964-1.733V0h3.928zm-7.105 0v44.08c0 .982-.867 1.733-1.965 1.733s-1.964-.75-1.964-1.733V0h3.93zm-7.106 0v35.356c0 .982-.867 1.733-1.964 1.733s-1.965-.75-1.965-1.733V0h3.93zm-7.106 0v38.995c0 .982-.866 1.733-1.964 1.733s-1.964-.75-1.964-1.733V0h3.928zm-7.106 0v43.097c0 .924-.924 1.733-1.964 1.733-1.098 0-1.964-.81-1.964-1.733V0h3.928zm-7.105 0v39.63c0 .924-.925 1.733-2.022 1.733-1.04 0-1.965-.81-1.965-1.733V0h3.987zM1339 0v46.9c0 .982.87 1.733 1.96 1.733 1.1 0 1.97-.75 1.97-1.733V0H1339zm-7.1 0v39.4c0 .982.87 1.733 1.97 1.733s1.96-.75 1.96-1.733V0h-3.93zm-7.1 0v37.782c0 .982.86 1.733 1.96 1.733 1.04 0 1.97-.75 1.97-1.733V0h-3.93zm-7.17 0v23.8c0 .982.93 1.733 2.03 1.733 1.04 0 1.96-.75 1.96-1.733V0h-4zm-138.64 0v46.9c0 .982-.87 1.733-1.97 1.733-1.04 0-1.96-.75-1.96-1.733V0h3.93zm7.1 0v39.63c0 .924-.87 1.733-1.96 1.733-1.04 0-1.97-.81-1.97-1.733V0h3.93zm7.16 0v43.097c0 .924-.92 1.733-1.96 1.733-1.1 0-1.96-.81-1.96-1.733V0h3.92zm7.1 0v38.995c0 .982-.92 1.733-1.96 1.733-1.1 0-1.97-.75-1.97-1.733V0h3.93zm7.1 0v35.356c0 .982-.87 1.733-1.97 1.733s-1.96-.75-1.96-1.733V0h3.93zm7.1 0v44.08c0 .982-.87 1.733-1.96 1.733-1.1 0-1.97-.75-1.97-1.733V0h3.93zm7.1 0v18.775c0 .924-.87 1.733-1.97 1.733-1.04 0-1.96-.81-1.96-1.733V0h3.93zm7.1 0v23.397c0 .982-.86 1.733-1.96 1.733-1.04 0-1.97-.75-1.97-1.733V0h3.93zm7.17 0v35.356c0 .982-.93 1.733-1.97 1.733-1.1 0-1.96-.75-1.96-1.733V0h3.93zm7.1 0v33.565c0 .924-.92 1.733-1.96 1.733-1.1 0-1.97-.81-1.97-1.733V0h3.93zm7.1 0v31.312c0 .982-.87 1.733-1.97 1.733-1.1 0-1.96-.75-1.96-1.733V0h3.93zm7.1 0v29.3c0 .982-.86 1.733-1.96 1.733s-1.96-.75-1.96-1.733V0h3.92zm7.1 0v15.54c0 .924-.87 1.733-1.96 1.733-1.04 0-1.97-.81-1.97-1.733V0h3.93zm7.1 0v23.8c0 .982-.87 1.733-1.97 1.733-1.04 0-1.96-.75-1.96-1.733V0h3.93zm7.16 0v32.93c0 .982-.93 1.733-1.97 1.733-1.1 0-1.96-.75-1.96-1.733V0h3.93zm7.1 0v29.925c0 .924-.86 1.733-1.96 1.733s-1.96-.81-1.96-1.733V0h3.92zm7.1 0v46.9c0 .982-.87 1.733-1.96 1.733-1.1 0-1.97-.75-1.97-1.733V0h3.93zm7.1 0v39.4c0 .982-.87 1.733-1.97 1.733s-1.96-.75-1.96-1.733V0h3.93zm7.1 0v37.782c0 .982-.86 1.733-1.96 1.733-1.04 0-1.97-.75-1.97-1.733V0h3.93zm7.17 0v23.8c0 .982-.93 1.733-1.97 1.733-1.1 0-1.96-.75-1.96-1.733V0h3.93zm-146.16 0v29.3c0 .982.86 1.733 1.96 1.733s1.96-.75 1.96-1.733V0h-3.92zm-7.1 0v15.54c0 .924.87 1.733 1.96 1.733 1.04 0 1.97-.81 1.97-1.733V0h-3.93zm-7.1 0v23.8c0 .982.87 1.733 1.97 1.733 1.04 0 1.96-.75 1.96-1.733V0h-3.93zm-7.16 0v32.93c0 .982.93 1.733 1.97 1.733 1.1 0 1.96-.75 1.96-1.733V0h-3.93zm-7.1 0v29.925c0 .924.86 1.733 1.96 1.733s1.96-.81 1.96-1.733V0h-3.92zm-7.1 0v46.9c0 .982.87 1.733 1.96 1.733 1.1 0 1.97-.75 1.97-1.733V0h-3.93zm-7.1 0v39.4c0 .982.87 1.733 1.97 1.733s1.96-.75 1.96-1.733V0h-3.93zm-7.1 0v37.782c0 .982.86 1.733 1.96 1.733 1.04 0 1.97-.75 1.97-1.733V0h-3.93zm-7.17 0v23.8c0 .982.93 1.733 1.97 1.733 1.1 0 1.96-.75 1.96-1.733V0h-3.93zM979.555 0v39.63c0 .924-.867 1.733-1.965 1.733-1.04 0-1.964-.81-1.964-1.733V0h3.93zm7.163 0v43.097c0 .924-.924 1.733-1.964 1.733-1.098 0-1.964-.81-1.964-1.733V0h3.928zm7.106 0v38.995c0 .982-.924 1.733-1.964 1.733-1.098 0-1.965-.75-1.965-1.733V0h3.93zm7.106 0v35.356c0 .982-.87 1.733-1.965 1.733S997 36.338 997 35.356V0h3.93zm7.1 0v44.08c0 .982-.86 1.733-1.96 1.733s-1.97-.75-1.97-1.733V0h3.93zm7.1 0v18.775c0 .924-.87 1.733-1.97 1.733-1.04 0-1.96-.81-1.96-1.733V0h3.93zm7.1 0v23.397c0 .982-.86 1.733-1.96 1.733-1.04 0-1.96-.75-1.96-1.733V0h3.92zm7.17 0v35.356c0 .982-.93 1.733-1.97 1.733-1.1 0-1.96-.75-1.96-1.733V0h3.93zm7.1 0v33.565c0 .924-.92 1.733-1.96 1.733-1.1 0-1.97-.81-1.97-1.733V0h3.93zm7.1 0v31.312c0 .982-.87 1.733-1.97 1.733-1.1 0-1.96-.75-1.96-1.733V0h3.93zm7.1 0v29.3c0 .982-.86 1.733-1.96 1.733s-1.96-.75-1.96-1.733V0h3.92zm7.1 0v15.54c0 .924-.87 1.733-1.96 1.733-1.04 0-1.97-.81-1.97-1.733V0h3.93zm7.1 0v23.8c0 .982-.87 1.733-1.97 1.733-1.04 0-1.96-.75-1.96-1.733V0h3.93zm7.16 0v32.93c0 .982-.92 1.733-1.96 1.733-1.1 0-1.97-.75-1.97-1.733V0h3.93zm7.1 0v29.925c0 .924-.93 1.733-1.97 1.733-1.1 0-1.96-.81-1.96-1.733V0h3.93zm7.1 0v46.9c0 .982-.87 1.733-1.96 1.733-1.1 0-1.97-.75-1.97-1.733V0h3.93zm7.1 0v39.4c0 .982-.87 1.733-1.97 1.733-1.1 0-1.96-.75-1.96-1.733V0h3.93zm7.1 0v37.782c0 .982-.86 1.733-1.96 1.733-1.04 0-1.97-.75-1.97-1.733V0h3.93zm7.17 0v23.8c0 .982-.93 1.733-1.97 1.733-1.1 0-2.02-.75-2.02-1.733V0h4z"/><path d="M3180.28 0v46.9c0 .982-.87 1.733-1.97 1.733-1.04 0-1.96-.75-1.96-1.733V0h3.93zM2831.1 0v23.8c0 .982-.87 1.733-1.96 1.733-1.1 0-1.97-.75-1.97-1.733V0h3.93zm-7.1 0v37.782c0 .982-.93 1.733-1.97 1.733-1.1 0-1.96-.75-1.96-1.733V0h3.93zm-7.17 0v39.4c0 .982-.86 1.733-1.96 1.733-1.04 0-1.97-.75-1.97-1.733V0h3.93zm-7.1 0v46.9c0 .982-.87 1.733-1.97 1.733-1.04 0-1.96-.75-1.96-1.733V0h3.93zm-7.1 0v29.925c0 .924-.87 1.733-1.96 1.733-1.1 0-1.97-.81-1.97-1.733V0h3.93zm-7.1 0v32.93c0 .982-.86 1.733-1.96 1.733s-1.96-.75-1.96-1.733V0h3.92zm-7.1 0v23.8c0 .982-.87 1.733-1.97 1.733-1.1 0-1.96-.75-1.96-1.733V0h3.93zm-7.1 0v15.54c0 .924-.92 1.733-1.96 1.733-1.1 0-1.97-.81-1.97-1.733V0h3.93zm-7.16 0v29.3c0 .982-.87 1.733-1.96 1.733-1.04 0-1.97-.75-1.97-1.733V0h3.93zm-7.1 0v31.312c0 .982-.86 1.733-1.96 1.733-1.04 0-1.96-.75-1.96-1.733V0h3.92zm-7.1 0v33.565c0 .924-.87 1.733-1.97 1.733-1.1 0-1.96-.81-1.96-1.733V0h3.93zm-7.1 0v35.356c0 .982-.86 1.733-1.96 1.733s-1.97-.75-1.97-1.733V0h3.93zm-7.1 0v23.397c0 .982-.93 1.733-1.97 1.733-1.1 0-1.96-.75-1.96-1.733V0h3.93zm-7.1 0v18.775c0 .924-.92 1.733-1.96 1.733-1.1 0-1.97-.81-1.97-1.733V0h3.93zm-7.16 0v44.08c0 .982-.87 1.733-1.97 1.733-1.04 0-1.96-.75-1.96-1.733V0h3.93zm-7.1 0v35.356c0 .982-.87 1.733-1.96 1.733-1.04 0-1.97-.75-1.97-1.733V0h3.93zm-7.1 0v38.995c0 .982-.87 1.733-1.97 1.733s-1.96-.75-1.96-1.733V0h3.93zm-7.1 0v43.097c0 .924-.87 1.733-1.96 1.733-1.1 0-1.97-.81-1.97-1.733V0h3.93zm-7.1 0v39.63c0 .924-.92 1.733-1.96 1.733-1.1 0-1.96-.81-1.96-1.733V0h3.92zm-7.1 0v46.9c0 .982-.93 1.733-1.97 1.733-1.1 0-1.96-.75-1.96-1.733V0h3.93zm138.65 0v23.8c0 .982.86 1.733 1.96 1.733s1.97-.75 1.97-1.733V0h-3.93zm7.1 0v37.782c0 .982.87 1.733 1.97 1.733s1.96-.75 1.96-1.733V0h-3.93zm7.1 0v39.4c0 .982.87 1.733 1.96 1.733 1.1 0 1.97-.75 1.97-1.733V0h-3.93zm7.1 0v46.9c0 .982.93 1.733 1.97 1.733 1.1 0 1.96-.75 1.96-1.733V0h-3.93zm7.17 0v29.925c0 .924.86 1.733 1.96 1.733 1.04 0 1.97-.81 1.97-1.733V0h-3.93zm7.1 0v32.93c0 .982.87 1.733 1.97 1.733 1.04 0 1.96-.75 1.96-1.733V0h-3.93zm7.1 0v23.8c0 .982.87 1.733 1.96 1.733 1.1 0 1.97-.75 1.97-1.733V0h-3.93zm7.1 0v15.54c0 .924.86 1.733 1.96 1.733s1.96-.81 1.96-1.733V0h-3.92zm7.1 0v29.3c0 .982.93 1.733 1.97 1.733 1.1 0 1.96-.75 1.96-1.733V0h-3.93zm146.16 0v23.8c0 .982-.87 1.733-1.96 1.733-1.1 0-1.97-.75-1.97-1.733V0h3.93zm-7.1 0v37.782c0 .982-.92 1.733-1.96 1.733-1.1 0-1.96-.75-1.96-1.733V0h3.92zm-7.1 0v39.4c0 .982-.93 1.733-1.97 1.733-1.1 0-2.02-.75-2.02-1.733V0h4zm-7.16 0v46.9c0 .982-.87 1.733-1.97 1.733-1.04 0-1.96-.75-1.96-1.733V0h3.93zm-7.1 0v29.925c0 .924-.87 1.733-1.96 1.733-1.1 0-1.97-.81-1.97-1.733V0h3.93zm-7.1 0v32.93c0 .982-.86 1.733-1.96 1.733s-1.96-.75-1.96-1.733V0h3.92zm-7.1 0v23.8c0 .982-.87 1.733-1.97 1.733-1.1 0-1.96-.75-1.96-1.733V0h3.93zm-7.1 0v15.54c0 .924-.92 1.733-1.96 1.733-1.1 0-1.97-.81-1.97-1.733V0h3.93zm-7.16 0v29.3c0 .982-.87 1.733-1.97 1.733-1.04 0-1.96-.75-1.96-1.733V0h3.93zm-7.1 0v31.312c0 .982-.86 1.733-1.96 1.733-1.04 0-1.97-.75-1.97-1.733V0h3.93zm-7.1 0v33.565c0 .924-.87 1.733-1.97 1.733-1.1 0-1.96-.81-1.96-1.733V0h3.93zm-7.1 0v35.356c0 .982-.87 1.733-1.96 1.733-1.1 0-1.97-.75-1.97-1.733V0h3.93zm-7.1 0v23.397c0 .982-.93 1.733-1.97 1.733-1.1 0-1.96-.75-1.96-1.733V0h3.93zm-7.1 0v18.775c0 .924-.92 1.733-1.96 1.733-1.1 0-1.97-.81-1.97-1.733V0h3.93zM2938 0v44.08c0 .982-.87 1.733-1.97 1.733-1.04 0-1.96-.75-1.96-1.733V0h3.93zm-7.1 0v35.356c0 .982-.87 1.733-1.96 1.733-1.04 0-1.97-.75-1.97-1.733V0h3.93zm-7.1 0v38.995c0 .982-.86 1.733-1.96 1.733s-1.96-.75-1.96-1.733V0h3.92zm-7.1 0v43.097c0 .924-.87 1.733-1.96 1.733-1.1 0-1.97-.81-1.97-1.733V0h3.93zm-7.1 0v39.63c0 .924-.92 1.733-1.96 1.733-1.1 0-1.96-.81-1.96-1.733V0h3.92zm-7.1 0v46.9c0 .982-.93 1.733-1.97 1.733-1.1 0-1.96-.75-1.96-1.733V0h3.93zm138.65 0v23.8c0 .982.86 1.733 1.96 1.733s1.97-.75 1.97-1.733V0h-3.93zm7.1 0v37.782c0 .982.87 1.733 1.97 1.733 1.1 0 1.96-.75 1.96-1.733V0h-3.93zm7.1 0v39.4c0 .982.86 1.733 1.96 1.733s1.97-.75 1.97-1.733V0h-3.93zm7.1 0v46.9c0 .982.93 1.733 1.97 1.733 1.1 0 1.96-.75 1.96-1.733V0h-3.93zm7.17 0v29.925c0 .924.86 1.733 1.96 1.733 1.04 0 1.97-.81 1.97-1.733V0h-3.93zm7.1 0v32.93c0 .982.87 1.733 1.97 1.733 1.04 0 1.96-.75 1.96-1.733V0h-3.93zm7.1 0v23.8c0 .982.87 1.733 1.96 1.733 1.1 0 1.97-.75 1.97-1.733V0h-3.93zm7.1 0v15.54c0 .924.87 1.733 1.97 1.733s1.96-.81 1.96-1.733V0h-3.93zm7.1 0v29.3c0 .982.92 1.733 1.96 1.733 1.1 0 1.97-.75 1.97-1.733V0H3098zm7.1 0v31.312c0 .982.92 1.733 1.96 1.733 1.1 0 1.96-.75 1.96-1.733V0h-3.92zm7.16 0v33.565c0 .924.87 1.733 1.96 1.733 1.04 0 1.97-.81 1.97-1.733V0h-3.93zm7.1 0v35.356c0 .982.86 1.733 1.96 1.733 1.04 0 1.96-.75 1.96-1.733V0h-3.92zm7.1 0v23.397c0 .982.87 1.733 1.97 1.733 1.1 0 1.96-.75 1.96-1.733V0h-3.93zm7.1 0v18.775c0 .924.86 1.733 1.96 1.733s1.97-.81 1.97-1.733V0h-3.93zm7.1 0v44.08c0 .982.93 1.733 1.97 1.733 1.1 0 1.96-.75 1.96-1.733V0h-3.93zm7.1 0v35.356c0 .982.92 1.733 1.96 1.733 1.1 0 1.97-.75 1.97-1.733V0h-3.93zm7.16 0v38.995c0 .982.87 1.733 1.97 1.733 1.04 0 1.96-.75 1.96-1.733V0h-3.93zm7.1 0v43.097c0 .924.86 1.733 1.96 1.733 1.04 0 1.97-.81 1.97-1.733V0h-3.93zm7.1 0v39.63c0 .924.87 1.733 1.97 1.733s1.96-.81 1.96-1.733V0h-3.93zm356.33 0v23.8c0 .982.87 1.733 1.97 1.733 1.04 0 1.96-.75 1.96-1.733V0h-3.93zm7.1 0v37.782c0 .982.86 1.733 1.96 1.733 1.04 0 1.97-.75 1.97-1.733V0h-3.93zm7.1 0v39.4c0 .982.87 1.733 1.97 1.733 1.1 0 1.96-.75 1.96-1.733V0h-3.93zm7.1 0v46.9c0 .982.87 1.733 1.96 1.733 1.1 0 1.97-.75 1.97-1.733V0h-3.93zm7.1 0v29.925c0 .924.93 1.733 1.97 1.733 1.1 0 1.96-.81 1.96-1.733V0h-3.93zm7.1 0v32.93c0 .982.92 1.733 1.96 1.733 1.1 0 1.97-.75 1.97-1.733V0h-3.93zm7.16 0v23.8c0 .982.87 1.733 1.97 1.733 1.04 0 1.96-.75 1.96-1.733V0h-3.93zm7.1 0v15.54c0 .924.87 1.733 1.96 1.733 1.1 0 1.97-.81 1.97-1.733V0h-3.93zm7.1 0v29.3c0 .982.86 1.733 1.96 1.733s1.96-.75 1.96-1.733V0h-3.92zm7.1 0v31.312c0 .982.87 1.733 1.97 1.733 1.1 0 1.96-.75 1.96-1.733V0h-3.93zm7.1 0v33.565c0 .924.92 1.733 1.96 1.733 1.1 0 1.97-.81 1.97-1.733V0h-3.93zm7.16 0v35.356c0 .982.87 1.733 1.96 1.733 1.04 0 1.97-.75 1.97-1.733V0h-3.93zm7.1 0v23.397c0 .982.86 1.733 1.96 1.733 1.04 0 1.96-.75 1.96-1.733V0h-3.92zm7.1 0v18.775c0 .924.87 1.733 1.97 1.733 1.1 0 1.96-.81 1.96-1.733V0H3618zm7.1 0v44.08c0 .982.86 1.733 1.96 1.733s1.97-.75 1.97-1.733V0h-3.93zm7.1 0v35.356c0 .982.93 1.733 1.97 1.733 1.1 0 1.96-.75 1.96-1.733V0h-3.93zm7.1 0v38.995c0 .982.92 1.733 1.96 1.733 1.1 0 1.97-.75 1.97-1.733V0h-3.93zm7.16 0v43.097c0 .924.87 1.733 1.97 1.733 1.04 0 1.96-.81 1.96-1.733V0h-3.93zm7.1 0v39.63c0 .924.86 1.733 1.96 1.733 1.04 0 1.97-.81 1.97-1.733V0h-3.93zm7.1 0v46.9c0 .982.87 1.733 1.97 1.733s1.96-.75 1.96-1.733V0h-3.93zm-138.64 0v23.8c0 .982-.93 1.733-1.97 1.733-1.1 0-1.96-.75-1.96-1.733V0h3.93zm-7.17 0v37.782c0 .982-.86 1.733-1.96 1.733-1.04 0-1.97-.75-1.97-1.733V0h3.93zm-7.1 0v39.4c0 .982-.87 1.733-1.97 1.733-1.04 0-1.96-.75-1.96-1.733V0h3.93zm-7.1 0v46.9c0 .982-.87 1.733-1.96 1.733-1.1 0-1.97-.75-1.97-1.733V0h3.93zm-7.1 0v29.925c0 .924-.86 1.733-1.96 1.733s-1.96-.81-1.96-1.733V0h3.92zm-7.1 0v32.93c0 .982-.93 1.733-1.97 1.733-1.1 0-1.96-.75-1.96-1.733V0h3.93zm-7.1 0v23.8c0 .982-.92 1.733-1.96 1.733-1.1 0-1.97-.75-1.97-1.733V0h3.93zm-7.16 0v15.54c0 .924-.87 1.733-1.96 1.733-1.04 0-1.97-.81-1.97-1.733V0h3.93zm-7.1 0v29.3c0 .982-.86 1.733-1.96 1.733-1.04 0-1.96-.75-1.96-1.733V0h3.92zm-146.1 0v23.8c0 .982.87 1.733 1.97 1.733 1.04 0 1.96-.75 1.96-1.733V0h-3.93zm7.1 0v37.782c0 .982.86 1.733 1.96 1.733 1.04 0 1.97-.75 1.97-1.733V0h-3.93zm7.1 0v39.4c0 .982.87 1.733 1.97 1.733s1.96-.75 1.96-1.733V0h-3.93zm7.1 0v46.9c0 .982.87 1.733 1.96 1.733 1.1 0 1.97-.75 1.97-1.733V0h-3.93zm7.1 0v29.925c0 .924.92 1.733 1.96 1.733 1.1 0 1.96-.81 1.96-1.733V0h-3.92zm7.1 0v32.93c0 .982.93 1.733 1.97 1.733 1.1 0 1.96-.75 1.96-1.733V0h-3.93zm7.16 0v23.8c0 .982.87 1.733 1.97 1.733 1.04 0 1.96-.75 1.96-1.733V0h-3.93zm7.1 0v15.54c0 .924.87 1.733 1.96 1.733 1.1 0 1.97-.81 1.97-1.733V0h-3.93zm7.1 0v29.3c0 .982.86 1.733 1.96 1.733s1.96-.75 1.96-1.733V0h-3.92zm7.1 0v31.312c0 .982.87 1.733 1.97 1.733 1.1 0 1.96-.75 1.96-1.733V0H3383zm7.1 0v33.565c0 .924.92 1.733 1.96 1.733 1.1 0 1.97-.81 1.97-1.733V0h-3.93zm7.16 0v35.356c0 .982.87 1.733 1.97 1.733 1.04 0 1.96-.75 1.96-1.733V0h-3.93zm7.1 0v23.397c0 .982.86 1.733 1.96 1.733 1.04 0 1.97-.75 1.97-1.733V0h-3.93zm7.1 0v18.775c0 .924.87 1.733 1.97 1.733 1.1 0 1.96-.81 1.96-1.733V0h-3.93zm7.1 0v44.08c0 .982.87 1.733 1.96 1.733 1.1 0 1.97-.75 1.97-1.733V0h-3.93zm7.1 0v35.356c0 .982.87 1.733 1.97 1.733s1.96-.75 1.96-1.733V0h-3.93zm7.1 0v38.995c0 .982.92 1.733 1.96 1.733 1.1 0 1.97-.75 1.97-1.733V0h-3.93zm7.16 0v43.097c0 .924.87 1.733 1.97 1.733 1.04 0 1.96-.81 1.96-1.733V0h-3.93zm7.1 0v39.63c0 .924.87 1.733 1.96 1.733 1.04 0 1.97-.81 1.97-1.733V0h-3.93zm7.1 0v46.9c0 .982.86 1.733 1.96 1.733s1.96-.75 1.96-1.733V0h-3.92zm-138.65 0v23.8c0 .982-.93 1.733-1.97 1.733-1.1 0-1.96-.75-1.96-1.733V0h3.93zm-7.17 0v37.782c0 .982-.86 1.733-1.96 1.733-1.04 0-1.97-.75-1.97-1.733V0h3.93zm-7.1 0v39.4c0 .982-.87 1.733-1.97 1.733-1.04 0-1.96-.75-1.96-1.733V0h3.93zm-7.1 0v46.9c0 .982-.87 1.733-1.96 1.733-1.1 0-1.97-.75-1.97-1.733V0h3.93zm-7.1 0v29.925c0 .924-.87 1.733-1.97 1.733s-1.96-.81-1.96-1.733V0h3.93zm-7.1 0v32.93c0 .982-.92 1.733-1.96 1.733-1.1 0-1.97-.75-1.97-1.733V0h3.93zm-7.1 0v23.8c0 .982-.92 1.733-1.96 1.733-1.1 0-1.96-.75-1.96-1.733V0h3.92zm-7.16 0v15.54c0 .924-.87 1.733-1.96 1.733-1.04 0-1.97-.81-1.97-1.733V0h3.93zm-7.1 0v29.3c0 .982-.86 1.733-1.96 1.733-1.04 0-1.96-.75-1.96-1.733V0h3.92zm-7.1 0v31.312c0 .982-.87 1.733-1.97 1.733-1.1 0-1.96-.75-1.96-1.733V0h3.93zm-7.1 0v33.565c0 .924-.86 1.733-1.96 1.733s-1.97-.81-1.97-1.733V0h3.93zm-7.1 0v35.356c0 .982-.93 1.733-1.97 1.733-1.1 0-1.96-.75-1.96-1.733V0h3.93zm-7.1 0v23.397c0 .982-.92 1.733-1.96 1.733-1.1 0-1.97-.75-1.97-1.733V0h3.93zm-7.16 0v18.775c0 .924-.87 1.733-1.97 1.733-1.04 0-1.96-.81-1.96-1.733V0h3.93zm-7.1 0v44.08c0 .982-.86 1.733-1.96 1.733s-1.97-.75-1.97-1.733V0h3.93zm-7.1 0v35.356c0 .982-.87 1.733-1.97 1.733s-1.96-.75-1.96-1.733V0h3.93zm-7.1 0v38.995c0 .982-.87 1.733-1.96 1.733-1.1 0-1.97-.75-1.97-1.733V0h3.93zm-7.1 0v43.097c0 .924-.92 1.733-1.96 1.733-1.1 0-1.96-.81-1.96-1.733V0h3.92zm-7.1 0v39.63c0 .924-.93 1.733-2.02 1.733-1.04 0-1.97-.81-1.97-1.733V0h4zM4031 0v46.9c0 .982.87 1.733 1.96 1.733 1.1 0 1.97-.75 1.97-1.733V0H4031zm-7.1 0v39.4c0 .982.87 1.733 1.97 1.733s1.96-.75 1.96-1.733V0h-3.93zm-7.1 0v37.782c0 .982.86 1.733 1.96 1.733 1.04 0 1.97-.75 1.97-1.733V0h-3.93zm-7.17 0v23.8c0 .982.93 1.733 2.03 1.733 1.04 0 1.96-.75 1.96-1.733V0h-4zm-138.64 0v46.9c0 .982-.87 1.733-1.97 1.733-1.04 0-1.96-.75-1.96-1.733V0h3.93zm7.1 0v39.63c0 .924-.87 1.733-1.96 1.733-1.04 0-1.97-.81-1.97-1.733V0h3.93zm7.16 0v43.097c0 .924-.92 1.733-1.96 1.733-1.1 0-1.96-.81-1.96-1.733V0h3.92zm7.1 0v38.995c0 .982-.92 1.733-1.96 1.733-1.1 0-1.97-.75-1.97-1.733V0h3.93zm7.1 0v35.356c0 .982-.87 1.733-1.97 1.733s-1.96-.75-1.96-1.733V0h3.93zm7.1 0v44.08c0 .982-.87 1.733-1.96 1.733-1.1 0-1.97-.75-1.97-1.733V0h3.93zm7.1 0v18.775c0 .924-.87 1.733-1.97 1.733-1.04 0-1.96-.81-1.96-1.733V0h3.93zm7.1 0v23.397c0 .982-.86 1.733-1.96 1.733-1.04 0-1.97-.75-1.97-1.733V0h3.93zm7.17 0v35.356c0 .982-.93 1.733-1.97 1.733-1.1 0-1.96-.75-1.96-1.733V0h3.93zm7.1 0v33.565c0 .924-.92 1.733-1.96 1.733-1.1 0-1.97-.81-1.97-1.733V0h3.93zm7.1 0v31.312c0 .982-.87 1.733-1.97 1.733-1.1 0-1.96-.75-1.96-1.733V0h3.93zm7.1 0v29.3c0 .982-.86 1.733-1.96 1.733s-1.96-.75-1.96-1.733V0h3.92zm7.1 0v15.54c0 .924-.87 1.733-1.96 1.733-1.04 0-1.97-.81-1.97-1.733V0h3.93zm7.1 0v23.8c0 .982-.87 1.733-1.97 1.733-1.04 0-1.96-.75-1.96-1.733V0h3.93zm7.16 0v32.93c0 .982-.93 1.733-1.97 1.733-1.1 0-1.96-.75-1.96-1.733V0h3.93zm7.1 0v29.925c0 .924-.86 1.733-1.96 1.733s-1.96-.81-1.96-1.733V0h3.92zm7.1 0v46.9c0 .982-.87 1.733-1.96 1.733-1.1 0-1.97-.75-1.97-1.733V0h3.93zm7.1 0v39.4c0 .982-.87 1.733-1.97 1.733s-1.96-.75-1.96-1.733V0h3.93zm7.1 0v37.782c0 .982-.86 1.733-1.96 1.733-1.04 0-1.97-.75-1.97-1.733V0h3.93zm7.17 0v23.8c0 .982-.93 1.733-1.97 1.733-1.1 0-1.96-.75-1.96-1.733V0h3.93zm-146.16 0v29.3c0 .982.86 1.733 1.96 1.733s1.96-.75 1.96-1.733V0h-3.92zm-7.1 0v15.54c0 .924.87 1.733 1.96 1.733 1.04 0 1.97-.81 1.97-1.733V0h-3.93zm-7.1 0v23.8c0 .982.87 1.733 1.97 1.733 1.04 0 1.96-.75 1.96-1.733V0h-3.93zm-7.16 0v32.93c0 .982.93 1.733 1.97 1.733 1.1 0 1.96-.75 1.96-1.733V0h-3.93zm-7.1 0v29.925c0 .924.86 1.733 1.96 1.733s1.96-.81 1.96-1.733V0h-3.92zm-7.1 0v46.9c0 .982.87 1.733 1.96 1.733 1.1 0 1.97-.75 1.97-1.733V0h-3.93zm-7.1 0v39.4c0 .982.87 1.733 1.97 1.733s1.96-.75 1.96-1.733V0h-3.93zm-7.1 0v37.782c0 .982.86 1.733 1.96 1.733 1.04 0 1.97-.75 1.97-1.733V0h-3.93zm-7.17 0v23.8c0 .982.93 1.733 1.97 1.733 1.1 0 1.96-.75 1.96-1.733V0h-3.93zm-131.53 0v39.63c0 .924-.87 1.733-1.97 1.733-1.04 0-1.96-.81-1.96-1.733V0h3.93zm7.16 0v43.097c0 .924-.93 1.733-1.97 1.733-1.1 0-1.96-.81-1.96-1.733V0h3.93zm7.1 0v38.995c0 .982-.92 1.733-1.96 1.733-1.1 0-1.96-.75-1.96-1.733V0h3.92zm7.1 0v35.356c0 .982-.87 1.733-1.96 1.733-1.1 0-1.97-.75-1.97-1.733V0h3.93zm7.1 0v44.08c0 .982-.86 1.733-1.96 1.733s-1.97-.75-1.97-1.733V0h3.93zm7.1 0v18.775c0 .924-.87 1.733-1.97 1.733-1.04 0-1.96-.81-1.96-1.733V0h3.93zm7.1 0v23.397c0 .982-.86 1.733-1.96 1.733-1.04 0-1.96-.75-1.96-1.733V0h3.92zm7.17 0v35.356c0 .982-.93 1.733-1.97 1.733-1.1 0-1.96-.75-1.96-1.733V0h3.93zm7.1 0v33.565c0 .924-.92 1.733-1.96 1.733-1.1 0-1.97-.81-1.97-1.733V0h3.93zm7.1 0v31.312c0 .982-.87 1.733-1.97 1.733-1.1 0-1.96-.75-1.96-1.733V0h3.93zm7.1 0v29.3c0 .982-.86 1.733-1.96 1.733s-1.96-.75-1.96-1.733V0h3.92zm7.1 0v15.54c0 .924-.87 1.733-1.96 1.733-1.04 0-1.97-.81-1.97-1.733V0h3.93zm7.1 0v23.8c0 .982-.87 1.733-1.97 1.733-1.04 0-1.96-.75-1.96-1.733V0h3.93zm7.16 0v32.93c0 .982-.92 1.733-1.96 1.733-1.1 0-1.97-.75-1.97-1.733V0h3.93zm7.1 0v29.925c0 .924-.93 1.733-1.97 1.733-1.1 0-1.96-.81-1.96-1.733V0h3.93zm7.1 0v46.9c0 .982-.87 1.733-1.96 1.733-1.1 0-1.97-.75-1.97-1.733V0h3.93zm7.1 0v39.4c0 .982-.87 1.733-1.97 1.733-1.1 0-1.96-.75-1.96-1.733V0h3.93zm7.1 0v37.782c0 .982-.86 1.733-1.96 1.733-1.04 0-1.97-.75-1.97-1.733V0h3.93zm7.17 0v23.8c0 .982-.93 1.733-1.97 1.733-1.1 0-2.02-.75-2.02-1.733V0h4z"/></svg>