<svg xmlns="http://www.w3.org/2000/svg" width="1346" height="49" fill="none" xmlns:v="https://vecta.io/nano"><g clip-path="url(#A)"><path fill-rule="evenodd" d="M488.272 0v46.9c0 .982-.867 1.733-1.964 1.733-1.04 0-1.964-.75-1.964-1.733V0h3.928zM139.108 0v23.8c0 .982-.867 1.733-1.964 1.733s-1.965-.75-1.965-1.733V0h3.93zm-7.106 0v37.782c0 .982-.924 1.733-1.964 1.733-1.098 0-1.964-.75-1.964-1.733V0h3.928zm-7.164 0v39.4c0 .982-.866 1.733-1.964 1.733-1.04 0-1.964-.75-1.964-1.733V0h3.928zm-7.105 0v46.9c0 .982-.867 1.733-1.965 1.733-1.04 0-1.964-.75-1.964-1.733V0h3.93zm-7.106 0v29.925c0 .924-.867 1.733-1.964 1.733s-1.964-.81-1.964-1.733V0h3.928zm-7.106 0v32.93c0 .982-.866 1.733-1.964 1.733s-1.964-.75-1.964-1.733V0h3.928zm-7.106 0v23.8c0 .982-.867 1.733-1.964 1.733s-1.964-.75-1.964-1.733V0h3.928zM89.3 0v15.54c0 .924-.924 1.733-1.964 1.733-1.098 0-1.964-.81-1.964-1.733V0H89.3zm-7.163 0v29.3c0 .982-.867 1.733-1.964 1.733-1.04 0-1.964-.75-1.964-1.733V0h3.928zM75.04 0v31.312c0 .982-.867 1.733-1.964 1.733-1.04 0-1.964-.75-1.964-1.733V0h3.928zm-7.106 0v33.565c0 .924-.867 1.733-1.964 1.733s-1.964-.81-1.964-1.733V0h3.928zM60.83 0v35.356c0 .982-.867 1.733-1.964 1.733s-1.964-.75-1.964-1.733V0h3.928zm-7.106 0v23.397c0 .982-.924 1.733-1.964 1.733-1.098 0-1.964-.75-1.964-1.733V0h3.928zm-7.106 0v18.775c0 .924-.924 1.733-1.964 1.733-1.098 0-1.964-.81-1.964-1.733V0h3.928zm-7.163 0v44.08c0 .982-.867 1.733-1.964 1.733-1.04 0-1.964-.75-1.964-1.733V0h3.928zm-7.106 0v35.356c0 .982-.866 1.733-1.964 1.733-1.04 0-1.964-.75-1.964-1.733V0h3.928zm-7.106 0v38.995c0 .982-.867 1.733-1.964 1.733s-1.964-.75-1.964-1.733V0h3.928zm-7.106 0v43.097c0 .924-.867 1.733-1.964 1.733s-1.964-.81-1.964-1.733V0h3.928zM11.03 0v39.63c0 .924-.924 1.733-1.964 1.733-1.098 0-1.964-.81-1.964-1.733V0h3.928zM3.925 0v46.9c0 .982-.924 1.733-1.964 1.733-1.098 0-1.964-.75-1.964-1.733V0h3.928zm138.65 0v23.8c0 .982.866 1.733 1.964 1.733s1.964-.75 1.964-1.733V0h-3.928zm7.106 0v37.782c0 .982.866 1.733 1.964 1.733s1.964-.75 1.964-1.733V0h-3.928zm7.105 0v39.4c0 .982.867 1.733 1.965 1.733s1.964-.75 1.964-1.733V0h-3.93zm7.106 0v46.9c0 .982.925 1.733 1.964 1.733 1.098 0 1.965-.75 1.965-1.733V0h-3.93zm7.164 0v29.925c0 .924.866 1.733 1.964 1.733 1.04 0 1.964-.81 1.964-1.733V0h-3.928zm7.106 0v32.93c0 .982.866 1.733 1.964 1.733 1.04 0 1.964-.75 1.964-1.733V0h-3.928zm7.105 0v23.8c0 .982.867 1.733 1.964 1.733s1.965-.75 1.965-1.733V0h-3.93zm7.106 0v15.54c0 .924.867 1.733 1.964 1.733s1.964-.81 1.964-1.733V0h-3.928zm7.106 0v29.3c0 .982.924 1.733 1.964 1.733 1.098 0 1.964-.75 1.964-1.733V0h-3.928zm146.16 0v23.8c0 .982-.867 1.733-1.964 1.733s-1.964-.75-1.964-1.733V0h3.928zm-7.106 0v37.782c0 .982-.924 1.733-1.964 1.733-1.098 0-1.964-.75-1.964-1.733V0h3.928zm-7.106 0v39.4c0 .982-.924 1.733-1.964 1.733-1.097 0-2.022-.75-2.022-1.733V0h3.986zm-7.163 0v46.9c0 .982-.867 1.733-1.964 1.733-1.04 0-1.965-.75-1.965-1.733V0h3.93zm-7.106 0v29.925c0 .924-.866 1.733-1.964 1.733s-1.964-.81-1.964-1.733V0h3.928zm-7.106 0v32.93c0 .982-.866 1.733-1.964 1.733s-1.964-.75-1.964-1.733V0h3.928zm-7.105 0v23.8c0 .982-.867 1.733-1.965 1.733s-1.964-.75-1.964-1.733V0h3.93zm-7.106 0v15.54c0 .924-.924 1.733-1.964 1.733-1.098 0-1.965-.81-1.965-1.733V0h3.93zm-7.164 0v29.3c0 .982-.866 1.733-1.964 1.733-1.04 0-1.964-.75-1.964-1.733V0h3.928zm-7.105 0v31.312c0 .982-.867 1.733-1.965 1.733-1.04 0-1.964-.75-1.964-1.733V0h3.93zm-7.106 0v33.565c0 .924-.867 1.733-1.964 1.733s-1.965-.81-1.965-1.733V0h3.93zm-7.106 0v35.356c0 .982-.867 1.733-1.964 1.733s-1.964-.75-1.964-1.733V0h3.928zm-7.106 0v23.397c0 .982-.924 1.733-1.964 1.733-1.098 0-1.964-.75-1.964-1.733V0h3.928zm-7.105 0v18.775c0 .924-.925 1.733-1.965 1.733-1.097 0-1.964-.81-1.964-1.733V0h3.93zm-7.164 0v44.08c0 .982-.867 1.733-1.964 1.733-1.04 0-1.964-.75-1.964-1.733V0h3.928zm-7.106 0v35.356c0 .982-.866 1.733-1.964 1.733-1.04 0-1.964-.75-1.964-1.733V0h3.928zm-7.106 0v38.995c0 .982-.866 1.733-1.964 1.733s-1.964-.75-1.964-1.733V0h3.928zm-7.105 0v43.097c0 .924-.867 1.733-1.964 1.733s-1.965-.81-1.965-1.733V0h3.93zm-7.106 0v39.63c0 .924-.924 1.733-1.964 1.733-1.098 0-1.964-.81-1.964-1.733V0h3.928zm-7.106 0v46.9c0 .982-.924 1.733-1.964 1.733-1.098 0-1.964-.75-1.964-1.733V0h3.928zm138.65 0v23.8c0 .982.867 1.733 1.964 1.733s1.965-.75 1.965-1.733V0h-3.93zm7.106 0v37.782c0 .982.866 1.733 1.964 1.733s1.964-.75 1.964-1.733V0h-3.928zm7.106 0v39.4c0 .982.866 1.733 1.964 1.733s1.964-.75 1.964-1.733V0h-3.928zm7.105 0v46.9c0 .982.925 1.733 1.965 1.733 1.097 0 1.964-.75 1.964-1.733V0h-3.93zm7.164 0v29.925c0 .924.866 1.733 1.964 1.733 1.04 0 1.964-.81 1.964-1.733V0h-3.928zm7.106 0v32.93c0 .982.866 1.733 1.964 1.733 1.04 0 1.964-.75 1.964-1.733V0H384.7zm7.105 0v23.8c0 .982.867 1.733 1.965 1.733s1.964-.75 1.964-1.733V0h-3.93zm7.106 0v15.54c0 .924.867 1.733 1.964 1.733s1.965-.81 1.965-1.733V0h-3.93zm7.106 0v29.3c0 .982.924 1.733 1.964 1.733 1.098 0 1.964-.75 1.964-1.733V0h-3.928zm7.106 0v31.312c0 .982.924 1.733 1.964 1.733 1.098 0 1.964-.75 1.964-1.733V0h-3.928zm7.163 0v33.565c0 .924.867 1.733 1.964 1.733 1.04 0 1.965-.81 1.965-1.733V0h-3.93zm7.106 0v35.356c0 .982.867 1.733 1.964 1.733 1.04 0 1.964-.75 1.964-1.733V0h-3.928zm7.106 0v23.397c0 .982.866 1.733 1.964 1.733s1.964-.75 1.964-1.733V0h-3.928zm7.106 0v18.775c0 .924.866 1.733 1.964 1.733s1.964-.81 1.964-1.733V0h-3.928zm7.105 0v44.08c0 .982.925 1.733 1.964 1.733 1.098 0 1.965-.75 1.965-1.733V0h-3.93zm7.106 0v35.356c0 .982.924 1.733 1.964 1.733 1.098 0 1.964-.75 1.964-1.733V0h-3.928zm7.164 0v38.995c0 .982.866 1.733 1.964 1.733 1.04 0 1.964-.75 1.964-1.733V0h-3.928zm7.105 0v43.097c0 .924.867 1.733 1.965 1.733 1.04 0 1.964-.81 1.964-1.733V0h-3.93zm7.106 0v39.63c0 .924.867 1.733 1.964 1.733s1.965-.81 1.965-1.733V0h-3.93zm356.328 0v23.8c0 .982.867 1.733 1.964 1.733 1.04 0 1.964-.75 1.964-1.733V0h-3.928zm7.106 0v37.782c0 .982.866 1.733 1.964 1.733 1.04 0 1.964-.75 1.964-1.733V0h-3.928zm7.105 0v39.4c0 .982.867 1.733 1.965 1.733s1.964-.75 1.964-1.733V0h-3.93zm7.106 0v46.9c0 .982.867 1.733 1.964 1.733s1.965-.75 1.965-1.733V0h-3.93zm7.106 0v29.925c0 .924.924 1.733 1.964 1.733 1.098 0 1.964-.81 1.964-1.733V0h-3.928zm7.106 0v32.93c0 .982.924 1.733 1.964 1.733 1.098 0 1.964-.75 1.964-1.733V0h-3.928zm7.163 0v23.8c0 .982.867 1.733 1.964 1.733 1.04 0 1.965-.75 1.965-1.733V0h-3.93zm7.106 0v15.54c0 .924.867 1.733 1.964 1.733s1.964-.81 1.964-1.733V0h-3.928zm7.106 0v29.3c0 .982.866 1.733 1.964 1.733s1.964-.75 1.964-1.733V0h-3.928zm7.106 0v31.312c0 .982.866 1.733 1.964 1.733s1.964-.75 1.964-1.733V0h-3.928zm7.105 0v33.565c0 .924.925 1.733 1.965 1.733 1.097 0 1.964-.81 1.964-1.733V0h-3.93zm7.164 0v35.356c0 .982.866 1.733 1.964 1.733 1.04 0 1.964-.75 1.964-1.733V0h-3.928zm7.106 0v23.397c0 .982.866 1.733 1.964 1.733 1.04 0 1.964-.75 1.964-1.733V0h-3.928zm7.105 0v18.775c0 .924.867 1.733 1.965 1.733s1.964-.81 1.964-1.733V0h-3.93zm7.106 0v44.08c0 .982.867 1.733 1.964 1.733s1.965-.75 1.965-1.733V0h-3.93zm7.106 0v35.356c0 .982.924 1.733 1.964 1.733 1.098 0 1.964-.75 1.964-1.733V0H940.2zm7.106 0v38.995c0 .982.924 1.733 1.964 1.733 1.097 0 1.964-.75 1.964-1.733V0h-3.928zm7.163 0v43.097c0 .924.867 1.733 1.964 1.733 1.04 0 1.965-.81 1.965-1.733V0h-3.93zm7.106 0v39.63c0 .924.866 1.733 1.964 1.733 1.04 0 1.964-.81 1.964-1.733V0h-3.928zm7.106 0v46.9c0 .982.866 1.733 1.964 1.733s1.964-.75 1.964-1.733V0h-3.928zm-138.65 0v23.8c0 .982-.925 1.733-1.964 1.733-1.098 0-1.965-.75-1.965-1.733V0h3.93zm-7.164 0v37.782c0 .982-.866 1.733-1.964 1.733-1.04 0-1.964-.75-1.964-1.733V0h3.928zm-7.106 0v39.4c0 .982-.866 1.733-1.964 1.733-1.04 0-1.964-.75-1.964-1.733V0h3.928zm-7.105 0v46.9c0 .982-.867 1.733-1.964 1.733s-1.965-.75-1.965-1.733V0h3.93zm-7.106 0v29.925c0 .924-.867 1.733-1.964 1.733s-1.964-.81-1.964-1.733V0h3.928zm-7.106 0v32.93c0 .982-.924 1.733-1.964 1.733-1.098 0-1.964-.75-1.964-1.733V0h3.928zm-7.106 0v23.8c0 .982-.924 1.733-1.964 1.733-1.097 0-1.964-.75-1.964-1.733V0h3.928zm-7.163 0v15.54c0 .924-.867 1.733-1.964 1.733-1.04 0-1.965-.81-1.965-1.733V0h3.93zm-7.106 0v29.3c0 .982-.866 1.733-1.964 1.733-1.04 0-1.964-.75-1.964-1.733V0h3.928zm-146.1 0v23.8c0 .982.866 1.733 1.964 1.733 1.04 0 1.964-.75 1.964-1.733V0h-3.928zm7.106 0v37.782c0 .982.866 1.733 1.964 1.733 1.04 0 1.964-.75 1.964-1.733V0h-3.928zm7.105 0v39.4c0 .982.867 1.733 1.964 1.733s1.965-.75 1.965-1.733V0h-3.93zm7.106 0v46.9c0 .982.867 1.733 1.964 1.733s1.964-.75 1.964-1.733V0h-3.928zm7.106 0v29.925c0 .924.924 1.733 1.964 1.733 1.098 0 1.964-.81 1.964-1.733V0h-3.928zm7.106 0v32.93c0 .982.924 1.733 1.964 1.733 1.097 0 1.964-.75 1.964-1.733V0h-3.928zm7.163 0v23.8c0 .982.867 1.733 1.964 1.733 1.04 0 1.965-.75 1.965-1.733V0h-3.93zm7.106 0v15.54c0 .924.866 1.733 1.964 1.733s1.964-.81 1.964-1.733V0h-3.928zm7.106 0v29.3c0 .982.866 1.733 1.964 1.733s1.964-.75 1.964-1.733V0h-3.928zm7.105 0v31.312c0 .982.867 1.733 1.965 1.733s1.964-.75 1.964-1.733V0h-3.93zm7.106 0v33.565c0 .924.924 1.733 1.964 1.733 1.098 0 1.965-.81 1.965-1.733V0h-3.93zm7.164 0v35.356c0 .982.866 1.733 1.964 1.733 1.04 0 1.964-.75 1.964-1.733V0h-3.928zm7.105 0v23.397c0 .982.867 1.733 1.965 1.733 1.04 0 1.964-.75 1.964-1.733V0h-3.93zm7.106 0v18.775c0 .924.867 1.733 1.964 1.733s1.965-.81 1.965-1.733V0h-3.93zm7.106 0v44.08c0 .982.867 1.733 1.964 1.733s1.964-.75 1.964-1.733V0h-3.928zm7.106 0v35.356c0 .982.866 1.733 1.964 1.733s1.964-.75 1.964-1.733V0h-3.928zm7.105 0v38.995c0 .982.925 1.733 1.965 1.733 1.097 0 1.964-.75 1.964-1.733V0h-3.93zm7.164 0v43.097c0 .924.867 1.733 1.964 1.733 1.04 0 1.964-.81 1.964-1.733V0h-3.928zm7.106 0v39.63c0 .924.866 1.733 1.964 1.733 1.04 0 1.964-.81 1.964-1.733V0h-3.928zm7.106 0v46.9c0 .982.866 1.733 1.964 1.733s1.964-.75 1.964-1.733V0h-3.928zm-138.65 0v23.8c0 .982-.925 1.733-1.965 1.733-1.097 0-1.964-.75-1.964-1.733V0h3.93zm-7.164 0v37.782c0 .982-.867 1.733-1.964 1.733-1.04 0-1.964-.75-1.964-1.733V0h3.928zm-7.106 0v39.4c0 .982-.866 1.733-1.964 1.733-1.04 0-1.964-.75-1.964-1.733V0h3.928zm-7.106 0v46.9c0 .982-.866 1.733-1.964 1.733s-1.964-.75-1.964-1.733V0h3.928zm-7.105 0v29.925c0 .924-.867 1.733-1.964 1.733s-1.965-.81-1.965-1.733V0h3.93zm-7.106 0v32.93c0 .982-.924 1.733-1.964 1.733-1.098 0-1.964-.75-1.964-1.733V0h3.928zm-7.106 0v23.8c0 .982-.924 1.733-1.964 1.733-1.098 0-1.964-.75-1.964-1.733V0h3.928zm-7.163 0v15.54c0 .924-.867 1.733-1.964 1.733-1.04 0-1.965-.81-1.965-1.733V0h3.93zm-7.106 0v29.3c0 .982-.867 1.733-1.964 1.733-1.04 0-1.964-.75-1.964-1.733V0h3.928zm-7.106 0v31.312c0 .982-.866 1.733-1.964 1.733s-1.964-.75-1.964-1.733V0h3.928zm-7.106 0v33.565c0 .924-.866 1.733-1.964 1.733s-1.964-.81-1.964-1.733V0h3.928zm-7.105 0v35.356c0 .982-.925 1.733-1.965 1.733-1.097 0-1.964-.75-1.964-1.733V0h3.93zm-7.106 0v23.397c0 .982-.924 1.733-1.964 1.733-1.098 0-1.964-.75-1.964-1.733V0h3.928zm-7.164 0v18.775c0 .924-.866 1.733-1.964 1.733-1.04 0-1.964-.81-1.964-1.733V0h3.928zm-7.105 0v44.08c0 .982-.867 1.733-1.965 1.733s-1.964-.75-1.964-1.733V0h3.93zm-7.106 0v35.356c0 .982-.867 1.733-1.964 1.733s-1.965-.75-1.965-1.733V0h3.93zm-7.106 0v38.995c0 .982-.866 1.733-1.964 1.733s-1.964-.75-1.964-1.733V0h3.928zm-7.106 0v43.097c0 .924-.924 1.733-1.964 1.733-1.098 0-1.964-.81-1.964-1.733V0h3.928zm-7.105 0v39.63c0 .924-.925 1.733-2.022 1.733-1.04 0-1.965-.81-1.965-1.733V0h3.987zM1339 0v46.9c0 .982.87 1.733 1.96 1.733 1.1 0 1.97-.75 1.97-1.733V0H1339zm-7.1 0v39.4c0 .982.87 1.733 1.97 1.733s1.96-.75 1.96-1.733V0h-3.93zm-7.1 0v37.782c0 .982.86 1.733 1.96 1.733 1.04 0 1.97-.75 1.97-1.733V0h-3.93zm-7.17 0v23.8c0 .982.93 1.733 2.03 1.733 1.04 0 1.96-.75 1.96-1.733V0h-4zm-138.64 0v46.9c0 .982-.87 1.733-1.97 1.733-1.04 0-1.96-.75-1.96-1.733V0h3.93zm7.1 0v39.63c0 .924-.87 1.733-1.96 1.733-1.04 0-1.97-.81-1.97-1.733V0h3.93zm7.16 0v43.097c0 .924-.92 1.733-1.96 1.733-1.1 0-1.96-.81-1.96-1.733V0h3.92zm7.1 0v38.995c0 .982-.92 1.733-1.96 1.733-1.1 0-1.97-.75-1.97-1.733V0h3.93zm7.1 0v35.356c0 .982-.87 1.733-1.97 1.733s-1.96-.75-1.96-1.733V0h3.93zm7.1 0v44.08c0 .982-.87 1.733-1.96 1.733-1.1 0-1.97-.75-1.97-1.733V0h3.93zm7.1 0v18.775c0 .924-.87 1.733-1.97 1.733-1.04 0-1.96-.81-1.96-1.733V0h3.93zm7.1 0v23.397c0 .982-.86 1.733-1.96 1.733-1.04 0-1.97-.75-1.97-1.733V0h3.93zm7.17 0v35.356c0 .982-.93 1.733-1.97 1.733-1.1 0-1.96-.75-1.96-1.733V0h3.93zm7.1 0v33.565c0 .924-.92 1.733-1.96 1.733-1.1 0-1.97-.81-1.97-1.733V0h3.93zm7.1 0v31.312c0 .982-.87 1.733-1.97 1.733-1.1 0-1.96-.75-1.96-1.733V0h3.93zm7.1 0v29.3c0 .982-.86 1.733-1.96 1.733s-1.96-.75-1.96-1.733V0h3.92zm7.1 0v15.54c0 .924-.87 1.733-1.96 1.733-1.04 0-1.97-.81-1.97-1.733V0h3.93zm7.1 0v23.8c0 .982-.87 1.733-1.97 1.733-1.04 0-1.96-.75-1.96-1.733V0h3.93zm7.16 0v32.93c0 .982-.93 1.733-1.97 1.733-1.1 0-1.96-.75-1.96-1.733V0h3.93zm7.1 0v29.925c0 .924-.86 1.733-1.96 1.733s-1.96-.81-1.96-1.733V0h3.92zm7.1 0v46.9c0 .982-.87 1.733-1.96 1.733-1.1 0-1.97-.75-1.97-1.733V0h3.93zm7.1 0v39.4c0 .982-.87 1.733-1.97 1.733s-1.96-.75-1.96-1.733V0h3.93zm7.1 0v37.782c0 .982-.86 1.733-1.96 1.733-1.04 0-1.97-.75-1.97-1.733V0h3.93zm7.17 0v23.8c0 .982-.93 1.733-1.97 1.733-1.1 0-1.96-.75-1.96-1.733V0h3.93zm-146.16 0v29.3c0 .982.86 1.733 1.96 1.733s1.96-.75 1.96-1.733V0h-3.92zm-7.1 0v15.54c0 .924.87 1.733 1.96 1.733 1.04 0 1.97-.81 1.97-1.733V0h-3.93zm-7.1 0v23.8c0 .982.87 1.733 1.97 1.733 1.04 0 1.96-.75 1.96-1.733V0h-3.93zm-7.16 0v32.93c0 .982.93 1.733 1.97 1.733 1.1 0 1.96-.75 1.96-1.733V0h-3.93zm-7.1 0v29.925c0 .924.86 1.733 1.96 1.733s1.96-.81 1.96-1.733V0h-3.92zm-7.1 0v46.9c0 .982.87 1.733 1.96 1.733 1.1 0 1.97-.75 1.97-1.733V0h-3.93zm-7.1 0v39.4c0 .982.87 1.733 1.97 1.733s1.96-.75 1.96-1.733V0h-3.93zm-7.1 0v37.782c0 .982.86 1.733 1.96 1.733 1.04 0 1.97-.75 1.97-1.733V0h-3.93zm-7.17 0v23.8c0 .982.93 1.733 1.97 1.733 1.1 0 1.96-.75 1.96-1.733V0h-3.93zM979.552 0v39.63c0 .924-.867 1.733-1.965 1.733-1.04 0-1.964-.81-1.964-1.733V0h3.93zm7.163 0v43.097c0 .924-.924 1.733-1.964 1.733-1.098 0-1.964-.81-1.964-1.733V0h3.928zm7.106 0v38.995c0 .982-.924 1.733-1.964 1.733-1.098 0-1.965-.75-1.965-1.733V0h3.93zm7.11 0v35.356c0 .982-.87 1.733-1.968 1.733s-1.964-.75-1.964-1.733V0h3.932zm7.1 0v44.08c0 .982-.86 1.733-1.96 1.733s-1.97-.75-1.97-1.733V0h3.93zm7.1 0v18.775c0 .924-.87 1.733-1.97 1.733-1.04 0-1.96-.81-1.96-1.733V0h3.93zm7.1 0v23.397c0 .982-.86 1.733-1.96 1.733-1.04 0-1.96-.75-1.96-1.733V0h3.92zm7.17 0v35.356c0 .982-.93 1.733-1.97 1.733-1.1 0-1.96-.75-1.96-1.733V0h3.93zm7.1 0v33.565c0 .924-.92 1.733-1.96 1.733-1.1 0-1.97-.81-1.97-1.733V0h3.93zm7.1 0v31.312c0 .982-.87 1.733-1.97 1.733-1.1 0-1.96-.75-1.96-1.733V0h3.93zm7.1 0v29.3c0 .982-.86 1.733-1.96 1.733s-1.96-.75-1.96-1.733V0h3.92zm7.1 0v15.54c0 .924-.87 1.733-1.96 1.733-1.04 0-1.97-.81-1.97-1.733V0h3.93zm7.1 0v23.8c0 .982-.87 1.733-1.97 1.733-1.04 0-1.96-.75-1.96-1.733V0h3.93zm7.16 0v32.93c0 .982-.92 1.733-1.96 1.733-1.1 0-1.97-.75-1.97-1.733V0h3.93zm7.1 0v29.925c0 .924-.93 1.733-1.97 1.733-1.1 0-1.96-.81-1.96-1.733V0h3.93zm7.1 0v46.9c0 .982-.87 1.733-1.96 1.733-1.1 0-1.97-.75-1.97-1.733V0h3.93zm7.1 0v39.4c0 .982-.87 1.733-1.97 1.733-1.1 0-1.96-.75-1.96-1.733V0h3.93zm7.1 0v37.782c0 .982-.86 1.733-1.96 1.733-1.04 0-1.97-.75-1.97-1.733V0h3.93zm7.17 0v23.8c0 .982-.93 1.733-1.97 1.733-1.1 0-2.02-.75-2.02-1.733V0h4z" fill="#cfcfcf"/></g><defs><clipPath id="A"><path fill="#fff" d="M0 0h1345.93v48.64H0z"/></clipPath></defs></svg>