<svg width="4035" height="49" viewBox="0 0 4035 49" fill="none" xmlns="http://www.w3.org/2000/svg">
<path fill-rule="evenodd" clip-rule="evenodd" d="M1834.03 0.17749V47.087C1834.03 48.0114 1833.16 48.8202 1832.07 48.8202C1831.03 48.8202 1830.1 48.0114 1830.1 47.087V0.17749H1834.03ZM1484.87 0.17749V23.9789C1484.87 24.961 1484 25.712 1482.9 25.712C1481.81 25.712 1480.94 24.961 1480.94 23.9789V0.17749H1484.87ZM1477.76 0.17749V37.9594C1477.76 38.9415 1476.84 39.6924 1475.8 39.6924C1474.7 39.6924 1473.83 38.9415 1473.83 37.9594V0.17749H1477.76ZM1470.6 0.17749V39.5769C1470.6 40.559 1469.73 41.31 1468.63 41.31C1467.59 41.31 1466.67 40.559 1466.67 39.5769V0.17749H1470.6ZM1463.49 0.17749V47.087C1463.49 48.0114 1462.63 48.8202 1461.53 48.8202C1460.49 48.8202 1459.56 48.0114 1459.56 47.087V0.17749H1463.49ZM1456.39 0.17749V30.0448C1456.39 31.0269 1455.52 31.7779 1454.42 31.7779C1453.32 31.7779 1452.46 31.0269 1452.46 30.0448V0.17749H1456.39ZM1449.28 0.17749V33.1066C1449.28 34.0309 1448.42 34.8397 1447.32 34.8397C1446.22 34.8397 1445.35 34.0309 1445.35 33.1066V0.17749H1449.28ZM1442.18 0.17749V23.9789C1442.18 24.961 1441.31 25.712 1440.21 25.712C1439.11 25.712 1438.25 24.961 1438.25 23.9789V0.17749H1442.18ZM1435.07 0.17749V15.66C1435.07 16.6421 1434.15 17.393 1433.11 17.393C1432.01 17.393 1431.14 16.6421 1431.14 15.66V0.17749H1435.07ZM1427.91 0.17749V29.4671C1427.91 30.3915 1427.04 31.2002 1425.94 31.2002C1424.9 31.2002 1423.98 30.3915 1423.98 29.4671V0.17749H1427.91ZM1420.8 0.17749V31.489C1420.8 32.4134 1419.93 33.2222 1418.84 33.2222C1417.8 33.2222 1416.87 32.4134 1416.87 31.489V0.17749H1420.8ZM1413.69 0.17749V33.6843C1413.69 34.6664 1412.83 35.4175 1411.73 35.4175C1410.63 35.4175 1409.77 34.6664 1409.77 33.6843V0.17749H1413.69ZM1406.59 0.17749V35.5329C1406.59 36.515 1405.72 37.2661 1404.62 37.2661C1403.53 37.2661 1402.66 36.515 1402.66 35.5329V0.17749H1406.59ZM1399.48 0.17749V23.5745C1399.48 24.5566 1398.56 25.3077 1397.52 25.3077C1396.42 25.3077 1395.55 24.5566 1395.55 23.5745V0.17749H1399.48ZM1392.38 0.17749V18.8951C1392.38 19.8772 1391.45 20.6283 1390.41 20.6283C1389.32 20.6283 1388.45 19.8772 1388.45 18.8951V0.17749H1392.38ZM1385.21 0.17749V44.2563C1385.21 45.1807 1384.35 45.9895 1383.25 45.9895C1382.21 45.9895 1381.29 45.1807 1381.29 44.2563V0.17749H1385.21ZM1378.11 0.17749V35.5329C1378.11 36.515 1377.24 37.2661 1376.14 37.2661C1375.1 37.2661 1374.18 36.515 1374.18 35.5329V0.17749H1378.11ZM1371 0.17749V39.1725C1371 40.1546 1370.14 40.9056 1369.04 40.9056C1367.94 40.9056 1367.07 40.1546 1367.07 39.1725V0.17749H1371ZM1363.9 0.17749V43.2164C1363.9 44.1985 1363.03 44.9496 1361.93 44.9496C1360.83 44.9496 1359.97 44.1985 1359.97 43.2164V0.17749H1363.9ZM1356.79 0.17749V39.808C1356.79 40.7323 1355.87 41.5411 1354.83 41.5411C1353.73 41.5411 1352.86 40.7323 1352.86 39.808V0.17749H1356.79ZM1349.68 0.17749V47.087C1349.68 48.0114 1348.76 48.8202 1347.72 48.8202C1346.62 48.8202 1345.76 48.0114 1345.76 47.087V0.17749H1349.68ZM1488.33 0.17749V23.9789C1488.33 24.961 1489.2 25.712 1490.3 25.712C1491.4 25.712 1492.26 24.961 1492.26 23.9789V0.17749H1488.33ZM1495.44 0.17749V37.9594C1495.44 38.9415 1496.31 39.6924 1497.4 39.6924C1498.5 39.6924 1499.37 38.9415 1499.37 37.9594V0.17749H1495.44ZM1502.54 0.17749V39.5769C1502.54 40.559 1503.41 41.31 1504.51 41.31C1505.61 41.31 1506.47 40.559 1506.47 39.5769V0.17749H1502.54ZM1509.65 0.17749V47.087C1509.65 48.0114 1510.58 48.8202 1511.62 48.8202C1512.71 48.8202 1513.58 48.0114 1513.58 47.087V0.17749H1509.65ZM1516.82 0.17749V30.0448C1516.82 31.0269 1517.68 31.7779 1518.78 31.7779C1519.82 31.7779 1520.74 31.0269 1520.74 30.0448V0.17749H1516.82ZM1523.92 0.17749V33.1066C1523.92 34.0309 1524.79 34.8397 1525.88 34.8397C1526.92 34.8397 1527.85 34.0309 1527.85 33.1066V0.17749H1523.92ZM1531.03 0.17749V23.9789C1531.03 24.961 1531.89 25.712 1532.99 25.712C1534.09 25.712 1534.96 24.961 1534.96 23.9789V0.17749H1531.03ZM1538.13 0.17749V15.66C1538.13 16.6421 1539 17.393 1540.1 17.393C1541.19 17.393 1542.06 16.6421 1542.06 15.66V0.17749H1538.13ZM1545.24 0.17749V29.4671C1545.24 30.3915 1546.16 31.2002 1547.2 31.2002C1548.3 31.2002 1549.17 30.3915 1549.17 29.4671V0.17749H1545.24ZM1691.4 0.17749V23.9789C1691.4 24.961 1690.53 25.712 1689.43 25.712C1688.34 25.712 1687.47 24.961 1687.47 23.9789V0.17749H1691.4ZM1684.29 0.17749V37.9594C1684.29 38.9415 1683.37 39.6924 1682.33 39.6924C1681.23 39.6924 1680.36 38.9415 1680.36 37.9594V0.17749H1684.29ZM1677.18 0.17749V39.5769C1677.18 40.559 1676.26 41.31 1675.22 41.31C1674.12 41.31 1673.2 40.559 1673.2 39.5769V0.17749H1677.18ZM1670.02 0.17749V47.087C1670.02 48.0114 1669.16 48.8202 1668.06 48.8202C1667.02 48.8202 1666.09 48.0114 1666.09 47.087V0.17749H1670.02ZM1662.92 0.17749V30.0448C1662.92 31.0269 1662.05 31.7779 1660.95 31.7779C1659.85 31.7779 1658.99 31.0269 1658.99 30.0448V0.17749H1662.92ZM1655.81 0.17749V33.1066C1655.81 34.0309 1654.94 34.8397 1653.85 34.8397C1652.75 34.8397 1651.88 34.0309 1651.88 33.1066V0.17749H1655.81ZM1648.7 0.17749V23.9789C1648.7 24.961 1647.84 25.712 1646.74 25.712C1645.64 25.712 1644.78 24.961 1644.78 23.9789V0.17749H1648.7ZM1641.6 0.17749V15.66C1641.6 16.6421 1640.68 17.393 1639.64 17.393C1638.54 17.393 1637.67 16.6421 1637.67 15.66V0.17749H1641.6ZM1634.43 0.17749V29.4671C1634.43 30.3915 1633.57 31.2002 1632.47 31.2002C1631.43 31.2002 1630.51 30.3915 1630.51 29.4671V0.17749H1634.43ZM1627.33 0.17749V31.489C1627.33 32.4134 1626.46 33.2222 1625.36 33.2222C1624.32 33.2222 1623.4 32.4134 1623.4 31.489V0.17749H1627.33ZM1620.22 0.17749V33.6843C1620.22 34.6664 1619.36 35.4175 1618.26 35.4175C1617.16 35.4175 1616.3 34.6664 1616.3 33.6843V0.17749H1620.22ZM1613.12 0.17749V35.5329C1613.12 36.515 1612.25 37.2661 1611.15 37.2661C1610.06 37.2661 1609.19 36.515 1609.19 35.5329V0.17749H1613.12ZM1606.01 0.17749V23.5745C1606.01 24.5566 1605.09 25.3077 1604.05 25.3077C1602.95 25.3077 1602.08 24.5566 1602.08 23.5745V0.17749H1606.01ZM1598.91 0.17749V18.8951C1598.91 19.8772 1597.98 20.6283 1596.94 20.6283C1595.85 20.6283 1594.98 19.8772 1594.98 18.8951V0.17749H1598.91ZM1591.74 0.17749V44.2563C1591.74 45.1807 1590.88 45.9895 1589.78 45.9895C1588.74 45.9895 1587.82 45.1807 1587.82 44.2563V0.17749H1591.74ZM1584.64 0.17749V35.5329C1584.64 36.515 1583.77 37.2661 1582.67 37.2661C1581.63 37.2661 1580.71 36.515 1580.71 35.5329V0.17749H1584.64ZM1577.53 0.17749V39.1725C1577.53 40.1546 1576.67 40.9056 1575.57 40.9056C1574.47 40.9056 1573.6 40.1546 1573.6 39.1725V0.17749H1577.53ZM1570.43 0.17749V43.2164C1570.43 44.1985 1569.56 44.9496 1568.46 44.9496C1567.36 44.9496 1566.5 44.1985 1566.5 43.2164V0.17749H1570.43ZM1563.32 0.17749V39.808C1563.32 40.7323 1562.4 41.5411 1561.36 41.5411C1560.26 41.5411 1559.39 40.7323 1559.39 39.808V0.17749H1563.32ZM1556.21 0.17749V47.087C1556.21 48.0114 1555.29 48.8202 1554.25 48.8202C1553.15 48.8202 1552.29 48.0114 1552.29 47.087V0.17749H1556.21ZM1694.86 0.17749V23.9789C1694.86 24.961 1695.73 25.712 1696.83 25.712C1697.92 25.712 1698.79 24.961 1698.79 23.9789V0.17749H1694.86ZM1701.97 0.17749V37.9594C1701.97 38.9415 1702.84 39.6924 1703.93 39.6924C1705.03 39.6924 1705.9 38.9415 1705.9 37.9594V0.17749H1701.97ZM1709.08 0.17749V39.5769C1709.08 40.559 1709.94 41.31 1711.04 41.31C1712.14 41.31 1713 40.559 1713 39.5769V0.17749H1709.08ZM1716.18 0.17749V47.087C1716.18 48.0114 1717.1 48.8202 1718.14 48.8202C1719.24 48.8202 1720.11 48.0114 1720.11 47.087V0.17749H1716.18ZM1723.34 0.17749V30.0448C1723.34 31.0269 1724.21 31.7779 1725.31 31.7779C1726.35 31.7779 1727.27 31.0269 1727.27 30.0448V0.17749H1723.34ZM1730.45 0.17749V33.1066C1730.45 34.0309 1731.32 34.8397 1732.41 34.8397C1733.45 34.8397 1734.38 34.0309 1734.38 33.1066V0.17749H1730.45ZM1737.55 0.17749V23.9789C1737.55 24.961 1738.42 25.712 1739.52 25.712C1740.62 25.712 1741.48 24.961 1741.48 23.9789V0.17749H1737.55ZM1744.66 0.17749V15.66C1744.66 16.6421 1745.53 17.393 1746.62 17.393C1747.72 17.393 1748.59 16.6421 1748.59 15.66V0.17749H1744.66ZM1751.77 0.17749V29.4671C1751.77 30.3915 1752.69 31.2002 1753.73 31.2002C1754.83 31.2002 1755.7 30.3915 1755.7 29.4671V0.17749H1751.77ZM1758.87 0.17749V31.489C1758.87 32.4134 1759.8 33.2222 1760.84 33.2222C1761.94 33.2222 1762.8 32.4134 1762.8 31.489V0.17749H1758.87ZM1766.04 0.17749V33.6843C1766.04 34.6664 1766.9 35.4175 1768 35.4175C1769.04 35.4175 1769.96 34.6664 1769.96 33.6843V0.17749H1766.04ZM1773.14 0.17749V35.5329C1773.14 36.515 1774.01 37.2661 1775.11 37.2661C1776.15 37.2661 1777.07 36.515 1777.07 35.5329V0.17749H1773.14ZM1780.25 0.17749V23.5745C1780.25 24.5566 1781.11 25.3077 1782.21 25.3077C1783.31 25.3077 1784.18 24.5566 1784.18 23.5745V0.17749H1780.25ZM1787.35 0.17749V18.8951C1787.35 19.8772 1788.22 20.6283 1789.32 20.6283C1790.41 20.6283 1791.28 19.8772 1791.28 18.8951V0.17749H1787.35ZM1794.46 0.17749V44.2563C1794.46 45.1807 1795.38 45.9895 1796.42 45.9895C1797.52 45.9895 1798.39 45.1807 1798.39 44.2563V0.17749H1794.46ZM1801.57 0.17749V35.5329C1801.57 36.515 1802.49 37.2661 1803.53 37.2661C1804.63 37.2661 1805.49 36.515 1805.49 35.5329V0.17749H1801.57ZM1808.73 0.17749V39.1725C1808.73 40.1546 1809.59 40.9056 1810.69 40.9056C1811.73 40.9056 1812.66 40.1546 1812.66 39.1725V0.17749H1808.73ZM1815.83 0.17749V43.2164C1815.83 44.1985 1816.7 44.9496 1817.8 44.9496C1818.84 44.9496 1819.76 44.1985 1819.76 43.2164V0.17749H1815.83ZM1822.94 0.17749V39.808C1822.94 40.7323 1823.81 41.5411 1824.9 41.5411C1826 41.5411 1826.87 40.7323 1826.87 39.808V0.17749H1822.94ZM2179.27 0.17749V23.9789C2179.27 24.961 2180.13 25.712 2181.23 25.712C2182.27 25.712 2183.2 24.961 2183.2 23.9789V0.17749H2179.27ZM2186.37 0.17749V37.9594C2186.37 38.9415 2187.24 39.6924 2188.34 39.6924C2189.38 39.6924 2190.3 38.9415 2190.3 37.9594V0.17749H2186.37ZM2193.48 0.17749V39.5769C2193.48 40.559 2194.35 41.31 2195.44 41.31C2196.54 41.31 2197.41 40.559 2197.41 39.5769V0.17749H2193.48ZM2200.59 0.17749V47.087C2200.59 48.0114 2201.45 48.8202 2202.55 48.8202C2203.65 48.8202 2204.51 48.0114 2204.51 47.087V0.17749H2200.59ZM2207.69 0.17749V30.0448C2207.69 31.0269 2208.62 31.7779 2209.66 31.7779C2210.75 31.7779 2211.62 31.0269 2211.62 30.0448V0.17749H2207.69ZM2214.8 0.17749V33.1066C2214.8 34.0309 2215.72 34.8397 2216.76 34.8397C2217.86 34.8397 2218.72 34.0309 2218.72 33.1066V0.17749H2214.8ZM2221.96 0.17749V23.9789C2221.96 24.961 2222.83 25.712 2223.92 25.712C2224.96 25.712 2225.89 24.961 2225.89 23.9789V0.17749H2221.96ZM2229.07 0.17749V15.66C2229.07 16.6421 2229.93 17.393 2231.03 17.393C2232.13 17.393 2232.99 16.6421 2232.99 15.66V0.17749H2229.07ZM2236.17 0.17749V29.4671C2236.17 30.3915 2237.04 31.2002 2238.14 31.2002C2239.23 31.2002 2240.1 30.3915 2240.1 29.4671V0.17749H2236.17ZM2243.28 0.17749V31.489C2243.28 32.4134 2244.14 33.2222 2245.24 33.2222C2246.34 33.2222 2247.21 32.4134 2247.21 31.489V0.17749H2243.28ZM2250.38 0.17749V33.6843C2250.38 34.6664 2251.31 35.4175 2252.35 35.4175C2253.45 35.4175 2254.31 34.6664 2254.31 33.6843V0.17749H2250.38ZM2257.55 0.17749V35.5329C2257.55 36.515 2258.41 37.2661 2259.51 37.2661C2260.55 37.2661 2261.47 36.515 2261.47 35.5329V0.17749H2257.55ZM2264.65 0.17749V23.5745C2264.65 24.5566 2265.52 25.3077 2266.62 25.3077C2267.66 25.3077 2268.58 24.5566 2268.58 23.5745V0.17749H2264.65ZM2271.76 0.17749V18.8951C2271.76 19.8772 2272.63 20.6283 2273.72 20.6283C2274.82 20.6283 2275.69 19.8772 2275.69 18.8951V0.17749H2271.76ZM2278.86 0.17749V44.2563C2278.86 45.1807 2279.73 45.9895 2280.83 45.9895C2281.93 45.9895 2282.79 45.1807 2282.79 44.2563V0.17749H2278.86ZM2285.97 0.17749V35.5329C2285.97 36.515 2286.89 37.2661 2287.93 37.2661C2289.03 37.2661 2289.9 36.515 2289.9 35.5329V0.17749H2285.97ZM2293.08 0.17749V39.1725C2293.08 40.1546 2294 40.9056 2295.04 40.9056C2296.14 40.9056 2297 40.1546 2297 39.1725V0.17749H2293.08ZM2300.24 0.17749V43.2164C2300.24 44.1985 2301.11 44.9496 2302.2 44.9496C2303.24 44.9496 2304.17 44.1985 2304.17 43.2164V0.17749H2300.24ZM2307.34 0.17749V39.808C2307.34 40.7323 2308.21 41.5411 2309.31 41.5411C2310.35 41.5411 2311.27 40.7323 2311.27 39.808V0.17749H2307.34ZM2314.45 0.17749V47.087C2314.45 48.0114 2315.32 48.8202 2316.41 48.8202C2317.51 48.8202 2318.38 48.0114 2318.38 47.087V0.17749H2314.45ZM2175.8 0.17749V23.9789C2175.8 24.961 2174.88 25.712 2173.84 25.712C2172.74 25.712 2171.87 24.961 2171.87 23.9789V0.17749H2175.8ZM2168.64 0.17749V37.9594C2168.64 38.9415 2167.77 39.6924 2166.67 39.6924C2165.63 39.6924 2164.71 38.9415 2164.71 37.9594V0.17749H2168.64ZM2161.53 0.17749V39.5769C2161.53 40.559 2160.67 41.31 2159.57 41.31C2158.53 41.31 2157.6 40.559 2157.6 39.5769V0.17749H2161.53ZM2154.43 0.17749V47.087C2154.43 48.0114 2153.56 48.8202 2152.46 48.8202C2151.37 48.8202 2150.5 48.0114 2150.5 47.087V0.17749H2154.43ZM2147.32 0.17749V30.0448C2147.32 31.0269 2146.45 31.7779 2145.36 31.7779C2144.26 31.7779 2143.39 31.0269 2143.39 30.0448V0.17749H2147.32ZM2140.22 0.17749V33.1066C2140.22 34.0309 2139.29 34.8397 2138.25 34.8397C2137.15 34.8397 2136.29 34.0309 2136.29 33.1066V0.17749H2140.22ZM2133.11 0.17749V23.9789C2133.11 24.961 2132.19 25.712 2131.15 25.712C2130.05 25.712 2129.18 24.961 2129.18 23.9789V0.17749H2133.11ZM2125.95 0.17749V15.66C2125.95 16.6421 2125.08 17.393 2123.98 17.393C2122.94 17.393 2122.02 16.6421 2122.02 15.66V0.17749H2125.95ZM2118.84 0.17749V29.4671C2118.84 30.3915 2117.97 31.2002 2116.88 31.2002C2115.84 31.2002 2114.91 30.3915 2114.91 29.4671V0.17749H2118.84ZM1972.74 0.17749V23.9789C1972.74 24.961 1973.61 25.712 1974.7 25.712C1975.74 25.712 1976.67 24.961 1976.67 23.9789V0.17749H1972.74ZM1979.84 0.17749V37.9594C1979.84 38.9415 1980.71 39.6924 1981.81 39.6924C1982.85 39.6924 1983.77 38.9415 1983.77 37.9594V0.17749H1979.84ZM1986.95 0.17749V39.5769C1986.95 40.559 1987.82 41.31 1988.91 41.31C1990.01 41.31 1990.88 40.559 1990.88 39.5769V0.17749H1986.95ZM1994.06 0.17749V47.087C1994.06 48.0114 1994.92 48.8202 1996.02 48.8202C1997.12 48.8202 1997.98 48.0114 1997.98 47.087V0.17749H1994.06ZM2001.16 0.17749V30.0448C2001.16 31.0269 2002.09 31.7779 2003.13 31.7779C2004.22 31.7779 2005.09 31.0269 2005.09 30.0448V0.17749H2001.16ZM2008.27 0.17749V33.1066C2008.27 34.0309 2009.19 34.8397 2010.23 34.8397C2011.33 34.8397 2012.2 34.0309 2012.2 33.1066V0.17749H2008.27ZM2015.43 0.17749V23.9789C2015.43 24.961 2016.3 25.712 2017.4 25.712C2018.44 25.712 2019.36 24.961 2019.36 23.9789V0.17749H2015.43ZM2022.54 0.17749V15.66C2022.54 16.6421 2023.4 17.393 2024.5 17.393C2025.6 17.393 2026.47 16.6421 2026.47 15.66V0.17749H2022.54ZM2029.64 0.17749V29.4671C2029.64 30.3915 2030.51 31.2002 2031.61 31.2002C2032.7 31.2002 2033.57 30.3915 2033.57 29.4671V0.17749H2029.64ZM2036.75 0.17749V31.489C2036.75 32.4134 2037.62 33.2222 2038.71 33.2222C2039.81 33.2222 2040.68 32.4134 2040.68 31.489V0.17749H2036.75ZM2043.85 0.17749V33.6843C2043.85 34.6664 2044.78 35.4175 2045.82 35.4175C2046.92 35.4175 2047.78 34.6664 2047.78 33.6843V0.17749H2043.85ZM2051.02 0.17749V35.5329C2051.02 36.515 2051.88 37.2661 2052.98 37.2661C2054.02 37.2661 2054.95 36.515 2054.95 35.5329V0.17749H2051.02ZM2058.12 0.17749V23.5745C2058.12 24.5566 2058.99 25.3077 2060.09 25.3077C2061.13 25.3077 2062.05 24.5566 2062.05 23.5745V0.17749H2058.12ZM2065.23 0.17749V18.8951C2065.23 19.8772 2066.1 20.6283 2067.19 20.6283C2068.29 20.6283 2069.16 19.8772 2069.16 18.8951V0.17749H2065.23ZM2072.34 0.17749V44.2563C2072.34 45.1807 2073.2 45.9895 2074.3 45.9895C2075.4 45.9895 2076.26 45.1807 2076.26 44.2563V0.17749H2072.34ZM2079.44 0.17749V35.5329C2079.44 36.515 2080.31 37.2661 2081.41 37.2661C2082.5 37.2661 2083.37 36.515 2083.37 35.5329V0.17749H2079.44ZM2086.55 0.17749V39.1725C2086.55 40.1546 2087.47 40.9056 2088.51 40.9056C2089.61 40.9056 2090.47 40.1546 2090.47 39.1725V0.17749H2086.55ZM2093.71 0.17749V43.2164C2093.71 44.1985 2094.58 44.9496 2095.67 44.9496C2096.71 44.9496 2097.64 44.1985 2097.64 43.2164V0.17749H2093.71ZM2100.82 0.17749V39.808C2100.82 40.7323 2101.68 41.5411 2102.78 41.5411C2103.82 41.5411 2104.74 40.7323 2104.74 39.808V0.17749H2100.82ZM2107.92 0.17749V47.087C2107.92 48.0114 2108.79 48.8202 2109.89 48.8202C2110.98 48.8202 2111.85 48.0114 2111.85 47.087V0.17749H2107.92ZM1969.27 0.17749V23.9789C1969.27 24.961 1968.35 25.712 1967.31 25.712C1966.21 25.712 1965.34 24.961 1965.34 23.9789V0.17749H1969.27ZM1962.11 0.17749V37.9594C1962.11 38.9415 1961.24 39.6924 1960.15 39.6924C1959.11 39.6924 1958.18 38.9415 1958.18 37.9594V0.17749H1962.11ZM1955 0.17749V39.5769C1955 40.559 1954.14 41.31 1953.04 41.31C1952 41.31 1951.08 40.559 1951.08 39.5769V0.17749H1955ZM1947.9 0.17749V47.087C1947.9 48.0114 1947.03 48.8202 1945.93 48.8202C1944.84 48.8202 1943.97 48.0114 1943.97 47.087V0.17749H1947.9ZM1940.79 0.17749V30.0448C1940.79 31.0269 1939.93 31.7779 1938.83 31.7779C1937.73 31.7779 1936.86 31.0269 1936.86 30.0448V0.17749H1940.79ZM1933.69 0.17749V33.1066C1933.69 34.0309 1932.76 34.8397 1931.72 34.8397C1930.62 34.8397 1929.76 34.0309 1929.76 33.1066V0.17749H1933.69ZM1926.58 0.17749V23.9789C1926.58 24.961 1925.66 25.712 1924.62 25.712C1923.52 25.712 1922.65 24.961 1922.65 23.9789V0.17749H1926.58ZM1919.42 0.17749V15.66C1919.42 16.6421 1918.55 17.393 1917.45 17.393C1916.41 17.393 1915.49 16.6421 1915.49 15.66V0.17749H1919.42ZM1912.31 0.17749V29.4671C1912.31 30.3915 1911.44 31.2002 1910.35 31.2002C1909.31 31.2002 1908.38 30.3915 1908.38 29.4671V0.17749H1912.31ZM1905.21 0.17749V31.489C1905.21 32.4134 1904.34 33.2222 1903.24 33.2222C1902.14 33.2222 1901.28 32.4134 1901.28 31.489V0.17749H1905.21ZM1898.1 0.17749V33.6843C1898.1 34.6664 1897.23 35.4175 1896.14 35.4175C1895.04 35.4175 1894.17 34.6664 1894.17 33.6843V0.17749H1898.1ZM1890.99 0.17749V35.5329C1890.99 36.515 1890.07 37.2661 1889.03 37.2661C1887.93 37.2661 1887.07 36.515 1887.07 35.5329V0.17749H1890.99ZM1883.89 0.17749V23.5745C1883.89 24.5566 1882.96 25.3077 1881.92 25.3077C1880.83 25.3077 1879.96 24.5566 1879.96 23.5745V0.17749H1883.89ZM1876.72 0.17749V18.8951C1876.72 19.8772 1875.86 20.6283 1874.76 20.6283C1873.72 20.6283 1872.8 19.8772 1872.8 18.8951V0.17749H1876.72ZM1869.62 0.17749V44.2563C1869.62 45.1807 1868.75 45.9895 1867.65 45.9895C1866.56 45.9895 1865.69 45.1807 1865.69 44.2563V0.17749H1869.62ZM1862.51 0.17749V35.5329C1862.51 36.515 1861.65 37.2661 1860.55 37.2661C1859.45 37.2661 1858.58 36.515 1858.58 35.5329V0.17749H1862.51ZM1855.41 0.17749V39.1725C1855.41 40.1546 1854.54 40.9056 1853.44 40.9056C1852.34 40.9056 1851.48 40.1546 1851.48 39.1725V0.17749H1855.41ZM1848.3 0.17749V43.2164C1848.3 44.1985 1847.38 44.9496 1846.34 44.9496C1845.24 44.9496 1844.37 44.1985 1844.37 43.2164V0.17749H1848.3ZM1841.2 0.17749V39.808C1841.2 40.7323 1840.27 41.5411 1839.17 41.5411C1838.13 41.5411 1837.21 40.7323 1837.21 39.808V0.17749H1841.2ZM2684.76 0.17749V47.087C2684.76 48.0114 2685.63 48.8202 2686.72 48.8202C2687.82 48.8202 2688.69 48.0114 2688.69 47.087V0.17749H2684.76ZM2677.65 0.17749V39.5769C2677.65 40.559 2678.52 41.31 2679.62 41.31C2680.72 41.31 2681.58 40.559 2681.58 39.5769V0.17749H2677.65ZM2670.55 0.17749V37.9594C2670.55 38.9415 2671.41 39.6924 2672.51 39.6924C2673.55 39.6924 2674.48 38.9415 2674.48 37.9594V0.17749H2670.55ZM2663.38 0.17749V23.9789C2663.38 24.961 2664.31 25.712 2665.41 25.712C2666.45 25.712 2667.37 24.961 2667.37 23.9789V0.17749H2663.38ZM2524.74 0.17749V47.087C2524.74 48.0114 2523.87 48.8202 2522.77 48.8202C2521.73 48.8202 2520.81 48.0114 2520.81 47.087V0.17749H2524.74ZM2531.84 0.17749V39.808C2531.84 40.7323 2530.97 41.5411 2529.88 41.5411C2528.84 41.5411 2527.91 40.7323 2527.91 39.808V0.17749H2531.84ZM2539 0.17749V43.2164C2539 44.1985 2538.08 44.9496 2537.04 44.9496C2535.94 44.9496 2535.08 44.1985 2535.08 43.2164V0.17749H2539ZM2546.11 0.17749V39.1725C2546.11 40.1546 2545.19 40.9056 2544.15 40.9056C2543.05 40.9056 2542.18 40.1546 2542.18 39.1725V0.17749H2546.11ZM2553.22 0.17749V35.5329C2553.22 36.515 2552.35 37.2661 2551.25 37.2661C2550.15 37.2661 2549.29 36.515 2549.29 35.5329V0.17749H2553.22ZM2560.32 0.17749V44.2563C2560.32 45.1807 2559.45 45.9895 2558.36 45.9895C2557.26 45.9895 2556.39 45.1807 2556.39 44.2563V0.17749H2560.32ZM2567.43 0.17749V18.8951C2567.43 19.8772 2566.56 20.6283 2565.46 20.6283C2564.42 20.6283 2563.5 19.8772 2563.5 18.8951V0.17749H2567.43ZM2574.53 0.17749V23.5745C2574.53 24.5566 2573.67 25.3077 2572.57 25.3077C2571.53 25.3077 2570.6 24.5566 2570.6 23.5745V0.17749H2574.53ZM2581.7 0.17749V35.5329C2581.7 36.515 2580.77 37.2661 2579.73 37.2661C2578.63 37.2661 2577.77 36.515 2577.77 35.5329V0.17749H2581.7ZM2588.8 0.17749V33.6843C2588.8 34.6664 2587.88 35.4175 2586.84 35.4175C2585.74 35.4175 2584.87 34.6664 2584.87 33.6843V0.17749H2588.8ZM2595.91 0.17749V31.489C2595.91 32.4134 2595.04 33.2222 2593.94 33.2222C2592.85 33.2222 2591.98 32.4134 2591.98 31.489V0.17749H2595.91ZM2603.01 0.17749V29.4671C2603.01 30.3915 2602.15 31.2002 2601.05 31.2002C2599.95 31.2002 2599.09 30.3915 2599.09 29.4671V0.17749H2603.01ZM2610.12 0.17749V15.66C2610.12 16.6421 2609.25 17.393 2608.16 17.393C2607.12 17.393 2606.19 16.6421 2606.19 15.66V0.17749H2610.12ZM2617.23 0.17749V23.9789C2617.23 24.961 2616.36 25.712 2615.26 25.712C2614.22 25.712 2613.3 24.961 2613.3 23.9789V0.17749H2617.23ZM2624.39 0.17749V33.1066C2624.39 34.0309 2623.46 34.8397 2622.42 34.8397C2621.33 34.8397 2620.46 34.0309 2620.46 33.1066V0.17749H2624.39ZM2631.49 0.17749V30.0448C2631.49 31.0269 2630.63 31.7779 2629.53 31.7779C2628.43 31.7779 2627.57 31.0269 2627.57 30.0448V0.17749H2631.49ZM2638.6 0.17749V47.087C2638.6 48.0114 2637.73 48.8202 2636.64 48.8202C2635.54 48.8202 2634.67 48.0114 2634.67 47.087V0.17749H2638.6ZM2645.71 0.17749V39.5769C2645.71 40.559 2644.84 41.31 2643.74 41.31C2642.64 41.31 2641.78 40.559 2641.78 39.5769V0.17749H2645.71ZM2652.81 0.17749V37.9594C2652.81 38.9415 2651.95 39.6924 2650.85 39.6924C2649.81 39.6924 2648.88 38.9415 2648.88 37.9594V0.17749H2652.81ZM2659.98 0.17749V23.9789C2659.98 24.961 2659.05 25.712 2658.01 25.712C2656.91 25.712 2656.05 24.961 2656.05 23.9789V0.17749H2659.98ZM2513.82 0.17749V29.4671C2513.82 30.3915 2514.68 31.2002 2515.78 31.2002C2516.88 31.2002 2517.74 30.3915 2517.74 29.4671V0.17749H2513.82ZM2506.71 0.17749V15.66C2506.71 16.6421 2507.58 17.393 2508.67 17.393C2509.71 17.393 2510.64 16.6421 2510.64 15.66V0.17749H2506.71ZM2499.6 0.17749V23.9789C2499.6 24.961 2500.47 25.712 2501.57 25.712C2502.61 25.712 2503.53 24.961 2503.53 23.9789V0.17749H2499.6ZM2492.44 0.17749V33.1066C2492.44 34.0309 2493.37 34.8397 2494.41 34.8397C2495.5 34.8397 2496.37 34.0309 2496.37 33.1066V0.17749H2492.44ZM2485.34 0.17749V30.0448C2485.34 31.0269 2486.2 31.7779 2487.3 31.7779C2488.4 31.7779 2489.26 31.0269 2489.26 30.0448V0.17749H2485.34ZM2478.23 0.17749V47.087C2478.23 48.0114 2479.1 48.8202 2480.19 48.8202C2481.29 48.8202 2482.16 48.0114 2482.16 47.087V0.17749H2478.23ZM2471.12 0.17749V39.5769C2471.12 40.559 2471.99 41.31 2473.09 41.31C2474.19 41.31 2475.05 40.559 2475.05 39.5769V0.17749H2471.12ZM2464.02 0.17749V37.9594C2464.02 38.9415 2464.88 39.6924 2465.98 39.6924C2467.02 39.6924 2467.95 38.9415 2467.95 37.9594V0.17749H2464.02ZM2456.85 0.17749V23.9789C2456.85 24.961 2457.78 25.712 2458.82 25.712C2459.92 25.712 2460.78 24.961 2460.78 23.9789V0.17749H2456.85ZM2325.31 0.17749V39.808C2325.31 40.7323 2324.44 41.5411 2323.35 41.5411C2322.31 41.5411 2321.38 40.7323 2321.38 39.808V0.17749H2325.31ZM2332.47 0.17749V43.2164C2332.47 44.1985 2331.55 44.9496 2330.51 44.9496C2329.41 44.9496 2328.55 44.1985 2328.55 43.2164V0.17749H2332.47ZM2339.58 0.17749V39.1725C2339.58 40.1546 2338.66 40.9056 2337.62 40.9056C2336.52 40.9056 2335.65 40.1546 2335.65 39.1725V0.17749H2339.58ZM2346.69 0.17749V35.5329C2346.69 36.515 2345.82 37.2661 2344.72 37.2661C2343.62 37.2661 2342.76 36.515 2342.76 35.5329V0.17749H2346.69ZM2353.79 0.17749V44.2563C2353.79 45.1807 2352.93 45.9895 2351.83 45.9895C2350.73 45.9895 2349.86 45.1807 2349.86 44.2563V0.17749H2353.79ZM2360.9 0.17749V18.8951C2360.9 19.8772 2360.03 20.6283 2358.93 20.6283C2357.89 20.6283 2356.97 19.8772 2356.97 18.8951V0.17749H2360.9ZM2368 0.17749V23.5745C2368 24.5566 2367.14 25.3077 2366.04 25.3077C2365 25.3077 2364.08 24.5566 2364.08 23.5745V0.17749H2368ZM2375.17 0.17749V35.5329C2375.17 36.515 2374.24 37.2661 2373.2 37.2661C2372.11 37.2661 2371.24 36.515 2371.24 35.5329V0.17749H2375.17ZM2382.27 0.17749V33.6843C2382.27 34.6664 2381.35 35.4175 2380.31 35.4175C2379.21 35.4175 2378.34 34.6664 2378.34 33.6843V0.17749H2382.27ZM2389.38 0.17749V31.489C2389.38 32.4134 2388.51 33.2222 2387.41 33.2222C2386.32 33.2222 2385.45 32.4134 2385.45 31.489V0.17749H2389.38ZM2396.48 0.17749V29.4671C2396.48 30.3915 2395.62 31.2002 2394.52 31.2002C2393.42 31.2002 2392.56 30.3915 2392.56 29.4671V0.17749H2396.48ZM2403.59 0.17749V15.66C2403.59 16.6421 2402.72 17.393 2401.63 17.393C2400.59 17.393 2399.66 16.6421 2399.66 15.66V0.17749H2403.59ZM2410.7 0.17749V23.9789C2410.7 24.961 2409.83 25.712 2408.73 25.712C2407.69 25.712 2406.77 24.961 2406.77 23.9789V0.17749H2410.7ZM2417.86 0.17749V33.1066C2417.86 34.0309 2416.94 34.8397 2415.9 34.8397C2414.8 34.8397 2413.93 34.0309 2413.93 33.1066V0.17749H2417.86ZM2424.97 0.17749V30.0448C2424.97 31.0269 2424.04 31.7779 2423 31.7779C2421.9 31.7779 2421.04 31.0269 2421.04 30.0448V0.17749H2424.97ZM2432.07 0.17749V47.087C2432.07 48.0114 2431.2 48.8202 2430.11 48.8202C2429.01 48.8202 2428.14 48.0114 2428.14 47.087V0.17749H2432.07ZM2439.18 0.17749V39.5769C2439.18 40.559 2438.31 41.31 2437.21 41.31C2436.12 41.31 2435.25 40.559 2435.25 39.5769V0.17749H2439.18ZM2446.28 0.17749V37.9594C2446.28 38.9415 2445.42 39.6924 2444.32 39.6924C2443.28 39.6924 2442.35 38.9415 2442.35 37.9594V0.17749H2446.28ZM2453.45 0.17749V23.9789C2453.45 24.961 2452.52 25.712 2451.48 25.712C2450.38 25.712 2449.46 24.961 2449.46 23.9789V0.17749H2453.45Z" fill="#CFCFCF"/>
<path fill-rule="evenodd" clip-rule="evenodd" d="M488.275 0.100006V47.0095C488.275 47.9339 487.408 48.7427 486.311 48.7427C485.271 48.7427 484.347 47.9339 484.347 47.0095V0.100006H488.275ZM139.111 0.100006V23.9014C139.111 24.8835 138.244 25.6345 137.147 25.6345C136.049 25.6345 135.182 24.8835 135.182 23.9014V0.100006H139.111ZM132.005 0.100006V37.8819C132.005 38.864 131.081 39.6149 130.041 39.6149C128.943 39.6149 128.077 38.864 128.077 37.8819V0.100006H132.005ZM124.841 0.100006V39.4994C124.841 40.4815 123.975 41.2325 122.877 41.2325C121.837 41.2325 120.913 40.4815 120.913 39.4994V0.100006H124.841ZM117.736 0.100006V47.0095C117.736 47.9339 116.869 48.7427 115.771 48.7427C114.732 48.7427 113.807 47.9339 113.807 47.0095V0.100006H117.736ZM110.63 0.100006V29.9673C110.63 30.9494 109.763 31.7004 108.666 31.7004C107.568 31.7004 106.702 30.9494 106.702 29.9673V0.100006H110.63ZM103.524 0.100006V33.0291C103.524 33.9534 102.658 34.7622 101.56 34.7622C100.462 34.7622 99.5964 33.9534 99.5964 33.0291V0.100006H103.524ZM96.4188 0.100006V23.9014C96.4188 24.8835 95.5522 25.6345 94.4546 25.6345C93.357 25.6345 92.4904 24.8835 92.4904 23.9014V0.100006H96.4188ZM89.313 0.100006V15.5825C89.313 16.5646 88.3887 17.3155 87.3488 17.3155C86.2512 17.3155 85.3847 16.5646 85.3847 15.5825V0.100006H89.313ZM82.1495 0.100006V29.3896C82.1495 30.314 81.283 31.1227 80.1853 31.1227C79.1454 31.1227 78.2211 30.314 78.2211 29.3896V0.100006H82.1495ZM75.0438 0.100006V31.4115C75.0438 32.3359 74.1772 33.1447 73.0796 33.1447C72.0397 33.1447 71.1154 32.3359 71.1154 31.4115V0.100006H75.0438ZM67.938 0.100006V33.6068C67.938 34.5889 67.0714 35.34 65.9738 35.34C64.8762 35.34 64.0096 34.5889 64.0096 33.6068V0.100006H67.938ZM60.8322 0.100006V35.4554C60.8322 36.4375 59.9657 37.1886 58.868 37.1886C57.7704 37.1886 56.9038 36.4375 56.9038 35.4554V0.100006H60.8322ZM53.7265 0.100006V23.497C53.7265 24.4791 52.8021 25.2302 51.7623 25.2302C50.6646 25.2302 49.7981 24.4791 49.7981 23.497V0.100006H53.7265ZM46.6207 0.100006V18.8176C46.6207 19.7997 45.6964 20.5508 44.6565 20.5508C43.5589 20.5508 42.6923 19.7997 42.6923 18.8176V0.100006H46.6207ZM39.4572 0.100006V44.1788C39.4572 45.1032 38.5906 45.912 37.493 45.912C36.4531 45.912 35.5288 45.1032 35.5288 44.1788V0.100006H39.4572ZM32.3514 0.100006V35.4554C32.3514 36.4375 31.4849 37.1886 30.3872 37.1886C29.3474 37.1886 28.423 36.4375 28.423 35.4554V0.100006H32.3514ZM25.2457 0.100006V39.095C25.2457 40.0771 24.3791 40.8281 23.2815 40.8281C22.1838 40.8281 21.3173 40.0771 21.3173 39.095V0.100006H25.2457ZM18.1399 0.100006V43.1389C18.1399 44.121 17.2733 44.8721 16.1757 44.8721C15.0781 44.8721 14.2115 44.121 14.2115 43.1389V0.100006H18.1399ZM11.0341 0.100006V39.7305C11.0341 40.6548 10.1098 41.4636 9.06995 41.4636C7.97232 41.4636 7.10576 40.6548 7.10576 39.7305V0.100006H11.0341ZM3.92839 0.100006V47.0095C3.92839 47.9339 3.00406 48.7427 1.9642 48.7427C0.866558 48.7427 0 47.9339 0 47.0095V0.100006H3.92839ZM142.577 0.100006V23.9014C142.577 24.8835 143.443 25.6345 144.541 25.6345C145.639 25.6345 146.505 24.8835 146.505 23.9014V0.100006H142.577ZM149.683 0.100006V37.8819C149.683 38.864 150.549 39.6149 151.647 39.6149C152.745 39.6149 153.611 38.864 153.611 37.8819V0.100006H149.683ZM156.788 0.100006V39.4994C156.788 40.4815 157.655 41.2325 158.753 41.2325C159.85 41.2325 160.717 40.4815 160.717 39.4994V0.100006H156.788ZM163.894 0.100006V47.0095C163.894 47.9339 164.819 48.7427 165.858 48.7427C166.956 48.7427 167.823 47.9339 167.823 47.0095V0.100006H163.894ZM171.058 0.100006V29.9673C171.058 30.9494 171.924 31.7004 173.022 31.7004C174.062 31.7004 174.986 30.9494 174.986 29.9673V0.100006H171.058ZM178.164 0.100006V33.0291C178.164 33.9534 179.03 34.7622 180.128 34.7622C181.168 34.7622 182.092 33.9534 182.092 33.0291V0.100006H178.164ZM185.269 0.100006V23.9014C185.269 24.8835 186.136 25.6345 187.233 25.6345C188.331 25.6345 189.198 24.8835 189.198 23.9014V0.100006H185.269ZM192.375 0.100006V15.5825C192.375 16.5646 193.242 17.3155 194.339 17.3155C195.437 17.3155 196.303 16.5646 196.303 15.5825V0.100006H192.375ZM199.481 0.100006V29.3896C199.481 30.314 200.405 31.1227 201.445 31.1227C202.543 31.1227 203.409 30.314 203.409 29.3896V0.100006H199.481ZM345.64 0.100006V23.9014C345.64 24.8835 344.773 25.6345 343.676 25.6345C342.578 25.6345 341.712 24.8835 341.712 23.9014V0.100006H345.64ZM338.534 0.100006V37.8819C338.534 38.864 337.61 39.6149 336.57 39.6149C335.472 39.6149 334.606 38.864 334.606 37.8819V0.100006H338.534ZM331.428 0.100006V39.4994C331.428 40.4815 330.504 41.2325 329.464 41.2325C328.367 41.2325 327.442 40.4815 327.442 39.4994V0.100006H331.428ZM324.265 0.100006V47.0095C324.265 47.9339 323.398 48.7427 322.301 48.7427C321.261 48.7427 320.336 47.9339 320.336 47.0095V0.100006H324.265ZM317.159 0.100006V29.9673C317.159 30.9494 316.293 31.7004 315.195 31.7004C314.097 31.7004 313.231 30.9494 313.231 29.9673V0.100006H317.159ZM310.053 0.100006V33.0291C310.053 33.9534 309.187 34.7622 308.089 34.7622C306.992 34.7622 306.125 33.9534 306.125 33.0291V0.100006H310.053ZM302.948 0.100006V23.9014C302.948 24.8835 302.081 25.6345 300.983 25.6345C299.886 25.6345 299.019 24.8835 299.019 23.9014V0.100006H302.948ZM295.842 0.100006V15.5825C295.842 16.5646 294.918 17.3155 293.878 17.3155C292.78 17.3155 291.913 16.5646 291.913 15.5825V0.100006H295.842ZM288.678 0.100006V29.3896C288.678 30.314 287.812 31.1227 286.714 31.1227C285.674 31.1227 284.75 30.314 284.75 29.3896V0.100006H288.678ZM281.573 0.100006V31.4115C281.573 32.3359 280.706 33.1447 279.608 33.1447C278.568 33.1447 277.644 32.3359 277.644 31.4115V0.100006H281.573ZM274.467 0.100006V33.6068C274.467 34.5889 273.6 35.34 272.503 35.34C271.405 35.34 270.538 34.5889 270.538 33.6068V0.100006H274.467ZM267.361 0.100006V35.4554C267.361 36.4375 266.494 37.1886 265.397 37.1886C264.299 37.1886 263.433 36.4375 263.433 35.4554V0.100006H267.361ZM260.255 0.100006V23.497C260.255 24.4791 259.331 25.2302 258.291 25.2302C257.193 25.2302 256.327 24.4791 256.327 23.497V0.100006H260.255ZM253.15 0.100006V18.8176C253.15 19.7997 252.225 20.5508 251.185 20.5508C250.088 20.5508 249.221 19.7997 249.221 18.8176V0.100006H253.15ZM245.986 0.100006V44.1788C245.986 45.1032 245.119 45.912 244.022 45.912C242.982 45.912 242.058 45.1032 242.058 44.1788V0.100006H245.986ZM238.88 0.100006V35.4554C238.88 36.4375 238.014 37.1886 236.916 37.1886C235.876 37.1886 234.952 36.4375 234.952 35.4554V0.100006H238.88ZM231.774 0.100006V39.095C231.774 40.0771 230.908 40.8281 229.81 40.8281C228.713 40.8281 227.846 40.0771 227.846 39.095V0.100006H231.774ZM224.669 0.100006V43.1389C224.669 44.121 223.802 44.8721 222.705 44.8721C221.607 44.8721 220.74 44.121 220.74 43.1389V0.100006H224.669ZM217.563 0.100006V39.7305C217.563 40.6548 216.639 41.4636 215.599 41.4636C214.501 41.4636 213.635 40.6548 213.635 39.7305V0.100006H217.563ZM210.457 0.100006V47.0095C210.457 47.9339 209.533 48.7427 208.493 48.7427C207.395 48.7427 206.529 47.9339 206.529 47.0095V0.100006H210.457ZM349.106 0.100006V23.9014C349.106 24.8835 349.973 25.6345 351.07 25.6345C352.168 25.6345 353.035 24.8835 353.035 23.9014V0.100006H349.106ZM356.212 0.100006V37.8819C356.212 38.864 357.078 39.6149 358.176 39.6149C359.274 39.6149 360.14 38.864 360.14 37.8819V0.100006H356.212ZM363.318 0.100006V39.4994C363.318 40.4815 364.184 41.2325 365.282 41.2325C366.379 41.2325 367.246 40.4815 367.246 39.4994V0.100006H363.318ZM370.423 0.100006V47.0095C370.423 47.9339 371.348 48.7427 372.388 48.7427C373.485 48.7427 374.352 47.9339 374.352 47.0095V0.100006H370.423ZM377.587 0.100006V29.9673C377.587 30.9494 378.453 31.7004 379.551 31.7004C380.591 31.7004 381.515 30.9494 381.515 29.9673V0.100006H377.587ZM384.693 0.100006V33.0291C384.693 33.9534 385.559 34.7622 386.657 34.7622C387.697 34.7622 388.621 33.9534 388.621 33.0291V0.100006H384.693ZM391.798 0.100006V23.9014C391.798 24.8835 392.665 25.6345 393.763 25.6345C394.86 25.6345 395.727 24.8835 395.727 23.9014V0.100006H391.798ZM398.904 0.100006V15.5825C398.904 16.5646 399.771 17.3155 400.868 17.3155C401.966 17.3155 402.833 16.5646 402.833 15.5825V0.100006H398.904ZM406.01 0.100006V29.3896C406.01 30.314 406.934 31.1227 407.974 31.1227C409.072 31.1227 409.938 30.314 409.938 29.3896V0.100006H406.01ZM413.116 0.100006V31.4115C413.116 32.3359 414.04 33.1447 415.08 33.1447C416.178 33.1447 417.044 32.3359 417.044 31.4115V0.100006H413.116ZM420.279 0.100006V33.6068C420.279 34.5889 421.146 35.34 422.243 35.34C423.283 35.34 424.208 34.5889 424.208 33.6068V0.100006H420.279ZM427.385 0.100006V35.4554C427.385 36.4375 428.252 37.1886 429.349 37.1886C430.389 37.1886 431.313 36.4375 431.313 35.4554V0.100006H427.385ZM434.491 0.100006V23.497C434.491 24.4791 435.357 25.2302 436.455 25.2302C437.553 25.2302 438.419 24.4791 438.419 23.497V0.100006H434.491ZM441.597 0.100006V18.8176C441.597 19.7997 442.463 20.5508 443.561 20.5508C444.658 20.5508 445.525 19.7997 445.525 18.8176V0.100006H441.597ZM448.702 0.100006V44.1788C448.702 45.1032 449.627 45.912 450.666 45.912C451.764 45.912 452.631 45.1032 452.631 44.1788V0.100006H448.702ZM455.808 0.100006V35.4554C455.808 36.4375 456.732 37.1886 457.772 37.1886C458.87 37.1886 459.736 36.4375 459.736 35.4554V0.100006H455.808ZM462.972 0.100006V39.095C462.972 40.0771 463.838 40.8281 464.936 40.8281C465.976 40.8281 466.9 40.0771 466.9 39.095V0.100006H462.972ZM470.077 0.100006V43.1389C470.077 44.121 470.944 44.8721 472.042 44.8721C473.081 44.8721 474.006 44.121 474.006 43.1389V0.100006H470.077ZM477.183 0.100006V39.7305C477.183 40.6548 478.05 41.4636 479.147 41.4636C480.245 41.4636 481.112 40.6548 481.112 39.7305V0.100006H477.183ZM833.511 0.100006V23.9014C833.511 24.8835 834.378 25.6345 835.475 25.6345C836.515 25.6345 837.439 24.8835 837.439 23.9014V0.100006H833.511ZM840.617 0.100006V37.8819C840.617 38.864 841.483 39.6149 842.581 39.6149C843.621 39.6149 844.545 38.864 844.545 37.8819V0.100006H840.617ZM847.722 0.100006V39.4994C847.722 40.4815 848.589 41.2325 849.687 41.2325C850.784 41.2325 851.651 40.4815 851.651 39.4994V0.100006H847.722ZM854.828 0.100006V47.0095C854.828 47.9339 855.695 48.7427 856.792 48.7427C857.89 48.7427 858.757 47.9339 858.757 47.0095V0.100006H854.828ZM861.934 0.100006V29.9673C861.934 30.9494 862.858 31.7004 863.898 31.7004C864.996 31.7004 865.862 30.9494 865.862 29.9673V0.100006H861.934ZM869.04 0.100006V33.0291C869.04 33.9534 869.964 34.7622 871.004 34.7622C872.102 34.7622 872.968 33.9534 872.968 33.0291V0.100006H869.04ZM876.203 0.100006V23.9014C876.203 24.8835 877.07 25.6345 878.167 25.6345C879.207 25.6345 880.132 24.8835 880.132 23.9014V0.100006H876.203ZM883.309 0.100006V15.5825C883.309 16.5646 884.176 17.3155 885.273 17.3155C886.371 17.3155 887.237 16.5646 887.237 15.5825V0.100006H883.309ZM890.415 0.100006V29.3896C890.415 30.314 891.281 31.1227 892.379 31.1227C893.477 31.1227 894.343 30.314 894.343 29.3896V0.100006H890.415ZM897.521 0.100006V31.4115C897.521 32.3359 898.387 33.1447 899.485 33.1447C900.582 33.1447 901.449 32.3359 901.449 31.4115V0.100006H897.521ZM904.626 0.100006V33.6068C904.626 34.5889 905.551 35.34 906.591 35.34C907.688 35.34 908.555 34.5889 908.555 33.6068V0.100006H904.626ZM911.79 0.100006V35.4554C911.79 36.4375 912.656 37.1886 913.754 37.1886C914.794 37.1886 915.718 36.4375 915.718 35.4554V0.100006H911.79ZM918.896 0.100006V23.497C918.896 24.4791 919.762 25.2302 920.86 25.2302C921.9 25.2302 922.824 24.4791 922.824 23.497V0.100006H918.896ZM926.001 0.100006V18.8176C926.001 19.7997 926.868 20.5508 927.966 20.5508C929.063 20.5508 929.93 19.7997 929.93 18.8176V0.100006H926.001ZM933.107 0.100006V44.1788C933.107 45.1032 933.974 45.912 935.071 45.912C936.169 45.912 937.036 45.1032 937.036 44.1788V0.100006H933.107ZM940.213 0.100006V35.4554C940.213 36.4375 941.137 37.1886 942.177 37.1886C943.275 37.1886 944.141 36.4375 944.141 35.4554V0.100006H940.213ZM947.319 0.100006V39.095C947.319 40.0771 948.243 40.8281 949.283 40.8281C950.38 40.8281 951.247 40.0771 951.247 39.095V0.100006H947.319ZM954.482 0.100006V43.1389C954.482 44.121 955.349 44.8721 956.446 44.8721C957.486 44.8721 958.411 44.121 958.411 43.1389V0.100006H954.482ZM961.588 0.100006V39.7305C961.588 40.6548 962.454 41.4636 963.552 41.4636C964.592 41.4636 965.516 40.6548 965.516 39.7305V0.100006H961.588ZM968.694 0.100006V47.0095C968.694 47.9339 969.56 48.7427 970.658 48.7427C971.756 48.7427 972.622 47.9339 972.622 47.0095V0.100006H968.694ZM830.045 0.100006V23.9014C830.045 24.8835 829.12 25.6345 828.081 25.6345C826.983 25.6345 826.116 24.8835 826.116 23.9014V0.100006H830.045ZM822.881 0.100006V37.8819C822.881 38.864 822.015 39.6149 820.917 39.6149C819.877 39.6149 818.953 38.864 818.953 37.8819V0.100006H822.881ZM815.775 0.100006V39.4994C815.775 40.4815 814.909 41.2325 813.811 41.2325C812.771 41.2325 811.847 40.4815 811.847 39.4994V0.100006H815.775ZM808.67 0.100006V47.0095C808.67 47.9339 807.803 48.7427 806.706 48.7427C805.608 48.7427 804.741 47.9339 804.741 47.0095V0.100006H808.67ZM801.564 0.100006V29.9673C801.564 30.9494 800.697 31.7004 799.6 31.7004C798.502 31.7004 797.636 30.9494 797.636 29.9673V0.100006H801.564ZM794.458 0.100006V33.0291C794.458 33.9534 793.534 34.7622 792.494 34.7622C791.396 34.7622 790.53 33.9534 790.53 33.0291V0.100006H794.458ZM787.352 0.100006V23.9014C787.352 24.8835 786.428 25.6345 785.388 25.6345C784.291 25.6345 783.424 24.8835 783.424 23.9014V0.100006H787.352ZM780.189 0.100006V15.5825C780.189 16.5646 779.322 17.3155 778.225 17.3155C777.185 17.3155 776.26 16.5646 776.26 15.5825V0.100006H780.189ZM773.083 0.100006V29.3896C773.083 30.314 772.217 31.1227 771.119 31.1227C770.079 31.1227 769.155 30.314 769.155 29.3896V0.100006H773.083ZM626.982 0.100006V23.9014C626.982 24.8835 627.848 25.6345 628.946 25.6345C629.986 25.6345 630.91 24.8835 630.91 23.9014V0.100006H626.982ZM634.088 0.100006V37.8819C634.088 38.864 634.954 39.6149 636.052 39.6149C637.092 39.6149 638.016 38.864 638.016 37.8819V0.100006H634.088ZM641.193 0.100006V39.4994C641.193 40.4815 642.06 41.2325 643.157 41.2325C644.255 41.2325 645.122 40.4815 645.122 39.4994V0.100006H641.193ZM648.299 0.100006V47.0095C648.299 47.9339 649.166 48.7427 650.263 48.7427C651.361 48.7427 652.227 47.9339 652.227 47.0095V0.100006H648.299ZM655.405 0.100006V29.9673C655.405 30.9494 656.329 31.7004 657.369 31.7004C658.467 31.7004 659.333 30.9494 659.333 29.9673V0.100006H655.405ZM662.511 0.100006V33.0291C662.511 33.9534 663.435 34.7622 664.475 34.7622C665.572 34.7622 666.439 33.9534 666.439 33.0291V0.100006H662.511ZM669.674 0.100006V23.9014C669.674 24.8835 670.541 25.6345 671.638 25.6345C672.678 25.6345 673.603 24.8835 673.603 23.9014V0.100006H669.674ZM676.78 0.100006V15.5825C676.78 16.5646 677.646 17.3155 678.744 17.3155C679.842 17.3155 680.708 16.5646 680.708 15.5825V0.100006H676.78ZM683.886 0.100006V29.3896C683.886 30.314 684.752 31.1227 685.85 31.1227C686.947 31.1227 687.814 30.314 687.814 29.3896V0.100006H683.886ZM690.991 0.100006V31.4115C690.991 32.3359 691.858 33.1447 692.956 33.1447C694.053 33.1447 694.92 32.3359 694.92 31.4115V0.100006H690.991ZM698.097 0.100006V33.6068C698.097 34.5889 699.021 35.34 700.061 35.34C701.159 35.34 702.026 34.5889 702.026 33.6068V0.100006H698.097ZM705.261 0.100006V35.4554C705.261 36.4375 706.127 37.1886 707.225 37.1886C708.265 37.1886 709.189 36.4375 709.189 35.4554V0.100006H705.261ZM712.366 0.100006V23.497C712.366 24.4791 713.233 25.2302 714.331 25.2302C715.37 25.2302 716.295 24.4791 716.295 23.497V0.100006H712.366ZM719.472 0.100006V18.8176C719.472 19.7997 720.339 20.5508 721.436 20.5508C722.534 20.5508 723.401 19.7997 723.401 18.8176V0.100006H719.472ZM726.578 0.100006V44.1788C726.578 45.1032 727.445 45.912 728.542 45.912C729.64 45.912 730.506 45.1032 730.506 44.1788V0.100006H726.578ZM733.684 0.100006V35.4554C733.684 36.4375 734.55 37.1886 735.648 37.1886C736.746 37.1886 737.612 36.4375 737.612 35.4554V0.100006H733.684ZM740.789 0.100006V39.095C740.789 40.0771 741.714 40.8281 742.754 40.8281C743.851 40.8281 744.718 40.0771 744.718 39.095V0.100006H740.789ZM747.953 0.100006V43.1389C747.953 44.121 748.82 44.8721 749.917 44.8721C750.957 44.8721 751.881 44.121 751.881 43.1389V0.100006H747.953ZM755.059 0.100006V39.7305C755.059 40.6548 755.925 41.4636 757.023 41.4636C758.063 41.4636 758.987 40.6548 758.987 39.7305V0.100006H755.059ZM762.165 0.100006V47.0095C762.165 47.9339 763.031 48.7427 764.129 48.7427C765.226 48.7427 766.093 47.9339 766.093 47.0095V0.100006H762.165ZM623.516 0.100006V23.9014C623.516 24.8835 622.591 25.6345 621.551 25.6345C620.454 25.6345 619.587 24.8835 619.587 23.9014V0.100006H623.516ZM616.352 0.100006V37.8819C616.352 38.864 615.485 39.6149 614.388 39.6149C613.348 39.6149 612.424 38.864 612.424 37.8819V0.100006H616.352ZM609.246 0.100006V39.4994C609.246 40.4815 608.38 41.2325 607.282 41.2325C606.242 41.2325 605.318 40.4815 605.318 39.4994V0.100006H609.246ZM602.14 0.100006V47.0095C602.14 47.9339 601.274 48.7427 600.176 48.7427C599.079 48.7427 598.212 47.9339 598.212 47.0095V0.100006H602.14ZM595.035 0.100006V29.9673C595.035 30.9494 594.168 31.7004 593.071 31.7004C591.973 31.7004 591.106 30.9494 591.106 29.9673V0.100006H595.035ZM587.929 0.100006V33.0291C587.929 33.9534 587.005 34.7622 585.965 34.7622C584.867 34.7622 584.001 33.9534 584.001 33.0291V0.100006H587.929ZM580.823 0.100006V23.9014C580.823 24.8835 579.899 25.6345 578.859 25.6345C577.761 25.6345 576.895 24.8835 576.895 23.9014V0.100006H580.823ZM573.66 0.100006V15.5825C573.66 16.5646 572.793 17.3155 571.696 17.3155C570.656 17.3155 569.731 16.5646 569.731 15.5825V0.100006H573.66ZM566.554 0.100006V29.3896C566.554 30.314 565.687 31.1227 564.59 31.1227C563.55 31.1227 562.626 30.314 562.626 29.3896V0.100006H566.554ZM559.448 0.100006V31.4115C559.448 32.3359 558.582 33.1447 557.484 33.1447C556.386 33.1447 555.52 32.3359 555.52 31.4115V0.100006H559.448ZM552.342 0.100006V33.6068C552.342 34.5889 551.476 35.34 550.378 35.34C549.281 35.34 548.414 34.5889 548.414 33.6068V0.100006H552.342ZM545.237 0.100006V35.4554C545.237 36.4375 544.312 37.1886 543.272 37.1886C542.175 37.1886 541.308 36.4375 541.308 35.4554V0.100006H545.237ZM538.131 0.100006V23.497C538.131 24.4791 537.207 25.2302 536.167 25.2302C535.069 25.2302 534.203 24.4791 534.203 23.497V0.100006H538.131ZM530.967 0.100006V18.8176C530.967 19.7997 530.101 20.5508 529.003 20.5508C527.963 20.5508 527.039 19.7997 527.039 18.8176V0.100006H530.967ZM523.862 0.100006V44.1788C523.862 45.1032 522.995 45.912 521.897 45.912C520.8 45.912 519.933 45.1032 519.933 44.1788V0.100006H523.862ZM516.756 0.100006V35.4554C516.756 36.4375 515.889 37.1886 514.792 37.1886C513.694 37.1886 512.827 36.4375 512.827 35.4554V0.100006H516.756ZM509.65 0.100006V39.095C509.65 40.0771 508.784 40.8281 507.686 40.8281C506.588 40.8281 505.722 40.0771 505.722 39.095V0.100006H509.65ZM502.544 0.100006V43.1389C502.544 44.121 501.62 44.8721 500.58 44.8721C499.482 44.8721 498.616 44.121 498.616 43.1389V0.100006H502.544ZM495.439 0.100006V39.7305C495.439 40.6548 494.514 41.4636 493.417 41.4636C492.377 41.4636 491.452 40.6548 491.452 39.7305V0.100006H495.439ZM1339 0.100006V47.0095C1339 47.9339 1339.87 48.7427 1340.96 48.7427C1342.06 48.7427 1342.93 47.9339 1342.93 47.0095V0.100006H1339ZM1331.89 0.100006V39.4994C1331.89 40.4815 1332.76 41.2325 1333.86 41.2325C1334.96 41.2325 1335.82 40.4815 1335.82 39.4994V0.100006H1331.89ZM1324.79 0.100006V37.8819C1324.79 38.864 1325.65 39.6149 1326.75 39.6149C1327.79 39.6149 1328.72 38.864 1328.72 37.8819V0.100006H1324.79ZM1317.62 0.100006V23.9014C1317.62 24.8835 1318.55 25.6345 1319.65 25.6345C1320.69 25.6345 1321.61 24.8835 1321.61 23.9014V0.100006H1317.62ZM1178.98 0.100006V47.0095C1178.98 47.9339 1178.11 48.7427 1177.01 48.7427C1175.97 48.7427 1175.05 47.9339 1175.05 47.0095V0.100006H1178.98ZM1186.08 0.100006V39.7305C1186.08 40.6548 1185.21 41.4636 1184.12 41.4636C1183.08 41.4636 1182.15 40.6548 1182.15 39.7305V0.100006H1186.08ZM1193.24 0.100006V43.1389C1193.24 44.121 1192.32 44.8721 1191.28 44.8721C1190.18 44.8721 1189.32 44.121 1189.32 43.1389V0.100006H1193.24ZM1200.35 0.100006V39.095C1200.35 40.0771 1199.43 40.8281 1198.39 40.8281C1197.29 40.8281 1196.42 40.0771 1196.42 39.095V0.100006H1200.35ZM1207.46 0.100006V35.4554C1207.46 36.4375 1206.59 37.1886 1205.49 37.1886C1204.39 37.1886 1203.53 36.4375 1203.53 35.4554V0.100006H1207.46ZM1214.56 0.100006V44.1788C1214.56 45.1032 1213.69 45.912 1212.6 45.912C1211.5 45.912 1210.63 45.1032 1210.63 44.1788V0.100006H1214.56ZM1221.67 0.100006V18.8176C1221.67 19.7997 1220.8 20.5508 1219.7 20.5508C1218.66 20.5508 1217.74 19.7997 1217.74 18.8176V0.100006H1221.67ZM1228.77 0.100006V23.497C1228.77 24.4791 1227.91 25.2302 1226.81 25.2302C1225.77 25.2302 1224.84 24.4791 1224.84 23.497V0.100006H1228.77ZM1235.94 0.100006V35.4554C1235.94 36.4375 1235.01 37.1886 1233.97 37.1886C1232.87 37.1886 1232.01 36.4375 1232.01 35.4554V0.100006H1235.94ZM1243.04 0.100006V33.6068C1243.04 34.5889 1242.12 35.34 1241.08 35.34C1239.98 35.34 1239.11 34.5889 1239.11 33.6068V0.100006H1243.04ZM1250.15 0.100006V31.4115C1250.15 32.3359 1249.28 33.1447 1248.18 33.1447C1247.09 33.1447 1246.22 32.3359 1246.22 31.4115V0.100006H1250.15ZM1257.25 0.100006V29.3896C1257.25 30.314 1256.39 31.1227 1255.29 31.1227C1254.19 31.1227 1253.33 30.314 1253.33 29.3896V0.100006H1257.25ZM1264.36 0.100006V15.5825C1264.36 16.5646 1263.49 17.3155 1262.4 17.3155C1261.36 17.3155 1260.43 16.5646 1260.43 15.5825V0.100006H1264.36ZM1271.47 0.100006V23.9014C1271.47 24.8835 1270.6 25.6345 1269.5 25.6345C1268.46 25.6345 1267.54 24.8835 1267.54 23.9014V0.100006H1271.47ZM1278.63 0.100006V33.0291C1278.63 33.9534 1277.7 34.7622 1276.66 34.7622C1275.57 34.7622 1274.7 33.9534 1274.7 33.0291V0.100006H1278.63ZM1285.73 0.100006V29.9673C1285.73 30.9494 1284.87 31.7004 1283.77 31.7004C1282.67 31.7004 1281.81 30.9494 1281.81 29.9673V0.100006H1285.73ZM1292.84 0.100006V47.0095C1292.84 47.9339 1291.97 48.7427 1290.88 48.7427C1289.78 48.7427 1288.91 47.9339 1288.91 47.0095V0.100006H1292.84ZM1299.95 0.100006V39.4994C1299.95 40.4815 1299.08 41.2325 1297.98 41.2325C1296.88 41.2325 1296.02 40.4815 1296.02 39.4994V0.100006H1299.95ZM1307.05 0.100006V37.8819C1307.05 38.864 1306.19 39.6149 1305.09 39.6149C1304.05 39.6149 1303.12 38.864 1303.12 37.8819V0.100006H1307.05ZM1314.22 0.100006V23.9014C1314.22 24.8835 1313.29 25.6345 1312.25 25.6345C1311.15 25.6345 1310.29 24.8835 1310.29 23.9014V0.100006H1314.22ZM1168.06 0.100006V29.3896C1168.06 30.314 1168.92 31.1227 1170.02 31.1227C1171.12 31.1227 1171.98 30.314 1171.98 29.3896V0.100006H1168.06ZM1160.95 0.100006V15.5825C1160.95 16.5646 1161.82 17.3155 1162.91 17.3155C1163.95 17.3155 1164.88 16.5646 1164.88 15.5825V0.100006H1160.95ZM1153.84 0.100006V23.9014C1153.84 24.8835 1154.71 25.6345 1155.81 25.6345C1156.85 25.6345 1157.77 24.8835 1157.77 23.9014V0.100006H1153.84ZM1146.68 0.100006V33.0291C1146.68 33.9534 1147.61 34.7622 1148.65 34.7622C1149.74 34.7622 1150.61 33.9534 1150.61 33.0291V0.100006H1146.68ZM1139.58 0.100006V29.9673C1139.58 30.9494 1140.44 31.7004 1141.54 31.7004C1142.64 31.7004 1143.5 30.9494 1143.5 29.9673V0.100006H1139.58ZM1132.47 0.100006V47.0095C1132.47 47.9339 1133.34 48.7427 1134.43 48.7427C1135.53 48.7427 1136.4 47.9339 1136.4 47.0095V0.100006H1132.47ZM1125.36 0.100006V39.4994C1125.36 40.4815 1126.23 41.2325 1127.33 41.2325C1128.43 41.2325 1129.29 40.4815 1129.29 39.4994V0.100006H1125.36ZM1118.26 0.100006V37.8819C1118.26 38.864 1119.12 39.6149 1120.22 39.6149C1121.26 39.6149 1122.19 38.864 1122.19 37.8819V0.100006H1118.26ZM1111.09 0.100006V23.9014C1111.09 24.8835 1112.02 25.6345 1113.06 25.6345C1114.16 25.6345 1115.02 24.8835 1115.02 23.9014V0.100006H1111.09ZM979.555 0.100006V39.7305C979.555 40.6548 978.688 41.4636 977.59 41.4636C976.551 41.4636 975.626 40.6548 975.626 39.7305V0.100006H979.555ZM986.718 0.100006V43.1389C986.718 44.121 985.794 44.8721 984.754 44.8721C983.656 44.8721 982.79 44.121 982.79 43.1389V0.100006H986.718ZM993.824 0.100006V39.095C993.824 40.0771 992.9 40.8281 991.86 40.8281C990.762 40.8281 989.895 40.0771 989.895 39.095V0.100006H993.824ZM1000.93 0.100006V35.4554C1000.93 36.4375 1000.06 37.1886 998.965 37.1886C997.868 37.1886 997.001 36.4375 997.001 35.4554V0.100006H1000.93ZM1008.03 0.100006V44.1788C1008.03 45.1032 1007.17 45.912 1006.07 45.912C1004.97 45.912 1004.1 45.1032 1004.1 44.1788V0.100006H1008.03ZM1015.14 0.100006V18.8176C1015.14 19.7997 1014.27 20.5508 1013.17 20.5508C1012.13 20.5508 1011.21 19.7997 1011.21 18.8176V0.100006H1015.14ZM1022.24 0.100006V23.497C1022.24 24.4791 1021.38 25.2302 1020.28 25.2302C1019.24 25.2302 1018.32 24.4791 1018.32 23.497V0.100006H1022.24ZM1029.41 0.100006V35.4554C1029.41 36.4375 1028.48 37.1886 1027.44 37.1886C1026.35 37.1886 1025.48 36.4375 1025.48 35.4554V0.100006H1029.41ZM1036.51 0.100006V33.6068C1036.51 34.5889 1035.59 35.34 1034.55 35.34C1033.45 35.34 1032.58 34.5889 1032.58 33.6068V0.100006H1036.51ZM1043.62 0.100006V31.4115C1043.62 32.3359 1042.75 33.1447 1041.65 33.1447C1040.56 33.1447 1039.69 32.3359 1039.69 31.4115V0.100006H1043.62ZM1050.72 0.100006V29.3896C1050.72 30.314 1049.86 31.1227 1048.76 31.1227C1047.66 31.1227 1046.8 30.314 1046.8 29.3896V0.100006H1050.72ZM1057.83 0.100006V15.5825C1057.83 16.5646 1056.96 17.3155 1055.87 17.3155C1054.83 17.3155 1053.9 16.5646 1053.9 15.5825V0.100006H1057.83ZM1064.94 0.100006V23.9014C1064.94 24.8835 1064.07 25.6345 1062.97 25.6345C1061.93 25.6345 1061.01 24.8835 1061.01 23.9014V0.100006H1064.94ZM1072.1 0.100006V33.0291C1072.1 33.9534 1071.18 34.7622 1070.14 34.7622C1069.04 34.7622 1068.17 33.9534 1068.17 33.0291V0.100006H1072.1ZM1079.21 0.100006V29.9673C1079.21 30.9494 1078.28 31.7004 1077.24 31.7004C1076.14 31.7004 1075.28 30.9494 1075.28 29.9673V0.100006H1079.21ZM1086.31 0.100006V47.0095C1086.31 47.9339 1085.44 48.7427 1084.35 48.7427C1083.25 48.7427 1082.38 47.9339 1082.38 47.0095V0.100006H1086.31ZM1093.42 0.100006V39.4994C1093.42 40.4815 1092.55 41.2325 1091.45 41.2325C1090.36 41.2325 1089.49 40.4815 1089.49 39.4994V0.100006H1093.42ZM1100.52 0.100006V37.8819C1100.52 38.864 1099.66 39.6149 1098.56 39.6149C1097.52 39.6149 1096.59 38.864 1096.59 37.8819V0.100006H1100.52ZM1107.69 0.100006V23.9014C1107.69 24.8835 1106.76 25.6345 1105.72 25.6345C1104.62 25.6345 1103.7 24.8835 1103.7 23.9014V0.100006H1107.69Z" fill="#CFCFCF"/>
<path fill-rule="evenodd" clip-rule="evenodd" d="M3180.28 0.100006V47.0095C3180.28 47.9339 3179.41 48.7427 3178.31 48.7427C3177.27 48.7427 3176.35 47.9339 3176.35 47.0095V0.100006H3180.28ZM2831.11 0.100006V23.9014C2831.11 24.8835 2830.24 25.6345 2829.15 25.6345C2828.05 25.6345 2827.18 24.8835 2827.18 23.9014V0.100006H2831.11ZM2824.01 0.100006V37.8819C2824.01 38.864 2823.08 39.6149 2822.04 39.6149C2820.94 39.6149 2820.08 38.864 2820.08 37.8819V0.100006H2824.01ZM2816.84 0.100006V39.4994C2816.84 40.4815 2815.98 41.2325 2814.88 41.2325C2813.84 41.2325 2812.91 40.4815 2812.91 39.4994V0.100006H2816.84ZM2809.74 0.100006V47.0095C2809.74 47.9339 2808.87 48.7427 2807.77 48.7427C2806.73 48.7427 2805.81 47.9339 2805.81 47.0095V0.100006H2809.74ZM2802.63 0.100006V29.9673C2802.63 30.9494 2801.76 31.7004 2800.67 31.7004C2799.57 31.7004 2798.7 30.9494 2798.7 29.9673V0.100006H2802.63ZM2795.52 0.100006V33.0291C2795.52 33.9534 2794.66 34.7622 2793.56 34.7622C2792.46 34.7622 2791.6 33.9534 2791.6 33.0291V0.100006H2795.52ZM2788.42 0.100006V23.9014C2788.42 24.8835 2787.55 25.6345 2786.45 25.6345C2785.36 25.6345 2784.49 24.8835 2784.49 23.9014V0.100006H2788.42ZM2781.31 0.100006V15.5825C2781.31 16.5646 2780.39 17.3155 2779.35 17.3155C2778.25 17.3155 2777.38 16.5646 2777.38 15.5825V0.100006H2781.31ZM2774.15 0.100006V29.3896C2774.15 30.314 2773.28 31.1227 2772.19 31.1227C2771.15 31.1227 2770.22 30.314 2770.22 29.3896V0.100006H2774.15ZM2767.04 0.100006V31.4115C2767.04 32.3359 2766.18 33.1447 2765.08 33.1447C2764.04 33.1447 2763.12 32.3359 2763.12 31.4115V0.100006H2767.04ZM2759.94 0.100006V33.6068C2759.94 34.5889 2759.07 35.34 2757.97 35.34C2756.88 35.34 2756.01 34.5889 2756.01 33.6068V0.100006H2759.94ZM2752.83 0.100006V35.4554C2752.83 36.4375 2751.97 37.1886 2750.87 37.1886C2749.77 37.1886 2748.9 36.4375 2748.9 35.4554V0.100006H2752.83ZM2745.73 0.100006V23.497C2745.73 24.4791 2744.8 25.2302 2743.76 25.2302C2742.66 25.2302 2741.8 24.4791 2741.8 23.497V0.100006H2745.73ZM2738.62 0.100006V18.8176C2738.62 19.7997 2737.7 20.5508 2736.66 20.5508C2735.56 20.5508 2734.69 19.7997 2734.69 18.8176V0.100006H2738.62ZM2731.46 0.100006V44.1788C2731.46 45.1032 2730.59 45.912 2729.49 45.912C2728.45 45.912 2727.53 45.1032 2727.53 44.1788V0.100006H2731.46ZM2724.35 0.100006V35.4554C2724.35 36.4375 2723.48 37.1886 2722.39 37.1886C2721.35 37.1886 2720.42 36.4375 2720.42 35.4554V0.100006H2724.35ZM2717.25 0.100006V39.095C2717.25 40.0771 2716.38 40.8281 2715.28 40.8281C2714.18 40.8281 2713.32 40.0771 2713.32 39.095V0.100006H2717.25ZM2710.14 0.100006V43.1389C2710.14 44.121 2709.27 44.8721 2708.18 44.8721C2707.08 44.8721 2706.21 44.121 2706.21 43.1389V0.100006H2710.14ZM2703.03 0.100006V39.7305C2703.03 40.6548 2702.11 41.4636 2701.07 41.4636C2699.97 41.4636 2699.11 40.6548 2699.11 39.7305V0.100006H2703.03ZM2695.93 0.100006V47.0095C2695.93 47.9339 2695 48.7427 2693.96 48.7427C2692.87 48.7427 2692 47.9339 2692 47.0095V0.100006H2695.93ZM2834.58 0.100006V23.9014C2834.58 24.8835 2835.44 25.6345 2836.54 25.6345C2837.64 25.6345 2838.51 24.8835 2838.51 23.9014V0.100006H2834.58ZM2841.68 0.100006V37.8819C2841.68 38.864 2842.55 39.6149 2843.65 39.6149C2844.75 39.6149 2845.61 38.864 2845.61 37.8819V0.100006H2841.68ZM2848.79 0.100006V39.4994C2848.79 40.4815 2849.66 41.2325 2850.75 41.2325C2851.85 41.2325 2852.72 40.4815 2852.72 39.4994V0.100006H2848.79ZM2855.89 0.100006V47.0095C2855.89 47.9339 2856.82 48.7427 2857.86 48.7427C2858.96 48.7427 2859.82 47.9339 2859.82 47.0095V0.100006H2855.89ZM2863.06 0.100006V29.9673C2863.06 30.9494 2863.92 31.7004 2865.02 31.7004C2866.06 31.7004 2866.99 30.9494 2866.99 29.9673V0.100006H2863.06ZM2870.16 0.100006V33.0291C2870.16 33.9534 2871.03 34.7622 2872.13 34.7622C2873.17 34.7622 2874.09 33.9534 2874.09 33.0291V0.100006H2870.16ZM2877.27 0.100006V23.9014C2877.27 24.8835 2878.14 25.6345 2879.23 25.6345C2880.33 25.6345 2881.2 24.8835 2881.2 23.9014V0.100006H2877.27ZM2884.38 0.100006V15.5825C2884.38 16.5646 2885.24 17.3155 2886.34 17.3155C2887.44 17.3155 2888.3 16.5646 2888.3 15.5825V0.100006H2884.38ZM2891.48 0.100006V29.3896C2891.48 30.314 2892.41 31.1227 2893.45 31.1227C2894.54 31.1227 2895.41 30.314 2895.41 29.3896V0.100006H2891.48ZM3037.64 0.100006V23.9014C3037.64 24.8835 3036.77 25.6345 3035.68 25.6345C3034.58 25.6345 3033.71 24.8835 3033.71 23.9014V0.100006H3037.64ZM3030.53 0.100006V37.8819C3030.53 38.864 3029.61 39.6149 3028.57 39.6149C3027.47 39.6149 3026.61 38.864 3026.61 37.8819V0.100006H3030.53ZM3023.43 0.100006V39.4994C3023.43 40.4815 3022.5 41.2325 3021.46 41.2325C3020.37 41.2325 3019.44 40.4815 3019.44 39.4994V0.100006H3023.43ZM3016.27 0.100006V47.0095C3016.27 47.9339 3015.4 48.7427 3014.3 48.7427C3013.26 48.7427 3012.34 47.9339 3012.34 47.0095V0.100006H3016.27ZM3009.16 0.100006V29.9673C3009.16 30.9494 3008.29 31.7004 3007.2 31.7004C3006.1 31.7004 3005.23 30.9494 3005.23 29.9673V0.100006H3009.16ZM3002.05 0.100006V33.0291C3002.05 33.9534 3001.19 34.7622 3000.09 34.7622C2998.99 34.7622 2998.13 33.9534 2998.13 33.0291V0.100006H3002.05ZM2994.95 0.100006V23.9014C2994.95 24.8835 2994.08 25.6345 2992.98 25.6345C2991.89 25.6345 2991.02 24.8835 2991.02 23.9014V0.100006H2994.95ZM2987.84 0.100006V15.5825C2987.84 16.5646 2986.92 17.3155 2985.88 17.3155C2984.78 17.3155 2983.91 16.5646 2983.91 15.5825V0.100006H2987.84ZM2980.68 0.100006V29.3896C2980.68 30.314 2979.81 31.1227 2978.71 31.1227C2977.67 31.1227 2976.75 30.314 2976.75 29.3896V0.100006H2980.68ZM2973.57 0.100006V31.4115C2973.57 32.3359 2972.71 33.1447 2971.61 33.1447C2970.57 33.1447 2969.64 32.3359 2969.64 31.4115V0.100006H2973.57ZM2966.47 0.100006V33.6068C2966.47 34.5889 2965.6 35.34 2964.5 35.34C2963.41 35.34 2962.54 34.5889 2962.54 33.6068V0.100006H2966.47ZM2959.36 0.100006V35.4554C2959.36 36.4375 2958.49 37.1886 2957.4 37.1886C2956.3 37.1886 2955.43 36.4375 2955.43 35.4554V0.100006H2959.36ZM2952.26 0.100006V23.497C2952.26 24.4791 2951.33 25.2302 2950.29 25.2302C2949.19 25.2302 2948.33 24.4791 2948.33 23.497V0.100006H2952.26ZM2945.15 0.100006V18.8176C2945.15 19.7997 2944.23 20.5508 2943.19 20.5508C2942.09 20.5508 2941.22 19.7997 2941.22 18.8176V0.100006H2945.15ZM2937.99 0.100006V44.1788C2937.99 45.1032 2937.12 45.912 2936.02 45.912C2934.98 45.912 2934.06 45.1032 2934.06 44.1788V0.100006H2937.99ZM2930.88 0.100006V35.4554C2930.88 36.4375 2930.01 37.1886 2928.92 37.1886C2927.88 37.1886 2926.95 36.4375 2926.95 35.4554V0.100006H2930.88ZM2923.77 0.100006V39.095C2923.77 40.0771 2922.91 40.8281 2921.81 40.8281C2920.71 40.8281 2919.85 40.0771 2919.85 39.095V0.100006H2923.77ZM2916.67 0.100006V43.1389C2916.67 44.121 2915.8 44.8721 2914.71 44.8721C2913.61 44.8721 2912.74 44.121 2912.74 43.1389V0.100006H2916.67ZM2909.56 0.100006V39.7305C2909.56 40.6548 2908.64 41.4636 2907.6 41.4636C2906.5 41.4636 2905.64 40.6548 2905.64 39.7305V0.100006H2909.56ZM2902.46 0.100006V47.0095C2902.46 47.9339 2901.53 48.7427 2900.49 48.7427C2899.4 48.7427 2898.53 47.9339 2898.53 47.0095V0.100006H2902.46ZM3041.11 0.100006V23.9014C3041.11 24.8835 3041.97 25.6345 3043.07 25.6345C3044.17 25.6345 3045.04 24.8835 3045.04 23.9014V0.100006H3041.11ZM3048.21 0.100006V37.8819C3048.21 38.864 3049.08 39.6149 3050.18 39.6149C3051.27 39.6149 3052.14 38.864 3052.14 37.8819V0.100006H3048.21ZM3055.32 0.100006V39.4994C3055.32 40.4815 3056.18 41.2325 3057.28 41.2325C3058.38 41.2325 3059.25 40.4815 3059.25 39.4994V0.100006H3055.32ZM3062.42 0.100006V47.0095C3062.42 47.9339 3063.35 48.7427 3064.39 48.7427C3065.49 48.7427 3066.35 47.9339 3066.35 47.0095V0.100006H3062.42ZM3069.59 0.100006V29.9673C3069.59 30.9494 3070.45 31.7004 3071.55 31.7004C3072.59 31.7004 3073.52 30.9494 3073.52 29.9673V0.100006H3069.59ZM3076.69 0.100006V33.0291C3076.69 33.9534 3077.56 34.7622 3078.66 34.7622C3079.7 34.7622 3080.62 33.9534 3080.62 33.0291V0.100006H3076.69ZM3083.8 0.100006V23.9014C3083.8 24.8835 3084.67 25.6345 3085.76 25.6345C3086.86 25.6345 3087.73 24.8835 3087.73 23.9014V0.100006H3083.8ZM3090.9 0.100006V15.5825C3090.9 16.5646 3091.77 17.3155 3092.87 17.3155C3093.97 17.3155 3094.83 16.5646 3094.83 15.5825V0.100006H3090.9ZM3098.01 0.100006V29.3896C3098.01 30.314 3098.93 31.1227 3099.97 31.1227C3101.07 31.1227 3101.94 30.314 3101.94 29.3896V0.100006H3098.01ZM3105.12 0.100006V31.4115C3105.12 32.3359 3106.04 33.1447 3107.08 33.1447C3108.18 33.1447 3109.04 32.3359 3109.04 31.4115V0.100006H3105.12ZM3112.28 0.100006V33.6068C3112.28 34.5889 3113.15 35.34 3114.24 35.34C3115.28 35.34 3116.21 34.5889 3116.21 33.6068V0.100006H3112.28ZM3119.39 0.100006V35.4554C3119.39 36.4375 3120.25 37.1886 3121.35 37.1886C3122.39 37.1886 3123.31 36.4375 3123.31 35.4554V0.100006H3119.39ZM3126.49 0.100006V23.497C3126.49 24.4791 3127.36 25.2302 3128.46 25.2302C3129.55 25.2302 3130.42 24.4791 3130.42 23.497V0.100006H3126.49ZM3133.6 0.100006V18.8176C3133.6 19.7997 3134.46 20.5508 3135.56 20.5508C3136.66 20.5508 3137.53 19.7997 3137.53 18.8176V0.100006H3133.6ZM3140.7 0.100006V44.1788C3140.7 45.1032 3141.63 45.912 3142.67 45.912C3143.76 45.912 3144.63 45.1032 3144.63 44.1788V0.100006H3140.7ZM3147.81 0.100006V35.4554C3147.81 36.4375 3148.73 37.1886 3149.77 37.1886C3150.87 37.1886 3151.74 36.4375 3151.74 35.4554V0.100006H3147.81ZM3154.97 0.100006V39.095C3154.97 40.0771 3155.84 40.8281 3156.94 40.8281C3157.98 40.8281 3158.9 40.0771 3158.9 39.095V0.100006H3154.97ZM3162.08 0.100006V43.1389C3162.08 44.121 3162.94 44.8721 3164.04 44.8721C3165.08 44.8721 3166.01 44.121 3166.01 43.1389V0.100006H3162.08ZM3169.18 0.100006V39.7305C3169.18 40.6548 3170.05 41.4636 3171.15 41.4636C3172.25 41.4636 3173.11 40.6548 3173.11 39.7305V0.100006H3169.18ZM3525.51 0.100006V23.9014C3525.51 24.8835 3526.38 25.6345 3527.48 25.6345C3528.52 25.6345 3529.44 24.8835 3529.44 23.9014V0.100006H3525.51ZM3532.62 0.100006V37.8819C3532.62 38.864 3533.48 39.6149 3534.58 39.6149C3535.62 39.6149 3536.55 38.864 3536.55 37.8819V0.100006H3532.62ZM3539.72 0.100006V39.4994C3539.72 40.4815 3540.59 41.2325 3541.69 41.2325C3542.78 41.2325 3543.65 40.4815 3543.65 39.4994V0.100006H3539.72ZM3546.83 0.100006V47.0095C3546.83 47.9339 3547.7 48.7427 3548.79 48.7427C3549.89 48.7427 3550.76 47.9339 3550.76 47.0095V0.100006H3546.83ZM3553.93 0.100006V29.9673C3553.93 30.9494 3554.86 31.7004 3555.9 31.7004C3557 31.7004 3557.86 30.9494 3557.86 29.9673V0.100006H3553.93ZM3561.04 0.100006V33.0291C3561.04 33.9534 3561.96 34.7622 3563 34.7622C3564.1 34.7622 3564.97 33.9534 3564.97 33.0291V0.100006H3561.04ZM3568.2 0.100006V23.9014C3568.2 24.8835 3569.07 25.6345 3570.17 25.6345C3571.21 25.6345 3572.13 24.8835 3572.13 23.9014V0.100006H3568.2ZM3575.31 0.100006V15.5825C3575.31 16.5646 3576.18 17.3155 3577.27 17.3155C3578.37 17.3155 3579.24 16.5646 3579.24 15.5825V0.100006H3575.31ZM3582.42 0.100006V29.3896C3582.42 30.314 3583.28 31.1227 3584.38 31.1227C3585.48 31.1227 3586.34 30.314 3586.34 29.3896V0.100006H3582.42ZM3589.52 0.100006V31.4115C3589.52 32.3359 3590.39 33.1447 3591.49 33.1447C3592.58 33.1447 3593.45 32.3359 3593.45 31.4115V0.100006H3589.52ZM3596.63 0.100006V33.6068C3596.63 34.5889 3597.55 35.34 3598.59 35.34C3599.69 35.34 3600.56 34.5889 3600.56 33.6068V0.100006H3596.63ZM3603.79 0.100006V35.4554C3603.79 36.4375 3604.66 37.1886 3605.75 37.1886C3606.79 37.1886 3607.72 36.4375 3607.72 35.4554V0.100006H3603.79ZM3610.9 0.100006V23.497C3610.9 24.4791 3611.76 25.2302 3612.86 25.2302C3613.9 25.2302 3614.82 24.4791 3614.82 23.497V0.100006H3610.9ZM3618 0.100006V18.8176C3618 19.7997 3618.87 20.5508 3619.97 20.5508C3621.06 20.5508 3621.93 19.7997 3621.93 18.8176V0.100006H3618ZM3625.11 0.100006V44.1788C3625.11 45.1032 3625.97 45.912 3627.07 45.912C3628.17 45.912 3629.04 45.1032 3629.04 44.1788V0.100006H3625.11ZM3632.21 0.100006V35.4554C3632.21 36.4375 3633.14 37.1886 3634.18 37.1886C3635.28 37.1886 3636.14 36.4375 3636.14 35.4554V0.100006H3632.21ZM3639.32 0.100006V39.095C3639.32 40.0771 3640.24 40.8281 3641.28 40.8281C3642.38 40.8281 3643.25 40.0771 3643.25 39.095V0.100006H3639.32ZM3646.48 0.100006V43.1389C3646.48 44.121 3647.35 44.8721 3648.45 44.8721C3649.49 44.8721 3650.41 44.121 3650.41 43.1389V0.100006H3646.48ZM3653.59 0.100006V39.7305C3653.59 40.6548 3654.45 41.4636 3655.55 41.4636C3656.59 41.4636 3657.52 40.6548 3657.52 39.7305V0.100006H3653.59ZM3660.69 0.100006V47.0095C3660.69 47.9339 3661.56 48.7427 3662.66 48.7427C3663.76 48.7427 3664.62 47.9339 3664.62 47.0095V0.100006H3660.69ZM3522.05 0.100006V23.9014C3522.05 24.8835 3521.12 25.6345 3520.08 25.6345C3518.98 25.6345 3518.12 24.8835 3518.12 23.9014V0.100006H3522.05ZM3514.88 0.100006V37.8819C3514.88 38.864 3514.02 39.6149 3512.92 39.6149C3511.88 39.6149 3510.95 38.864 3510.95 37.8819V0.100006H3514.88ZM3507.78 0.100006V39.4994C3507.78 40.4815 3506.91 41.2325 3505.81 41.2325C3504.77 41.2325 3503.85 40.4815 3503.85 39.4994V0.100006H3507.78ZM3500.67 0.100006V47.0095C3500.67 47.9339 3499.8 48.7427 3498.71 48.7427C3497.61 48.7427 3496.74 47.9339 3496.74 47.0095V0.100006H3500.67ZM3493.56 0.100006V29.9673C3493.56 30.9494 3492.7 31.7004 3491.6 31.7004C3490.5 31.7004 3489.64 30.9494 3489.64 29.9673V0.100006H3493.56ZM3486.46 0.100006V33.0291C3486.46 33.9534 3485.53 34.7622 3484.49 34.7622C3483.4 34.7622 3482.53 33.9534 3482.53 33.0291V0.100006H3486.46ZM3479.35 0.100006V23.9014C3479.35 24.8835 3478.43 25.6345 3477.39 25.6345C3476.29 25.6345 3475.42 24.8835 3475.42 23.9014V0.100006H3479.35ZM3472.19 0.100006V15.5825C3472.19 16.5646 3471.32 17.3155 3470.23 17.3155C3469.19 17.3155 3468.26 16.5646 3468.26 15.5825V0.100006H3472.19ZM3465.08 0.100006V29.3896C3465.08 30.314 3464.22 31.1227 3463.12 31.1227C3462.08 31.1227 3461.16 30.314 3461.16 29.3896V0.100006H3465.08ZM3318.98 0.100006V23.9014C3318.98 24.8835 3319.85 25.6345 3320.95 25.6345C3321.99 25.6345 3322.91 24.8835 3322.91 23.9014V0.100006H3318.98ZM3326.09 0.100006V37.8819C3326.09 38.864 3326.95 39.6149 3328.05 39.6149C3329.09 39.6149 3330.02 38.864 3330.02 37.8819V0.100006H3326.09ZM3333.19 0.100006V39.4994C3333.19 40.4815 3334.06 41.2325 3335.16 41.2325C3336.26 41.2325 3337.12 40.4815 3337.12 39.4994V0.100006H3333.19ZM3340.3 0.100006V47.0095C3340.3 47.9339 3341.17 48.7427 3342.26 48.7427C3343.36 48.7427 3344.23 47.9339 3344.23 47.0095V0.100006H3340.3ZM3347.41 0.100006V29.9673C3347.41 30.9494 3348.33 31.7004 3349.37 31.7004C3350.47 31.7004 3351.33 30.9494 3351.33 29.9673V0.100006H3347.41ZM3354.51 0.100006V33.0291C3354.51 33.9534 3355.44 34.7622 3356.48 34.7622C3357.57 34.7622 3358.44 33.9534 3358.44 33.0291V0.100006H3354.51ZM3361.67 0.100006V23.9014C3361.67 24.8835 3362.54 25.6345 3363.64 25.6345C3364.68 25.6345 3365.6 24.8835 3365.6 23.9014V0.100006H3361.67ZM3368.78 0.100006V15.5825C3368.78 16.5646 3369.65 17.3155 3370.74 17.3155C3371.84 17.3155 3372.71 16.5646 3372.71 15.5825V0.100006H3368.78ZM3375.89 0.100006V29.3896C3375.89 30.314 3376.75 31.1227 3377.85 31.1227C3378.95 31.1227 3379.81 30.314 3379.81 29.3896V0.100006H3375.89ZM3382.99 0.100006V31.4115C3382.99 32.3359 3383.86 33.1447 3384.96 33.1447C3386.05 33.1447 3386.92 32.3359 3386.92 31.4115V0.100006H3382.99ZM3390.1 0.100006V33.6068C3390.1 34.5889 3391.02 35.34 3392.06 35.34C3393.16 35.34 3394.03 34.5889 3394.03 33.6068V0.100006H3390.1ZM3397.26 0.100006V35.4554C3397.26 36.4375 3398.13 37.1886 3399.23 37.1886C3400.27 37.1886 3401.19 36.4375 3401.19 35.4554V0.100006H3397.26ZM3404.37 0.100006V23.497C3404.37 24.4791 3405.23 25.2302 3406.33 25.2302C3407.37 25.2302 3408.3 24.4791 3408.3 23.497V0.100006H3404.37ZM3411.47 0.100006V18.8176C3411.47 19.7997 3412.34 20.5508 3413.44 20.5508C3414.53 20.5508 3415.4 19.7997 3415.4 18.8176V0.100006H3411.47ZM3418.58 0.100006V44.1788C3418.58 45.1032 3419.45 45.912 3420.54 45.912C3421.64 45.912 3422.51 45.1032 3422.51 44.1788V0.100006H3418.58ZM3425.68 0.100006V35.4554C3425.68 36.4375 3426.55 37.1886 3427.65 37.1886C3428.75 37.1886 3429.61 36.4375 3429.61 35.4554V0.100006H3425.68ZM3432.79 0.100006V39.095C3432.79 40.0771 3433.71 40.8281 3434.75 40.8281C3435.85 40.8281 3436.72 40.0771 3436.72 39.095V0.100006H3432.79ZM3439.95 0.100006V43.1389C3439.95 44.121 3440.82 44.8721 3441.92 44.8721C3442.96 44.8721 3443.88 44.121 3443.88 43.1389V0.100006H3439.95ZM3447.06 0.100006V39.7305C3447.06 40.6548 3447.93 41.4636 3449.02 41.4636C3450.06 41.4636 3450.99 40.6548 3450.99 39.7305V0.100006H3447.06ZM3454.17 0.100006V47.0095C3454.17 47.9339 3455.03 48.7427 3456.13 48.7427C3457.23 48.7427 3458.09 47.9339 3458.09 47.0095V0.100006H3454.17ZM3315.52 0.100006V23.9014C3315.52 24.8835 3314.59 25.6345 3313.55 25.6345C3312.45 25.6345 3311.59 24.8835 3311.59 23.9014V0.100006H3315.52ZM3308.35 0.100006V37.8819C3308.35 38.864 3307.49 39.6149 3306.39 39.6149C3305.35 39.6149 3304.42 38.864 3304.42 37.8819V0.100006H3308.35ZM3301.25 0.100006V39.4994C3301.25 40.4815 3300.38 41.2325 3299.28 41.2325C3298.24 41.2325 3297.32 40.4815 3297.32 39.4994V0.100006H3301.25ZM3294.14 0.100006V47.0095C3294.14 47.9339 3293.27 48.7427 3292.18 48.7427C3291.08 48.7427 3290.21 47.9339 3290.21 47.0095V0.100006H3294.14ZM3287.04 0.100006V29.9673C3287.04 30.9494 3286.17 31.7004 3285.07 31.7004C3283.97 31.7004 3283.11 30.9494 3283.11 29.9673V0.100006H3287.04ZM3279.93 0.100006V33.0291C3279.93 33.9534 3279.01 34.7622 3277.97 34.7622C3276.87 34.7622 3276 33.9534 3276 33.0291V0.100006H3279.93ZM3272.82 0.100006V23.9014C3272.82 24.8835 3271.9 25.6345 3270.86 25.6345C3269.76 25.6345 3268.9 24.8835 3268.9 23.9014V0.100006H3272.82ZM3265.66 0.100006V15.5825C3265.66 16.5646 3264.79 17.3155 3263.7 17.3155C3262.66 17.3155 3261.73 16.5646 3261.73 15.5825V0.100006H3265.66ZM3258.55 0.100006V29.3896C3258.55 30.314 3257.69 31.1227 3256.59 31.1227C3255.55 31.1227 3254.63 30.314 3254.63 29.3896V0.100006H3258.55ZM3251.45 0.100006V31.4115C3251.45 32.3359 3250.58 33.1447 3249.48 33.1447C3248.39 33.1447 3247.52 32.3359 3247.52 31.4115V0.100006H3251.45ZM3244.34 0.100006V33.6068C3244.34 34.5889 3243.48 35.34 3242.38 35.34C3241.28 35.34 3240.41 34.5889 3240.41 33.6068V0.100006H3244.34ZM3237.24 0.100006V35.4554C3237.24 36.4375 3236.31 37.1886 3235.27 37.1886C3234.18 37.1886 3233.31 36.4375 3233.31 35.4554V0.100006H3237.24ZM3230.13 0.100006V23.497C3230.13 24.4791 3229.21 25.2302 3228.17 25.2302C3227.07 25.2302 3226.2 24.4791 3226.2 23.497V0.100006H3230.13ZM3222.97 0.100006V18.8176C3222.97 19.7997 3222.1 20.5508 3221 20.5508C3219.96 20.5508 3219.04 19.7997 3219.04 18.8176V0.100006H3222.97ZM3215.86 0.100006V44.1788C3215.86 45.1032 3215 45.912 3213.9 45.912C3212.8 45.912 3211.93 45.1032 3211.93 44.1788V0.100006H3215.86ZM3208.76 0.100006V35.4554C3208.76 36.4375 3207.89 37.1886 3206.79 37.1886C3205.69 37.1886 3204.83 36.4375 3204.83 35.4554V0.100006H3208.76ZM3201.65 0.100006V39.095C3201.65 40.0771 3200.78 40.8281 3199.69 40.8281C3198.59 40.8281 3197.72 40.0771 3197.72 39.095V0.100006H3201.65ZM3194.54 0.100006V43.1389C3194.54 44.121 3193.62 44.8721 3192.58 44.8721C3191.48 44.8721 3190.62 44.121 3190.62 43.1389V0.100006H3194.54ZM3187.44 0.100006V39.7305C3187.44 40.6548 3186.51 41.4636 3185.42 41.4636C3184.38 41.4636 3183.45 40.6548 3183.45 39.7305V0.100006H3187.44ZM4031 0.100006V47.0095C4031 47.9339 4031.87 48.7427 4032.96 48.7427C4034.06 48.7427 4034.93 47.9339 4034.93 47.0095V0.100006H4031ZM4023.89 0.100006V39.4994C4023.89 40.4815 4024.76 41.2325 4025.86 41.2325C4026.96 41.2325 4027.82 40.4815 4027.82 39.4994V0.100006H4023.89ZM4016.79 0.100006V37.8819C4016.79 38.864 4017.65 39.6149 4018.75 39.6149C4019.79 39.6149 4020.72 38.864 4020.72 37.8819V0.100006H4016.79ZM4009.62 0.100006V23.9014C4009.62 24.8835 4010.55 25.6345 4011.65 25.6345C4012.69 25.6345 4013.61 24.8835 4013.61 23.9014V0.100006H4009.62ZM3870.98 0.100006V47.0095C3870.98 47.9339 3870.11 48.7427 3869.01 48.7427C3867.97 48.7427 3867.05 47.9339 3867.05 47.0095V0.100006H3870.98ZM3878.08 0.100006V39.7305C3878.08 40.6548 3877.21 41.4636 3876.12 41.4636C3875.08 41.4636 3874.15 40.6548 3874.15 39.7305V0.100006H3878.08ZM3885.24 0.100006V43.1389C3885.24 44.121 3884.32 44.8721 3883.28 44.8721C3882.18 44.8721 3881.32 44.121 3881.32 43.1389V0.100006H3885.24ZM3892.35 0.100006V39.095C3892.35 40.0771 3891.43 40.8281 3890.39 40.8281C3889.29 40.8281 3888.42 40.0771 3888.42 39.095V0.100006H3892.35ZM3899.46 0.100006V35.4554C3899.46 36.4375 3898.59 37.1886 3897.49 37.1886C3896.39 37.1886 3895.53 36.4375 3895.53 35.4554V0.100006H3899.46ZM3906.56 0.100006V44.1788C3906.56 45.1032 3905.69 45.912 3904.6 45.912C3903.5 45.912 3902.63 45.1032 3902.63 44.1788V0.100006H3906.56ZM3913.67 0.100006V18.8176C3913.67 19.7997 3912.8 20.5508 3911.7 20.5508C3910.66 20.5508 3909.74 19.7997 3909.74 18.8176V0.100006H3913.67ZM3920.77 0.100006V23.497C3920.77 24.4791 3919.91 25.2302 3918.81 25.2302C3917.77 25.2302 3916.84 24.4791 3916.84 23.497V0.100006H3920.77ZM3927.94 0.100006V35.4554C3927.94 36.4375 3927.01 37.1886 3925.97 37.1886C3924.87 37.1886 3924.01 36.4375 3924.01 35.4554V0.100006H3927.94ZM3935.04 0.100006V33.6068C3935.04 34.5889 3934.12 35.34 3933.08 35.34C3931.98 35.34 3931.11 34.5889 3931.11 33.6068V0.100006H3935.04ZM3942.15 0.100006V31.4115C3942.15 32.3359 3941.28 33.1447 3940.18 33.1447C3939.09 33.1447 3938.22 32.3359 3938.22 31.4115V0.100006H3942.15ZM3949.25 0.100006V29.3896C3949.25 30.314 3948.39 31.1227 3947.29 31.1227C3946.19 31.1227 3945.33 30.314 3945.33 29.3896V0.100006H3949.25ZM3956.36 0.100006V15.5825C3956.36 16.5646 3955.49 17.3155 3954.4 17.3155C3953.36 17.3155 3952.43 16.5646 3952.43 15.5825V0.100006H3956.36ZM3963.47 0.100006V23.9014C3963.47 24.8835 3962.6 25.6345 3961.5 25.6345C3960.46 25.6345 3959.54 24.8835 3959.54 23.9014V0.100006H3963.47ZM3970.63 0.100006V33.0291C3970.63 33.9534 3969.7 34.7622 3968.66 34.7622C3967.57 34.7622 3966.7 33.9534 3966.7 33.0291V0.100006H3970.63ZM3977.73 0.100006V29.9673C3977.73 30.9494 3976.87 31.7004 3975.77 31.7004C3974.67 31.7004 3973.81 30.9494 3973.81 29.9673V0.100006H3977.73ZM3984.84 0.100006V47.0095C3984.84 47.9339 3983.97 48.7427 3982.88 48.7427C3981.78 48.7427 3980.91 47.9339 3980.91 47.0095V0.100006H3984.84ZM3991.95 0.100006V39.4994C3991.95 40.4815 3991.08 41.2325 3989.98 41.2325C3988.88 41.2325 3988.02 40.4815 3988.02 39.4994V0.100006H3991.95ZM3999.05 0.100006V37.8819C3999.05 38.864 3998.19 39.6149 3997.09 39.6149C3996.05 39.6149 3995.12 38.864 3995.12 37.8819V0.100006H3999.05ZM4006.22 0.100006V23.9014C4006.22 24.8835 4005.29 25.6345 4004.25 25.6345C4003.15 25.6345 4002.29 24.8835 4002.29 23.9014V0.100006H4006.22ZM3860.06 0.100006V29.3896C3860.06 30.314 3860.92 31.1227 3862.02 31.1227C3863.12 31.1227 3863.98 30.314 3863.98 29.3896V0.100006H3860.06ZM3852.95 0.100006V15.5825C3852.95 16.5646 3853.82 17.3155 3854.91 17.3155C3855.95 17.3155 3856.88 16.5646 3856.88 15.5825V0.100006H3852.95ZM3845.84 0.100006V23.9014C3845.84 24.8835 3846.71 25.6345 3847.81 25.6345C3848.85 25.6345 3849.77 24.8835 3849.77 23.9014V0.100006H3845.84ZM3838.68 0.100006V33.0291C3838.68 33.9534 3839.61 34.7622 3840.65 34.7622C3841.74 34.7622 3842.61 33.9534 3842.61 33.0291V0.100006H3838.68ZM3831.58 0.100006V29.9673C3831.58 30.9494 3832.44 31.7004 3833.54 31.7004C3834.64 31.7004 3835.5 30.9494 3835.5 29.9673V0.100006H3831.58ZM3824.47 0.100006V47.0095C3824.47 47.9339 3825.34 48.7427 3826.43 48.7427C3827.53 48.7427 3828.4 47.9339 3828.4 47.0095V0.100006H3824.47ZM3817.36 0.100006V39.4994C3817.36 40.4815 3818.23 41.2325 3819.33 41.2325C3820.43 41.2325 3821.29 40.4815 3821.29 39.4994V0.100006H3817.36ZM3810.26 0.100006V37.8819C3810.26 38.864 3811.12 39.6149 3812.22 39.6149C3813.26 39.6149 3814.19 38.864 3814.19 37.8819V0.100006H3810.26ZM3803.09 0.100006V23.9014C3803.09 24.8835 3804.02 25.6345 3805.06 25.6345C3806.16 25.6345 3807.02 24.8835 3807.02 23.9014V0.100006H3803.09ZM3671.56 0.100006V39.7305C3671.56 40.6548 3670.69 41.4636 3669.59 41.4636C3668.55 41.4636 3667.63 40.6548 3667.63 39.7305V0.100006H3671.56ZM3678.72 0.100006V43.1389C3678.72 44.121 3677.79 44.8721 3676.75 44.8721C3675.66 44.8721 3674.79 44.121 3674.79 43.1389V0.100006H3678.72ZM3685.82 0.100006V39.095C3685.82 40.0771 3684.9 40.8281 3683.86 40.8281C3682.76 40.8281 3681.9 40.0771 3681.9 39.095V0.100006H3685.82ZM3692.93 0.100006V35.4554C3692.93 36.4375 3692.06 37.1886 3690.97 37.1886C3689.87 37.1886 3689 36.4375 3689 35.4554V0.100006H3692.93ZM3700.03 0.100006V44.1788C3700.03 45.1032 3699.17 45.912 3698.07 45.912C3696.97 45.912 3696.1 45.1032 3696.1 44.1788V0.100006H3700.03ZM3707.14 0.100006V18.8176C3707.14 19.7997 3706.27 20.5508 3705.17 20.5508C3704.13 20.5508 3703.21 19.7997 3703.21 18.8176V0.100006H3707.14ZM3714.24 0.100006V23.497C3714.24 24.4791 3713.38 25.2302 3712.28 25.2302C3711.24 25.2302 3710.32 24.4791 3710.32 23.497V0.100006H3714.24ZM3721.41 0.100006V35.4554C3721.41 36.4375 3720.48 37.1886 3719.44 37.1886C3718.35 37.1886 3717.48 36.4375 3717.48 35.4554V0.100006H3721.41ZM3728.51 0.100006V33.6068C3728.51 34.5889 3727.59 35.34 3726.55 35.34C3725.45 35.34 3724.58 34.5889 3724.58 33.6068V0.100006H3728.51ZM3735.62 0.100006V31.4115C3735.62 32.3359 3734.75 33.1447 3733.65 33.1447C3732.56 33.1447 3731.69 32.3359 3731.69 31.4115V0.100006H3735.62ZM3742.72 0.100006V29.3896C3742.72 30.314 3741.86 31.1227 3740.76 31.1227C3739.66 31.1227 3738.8 30.314 3738.8 29.3896V0.100006H3742.72ZM3749.83 0.100006V15.5825C3749.83 16.5646 3748.96 17.3155 3747.87 17.3155C3746.83 17.3155 3745.9 16.5646 3745.9 15.5825V0.100006H3749.83ZM3756.94 0.100006V23.9014C3756.94 24.8835 3756.07 25.6345 3754.97 25.6345C3753.93 25.6345 3753.01 24.8835 3753.01 23.9014V0.100006H3756.94ZM3764.1 0.100006V33.0291C3764.1 33.9534 3763.18 34.7622 3762.14 34.7622C3761.04 34.7622 3760.17 33.9534 3760.17 33.0291V0.100006H3764.1ZM3771.21 0.100006V29.9673C3771.21 30.9494 3770.28 31.7004 3769.24 31.7004C3768.14 31.7004 3767.28 30.9494 3767.28 29.9673V0.100006H3771.21ZM3778.31 0.100006V47.0095C3778.31 47.9339 3777.44 48.7427 3776.35 48.7427C3775.25 48.7427 3774.38 47.9339 3774.38 47.0095V0.100006H3778.31ZM3785.42 0.100006V39.4994C3785.42 40.4815 3784.55 41.2325 3783.45 41.2325C3782.36 41.2325 3781.49 40.4815 3781.49 39.4994V0.100006H3785.42ZM3792.52 0.100006V37.8819C3792.52 38.864 3791.66 39.6149 3790.56 39.6149C3789.52 39.6149 3788.59 38.864 3788.59 37.8819V0.100006H3792.52ZM3799.69 0.100006V23.9014C3799.69 24.8835 3798.76 25.6345 3797.72 25.6345C3796.62 25.6345 3795.7 24.8835 3795.7 23.9014V0.100006H3799.69Z" fill="#CFCFCF"/>
</svg>
