<svg width="1344" height="49" viewBox="0 0 1344 49" fill="none" xmlns="http://www.w3.org/2000/svg">
<path fill-rule="evenodd" clip-rule="evenodd" d="M489.032 0.17749V47.087C489.032 48.0114 488.165 48.8202 487.068 48.8202C486.028 48.8202 485.104 48.0114 485.104 47.087V0.17749H489.032ZM139.868 0.17749V23.9789C139.868 24.961 139.001 25.712 137.904 25.712C136.806 25.712 135.939 24.961 135.939 23.9789V0.17749H139.868ZM132.762 0.17749V37.9594C132.762 38.9415 131.838 39.6924 130.798 39.6924C129.7 39.6924 128.834 38.9415 128.834 37.9594V0.17749H132.762ZM125.598 0.17749V39.5769C125.598 40.559 124.732 41.31 123.634 41.31C122.594 41.31 121.67 40.559 121.67 39.5769V0.17749H125.598ZM118.493 0.17749V47.087C118.493 48.0114 117.626 48.8202 116.528 48.8202C115.489 48.8202 114.564 48.0114 114.564 47.087V0.17749H118.493ZM111.387 0.17749V30.0448C111.387 31.0269 110.52 31.7779 109.423 31.7779C108.325 31.7779 107.459 31.0269 107.459 30.0448V0.17749H111.387ZM104.281 0.17749V33.1066C104.281 34.0309 103.415 34.8397 102.317 34.8397C101.219 34.8397 100.353 34.0309 100.353 33.1066V0.17749H104.281ZM97.1754 0.17749V23.9789C97.1754 24.961 96.3088 25.712 95.2112 25.712C94.1136 25.712 93.247 24.961 93.247 23.9789V0.17749H97.1754ZM90.0696 0.17749V15.66C90.0696 16.6421 89.1453 17.393 88.1054 17.393C87.0078 17.393 86.1413 16.6421 86.1413 15.66V0.17749H90.0696ZM82.9061 0.17749V29.4671C82.9061 30.3915 82.0396 31.2002 80.9419 31.2002C79.902 31.2002 78.9777 30.3915 78.9777 29.4671V0.17749H82.9061ZM75.8004 0.17749V31.489C75.8004 32.4134 74.9338 33.2222 73.8362 33.2222C72.7963 33.2222 71.872 32.4134 71.872 31.489V0.17749H75.8004ZM68.6946 0.17749V33.6843C68.6946 34.6664 67.828 35.4175 66.7304 35.4175C65.6328 35.4175 64.7662 34.6664 64.7662 33.6843V0.17749H68.6946ZM61.5888 0.17749V35.5329C61.5888 36.515 60.7223 37.2661 59.6246 37.2661C58.527 37.2661 57.6604 36.515 57.6604 35.5329V0.17749H61.5888ZM54.4831 0.17749V23.5745C54.4831 24.5566 53.5587 25.3077 52.5189 25.3077C51.4212 25.3077 50.5547 24.5566 50.5547 23.5745V0.17749H54.4831ZM47.3773 0.17749V18.8951C47.3773 19.8772 46.453 20.6283 45.4131 20.6283C44.3155 20.6283 43.4489 19.8772 43.4489 18.8951V0.17749H47.3773ZM40.2138 0.17749V44.2563C40.2138 45.1807 39.3472 45.9895 38.2496 45.9895C37.2097 45.9895 36.2854 45.1807 36.2854 44.2563V0.17749H40.2138ZM33.108 0.17749V35.5329C33.108 36.515 32.2415 37.2661 31.1438 37.2661C30.104 37.2661 29.1796 36.515 29.1796 35.5329V0.17749H33.108ZM26.0023 0.17749V39.1725C26.0023 40.1546 25.1357 40.9056 24.0381 40.9056C22.9404 40.9056 22.0739 40.1546 22.0739 39.1725V0.17749H26.0023ZM18.8965 0.17749V43.2164C18.8965 44.1985 18.0299 44.9496 16.9323 44.9496C15.8347 44.9496 14.9681 44.1985 14.9681 43.2164V0.17749H18.8965V0.17749ZM11.7907 0.17749V39.808C11.7907 40.7323 10.8664 41.5411 9.82654 41.5411C8.72891 41.5411 7.86235 40.7323 7.86235 39.808V0.17749H11.7907ZM4.68498 0.17749V47.087C4.68498 48.0114 3.76065 48.8202 2.72079 48.8202C1.62315 48.8202 0.756592 48.0114 0.756592 47.087V0.17749H4.68498ZM143.334 0.17749V23.9789C143.334 24.961 144.2 25.712 145.298 25.712C146.396 25.712 147.262 24.961 147.262 23.9789V0.17749H143.334ZM150.44 0.17749V37.9594C150.44 38.9415 151.306 39.6924 152.404 39.6924C153.502 39.6924 154.368 38.9415 154.368 37.9594V0.17749H150.44ZM157.545 0.17749V39.5769C157.545 40.559 158.412 41.31 159.51 41.31C160.607 41.31 161.474 40.559 161.474 39.5769V0.17749H157.545ZM164.651 0.17749V47.087C164.651 48.0114 165.576 48.8202 166.615 48.8202C167.713 48.8202 168.58 48.0114 168.58 47.087V0.17749H164.651ZM171.815 0.17749V30.0448C171.815 31.0269 172.681 31.7779 173.779 31.7779C174.819 31.7779 175.743 31.0269 175.743 30.0448V0.17749H171.815ZM178.921 0.17749V33.1066C178.921 34.0309 179.787 34.8397 180.885 34.8397C181.925 34.8397 182.849 34.0309 182.849 33.1066V0.17749H178.921V0.17749ZM186.026 0.17749V23.9789C186.026 24.961 186.893 25.712 187.99 25.712C189.088 25.712 189.955 24.961 189.955 23.9789V0.17749H186.026V0.17749ZM193.132 0.17749V15.66C193.132 16.6421 193.999 17.393 195.096 17.393C196.194 17.393 197.06 16.6421 197.06 15.66V0.17749H193.132V0.17749ZM200.238 0.17749V29.4671C200.238 30.3915 201.162 31.2002 202.202 31.2002C203.3 31.2002 204.166 30.3915 204.166 29.4671V0.17749H200.238V0.17749ZM346.397 0.17749V23.9789C346.397 24.961 345.53 25.712 344.433 25.712C343.335 25.712 342.469 24.961 342.469 23.9789V0.17749H346.397V0.17749ZM339.291 0.17749V37.9594C339.291 38.9415 338.367 39.6924 337.327 39.6924C336.229 39.6924 335.363 38.9415 335.363 37.9594V0.17749H339.291V0.17749ZM332.185 0.17749V39.5769C332.185 40.559 331.261 41.31 330.221 41.31C329.124 41.31 328.199 40.559 328.199 39.5769V0.17749H332.185V0.17749ZM325.022 0.17749V47.087C325.022 48.0114 324.155 48.8202 323.058 48.8202C322.018 48.8202 321.093 48.0114 321.093 47.087V0.17749H325.022V0.17749ZM317.916 0.17749V30.0448C317.916 31.0269 317.05 31.7779 315.952 31.7779C314.854 31.7779 313.988 31.0269 313.988 30.0448V0.17749H317.916V0.17749ZM310.81 0.17749V33.1066C310.81 34.0309 309.944 34.8397 308.846 34.8397C307.749 34.8397 306.882 34.0309 306.882 33.1066V0.17749H310.81V0.17749ZM303.705 0.17749V23.9789C303.705 24.961 302.838 25.712 301.74 25.712C300.643 25.712 299.776 24.961 299.776 23.9789V0.17749H303.705V0.17749ZM296.599 0.17749V15.66C296.599 16.6421 295.675 17.393 294.635 17.393C293.537 17.393 292.67 16.6421 292.67 15.66V0.17749H296.599V0.17749ZM289.435 0.17749V29.4671C289.435 30.3915 288.569 31.2002 287.471 31.2002C286.431 31.2002 285.507 30.3915 285.507 29.4671V0.17749H289.435V0.17749ZM282.33 0.17749V31.489C282.33 32.4134 281.463 33.2222 280.365 33.2222C279.325 33.2222 278.401 32.4134 278.401 31.489V0.17749H282.33V0.17749ZM275.224 0.17749V33.6843C275.224 34.6664 274.357 35.4175 273.26 35.4175C272.162 35.4175 271.295 34.6664 271.295 33.6843V0.17749H275.224V0.17749ZM268.118 0.17749V35.5329C268.118 36.515 267.251 37.2661 266.154 37.2661C265.056 37.2661 264.19 36.515 264.19 35.5329V0.17749H268.118V0.17749ZM261.012 0.17749V23.5745C261.012 24.5566 260.088 25.3077 259.048 25.3077C257.95 25.3077 257.084 24.5566 257.084 23.5745V0.17749H261.012V0.17749ZM253.907 0.17749V18.8951C253.907 19.8772 252.982 20.6283 251.942 20.6283C250.845 20.6283 249.978 19.8772 249.978 18.8951V0.17749H253.907V0.17749ZM246.743 0.17749V44.2563C246.743 45.1807 245.876 45.9895 244.779 45.9895C243.739 45.9895 242.815 45.1807 242.815 44.2563V0.17749H246.743V0.17749ZM239.637 0.17749V35.5329C239.637 36.515 238.771 37.2661 237.673 37.2661C236.633 37.2661 235.709 36.515 235.709 35.5329V0.17749H239.637V0.17749ZM232.531 0.17749V39.1725C232.531 40.1546 231.665 40.9056 230.567 40.9056C229.47 40.9056 228.603 40.1546 228.603 39.1725V0.17749H232.531V0.17749ZM225.426 0.17749V43.2164C225.426 44.1985 224.559 44.9496 223.462 44.9496C222.364 44.9496 221.497 44.1985 221.497 43.2164V0.17749H225.426V0.17749ZM218.32 0.17749V39.808C218.32 40.7323 217.396 41.5411 216.356 41.5411C215.258 41.5411 214.392 40.7323 214.392 39.808V0.17749H218.32V0.17749ZM211.214 0.17749V47.087C211.214 48.0114 210.29 48.8202 209.25 48.8202C208.152 48.8202 207.286 48.0114 207.286 47.087V0.17749H211.214V0.17749ZM349.863 0.17749V23.9789C349.863 24.961 350.73 25.712 351.827 25.712C352.925 25.712 353.792 24.961 353.792 23.9789V0.17749H349.863V0.17749ZM356.969 0.17749V37.9594C356.969 38.9415 357.835 39.6924 358.933 39.6924C360.031 39.6924 360.897 38.9415 360.897 37.9594V0.17749H356.969V0.17749ZM364.075 0.17749V39.5769C364.075 40.559 364.941 41.31 366.039 41.31C367.136 41.31 368.003 40.559 368.003 39.5769V0.17749H364.075ZM371.18 0.17749V47.087C371.18 48.0114 372.105 48.8202 373.145 48.8202C374.242 48.8202 375.109 48.0114 375.109 47.087V0.17749H371.18ZM378.344 0.17749V30.0448C378.344 31.0269 379.21 31.7779 380.308 31.7779C381.348 31.7779 382.272 31.0269 382.272 30.0448V0.17749H378.344ZM385.45 0.17749V33.1066C385.45 34.0309 386.316 34.8397 387.414 34.8397C388.454 34.8397 389.378 34.0309 389.378 33.1066V0.17749H385.45ZM392.555 0.17749V23.9789C392.555 24.961 393.422 25.712 394.52 25.712C395.617 25.712 396.484 24.961 396.484 23.9789V0.17749H392.555ZM399.661 0.17749V15.66C399.661 16.6421 400.528 17.393 401.625 17.393C402.723 17.393 403.59 16.6421 403.59 15.66V0.17749H399.661ZM406.767 0.17749V29.4671C406.767 30.3915 407.691 31.2002 408.731 31.2002C409.829 31.2002 410.695 30.3915 410.695 29.4671V0.17749H406.767ZM413.873 0.17749V31.489C413.873 32.4134 414.797 33.2222 415.837 33.2222C416.935 33.2222 417.801 32.4134 417.801 31.489V0.17749H413.873ZM421.036 0.17749V33.6843C421.036 34.6664 421.903 35.4175 423 35.4175C424.04 35.4175 424.965 34.6664 424.965 33.6843V0.17749H421.036ZM428.142 0.17749V35.5329C428.142 36.515 429.009 37.2661 430.106 37.2661C431.146 37.2661 432.07 36.515 432.07 35.5329V0.17749H428.142ZM435.248 0.17749V23.5745C435.248 24.5566 436.114 25.3077 437.212 25.3077C438.31 25.3077 439.176 24.5566 439.176 23.5745V0.17749H435.248ZM442.354 0.17749V18.8951C442.354 19.8772 443.22 20.6283 444.318 20.6283C445.415 20.6283 446.282 19.8772 446.282 18.8951V0.17749H442.354ZM449.459 0.17749V44.2563C449.459 45.1807 450.384 45.9895 451.423 45.9895C452.521 45.9895 453.388 45.1807 453.388 44.2563V0.17749H449.459ZM456.565 0.17749V35.5329C456.565 36.515 457.489 37.2661 458.529 37.2661C459.627 37.2661 460.493 36.515 460.493 35.5329V0.17749H456.565ZM463.729 0.17749V39.1725C463.729 40.1546 464.595 40.9056 465.693 40.9056C466.733 40.9056 467.657 40.1546 467.657 39.1725V0.17749H463.729ZM470.834 0.17749V43.2164C470.834 44.1985 471.701 44.9496 472.799 44.9496C473.838 44.9496 474.763 44.1985 474.763 43.2164V0.17749H470.834ZM477.94 0.17749V39.808C477.94 40.7323 478.807 41.5411 479.904 41.5411C481.002 41.5411 481.869 40.7323 481.869 39.808V0.17749H477.94ZM834.268 0.17749V23.9789C834.268 24.961 835.135 25.712 836.232 25.712C837.272 25.712 838.196 24.961 838.196 23.9789V0.17749H834.268ZM841.374 0.17749V37.9594C841.374 38.9415 842.24 39.6924 843.338 39.6924C844.378 39.6924 845.302 38.9415 845.302 37.9594V0.17749H841.374ZM848.479 0.17749V39.5769C848.479 40.559 849.346 41.31 850.444 41.31C851.541 41.31 852.408 40.559 852.408 39.5769V0.17749H848.479ZM855.585 0.17749V47.087C855.585 48.0114 856.452 48.8202 857.549 48.8202C858.647 48.8202 859.514 48.0114 859.514 47.087V0.17749H855.585ZM862.691 0.17749V30.0448C862.691 31.0269 863.615 31.7779 864.655 31.7779C865.753 31.7779 866.619 31.0269 866.619 30.0448V0.17749H862.691ZM869.797 0.17749V33.1066C869.797 34.0309 870.721 34.8397 871.761 34.8397C872.859 34.8397 873.725 34.0309 873.725 33.1066V0.17749H869.797ZM876.96 0.17749V23.9789C876.96 24.961 877.827 25.712 878.924 25.712C879.964 25.712 880.889 24.961 880.889 23.9789V0.17749H876.96ZM884.066 0.17749V15.66C884.066 16.6421 884.933 17.393 886.03 17.393C887.128 17.393 887.994 16.6421 887.994 15.66V0.17749H884.066ZM891.172 0.17749V29.4671C891.172 30.3915 892.038 31.2002 893.136 31.2002C894.234 31.2002 895.1 30.3915 895.1 29.4671V0.17749H891.172ZM898.278 0.17749V31.489C898.278 32.4134 899.144 33.2222 900.242 33.2222C901.339 33.2222 902.206 32.4134 902.206 31.489V0.17749H898.278ZM905.383 0.17749V33.6843C905.383 34.6664 906.308 35.4175 907.348 35.4175C908.445 35.4175 909.312 34.6664 909.312 33.6843V0.17749H905.383ZM912.547 0.17749V35.5329C912.547 36.515 913.413 37.2661 914.511 37.2661C915.551 37.2661 916.475 36.515 916.475 35.5329V0.17749H912.547ZM919.653 0.17749V23.5745C919.653 24.5566 920.519 25.3077 921.617 25.3077C922.657 25.3077 923.581 24.5566 923.581 23.5745V0.17749H919.653ZM926.758 0.17749V18.8951C926.758 19.8772 927.625 20.6283 928.723 20.6283C929.82 20.6283 930.687 19.8772 930.687 18.8951V0.17749H926.758ZM933.864 0.17749V44.2563C933.864 45.1807 934.731 45.9895 935.828 45.9895C936.926 45.9895 937.793 45.1807 937.793 44.2563V0.17749H933.864ZM940.97 0.17749V35.5329C940.97 36.515 941.894 37.2661 942.934 37.2661C944.032 37.2661 944.898 36.515 944.898 35.5329V0.17749H940.97ZM948.076 0.17749V39.1725C948.076 40.1546 949 40.9056 950.04 40.9056C951.137 40.9056 952.004 40.1546 952.004 39.1725V0.17749H948.076ZM955.239 0.17749V43.2164C955.239 44.1985 956.106 44.9496 957.203 44.9496C958.243 44.9496 959.168 44.1985 959.168 43.2164V0.17749H955.239ZM962.345 0.17749V39.808C962.345 40.7323 963.211 41.5411 964.309 41.5411C965.349 41.5411 966.273 40.7323 966.273 39.808V0.17749H962.345ZM969.451 0.17749V47.087C969.451 48.0114 970.317 48.8202 971.415 48.8202C972.513 48.8202 973.379 48.0114 973.379 47.087V0.17749H969.451ZM830.802 0.17749V23.9789C830.802 24.961 829.877 25.712 828.838 25.712C827.74 25.712 826.873 24.961 826.873 23.9789V0.17749H830.802ZM823.638 0.17749V37.9594C823.638 38.9415 822.772 39.6924 821.674 39.6924C820.634 39.6924 819.71 38.9415 819.71 37.9594V0.17749H823.638ZM816.532 0.17749V39.5769C816.532 40.559 815.666 41.31 814.568 41.31C813.528 41.31 812.604 40.559 812.604 39.5769V0.17749H816.532ZM809.427 0.17749V47.087C809.427 48.0114 808.56 48.8202 807.463 48.8202C806.365 48.8202 805.498 48.0114 805.498 47.087V0.17749H809.427ZM802.321 0.17749V30.0448C802.321 31.0269 801.454 31.7779 800.357 31.7779C799.259 31.7779 798.393 31.0269 798.393 30.0448V0.17749H802.321ZM795.215 0.17749V33.1066C795.215 34.0309 794.291 34.8397 793.251 34.8397C792.153 34.8397 791.287 34.0309 791.287 33.1066V0.17749H795.215ZM788.109 0.17749V23.9789C788.109 24.961 787.185 25.712 786.145 25.712C785.048 25.712 784.181 24.961 784.181 23.9789V0.17749H788.109ZM780.946 0.17749V15.66C780.946 16.6421 780.079 17.393 778.982 17.393C777.942 17.393 777.017 16.6421 777.017 15.66V0.17749H780.946ZM773.84 0.17749V29.4671C773.84 30.3915 772.974 31.2002 771.876 31.2002C770.836 31.2002 769.912 30.3915 769.912 29.4671V0.17749H773.84ZM627.739 0.17749V23.9789C627.739 24.961 628.605 25.712 629.703 25.712C630.743 25.712 631.667 24.961 631.667 23.9789V0.17749H627.739ZM634.845 0.17749V37.9594C634.845 38.9415 635.711 39.6924 636.809 39.6924C637.849 39.6924 638.773 38.9415 638.773 37.9594V0.17749H634.845ZM641.95 0.17749V39.5769C641.95 40.559 642.817 41.31 643.914 41.31C645.012 41.31 645.879 40.559 645.879 39.5769V0.17749H641.95ZM649.056 0.17749V47.087C649.056 48.0114 649.923 48.8202 651.02 48.8202C652.118 48.8202 652.984 48.0114 652.984 47.087V0.17749H649.056ZM656.162 0.17749V30.0448C656.162 31.0269 657.086 31.7779 658.126 31.7779C659.224 31.7779 660.09 31.0269 660.09 30.0448V0.17749H656.162ZM663.268 0.17749V33.1066C663.268 34.0309 664.192 34.8397 665.232 34.8397C666.329 34.8397 667.196 34.0309 667.196 33.1066V0.17749H663.268ZM670.431 0.17749V23.9789C670.431 24.961 671.298 25.712 672.395 25.712C673.435 25.712 674.36 24.961 674.36 23.9789V0.17749H670.431ZM677.537 0.17749V15.66C677.537 16.6421 678.403 17.393 679.501 17.393C680.599 17.393 681.465 16.6421 681.465 15.66V0.17749H677.537ZM684.643 0.17749V29.4671C684.643 30.3915 685.509 31.2002 686.607 31.2002C687.704 31.2002 688.571 30.3915 688.571 29.4671V0.17749H684.643ZM691.748 0.17749V31.489C691.748 32.4134 692.615 33.2222 693.713 33.2222C694.81 33.2222 695.677 32.4134 695.677 31.489V0.17749H691.748ZM698.854 0.17749V33.6843C698.854 34.6664 699.778 35.4175 700.818 35.4175C701.916 35.4175 702.783 34.6664 702.783 33.6843V0.17749H698.854ZM706.018 0.17749V35.5329C706.018 36.515 706.884 37.2661 707.982 37.2661C709.022 37.2661 709.946 36.515 709.946 35.5329V0.17749H706.018ZM713.123 0.17749V23.5745C713.123 24.5566 713.99 25.3077 715.088 25.3077C716.127 25.3077 717.052 24.5566 717.052 23.5745V0.17749H713.123ZM720.229 0.17749V18.8951C720.229 19.8772 721.096 20.6283 722.193 20.6283C723.291 20.6283 724.158 19.8772 724.158 18.8951V0.17749H720.229ZM727.335 0.17749V44.2563C727.335 45.1807 728.202 45.9895 729.299 45.9895C730.397 45.9895 731.263 45.1807 731.263 44.2563V0.17749H727.335ZM734.441 0.17749V35.5329C734.441 36.515 735.307 37.2661 736.405 37.2661C737.503 37.2661 738.369 36.515 738.369 35.5329V0.17749H734.441V0.17749ZM741.546 0.17749V39.1725C741.546 40.1546 742.471 40.9056 743.511 40.9056C744.608 40.9056 745.475 40.1546 745.475 39.1725V0.17749H741.546ZM748.71 0.17749V43.2164C748.71 44.1985 749.577 44.9496 750.674 44.9496C751.714 44.9496 752.638 44.1985 752.638 43.2164V0.17749H748.71ZM755.816 0.17749V39.808C755.816 40.7323 756.682 41.5411 757.78 41.5411C758.82 41.5411 759.744 40.7323 759.744 39.808V0.17749H755.816ZM762.922 0.17749V47.087C762.922 48.0114 763.788 48.8202 764.886 48.8202C765.983 48.8202 766.85 48.0114 766.85 47.087V0.17749H762.922ZM624.273 0.17749V23.9789C624.273 24.961 623.348 25.712 622.308 25.712C621.211 25.712 620.344 24.961 620.344 23.9789V0.17749H624.273ZM617.109 0.17749V37.9594C617.109 38.9415 616.242 39.6924 615.145 39.6924C614.105 39.6924 613.181 38.9415 613.181 37.9594V0.17749H617.109ZM610.003 0.17749V39.5769C610.003 40.559 609.137 41.31 608.039 41.31C606.999 41.31 606.075 40.559 606.075 39.5769V0.17749H610.003ZM602.897 0.17749V47.087C602.897 48.0114 602.031 48.8202 600.933 48.8202C599.836 48.8202 598.969 48.0114 598.969 47.087V0.17749H602.897ZM595.792 0.17749V30.0448C595.792 31.0269 594.925 31.7779 593.828 31.7779C592.73 31.7779 591.863 31.0269 591.863 30.0448V0.17749H595.792ZM588.686 0.17749V33.1066C588.686 34.0309 587.762 34.8397 586.722 34.8397C585.624 34.8397 584.758 34.0309 584.758 33.1066V0.17749H588.686ZM581.58 0.17749V23.9789C581.58 24.961 580.656 25.712 579.616 25.712C578.518 25.712 577.652 24.961 577.652 23.9789V0.17749H581.58ZM574.417 0.17749V15.66C574.417 16.6421 573.55 17.393 572.453 17.393C571.413 17.393 570.488 16.6421 570.488 15.66V0.17749H574.417ZM567.311 0.17749V29.4671C567.311 30.3915 566.444 31.2002 565.347 31.2002C564.307 31.2002 563.383 30.3915 563.383 29.4671V0.17749H567.311ZM560.205 0.17749V31.489C560.205 32.4134 559.339 33.2222 558.241 33.2222C557.143 33.2222 556.277 32.4134 556.277 31.489V0.17749H560.205ZM553.099 0.17749V33.6843C553.099 34.6664 552.233 35.4175 551.135 35.4175C550.038 35.4175 549.171 34.6664 549.171 33.6843V0.17749H553.099ZM545.994 0.17749V35.5329C545.994 36.515 545.069 37.2661 544.029 37.2661C542.932 37.2661 542.065 36.515 542.065 35.5329V0.17749H545.994ZM538.888 0.17749V23.5745C538.888 24.5566 537.964 25.3077 536.924 25.3077C535.826 25.3077 534.96 24.5566 534.96 23.5745V0.17749H538.888ZM531.724 0.17749V18.8951C531.724 19.8772 530.858 20.6283 529.76 20.6283C528.72 20.6283 527.796 19.8772 527.796 18.8951V0.17749H531.724ZM524.619 0.17749V44.2563C524.619 45.1807 523.752 45.9895 522.654 45.9895C521.557 45.9895 520.69 45.1807 520.69 44.2563V0.17749H524.619ZM517.513 0.17749V35.5329C517.513 36.515 516.646 37.2661 515.549 37.2661C514.451 37.2661 513.584 36.515 513.584 35.5329V0.17749H517.513ZM510.407 0.17749V39.1725C510.407 40.1546 509.541 40.9056 508.443 40.9056C507.345 40.9056 506.479 40.1546 506.479 39.1725V0.17749H510.407ZM503.301 0.17749V43.2164C503.301 44.1985 502.377 44.9496 501.337 44.9496C500.239 44.9496 499.373 44.1985 499.373 43.2164V0.17749H503.301ZM496.196 0.17749V39.808C496.196 40.7323 495.271 41.5411 494.174 41.5411C493.134 41.5411 492.209 40.7323 492.209 39.808V0.17749H496.196ZM1339.76 0.17749V47.087C1339.76 48.0114 1340.63 48.8202 1341.72 48.8202C1342.82 48.8202 1343.69 48.0114 1343.69 47.087V0.17749H1339.76ZM1332.65 0.17749V39.5769C1332.65 40.559 1333.52 41.31 1334.62 41.31C1335.72 41.31 1336.58 40.559 1336.58 39.5769V0.17749H1332.65ZM1325.55 0.17749V37.9594C1325.55 38.9415 1326.41 39.6924 1327.51 39.6924C1328.55 39.6924 1329.48 38.9415 1329.48 37.9594V0.17749H1325.55ZM1318.38 0.17749V23.9789C1318.38 24.961 1319.31 25.712 1320.41 25.712C1321.45 25.712 1322.37 24.961 1322.37 23.9789V0.17749H1318.38ZM1179.74 0.17749V47.087C1179.74 48.0114 1178.87 48.8202 1177.77 48.8202C1176.73 48.8202 1175.81 48.0114 1175.81 47.087V0.17749H1179.74ZM1186.84 0.17749V39.808C1186.84 40.7323 1185.97 41.5411 1184.88 41.5411C1183.84 41.5411 1182.91 40.7323 1182.91 39.808V0.17749H1186.84ZM1194 0.17749V43.2164C1194 44.1985 1193.08 44.9496 1192.04 44.9496C1190.94 44.9496 1190.08 44.1985 1190.08 43.2164V0.17749H1194ZM1201.11 0.17749V39.1725C1201.11 40.1546 1200.19 40.9056 1199.15 40.9056C1198.05 40.9056 1197.18 40.1546 1197.18 39.1725V0.17749H1201.11ZM1208.22 0.17749V35.5329C1208.22 36.515 1207.35 37.2661 1206.25 37.2661C1205.15 37.2661 1204.29 36.515 1204.29 35.5329V0.17749H1208.22ZM1215.32 0.17749V44.2563C1215.32 45.1807 1214.45 45.9895 1213.36 45.9895C1212.26 45.9895 1211.39 45.1807 1211.39 44.2563V0.17749H1215.32ZM1222.43 0.17749V18.8951C1222.43 19.8772 1221.56 20.6283 1220.46 20.6283C1219.42 20.6283 1218.5 19.8772 1218.5 18.8951V0.17749H1222.43ZM1229.53 0.17749V23.5745C1229.53 24.5566 1228.67 25.3077 1227.57 25.3077C1226.53 25.3077 1225.6 24.5566 1225.6 23.5745V0.17749H1229.53ZM1236.7 0.17749V35.5329C1236.7 36.515 1235.77 37.2661 1234.73 37.2661C1233.63 37.2661 1232.77 36.515 1232.77 35.5329V0.17749H1236.7ZM1243.8 0.17749V33.6843C1243.8 34.6664 1242.88 35.4175 1241.84 35.4175C1240.74 35.4175 1239.87 34.6664 1239.87 33.6843V0.17749H1243.8ZM1250.91 0.17749V31.489C1250.91 32.4134 1250.04 33.2222 1248.94 33.2222C1247.85 33.2222 1246.98 32.4134 1246.98 31.489V0.17749H1250.91ZM1258.01 0.17749V29.4671C1258.01 30.3915 1257.15 31.2002 1256.05 31.2002C1254.95 31.2002 1254.09 30.3915 1254.09 29.4671V0.17749H1258.01ZM1265.12 0.17749V15.66C1265.12 16.6421 1264.25 17.393 1263.16 17.393C1262.12 17.393 1261.19 16.6421 1261.19 15.66V0.17749H1265.12ZM1272.23 0.17749V23.9789C1272.23 24.961 1271.36 25.712 1270.26 25.712C1269.22 25.712 1268.3 24.961 1268.3 23.9789V0.17749H1272.23ZM1279.39 0.17749V33.1066C1279.39 34.0309 1278.46 34.8397 1277.42 34.8397C1276.33 34.8397 1275.46 34.0309 1275.46 33.1066V0.17749H1279.39ZM1286.49 0.17749V30.0448C1286.49 31.0269 1285.63 31.7779 1284.53 31.7779C1283.43 31.7779 1282.57 31.0269 1282.57 30.0448V0.17749H1286.49ZM1293.6 0.17749V47.087C1293.6 48.0114 1292.73 48.8202 1291.64 48.8202C1290.54 48.8202 1289.67 48.0114 1289.67 47.087V0.17749H1293.6ZM1300.71 0.17749V39.5769C1300.71 40.559 1299.84 41.31 1298.74 41.31C1297.64 41.31 1296.78 40.559 1296.78 39.5769V0.17749H1300.71ZM1307.81 0.17749V37.9594C1307.81 38.9415 1306.95 39.6924 1305.85 39.6924C1304.81 39.6924 1303.88 38.9415 1303.88 37.9594V0.17749H1307.81ZM1314.98 0.17749V23.9789C1314.98 24.961 1314.05 25.712 1313.01 25.712C1311.91 25.712 1311.05 24.961 1311.05 23.9789V0.17749H1314.98ZM1168.82 0.17749V29.4671C1168.82 30.3915 1169.68 31.2002 1170.78 31.2002C1171.88 31.2002 1172.74 30.3915 1172.74 29.4671V0.17749H1168.82ZM1161.71 0.17749V15.66C1161.71 16.6421 1162.58 17.393 1163.67 17.393C1164.71 17.393 1165.64 16.6421 1165.64 15.66V0.17749H1161.71ZM1154.6 0.17749V23.9789C1154.6 24.961 1155.47 25.712 1156.57 25.712C1157.61 25.712 1158.53 24.961 1158.53 23.9789V0.17749H1154.6ZM1147.44 0.17749V33.1066C1147.44 34.0309 1148.37 34.8397 1149.41 34.8397C1150.5 34.8397 1151.37 34.0309 1151.37 33.1066V0.17749H1147.44ZM1140.34 0.17749V30.0448C1140.34 31.0269 1141.2 31.7779 1142.3 31.7779C1143.4 31.7779 1144.26 31.0269 1144.26 30.0448V0.17749H1140.34ZM1133.23 0.17749V47.087C1133.23 48.0114 1134.1 48.8202 1135.19 48.8202C1136.29 48.8202 1137.16 48.0114 1137.16 47.087V0.17749H1133.23ZM1126.12 0.17749V39.5769C1126.12 40.559 1126.99 41.31 1128.09 41.31C1129.19 41.31 1130.05 40.559 1130.05 39.5769V0.17749H1126.12ZM1119.02 0.17749V37.9594C1119.02 38.9415 1119.88 39.6924 1120.98 39.6924C1122.02 39.6924 1122.95 38.9415 1122.95 37.9594V0.17749H1119.02ZM1111.85 0.17749V23.9789C1111.85 24.961 1112.78 25.712 1113.82 25.712C1114.92 25.712 1115.78 24.961 1115.78 23.9789V0.17749H1111.85ZM980.312 0.17749V39.808C980.312 40.7323 979.445 41.5411 978.347 41.5411C977.308 41.5411 976.383 40.7323 976.383 39.808V0.17749H980.312ZM987.475 0.17749V43.2164C987.475 44.1985 986.551 44.9496 985.511 44.9496C984.413 44.9496 983.547 44.1985 983.547 43.2164V0.17749H987.475ZM994.581 0.17749V39.1725C994.581 40.1546 993.657 40.9056 992.617 40.9056C991.519 40.9056 990.652 40.1546 990.652 39.1725V0.17749H994.581ZM1001.69 0.17749V35.5329C1001.69 36.515 1000.82 37.2661 999.722 37.2661C998.625 37.2661 997.758 36.515 997.758 35.5329V0.17749H1001.69ZM1008.79 0.17749V44.2563C1008.79 45.1807 1007.93 45.9895 1006.83 45.9895C1005.73 45.9895 1004.86 45.1807 1004.86 44.2563V0.17749H1008.79ZM1015.9 0.17749V18.8951C1015.9 19.8772 1015.03 20.6283 1013.93 20.6283C1012.89 20.6283 1011.97 19.8772 1011.97 18.8951V0.17749H1015.9ZM1023 0.17749V23.5745C1023 24.5566 1022.14 25.3077 1021.04 25.3077C1020 25.3077 1019.08 24.5566 1019.08 23.5745V0.17749H1023ZM1030.17 0.17749V35.5329C1030.17 36.515 1029.24 37.2661 1028.2 37.2661C1027.11 37.2661 1026.24 36.515 1026.24 35.5329V0.17749H1030.17ZM1037.27 0.17749V33.6843C1037.27 34.6664 1036.35 35.4175 1035.31 35.4175C1034.21 35.4175 1033.34 34.6664 1033.34 33.6843V0.17749H1037.27ZM1044.38 0.17749V31.489C1044.38 32.4134 1043.51 33.2222 1042.41 33.2222C1041.32 33.2222 1040.45 32.4134 1040.45 31.489V0.17749H1044.38ZM1051.48 0.17749V29.4671C1051.48 30.3915 1050.62 31.2002 1049.52 31.2002C1048.42 31.2002 1047.56 30.3915 1047.56 29.4671V0.17749H1051.48ZM1058.59 0.17749V15.66C1058.59 16.6421 1057.72 17.393 1056.63 17.393C1055.59 17.393 1054.66 16.6421 1054.66 15.66V0.17749H1058.59ZM1065.7 0.17749V23.9789C1065.7 24.961 1064.83 25.712 1063.73 25.712C1062.69 25.712 1061.77 24.961 1061.77 23.9789V0.17749H1065.7ZM1072.86 0.17749V33.1066C1072.86 34.0309 1071.94 34.8397 1070.9 34.8397C1069.8 34.8397 1068.93 34.0309 1068.93 33.1066V0.17749H1072.86ZM1079.97 0.17749V30.0448C1079.97 31.0269 1079.04 31.7779 1078 31.7779C1076.9 31.7779 1076.04 31.0269 1076.04 30.0448V0.17749H1079.97ZM1087.07 0.17749V47.087C1087.07 48.0114 1086.2 48.8202 1085.11 48.8202C1084.01 48.8202 1083.14 48.0114 1083.14 47.087V0.17749H1087.07ZM1094.18 0.17749V39.5769C1094.18 40.559 1093.31 41.31 1092.21 41.31C1091.12 41.31 1090.25 40.559 1090.25 39.5769V0.17749H1094.18ZM1101.28 0.17749V37.9594C1101.28 38.9415 1100.42 39.6924 1099.32 39.6924C1098.28 39.6924 1097.35 38.9415 1097.35 37.9594V0.17749H1101.28ZM1108.45 0.17749V23.9789C1108.45 24.961 1107.52 25.712 1106.48 25.712C1105.38 25.712 1104.46 24.961 1104.46 23.9789V0.17749H1108.45Z" fill="#CFCFCF"/>
</svg>
