<svg width="107" height="145" viewBox="0 0 107 145" fill="none" xmlns="http://www.w3.org/2000/svg">
<g clip-path="url(#clip0)">
<path d="M141.528 21.5036C141.525 21.1667 141.38 20.8361 141.104 20.5884L118.78 0.49601C118.502 0.246388 118.138 0.121085 117.77 0.116165C117.763 0.115508 18.4685 0.111572 18.4685 0.111572V144.112H141.531C141.531 144.112 141.528 21.5079 141.528 21.5036ZM121.067 6.26585L136.554 20.204H119.261C121.921 14.7084 121.815 9.78319 121.067 6.26585ZM138.616 141.487H21.3842V2.73572H116.832C117.903 4.94164 120.728 12.3312 115.651 20.8984C115.41 21.3052 115.423 21.7959 115.687 22.1908C115.951 22.5861 116.425 22.8278 116.937 22.8278H138.616V141.487Z" fill="#EEE6E6"/>
<path d="M28.4133 127.307H130.129V124.683H31.329V122.193H130.129V119.569H115.148V117.079H130.129V114.454H115.148V108.244H89.908V114.454H31.329V103.562H47.6935V105.903H50.6092V103.562H58.247V111.017H61.1627V103.562H130.129V100.938H63.3582V98.4475H130.129V95.8233H52.8048V93.333H130.129V90.7089H28.4133V127.307ZM92.8233 119.569V117.079H99.0776V119.569H92.8233ZM109.631 119.569H104.188V117.079H109.631V119.569ZM112.232 110.868V114.454H104.188V110.868H112.232ZM92.8233 110.868H101.273V114.454H92.8233V110.868ZM87.3061 117.079V119.569H31.329V117.079H87.3061ZM31.329 100.938V98.4475H47.6935V100.938H31.329ZM58.247 100.938H50.6092V98.4475H58.247V100.938ZM47.6935 93.333V95.8233H31.329V93.333H47.6935Z" fill="#EEE6E6"/>
<path d="M107.196 24.9528H52.3987V27.5769H107.196V24.9528Z" fill="#EEE6E6"/>
<path d="M97.0478 19.4731H62.5461V22.0973H97.0478V19.4731Z" fill="#EEE6E6"/>
<path d="M113.524 39.7814H110.608V42.1225H97.288V36.8588H94.3723V42.1225H65.6277V35.9121H51.3469V42.1225H28.4133V78.7205H130.129V76.0963H86.7346V73.6063H130.129V70.9822H124.484V68.4919H130.129V65.8677H124.484V62.0653H121.568V65.8677H86.7346V59.657H72.4538V65.8677H31.329V54.9752H130.129V52.3511H113.524V49.8608H130.129V47.2366H113.524V44.7463H130.129V42.1222H113.524V39.7814ZM92.1772 44.7466V47.2369H65.6277V44.7466H92.1772ZM54.2626 47.2369V44.7466H62.712V47.2369H54.2626ZM54.2626 38.5366H62.712V42.1228H54.2626V38.5366ZM48.7457 44.7466V47.2369H31.329V44.7466H48.7457ZM81.6237 76.0963H31.329V73.6063H81.6237V76.0963ZM75.3695 70.9825V68.4922H83.8189V70.9825H75.3695ZM119.373 68.4922V70.9825H86.7346V68.4922H119.373ZM75.3695 62.2815H83.8189V65.868H75.3695V62.2815ZM69.8526 68.4922V70.9825H31.329V68.4922H69.8526ZM31.329 49.8611H60.5168V52.3514H31.329V49.8611ZM108.413 52.3514H65.6277V49.8611H108.413V52.3514H108.413ZM110.608 47.2369H97.288V44.7466H110.608V47.2369Z" fill="#EEE6E6"/>
</g>
<defs>
<clipPath id="clip0">
<rect width="160" height="144" fill="white" transform="translate(0 0.111572)"/>
</clipPath>
</defs>
</svg>
