<svg width="4035" height="120" viewBox="0 0 4035 120" fill="none" xmlns="http://www.w3.org/2000/svg">
<path fill-rule="evenodd" clip-rule="evenodd" d="M1834.27 119.007V4.21724C1834.27 1.90642 1833.41 0 1832.31 0C1831.27 0 1830.35 1.90642 1830.35 4.21724V119.007H1834.27ZM1485.11 119.007V60.7745C1485.11 58.4637 1484.25 56.5572 1483.15 56.5572C1482.05 56.5572 1481.18 58.4637 1481.18 60.7745V119.007H1485.11ZM1478.01 119.007V26.5166C1478.01 24.2058 1477.08 22.2994 1476.04 22.2994C1474.94 22.2994 1474.08 24.2058 1474.08 26.5166V119.007H1478.01ZM1470.84 119.007V22.5882C1470.84 20.2196 1469.97 18.3132 1468.88 18.3132C1467.84 18.3132 1466.91 20.2196 1466.91 22.5882V119.007H1470.84ZM1463.74 119.007V4.21724C1463.74 1.90642 1462.87 0 1461.77 0C1460.73 0 1459.81 1.90642 1459.81 4.21724V119.007H1463.74ZM1456.63 119.007V45.8697C1456.63 43.5589 1455.76 41.6525 1454.67 41.6525C1453.57 41.6525 1452.7 43.5589 1452.7 45.8697V119.007H1456.63ZM1449.53 119.007V38.4173C1449.53 36.1065 1448.66 34.2001 1447.56 34.2001C1446.46 34.2001 1445.6 36.1065 1445.6 38.4173V119.007H1449.53ZM1442.42 119.007V60.7745C1442.42 58.4637 1441.55 56.5572 1440.45 56.5572C1439.36 56.5572 1438.49 58.4637 1438.49 60.7745V119.007H1442.42ZM1435.31 119.007V81.1096C1435.31 78.7988 1434.39 76.8924 1433.35 76.8924C1432.25 76.8924 1431.38 78.7988 1431.38 81.1096V119.007H1435.31ZM1428.15 119.007V47.3717C1428.15 45.0609 1427.28 43.1545 1426.19 43.1545C1425.15 43.1545 1424.22 45.0609 1424.22 47.3717V119.007H1428.15ZM1421.04 119.007V42.4035C1421.04 40.0927 1420.18 38.1862 1419.08 38.1862C1418.04 38.1862 1417.12 40.0927 1417.12 42.4035V119.007H1421.04ZM1413.94 119.007V36.973C1413.94 34.6045 1413.07 32.698 1411.97 32.698C1410.88 32.698 1410.01 34.6045 1410.01 36.973V119.007H1413.94ZM1406.83 119.007V32.467C1406.83 30.1561 1405.97 28.2497 1404.87 28.2497C1403.77 28.2497 1402.9 30.1561 1402.9 32.467V119.007H1406.83ZM1399.73 119.007V61.7566C1399.73 59.4457 1398.8 57.5393 1397.76 57.5393C1396.66 57.5393 1395.8 59.4457 1395.8 61.7566V119.007H1399.73ZM1392.62 119.007V73.1951C1392.62 70.8265 1391.7 68.9201 1390.66 68.9201C1389.56 68.9201 1388.69 70.8265 1388.69 73.1951V119.007H1392.62ZM1385.46 119.007V11.1497C1385.46 8.83887 1384.59 6.93245 1383.49 6.93245C1382.45 6.93245 1381.53 8.83887 1381.53 11.1497V119.007H1385.46ZM1378.35 119.007V32.467C1378.35 30.1561 1377.48 28.2497 1376.39 28.2497C1375.35 28.2497 1374.42 30.1561 1374.42 32.467V119.007H1378.35ZM1371.25 119.007V23.5703C1371.25 21.2595 1370.38 19.3531 1369.28 19.3531C1368.18 19.3531 1367.32 21.2595 1367.32 23.5703V119.007H1371.25ZM1364.14 119.007V13.6338C1364.14 11.323 1363.27 9.41656 1362.18 9.41656C1361.08 9.41656 1360.21 11.323 1360.21 13.6338V119.007H1364.14ZM1357.03 119.007V22.0683C1357.03 19.7575 1356.11 17.8511 1355.07 17.8511C1353.97 17.8511 1353.11 19.7575 1353.11 22.0683V119.007H1357.03ZM1349.93 119.007V4.21724C1349.93 1.90642 1349 0 1347.96 0C1346.87 0 1346 1.90642 1346 4.21724V119.007H1349.93ZM1488.58 119.007V60.7745C1488.58 58.4637 1489.44 56.5572 1490.54 56.5572C1491.64 56.5572 1492.51 58.4637 1492.51 60.7745V119.007H1488.58ZM1495.68 119.007V26.5166C1495.68 24.2058 1496.55 22.2994 1497.65 22.2994C1498.75 22.2994 1499.61 24.2058 1499.61 26.5166V119.007H1495.68ZM1502.79 119.007V22.5882C1502.79 20.2196 1503.66 18.3132 1504.75 18.3132C1505.85 18.3132 1506.72 20.2196 1506.72 22.5882V119.007H1502.79ZM1509.9 119.007V4.21724C1509.9 1.90642 1510.82 0 1511.86 0C1512.96 0 1513.82 1.90642 1513.82 4.21724V119.007H1509.9ZM1517.06 119.007V45.8697C1517.06 43.5589 1517.93 41.6525 1519.02 41.6525C1520.06 41.6525 1520.99 43.5589 1520.99 45.8697V119.007H1517.06ZM1524.16 119.007V38.4173C1524.16 36.1065 1525.03 34.2001 1526.13 34.2001C1527.17 34.2001 1528.09 36.1065 1528.09 38.4173V119.007H1524.16ZM1531.27 119.007V60.7745C1531.27 58.4637 1532.14 56.5572 1533.23 56.5572C1534.33 56.5572 1535.2 58.4637 1535.2 60.7745V119.007H1531.27ZM1538.38 119.007V81.1096C1538.38 78.7988 1539.24 76.8924 1540.34 76.8924C1541.44 76.8924 1542.3 78.7988 1542.3 81.1096V119.007H1538.38ZM1545.48 119.007V47.3717C1545.48 45.0609 1546.41 43.1545 1547.45 43.1545C1548.54 43.1545 1549.41 45.0609 1549.41 47.3717V119.007H1545.48ZM1691.64 119.007V60.7745C1691.64 58.4637 1690.77 56.5572 1689.68 56.5572C1688.58 56.5572 1687.71 58.4637 1687.71 60.7745V119.007H1691.64ZM1684.54 119.007V26.5166C1684.54 24.2058 1683.61 22.2994 1682.57 22.2994C1681.47 22.2994 1680.61 24.2058 1680.61 26.5166V119.007H1684.54ZM1677.43 119.007V22.5882C1677.43 20.2196 1676.5 18.3132 1675.46 18.3132C1674.37 18.3132 1673.44 20.2196 1673.44 22.5882V119.007H1677.43ZM1670.27 119.007V4.21724C1670.27 1.90642 1669.4 0 1668.3 0C1667.26 0 1666.34 1.90642 1666.34 4.21724V119.007H1670.27ZM1663.16 119.007V45.8697C1663.16 43.5589 1662.29 41.6525 1661.2 41.6525C1660.1 41.6525 1659.23 43.5589 1659.23 45.8697V119.007H1663.16ZM1656.05 119.007V38.4173C1656.05 36.1065 1655.19 34.2001 1654.09 34.2001C1652.99 34.2001 1652.12 36.1065 1652.12 38.4173V119.007H1656.05ZM1648.95 119.007V60.7745C1648.95 58.4637 1648.08 56.5572 1646.98 56.5572C1645.89 56.5572 1645.02 58.4637 1645.02 60.7745V119.007H1648.95ZM1641.84 119.007V81.1096C1641.84 78.7988 1640.92 76.8924 1639.88 76.8924C1638.78 76.8924 1637.91 78.7988 1637.91 81.1096V119.007H1641.84ZM1634.68 119.007V47.3717C1634.68 45.0609 1633.81 43.1545 1632.71 43.1545C1631.67 43.1545 1630.75 45.0609 1630.75 47.3717V119.007H1634.68ZM1627.57 119.007V42.4035C1627.57 40.0927 1626.71 38.1862 1625.61 38.1862C1624.57 38.1862 1623.64 40.0927 1623.64 42.4035V119.007H1627.57ZM1620.47 119.007V36.973C1620.47 34.6045 1619.6 32.698 1618.5 32.698C1617.4 32.698 1616.54 34.6045 1616.54 36.973V119.007H1620.47ZM1613.36 119.007V32.467C1613.36 30.1561 1612.5 28.2497 1611.4 28.2497C1610.3 28.2497 1609.43 30.1561 1609.43 32.467V119.007H1613.36ZM1606.26 119.007V61.7566C1606.26 59.4457 1605.33 57.5393 1604.29 57.5393C1603.19 57.5393 1602.33 59.4457 1602.33 61.7566V119.007H1606.26ZM1599.15 119.007V73.1951C1599.15 70.8265 1598.23 68.9201 1597.19 68.9201C1596.09 68.9201 1595.22 70.8265 1595.22 73.1951V119.007H1599.15ZM1591.99 119.007V11.1497C1591.99 8.83887 1591.12 6.93245 1590.02 6.93245C1588.98 6.93245 1588.06 8.83887 1588.06 11.1497V119.007H1591.99ZM1584.88 119.007V32.467C1584.88 30.1561 1584.01 28.2497 1582.92 28.2497C1581.88 28.2497 1580.95 30.1561 1580.95 32.467V119.007H1584.88ZM1577.77 119.007V23.5703C1577.77 21.2595 1576.91 19.3531 1575.81 19.3531C1574.71 19.3531 1573.85 21.2595 1573.85 23.5703V119.007H1577.77ZM1570.67 119.007V13.6338C1570.67 11.323 1569.8 9.41656 1568.71 9.41656C1567.61 9.41656 1566.74 11.323 1566.74 13.6338V119.007H1570.67ZM1563.56 119.007V22.0683C1563.56 19.7575 1562.64 17.8511 1561.6 17.8511C1560.5 17.8511 1559.63 19.7575 1559.63 22.0683V119.007H1563.56ZM1556.46 119.007V4.21724C1556.46 1.90642 1555.53 0 1554.49 0C1553.4 0 1552.53 1.90642 1552.53 4.21724V119.007H1556.46ZM1695.11 119.007V60.7745C1695.11 58.4637 1695.97 56.5572 1697.07 56.5572C1698.17 56.5572 1699.04 58.4637 1699.04 60.7745V119.007H1695.11ZM1702.21 119.007V26.5166C1702.21 24.2058 1703.08 22.2994 1704.18 22.2994C1705.27 22.2994 1706.14 24.2058 1706.14 26.5166V119.007H1702.21ZM1709.32 119.007V22.5882C1709.32 20.2196 1710.19 18.3132 1711.28 18.3132C1712.38 18.3132 1713.25 20.2196 1713.25 22.5882V119.007H1709.32ZM1716.42 119.007V4.21724C1716.42 1.90642 1717.35 0 1718.39 0C1719.49 0 1720.35 1.90642 1720.35 4.21724V119.007H1716.42ZM1723.59 119.007V45.8697C1723.59 43.5589 1724.45 41.6525 1725.55 41.6525C1726.59 41.6525 1727.52 43.5589 1727.52 45.8697V119.007H1723.59ZM1730.69 119.007V38.4173C1730.69 36.1065 1731.56 34.2001 1732.66 34.2001C1733.7 34.2001 1734.62 36.1065 1734.62 38.4173V119.007H1730.69ZM1737.8 119.007V60.7745C1737.8 58.4637 1738.67 56.5572 1739.76 56.5572C1740.86 56.5572 1741.73 58.4637 1741.73 60.7745V119.007H1737.8ZM1744.9 119.007V81.1096C1744.9 78.7988 1745.77 76.8924 1746.87 76.8924C1747.97 76.8924 1748.83 78.7988 1748.83 81.1096V119.007H1744.9ZM1752.01 119.007V47.3717C1752.01 45.0609 1752.94 43.1545 1753.98 43.1545C1755.07 43.1545 1755.94 45.0609 1755.94 47.3717V119.007H1752.01ZM1759.12 119.007V42.4035C1759.12 40.0927 1760.04 38.1862 1761.08 38.1862C1762.18 38.1862 1763.05 40.0927 1763.05 42.4035V119.007H1759.12ZM1766.28 119.007V36.973C1766.28 34.6045 1767.15 32.698 1768.24 32.698C1769.28 32.698 1770.21 34.6045 1770.21 36.973V119.007H1766.28ZM1773.39 119.007V32.467C1773.39 30.1561 1774.25 28.2497 1775.35 28.2497C1776.39 28.2497 1777.31 30.1561 1777.31 32.467V119.007H1773.39ZM1780.49 119.007V61.7566C1780.49 59.4457 1781.36 57.5393 1782.45 57.5393C1783.55 57.5393 1784.42 59.4457 1784.42 61.7566V119.007H1780.49ZM1787.6 119.007V73.1951C1787.6 70.8265 1788.46 68.9201 1789.56 68.9201C1790.66 68.9201 1791.52 70.8265 1791.52 73.1951V119.007H1787.6ZM1794.7 119.007V11.1497C1794.7 8.83887 1795.63 6.93245 1796.67 6.93245C1797.76 6.93245 1798.63 8.83887 1798.63 11.1497V119.007H1794.7ZM1801.81 119.007V32.467C1801.81 30.1561 1802.73 28.2497 1803.77 28.2497C1804.87 28.2497 1805.74 30.1561 1805.74 32.467V119.007H1801.81ZM1808.97 119.007V23.5703C1808.97 21.2595 1809.84 19.3531 1810.94 19.3531C1811.98 19.3531 1812.9 21.2595 1812.9 23.5703V119.007H1808.97ZM1816.08 119.007V13.6338C1816.08 11.323 1816.94 9.41656 1818.04 9.41656C1819.08 9.41656 1820.01 11.323 1820.01 13.6338V119.007H1816.08ZM1823.18 119.007V22.0683C1823.18 19.7575 1824.05 17.8511 1825.15 17.8511C1826.25 17.8511 1827.11 19.7575 1827.11 22.0683V119.007H1823.18ZM2179.51 119.007V60.7745C2179.51 58.4637 2180.38 56.5572 2181.48 56.5572C2182.52 56.5572 2183.44 58.4637 2183.44 60.7745V119.007H2179.51ZM2186.62 119.007V26.5166C2186.62 24.2058 2187.48 22.2994 2188.58 22.2994C2189.62 22.2994 2190.55 24.2058 2190.55 26.5166V119.007H2186.62ZM2193.72 119.007V22.5882C2193.72 20.2196 2194.59 18.3132 2195.69 18.3132C2196.79 18.3132 2197.65 20.2196 2197.65 22.5882V119.007H2193.72ZM2200.83 119.007V4.21724C2200.83 1.90642 2201.7 0 2202.79 0C2203.89 0 2204.76 1.90642 2204.76 4.21724V119.007H2200.83ZM2207.93 119.007V45.8697C2207.93 43.5589 2208.86 41.6525 2209.9 41.6525C2211 41.6525 2211.86 43.5589 2211.86 45.8697V119.007H2207.93ZM2215.04 119.007V38.4173C2215.04 36.1065 2215.97 34.2001 2217 34.2001C2218.1 34.2001 2218.97 36.1065 2218.97 38.4173V119.007H2215.04ZM2222.2 119.007V60.7745C2222.2 58.4637 2223.07 56.5572 2224.17 56.5572C2225.21 56.5572 2226.13 58.4637 2226.13 60.7745V119.007H2222.2ZM2229.31 119.007V81.1096C2229.31 78.7988 2230.18 76.8924 2231.27 76.8924C2232.37 76.8924 2233.24 78.7988 2233.24 81.1096V119.007H2229.31ZM2236.41 119.007V47.3717C2236.41 45.0609 2237.28 43.1545 2238.38 43.1545C2239.48 43.1545 2240.34 45.0609 2240.34 47.3717V119.007H2236.41ZM2243.52 119.007V42.4035C2243.52 40.0927 2244.39 38.1862 2245.48 38.1862C2246.58 38.1862 2247.45 40.0927 2247.45 42.4035V119.007H2243.52ZM2250.63 119.007V36.973C2250.63 34.6045 2251.55 32.698 2252.59 32.698C2253.69 32.698 2254.55 34.6045 2254.55 36.973V119.007H2250.63ZM2257.79 119.007V32.467C2257.79 30.1561 2258.66 28.2497 2259.75 28.2497C2260.79 28.2497 2261.72 30.1561 2261.72 32.467V119.007H2257.79ZM2264.9 119.007V61.7566C2264.9 59.4457 2265.76 57.5393 2266.86 57.5393C2267.9 57.5393 2268.82 59.4457 2268.82 61.7566V119.007H2264.9ZM2272 119.007V73.1951C2272 70.8265 2272.87 68.9201 2273.97 68.9201C2275.06 68.9201 2275.93 70.8265 2275.93 73.1951V119.007H2272ZM2279.11 119.007V11.1497C2279.11 8.83887 2279.97 6.93245 2281.07 6.93245C2282.17 6.93245 2283.04 8.83887 2283.04 11.1497V119.007H2279.11ZM2286.21 119.007V32.467C2286.21 30.1561 2287.14 28.2497 2288.18 28.2497C2289.28 28.2497 2290.14 30.1561 2290.14 32.467V119.007H2286.21ZM2293.32 119.007V23.5703C2293.32 21.2595 2294.24 19.3531 2295.28 19.3531C2296.38 19.3531 2297.25 21.2595 2297.25 23.5703V119.007H2293.32ZM2300.48 119.007V13.6338C2300.48 11.323 2301.35 9.41656 2302.45 9.41656C2303.49 9.41656 2304.41 11.323 2304.41 13.6338V119.007H2300.48ZM2307.59 119.007V22.0683C2307.59 19.7575 2308.45 17.8511 2309.55 17.8511C2310.59 17.8511 2311.52 19.7575 2311.52 22.0683V119.007H2307.59ZM2314.69 119.007V4.21724C2314.69 1.90642 2315.56 0 2316.66 0C2317.76 0 2318.62 1.90642 2318.62 4.21724V119.007H2314.69ZM2176.04 119.007V60.7745C2176.04 58.4637 2175.12 56.5572 2174.08 56.5572C2172.98 56.5572 2172.12 58.4637 2172.12 60.7745V119.007H2176.04ZM2168.88 119.007V26.5166C2168.88 24.2058 2168.01 22.2994 2166.92 22.2994C2165.88 22.2994 2164.95 24.2058 2164.95 26.5166V119.007H2168.88ZM2161.78 119.007V22.5882C2161.78 20.2196 2160.91 18.3132 2159.81 18.3132C2158.77 18.3132 2157.85 20.2196 2157.85 22.5882V119.007H2161.78ZM2154.67 119.007V4.21724C2154.67 1.90642 2153.8 0 2152.71 0C2151.61 0 2150.74 1.90642 2150.74 4.21724V119.007H2154.67ZM2147.56 119.007V45.8697C2147.56 43.5589 2146.7 41.6525 2145.6 41.6525C2144.5 41.6525 2143.64 43.5589 2143.64 45.8697V119.007H2147.56ZM2140.46 119.007V38.4173C2140.46 36.1065 2139.53 34.2001 2138.49 34.2001C2137.4 34.2001 2136.53 36.1065 2136.53 38.4173V119.007H2140.46ZM2133.35 119.007V60.7745C2133.35 58.4637 2132.43 56.5572 2131.39 56.5572C2130.29 56.5572 2129.42 58.4637 2129.42 60.7745V119.007H2133.35ZM2126.19 119.007V81.1096C2126.19 78.7988 2125.32 76.8924 2124.22 76.8924C2123.18 76.8924 2122.26 78.7988 2122.26 81.1096V119.007H2126.19ZM2119.08 119.007V47.3717C2119.08 45.0609 2118.22 43.1545 2117.12 43.1545C2116.08 43.1545 2115.16 45.0609 2115.16 47.3717V119.007H2119.08ZM1972.98 119.007V60.7745C1972.98 58.4637 1973.85 56.5572 1974.95 56.5572C1975.99 56.5572 1976.91 58.4637 1976.91 60.7745V119.007H1972.98ZM1980.09 119.007V26.5166C1980.09 24.2058 1980.96 22.2994 1982.05 22.2994C1983.09 22.2994 1984.02 24.2058 1984.02 26.5166V119.007H1980.09ZM1987.19 119.007V22.5882C1987.19 20.2196 1988.06 18.3132 1989.16 18.3132C1990.26 18.3132 1991.12 20.2196 1991.12 22.5882V119.007H1987.19ZM1994.3 119.007V4.21724C1994.3 1.90642 1995.17 0 1996.26 0C1997.36 0 1998.23 1.90642 1998.23 4.21724V119.007H1994.3ZM2001.41 119.007V45.8697C2001.41 43.5589 2002.33 41.6525 2003.37 41.6525C2004.47 41.6525 2005.33 43.5589 2005.33 45.8697V119.007H2001.41ZM2008.51 119.007V38.4173C2008.51 36.1065 2009.43 34.2001 2010.47 34.2001C2011.57 34.2001 2012.44 36.1065 2012.44 38.4173V119.007H2008.51ZM2015.67 119.007V60.7745C2015.67 58.4637 2016.54 56.5572 2017.64 56.5572C2018.68 56.5572 2019.6 58.4637 2019.6 60.7745V119.007H2015.67ZM2022.78 119.007V81.1096C2022.78 78.7988 2023.65 76.8924 2024.74 76.8924C2025.84 76.8924 2026.71 78.7988 2026.71 81.1096V119.007H2022.78ZM2029.89 119.007V47.3717C2029.89 45.0609 2030.75 43.1545 2031.85 43.1545C2032.95 43.1545 2033.81 45.0609 2033.81 47.3717V119.007H2029.89ZM2036.99 119.007V42.4035C2036.99 40.0927 2037.86 38.1862 2038.96 38.1862C2040.05 38.1862 2040.92 40.0927 2040.92 42.4035V119.007H2036.99ZM2044.1 119.007V36.973C2044.1 34.6045 2045.02 32.698 2046.06 32.698C2047.16 32.698 2048.03 34.6045 2048.03 36.973V119.007H2044.1ZM2051.26 119.007V32.467C2051.26 30.1561 2052.13 28.2497 2053.22 28.2497C2054.26 28.2497 2055.19 30.1561 2055.19 32.467V119.007H2051.26ZM2058.37 119.007V61.7566C2058.37 59.4457 2059.23 57.5393 2060.33 57.5393C2061.37 57.5393 2062.29 59.4457 2062.29 61.7566V119.007H2058.37ZM2065.47 119.007V73.1951C2065.47 70.8265 2066.34 68.9201 2067.44 68.9201C2068.53 68.9201 2069.4 70.8265 2069.4 73.1951V119.007H2065.47ZM2072.58 119.007V11.1497C2072.58 8.83887 2073.45 6.93245 2074.54 6.93245C2075.64 6.93245 2076.51 8.83887 2076.51 11.1497V119.007H2072.58ZM2079.68 119.007V32.467C2079.68 30.1561 2080.55 28.2497 2081.65 28.2497C2082.75 28.2497 2083.61 30.1561 2083.61 32.467V119.007H2079.68ZM2086.79 119.007V23.5703C2086.79 21.2595 2087.71 19.3531 2088.75 19.3531C2089.85 19.3531 2090.72 21.2595 2090.72 23.5703V119.007H2086.79ZM2093.95 119.007V13.6338C2093.95 11.323 2094.82 9.41656 2095.92 9.41656C2096.96 9.41656 2097.88 11.323 2097.88 13.6338V119.007H2093.95ZM2101.06 119.007V22.0683C2101.06 19.7575 2101.93 17.8511 2103.02 17.8511C2104.06 17.8511 2104.99 19.7575 2104.99 22.0683V119.007H2101.06ZM2108.16 119.007V4.21724C2108.16 1.90642 2109.03 0 2110.13 0C2111.23 0 2112.09 1.90642 2112.09 4.21724V119.007H2108.16ZM1969.52 119.007V60.7745C1969.52 58.4637 1968.59 56.5572 1967.55 56.5572C1966.45 56.5572 1965.59 58.4637 1965.59 60.7745V119.007H1969.52ZM1962.35 119.007V26.5166C1962.35 24.2058 1961.49 22.2994 1960.39 22.2994C1959.35 22.2994 1958.42 24.2058 1958.42 26.5166V119.007H1962.35ZM1955.25 119.007V22.5882C1955.25 20.2196 1954.38 18.3132 1953.28 18.3132C1952.24 18.3132 1951.32 20.2196 1951.32 22.5882V119.007H1955.25ZM1948.14 119.007V4.21724C1948.14 1.90642 1947.27 0 1946.18 0C1945.08 0 1944.21 1.90642 1944.21 4.21724V119.007H1948.14ZM1941.03 119.007V45.8697C1941.03 43.5589 1940.17 41.6525 1939.07 41.6525C1937.97 41.6525 1937.11 43.5589 1937.11 45.8697V119.007H1941.03ZM1933.93 119.007V38.4173C1933.93 36.1065 1933.01 34.2001 1931.97 34.2001C1930.87 34.2001 1930 36.1065 1930 38.4173V119.007H1933.93ZM1926.82 119.007V60.7745C1926.82 58.4637 1925.9 56.5572 1924.86 56.5572C1923.76 56.5572 1922.9 58.4637 1922.9 60.7745V119.007H1926.82ZM1919.66 119.007V81.1096C1919.66 78.7988 1918.79 76.8924 1917.7 76.8924C1916.66 76.8924 1915.73 78.7988 1915.73 81.1096V119.007H1919.66ZM1912.55 119.007V47.3717C1912.55 45.0609 1911.69 43.1545 1910.59 43.1545C1909.55 43.1545 1908.63 45.0609 1908.63 47.3717V119.007H1912.55ZM1905.45 119.007V42.4035C1905.45 40.0927 1904.58 38.1862 1903.48 38.1862C1902.39 38.1862 1901.52 40.0927 1901.52 42.4035V119.007H1905.45ZM1898.34 119.007V36.973C1898.34 34.6045 1897.48 32.698 1896.38 32.698C1895.28 32.698 1894.41 34.6045 1894.41 36.973V119.007H1898.34ZM1891.24 119.007V32.467C1891.24 30.1561 1890.31 28.2497 1889.27 28.2497C1888.18 28.2497 1887.31 30.1561 1887.31 32.467V119.007H1891.24ZM1884.13 119.007V61.7566C1884.13 59.4457 1883.21 57.5393 1882.17 57.5393C1881.07 57.5393 1880.2 59.4457 1880.2 61.7566V119.007H1884.13ZM1876.97 119.007V73.1951C1876.97 70.8265 1876.1 68.9201 1875 68.9201C1873.96 68.9201 1873.04 70.8265 1873.04 73.1951V119.007H1876.97ZM1869.86 119.007V11.1497C1869.86 8.83887 1869 6.93245 1867.9 6.93245C1866.8 6.93245 1865.93 8.83887 1865.93 11.1497V119.007H1869.86ZM1862.76 119.007V32.467C1862.76 30.1561 1861.89 28.2497 1860.79 28.2497C1859.69 28.2497 1858.83 30.1561 1858.83 32.467V119.007H1862.76ZM1855.65 119.007V23.5703C1855.65 21.2595 1854.78 19.3531 1853.69 19.3531C1852.59 19.3531 1851.72 21.2595 1851.72 23.5703V119.007H1855.65ZM1848.55 119.007V13.6338C1848.55 11.323 1847.62 9.41656 1846.58 9.41656C1845.48 9.41656 1844.62 11.323 1844.62 13.6338V119.007H1848.55ZM1841.44 119.007V22.0683C1841.44 19.7575 1840.51 17.8511 1839.42 17.8511C1838.38 17.8511 1837.45 19.7575 1837.45 22.0683V119.007H1841.44ZM2685 119.007V4.21724C2685 1.90642 2685.87 0 2686.97 0C2688.06 0 2688.93 1.90642 2688.93 4.21724V119.007H2685ZM2677.9 119.007V22.5882C2677.9 20.2196 2678.76 18.3132 2679.86 18.3132C2680.96 18.3132 2681.83 20.2196 2681.83 22.5882V119.007H2677.9ZM2670.79 119.007V26.5166C2670.79 24.2058 2671.66 22.2994 2672.76 22.2994C2673.8 22.2994 2674.72 24.2058 2674.72 26.5166V119.007H2670.79ZM2663.63 119.007V60.7745C2663.63 58.4637 2664.55 56.5572 2665.65 56.5572C2666.69 56.5572 2667.61 58.4637 2667.61 60.7745V119.007H2663.63ZM2524.98 119.007V4.21724C2524.98 1.90642 2524.11 0 2523.01 0C2521.97 0 2521.05 1.90642 2521.05 4.21724V119.007H2524.98ZM2532.08 119.007V22.0683C2532.08 19.7575 2531.22 17.8511 2530.12 17.8511C2529.08 17.8511 2528.16 19.7575 2528.16 22.0683V119.007H2532.08ZM2539.25 119.007V13.6338C2539.25 11.323 2538.32 9.41656 2537.28 9.41656C2536.19 9.41656 2535.32 11.323 2535.32 13.6338V119.007H2539.25ZM2546.35 119.007V23.5703C2546.35 21.2595 2545.43 19.3531 2544.39 19.3531C2543.29 19.3531 2542.43 21.2595 2542.43 23.5703V119.007H2546.35ZM2553.46 119.007V32.467C2553.46 30.1561 2552.59 28.2497 2551.49 28.2497C2550.4 28.2497 2549.53 30.1561 2549.53 32.467V119.007H2553.46ZM2560.56 119.007V11.1497C2560.56 8.83887 2559.7 6.93245 2558.6 6.93245C2557.5 6.93245 2556.64 8.83887 2556.64 11.1497V119.007H2560.56ZM2567.67 119.007V73.1951C2567.67 70.8265 2566.8 68.9201 2565.71 68.9201C2564.67 68.9201 2563.74 70.8265 2563.74 73.1951V119.007H2567.67ZM2574.78 119.007V61.7566C2574.78 59.4457 2573.91 57.5393 2572.81 57.5393C2571.77 57.5393 2570.85 59.4457 2570.85 61.7566V119.007H2574.78ZM2581.94 119.007V32.467C2581.94 30.1561 2581.02 28.2497 2579.98 28.2497C2578.88 28.2497 2578.01 30.1561 2578.01 32.467V119.007H2581.94ZM2589.05 119.007V36.973C2589.05 34.6045 2588.12 32.698 2587.08 32.698C2585.98 32.698 2585.12 34.6045 2585.12 36.973V119.007H2589.05ZM2596.15 119.007V42.4035C2596.15 40.0927 2595.29 38.1862 2594.19 38.1862C2593.09 38.1862 2592.22 40.0927 2592.22 42.4035V119.007H2596.15ZM2603.26 119.007V47.3717C2603.26 45.0609 2602.39 43.1545 2601.29 43.1545C2600.2 43.1545 2599.33 45.0609 2599.33 47.3717V119.007H2603.26ZM2610.36 119.007V81.1096C2610.36 78.7988 2609.5 76.8924 2608.4 76.8924C2607.36 76.8924 2606.43 78.7988 2606.43 81.1096V119.007H2610.36ZM2617.47 119.007V60.7745C2617.47 58.4637 2616.6 56.5572 2615.5 56.5572C2614.46 56.5572 2613.54 58.4637 2613.54 60.7745V119.007H2617.47ZM2624.63 119.007V38.4173C2624.63 36.1065 2623.71 34.2001 2622.67 34.2001C2621.57 34.2001 2620.7 36.1065 2620.7 38.4173V119.007H2624.63ZM2631.74 119.007V45.8697C2631.74 43.5589 2630.87 41.6525 2629.77 41.6525C2628.68 41.6525 2627.81 43.5589 2627.81 45.8697V119.007H2631.74ZM2638.84 119.007V4.21724C2638.84 1.90642 2637.98 0 2636.88 0C2635.78 0 2634.92 1.90642 2634.92 4.21724V119.007H2638.84ZM2645.95 119.007V22.5882C2645.95 20.2196 2645.08 18.3132 2643.99 18.3132C2642.89 18.3132 2642.02 20.2196 2642.02 22.5882V119.007H2645.95ZM2653.06 119.007V26.5166C2653.06 24.2058 2652.19 22.2994 2651.09 22.2994C2650.05 22.2994 2649.13 24.2058 2649.13 26.5166V119.007H2653.06ZM2660.22 119.007V60.7745C2660.22 58.4637 2659.29 56.5572 2658.25 56.5572C2657.16 56.5572 2656.29 58.4637 2656.29 60.7745V119.007H2660.22ZM2514.06 119.007V47.3717C2514.06 45.0609 2514.93 43.1545 2516.02 43.1545C2517.12 43.1545 2517.99 45.0609 2517.99 47.3717V119.007H2514.06ZM2506.95 119.007V81.1096C2506.95 78.7988 2507.82 76.8924 2508.92 76.8924C2509.96 76.8924 2510.88 78.7988 2510.88 81.1096V119.007H2506.95ZM2499.85 119.007V60.7745C2499.85 58.4637 2500.71 56.5572 2501.81 56.5572C2502.85 56.5572 2503.78 58.4637 2503.78 60.7745V119.007H2499.85ZM2492.68 119.007V38.4173C2492.68 36.1065 2493.61 34.2001 2494.65 34.2001C2495.75 34.2001 2496.61 36.1065 2496.61 38.4173V119.007H2492.68ZM2485.58 119.007V45.8697C2485.58 43.5589 2486.45 41.6525 2487.54 41.6525C2488.64 41.6525 2489.51 43.5589 2489.51 45.8697V119.007H2485.58ZM2478.47 119.007V4.21724C2478.47 1.90642 2479.34 0 2480.44 0C2481.54 0 2482.4 1.90642 2482.4 4.21724V119.007H2478.47ZM2471.37 119.007V22.5882C2471.37 20.2196 2472.23 18.3132 2473.33 18.3132C2474.43 18.3132 2475.3 20.2196 2475.3 22.5882V119.007H2471.37ZM2464.26 119.007V26.5166C2464.26 24.2058 2465.13 22.2994 2466.23 22.2994C2467.27 22.2994 2468.19 24.2058 2468.19 26.5166V119.007H2464.26ZM2457.1 119.007V60.7745C2457.1 58.4637 2458.02 56.5572 2459.06 56.5572C2460.16 56.5572 2461.03 58.4637 2461.03 60.7745V119.007H2457.1ZM2325.55 119.007V22.0683C2325.55 19.7575 2324.69 17.8511 2323.59 17.8511C2322.55 17.8511 2321.63 19.7575 2321.63 22.0683V119.007H2325.55ZM2332.72 119.007V13.6338C2332.72 11.323 2331.79 9.41656 2330.75 9.41656C2329.66 9.41656 2328.79 11.323 2328.79 13.6338V119.007H2332.72ZM2339.82 119.007V23.5703C2339.82 21.2595 2338.9 19.3531 2337.86 19.3531C2336.76 19.3531 2335.9 21.2595 2335.9 23.5703V119.007H2339.82ZM2346.93 119.007V32.467C2346.93 30.1561 2346.06 28.2497 2344.97 28.2497C2343.87 28.2497 2343 30.1561 2343 32.467V119.007H2346.93ZM2354.04 119.007V11.1497C2354.04 8.83887 2353.17 6.93245 2352.07 6.93245C2350.97 6.93245 2350.11 8.83887 2350.11 11.1497V119.007H2354.04ZM2361.14 119.007V73.1951C2361.14 70.8265 2360.28 68.9201 2359.18 68.9201C2358.14 68.9201 2357.21 70.8265 2357.21 73.1951V119.007H2361.14ZM2368.25 119.007V61.7566C2368.25 59.4457 2367.38 57.5393 2366.28 57.5393C2365.24 57.5393 2364.32 59.4457 2364.32 61.7566V119.007H2368.25ZM2375.41 119.007V32.467C2375.41 30.1561 2374.49 28.2497 2373.45 28.2497C2372.35 28.2497 2371.48 30.1561 2371.48 32.467V119.007H2375.41ZM2382.52 119.007V36.973C2382.52 34.6045 2381.59 32.698 2380.55 32.698C2379.45 32.698 2378.59 34.6045 2378.59 36.973V119.007H2382.52ZM2389.62 119.007V42.4035C2389.62 40.0927 2388.76 38.1862 2387.66 38.1862C2386.56 38.1862 2385.69 40.0927 2385.69 42.4035V119.007H2389.62ZM2396.73 119.007V47.3717C2396.73 45.0609 2395.86 43.1545 2394.76 43.1545C2393.67 43.1545 2392.8 45.0609 2392.8 47.3717V119.007H2396.73ZM2403.83 119.007V81.1096C2403.83 78.7988 2402.97 76.8924 2401.87 76.8924C2400.83 76.8924 2399.91 78.7988 2399.91 81.1096V119.007H2403.83ZM2410.94 119.007V60.7745C2410.94 58.4637 2410.07 56.5572 2408.98 56.5572C2407.94 56.5572 2407.01 58.4637 2407.01 60.7745V119.007H2410.94ZM2418.1 119.007V38.4173C2418.1 36.1065 2417.18 34.2001 2416.14 34.2001C2415.04 34.2001 2414.17 36.1065 2414.17 38.4173V119.007H2418.1ZM2425.21 119.007V45.8697C2425.21 43.5589 2424.28 41.6525 2423.24 41.6525C2422.15 41.6525 2421.28 43.5589 2421.28 45.8697V119.007H2425.21ZM2432.31 119.007V4.21724C2432.31 1.90642 2431.45 0 2430.35 0C2429.25 0 2428.39 1.90642 2428.39 4.21724V119.007H2432.31ZM2439.42 119.007V22.5882C2439.42 20.2196 2438.55 18.3132 2437.46 18.3132C2436.36 18.3132 2435.49 20.2196 2435.49 22.5882V119.007H2439.42ZM2446.53 119.007V26.5166C2446.53 24.2058 2445.66 22.2994 2444.56 22.2994C2443.52 22.2994 2442.6 24.2058 2442.6 26.5166V119.007H2446.53ZM2453.69 119.007V60.7745C2453.69 58.4637 2452.77 56.5572 2451.73 56.5572C2450.63 56.5572 2449.7 58.4637 2449.7 60.7745V119.007H2453.69Z" fill="#CFCFCF"/>
<path fill-rule="evenodd" clip-rule="evenodd" d="M488.275 119.007V4.21724C488.275 1.90642 487.409 0 486.311 0C485.271 0 484.347 1.90642 484.347 4.21724V119.007H488.275ZM139.111 119.007V60.7745C139.111 58.4637 138.245 56.5572 137.147 56.5572C136.049 56.5572 135.183 58.4637 135.183 60.7745V119.007H139.111ZM132.005 119.007V26.5166C132.005 24.2058 131.081 22.2994 130.041 22.2994C128.944 22.2994 128.077 24.2058 128.077 26.5166V119.007H132.005ZM124.842 119.007V22.5882C124.842 20.2196 123.975 18.3132 122.878 18.3132C121.838 18.3132 120.913 20.2196 120.913 22.5882V119.007H124.842ZM117.736 119.007V4.21724C117.736 1.90642 116.87 0 115.772 0C114.732 0 113.808 1.90642 113.808 4.21724V119.007H117.736ZM110.63 119.007V45.8697C110.63 43.5589 109.764 41.6525 108.666 41.6525C107.568 41.6525 106.702 43.5589 106.702 45.8697V119.007H110.63ZM103.525 119.007V38.4173C103.525 36.1065 102.658 34.2001 101.56 34.2001C100.463 34.2001 99.5962 36.1065 99.5962 38.4173V119.007H103.525ZM96.4188 119.007V60.7745C96.4188 58.4637 95.5523 56.5572 94.4546 56.5572C93.357 56.5572 92.4904 58.4637 92.4904 60.7745V119.007H96.4188ZM89.313 119.007V81.1096C89.313 78.7988 88.3887 76.8924 87.3489 76.8924C86.2512 76.8924 85.3847 78.7988 85.3847 81.1096V119.007H89.313ZM82.1495 119.007V47.3717C82.1495 45.0609 81.283 43.1545 80.1853 43.1545C79.1455 43.1545 78.2211 45.0609 78.2211 47.3717V119.007H82.1495ZM75.0438 119.007V42.4035C75.0438 40.0927 74.1772 38.1862 73.0796 38.1862C72.0397 38.1862 71.1154 40.0927 71.1154 42.4035V119.007H75.0438ZM67.938 119.007V36.973C67.938 34.6045 67.0714 32.698 65.9738 32.698C64.8762 32.698 64.0096 34.6045 64.0096 36.973V119.007H67.938ZM60.8322 119.007V32.467C60.8322 30.1561 59.9657 28.2497 58.868 28.2497C57.7704 28.2497 56.9039 30.1561 56.9039 32.467V119.007H60.8322ZM53.7265 119.007V61.7566C53.7265 59.4457 52.8022 57.5393 51.7623 57.5393C50.6646 57.5393 49.7981 59.4457 49.7981 61.7566V119.007H53.7265ZM46.6207 119.007V73.1951C46.6207 70.8265 45.6964 68.9201 44.6565 68.9201C43.5589 68.9201 42.6923 70.8265 42.6923 73.1951V119.007H46.6207ZM39.4572 119.007V11.1497C39.4572 8.83887 38.5906 6.93245 37.493 6.93245C36.4531 6.93245 35.5288 8.83887 35.5288 11.1497V119.007H39.4572ZM32.3514 119.007V32.467C32.3514 30.1561 31.4849 28.2497 30.3872 28.2497C29.3474 28.2497 28.423 30.1561 28.423 32.467V119.007H32.3514ZM25.2457 119.007V23.5703C25.2457 21.2595 24.3791 19.3531 23.2815 19.3531C22.1838 19.3531 21.3173 21.2595 21.3173 23.5703V119.007H25.2457ZM18.1399 119.007V13.6338C18.1399 11.323 17.2734 9.41656 16.1757 9.41656C15.0781 9.41656 14.2115 11.323 14.2115 13.6338V119.007H18.1399ZM11.0341 119.007V22.0683C11.0341 19.7575 10.1098 17.8511 9.06995 17.8511C7.97232 17.8511 7.10576 19.7575 7.10576 22.0683V119.007H11.0341ZM3.92839 119.007V4.21724C3.92839 1.90642 3.00406 0 1.96419 0C0.866556 0 0 1.90642 0 4.21724V119.007H3.92839ZM142.577 119.007V60.7745C142.577 58.4637 143.444 56.5572 144.542 56.5572C145.639 56.5572 146.506 58.4637 146.506 60.7745V119.007H142.577ZM149.683 119.007V26.5166C149.683 24.2058 150.55 22.2994 151.647 22.2994C152.745 22.2994 153.612 24.2058 153.612 26.5166V119.007H149.683ZM156.789 119.007V22.5882C156.789 20.2196 157.655 18.3132 158.753 18.3132C159.851 18.3132 160.717 20.2196 160.717 22.5882V119.007H156.789ZM163.895 119.007V4.21724C163.895 1.90642 164.819 0 165.859 0C166.956 0 167.823 1.90642 167.823 4.21724V119.007H163.895ZM171.058 119.007V45.8697C171.058 43.5589 171.925 41.6525 173.022 41.6525C174.062 41.6525 174.987 43.5589 174.987 45.8697V119.007H171.058ZM178.164 119.007V38.4173C178.164 36.1065 179.03 34.2001 180.128 34.2001C181.168 34.2001 182.092 36.1065 182.092 38.4173V119.007H178.164ZM185.27 119.007V60.7745C185.27 58.4637 186.136 56.5572 187.234 56.5572C188.332 56.5572 189.198 58.4637 189.198 60.7745V119.007H185.27ZM192.375 119.007V81.1096C192.375 78.7988 193.242 76.8924 194.34 76.8924C195.437 76.8924 196.304 78.7988 196.304 81.1096V119.007H192.375ZM199.481 119.007V47.3717C199.481 45.0609 200.406 43.1545 201.445 43.1545C202.543 43.1545 203.41 45.0609 203.41 47.3717V119.007H199.481ZM345.64 119.007V60.7745C345.64 58.4637 344.774 56.5572 343.676 56.5572C342.579 56.5572 341.712 58.4637 341.712 60.7745V119.007H345.64ZM338.535 119.007V26.5166C338.535 24.2058 337.61 22.2994 336.57 22.2994C335.473 22.2994 334.606 24.2058 334.606 26.5166V119.007H338.535ZM331.429 119.007V22.5882C331.429 20.2196 330.504 18.3132 329.465 18.3132C328.367 18.3132 327.443 20.2196 327.443 22.5882V119.007H331.429ZM324.265 119.007V4.21724C324.265 1.90642 323.399 0 322.301 0C321.261 0 320.337 1.90642 320.337 4.21724V119.007H324.265ZM317.16 119.007V45.8697C317.16 43.5589 316.293 41.6525 315.195 41.6525C314.098 41.6525 313.231 43.5589 313.231 45.8697V119.007H317.16ZM310.054 119.007V38.4173C310.054 36.1065 309.187 34.2001 308.09 34.2001C306.992 34.2001 306.125 36.1065 306.125 38.4173V119.007H310.054ZM302.948 119.007V60.7745C302.948 58.4637 302.081 56.5572 300.984 56.5572C299.886 56.5572 299.02 58.4637 299.02 60.7745V119.007H302.948ZM295.842 119.007V81.1096C295.842 78.7988 294.918 76.8924 293.878 76.8924C292.78 76.8924 291.914 78.7988 291.914 81.1096V119.007H295.842ZM288.679 119.007V47.3717C288.679 45.0609 287.812 43.1545 286.715 43.1545C285.675 43.1545 284.75 45.0609 284.75 47.3717V119.007H288.679ZM281.573 119.007V42.4035C281.573 40.0927 280.706 38.1862 279.609 38.1862C278.569 38.1862 277.645 40.0927 277.645 42.4035V119.007H281.573ZM274.467 119.007V36.973C274.467 34.6045 273.601 32.698 272.503 32.698C271.405 32.698 270.539 34.6045 270.539 36.973V119.007H274.467ZM267.361 119.007V32.467C267.361 30.1561 266.495 28.2497 265.397 28.2497C264.3 28.2497 263.433 30.1561 263.433 32.467V119.007H267.361ZM260.256 119.007V61.7566C260.256 59.4457 259.331 57.5393 258.292 57.5393C257.194 57.5393 256.327 59.4457 256.327 61.7566V119.007H260.256ZM253.15 119.007V73.1951C253.15 70.8265 252.226 68.9201 251.186 68.9201C250.088 68.9201 249.222 70.8265 249.222 73.1951V119.007H253.15ZM245.986 119.007V11.1497C245.986 8.83887 245.12 6.93245 244.022 6.93245C242.982 6.93245 242.058 8.83887 242.058 11.1497V119.007H245.986ZM238.881 119.007V32.467C238.881 30.1561 238.014 28.2497 236.916 28.2497C235.877 28.2497 234.952 30.1561 234.952 32.467V119.007H238.881ZM231.775 119.007V23.5703C231.775 21.2595 230.908 19.3531 229.811 19.3531C228.713 19.3531 227.846 21.2595 227.846 23.5703V119.007H231.775ZM224.669 119.007V13.6338C224.669 11.323 223.803 9.41656 222.705 9.41656C221.607 9.41656 220.741 11.323 220.741 13.6338V119.007H224.669ZM217.563 119.007V22.0683C217.563 19.7575 216.639 17.8511 215.599 17.8511C214.502 17.8511 213.635 19.7575 213.635 22.0683V119.007H217.563ZM210.458 119.007V4.21724C210.458 1.90642 209.533 0 208.493 0C207.396 0 206.529 1.90642 206.529 4.21724V119.007H210.458ZM349.107 119.007V60.7745C349.107 58.4637 349.973 56.5572 351.071 56.5572C352.168 56.5572 353.035 58.4637 353.035 60.7745V119.007H349.107ZM356.212 119.007V26.5166C356.212 24.2058 357.079 22.2994 358.177 22.2994C359.274 22.2994 360.141 24.2058 360.141 26.5166V119.007H356.212ZM363.318 119.007V22.5882C363.318 20.2196 364.185 18.3132 365.282 18.3132C366.38 18.3132 367.246 20.2196 367.246 22.5882V119.007H363.318ZM370.424 119.007V4.21724C370.424 1.90642 371.348 0 372.388 0C373.486 0 374.352 1.90642 374.352 4.21724V119.007H370.424ZM377.587 119.007V45.8697C377.587 43.5589 378.454 41.6525 379.552 41.6525C380.591 41.6525 381.516 43.5589 381.516 45.8697V119.007H377.587ZM384.693 119.007V38.4173C384.693 36.1065 385.56 34.2001 386.657 34.2001C387.697 34.2001 388.621 36.1065 388.621 38.4173V119.007H384.693ZM391.799 119.007V60.7745C391.799 58.4637 392.665 56.5572 393.763 56.5572C394.861 56.5572 395.727 58.4637 395.727 60.7745V119.007H391.799ZM398.905 119.007V81.1096C398.905 78.7988 399.771 76.8924 400.869 76.8924C401.966 76.8924 402.833 78.7988 402.833 81.1096V119.007H398.905ZM406.01 119.007V47.3717C406.01 45.0609 406.935 43.1545 407.975 43.1545C409.072 43.1545 409.939 45.0609 409.939 47.3717V119.007H406.01ZM413.116 119.007V42.4035C413.116 40.0927 414.04 38.1862 415.08 38.1862C416.178 38.1862 417.045 40.0927 417.045 42.4035V119.007H413.116ZM420.28 119.007V36.973C420.28 34.6045 421.146 32.698 422.244 32.698C423.284 32.698 424.208 34.6045 424.208 36.973V119.007H420.28ZM427.385 119.007V32.467C427.385 30.1561 428.252 28.2497 429.35 28.2497C430.39 28.2497 431.314 30.1561 431.314 32.467V119.007H427.385ZM434.491 119.007V61.7566C434.491 59.4457 435.358 57.5393 436.455 57.5393C437.553 57.5393 438.42 59.4457 438.42 61.7566V119.007H434.491ZM441.597 119.007V73.1951C441.597 70.8265 442.464 68.9201 443.561 68.9201C444.659 68.9201 445.525 70.8265 445.525 73.1951V119.007H441.597ZM448.703 119.007V11.1497C448.703 8.83887 449.627 6.93245 450.667 6.93245C451.765 6.93245 452.631 8.83887 452.631 11.1497V119.007H448.703ZM455.808 119.007V32.467C455.808 30.1561 456.733 28.2497 457.773 28.2497C458.87 28.2497 459.737 30.1561 459.737 32.467V119.007H455.808ZM462.972 119.007V23.5703C462.972 21.2595 463.839 19.3531 464.936 19.3531C465.976 19.3531 466.9 21.2595 466.9 23.5703V119.007H462.972ZM470.078 119.007V13.6338C470.078 11.323 470.944 9.41656 472.042 9.41656C473.082 9.41656 474.006 11.323 474.006 13.6338V119.007H470.078ZM477.184 119.007V22.0683C477.184 19.7575 478.05 17.8511 479.148 17.8511C480.245 17.8511 481.112 19.7575 481.112 22.0683V119.007H477.184ZM833.511 119.007V60.7745C833.511 58.4637 834.378 56.5572 835.476 56.5572C836.515 56.5572 837.44 58.4637 837.44 60.7745V119.007H833.511ZM840.617 119.007V26.5166C840.617 24.2058 841.484 22.2994 842.581 22.2994C843.621 22.2994 844.546 24.2058 844.546 26.5166V119.007H840.617ZM847.723 119.007V22.5882C847.723 20.2196 848.589 18.3132 849.687 18.3132C850.785 18.3132 851.651 20.2196 851.651 22.5882V119.007H847.723ZM854.829 119.007V4.21724C854.829 1.90642 855.695 0 856.793 0C857.891 0 858.757 1.90642 858.757 4.21724V119.007H854.829ZM861.934 119.007V45.8697C861.934 43.5589 862.859 41.6525 863.899 41.6525C864.996 41.6525 865.863 43.5589 865.863 45.8697V119.007H861.934ZM869.04 119.007V38.4173C869.04 36.1065 869.965 34.2001 871.004 34.2001C872.102 34.2001 872.969 36.1065 872.969 38.4173V119.007H869.04ZM876.204 119.007V60.7745C876.204 58.4637 877.07 56.5572 878.168 56.5572C879.208 56.5572 880.132 58.4637 880.132 60.7745V119.007H876.204ZM883.309 119.007V81.1096C883.309 78.7988 884.176 76.8924 885.274 76.8924C886.371 76.8924 887.238 78.7988 887.238 81.1096V119.007H883.309ZM890.415 119.007V47.3717C890.415 45.0609 891.282 43.1545 892.379 43.1545C893.477 43.1545 894.344 45.0609 894.344 47.3717V119.007H890.415ZM897.521 119.007V42.4035C897.521 40.0927 898.388 38.1862 899.485 38.1862C900.583 38.1862 901.449 40.0927 901.449 42.4035V119.007H897.521ZM904.627 119.007V36.973C904.627 34.6045 905.551 32.698 906.591 32.698C907.689 32.698 908.555 34.6045 908.555 36.973V119.007H904.627ZM911.79 119.007V32.467C911.79 30.1561 912.657 28.2497 913.754 28.2497C914.794 28.2497 915.719 30.1561 915.719 32.467V119.007H911.79ZM918.896 119.007V61.7566C918.896 59.4457 919.763 57.5393 920.86 57.5393C921.9 57.5393 922.824 59.4457 922.824 61.7566V119.007H918.896ZM926.002 119.007V73.1951C926.002 70.8265 926.868 68.9201 927.966 68.9201C929.064 68.9201 929.93 70.8265 929.93 73.1951V119.007H926.002ZM933.108 119.007V11.1497C933.108 8.83887 933.974 6.93245 935.072 6.93245C936.169 6.93245 937.036 8.83887 937.036 11.1497V119.007H933.108ZM940.213 119.007V32.467C940.213 30.1561 941.138 28.2497 942.177 28.2497C943.275 28.2497 944.142 30.1561 944.142 32.467V119.007H940.213ZM947.319 119.007V23.5703C947.319 21.2595 948.243 19.3531 949.283 19.3531C950.381 19.3531 951.247 21.2595 951.247 23.5703V119.007H947.319ZM954.483 119.007V13.6338C954.483 11.323 955.349 9.41656 956.447 9.41656C957.487 9.41656 958.411 11.323 958.411 13.6338V119.007H954.483ZM961.588 119.007V22.0683C961.588 19.7575 962.455 17.8511 963.553 17.8511C964.592 17.8511 965.517 19.7575 965.517 22.0683V119.007H961.588ZM968.694 119.007V4.21724C968.694 1.90642 969.561 0 970.658 0C971.756 0 972.623 1.90642 972.623 4.21724V119.007H968.694ZM830.045 119.007V60.7745C830.045 58.4637 829.121 56.5572 828.081 56.5572C826.983 56.5572 826.117 58.4637 826.117 60.7745V119.007H830.045ZM822.882 119.007V26.5166C822.882 24.2058 822.015 22.2994 820.917 22.2994C819.878 22.2994 818.953 24.2058 818.953 26.5166V119.007H822.882ZM815.776 119.007V22.5882C815.776 20.2196 814.909 18.3132 813.812 18.3132C812.772 18.3132 811.847 20.2196 811.847 22.5882V119.007H815.776ZM808.67 119.007V4.21724C808.67 1.90642 807.804 0 806.706 0C805.608 0 804.742 1.90642 804.742 4.21724V119.007H808.67ZM801.564 119.007V45.8697C801.564 43.5589 800.698 41.6525 799.6 41.6525C798.503 41.6525 797.636 43.5589 797.636 45.8697V119.007H801.564ZM794.459 119.007V38.4173C794.459 36.1065 793.534 34.2001 792.494 34.2001C791.397 34.2001 790.53 36.1065 790.53 38.4173V119.007H794.459ZM787.353 119.007V60.7745C787.353 58.4637 786.429 56.5572 785.389 56.5572C784.291 56.5572 783.424 58.4637 783.424 60.7745V119.007H787.353ZM780.189 119.007V81.1096C780.189 78.7988 779.323 76.8924 778.225 76.8924C777.185 76.8924 776.261 78.7988 776.261 81.1096V119.007H780.189ZM773.083 119.007V47.3717C773.083 45.0609 772.217 43.1545 771.119 43.1545C770.079 43.1545 769.155 45.0609 769.155 47.3717V119.007H773.083ZM626.982 119.007V60.7745C626.982 58.4637 627.849 56.5572 628.946 56.5572C629.986 56.5572 630.911 58.4637 630.911 60.7745V119.007H626.982ZM634.088 119.007V26.5166C634.088 24.2058 634.955 22.2994 636.052 22.2994C637.092 22.2994 638.016 24.2058 638.016 26.5166V119.007H634.088ZM641.194 119.007V22.5882C641.194 20.2196 642.06 18.3132 643.158 18.3132C644.255 18.3132 645.122 20.2196 645.122 22.5882V119.007H641.194ZM648.299 119.007V4.21724C648.299 1.90642 649.166 0 650.264 0C651.361 0 652.228 1.90642 652.228 4.21724V119.007H648.299ZM655.405 119.007V45.8697C655.405 43.5589 656.33 41.6525 657.369 41.6525C658.467 41.6525 659.334 43.5589 659.334 45.8697V119.007H655.405ZM662.511 119.007V38.4173C662.511 36.1065 663.435 34.2001 664.475 34.2001C665.573 34.2001 666.439 36.1065 666.439 38.4173V119.007H662.511ZM669.674 119.007V60.7745C669.674 58.4637 670.541 56.5572 671.639 56.5572C672.679 56.5572 673.603 58.4637 673.603 60.7745V119.007H669.674ZM676.78 119.007V81.1096C676.78 78.7988 677.647 76.8924 678.744 76.8924C679.842 76.8924 680.709 78.7988 680.709 81.1096V119.007H676.78ZM683.886 119.007V47.3717C683.886 45.0609 684.753 43.1545 685.85 43.1545C686.948 43.1545 687.814 45.0609 687.814 47.3717V119.007H683.886ZM690.992 119.007V42.4035C690.992 40.0927 691.858 38.1862 692.956 38.1862C694.054 38.1862 694.92 40.0927 694.92 42.4035V119.007H690.992ZM698.098 119.007V36.973C698.098 34.6045 699.022 32.698 700.062 32.698C701.159 32.698 702.026 34.6045 702.026 36.973V119.007H698.098ZM705.261 119.007V32.467C705.261 30.1561 706.128 28.2497 707.225 28.2497C708.265 28.2497 709.189 30.1561 709.189 32.467V119.007H705.261ZM712.367 119.007V61.7566C712.367 59.4457 713.233 57.5393 714.331 57.5393C715.371 57.5393 716.295 59.4457 716.295 61.7566V119.007H712.367ZM719.473 119.007V73.1951C719.473 70.8265 720.339 68.9201 721.437 68.9201C722.534 68.9201 723.401 70.8265 723.401 73.1951V119.007H719.473ZM726.578 119.007V11.1497C726.578 8.83887 727.445 6.93245 728.543 6.93245C729.64 6.93245 730.507 8.83887 730.507 11.1497V119.007H726.578ZM733.684 119.007V32.467C733.684 30.1561 734.551 28.2497 735.648 28.2497C736.746 28.2497 737.612 30.1561 737.612 32.467V119.007H733.684ZM740.79 119.007V23.5703C740.79 21.2595 741.714 19.3531 742.754 19.3531C743.852 19.3531 744.718 21.2595 744.718 23.5703V119.007H740.79ZM747.953 119.007V13.6338C747.953 11.323 748.82 9.41656 749.918 9.41656C750.957 9.41656 751.882 11.323 751.882 13.6338V119.007H747.953ZM755.059 119.007V22.0683C755.059 19.7575 755.926 17.8511 757.023 17.8511C758.063 17.8511 758.988 19.7575 758.988 22.0683V119.007H755.059ZM762.165 119.007V4.21724C762.165 1.90642 763.032 0 764.129 0C765.227 0 766.093 1.90642 766.093 4.21724V119.007H762.165ZM623.516 119.007V60.7745C623.516 58.4637 622.592 56.5572 621.552 56.5572C620.454 56.5572 619.588 58.4637 619.588 60.7745V119.007H623.516ZM616.352 119.007V26.5166C616.352 24.2058 615.486 22.2994 614.388 22.2994C613.348 22.2994 612.424 24.2058 612.424 26.5166V119.007H616.352ZM609.247 119.007V22.5882C609.247 20.2196 608.38 18.3132 607.282 18.3132C606.243 18.3132 605.318 20.2196 605.318 22.5882V119.007H609.247ZM602.141 119.007V4.21724C602.141 1.90642 601.274 0 600.177 0C599.079 0 598.213 1.90642 598.213 4.21724V119.007H602.141ZM595.035 119.007V45.8697C595.035 43.5589 594.169 41.6525 593.071 41.6525C591.973 41.6525 591.107 43.5589 591.107 45.8697V119.007H595.035ZM587.929 119.007V38.4173C587.929 36.1065 587.005 34.2001 585.965 34.2001C584.868 34.2001 584.001 36.1065 584.001 38.4173V119.007H587.929ZM580.824 119.007V60.7745C580.824 58.4637 579.899 56.5572 578.859 56.5572C577.762 56.5572 576.895 58.4637 576.895 60.7745V119.007H580.824ZM573.66 119.007V81.1096C573.66 78.7988 572.794 76.8924 571.696 76.8924C570.656 76.8924 569.732 78.7988 569.732 81.1096V119.007H573.66ZM566.554 119.007V47.3717C566.554 45.0609 565.688 43.1545 564.59 43.1545C563.55 43.1545 562.626 45.0609 562.626 47.3717V119.007H566.554ZM559.449 119.007V42.4035C559.449 40.0927 558.582 38.1862 557.484 38.1862C556.387 38.1862 555.52 40.0927 555.52 42.4035V119.007H559.449ZM552.343 119.007V36.973C552.343 34.6045 551.476 32.698 550.379 32.698C549.281 32.698 548.414 34.6045 548.414 36.973V119.007H552.343ZM545.237 119.007V32.467C545.237 30.1561 544.313 28.2497 543.273 28.2497C542.175 28.2497 541.309 30.1561 541.309 32.467V119.007H545.237ZM538.131 119.007V61.7566C538.131 59.4457 537.207 57.5393 536.167 57.5393C535.069 57.5393 534.203 59.4457 534.203 61.7566V119.007H538.131ZM530.968 119.007V73.1951C530.968 70.8265 530.101 68.9201 529.004 68.9201C527.964 68.9201 527.039 70.8265 527.039 73.1951V119.007H530.968ZM523.862 119.007V11.1497C523.862 8.83887 522.995 6.93245 521.898 6.93245C520.8 6.93245 519.934 8.83887 519.934 11.1497V119.007H523.862ZM516.756 119.007V32.467C516.756 30.1561 515.89 28.2497 514.792 28.2497C513.694 28.2497 512.828 30.1561 512.828 32.467V119.007H516.756ZM509.651 119.007V23.5703C509.651 21.2595 508.784 19.3531 507.686 19.3531C506.589 19.3531 505.722 21.2595 505.722 23.5703V119.007H509.651ZM502.545 119.007V13.6338C502.545 11.323 501.62 9.41656 500.581 9.41656C499.483 9.41656 498.616 11.323 498.616 13.6338V119.007H502.545ZM495.439 119.007V22.0683C495.439 19.7575 494.515 17.8511 493.417 17.8511C492.377 17.8511 491.453 19.7575 491.453 22.0683V119.007H495.439ZM1339 119.007V4.21724C1339 1.90642 1339.87 0 1340.97 0C1342.06 0 1342.93 1.90642 1342.93 4.21724V119.007H1339ZM1331.9 119.007V22.5882C1331.9 20.2196 1332.76 18.3132 1333.86 18.3132C1334.96 18.3132 1335.83 20.2196 1335.83 22.5882V119.007H1331.9ZM1324.79 119.007V26.5166C1324.79 24.2058 1325.66 22.2994 1326.76 22.2994C1327.8 22.2994 1328.72 24.2058 1328.72 26.5166V119.007H1324.79ZM1317.63 119.007V60.7745C1317.63 58.4637 1318.55 56.5572 1319.65 56.5572C1320.69 56.5572 1321.61 58.4637 1321.61 60.7745V119.007H1317.63ZM1178.98 119.007V4.21724C1178.98 1.90642 1178.11 0 1177.01 0C1175.97 0 1175.05 1.90642 1175.05 4.21724V119.007H1178.98ZM1186.08 119.007V22.0683C1186.08 19.7575 1185.22 17.8511 1184.12 17.8511C1183.08 17.8511 1182.16 19.7575 1182.16 22.0683V119.007H1186.08ZM1193.25 119.007V13.6338C1193.25 11.323 1192.32 9.41656 1191.28 9.41656C1190.19 9.41656 1189.32 11.323 1189.32 13.6338V119.007H1193.25ZM1200.35 119.007V23.5703C1200.35 21.2595 1199.43 19.3531 1198.39 19.3531C1197.29 19.3531 1196.43 21.2595 1196.43 23.5703V119.007H1200.35ZM1207.46 119.007V32.467C1207.46 30.1561 1206.59 28.2497 1205.49 28.2497C1204.4 28.2497 1203.53 30.1561 1203.53 32.467V119.007H1207.46ZM1214.56 119.007V11.1497C1214.56 8.83887 1213.7 6.93245 1212.6 6.93245C1211.5 6.93245 1210.64 8.83887 1210.64 11.1497V119.007H1214.56ZM1221.67 119.007V73.1951C1221.67 70.8265 1220.8 68.9201 1219.71 68.9201C1218.67 68.9201 1217.74 70.8265 1217.74 73.1951V119.007H1221.67ZM1228.78 119.007V61.7566C1228.78 59.4457 1227.91 57.5393 1226.81 57.5393C1225.77 57.5393 1224.85 59.4457 1224.85 61.7566V119.007H1228.78ZM1235.94 119.007V32.467C1235.94 30.1561 1235.02 28.2497 1233.98 28.2497C1232.88 28.2497 1232.01 30.1561 1232.01 32.467V119.007H1235.94ZM1243.05 119.007V36.973C1243.05 34.6045 1242.12 32.698 1241.08 32.698C1239.98 32.698 1239.12 34.6045 1239.12 36.973V119.007H1243.05ZM1250.15 119.007V42.4035C1250.15 40.0927 1249.29 38.1862 1248.19 38.1862C1247.09 38.1862 1246.22 40.0927 1246.22 42.4035V119.007H1250.15ZM1257.26 119.007V47.3717C1257.26 45.0609 1256.39 43.1545 1255.29 43.1545C1254.2 43.1545 1253.33 45.0609 1253.33 47.3717V119.007H1257.26ZM1264.36 119.007V81.1096C1264.36 78.7988 1263.5 76.8924 1262.4 76.8924C1261.36 76.8924 1260.43 78.7988 1260.43 81.1096V119.007H1264.36ZM1271.47 119.007V60.7745C1271.47 58.4637 1270.6 56.5572 1269.5 56.5572C1268.46 56.5572 1267.54 58.4637 1267.54 60.7745V119.007H1271.47ZM1278.63 119.007V38.4173C1278.63 36.1065 1277.71 34.2001 1276.67 34.2001C1275.57 34.2001 1274.7 36.1065 1274.7 38.4173V119.007H1278.63ZM1285.74 119.007V45.8697C1285.74 43.5589 1284.87 41.6525 1283.77 41.6525C1282.68 41.6525 1281.81 43.5589 1281.81 45.8697V119.007H1285.74ZM1292.84 119.007V4.21724C1292.84 1.90642 1291.98 0 1290.88 0C1289.78 0 1288.92 1.90642 1288.92 4.21724V119.007H1292.84ZM1299.95 119.007V22.5882C1299.95 20.2196 1299.08 18.3132 1297.99 18.3132C1296.89 18.3132 1296.02 20.2196 1296.02 22.5882V119.007H1299.95ZM1307.06 119.007V26.5166C1307.06 24.2058 1306.19 22.2994 1305.09 22.2994C1304.05 22.2994 1303.13 24.2058 1303.13 26.5166V119.007H1307.06ZM1314.22 119.007V60.7745C1314.22 58.4637 1313.29 56.5572 1312.25 56.5572C1311.16 56.5572 1310.29 58.4637 1310.29 60.7745V119.007H1314.22ZM1168.06 119.007V47.3717C1168.06 45.0609 1168.93 43.1545 1170.02 43.1545C1171.12 43.1545 1171.99 45.0609 1171.99 47.3717V119.007H1168.06ZM1160.95 119.007V81.1096C1160.95 78.7988 1161.82 76.8924 1162.92 76.8924C1163.96 76.8924 1164.88 78.7988 1164.88 81.1096V119.007H1160.95ZM1153.85 119.007V60.7745C1153.85 58.4637 1154.71 56.5572 1155.81 56.5572C1156.85 56.5572 1157.78 58.4637 1157.78 60.7745V119.007H1153.85ZM1146.68 119.007V38.4173C1146.68 36.1065 1147.61 34.2001 1148.65 34.2001C1149.75 34.2001 1150.61 36.1065 1150.61 38.4173V119.007H1146.68ZM1139.58 119.007V45.8697C1139.58 43.5589 1140.45 41.6525 1141.54 41.6525C1142.64 41.6525 1143.51 43.5589 1143.51 45.8697V119.007H1139.58ZM1132.47 119.007V4.21724C1132.47 1.90642 1133.34 0 1134.44 0C1135.54 0 1136.4 1.90642 1136.4 4.21724V119.007H1132.47ZM1125.37 119.007V22.5882C1125.37 20.2196 1126.23 18.3132 1127.33 18.3132C1128.43 18.3132 1129.3 20.2196 1129.3 22.5882V119.007H1125.37ZM1118.26 119.007V26.5166C1118.26 24.2058 1119.13 22.2994 1120.23 22.2994C1121.27 22.2994 1122.19 24.2058 1122.19 26.5166V119.007H1118.26ZM1111.1 119.007V60.7745C1111.1 58.4637 1112.02 56.5572 1113.06 56.5572C1114.16 56.5572 1115.03 58.4637 1115.03 60.7745V119.007H1111.1ZM979.555 119.007V22.0683C979.555 19.7575 978.688 17.8511 977.591 17.8511C976.551 17.8511 975.627 19.7575 975.627 22.0683V119.007H979.555ZM986.719 119.007V13.6338C986.719 11.323 985.794 9.41656 984.754 9.41656C983.657 9.41656 982.79 11.323 982.79 13.6338V119.007H986.719ZM993.824 119.007V23.5703C993.824 21.2595 992.9 19.3531 991.86 19.3531C990.762 19.3531 989.896 21.2595 989.896 23.5703V119.007H993.824ZM1000.93 119.007V32.467C1000.93 30.1561 1000.06 28.2497 998.966 28.2497C997.868 28.2497 997.002 30.1561 997.002 32.467V119.007H1000.93ZM1008.04 119.007V11.1497C1008.04 8.83887 1007.17 6.93245 1006.07 6.93245C1004.97 6.93245 1004.11 8.83887 1004.11 11.1497V119.007H1008.04ZM1015.14 119.007V73.1951C1015.14 70.8265 1014.28 68.9201 1013.18 68.9201C1012.14 68.9201 1011.21 70.8265 1011.21 73.1951V119.007H1015.14ZM1022.25 119.007V61.7566C1022.25 59.4457 1021.38 57.5393 1020.28 57.5393C1019.24 57.5393 1018.32 59.4457 1018.32 61.7566V119.007H1022.25ZM1029.41 119.007V32.467C1029.41 30.1561 1028.49 28.2497 1027.45 28.2497C1026.35 28.2497 1025.48 30.1561 1025.48 32.467V119.007H1029.41ZM1036.52 119.007V36.973C1036.52 34.6045 1035.59 32.698 1034.55 32.698C1033.45 32.698 1032.59 34.6045 1032.59 36.973V119.007H1036.52ZM1043.62 119.007V42.4035C1043.62 40.0927 1042.76 38.1862 1041.66 38.1862C1040.56 38.1862 1039.69 40.0927 1039.69 42.4035V119.007H1043.62ZM1050.73 119.007V47.3717C1050.73 45.0609 1049.86 43.1545 1048.76 43.1545C1047.67 43.1545 1046.8 45.0609 1046.8 47.3717V119.007H1050.73ZM1057.83 119.007V81.1096C1057.83 78.7988 1056.97 76.8924 1055.87 76.8924C1054.83 76.8924 1053.91 78.7988 1053.91 81.1096V119.007H1057.83ZM1064.94 119.007V60.7745C1064.94 58.4637 1064.07 56.5572 1062.98 56.5572C1061.94 56.5572 1061.01 58.4637 1061.01 60.7745V119.007H1064.94ZM1072.1 119.007V38.4173C1072.1 36.1065 1071.18 34.2001 1070.14 34.2001C1069.04 34.2001 1068.17 36.1065 1068.17 38.4173V119.007H1072.1ZM1079.21 119.007V45.8697C1079.21 43.5589 1078.28 41.6525 1077.24 41.6525C1076.15 41.6525 1075.28 43.5589 1075.28 45.8697V119.007H1079.21ZM1086.31 119.007V4.21724C1086.31 1.90642 1085.45 0 1084.35 0C1083.25 0 1082.39 1.90642 1082.39 4.21724V119.007H1086.31ZM1093.42 119.007V22.5882C1093.42 20.2196 1092.55 18.3132 1091.46 18.3132C1090.36 18.3132 1089.49 20.2196 1089.49 22.5882V119.007H1093.42ZM1100.53 119.007V26.5166C1100.53 24.2058 1099.66 22.2994 1098.56 22.2994C1097.52 22.2994 1096.6 24.2058 1096.6 26.5166V119.007H1100.53ZM1107.69 119.007V60.7745C1107.69 58.4637 1106.77 56.5572 1105.73 56.5572C1104.63 56.5572 1103.7 58.4637 1103.7 60.7745V119.007H1107.69Z" fill="#CFCFCF"/>
<path fill-rule="evenodd" clip-rule="evenodd" d="M3180.27 119.007V4.21724C3180.27 1.90642 3179.41 0 3178.31 0C3177.27 0 3176.35 1.90642 3176.35 4.21724V119.007H3180.27ZM2831.11 119.007V60.7745C2831.11 58.4637 2830.25 56.5572 2829.15 56.5572C2828.05 56.5572 2827.18 58.4637 2827.18 60.7745V119.007H2831.11ZM2824.01 119.007V26.5166C2824.01 24.2058 2823.08 22.2994 2822.04 22.2994C2820.94 22.2994 2820.08 24.2058 2820.08 26.5166V119.007H2824.01ZM2816.84 119.007V22.5882C2816.84 20.2196 2815.97 18.3132 2814.88 18.3132C2813.84 18.3132 2812.91 20.2196 2812.91 22.5882V119.007H2816.84ZM2809.74 119.007V4.21724C2809.74 1.90642 2808.87 0 2807.77 0C2806.73 0 2805.81 1.90642 2805.81 4.21724V119.007H2809.74ZM2802.63 119.007V45.8697C2802.63 43.5589 2801.76 41.6525 2800.67 41.6525C2799.57 41.6525 2798.7 43.5589 2798.7 45.8697V119.007H2802.63ZM2795.53 119.007V38.4173C2795.53 36.1065 2794.66 34.2001 2793.56 34.2001C2792.46 34.2001 2791.6 36.1065 2791.6 38.4173V119.007H2795.53ZM2788.42 119.007V60.7745C2788.42 58.4637 2787.55 56.5572 2786.45 56.5572C2785.36 56.5572 2784.49 58.4637 2784.49 60.7745V119.007H2788.42ZM2781.31 119.007V81.1096C2781.31 78.7988 2780.39 76.8924 2779.35 76.8924C2778.25 76.8924 2777.38 78.7988 2777.38 81.1096V119.007H2781.31ZM2774.15 119.007V47.3717C2774.15 45.0609 2773.28 43.1545 2772.19 43.1545C2771.15 43.1545 2770.22 45.0609 2770.22 47.3717V119.007H2774.15ZM2767.04 119.007V42.4035C2767.04 40.0927 2766.18 38.1862 2765.08 38.1862C2764.04 38.1862 2763.12 40.0927 2763.12 42.4035V119.007H2767.04ZM2759.94 119.007V36.973C2759.94 34.6045 2759.07 32.698 2757.97 32.698C2756.88 32.698 2756.01 34.6045 2756.01 36.973V119.007H2759.94ZM2752.83 119.007V32.467C2752.83 30.1561 2751.97 28.2497 2750.87 28.2497C2749.77 28.2497 2748.9 30.1561 2748.9 32.467V119.007H2752.83ZM2745.73 119.007V61.7566C2745.73 59.4457 2744.8 57.5393 2743.76 57.5393C2742.66 57.5393 2741.8 59.4457 2741.8 61.7566V119.007H2745.73ZM2738.62 119.007V73.1951C2738.62 70.8265 2737.7 68.9201 2736.66 68.9201C2735.56 68.9201 2734.69 70.8265 2734.69 73.1951V119.007H2738.62ZM2731.46 119.007V11.1497C2731.46 8.83887 2730.59 6.93245 2729.49 6.93245C2728.45 6.93245 2727.53 8.83887 2727.53 11.1497V119.007H2731.46ZM2724.35 119.007V32.467C2724.35 30.1561 2723.48 28.2497 2722.39 28.2497C2721.35 28.2497 2720.42 30.1561 2720.42 32.467V119.007H2724.35ZM2717.25 119.007V23.5703C2717.25 21.2595 2716.38 19.3531 2715.28 19.3531C2714.18 19.3531 2713.32 21.2595 2713.32 23.5703V119.007H2717.25ZM2710.14 119.007V13.6338C2710.14 11.323 2709.27 9.41656 2708.18 9.41656C2707.08 9.41656 2706.21 11.323 2706.21 13.6338V119.007H2710.14ZM2703.03 119.007V22.0683C2703.03 19.7575 2702.11 17.8511 2701.07 17.8511C2699.97 17.8511 2699.11 19.7575 2699.11 22.0683V119.007H2703.03ZM2695.93 119.007V4.21724C2695.93 1.90642 2695 0 2693.96 0C2692.87 0 2692 1.90642 2692 4.21724V119.007H2695.93ZM2834.58 119.007V60.7745C2834.58 58.4637 2835.44 56.5572 2836.54 56.5572C2837.64 56.5572 2838.51 58.4637 2838.51 60.7745V119.007H2834.58ZM2841.68 119.007V26.5166C2841.68 24.2058 2842.55 22.2994 2843.65 22.2994C2844.75 22.2994 2845.61 24.2058 2845.61 26.5166V119.007H2841.68ZM2848.79 119.007V22.5882C2848.79 20.2196 2849.66 18.3132 2850.75 18.3132C2851.85 18.3132 2852.72 20.2196 2852.72 22.5882V119.007H2848.79ZM2855.9 119.007V4.21724C2855.9 1.90642 2856.82 0 2857.86 0C2858.96 0 2859.82 1.90642 2859.82 4.21724V119.007H2855.9ZM2863.06 119.007V45.8697C2863.06 43.5589 2863.93 41.6525 2865.02 41.6525C2866.06 41.6525 2866.99 43.5589 2866.99 45.8697V119.007H2863.06ZM2870.16 119.007V38.4173C2870.16 36.1065 2871.03 34.2001 2872.13 34.2001C2873.17 34.2001 2874.09 36.1065 2874.09 38.4173V119.007H2870.16ZM2877.27 119.007V60.7745C2877.27 58.4637 2878.14 56.5572 2879.23 56.5572C2880.33 56.5572 2881.2 58.4637 2881.2 60.7745V119.007H2877.27ZM2884.38 119.007V81.1096C2884.38 78.7988 2885.24 76.8924 2886.34 76.8924C2887.44 76.8924 2888.3 78.7988 2888.3 81.1096V119.007H2884.38ZM2891.48 119.007V47.3717C2891.48 45.0609 2892.41 43.1545 2893.45 43.1545C2894.54 43.1545 2895.41 45.0609 2895.41 47.3717V119.007H2891.48ZM3037.64 119.007V60.7745C3037.64 58.4637 3036.77 56.5572 3035.68 56.5572C3034.58 56.5572 3033.71 58.4637 3033.71 60.7745V119.007H3037.64ZM3030.54 119.007V26.5166C3030.54 24.2058 3029.61 22.2994 3028.57 22.2994C3027.47 22.2994 3026.61 24.2058 3026.61 26.5166V119.007H3030.54ZM3023.43 119.007V22.5882C3023.43 20.2196 3022.5 18.3132 3021.46 18.3132C3020.37 18.3132 3019.44 20.2196 3019.44 22.5882V119.007H3023.43ZM3016.27 119.007V4.21724C3016.27 1.90642 3015.4 0 3014.3 0C3013.26 0 3012.34 1.90642 3012.34 4.21724V119.007H3016.27ZM3009.16 119.007V45.8697C3009.16 43.5589 3008.29 41.6525 3007.2 41.6525C3006.1 41.6525 3005.23 43.5589 3005.23 45.8697V119.007H3009.16ZM3002.05 119.007V38.4173C3002.05 36.1065 3001.19 34.2001 3000.09 34.2001C2998.99 34.2001 2998.12 36.1065 2998.12 38.4173V119.007H3002.05ZM2994.95 119.007V60.7745C2994.95 58.4637 2994.08 56.5572 2992.98 56.5572C2991.89 56.5572 2991.02 58.4637 2991.02 60.7745V119.007H2994.95ZM2987.84 119.007V81.1096C2987.84 78.7988 2986.92 76.8924 2985.88 76.8924C2984.78 76.8924 2983.91 78.7988 2983.91 81.1096V119.007H2987.84ZM2980.68 119.007V47.3717C2980.68 45.0609 2979.81 43.1545 2978.71 43.1545C2977.67 43.1545 2976.75 45.0609 2976.75 47.3717V119.007H2980.68ZM2973.57 119.007V42.4035C2973.57 40.0927 2972.71 38.1862 2971.61 38.1862C2970.57 38.1862 2969.64 40.0927 2969.64 42.4035V119.007H2973.57ZM2966.47 119.007V36.973C2966.47 34.6045 2965.6 32.698 2964.5 32.698C2963.4 32.698 2962.54 34.6045 2962.54 36.973V119.007H2966.47ZM2959.36 119.007V32.467C2959.36 30.1561 2958.5 28.2497 2957.4 28.2497C2956.3 28.2497 2955.43 30.1561 2955.43 32.467V119.007H2959.36ZM2952.26 119.007V61.7566C2952.26 59.4457 2951.33 57.5393 2950.29 57.5393C2949.19 57.5393 2948.33 59.4457 2948.33 61.7566V119.007H2952.26ZM2945.15 119.007V73.1951C2945.15 70.8265 2944.23 68.9201 2943.19 68.9201C2942.09 68.9201 2941.22 70.8265 2941.22 73.1951V119.007H2945.15ZM2937.99 119.007V11.1497C2937.99 8.83887 2937.12 6.93245 2936.02 6.93245C2934.98 6.93245 2934.06 8.83887 2934.06 11.1497V119.007H2937.99ZM2930.88 119.007V32.467C2930.88 30.1561 2930.01 28.2497 2928.92 28.2497C2927.88 28.2497 2926.95 30.1561 2926.95 32.467V119.007H2930.88ZM2923.77 119.007V23.5703C2923.77 21.2595 2922.91 19.3531 2921.81 19.3531C2920.71 19.3531 2919.85 21.2595 2919.85 23.5703V119.007H2923.77ZM2916.67 119.007V13.6338C2916.67 11.323 2915.8 9.41656 2914.71 9.41656C2913.61 9.41656 2912.74 11.323 2912.74 13.6338V119.007H2916.67ZM2909.56 119.007V22.0683C2909.56 19.7575 2908.64 17.8511 2907.6 17.8511C2906.5 17.8511 2905.63 19.7575 2905.63 22.0683V119.007H2909.56ZM2902.46 119.007V4.21724C2902.46 1.90642 2901.53 0 2900.49 0C2899.4 0 2898.53 1.90642 2898.53 4.21724V119.007H2902.46ZM3041.11 119.007V60.7745C3041.11 58.4637 3041.97 56.5572 3043.07 56.5572C3044.17 56.5572 3045.04 58.4637 3045.04 60.7745V119.007H3041.11ZM3048.21 119.007V26.5166C3048.21 24.2058 3049.08 22.2994 3050.18 22.2994C3051.27 22.2994 3052.14 24.2058 3052.14 26.5166V119.007H3048.21ZM3055.32 119.007V22.5882C3055.32 20.2196 3056.19 18.3132 3057.28 18.3132C3058.38 18.3132 3059.25 20.2196 3059.25 22.5882V119.007H3055.32ZM3062.42 119.007V4.21724C3062.42 1.90642 3063.35 0 3064.39 0C3065.49 0 3066.35 1.90642 3066.35 4.21724V119.007H3062.42ZM3069.59 119.007V45.8697C3069.59 43.5589 3070.45 41.6525 3071.55 41.6525C3072.59 41.6525 3073.52 43.5589 3073.52 45.8697V119.007H3069.59ZM3076.69 119.007V38.4173C3076.69 36.1065 3077.56 34.2001 3078.66 34.2001C3079.7 34.2001 3080.62 36.1065 3080.62 38.4173V119.007H3076.69ZM3083.8 119.007V60.7745C3083.8 58.4637 3084.67 56.5572 3085.76 56.5572C3086.86 56.5572 3087.73 58.4637 3087.73 60.7745V119.007H3083.8ZM3090.9 119.007V81.1096C3090.9 78.7988 3091.77 76.8924 3092.87 76.8924C3093.97 76.8924 3094.83 78.7988 3094.83 81.1096V119.007H3090.9ZM3098.01 119.007V47.3717C3098.01 45.0609 3098.94 43.1545 3099.98 43.1545C3101.07 43.1545 3101.94 45.0609 3101.94 47.3717V119.007H3098.01ZM3105.12 119.007V42.4035C3105.12 40.0927 3106.04 38.1862 3107.08 38.1862C3108.18 38.1862 3109.05 40.0927 3109.05 42.4035V119.007H3105.12ZM3112.28 119.007V36.973C3112.28 34.6045 3113.15 32.698 3114.24 32.698C3115.28 32.698 3116.21 34.6045 3116.21 36.973V119.007H3112.28ZM3119.39 119.007V32.467C3119.39 30.1561 3120.25 28.2497 3121.35 28.2497C3122.39 28.2497 3123.31 30.1561 3123.31 32.467V119.007H3119.39ZM3126.49 119.007V61.7566C3126.49 59.4457 3127.36 57.5393 3128.45 57.5393C3129.55 57.5393 3130.42 59.4457 3130.42 61.7566V119.007H3126.49ZM3133.6 119.007V73.1951C3133.6 70.8265 3134.46 68.9201 3135.56 68.9201C3136.66 68.9201 3137.52 70.8265 3137.52 73.1951V119.007H3133.6ZM3140.7 119.007V11.1497C3140.7 8.83887 3141.63 6.93245 3142.67 6.93245C3143.76 6.93245 3144.63 8.83887 3144.63 11.1497V119.007H3140.7ZM3147.81 119.007V32.467C3147.81 30.1561 3148.73 28.2497 3149.77 28.2497C3150.87 28.2497 3151.74 30.1561 3151.74 32.467V119.007H3147.81ZM3154.97 119.007V23.5703C3154.97 21.2595 3155.84 19.3531 3156.94 19.3531C3157.98 19.3531 3158.9 21.2595 3158.9 23.5703V119.007H3154.97ZM3162.08 119.007V13.6338C3162.08 11.323 3162.94 9.41656 3164.04 9.41656C3165.08 9.41656 3166.01 11.323 3166.01 13.6338V119.007H3162.08ZM3169.18 119.007V22.0683C3169.18 19.7575 3170.05 17.8511 3171.15 17.8511C3172.25 17.8511 3173.11 19.7575 3173.11 22.0683V119.007H3169.18ZM3525.51 119.007V60.7745C3525.51 58.4637 3526.38 56.5572 3527.48 56.5572C3528.52 56.5572 3529.44 58.4637 3529.44 60.7745V119.007H3525.51ZM3532.62 119.007V26.5166C3532.62 24.2058 3533.48 22.2994 3534.58 22.2994C3535.62 22.2994 3536.55 24.2058 3536.55 26.5166V119.007H3532.62ZM3539.72 119.007V22.5882C3539.72 20.2196 3540.59 18.3132 3541.69 18.3132C3542.79 18.3132 3543.65 20.2196 3543.65 22.5882V119.007H3539.72ZM3546.83 119.007V4.21724C3546.83 1.90642 3547.7 0 3548.79 0C3549.89 0 3550.76 1.90642 3550.76 4.21724V119.007H3546.83ZM3553.93 119.007V45.8697C3553.93 43.5589 3554.86 41.6525 3555.9 41.6525C3557 41.6525 3557.86 43.5589 3557.86 45.8697V119.007H3553.93ZM3561.04 119.007V38.4173C3561.04 36.1065 3561.97 34.2001 3563 34.2001C3564.1 34.2001 3564.97 36.1065 3564.97 38.4173V119.007H3561.04ZM3568.2 119.007V60.7745C3568.2 58.4637 3569.07 56.5572 3570.17 56.5572C3571.21 56.5572 3572.13 58.4637 3572.13 60.7745V119.007H3568.2ZM3575.31 119.007V81.1096C3575.31 78.7988 3576.18 76.8924 3577.27 76.8924C3578.37 76.8924 3579.24 78.7988 3579.24 81.1096V119.007H3575.31ZM3582.41 119.007V47.3717C3582.41 45.0609 3583.28 43.1545 3584.38 43.1545C3585.48 43.1545 3586.34 45.0609 3586.34 47.3717V119.007H3582.41ZM3589.52 119.007V42.4035C3589.52 40.0927 3590.39 38.1862 3591.48 38.1862C3592.58 38.1862 3593.45 40.0927 3593.45 42.4035V119.007H3589.52ZM3596.63 119.007V36.973C3596.63 34.6045 3597.55 32.698 3598.59 32.698C3599.69 32.698 3600.55 34.6045 3600.55 36.973V119.007H3596.63ZM3603.79 119.007V32.467C3603.79 30.1561 3604.66 28.2497 3605.75 28.2497C3606.79 28.2497 3607.72 30.1561 3607.72 32.467V119.007H3603.79ZM3610.9 119.007V61.7566C3610.9 59.4457 3611.76 57.5393 3612.86 57.5393C3613.9 57.5393 3614.82 59.4457 3614.82 61.7566V119.007H3610.9ZM3618 119.007V73.1951C3618 70.8265 3618.87 68.9201 3619.97 68.9201C3621.06 68.9201 3621.93 70.8265 3621.93 73.1951V119.007H3618ZM3625.11 119.007V11.1497C3625.11 8.83887 3625.97 6.93245 3627.07 6.93245C3628.17 6.93245 3629.04 8.83887 3629.04 11.1497V119.007H3625.11ZM3632.21 119.007V32.467C3632.21 30.1561 3633.14 28.2497 3634.18 28.2497C3635.28 28.2497 3636.14 30.1561 3636.14 32.467V119.007H3632.21ZM3639.32 119.007V23.5703C3639.32 21.2595 3640.24 19.3531 3641.28 19.3531C3642.38 19.3531 3643.25 21.2595 3643.25 23.5703V119.007H3639.32ZM3646.48 119.007V13.6338C3646.48 11.323 3647.35 9.41656 3648.45 9.41656C3649.49 9.41656 3650.41 11.323 3650.41 13.6338V119.007H3646.48ZM3653.59 119.007V22.0683C3653.59 19.7575 3654.45 17.8511 3655.55 17.8511C3656.59 17.8511 3657.52 19.7575 3657.52 22.0683V119.007H3653.59ZM3660.69 119.007V4.21724C3660.69 1.90642 3661.56 0 3662.66 0C3663.76 0 3664.62 1.90642 3664.62 4.21724V119.007H3660.69ZM3522.04 119.007V60.7745C3522.04 58.4637 3521.12 56.5572 3520.08 56.5572C3518.98 56.5572 3518.12 58.4637 3518.12 60.7745V119.007H3522.04ZM3514.88 119.007V26.5166C3514.88 24.2058 3514.01 22.2994 3512.92 22.2994C3511.88 22.2994 3510.95 24.2058 3510.95 26.5166V119.007H3514.88ZM3507.78 119.007V22.5882C3507.78 20.2196 3506.91 18.3132 3505.81 18.3132C3504.77 18.3132 3503.85 20.2196 3503.85 22.5882V119.007H3507.78ZM3500.67 119.007V4.21724C3500.67 1.90642 3499.8 0 3498.71 0C3497.61 0 3496.74 1.90642 3496.74 4.21724V119.007H3500.67ZM3493.56 119.007V45.8697C3493.56 43.5589 3492.7 41.6525 3491.6 41.6525C3490.5 41.6525 3489.64 43.5589 3489.64 45.8697V119.007H3493.56ZM3486.46 119.007V38.4173C3486.46 36.1065 3485.53 34.2001 3484.49 34.2001C3483.4 34.2001 3482.53 36.1065 3482.53 38.4173V119.007H3486.46ZM3479.35 119.007V60.7745C3479.35 58.4637 3478.43 56.5572 3477.39 56.5572C3476.29 56.5572 3475.42 58.4637 3475.42 60.7745V119.007H3479.35ZM3472.19 119.007V81.1096C3472.19 78.7988 3471.32 76.8924 3470.22 76.8924C3469.18 76.8924 3468.26 78.7988 3468.26 81.1096V119.007H3472.19ZM3465.08 119.007V47.3717C3465.08 45.0609 3464.22 43.1545 3463.12 43.1545C3462.08 43.1545 3461.16 45.0609 3461.16 47.3717V119.007H3465.08ZM3318.98 119.007V60.7745C3318.98 58.4637 3319.85 56.5572 3320.95 56.5572C3321.99 56.5572 3322.91 58.4637 3322.91 60.7745V119.007H3318.98ZM3326.09 119.007V26.5166C3326.09 24.2058 3326.96 22.2994 3328.05 22.2994C3329.09 22.2994 3330.02 24.2058 3330.02 26.5166V119.007H3326.09ZM3333.19 119.007V22.5882C3333.19 20.2196 3334.06 18.3132 3335.16 18.3132C3336.26 18.3132 3337.12 20.2196 3337.12 22.5882V119.007H3333.19ZM3340.3 119.007V4.21724C3340.3 1.90642 3341.17 0 3342.26 0C3343.36 0 3344.23 1.90642 3344.23 4.21724V119.007H3340.3ZM3347.41 119.007V45.8697C3347.41 43.5589 3348.33 41.6525 3349.37 41.6525C3350.47 41.6525 3351.33 43.5589 3351.33 45.8697V119.007H3347.41ZM3354.51 119.007V38.4173C3354.51 36.1065 3355.43 34.2001 3356.47 34.2001C3357.57 34.2001 3358.44 36.1065 3358.44 38.4173V119.007H3354.51ZM3361.67 119.007V60.7745C3361.67 58.4637 3362.54 56.5572 3363.64 56.5572C3364.68 56.5572 3365.6 58.4637 3365.6 60.7745V119.007H3361.67ZM3368.78 119.007V81.1096C3368.78 78.7988 3369.65 76.8924 3370.74 76.8924C3371.84 76.8924 3372.71 78.7988 3372.71 81.1096V119.007H3368.78ZM3375.89 119.007V47.3717C3375.89 45.0609 3376.75 43.1545 3377.85 43.1545C3378.95 43.1545 3379.81 45.0609 3379.81 47.3717V119.007H3375.89ZM3382.99 119.007V42.4035C3382.99 40.0927 3383.86 38.1862 3384.96 38.1862C3386.05 38.1862 3386.92 40.0927 3386.92 42.4035V119.007H3382.99ZM3390.1 119.007V36.973C3390.1 34.6045 3391.02 32.698 3392.06 32.698C3393.16 32.698 3394.03 34.6045 3394.03 36.973V119.007H3390.1ZM3397.26 119.007V32.467C3397.26 30.1561 3398.13 28.2497 3399.22 28.2497C3400.26 28.2497 3401.19 30.1561 3401.19 32.467V119.007H3397.26ZM3404.37 119.007V61.7566C3404.37 59.4457 3405.23 57.5393 3406.33 57.5393C3407.37 57.5393 3408.29 59.4457 3408.29 61.7566V119.007H3404.37ZM3411.47 119.007V73.1951C3411.47 70.8265 3412.34 68.9201 3413.44 68.9201C3414.53 68.9201 3415.4 70.8265 3415.4 73.1951V119.007H3411.47ZM3418.58 119.007V11.1497C3418.58 8.83887 3419.45 6.93245 3420.54 6.93245C3421.64 6.93245 3422.51 8.83887 3422.51 11.1497V119.007H3418.58ZM3425.68 119.007V32.467C3425.68 30.1561 3426.55 28.2497 3427.65 28.2497C3428.75 28.2497 3429.61 30.1561 3429.61 32.467V119.007H3425.68ZM3432.79 119.007V23.5703C3432.79 21.2595 3433.71 19.3531 3434.75 19.3531C3435.85 19.3531 3436.72 21.2595 3436.72 23.5703V119.007H3432.79ZM3439.95 119.007V13.6338C3439.95 11.323 3440.82 9.41656 3441.92 9.41656C3442.96 9.41656 3443.88 11.323 3443.88 13.6338V119.007H3439.95ZM3447.06 119.007V22.0683C3447.06 19.7575 3447.93 17.8511 3449.02 17.8511C3450.06 17.8511 3450.99 19.7575 3450.99 22.0683V119.007H3447.06ZM3454.16 119.007V4.21724C3454.16 1.90642 3455.03 0 3456.13 0C3457.23 0 3458.09 1.90642 3458.09 4.21724V119.007H3454.16ZM3315.52 119.007V60.7745C3315.52 58.4637 3314.59 56.5572 3313.55 56.5572C3312.45 56.5572 3311.59 58.4637 3311.59 60.7745V119.007H3315.52ZM3308.35 119.007V26.5166C3308.35 24.2058 3307.49 22.2994 3306.39 22.2994C3305.35 22.2994 3304.42 24.2058 3304.42 26.5166V119.007H3308.35ZM3301.25 119.007V22.5882C3301.25 20.2196 3300.38 18.3132 3299.28 18.3132C3298.24 18.3132 3297.32 20.2196 3297.32 22.5882V119.007H3301.25ZM3294.14 119.007V4.21724C3294.14 1.90642 3293.27 0 3292.18 0C3291.08 0 3290.21 1.90642 3290.21 4.21724V119.007H3294.14ZM3287.03 119.007V45.8697C3287.03 43.5589 3286.17 41.6525 3285.07 41.6525C3283.97 41.6525 3283.11 43.5589 3283.11 45.8697V119.007H3287.03ZM3279.93 119.007V38.4173C3279.93 36.1065 3279.01 34.2001 3277.97 34.2001C3276.87 34.2001 3276 36.1065 3276 38.4173V119.007H3279.93ZM3272.82 119.007V60.7745C3272.82 58.4637 3271.9 56.5572 3270.86 56.5572C3269.76 56.5572 3268.9 58.4637 3268.9 60.7745V119.007H3272.82ZM3265.66 119.007V81.1096C3265.66 78.7988 3264.79 76.8924 3263.7 76.8924C3262.66 76.8924 3261.73 78.7988 3261.73 81.1096V119.007H3265.66ZM3258.55 119.007V47.3717C3258.55 45.0609 3257.69 43.1545 3256.59 43.1545C3255.55 43.1545 3254.63 45.0609 3254.63 47.3717V119.007H3258.55ZM3251.45 119.007V42.4035C3251.45 40.0927 3250.58 38.1862 3249.48 38.1862C3248.39 38.1862 3247.52 40.0927 3247.52 42.4035V119.007H3251.45ZM3244.34 119.007V36.973C3244.34 34.6045 3243.48 32.698 3242.38 32.698C3241.28 32.698 3240.41 34.6045 3240.41 36.973V119.007H3244.34ZM3237.24 119.007V32.467C3237.24 30.1561 3236.31 28.2497 3235.27 28.2497C3234.18 28.2497 3233.31 30.1561 3233.31 32.467V119.007H3237.24ZM3230.13 119.007V61.7566C3230.13 59.4457 3229.21 57.5393 3228.17 57.5393C3227.07 57.5393 3226.2 59.4457 3226.2 61.7566V119.007H3230.13ZM3222.97 119.007V73.1951C3222.97 70.8265 3222.1 68.9201 3221 68.9201C3219.96 68.9201 3219.04 70.8265 3219.04 73.1951V119.007H3222.97ZM3215.86 119.007V11.1497C3215.86 8.83887 3215 6.93245 3213.9 6.93245C3212.8 6.93245 3211.93 8.83887 3211.93 11.1497V119.007H3215.86ZM3208.76 119.007V32.467C3208.76 30.1561 3207.89 28.2497 3206.79 28.2497C3205.69 28.2497 3204.83 30.1561 3204.83 32.467V119.007H3208.76ZM3201.65 119.007V23.5703C3201.65 21.2595 3200.78 19.3531 3199.69 19.3531C3198.59 19.3531 3197.72 21.2595 3197.72 23.5703V119.007H3201.65ZM3194.55 119.007V13.6338C3194.55 11.323 3193.62 9.41656 3192.58 9.41656C3191.48 9.41656 3190.62 11.323 3190.62 13.6338V119.007H3194.55ZM3187.44 119.007V22.0683C3187.44 19.7575 3186.51 17.8511 3185.42 17.8511C3184.38 17.8511 3183.45 19.7575 3183.45 22.0683V119.007H3187.44ZM4031 119.007V4.21724C4031 1.90642 4031.87 0 4032.97 0C4034.06 0 4034.93 1.90642 4034.93 4.21724V119.007H4031ZM4023.9 119.007V22.5882C4023.9 20.2196 4024.76 18.3132 4025.86 18.3132C4026.96 18.3132 4027.83 20.2196 4027.83 22.5882V119.007H4023.9ZM4016.79 119.007V26.5166C4016.79 24.2058 4017.66 22.2994 4018.76 22.2994C4019.8 22.2994 4020.72 24.2058 4020.72 26.5166V119.007H4016.79ZM4009.63 119.007V60.7745C4009.63 58.4637 4010.55 56.5572 4011.65 56.5572C4012.69 56.5572 4013.61 58.4637 4013.61 60.7745V119.007H4009.63ZM3870.98 119.007V4.21724C3870.98 1.90642 3870.11 0 3869.01 0C3867.97 0 3867.05 1.90642 3867.05 4.21724V119.007H3870.98ZM3878.08 119.007V22.0683C3878.08 19.7575 3877.22 17.8511 3876.12 17.8511C3875.08 17.8511 3874.16 19.7575 3874.16 22.0683V119.007H3878.08ZM3885.25 119.007V13.6338C3885.25 11.323 3884.32 9.41656 3883.28 9.41656C3882.19 9.41656 3881.32 11.323 3881.32 13.6338V119.007H3885.25ZM3892.35 119.007V23.5703C3892.35 21.2595 3891.43 19.3531 3890.39 19.3531C3889.29 19.3531 3888.43 21.2595 3888.43 23.5703V119.007H3892.35ZM3899.46 119.007V32.467C3899.46 30.1561 3898.59 28.2497 3897.49 28.2497C3896.4 28.2497 3895.53 30.1561 3895.53 32.467V119.007H3899.46ZM3906.56 119.007V11.1497C3906.56 8.83887 3905.7 6.93245 3904.6 6.93245C3903.5 6.93245 3902.64 8.83887 3902.64 11.1497V119.007H3906.56ZM3913.67 119.007V73.1951C3913.67 70.8265 3912.8 68.9201 3911.71 68.9201C3910.67 68.9201 3909.74 70.8265 3909.74 73.1951V119.007H3913.67ZM3920.78 119.007V61.7566C3920.78 59.4457 3919.91 57.5393 3918.81 57.5393C3917.77 57.5393 3916.85 59.4457 3916.85 61.7566V119.007H3920.78ZM3927.94 119.007V32.467C3927.94 30.1561 3927.02 28.2497 3925.98 28.2497C3924.88 28.2497 3924.01 30.1561 3924.01 32.467V119.007H3927.94ZM3935.05 119.007V36.973C3935.05 34.6045 3934.12 32.698 3933.08 32.698C3931.98 32.698 3931.12 34.6045 3931.12 36.973V119.007H3935.05ZM3942.15 119.007V42.4035C3942.15 40.0927 3941.29 38.1862 3940.19 38.1862C3939.09 38.1862 3938.22 40.0927 3938.22 42.4035V119.007H3942.15ZM3949.26 119.007V47.3717C3949.26 45.0609 3948.39 43.1545 3947.29 43.1545C3946.2 43.1545 3945.33 45.0609 3945.33 47.3717V119.007H3949.26ZM3956.36 119.007V81.1096C3956.36 78.7988 3955.5 76.8924 3954.4 76.8924C3953.36 76.8924 3952.43 78.7988 3952.43 81.1096V119.007H3956.36ZM3963.47 119.007V60.7745C3963.47 58.4637 3962.6 56.5572 3961.5 56.5572C3960.46 56.5572 3959.54 58.4637 3959.54 60.7745V119.007H3963.47ZM3970.63 119.007V38.4173C3970.63 36.1065 3969.71 34.2001 3968.67 34.2001C3967.57 34.2001 3966.7 36.1065 3966.7 38.4173V119.007H3970.63ZM3977.74 119.007V45.8697C3977.74 43.5589 3976.87 41.6525 3975.77 41.6525C3974.68 41.6525 3973.81 43.5589 3973.81 45.8697V119.007H3977.74ZM3984.84 119.007V4.21724C3984.84 1.90642 3983.98 0 3982.88 0C3981.78 0 3980.92 1.90642 3980.92 4.21724V119.007H3984.84ZM3991.95 119.007V22.5882C3991.95 20.2196 3991.08 18.3132 3989.99 18.3132C3988.89 18.3132 3988.02 20.2196 3988.02 22.5882V119.007H3991.95ZM3999.06 119.007V26.5166C3999.06 24.2058 3998.19 22.2994 3997.09 22.2994C3996.05 22.2994 3995.13 24.2058 3995.13 26.5166V119.007H3999.06ZM4006.22 119.007V60.7745C4006.22 58.4637 4005.29 56.5572 4004.25 56.5572C4003.16 56.5572 4002.29 58.4637 4002.29 60.7745V119.007H4006.22ZM3860.06 119.007V47.3717C3860.06 45.0609 3860.93 43.1545 3862.02 43.1545C3863.12 43.1545 3863.99 45.0609 3863.99 47.3717V119.007H3860.06ZM3852.95 119.007V81.1096C3852.95 78.7988 3853.82 76.8924 3854.92 76.8924C3855.96 76.8924 3856.88 78.7988 3856.88 81.1096V119.007H3852.95ZM3845.85 119.007V60.7745C3845.85 58.4637 3846.71 56.5572 3847.81 56.5572C3848.85 56.5572 3849.78 58.4637 3849.78 60.7745V119.007H3845.85ZM3838.68 119.007V38.4173C3838.68 36.1065 3839.61 34.2001 3840.65 34.2001C3841.75 34.2001 3842.61 36.1065 3842.61 38.4173V119.007H3838.68ZM3831.58 119.007V45.8697C3831.58 43.5589 3832.45 41.6525 3833.54 41.6525C3834.64 41.6525 3835.51 43.5589 3835.51 45.8697V119.007H3831.58ZM3824.47 119.007V4.21724C3824.47 1.90642 3825.34 0 3826.44 0C3827.54 0 3828.4 1.90642 3828.4 4.21724V119.007H3824.47ZM3817.37 119.007V22.5882C3817.37 20.2196 3818.23 18.3132 3819.33 18.3132C3820.43 18.3132 3821.3 20.2196 3821.3 22.5882V119.007H3817.37ZM3810.26 119.007V26.5166C3810.26 24.2058 3811.13 22.2994 3812.23 22.2994C3813.27 22.2994 3814.19 24.2058 3814.19 26.5166V119.007H3810.26ZM3803.1 119.007V60.7745C3803.1 58.4637 3804.02 56.5572 3805.06 56.5572C3806.16 56.5572 3807.03 58.4637 3807.03 60.7745V119.007H3803.1ZM3671.55 119.007V22.0683C3671.55 19.7575 3670.69 17.8511 3669.59 17.8511C3668.55 17.8511 3667.63 19.7575 3667.63 22.0683V119.007H3671.55ZM3678.72 119.007V13.6338C3678.72 11.323 3677.79 9.41656 3676.75 9.41656C3675.66 9.41656 3674.79 11.323 3674.79 13.6338V119.007H3678.72ZM3685.82 119.007V23.5703C3685.82 21.2595 3684.9 19.3531 3683.86 19.3531C3682.76 19.3531 3681.9 21.2595 3681.9 23.5703V119.007H3685.82ZM3692.93 119.007V32.467C3692.93 30.1561 3692.06 28.2497 3690.97 28.2497C3689.87 28.2497 3689 30.1561 3689 32.467V119.007H3692.93ZM3700.04 119.007V11.1497C3700.04 8.83887 3699.17 6.93245 3698.07 6.93245C3696.97 6.93245 3696.11 8.83887 3696.11 11.1497V119.007H3700.04ZM3707.14 119.007V73.1951C3707.14 70.8265 3706.28 68.9201 3705.18 68.9201C3704.14 68.9201 3703.21 70.8265 3703.21 73.1951V119.007H3707.14ZM3714.25 119.007V61.7566C3714.25 59.4457 3713.38 57.5393 3712.28 57.5393C3711.24 57.5393 3710.32 59.4457 3710.32 61.7566V119.007H3714.25ZM3721.41 119.007V32.467C3721.41 30.1561 3720.49 28.2497 3719.45 28.2497C3718.35 28.2497 3717.48 30.1561 3717.48 32.467V119.007H3721.41ZM3728.52 119.007V36.973C3728.52 34.6045 3727.59 32.698 3726.55 32.698C3725.45 32.698 3724.59 34.6045 3724.59 36.973V119.007H3728.52ZM3735.62 119.007V42.4035C3735.62 40.0927 3734.76 38.1862 3733.66 38.1862C3732.56 38.1862 3731.69 40.0927 3731.69 42.4035V119.007H3735.62ZM3742.73 119.007V47.3717C3742.73 45.0609 3741.86 43.1545 3740.76 43.1545C3739.67 43.1545 3738.8 45.0609 3738.8 47.3717V119.007H3742.73ZM3749.83 119.007V81.1096C3749.83 78.7988 3748.97 76.8924 3747.87 76.8924C3746.83 76.8924 3745.91 78.7988 3745.91 81.1096V119.007H3749.83ZM3756.94 119.007V60.7745C3756.94 58.4637 3756.07 56.5572 3754.98 56.5572C3753.94 56.5572 3753.01 58.4637 3753.01 60.7745V119.007H3756.94ZM3764.1 119.007V38.4173C3764.1 36.1065 3763.18 34.2001 3762.14 34.2001C3761.04 34.2001 3760.17 36.1065 3760.17 38.4173V119.007H3764.1ZM3771.21 119.007V45.8697C3771.21 43.5589 3770.28 41.6525 3769.24 41.6525C3768.15 41.6525 3767.28 43.5589 3767.28 45.8697V119.007H3771.21ZM3778.31 119.007V4.21724C3778.31 1.90642 3777.45 0 3776.35 0C3775.25 0 3774.39 1.90642 3774.39 4.21724V119.007H3778.31ZM3785.42 119.007V22.5882C3785.42 20.2196 3784.55 18.3132 3783.46 18.3132C3782.36 18.3132 3781.49 20.2196 3781.49 22.5882V119.007H3785.42ZM3792.53 119.007V26.5166C3792.53 24.2058 3791.66 22.2994 3790.56 22.2994C3789.52 22.2994 3788.6 24.2058 3788.6 26.5166V119.007H3792.53ZM3799.69 119.007V60.7745C3799.69 58.4637 3798.77 56.5572 3797.73 56.5572C3796.63 56.5572 3795.7 58.4637 3795.7 60.7745V119.007H3799.69Z" fill="#CFCFCF"/>
</svg>
