<svg xmlns="http://www.w3.org/2000/svg" width="1346" height="120" fill="none" xmlns:v="https://vecta.io/nano"><g clip-path="url(#A)"><path fill-rule="evenodd" d="M488.278 119V4.22c0-2.31-.866-4.217-1.964-4.217-1.04 0-1.964 1.906-1.964 4.217V119h3.928zm-349.164 0V60.778c0-2.31-.866-4.217-1.964-4.217s-1.964 1.907-1.964 4.217V119h3.928zm-7.106 0v-92.5c0-2.31-.924-4.217-1.964-4.217-1.097 0-1.964 1.906-1.964 4.217V119h3.928zm-7.163 0V22.59c0-2.37-.867-4.275-1.964-4.275-1.04 0-1.965 1.906-1.965 4.275V119h3.93zm-7.106 0V4.22c0-2.31-.866-4.217-1.964-4.217-1.04 0-1.964 1.906-1.964 4.217V119h3.928zm-7.106 0V45.873c0-2.31-.866-4.217-1.964-4.217s-1.964 1.906-1.964 4.217V119h3.928zm-7.105 0v-80.6c0-2.31-.867-4.217-1.965-4.217S99.6 36.1 99.6 38.42V119h3.928zm-7.106 0V60.778c0-2.31-.867-4.217-1.964-4.217s-1.964 1.907-1.964 4.217V119h3.928zm-7.106 0V81.113c0-2.31-.924-4.217-1.964-4.217-1.098 0-1.964 1.906-1.964 4.217V119h3.928zm-7.163 0V47.375c0-2.31-.867-4.217-1.964-4.217-1.04 0-1.964 1.906-1.964 4.217V119h3.928zm-7.106 0V42.407c0-2.31-.867-4.217-1.964-4.217-1.04 0-1.964 1.907-1.964 4.217V119h3.928zm-7.106 0V36.976c0-2.368-.867-4.275-1.964-4.275s-1.964 1.907-1.964 4.275V119h3.928zm-7.106 0V32.47c0-2.31-.867-4.217-1.964-4.217s-1.964 1.906-1.964 4.217V119h3.928zm-7.106 0V61.76c0-2.31-.924-4.217-1.964-4.217-1.098 0-1.964 1.906-1.964 4.217V119h3.928zm-7.106 0V73.198c0-2.37-.924-4.275-1.964-4.275-1.098 0-1.964 1.906-1.964 4.275V119h3.928zm-7.163 0V11.153c0-2.31-.867-4.217-1.964-4.217-1.04 0-1.964 1.906-1.964 4.217V119h3.928zm-7.106 0V32.47c0-2.31-.866-4.217-1.964-4.217-1.04 0-1.964 1.906-1.964 4.217V119h3.928zm-7.106 0V23.573c0-2.31-.867-4.217-1.964-4.217s-1.964 1.906-1.964 4.217V119h3.928zm-7.106 0V13.637c0-2.31-.866-4.217-1.964-4.217s-1.964 1.906-1.964 4.217V119h3.928zm-7.106 0V22.07c0-2.31-.924-4.217-1.964-4.217-1.098 0-1.964 1.906-1.964 4.217V119h3.928zm-7.106 0V4.22c0-2.31-.924-4.217-1.964-4.217C.87.003.003 1.91.003 4.22V119h3.928zm138.648 0V60.778c0-2.31.867-4.217 1.965-4.217s1.964 1.907 1.964 4.217V119h-3.93zm7.106 0v-92.5c0-2.31.867-4.217 1.964-4.217s1.965 1.906 1.965 4.217V119h-3.93zm7.106 0V22.59c0-2.37.866-4.275 1.964-4.275s1.964 1.906 1.964 4.275V119h-3.928zm7.106 0V4.22c0-2.31.924-4.217 1.964-4.217 1.097 0 1.964 1.906 1.964 4.217V119h-3.928zm7.163 0V45.873c0-2.31.867-4.217 1.964-4.217 1.04 0 1.965 1.906 1.965 4.217V119h-3.93zm7.106 0v-80.6c0-2.31.866-4.217 1.964-4.217 1.04 0 1.964 1.906 1.964 4.217V119h-3.928zm7.106 0V60.778c0-2.31.866-4.217 1.964-4.217s1.964 1.907 1.964 4.217V119h-3.928zm7.105 0V81.113c0-2.31.867-4.217 1.965-4.217s1.964 1.906 1.964 4.217V119h-3.93zm7.106 0V47.375c0-2.31.925-4.217 1.964-4.217 1.098 0 1.965 1.906 1.965 4.217V119h-3.93zm146.16 0V60.778c0-2.31-.866-4.217-1.964-4.217s-1.964 1.907-1.964 4.217V119h3.928zm-7.105 0v-92.5c0-2.31-.925-4.217-1.965-4.217-1.097 0-1.964 1.906-1.964 4.217V119h3.93zm-7.106 0V22.59c0-2.37-.925-4.275-1.964-4.275-1.098 0-2.022 1.906-2.022 4.275V119h3.986zm-7.164 0V4.22c0-2.31-.866-4.217-1.964-4.217-1.04 0-1.964 1.906-1.964 4.217V119h3.928zm-7.105 0V45.873c0-2.31-.867-4.217-1.965-4.217s-1.964 1.906-1.964 4.217V119h3.93zm-7.106 0v-80.6c0-2.31-.867-4.217-1.964-4.217s-1.965 1.906-1.965 4.217V119h3.93zm-7.106 0V60.778c0-2.31-.867-4.217-1.964-4.217s-1.964 1.907-1.964 4.217V119h3.928zm-7.106 0V81.113c0-2.31-.924-4.217-1.964-4.217-1.098 0-1.964 1.906-1.964 4.217V119h3.928zm-7.163 0V47.375c0-2.31-.867-4.217-1.964-4.217-1.04 0-1.965 1.906-1.965 4.217V119h3.93zm-7.106 0V42.407c0-2.31-.867-4.217-1.964-4.217-1.04 0-1.964 1.907-1.964 4.217V119h3.928zm-7.106 0V36.976c0-2.368-.866-4.275-1.964-4.275s-1.964 1.907-1.964 4.275V119h3.928zm-7.106 0V32.47c0-2.31-.866-4.217-1.964-4.217s-1.964 1.906-1.964 4.217V119h3.928zm-7.105 0V61.76c0-2.31-.925-4.217-1.964-4.217-1.098 0-1.965 1.906-1.965 4.217V119h3.93zm-7.106 0V73.198c0-2.37-.924-4.275-1.964-4.275-1.098 0-1.964 1.906-1.964 4.275V119h3.928zm-7.164 0V11.153c0-2.31-.866-4.217-1.964-4.217-1.04 0-1.964 1.906-1.964 4.217V119h3.928zm-7.105 0V32.47c0-2.31-.867-4.217-1.965-4.217-1.04 0-1.964 1.906-1.964 4.217V119h3.93zm-7.106 0V23.573c0-2.31-.867-4.217-1.964-4.217s-1.965 1.906-1.965 4.217V119h3.93zm-7.106 0V13.637c0-2.31-.866-4.217-1.964-4.217s-1.964 1.906-1.964 4.217V119h3.928zm-7.106 0V22.07c0-2.31-.924-4.217-1.964-4.217-1.097 0-1.964 1.906-1.964 4.217V119h3.928zm-7.105 0V4.22c0-2.31-.925-4.217-1.965-4.217-1.097 0-1.964 1.906-1.964 4.217V119h3.93zm138.65 0V60.778c0-2.31.866-4.217 1.964-4.217s1.964 1.907 1.964 4.217V119H349.1zm7.105 0v-92.5c0-2.31.867-4.217 1.965-4.217s1.964 1.906 1.964 4.217V119h-3.93zm7.106 0V22.59c0-2.37.867-4.275 1.964-4.275s1.964 1.906 1.964 4.275V119h-3.928zm7.106 0V4.22c0-2.31.924-4.217 1.964-4.217 1.098 0 1.964 1.906 1.964 4.217V119h-3.928zm7.163 0V45.873c0-2.31.867-4.217 1.965-4.217 1.04 0 1.964 1.906 1.964 4.217V119h-3.93zm7.106 0v-80.6c0-2.31.867-4.217 1.964-4.217 1.04 0 1.964 1.906 1.964 4.217V119h-3.928zm7.106 0V60.778c0-2.31.866-4.217 1.964-4.217s1.964 1.907 1.964 4.217V119h-3.928zm7.106 0V81.113c0-2.31.866-4.217 1.964-4.217s1.964 1.906 1.964 4.217V119h-3.928zm7.105 0V47.375c0-2.31.925-4.217 1.965-4.217 1.097 0 1.964 1.906 1.964 4.217V119h-3.93zm7.106 0V42.407c0-2.31.924-4.217 1.964-4.217 1.098 0 1.965 1.907 1.965 4.217V119h-3.93zm7.164 0V36.976c0-2.368.866-4.275 1.964-4.275 1.04 0 1.964 1.907 1.964 4.275V119h-3.928zm7.105 0V32.47c0-2.31.867-4.217 1.965-4.217 1.04 0 1.964 1.906 1.964 4.217V119h-3.93zm7.106 0V61.76c0-2.31.867-4.217 1.964-4.217s1.965 1.906 1.965 4.217V119h-3.93zm7.106 0V73.198c0-2.37.867-4.275 1.964-4.275s1.964 1.906 1.964 4.275V119H441.6zm7.106 0V11.153c0-2.31.924-4.217 1.964-4.217 1.098 0 1.964 1.906 1.964 4.217V119h-3.928zm7.105 0V32.47c0-2.31.925-4.217 1.965-4.217 1.097 0 1.964 1.906 1.964 4.217V119h-3.93zm7.164 0V23.573c0-2.31.867-4.217 1.964-4.217 1.04 0 1.964 1.906 1.964 4.217V119h-3.928zm7.106 0V13.637c0-2.31.866-4.217 1.964-4.217 1.04 0 1.964 1.906 1.964 4.217V119h-3.928zm7.106 0V22.07c0-2.31.866-4.217 1.964-4.217s1.964 1.906 1.964 4.217V119h-3.928zm356.327 0V60.778c0-2.31.867-4.217 1.965-4.217 1.04 0 1.964 1.907 1.964 4.217V119h-3.93zm7.106 0v-92.5c0-2.31.867-4.217 1.964-4.217 1.04 0 1.965 1.906 1.965 4.217V119h-3.93zm7.106 0V22.59c0-2.37.866-4.275 1.964-4.275s1.964 1.906 1.964 4.275V119h-3.928zm7.106 0V4.22c0-2.31.866-4.217 1.964-4.217s1.964 1.906 1.964 4.217V119h-3.928zm7.105 0V45.873c0-2.31.925-4.217 1.965-4.217 1.097 0 1.964 1.906 1.964 4.217V119h-3.93zm7.106 0v-80.6c0-2.31.925-4.217 1.964-4.217 1.098 0 1.965 1.906 1.965 4.217V119h-3.93zm7.164 0V60.778c0-2.31.866-4.217 1.964-4.217 1.04 0 1.964 1.907 1.964 4.217V119h-3.928zm7.105 0V81.113c0-2.31.867-4.217 1.965-4.217s1.964 1.906 1.964 4.217V119h-3.93zm7.106 0V47.375c0-2.31.867-4.217 1.964-4.217s1.965 1.906 1.965 4.217V119h-3.93zm7.106 0V42.407c0-2.31.867-4.217 1.964-4.217s1.964 1.907 1.964 4.217V119h-3.928zm7.106 0V36.976c0-2.368.924-4.275 1.964-4.275 1.098 0 1.964 1.907 1.964 4.275V119h-3.928zm7.163 0V32.47c0-2.31.867-4.217 1.964-4.217 1.04 0 1.965 1.906 1.965 4.217V119h-3.93zm7.106 0V61.76c0-2.31.867-4.217 1.964-4.217 1.04 0 1.964 1.906 1.964 4.217V119H918.9zm7.106 0V73.198c0-2.37.866-4.275 1.964-4.275s1.964 1.906 1.964 4.275V119h-3.928zm7.106 0V11.153c0-2.31.866-4.217 1.964-4.217s1.964 1.906 1.964 4.217V119h-3.928zm7.105 0V32.47c0-2.31.925-4.217 1.964-4.217 1.098 0 1.965 1.906 1.965 4.217V119h-3.93zm7.106 0V23.573c0-2.31.924-4.217 1.964-4.217 1.098 0 1.964 1.906 1.964 4.217V119h-3.928zm7.164 0V13.637c0-2.31.866-4.217 1.964-4.217 1.04 0 1.964 1.906 1.964 4.217V119h-3.928zm7.105 0V22.07c0-2.31.867-4.217 1.965-4.217 1.04 0 1.964 1.906 1.964 4.217V119h-3.93zm7.106 0V4.22c0-2.31.867-4.217 1.964-4.217s1.965 1.906 1.965 4.217V119h-3.93zm-138.65 0V60.778c0-2.31-.924-4.217-1.964-4.217-1.098 0-1.964 1.907-1.964 4.217V119h3.928zm-7.163 0v-92.5c0-2.31-.867-4.217-1.965-4.217-1.04 0-1.964 1.906-1.964 4.217V119h3.93zm-7.106 0V22.59c0-2.37-.867-4.275-1.964-4.275-1.04 0-1.965 1.906-1.965 4.275V119h3.93zm-7.106 0V4.22c0-2.31-.866-4.217-1.964-4.217s-1.964 1.906-1.964 4.217V119h3.928zm-7.106 0V45.873c0-2.31-.866-4.217-1.964-4.217s-1.964 1.906-1.964 4.217V119h3.928zm-7.105 0v-80.6c0-2.31-.925-4.217-1.965-4.217-1.097 0-1.964 1.906-1.964 4.217V119h3.93zm-7.106 0V60.778c0-2.31-.924-4.217-1.964-4.217-1.098 0-1.965 1.907-1.965 4.217V119h3.93zm-7.164 0V81.113c0-2.31-.866-4.217-1.964-4.217-1.04 0-1.964 1.906-1.964 4.217V119h3.928zm-7.106 0V47.375c0-2.31-.866-4.217-1.964-4.217-1.04 0-1.964 1.906-1.964 4.217V119h3.928zm-146.1 0V60.778c0-2.31.867-4.217 1.964-4.217 1.04 0 1.965 1.907 1.965 4.217V119h-3.93zm7.106 0v-92.5c0-2.31.867-4.217 1.964-4.217 1.04 0 1.964 1.906 1.964 4.217V119h-3.928zm7.106 0V22.59c0-2.37.866-4.275 1.964-4.275s1.964 1.906 1.964 4.275V119h-3.928zm7.105 0V4.22c0-2.31.867-4.217 1.965-4.217s1.964 1.906 1.964 4.217V119h-3.93zm7.106 0V45.873c0-2.31.925-4.217 1.964-4.217 1.098 0 1.965 1.906 1.965 4.217V119h-3.93zm7.106 0v-80.6c0-2.31.924-4.217 1.964-4.217 1.098 0 1.964 1.906 1.964 4.217V119h-3.928zm7.163 0V60.778c0-2.31.867-4.217 1.965-4.217 1.04 0 1.964 1.907 1.964 4.217V119h-3.93zm7.106 0V81.113c0-2.31.867-4.217 1.964-4.217s1.965 1.906 1.965 4.217V119h-3.93zm7.106 0V47.375c0-2.31.867-4.217 1.964-4.217s1.964 1.906 1.964 4.217V119h-3.928zm7.106 0V42.407c0-2.31.866-4.217 1.964-4.217s1.964 1.907 1.964 4.217V119h-3.928zm7.106 0V36.976c0-2.368.924-4.275 1.964-4.275 1.097 0 1.964 1.907 1.964 4.275V119H698.1zm7.163 0V32.47c0-2.31.867-4.217 1.964-4.217 1.04 0 1.964 1.906 1.964 4.217V119h-3.928zm7.106 0V61.76c0-2.31.866-4.217 1.964-4.217 1.04 0 1.964 1.906 1.964 4.217V119h-3.928zm7.106 0V73.198c0-2.37.866-4.275 1.964-4.275s1.964 1.906 1.964 4.275V119h-3.928zm7.105 0V11.153c0-2.31.867-4.217 1.965-4.217s1.964 1.906 1.964 4.217V119h-3.93zm7.106 0V32.47c0-2.31.867-4.217 1.964-4.217s1.964 1.906 1.964 4.217V119h-3.928zm7.106 0V23.573c0-2.31.924-4.217 1.964-4.217 1.098 0 1.964 1.906 1.964 4.217V119h-3.928zm7.163 0V13.637c0-2.31.867-4.217 1.965-4.217 1.04 0 1.964 1.906 1.964 4.217V119h-3.93zm7.106 0V22.07c0-2.31.867-4.217 1.964-4.217 1.04 0 1.965 1.906 1.965 4.217V119h-3.93zm7.106 0V4.22c0-2.31.867-4.217 1.964-4.217s1.964 1.906 1.964 4.217V119h-3.928zm-138.65 0V60.778c0-2.31-.924-4.217-1.964-4.217-1.098 0-1.964 1.907-1.964 4.217V119h3.928zm-7.164 0v-92.5c0-2.31-.866-4.217-1.964-4.217-1.04 0-1.964 1.906-1.964 4.217V119h3.928zm-7.105 0V22.59c0-2.37-.867-4.275-1.965-4.275-1.04 0-1.964 1.906-1.964 4.275V119h3.93zm-7.106 0V4.22c0-2.31-.867-4.217-1.964-4.217s-1.964 1.906-1.964 4.217V119h3.928zm-7.106 0V45.873c0-2.31-.866-4.217-1.964-4.217s-1.964 1.906-1.964 4.217V119h3.928zm-7.106 0v-80.6c0-2.31-.924-4.217-1.964-4.217-1.097 0-1.964 1.906-1.964 4.217V119h3.928zm-7.105 0V60.778c0-2.31-.925-4.217-1.965-4.217-1.097 0-1.964 1.907-1.964 4.217V119h3.93zm-7.164 0V81.113c0-2.31-.866-4.217-1.964-4.217-1.04 0-1.964 1.906-1.964 4.217V119h3.928zm-7.106 0V47.375c0-2.31-.866-4.217-1.964-4.217-1.04 0-1.964 1.906-1.964 4.217V119h3.928zm-7.105 0V42.407c0-2.31-.867-4.217-1.965-4.217s-1.964 1.907-1.964 4.217V119h3.93zm-7.106 0V36.976c0-2.368-.867-4.275-1.964-4.275s-1.965 1.907-1.965 4.275V119h3.93zm-7.106 0V32.47c0-2.31-.924-4.217-1.964-4.217-1.098 0-1.964 1.906-1.964 4.217V119h3.928zm-7.106 0V61.76c0-2.31-.924-4.217-1.964-4.217-1.098 0-1.964 1.906-1.964 4.217V119h3.928zm-7.163 0V73.198c0-2.37-.867-4.275-1.964-4.275-1.04 0-1.965 1.906-1.965 4.275V119h3.93zm-7.106 0V11.153c0-2.31-.867-4.217-1.964-4.217s-1.964 1.906-1.964 4.217V119h3.928zm-7.106 0V32.47c0-2.31-.866-4.217-1.964-4.217s-1.964 1.906-1.964 4.217V119h3.928zm-7.105 0V23.573c0-2.31-.867-4.217-1.965-4.217s-1.964 1.906-1.964 4.217V119h3.93zm-7.106 0V13.637c0-2.31-.925-4.217-1.964-4.217-1.098 0-1.965 1.906-1.965 4.217V119h3.93zm-7.106 0V22.07c0-2.31-.924-4.217-2.022-4.217-1.04 0-1.964 1.906-1.964 4.217V119h3.986zM1339 119V4.22c0-2.31.87-4.217 1.97-4.217 1.1 0 1.96 1.906 1.96 4.217V119H1339zm-7.1 0V22.59c0-2.37.86-4.275 1.96-4.275s1.97 1.906 1.97 4.275V119h-3.93zm-7.1 0v-92.5c0-2.31.87-4.217 1.97-4.217 1.04 0 1.96 1.906 1.96 4.217V119h-3.93zm-7.16 0V60.778c0-2.31.92-4.217 2.02-4.217 1.04 0 1.96 1.907 1.96 4.217V119h-3.98zm-138.65 0V4.22c0-2.31-.87-4.217-1.97-4.217-1.04 0-1.96 1.906-1.96 4.217V119h3.93zm7.1 0V22.07c0-2.31-.86-4.217-1.96-4.217-1.04 0-1.96 1.906-1.96 4.217V119h3.92zm7.17 0V13.637c0-2.31-.93-4.217-1.97-4.217-1.1 0-1.96 1.906-1.96 4.217V119h3.93zm7.1 0V23.573c0-2.31-.92-4.217-1.96-4.217-1.1 0-1.96 1.906-1.96 4.217V119h3.92zm7.1 0V32.47c0-2.31-.87-4.217-1.97-4.217-1.1 0-1.96 1.906-1.96 4.217V119h3.93zm7.1 0V11.153c0-2.31-.86-4.217-1.96-4.217s-1.96 1.906-1.96 4.217V119h3.92zm7.1 0V73.198c0-2.37-.87-4.275-1.96-4.275-1.04 0-1.97 1.906-1.97 4.275V119h3.93zm7.1 0V61.76c0-2.31-.87-4.217-1.97-4.217-1.04 0-1.96 1.906-1.96 4.217V119h3.93zm7.16 0V32.47c0-2.31-.92-4.217-1.96-4.217-1.1 0-1.97 1.906-1.97 4.217V119h3.93zm7.1 0V36.976c0-2.368-.93-4.275-1.97-4.275-1.1 0-1.96 1.907-1.96 4.275V119h3.93zm7.1 0V42.407c0-2.31-.86-4.217-1.96-4.217s-1.97 1.907-1.97 4.217V119h3.93zm7.1 0V47.375c0-2.31-.87-4.217-1.97-4.217-1.1 0-1.96 1.906-1.96 4.217V119h3.93zm7.1 0V81.113c0-2.31-.86-4.217-1.96-4.217-1.04 0-1.97 1.906-1.97 4.217V119h3.93zm7.1 0V60.778c0-2.31-.87-4.217-1.97-4.217-1.04 0-1.96 1.907-1.96 4.217V119h3.93zm7.16 0v-80.6c0-2.31-.92-4.217-1.96-4.217-1.1 0-1.97 1.906-1.97 4.217V119h3.93zm7.1 0V45.873c0-2.31-.87-4.217-1.97-4.217-1.1 0-1.96 1.906-1.96 4.217V119h3.93zm7.1 0V4.22c0-2.31-.86-4.217-1.96-4.217s-1.96 1.906-1.96 4.217V119h3.92zm7.1 0V22.59c0-2.37-.87-4.275-1.96-4.275-1.1 0-1.97 1.906-1.97 4.275V119h3.93zm7.1 0v-92.5c0-2.31-.87-4.217-1.97-4.217-1.04 0-1.96 1.906-1.96 4.217V119h3.93zm7.16 0V60.778c0-2.31-.93-4.217-1.97-4.217-1.1 0-1.96 1.907-1.96 4.217V119h3.93zm-146.16 0V47.375c0-2.31.87-4.217 1.96-4.217 1.1 0 1.97 1.906 1.97 4.217V119h-3.93zm-7.1 0V81.113c0-2.31.87-4.217 1.97-4.217 1.04 0 1.96 1.906 1.96 4.217V119h-3.93zm-7.1 0V60.778c0-2.31.86-4.217 1.96-4.217 1.04 0 1.97 1.907 1.97 4.217V119h-3.93zm-7.17 0v-80.6c0-2.31.93-4.217 1.97-4.217 1.1 0 1.96 1.906 1.96 4.217V119h-3.93zm-7.1 0V45.873c0-2.31.87-4.217 1.96-4.217 1.1 0 1.97 1.906 1.97 4.217V119h-3.93zm-7.1 0V4.22c0-2.31.87-4.217 1.97-4.217s1.96 1.906 1.96 4.217V119h-3.93zm-7.1 0V22.59c0-2.37.86-4.275 1.96-4.275s1.97 1.906 1.97 4.275V119h-3.93zm-7.1 0v-92.5c0-2.31.87-4.217 1.97-4.217 1.04 0 1.96 1.906 1.96 4.217V119h-3.93zm-7.16 0V60.778c0-2.31.92-4.217 1.96-4.217 1.1 0 1.97 1.907 1.97 4.217V119h-3.93zm-131.542 0V22.07c0-2.31-.867-4.217-1.964-4.217-1.04 0-1.964 1.906-1.964 4.217V119h3.928zm7.164 0V13.637c0-2.31-.925-4.217-1.965-4.217-1.097 0-1.964 1.906-1.964 4.217V119h3.93zm7.105 0V23.573c0-2.31-.924-4.217-1.964-4.217-1.098 0-1.964 1.906-1.964 4.217V119h3.928zm7.103 0V32.47c0-2.31-.87-4.217-1.96-4.217-1.098 0-1.964 1.906-1.964 4.217V119h3.925zm7.1 0V11.153c0-2.31-.87-4.217-1.97-4.217s-1.96 1.906-1.96 4.217V119h3.93zm7.1 0V73.198c0-2.37-.86-4.275-1.96-4.275-1.04 0-1.97 1.906-1.97 4.275V119h3.93zm7.1 0V61.76c0-2.31-.87-4.217-1.97-4.217-1.04 0-1.96 1.906-1.96 4.217V119h3.93zm7.16 0V32.47c0-2.31-.92-4.217-1.96-4.217-1.1 0-1.97 1.906-1.97 4.217V119h3.93zm7.1 0V36.976c0-2.368-.93-4.275-1.97-4.275-1.1 0-1.96 1.907-1.96 4.275V119h3.93zm7.1 0V42.407c0-2.31-.86-4.217-1.96-4.217s-1.97 1.907-1.97 4.217V119h3.93zm7.1 0V47.375c0-2.31-.87-4.217-1.97-4.217-1.1 0-1.96 1.906-1.96 4.217V119h3.93zm7.1 0V81.113c0-2.31-.86-4.217-1.96-4.217-1.04 0-1.96 1.906-1.96 4.217V119h3.92zm7.1 0V60.778c0-2.31-.87-4.217-1.96-4.217-1.04 0-1.97 1.907-1.97 4.217V119h3.93zm7.16 0v-80.6c0-2.31-.92-4.217-1.96-4.217-1.1 0-1.97 1.906-1.97 4.217V119h3.93zm7.1 0V45.873c0-2.31-.93-4.217-1.97-4.217-1.1 0-1.96 1.906-1.96 4.217V119h3.93zm7.1 0V4.22c0-2.31-.86-4.217-1.96-4.217s-1.96 1.906-1.96 4.217V119h3.92zm7.1 0V22.59c0-2.37-.87-4.275-1.96-4.275-1.1 0-1.97 1.906-1.97 4.275V119h3.93zm7.1 0v-92.5c0-2.31-.87-4.217-1.97-4.217-1.04 0-1.96 1.906-1.96 4.217V119h3.93zm7.16 0V60.778c0-2.31-.92-4.217-1.96-4.217-1.1 0-2.03 1.907-2.03 4.217V119h4z" fill="#cfcfcf"/></g><defs><clipPath id="A"><path fill="#fff" transform="translate(.003)" d="M0 0h1345.93v119H0z"/></clipPath></defs></svg>