<svg width="125" height="201" viewBox="0 0 125 201" fill="none" xmlns="http://www.w3.org/2000/svg">
<path d="M2.5956 112.736C0.530818 114.913 -0.605957 117.806 -0.605957 120.885C-0.605957 123.963 0.530815 126.858 2.59518 129.034C4.65955 131.211 7.40458 132.41 10.3239 132.41C13.2437 132.41 15.9883 131.211 18.0526 129.034C20.117 126.858 21.2538 123.963 21.2538 120.885C21.2538 117.806 20.117 114.913 18.0526 112.736C15.9883 110.559 13.2437 109.36 10.3239 109.36C7.40499 109.36 4.65997 110.559 2.5956 112.736ZM17.9339 120.885C17.9339 123.028 17.1425 125.043 15.7048 126.559C14.2675 128.074 12.3567 128.909 10.3239 128.909C8.2915 128.909 6.38028 128.074 4.94302 126.558C3.50576 125.043 2.71389 123.028 2.71389 120.885C2.71389 118.741 3.50535 116.726 4.94302 115.211C6.38028 113.696 8.29109 112.861 10.3239 112.861C12.3567 112.861 14.2675 113.695 15.7048 115.211C17.1425 116.727 17.9339 118.742 17.9339 120.885Z" fill="#EEE6E6"/>
<path d="M124.405 23.7038L122.47 21.6628C123.789 20.2488 124.227 18.1387 123.582 16.2727L120.613 7.67786C120.116 6.24029 119.05 5.11605 117.687 4.59266L109.536 1.46195C108.997 1.25495 108.433 1.14992 107.859 1.14992C106.564 1.14992 105.346 1.67813 104.424 2.6352L102.488 0.59415C101.839 -0.0894076 100.788 -0.0894076 100.14 0.59415C99.4919 1.27815 99.4919 2.38619 100.14 3.06975L102.075 5.10948L98.8577 8.50145L96.9232 6.46172C96.2746 5.77816 95.2237 5.77816 94.5754 6.46172C93.9271 7.14572 93.9271 8.25376 94.5754 8.93732L96.5099 10.9771L93.293 14.369L91.3585 12.3293C90.7098 11.6457 89.6589 11.6457 89.0107 12.3293C88.3624 13.0133 88.3624 14.1213 89.0107 14.8049L90.9451 16.8446L90.7912 17.007C88.9841 18.9128 88.628 21.7739 89.715 24.0614L32.1803 82.8566C18.1605 73.688 1.64932 74.5383 -8.36499 85.0976C-11.2549 88.1447 -13.4139 91.7896 -14.7814 95.929C-17.8024 105.064 -25.6353 111.651 -34.7382 112.71C-42.6894 113.64 -49.7167 117.11 -55.0598 122.744C-69.803 138.29 -67.5282 165.984 -49.9881 184.478C-40.2224 194.775 -27.7553 200.082 -16.075 200.081C-6.77625 200.081 2.02492 196.716 8.5596 189.825C13.9027 184.191 17.1935 176.782 18.0759 168.397C19.0832 158.804 25.3302 150.544 33.9903 147.355C37.9244 145.91 41.382 143.635 44.2669 140.593C54.2812 130.033 55.0864 112.622 46.3885 97.8371L102.148 37.1737C102.945 37.5969 103.828 37.8257 104.746 37.8257C106.292 37.8257 107.746 37.1908 108.839 36.0381L108.993 35.8757L110.928 37.9155C111.252 38.2572 111.677 38.4279 112.102 38.4279C112.527 38.4279 112.951 38.2568 113.276 37.9155C113.924 37.2315 113.924 36.1234 113.276 35.4399L111.341 33.4001L114.558 30.0082L116.493 32.0479C116.817 32.3897 117.242 32.5603 117.667 32.5603C118.092 32.5603 118.517 32.3892 118.841 32.0479C119.489 31.3639 119.489 30.2558 118.841 29.5723L116.907 27.5325L120.124 24.1406L122.058 26.1803C122.382 26.5221 122.807 26.6928 123.232 26.6928C123.657 26.6928 124.082 26.5217 124.406 26.1803C125.054 25.4959 125.054 24.3878 124.405 23.7038ZM22.1668 108.398C20.3942 106.529 18.2946 105.131 16.004 104.263L91.8495 26.7562L99.594 34.9217L26.0876 114.894C25.2642 112.48 23.939 110.266 22.1668 108.398ZM19.819 110.874C22.3553 113.548 23.7523 117.103 23.7523 120.885C23.7523 124.667 22.3557 128.223 19.819 130.896C17.2832 133.571 13.911 135.044 10.3243 135.044C6.73761 135.044 3.36547 133.571 0.829627 130.896C-1.70663 128.222 -3.10363 124.667 -3.10363 120.885C-3.10363 117.103 -1.70705 113.548 0.829627 110.874C3.36547 108.199 6.73761 106.726 10.3243 106.726C13.911 106.726 17.2832 108.199 19.819 110.874ZM41.919 138.118C39.3907 140.783 36.3555 142.779 32.8967 144.05C23.0359 147.681 15.9231 157.086 14.7759 168.012C13.9774 175.597 11.0158 182.284 6.21176 187.35C0.315403 193.567 -7.63661 196.597 -16.08 196.597C-26.8962 196.596 -38.5171 191.622 -47.6399 182.002C-55.5479 173.664 -60.4113 163.132 -61.3339 152.345C-62.2465 141.678 -59.1844 132.045 -52.7116 125.22C-47.9076 120.154 -41.5655 117.031 -34.3726 116.189C-24.0063 114.984 -15.0856 107.483 -11.6458 97.0809C-10.4439 93.4429 -8.5501 90.244 -6.01674 87.5727C2.72466 78.3557 17.1769 77.5579 29.7142 85.3768L12.1451 103.331C11.5445 103.263 10.9373 103.225 10.3247 103.225C5.8511 103.225 1.64517 105.062 -1.51821 108.397C-4.68158 111.733 -6.42347 116.167 -6.42347 120.885C-6.42347 125.602 -4.68117 130.036 -1.51821 133.372C1.64517 136.708 5.85069 138.544 10.3247 138.544C14.7988 138.544 19.0043 136.707 22.1677 133.372C25.331 130.036 27.0729 125.602 27.0729 120.885C27.0729 120.237 27.0372 119.597 26.9725 118.962L43.9988 100.438C51.4166 113.66 50.6613 128.9 41.919 138.118ZM104.746 34.3244C104.086 34.3244 103.466 34.0535 103 33.5616L93.1386 23.1634C92.1769 22.1481 92.177 20.4974 93.1394 19.483L106.743 5.13837C107.042 4.82416 107.438 4.65086 107.86 4.65086C108.044 4.65086 108.226 4.685 108.399 4.75151L116.551 7.88223C116.99 8.05071 117.333 8.41306 117.493 8.87606L120.462 17.4709C120.671 18.0761 120.527 18.7614 120.095 19.2169L106.491 33.5616C106.025 34.0535 105.405 34.3244 104.746 34.3244Z" fill="#EEE6E6"/>
<path d="M109.588 8.83666C108.939 8.15354 107.888 8.1531 107.24 8.83666L96.4688 20.1937C95.8205 20.8773 95.8205 21.9857 96.4688 22.6693C96.7929 23.0111 97.2179 23.1818 97.6429 23.1818C98.0675 23.1818 98.4925 23.0106 98.817 22.6693L109.588 11.3123C110.236 10.6287 110.236 9.52066 109.588 8.83666Z" fill="#EEE6E6"/>
<path d="M116.588 16.2188C115.94 15.5357 114.889 15.5352 114.241 16.2188L103.47 27.5758C102.821 28.2594 102.821 29.3679 103.47 30.0514C103.794 30.3932 104.219 30.5639 104.644 30.5639C105.068 30.5639 105.493 30.3928 105.818 30.0514L116.589 18.6944C117.237 18.0108 117.237 16.9024 116.588 16.2188Z" fill="#EEE6E6"/>
</svg>
