<svg width="79" height="171" viewBox="0 0 79 171" fill="none" xmlns="http://www.w3.org/2000/svg">
<g clip-path="url(#clip0)">
<path d="M52.7152 162.194L24.0136 14.0075C22.206 4.67693 14.9568 0.5 8.57461 0.5C2.19242 0.5 -5.05711 4.67693 -6.8644 14.0075L-19.2902 78.1604L-25.7794 68.9239L-22.7153 66.438L-30.9669 51.8544L-35.2864 55.3585L-50.4942 33.6534L-52.7358 35.4718L-37.5273 57.1776L-41.8468 60.6821L-31.088 73.231L-28.0204 70.7426L-20.0505 82.0867L-35.5664 162.194H-28.4414V170.5H-18.2664V162.194H35.4156V170.5H45.5906V162.194H52.7152V162.194ZM-37.6814 61.0854L-31.7518 56.2749L-26.4341 65.6731L-30.748 69.1734L-37.6814 61.0854ZM39.4579 108.55H36.6878L18.3398 13.8044H21.0857C21.1506 14.0717 21.2113 14.3443 21.2653 14.6241L39.4579 108.55ZM4.94038 85.9268H8.72969V82.9064H4.94038V77.8361H8.72969V74.8157H4.94038V69.7454H8.72969V66.7249H4.94038V61.6547H8.72969V58.6342H4.94038V53.5644H8.72969V50.5439H4.94038V45.4737H8.72969V42.4532H4.94038V37.3833H8.72969V34.3629H4.94038V29.293H8.72969V26.2725H4.94038V21.7418H12.3085V91.2127H4.94038V85.9268ZM4.94038 94.2331H12.3085V108.55H4.94038V94.2331ZM2.13348 18.7214V108.55H2.05979L-12.6242 87.6489L1.67876 13.8048H15.4726L33.8202 108.55H15.1154V18.7214H2.13348ZM-1.45866 108.55H-16.6724L-13.3845 91.5747L-1.45866 108.55ZM8.57461 3.52047C12.5825 3.52047 17.5248 5.49963 20.0282 10.7839H-2.8786C-0.375896 5.49963 4.56636 3.52047 8.57461 3.52047ZM-4.11644 14.6241C-4.06241 14.3443 -4.00171 14.0721 -3.9368 13.8044H-1.18885L-14.8718 84.4494L-17.0422 81.3599L-4.11644 14.6241ZM-15.6325 88.3753L-19.54 108.55H-22.309L-17.8029 85.2857L-15.6325 88.3753ZM-22.8939 111.571H40.0428L49.2628 159.173H-32.1139L-22.8939 111.571ZM-21.0733 167.48H-25.6345V162.194H-21.0733V167.48ZM42.7837 167.48H38.2225V162.194H42.7837V167.48Z" fill="#EEE6E6"/>
</g>
<defs>
<clipPath id="clip0">
<rect width="157.98" height="170" fill="white" transform="translate(-79 0.5)"/>
</clipPath>
</defs>
</svg>
