<svg width="1343" height="120" viewBox="0 0 1343 120" fill="none" xmlns="http://www.w3.org/2000/svg">
<path fill-rule="evenodd" clip-rule="evenodd" d="M488.275 119.007V4.21724C488.275 1.90642 487.409 0 486.311 0C485.271 0 484.347 1.90642 484.347 4.21724V119.007H488.275ZM139.111 119.007V60.7745C139.111 58.4637 138.245 56.5572 137.147 56.5572C136.049 56.5572 135.183 58.4637 135.183 60.7745V119.007H139.111ZM132.005 119.007V26.5166C132.005 24.2058 131.081 22.2994 130.041 22.2994C128.944 22.2994 128.077 24.2058 128.077 26.5166V119.007H132.005ZM124.842 119.007V22.5882C124.842 20.2196 123.975 18.3132 122.878 18.3132C121.838 18.3132 120.913 20.2196 120.913 22.5882V119.007H124.842ZM117.736 119.007V4.21724C117.736 1.90642 116.87 0 115.772 0C114.732 0 113.808 1.90642 113.808 4.21724V119.007H117.736ZM110.63 119.007V45.8697C110.63 43.5589 109.764 41.6525 108.666 41.6525C107.568 41.6525 106.702 43.5589 106.702 45.8697V119.007H110.63ZM103.525 119.007V38.4173C103.525 36.1065 102.658 34.2001 101.56 34.2001C100.463 34.2001 99.5962 36.1065 99.5962 38.4173V119.007H103.525ZM96.4188 119.007V60.7745C96.4188 58.4637 95.5523 56.5572 94.4546 56.5572C93.357 56.5572 92.4904 58.4637 92.4904 60.7745V119.007H96.4188ZM89.313 119.007V81.1096C89.313 78.7988 88.3887 76.8924 87.3489 76.8924C86.2512 76.8924 85.3847 78.7988 85.3847 81.1096V119.007H89.313ZM82.1495 119.007V47.3717C82.1495 45.0609 81.283 43.1545 80.1853 43.1545C79.1455 43.1545 78.2211 45.0609 78.2211 47.3717V119.007H82.1495ZM75.0438 119.007V42.4035C75.0438 40.0927 74.1772 38.1862 73.0796 38.1862C72.0397 38.1862 71.1154 40.0927 71.1154 42.4035V119.007H75.0438ZM67.938 119.007V36.973C67.938 34.6045 67.0714 32.698 65.9738 32.698C64.8762 32.698 64.0096 34.6045 64.0096 36.973V119.007H67.938ZM60.8322 119.007V32.467C60.8322 30.1561 59.9657 28.2497 58.868 28.2497C57.7704 28.2497 56.9039 30.1561 56.9039 32.467V119.007H60.8322ZM53.7265 119.007V61.7566C53.7265 59.4457 52.8022 57.5393 51.7623 57.5393C50.6646 57.5393 49.7981 59.4457 49.7981 61.7566V119.007H53.7265ZM46.6207 119.007V73.1951C46.6207 70.8265 45.6964 68.9201 44.6565 68.9201C43.5589 68.9201 42.6923 70.8265 42.6923 73.1951V119.007H46.6207ZM39.4572 119.007V11.1497C39.4572 8.83887 38.5906 6.93245 37.493 6.93245C36.4531 6.93245 35.5288 8.83887 35.5288 11.1497V119.007H39.4572ZM32.3514 119.007V32.467C32.3514 30.1561 31.4849 28.2497 30.3872 28.2497C29.3474 28.2497 28.423 30.1561 28.423 32.467V119.007H32.3514ZM25.2457 119.007V23.5703C25.2457 21.2595 24.3791 19.3531 23.2815 19.3531C22.1838 19.3531 21.3173 21.2595 21.3173 23.5703V119.007H25.2457ZM18.1399 119.007V13.6338C18.1399 11.323 17.2734 9.41656 16.1757 9.41656C15.0781 9.41656 14.2115 11.323 14.2115 13.6338V119.007H18.1399ZM11.0341 119.007V22.0683C11.0341 19.7575 10.1098 17.8511 9.06995 17.8511C7.97232 17.8511 7.10576 19.7575 7.10576 22.0683V119.007H11.0341ZM3.92839 119.007V4.21724C3.92839 1.90642 3.00406 0 1.96419 0C0.866556 0 0 1.90642 0 4.21724V119.007H3.92839ZM142.577 119.007V60.7745C142.577 58.4637 143.444 56.5572 144.542 56.5572C145.639 56.5572 146.506 58.4637 146.506 60.7745V119.007H142.577ZM149.683 119.007V26.5166C149.683 24.2058 150.55 22.2994 151.647 22.2994C152.745 22.2994 153.612 24.2058 153.612 26.5166V119.007H149.683ZM156.789 119.007V22.5882C156.789 20.2196 157.655 18.3132 158.753 18.3132C159.851 18.3132 160.717 20.2196 160.717 22.5882V119.007H156.789ZM163.895 119.007V4.21724C163.895 1.90642 164.819 0 165.859 0C166.956 0 167.823 1.90642 167.823 4.21724V119.007H163.895ZM171.058 119.007V45.8697C171.058 43.5589 171.925 41.6525 173.022 41.6525C174.062 41.6525 174.987 43.5589 174.987 45.8697V119.007H171.058ZM178.164 119.007V38.4173C178.164 36.1065 179.03 34.2001 180.128 34.2001C181.168 34.2001 182.092 36.1065 182.092 38.4173V119.007H178.164ZM185.27 119.007V60.7745C185.27 58.4637 186.136 56.5572 187.234 56.5572C188.332 56.5572 189.198 58.4637 189.198 60.7745V119.007H185.27ZM192.375 119.007V81.1096C192.375 78.7988 193.242 76.8924 194.34 76.8924C195.437 76.8924 196.304 78.7988 196.304 81.1096V119.007H192.375ZM199.481 119.007V47.3717C199.481 45.0609 200.406 43.1545 201.445 43.1545C202.543 43.1545 203.41 45.0609 203.41 47.3717V119.007H199.481ZM345.64 119.007V60.7745C345.64 58.4637 344.774 56.5572 343.676 56.5572C342.579 56.5572 341.712 58.4637 341.712 60.7745V119.007H345.64ZM338.535 119.007V26.5166C338.535 24.2058 337.61 22.2994 336.57 22.2994C335.473 22.2994 334.606 24.2058 334.606 26.5166V119.007H338.535ZM331.429 119.007V22.5882C331.429 20.2196 330.504 18.3132 329.465 18.3132C328.367 18.3132 327.443 20.2196 327.443 22.5882V119.007H331.429ZM324.265 119.007V4.21724C324.265 1.90642 323.399 0 322.301 0C321.261 0 320.337 1.90642 320.337 4.21724V119.007H324.265ZM317.16 119.007V45.8697C317.16 43.5589 316.293 41.6525 315.195 41.6525C314.098 41.6525 313.231 43.5589 313.231 45.8697V119.007H317.16ZM310.054 119.007V38.4173C310.054 36.1065 309.187 34.2001 308.09 34.2001C306.992 34.2001 306.125 36.1065 306.125 38.4173V119.007H310.054ZM302.948 119.007V60.7745C302.948 58.4637 302.081 56.5572 300.984 56.5572C299.886 56.5572 299.02 58.4637 299.02 60.7745V119.007H302.948ZM295.842 119.007V81.1096C295.842 78.7988 294.918 76.8924 293.878 76.8924C292.78 76.8924 291.914 78.7988 291.914 81.1096V119.007H295.842ZM288.679 119.007V47.3717C288.679 45.0609 287.812 43.1545 286.715 43.1545C285.675 43.1545 284.75 45.0609 284.75 47.3717V119.007H288.679ZM281.573 119.007V42.4035C281.573 40.0927 280.706 38.1862 279.609 38.1862C278.569 38.1862 277.645 40.0927 277.645 42.4035V119.007H281.573ZM274.467 119.007V36.973C274.467 34.6045 273.601 32.698 272.503 32.698C271.405 32.698 270.539 34.6045 270.539 36.973V119.007H274.467ZM267.361 119.007V32.467C267.361 30.1561 266.495 28.2497 265.397 28.2497C264.3 28.2497 263.433 30.1561 263.433 32.467V119.007H267.361ZM260.256 119.007V61.7566C260.256 59.4457 259.331 57.5393 258.292 57.5393C257.194 57.5393 256.327 59.4457 256.327 61.7566V119.007H260.256ZM253.15 119.007V73.1951C253.15 70.8265 252.226 68.9201 251.186 68.9201C250.088 68.9201 249.222 70.8265 249.222 73.1951V119.007H253.15ZM245.986 119.007V11.1497C245.986 8.83887 245.12 6.93245 244.022 6.93245C242.982 6.93245 242.058 8.83887 242.058 11.1497V119.007H245.986ZM238.881 119.007V32.467C238.881 30.1561 238.014 28.2497 236.916 28.2497C235.877 28.2497 234.952 30.1561 234.952 32.467V119.007H238.881ZM231.775 119.007V23.5703C231.775 21.2595 230.908 19.3531 229.811 19.3531C228.713 19.3531 227.846 21.2595 227.846 23.5703V119.007H231.775ZM224.669 119.007V13.6338C224.669 11.323 223.803 9.41656 222.705 9.41656C221.607 9.41656 220.741 11.323 220.741 13.6338V119.007H224.669ZM217.563 119.007V22.0683C217.563 19.7575 216.639 17.8511 215.599 17.8511C214.502 17.8511 213.635 19.7575 213.635 22.0683V119.007H217.563ZM210.458 119.007V4.21724C210.458 1.90642 209.533 0 208.493 0C207.396 0 206.529 1.90642 206.529 4.21724V119.007H210.458ZM349.107 119.007V60.7745C349.107 58.4637 349.973 56.5572 351.071 56.5572C352.168 56.5572 353.035 58.4637 353.035 60.7745V119.007H349.107ZM356.212 119.007V26.5166C356.212 24.2058 357.079 22.2994 358.177 22.2994C359.274 22.2994 360.141 24.2058 360.141 26.5166V119.007H356.212ZM363.318 119.007V22.5882C363.318 20.2196 364.185 18.3132 365.282 18.3132C366.38 18.3132 367.246 20.2196 367.246 22.5882V119.007H363.318ZM370.424 119.007V4.21724C370.424 1.90642 371.348 0 372.388 0C373.486 0 374.352 1.90642 374.352 4.21724V119.007H370.424ZM377.587 119.007V45.8697C377.587 43.5589 378.454 41.6525 379.552 41.6525C380.591 41.6525 381.516 43.5589 381.516 45.8697V119.007H377.587ZM384.693 119.007V38.4173C384.693 36.1065 385.56 34.2001 386.657 34.2001C387.697 34.2001 388.621 36.1065 388.621 38.4173V119.007H384.693ZM391.799 119.007V60.7745C391.799 58.4637 392.665 56.5572 393.763 56.5572C394.861 56.5572 395.727 58.4637 395.727 60.7745V119.007H391.799ZM398.905 119.007V81.1096C398.905 78.7988 399.771 76.8924 400.869 76.8924C401.966 76.8924 402.833 78.7988 402.833 81.1096V119.007H398.905ZM406.01 119.007V47.3717C406.01 45.0609 406.935 43.1545 407.975 43.1545C409.072 43.1545 409.939 45.0609 409.939 47.3717V119.007H406.01ZM413.116 119.007V42.4035C413.116 40.0927 414.04 38.1862 415.08 38.1862C416.178 38.1862 417.045 40.0927 417.045 42.4035V119.007H413.116ZM420.28 119.007V36.973C420.28 34.6045 421.146 32.698 422.244 32.698C423.284 32.698 424.208 34.6045 424.208 36.973V119.007H420.28ZM427.385 119.007V32.467C427.385 30.1561 428.252 28.2497 429.35 28.2497C430.39 28.2497 431.314 30.1561 431.314 32.467V119.007H427.385ZM434.491 119.007V61.7566C434.491 59.4457 435.358 57.5393 436.455 57.5393C437.553 57.5393 438.42 59.4457 438.42 61.7566V119.007H434.491ZM441.597 119.007V73.1951C441.597 70.8265 442.464 68.9201 443.561 68.9201C444.659 68.9201 445.525 70.8265 445.525 73.1951V119.007H441.597ZM448.703 119.007V11.1497C448.703 8.83887 449.627 6.93245 450.667 6.93245C451.765 6.93245 452.631 8.83887 452.631 11.1497V119.007H448.703ZM455.808 119.007V32.467C455.808 30.1561 456.733 28.2497 457.773 28.2497C458.87 28.2497 459.737 30.1561 459.737 32.467V119.007H455.808ZM462.972 119.007V23.5703C462.972 21.2595 463.839 19.3531 464.936 19.3531C465.976 19.3531 466.9 21.2595 466.9 23.5703V119.007H462.972ZM470.078 119.007V13.6338C470.078 11.323 470.944 9.41656 472.042 9.41656C473.082 9.41656 474.006 11.323 474.006 13.6338V119.007H470.078ZM477.184 119.007V22.0683C477.184 19.7575 478.05 17.8511 479.148 17.8511C480.245 17.8511 481.112 19.7575 481.112 22.0683V119.007H477.184ZM833.511 119.007V60.7745C833.511 58.4637 834.378 56.5572 835.476 56.5572C836.515 56.5572 837.44 58.4637 837.44 60.7745V119.007H833.511ZM840.617 119.007V26.5166C840.617 24.2058 841.484 22.2994 842.581 22.2994C843.621 22.2994 844.546 24.2058 844.546 26.5166V119.007H840.617ZM847.723 119.007V22.5882C847.723 20.2196 848.589 18.3132 849.687 18.3132C850.785 18.3132 851.651 20.2196 851.651 22.5882V119.007H847.723ZM854.829 119.007V4.21724C854.829 1.90642 855.695 0 856.793 0C857.891 0 858.757 1.90642 858.757 4.21724V119.007H854.829ZM861.934 119.007V45.8697C861.934 43.5589 862.859 41.6525 863.899 41.6525C864.996 41.6525 865.863 43.5589 865.863 45.8697V119.007H861.934ZM869.04 119.007V38.4173C869.04 36.1065 869.965 34.2001 871.004 34.2001C872.102 34.2001 872.969 36.1065 872.969 38.4173V119.007H869.04ZM876.204 119.007V60.7745C876.204 58.4637 877.07 56.5572 878.168 56.5572C879.208 56.5572 880.132 58.4637 880.132 60.7745V119.007H876.204ZM883.309 119.007V81.1096C883.309 78.7988 884.176 76.8924 885.274 76.8924C886.371 76.8924 887.238 78.7988 887.238 81.1096V119.007H883.309ZM890.415 119.007V47.3717C890.415 45.0609 891.282 43.1545 892.379 43.1545C893.477 43.1545 894.344 45.0609 894.344 47.3717V119.007H890.415ZM897.521 119.007V42.4035C897.521 40.0927 898.388 38.1862 899.485 38.1862C900.583 38.1862 901.449 40.0927 901.449 42.4035V119.007H897.521ZM904.627 119.007V36.973C904.627 34.6045 905.551 32.698 906.591 32.698C907.689 32.698 908.555 34.6045 908.555 36.973V119.007H904.627ZM911.79 119.007V32.467C911.79 30.1561 912.657 28.2497 913.754 28.2497C914.794 28.2497 915.719 30.1561 915.719 32.467V119.007H911.79ZM918.896 119.007V61.7566C918.896 59.4457 919.763 57.5393 920.86 57.5393C921.9 57.5393 922.824 59.4457 922.824 61.7566V119.007H918.896ZM926.002 119.007V73.1951C926.002 70.8265 926.868 68.9201 927.966 68.9201C929.064 68.9201 929.93 70.8265 929.93 73.1951V119.007H926.002ZM933.108 119.007V11.1497C933.108 8.83887 933.974 6.93245 935.072 6.93245C936.169 6.93245 937.036 8.83887 937.036 11.1497V119.007H933.108ZM940.213 119.007V32.467C940.213 30.1561 941.138 28.2497 942.177 28.2497C943.275 28.2497 944.142 30.1561 944.142 32.467V119.007H940.213ZM947.319 119.007V23.5703C947.319 21.2595 948.243 19.3531 949.283 19.3531C950.381 19.3531 951.247 21.2595 951.247 23.5703V119.007H947.319ZM954.483 119.007V13.6338C954.483 11.323 955.349 9.41656 956.447 9.41656C957.487 9.41656 958.411 11.323 958.411 13.6338V119.007H954.483ZM961.588 119.007V22.0683C961.588 19.7575 962.455 17.8511 963.553 17.8511C964.592 17.8511 965.517 19.7575 965.517 22.0683V119.007H961.588ZM968.694 119.007V4.21724C968.694 1.90642 969.561 0 970.658 0C971.756 0 972.623 1.90642 972.623 4.21724V119.007H968.694ZM830.045 119.007V60.7745C830.045 58.4637 829.121 56.5572 828.081 56.5572C826.983 56.5572 826.117 58.4637 826.117 60.7745V119.007H830.045ZM822.882 119.007V26.5166C822.882 24.2058 822.015 22.2994 820.917 22.2994C819.878 22.2994 818.953 24.2058 818.953 26.5166V119.007H822.882ZM815.776 119.007V22.5882C815.776 20.2196 814.909 18.3132 813.812 18.3132C812.772 18.3132 811.847 20.2196 811.847 22.5882V119.007H815.776ZM808.67 119.007V4.21724C808.67 1.90642 807.804 0 806.706 0C805.608 0 804.742 1.90642 804.742 4.21724V119.007H808.67ZM801.564 119.007V45.8697C801.564 43.5589 800.698 41.6525 799.6 41.6525C798.503 41.6525 797.636 43.5589 797.636 45.8697V119.007H801.564ZM794.459 119.007V38.4173C794.459 36.1065 793.534 34.2001 792.494 34.2001C791.397 34.2001 790.53 36.1065 790.53 38.4173V119.007H794.459ZM787.353 119.007V60.7745C787.353 58.4637 786.429 56.5572 785.389 56.5572C784.291 56.5572 783.424 58.4637 783.424 60.7745V119.007H787.353ZM780.189 119.007V81.1096C780.189 78.7988 779.323 76.8924 778.225 76.8924C777.185 76.8924 776.261 78.7988 776.261 81.1096V119.007H780.189ZM773.083 119.007V47.3717C773.083 45.0609 772.217 43.1545 771.119 43.1545C770.079 43.1545 769.155 45.0609 769.155 47.3717V119.007H773.083ZM626.982 119.007V60.7745C626.982 58.4637 627.849 56.5572 628.946 56.5572C629.986 56.5572 630.911 58.4637 630.911 60.7745V119.007H626.982ZM634.088 119.007V26.5166C634.088 24.2058 634.955 22.2994 636.052 22.2994C637.092 22.2994 638.016 24.2058 638.016 26.5166V119.007H634.088ZM641.194 119.007V22.5882C641.194 20.2196 642.06 18.3132 643.158 18.3132C644.255 18.3132 645.122 20.2196 645.122 22.5882V119.007H641.194ZM648.299 119.007V4.21724C648.299 1.90642 649.166 0 650.264 0C651.361 0 652.228 1.90642 652.228 4.21724V119.007H648.299ZM655.405 119.007V45.8697C655.405 43.5589 656.33 41.6525 657.369 41.6525C658.467 41.6525 659.334 43.5589 659.334 45.8697V119.007H655.405ZM662.511 119.007V38.4173C662.511 36.1065 663.435 34.2001 664.475 34.2001C665.573 34.2001 666.439 36.1065 666.439 38.4173V119.007H662.511ZM669.674 119.007V60.7745C669.674 58.4637 670.541 56.5572 671.639 56.5572C672.679 56.5572 673.603 58.4637 673.603 60.7745V119.007H669.674ZM676.78 119.007V81.1096C676.78 78.7988 677.647 76.8924 678.744 76.8924C679.842 76.8924 680.709 78.7988 680.709 81.1096V119.007H676.78ZM683.886 119.007V47.3717C683.886 45.0609 684.753 43.1545 685.85 43.1545C686.948 43.1545 687.814 45.0609 687.814 47.3717V119.007H683.886ZM690.992 119.007V42.4035C690.992 40.0927 691.858 38.1862 692.956 38.1862C694.054 38.1862 694.92 40.0927 694.92 42.4035V119.007H690.992ZM698.098 119.007V36.973C698.098 34.6045 699.022 32.698 700.062 32.698C701.159 32.698 702.026 34.6045 702.026 36.973V119.007H698.098ZM705.261 119.007V32.467C705.261 30.1561 706.128 28.2497 707.225 28.2497C708.265 28.2497 709.189 30.1561 709.189 32.467V119.007H705.261ZM712.367 119.007V61.7566C712.367 59.4457 713.233 57.5393 714.331 57.5393C715.371 57.5393 716.295 59.4457 716.295 61.7566V119.007H712.367ZM719.473 119.007V73.1951C719.473 70.8265 720.339 68.9201 721.437 68.9201C722.534 68.9201 723.401 70.8265 723.401 73.1951V119.007H719.473ZM726.578 119.007V11.1497C726.578 8.83887 727.445 6.93245 728.543 6.93245C729.64 6.93245 730.507 8.83887 730.507 11.1497V119.007H726.578ZM733.684 119.007V32.467C733.684 30.1561 734.551 28.2497 735.648 28.2497C736.746 28.2497 737.612 30.1561 737.612 32.467V119.007H733.684ZM740.79 119.007V23.5703C740.79 21.2595 741.714 19.3531 742.754 19.3531C743.852 19.3531 744.718 21.2595 744.718 23.5703V119.007H740.79ZM747.953 119.007V13.6338C747.953 11.323 748.82 9.41656 749.918 9.41656C750.957 9.41656 751.882 11.323 751.882 13.6338V119.007H747.953ZM755.059 119.007V22.0683C755.059 19.7575 755.926 17.8511 757.023 17.8511C758.063 17.8511 758.988 19.7575 758.988 22.0683V119.007H755.059ZM762.165 119.007V4.21724C762.165 1.90642 763.032 0 764.129 0C765.227 0 766.093 1.90642 766.093 4.21724V119.007H762.165ZM623.516 119.007V60.7745C623.516 58.4637 622.592 56.5572 621.552 56.5572C620.454 56.5572 619.588 58.4637 619.588 60.7745V119.007H623.516ZM616.352 119.007V26.5166C616.352 24.2058 615.486 22.2994 614.388 22.2994C613.348 22.2994 612.424 24.2058 612.424 26.5166V119.007H616.352ZM609.247 119.007V22.5882C609.247 20.2196 608.38 18.3132 607.282 18.3132C606.243 18.3132 605.318 20.2196 605.318 22.5882V119.007H609.247ZM602.141 119.007V4.21724C602.141 1.90642 601.274 0 600.177 0C599.079 0 598.213 1.90642 598.213 4.21724V119.007H602.141ZM595.035 119.007V45.8697C595.035 43.5589 594.169 41.6525 593.071 41.6525C591.973 41.6525 591.107 43.5589 591.107 45.8697V119.007H595.035ZM587.929 119.007V38.4173C587.929 36.1065 587.005 34.2001 585.965 34.2001C584.868 34.2001 584.001 36.1065 584.001 38.4173V119.007H587.929ZM580.824 119.007V60.7745C580.824 58.4637 579.899 56.5572 578.859 56.5572C577.762 56.5572 576.895 58.4637 576.895 60.7745V119.007H580.824ZM573.66 119.007V81.1096C573.66 78.7988 572.794 76.8924 571.696 76.8924C570.656 76.8924 569.732 78.7988 569.732 81.1096V119.007H573.66ZM566.554 119.007V47.3717C566.554 45.0609 565.688 43.1545 564.59 43.1545C563.55 43.1545 562.626 45.0609 562.626 47.3717V119.007H566.554ZM559.449 119.007V42.4035C559.449 40.0927 558.582 38.1862 557.484 38.1862C556.387 38.1862 555.52 40.0927 555.52 42.4035V119.007H559.449ZM552.343 119.007V36.973C552.343 34.6045 551.476 32.698 550.379 32.698C549.281 32.698 548.414 34.6045 548.414 36.973V119.007H552.343ZM545.237 119.007V32.467C545.237 30.1561 544.313 28.2497 543.273 28.2497C542.175 28.2497 541.309 30.1561 541.309 32.467V119.007H545.237ZM538.131 119.007V61.7566C538.131 59.4457 537.207 57.5393 536.167 57.5393C535.069 57.5393 534.203 59.4457 534.203 61.7566V119.007H538.131ZM530.968 119.007V73.1951C530.968 70.8265 530.101 68.9201 529.004 68.9201C527.964 68.9201 527.039 70.8265 527.039 73.1951V119.007H530.968ZM523.862 119.007V11.1497C523.862 8.83887 522.995 6.93245 521.898 6.93245C520.8 6.93245 519.934 8.83887 519.934 11.1497V119.007H523.862ZM516.756 119.007V32.467C516.756 30.1561 515.89 28.2497 514.792 28.2497C513.694 28.2497 512.828 30.1561 512.828 32.467V119.007H516.756ZM509.651 119.007V23.5703C509.651 21.2595 508.784 19.3531 507.686 19.3531C506.589 19.3531 505.722 21.2595 505.722 23.5703V119.007H509.651ZM502.545 119.007V13.6338C502.545 11.323 501.62 9.41656 500.581 9.41656C499.483 9.41656 498.616 11.323 498.616 13.6338V119.007H502.545ZM495.439 119.007V22.0683C495.439 19.7575 494.515 17.8511 493.417 17.8511C492.377 17.8511 491.453 19.7575 491.453 22.0683V119.007H495.439ZM1339 119.007V4.21724C1339 1.90642 1339.87 0 1340.97 0C1342.06 0 1342.93 1.90642 1342.93 4.21724V119.007H1339ZM1331.9 119.007V22.5882C1331.9 20.2196 1332.76 18.3132 1333.86 18.3132C1334.96 18.3132 1335.83 20.2196 1335.83 22.5882V119.007H1331.9ZM1324.79 119.007V26.5166C1324.79 24.2058 1325.66 22.2994 1326.76 22.2994C1327.8 22.2994 1328.72 24.2058 1328.72 26.5166V119.007H1324.79ZM1317.63 119.007V60.7745C1317.63 58.4637 1318.55 56.5572 1319.65 56.5572C1320.69 56.5572 1321.61 58.4637 1321.61 60.7745V119.007H1317.63ZM1178.98 119.007V4.21724C1178.98 1.90642 1178.11 0 1177.01 0C1175.97 0 1175.05 1.90642 1175.05 4.21724V119.007H1178.98ZM1186.08 119.007V22.0683C1186.08 19.7575 1185.22 17.8511 1184.12 17.8511C1183.08 17.8511 1182.16 19.7575 1182.16 22.0683V119.007H1186.08ZM1193.25 119.007V13.6338C1193.25 11.323 1192.32 9.41656 1191.28 9.41656C1190.19 9.41656 1189.32 11.323 1189.32 13.6338V119.007H1193.25ZM1200.35 119.007V23.5703C1200.35 21.2595 1199.43 19.3531 1198.39 19.3531C1197.29 19.3531 1196.43 21.2595 1196.43 23.5703V119.007H1200.35ZM1207.46 119.007V32.467C1207.46 30.1561 1206.59 28.2497 1205.49 28.2497C1204.4 28.2497 1203.53 30.1561 1203.53 32.467V119.007H1207.46ZM1214.56 119.007V11.1497C1214.56 8.83887 1213.7 6.93245 1212.6 6.93245C1211.5 6.93245 1210.64 8.83887 1210.64 11.1497V119.007H1214.56ZM1221.67 119.007V73.1951C1221.67 70.8265 1220.8 68.9201 1219.71 68.9201C1218.67 68.9201 1217.74 70.8265 1217.74 73.1951V119.007H1221.67ZM1228.78 119.007V61.7566C1228.78 59.4457 1227.91 57.5393 1226.81 57.5393C1225.77 57.5393 1224.85 59.4457 1224.85 61.7566V119.007H1228.78ZM1235.94 119.007V32.467C1235.94 30.1561 1235.02 28.2497 1233.98 28.2497C1232.88 28.2497 1232.01 30.1561 1232.01 32.467V119.007H1235.94ZM1243.05 119.007V36.973C1243.05 34.6045 1242.12 32.698 1241.08 32.698C1239.98 32.698 1239.12 34.6045 1239.12 36.973V119.007H1243.05ZM1250.15 119.007V42.4035C1250.15 40.0927 1249.29 38.1862 1248.19 38.1862C1247.09 38.1862 1246.22 40.0927 1246.22 42.4035V119.007H1250.15ZM1257.26 119.007V47.3717C1257.26 45.0609 1256.39 43.1545 1255.29 43.1545C1254.2 43.1545 1253.33 45.0609 1253.33 47.3717V119.007H1257.26ZM1264.36 119.007V81.1096C1264.36 78.7988 1263.5 76.8924 1262.4 76.8924C1261.36 76.8924 1260.43 78.7988 1260.43 81.1096V119.007H1264.36ZM1271.47 119.007V60.7745C1271.47 58.4637 1270.6 56.5572 1269.5 56.5572C1268.46 56.5572 1267.54 58.4637 1267.54 60.7745V119.007H1271.47ZM1278.63 119.007V38.4173C1278.63 36.1065 1277.71 34.2001 1276.67 34.2001C1275.57 34.2001 1274.7 36.1065 1274.7 38.4173V119.007H1278.63ZM1285.74 119.007V45.8697C1285.74 43.5589 1284.87 41.6525 1283.77 41.6525C1282.68 41.6525 1281.81 43.5589 1281.81 45.8697V119.007H1285.74ZM1292.84 119.007V4.21724C1292.84 1.90642 1291.98 0 1290.88 0C1289.78 0 1288.92 1.90642 1288.92 4.21724V119.007H1292.84ZM1299.95 119.007V22.5882C1299.95 20.2196 1299.08 18.3132 1297.99 18.3132C1296.89 18.3132 1296.02 20.2196 1296.02 22.5882V119.007H1299.95ZM1307.06 119.007V26.5166C1307.06 24.2058 1306.19 22.2994 1305.09 22.2994C1304.05 22.2994 1303.13 24.2058 1303.13 26.5166V119.007H1307.06ZM1314.22 119.007V60.7745C1314.22 58.4637 1313.29 56.5572 1312.25 56.5572C1311.16 56.5572 1310.29 58.4637 1310.29 60.7745V119.007H1314.22ZM1168.06 119.007V47.3717C1168.06 45.0609 1168.93 43.1545 1170.02 43.1545C1171.12 43.1545 1171.99 45.0609 1171.99 47.3717V119.007H1168.06ZM1160.95 119.007V81.1096C1160.95 78.7988 1161.82 76.8924 1162.92 76.8924C1163.96 76.8924 1164.88 78.7988 1164.88 81.1096V119.007H1160.95ZM1153.85 119.007V60.7745C1153.85 58.4637 1154.71 56.5572 1155.81 56.5572C1156.85 56.5572 1157.78 58.4637 1157.78 60.7745V119.007H1153.85ZM1146.68 119.007V38.4173C1146.68 36.1065 1147.61 34.2001 1148.65 34.2001C1149.75 34.2001 1150.61 36.1065 1150.61 38.4173V119.007H1146.68ZM1139.58 119.007V45.8697C1139.58 43.5589 1140.45 41.6525 1141.54 41.6525C1142.64 41.6525 1143.51 43.5589 1143.51 45.8697V119.007H1139.58ZM1132.47 119.007V4.21724C1132.47 1.90642 1133.34 0 1134.44 0C1135.54 0 1136.4 1.90642 1136.4 4.21724V119.007H1132.47ZM1125.37 119.007V22.5882C1125.37 20.2196 1126.23 18.3132 1127.33 18.3132C1128.43 18.3132 1129.3 20.2196 1129.3 22.5882V119.007H1125.37ZM1118.26 119.007V26.5166C1118.26 24.2058 1119.13 22.2994 1120.23 22.2994C1121.27 22.2994 1122.19 24.2058 1122.19 26.5166V119.007H1118.26ZM1111.1 119.007V60.7745C1111.1 58.4637 1112.02 56.5572 1113.06 56.5572C1114.16 56.5572 1115.03 58.4637 1115.03 60.7745V119.007H1111.1ZM979.555 119.007V22.0683C979.555 19.7575 978.688 17.8511 977.591 17.8511C976.551 17.8511 975.627 19.7575 975.627 22.0683V119.007H979.555ZM986.719 119.007V13.6338C986.719 11.323 985.794 9.41656 984.754 9.41656C983.657 9.41656 982.79 11.323 982.79 13.6338V119.007H986.719ZM993.824 119.007V23.5703C993.824 21.2595 992.9 19.3531 991.86 19.3531C990.762 19.3531 989.896 21.2595 989.896 23.5703V119.007H993.824ZM1000.93 119.007V32.467C1000.93 30.1561 1000.06 28.2497 998.966 28.2497C997.868 28.2497 997.002 30.1561 997.002 32.467V119.007H1000.93ZM1008.04 119.007V11.1497C1008.04 8.83887 1007.17 6.93245 1006.07 6.93245C1004.97 6.93245 1004.11 8.83887 1004.11 11.1497V119.007H1008.04ZM1015.14 119.007V73.1951C1015.14 70.8265 1014.28 68.9201 1013.18 68.9201C1012.14 68.9201 1011.21 70.8265 1011.21 73.1951V119.007H1015.14ZM1022.25 119.007V61.7566C1022.25 59.4457 1021.38 57.5393 1020.28 57.5393C1019.24 57.5393 1018.32 59.4457 1018.32 61.7566V119.007H1022.25ZM1029.41 119.007V32.467C1029.41 30.1561 1028.49 28.2497 1027.45 28.2497C1026.35 28.2497 1025.48 30.1561 1025.48 32.467V119.007H1029.41ZM1036.52 119.007V36.973C1036.52 34.6045 1035.59 32.698 1034.55 32.698C1033.45 32.698 1032.59 34.6045 1032.59 36.973V119.007H1036.52ZM1043.62 119.007V42.4035C1043.62 40.0927 1042.76 38.1862 1041.66 38.1862C1040.56 38.1862 1039.69 40.0927 1039.69 42.4035V119.007H1043.62ZM1050.73 119.007V47.3717C1050.73 45.0609 1049.86 43.1545 1048.76 43.1545C1047.67 43.1545 1046.8 45.0609 1046.8 47.3717V119.007H1050.73ZM1057.83 119.007V81.1096C1057.83 78.7988 1056.97 76.8924 1055.87 76.8924C1054.83 76.8924 1053.91 78.7988 1053.91 81.1096V119.007H1057.83ZM1064.94 119.007V60.7745C1064.94 58.4637 1064.07 56.5572 1062.98 56.5572C1061.94 56.5572 1061.01 58.4637 1061.01 60.7745V119.007H1064.94ZM1072.1 119.007V38.4173C1072.1 36.1065 1071.18 34.2001 1070.14 34.2001C1069.04 34.2001 1068.17 36.1065 1068.17 38.4173V119.007H1072.1ZM1079.21 119.007V45.8697C1079.21 43.5589 1078.28 41.6525 1077.24 41.6525C1076.15 41.6525 1075.28 43.5589 1075.28 45.8697V119.007H1079.21ZM1086.31 119.007V4.21724C1086.31 1.90642 1085.45 0 1084.35 0C1083.25 0 1082.39 1.90642 1082.39 4.21724V119.007H1086.31ZM1093.42 119.007V22.5882C1093.42 20.2196 1092.55 18.3132 1091.46 18.3132C1090.36 18.3132 1089.49 20.2196 1089.49 22.5882V119.007H1093.42ZM1100.53 119.007V26.5166C1100.53 24.2058 1099.66 22.2994 1098.56 22.2994C1097.52 22.2994 1096.6 24.2058 1096.6 26.5166V119.007H1100.53ZM1107.69 119.007V60.7745C1107.69 58.4637 1106.77 56.5572 1105.73 56.5572C1104.63 56.5572 1103.7 58.4637 1103.7 60.7745V119.007H1107.69Z" fill="#CFCFCF"/>
</svg>
