<svg width="176" height="201" viewBox="0 0 176 201" fill="none" xmlns="http://www.w3.org/2000/svg">
<g clip-path="url(#clip0)">
<path d="M199.092 86.3792C200.132 86.3792 200.976 85.5359 200.976 84.4958C200.976 83.4557 200.132 82.6124 199.092 82.6124H134.444V78.0961C134.444 77.5806 134.233 77.0881 133.86 76.7326C133.487 76.3766 132.983 76.1859 132.47 76.2147L74.0854 79.0397C73.082 79.0882 72.2929 79.9159 72.2929 80.9207V82.612H41.24C43.0358 80.6048 44.3749 78.2868 45.2106 75.7852H199.093C200.133 75.7852 200.976 74.942 200.976 73.9019C200.976 72.8618 200.133 72.0185 199.093 72.0185H46.0642C46.1655 71.2058 46.2229 70.3833 46.2229 69.5513C46.2229 65.5741 42.9873 62.3385 39.0101 62.3385C35.0329 62.3385 31.7973 65.5741 31.7973 69.5513V72.0185H2.85895C1.81886 72.0185 0.975586 72.8618 0.975586 73.9019V116.276C0.975586 117.316 1.81886 118.159 2.85895 118.159H31.7973V126.447C31.7973 127.792 30.7035 128.885 29.3593 128.885C28.015 128.885 26.9213 127.792 26.9213 126.447V121.838C26.9213 120.798 26.078 119.954 25.0379 119.954C23.9978 119.954 23.1545 120.798 23.1545 121.838V126.447C23.1545 129.869 25.9382 132.652 29.3593 132.652C32.7804 132.652 35.564 129.869 35.564 126.447V118.159H62.636C62.6275 118.579 62.7038 118.982 62.8822 119.351C63.8818 121.417 67.5765 121.696 71.1351 119.975C72.1846 119.468 73.0999 118.841 73.8504 118.159H85.5442C85.185 118.292 84.8248 118.44 84.466 118.614C80.9079 120.335 78.8333 123.406 79.8329 125.472C80.8325 127.538 84.5272 127.817 88.0858 126.096C90.6077 124.876 92.3771 122.98 92.8423 121.242C92.9487 121.007 93.0108 120.747 93.0108 120.471V118.159H100.304C100.295 118.579 100.371 118.982 100.55 119.351C101.55 121.417 105.244 121.696 108.803 119.975C109.852 119.468 110.768 118.841 111.518 118.159H163.166V136.641C163.166 137.682 164.009 138.525 165.049 138.525C166.09 138.525 166.933 137.682 166.933 136.641V136.183L169.055 133.477C172.508 129.075 174.148 123.612 173.787 118.159H199.093C200.133 118.159 200.976 117.316 200.976 116.276C200.976 115.236 200.133 114.392 199.093 114.392H173.209C173.083 113.87 172.944 113.348 172.78 112.832C172.464 111.84 171.404 111.291 170.414 111.608C169.423 111.924 168.875 112.983 169.191 113.974C169.235 114.113 169.269 114.253 169.31 114.392H166.933V107.566H199.093C200.133 107.566 200.976 106.722 200.976 105.682C200.976 104.642 200.133 103.799 199.093 103.799H173.771C176.011 102.077 177.129 99.8353 176.344 98.2114C176.085 97.6765 175.642 97.2641 175.071 96.9721H199.093C200.133 96.9721 200.976 96.1289 200.976 95.0888C200.976 94.0487 200.133 93.2054 199.093 93.2054H134.444V86.3792H199.092ZM130.678 82.6124H113.727V80.9212C113.727 80.9118 113.725 80.9028 113.725 80.8934L130.678 80.0732V82.6124ZM113.727 107.566H126.388C126.225 107.636 126.062 107.706 125.9 107.785C122.481 109.439 120.44 112.336 121.171 114.393H113.723C113.724 114.379 113.727 107.566 113.727 107.566ZM113.727 103.799V96.9726H130.678V103.799H113.727ZM109.961 103.799H93.0104V96.9726H109.961V103.799ZM39.8435 114.393C42.6822 113 44.9116 110.554 46.0233 107.566H72.2934V111.374C70.8615 111.328 69.1755 111.69 67.5158 112.493C66.4234 113.022 65.4728 113.678 64.7058 114.393H39.8435ZM37.4168 96.9726C40.5714 97.3276 43.032 100.009 43.032 103.257C43.032 103.44 43.0179 103.619 43.0066 103.799H35.564V97.0329C35.709 97.0065 35.8574 96.9891 36.0057 96.9726H37.4168ZM44.5905 96.9726H72.2934V103.799H46.786C46.794 103.619 46.7992 103.439 46.7992 103.257C46.7992 100.881 45.9691 98.6987 44.5905 96.9726ZM31.7973 103.799H30.3513C30.3659 103.671 30.3787 103.447 30.3787 103.257C30.3787 101.746 30.9107 100.358 31.7973 99.2684V103.799ZM31.7973 107.566V111.526C29.5721 110.89 27.6789 109.461 26.4424 107.566H31.7973ZM35.564 107.566H41.8705C40.5611 109.827 38.261 111.446 35.564 111.811V107.566ZM26.7009 103.799H25.0153C24.9466 103.34 24.9056 102.871 24.9056 102.393C24.9056 100.374 25.6378 98.4722 26.9636 96.9726H28.8136C27.4368 98.6982 26.6124 100.883 26.6124 103.257C26.6119 103.447 26.6482 103.627 26.7009 103.799ZM30.6946 93.2059L31.7973 92.1032V93.2059H30.6946ZM25.3675 93.2059H11.6976V86.3792H31.7968V86.7761L25.3675 93.2059ZM7.93085 93.2059H4.74231V86.3792H7.93085V93.2059ZM4.74231 96.9726H7.93085V103.799H4.74231V96.9726ZM11.6976 96.9726H22.4327C21.5881 98.6319 21.1379 100.477 21.1379 102.393C21.1379 102.868 21.1662 103.337 21.2151 103.799H11.6976V96.9726ZM22.1907 107.566C23.4677 110.568 25.8204 113.005 28.7623 114.393H11.6976V107.566H22.1907ZM76.0601 114.351V107.566H89.2436V114.393H76.0559C76.0563 114.379 76.0601 114.365 76.0601 114.351ZM76.0601 103.799V96.9726H89.2436V103.799H76.0601ZM89.2436 86.3792V93.2059H76.0601V86.3792H89.2436ZM93.0104 93.2059V86.3792H109.961V93.2059H93.0104ZM93.0104 82.6124V81.8958L109.961 81.0756V82.6124H93.0104V82.6124ZM89.2436 82.078V82.6124H78.1982L89.2436 82.078ZM72.2934 93.2059H35.564V88.3365L37.5213 86.3792H72.2934V93.2059ZM37.8132 80.7602L35.9609 82.6124H35.564V75.7857H41.1845C40.3996 77.6201 39.2662 79.3071 37.8132 80.7602ZM35.564 69.5518C35.564 67.6515 37.1098 66.1057 39.0101 66.1057C40.9104 66.1057 42.4562 67.6515 42.4562 69.5518C42.4562 70.3861 42.3898 71.2101 42.2641 72.019H35.564V69.5518ZM31.7973 82.6124H11.6976V75.7857H31.7968V82.6124H31.7973ZM7.93085 75.7857V82.6124H4.74231V75.7857H7.93085ZM4.74231 107.566H7.93085V114.393H4.74231V107.566ZM93.0104 107.566H109.961V111.374C108.529 111.328 106.843 111.69 105.183 112.493C104.091 113.022 103.14 113.678 102.373 114.393H93.0104V107.566V107.566ZM170.005 118.16C170.335 122.307 169.271 126.471 166.932 129.979V118.16H170.005ZM163.166 114.393H131.031C132.739 113.236 133.911 111.777 134.276 110.413C134.383 110.178 134.445 109.918 134.445 109.642V107.566H163.166V114.393H163.166ZM169.627 96.9726C169.118 97.1384 168.603 97.3399 168.091 97.5875C165.569 98.8075 163.799 100.705 163.334 102.442C163.228 102.677 163.166 102.937 163.166 103.212V103.799H134.444V96.9726H169.627V96.9726ZM130.678 93.2059H113.727V86.3792H130.678V93.2059Z" fill="#EEE6E6"/>
</g>
<defs>
<clipPath id="clip0">
<rect width="200" height="200" fill="white" transform="translate(0.975586 0.431763)"/>
</clipPath>
</defs>
</svg>
