<svg width="100" height="151" viewBox="0 0 100 151" fill="none" xmlns="http://www.w3.org/2000/svg">
<g clip-path="url(#clip0)">
<path d="M124.413 65.1224L106.098 11.8954L115.811 5.43664L112.547 0.532593L15.4215 65.1224H5.7052V102.989H13.5477L15.2309 106.776L18.4628 146.851H20.8894V149.27H23.4139V146.851H26.3069L27.6212 102.989H53.8969L55.7681 124.617H57.3342V126.352H59.8587V124.617H61.7583L62.5128 102.989H66.4011V136.001C64.2777 136.6 62.7154 138.551 62.7154 140.863V148.429H67.7643V149.27C67.7643 149.967 68.3294 150.533 69.0265 150.533C69.7235 150.533 70.2887 149.967 70.2887 149.27V148.429H73.6547V149.27C73.6547 149.967 74.2199 150.533 74.917 150.533C75.614 150.533 76.1792 149.967 76.1792 149.27V148.429H79.5452V149.27C79.5452 149.967 80.1104 150.533 80.8074 150.533C81.5045 150.533 82.0697 149.967 82.0697 149.27V148.429H87.1186V140.863C87.1186 138.551 85.5562 136.6 83.4329 136.001V102.989H123.265L124.579 146.851H127.472V149.27H129.997V146.851H132.423L135.655 106.776L137.338 102.989H145.181V65.1224H124.413V65.1224ZM142.656 91.3135H139.027V67.6469H142.656V91.3135ZM136.503 67.6469V69.3824H14.383V67.6469H136.503ZM49.9486 57.2657C49.9082 56.8151 50.0707 56.3755 50.3942 56.0597C50.718 55.7438 51.161 55.5895 51.6107 55.6431C54.6078 55.9842 57.6106 55.787 60.5361 55.0559C70.7696 52.497 81.5881 52.497 91.8222 55.0559C94.7477 55.7867 97.7509 55.9839 100.747 55.6431C101.199 55.5939 101.64 55.7435 101.964 56.0597C102.287 56.3755 102.45 56.8154 102.409 57.2657C102.16 60.0609 103.315 62.7813 105.501 64.5421L106.221 65.1224H46.137L46.8571 64.5421C49.043 62.7813 50.1985 60.0609 49.9486 57.2657ZM14.383 87.3691V71.9069H136.503V87.3691H14.383ZM14.383 89.8935H17.0519V91.3135H14.383V89.8935ZM19.5764 89.8935H22.2454V91.3135H19.5764V89.8935ZM24.7701 89.8935H27.4391V91.3135H24.7701V89.8935ZM29.9635 89.8935H32.6325V91.3135H29.9635V89.8935ZM35.157 89.8935H37.8259V91.3135H35.157V89.8935ZM40.3507 89.8935H43.0197V91.3135H40.3507V89.8935V89.8935ZM45.5441 89.8935H48.2131V91.3135H45.5441V89.8935ZM50.7375 89.8935H53.4065V91.3135H50.7375V89.8935ZM55.9312 89.8935H58.6002V91.3135H55.9312V89.8935ZM61.1247 89.8935H63.7936V91.3135H61.1247V89.8935ZM66.3181 89.8935H68.987V91.3135H66.3181V89.8935ZM71.5118 89.8935H74.1808V91.3135H71.5118V89.8935ZM76.7052 89.8935H79.3742V91.3135H76.7052V89.8935ZM81.8986 89.8935H84.5676V91.3135H81.8986V89.8935ZM87.0924 89.8935H89.7613V91.3135H87.0924V89.8935ZM92.2858 89.8935H94.9547V91.3135H92.2858V89.8935ZM97.4792 89.8935H100.148V91.3135H97.4792V89.8935ZM102.673 89.8935H105.342V91.3135H102.673V89.8935ZM107.866 89.8935H110.535V91.3135H107.866V89.8935ZM113.06 89.8935H115.729V91.3135H113.06V89.8935ZM118.253 89.8935H120.922V91.3135H118.253V89.8935ZM123.447 89.8935H126.116V91.3135H123.447V89.8935ZM128.64 89.8935H131.309V91.3135H128.64V89.8935ZM133.834 89.8935H136.503V91.3135H133.834V89.8935ZM121.743 65.1224H110.246L107.085 62.5762C105.557 61.3458 104.749 59.4446 104.924 57.491C105.032 56.2818 104.596 55.1016 103.727 54.2534C102.858 53.4049 101.669 52.9985 100.461 53.1348C97.766 53.4428 95.0655 53.2641 92.4341 52.6065C81.8002 49.948 70.5579 49.948 59.924 52.6065C57.2919 53.2641 54.5911 53.4421 51.8966 53.1348C50.6927 52.9966 49.4999 53.4049 48.6309 54.2534C47.7618 55.1016 47.3257 56.2818 47.434 57.491C47.6091 59.4446 46.8013 61.3458 45.2733 62.5762L42.1127 65.1224H26.0582L103.926 13.3404L121.743 65.1224ZM111.844 4.0321L112.31 4.73295L21.4991 65.1224H19.9806L111.844 4.0321ZM11.8585 67.6469V91.3135H8.22965V67.6469H11.8585V67.6469ZM17.8399 107.722H25.0548L24.0541 138.462H20.3189L17.8399 107.722ZM20.7916 144.327L20.5224 140.986H23.9721L23.8632 144.327H20.7916V144.327ZM25.0967 105.198H17.2921L16.3104 102.989H25.097V105.198H25.0967ZM58.0837 122.093L57.9659 120.734H59.3673L59.32 122.093H58.0837ZM59.4554 118.21H57.7476L56.4308 102.989H59.9861L59.4554 118.21ZM72.2833 102.989H77.5503V135.807H72.2833V102.989ZM69.7589 135.807H68.9252V102.989H69.7589V135.807ZM84.5941 140.863V145.905H82.0697V143.38C82.0697 142.683 81.5045 142.118 80.8074 142.118C80.1104 142.118 79.5452 142.683 79.5452 143.38V145.905H76.1792V143.38C76.1792 142.683 75.614 142.118 74.917 142.118C74.2199 142.118 73.6547 142.683 73.6547 143.38V145.905H70.2887V143.38C70.2887 142.683 69.7235 142.118 69.0265 142.118C68.3294 142.118 67.7643 142.683 67.7643 143.38V145.905H65.2398V140.863C65.2398 139.467 66.3761 138.331 67.7722 138.331H72.2833H77.5503H82.0615C83.4578 138.331 84.5941 139.467 84.5941 140.863ZM80.9084 135.807H80.0747V102.989H80.9084V135.807ZM127.022 144.327L126.914 140.986H130.364L130.094 144.327H127.022ZM130.567 138.462H126.832L125.831 107.722H133.046L130.567 138.462ZM133.594 105.198H125.789V102.989H134.576L133.594 105.198ZM8.22965 100.465V93.838H142.656V100.465H8.22965Z" fill="#EEE6E6"/>
</g>
<defs>
<clipPath id="clip0">
<rect width="150" height="150" fill="white" transform="translate(0.442993 0.532593)"/>
</clipPath>
</defs>
</svg>
