<svg width="109" height="200" viewBox="0 0 109 200" fill="none" xmlns="http://www.w3.org/2000/svg">
<path d="M139.392 33.6062C138.1 28.8166 134.422 25.0108 129.555 23.4261L118.069 19.6856C113.774 18.2902 109.914 16.0793 106.598 13.1139L105.435 12.0732L103.896 13.547L99.8471 9.66696L100.855 8.70086C101.187 8.3829 101.375 7.94265 101.375 7.483C101.375 7.02335 101.187 6.5831 100.855 6.26514L94.8053 0.468925C94.4751 0.152653 94.0407 -0.0164476 93.5735 0.00126363L84.8068 0.337356C84.1304 0.363501 83.5346 0.791101 83.2946 1.42407C83.0543 2.05703 83.2154 2.77223 83.7045 3.24073L93.9614 13.0692C94.2874 13.3817 94.7083 13.5381 95.1287 13.5381C95.5491 13.5381 95.9696 13.3817 96.296 13.0692L97.4084 12.0032L101.458 15.8832L99.9478 17.3296L101.084 18.5466C105.198 22.9512 110.54 25.9929 116.539 27.347L122.814 29.3952C125.669 30.3267 127.765 32.5562 128.42 35.3584C129.058 38.0906 128.247 40.8101 126.194 42.8195L25.944 140.941L7.5192 158.595C2.73885 163.175 0.106201 169.271 0.106201 175.76C0.106201 182.249 2.73885 188.345 7.5192 192.926C12.2806 197.488 18.6056 200 25.3295 200C32.0531 200 38.3781 197.488 43.1395 192.926L86.0977 151.763C89.0537 148.931 93.1552 147.438 97.3367 147.664C101.385 147.883 104.987 149.638 107.478 152.605L108.267 153.535L109.393 153.097C110.529 152.655 110.529 151.623 110.53 150.317C110.53 149.574 110.513 148.489 110.478 147.088C110.418 144.656 110.304 141.196 110.139 136.804C109.924 131.078 109.622 123.742 109.241 115.003C109.197 113.974 108.485 113.138 107.469 112.922C106.454 112.706 105.425 113.2 104.97 114.114C103.753 116.527 101.436 118.139 98.0823 118.908C85.9041 121.702 75.1517 127.071 56.2298 146.248C43.1454 159.506 32.3651 170.9 27.1049 176.51C26.6284 177.018 25.968 177.308 25.2456 177.327C24.5296 177.355 23.838 177.089 23.3294 176.601C22.8858 176.177 22.6294 175.619 22.6066 175.031C22.5835 174.441 22.7939 173.865 23.1958 173.412L39.9987 154.59C40.7016 154.858 41.4636 155 42.2657 155C44.4223 155 46.6298 153.967 48.1699 152.237C49.5982 150.633 50.3285 148.593 50.1738 146.64C50.1 145.709 49.8217 144.842 49.3764 144.081L50.0009 143.381C50.6992 143.644 51.4557 143.784 52.2515 143.784C54.4084 143.784 56.616 142.751 58.1561 141.021C59.5843 139.417 60.3143 137.377 60.16 135.424C60.0866 134.501 59.8121 133.641 59.3731 132.883L60.0069 132.173C60.6997 132.431 61.4491 132.568 62.2368 132.568C64.3938 132.568 66.6014 131.535 68.1418 129.805C69.5697 128.2 70.2997 126.16 70.1449 124.208C70.0724 123.292 69.8016 122.439 69.3694 121.686L70.5173 120.399C71.0912 120.588 71.7052 120.688 72.3461 120.688C74.2876 120.688 76.2734 119.76 77.6574 118.205C78.9423 116.762 79.5989 114.924 79.4589 113.163C79.399 112.405 79.1924 111.691 78.8588 111.053L80.5237 109.189C81.0917 109.374 81.6981 109.472 82.3315 109.472C84.2734 109.472 86.2588 108.544 87.6432 106.989C88.9281 105.546 89.5847 103.709 89.4446 101.947C89.3852 101.196 89.1828 100.489 88.8551 99.8551L90.9417 97.5164C91.4093 97.6497 91.9027 97.7218 92.4159 97.7218C94.2119 97.7218 95.9742 96.8991 97.2511 95.4649C98.4205 94.1517 99.018 92.4763 98.8911 90.8684C98.8422 90.2481 98.6819 89.6623 98.4318 89.1264L100.949 86.3073C101.41 86.4364 101.896 86.5064 102.402 86.5064C104.198 86.5064 105.96 85.6836 107.237 84.249C108.406 82.9354 109.004 81.2596 108.877 79.6517C108.828 79.0394 108.671 78.4608 108.426 77.9307L136.207 46.8087C139.5 43.1222 140.661 38.3103 139.392 33.6062ZM88.91 3.55616L92.9882 3.39971L97.2494 7.483L95.1287 9.51515L88.91 3.55616ZM23.8169 147.824C24.7358 146.943 25.9174 146.438 27.0593 146.438C27.6147 146.438 28.4067 146.562 29.0219 147.152C29.6123 147.717 29.7363 148.432 29.7363 148.933C29.7363 149.982 29.2201 151.078 28.3206 151.94C27.4018 152.821 26.2202 153.326 25.0782 153.326C24.5228 153.326 23.7309 153.202 23.1156 152.612C22.5253 152.047 22.4013 151.332 22.4013 150.831C22.4013 149.782 22.9174 148.686 23.8169 147.824ZM98.8371 122.197C102.241 121.416 104.507 119.951 106.012 118.397C106.746 135.438 107.026 143.695 107.12 147.67C104.396 145.663 101.096 144.489 97.5197 144.295C92.41 144.018 87.391 145.852 83.764 149.327L47.7309 183.854L35.6957 172.322C36.0748 171.923 36.4606 171.516 36.8587 171.098C37.2791 171.938 37.8518 172.71 38.5767 173.356C40.0653 174.685 41.9591 175.342 43.85 175.342C45.9286 175.342 48.0033 174.547 49.529 172.978L63.5205 158.59C64.9192 157.154 65.6711 155.276 65.637 153.302C65.6028 151.324 64.7851 149.47 63.3358 148.081C63.2679 148.016 63.1949 147.947 63.1182 147.882C62.4278 147.269 61.6317 146.798 60.7799 146.462C73.9507 133.353 84.2612 125.541 98.8371 122.197ZM55.1274 162.382L49.9811 157.451C50.9788 156.424 51.9976 155.379 53.0367 154.316L58.1793 159.244L55.1274 162.382ZM52.7752 164.801L49.723 167.939L44.5901 163.021C45.5752 161.998 46.5894 160.948 47.6314 159.872L52.7752 164.801ZM47.3712 170.358L47.1106 170.626C45.439 172.346 42.6187 172.441 40.8235 170.839C40.0674 170.164 39.6078 169.293 39.485 168.343C40.3727 167.414 41.2958 166.449 42.2522 165.453L47.3712 170.358ZM57.9853 149.275C59.0602 149.307 60.0963 149.706 60.8878 150.413L60.9245 150.445C60.9519 150.468 60.9776 150.494 61.0017 150.517C61.7974 151.279 62.2453 152.289 62.2638 153.361C62.2824 154.429 61.8704 155.45 61.1033 156.238L60.5319 156.825L55.3978 151.906C56.2487 151.038 57.1115 150.161 57.9853 149.275ZM24.4069 181.464C25.0748 180.824 25.968 180.471 26.9219 180.471C27.8757 180.471 28.7689 180.824 29.4369 181.464C30.085 182.085 30.4422 182.905 30.4422 183.774C30.4426 184.643 30.085 185.463 29.4369 186.084C28.7689 186.725 27.8757 187.077 26.9219 187.077C25.968 187.077 25.0748 186.725 24.4069 186.084C23.7583 185.463 23.4011 184.643 23.4011 183.774C23.4011 182.906 23.7583 182.085 24.4069 181.464ZM20.6765 171.169C19.6906 172.281 19.1787 173.699 19.236 175.163C19.293 176.629 19.9175 178.005 20.9958 179.037C21.1851 179.219 21.3875 179.382 21.5954 179.535C20.58 180.726 20.0276 182.207 20.0276 183.774C20.0276 185.57 20.7537 187.256 22.0728 188.52C23.372 189.765 25.0938 190.45 26.9219 190.45C28.7499 190.45 30.4717 189.765 31.7709 188.52C33.0896 187.256 33.8162 185.57 33.8158 183.774C33.8158 181.977 33.0896 180.291 31.7709 179.028C31.3404 178.615 30.8618 178.268 30.3498 177.983C31.2358 177.039 32.2483 175.964 33.3764 174.771L45.2931 186.189L40.8058 190.489C36.6757 194.446 31.1793 196.626 25.33 196.626C19.4802 196.626 13.9838 194.446 9.85371 190.489C5.74344 186.55 3.48019 181.319 3.48019 175.759C3.48019 170.199 5.74344 164.968 9.85371 161.03L14.4447 156.631L24.7986 166.552L20.6765 171.169ZM45.6511 149.995C44.7406 151.017 43.4756 151.628 42.2666 151.628C41.7905 151.628 41.1006 151.528 40.5182 151.051C39.876 150.526 39.6934 149.815 39.6533 149.311C39.6031 148.679 39.7419 148.017 40.04 147.387L42.0654 149.328C42.3922 149.641 42.8122 149.797 43.2322 149.797C43.6763 149.797 44.1195 149.622 44.4505 149.277C45.0953 148.605 45.0725 147.537 44.3999 146.892L42.434 145.008C43.0037 144.739 43.608 144.591 44.1992 144.591C44.6753 144.591 45.3652 144.691 45.9475 145.168C46.5898 145.693 46.7724 146.404 46.8124 146.908C46.8938 147.948 46.4709 149.074 45.6511 149.995ZM55.6368 138.779C54.7264 139.801 53.4613 140.411 52.2519 140.411C51.7758 140.411 51.0859 140.311 50.5035 139.835C49.8613 139.31 49.6787 138.599 49.6386 138.095C49.5885 137.463 49.7276 136.8 50.0258 136.171L52.0512 138.111C52.378 138.425 52.798 138.58 53.218 138.58C53.662 138.58 54.1053 138.406 54.4367 138.061C55.0811 137.388 55.0583 136.32 54.3857 135.676L52.4197 133.792C52.9894 133.523 53.5937 133.376 54.1849 133.376C54.661 133.376 55.3505 133.476 55.9333 133.952C56.5755 134.477 56.7581 135.188 56.7982 135.692C56.8796 136.732 56.4566 137.858 55.6368 138.779ZM65.6222 127.563C64.7118 128.585 63.4467 129.196 62.2372 129.196C61.7611 129.196 61.0713 129.096 60.4889 128.619C59.8462 128.094 59.6636 127.383 59.6236 126.879C59.5734 126.247 59.7125 125.585 60.0107 124.955L62.0361 126.896C62.3629 127.209 62.7829 127.365 63.2029 127.365C63.647 127.365 64.0902 127.19 64.4216 126.845C65.066 126.172 65.0432 125.104 64.3706 124.46L62.4047 122.576C62.9744 122.308 63.5782 122.16 64.1694 122.16C64.6455 122.16 65.3354 122.26 65.9178 122.736C66.56 123.261 66.7426 123.972 66.7827 124.476C66.8649 125.516 66.4424 126.642 65.6222 127.563ZM75.1382 115.963C74.3842 116.809 73.3405 117.315 72.3466 117.315C71.9662 117.315 71.4163 117.236 70.9571 116.861C70.4557 116.451 70.3127 115.891 70.2811 115.492C70.2474 115.07 70.3174 114.63 70.4784 114.201L72.0214 115.679C72.3483 115.993 72.7683 116.148 73.1883 116.148C73.6323 116.148 74.0755 115.974 74.407 115.629C75.0513 114.956 75.0286 113.888 74.3559 113.244L72.8771 111.827C73.2566 111.685 73.6475 111.608 74.0321 111.608C74.412 111.608 74.9619 111.687 75.4212 112.062C75.9221 112.472 76.0651 113.033 76.0971 113.43C76.1633 114.28 75.8142 115.203 75.1382 115.963ZM85.1235 104.746C84.3695 105.593 83.3258 106.099 82.3315 106.099C81.9515 106.099 81.4016 106.02 80.9424 105.645C80.441 105.235 80.2981 104.674 80.266 104.277C80.2327 103.855 80.3023 103.414 80.4638 102.985L82.0068 104.463C82.3336 104.776 82.7536 104.932 83.1736 104.932C83.6177 104.932 84.0609 104.758 84.3919 104.412C85.0362 103.74 85.0139 102.672 84.3413 102.027L82.8624 100.61C83.2415 100.469 83.6328 100.392 84.0166 100.392C84.397 100.392 84.9464 100.47 85.4057 100.846C85.9071 101.256 86.05 101.816 86.082 102.214C86.1491 103.064 85.7999 103.987 85.1235 104.746ZM94.7315 93.2223C94.1031 93.9278 93.2378 94.3491 92.4159 94.3491C92.1127 94.3491 91.6759 94.2875 91.3161 93.9931C90.9273 93.6756 90.8164 93.2362 90.7915 92.9233C90.7367 92.2271 91.0269 91.4663 91.5881 90.8363C92.2165 90.1308 93.0818 89.7096 93.9033 89.7096C94.2069 89.7096 94.6437 89.7711 95.0035 90.0655C95.3923 90.383 95.5032 90.8224 95.5281 91.1353C95.5829 91.8311 95.2932 92.5919 94.7315 93.2223ZM104.717 82.006C104.089 82.7115 103.223 83.1328 102.402 83.1328C102.098 83.1328 101.661 83.0712 101.301 82.7769C100.913 82.4593 100.802 82.0199 100.777 81.707C100.722 81.0108 101.013 80.2496 101.573 79.6196C102.202 78.9141 103.068 78.4929 103.889 78.4929C104.192 78.4929 104.63 78.5544 104.989 78.8488C105.378 79.1663 105.489 79.6053 105.513 79.9178C105.569 80.6148 105.278 81.3756 104.717 82.006ZM106.021 75.5591C105.37 75.2698 104.649 75.1197 103.889 75.1197C102.093 75.1197 100.33 75.9424 99.0534 77.3771C97.8841 78.6906 97.2865 80.366 97.4139 81.974C97.4822 82.8351 97.755 83.6346 98.2029 84.3177L96.0155 86.7674C95.3695 86.4836 94.656 86.336 93.9028 86.336C92.1073 86.336 90.345 87.1587 89.0681 88.5929C87.8987 89.9061 87.3012 91.5815 87.4281 93.1894C87.4956 94.0438 87.7642 94.8378 88.2053 95.5172L86.4097 97.5299C85.6819 97.1942 84.8735 97.0184 84.0166 97.0184C82.7241 97.0184 81.4156 97.4371 80.2745 98.1709C79.6065 97.7197 78.6922 97.7968 78.1158 98.3986C77.5516 98.9873 77.4988 99.8788 77.945 100.524C77.1716 101.763 76.7946 103.175 76.903 104.543C76.9797 105.511 77.296 106.405 77.8109 107.162L76.4054 108.736C75.6826 108.407 74.8801 108.234 74.0308 108.234C72.7472 108.234 71.4483 108.647 70.3127 109.371L69.6544 108.74C68.9818 108.096 67.9141 108.118 67.2693 108.791C66.625 109.464 66.6478 110.531 67.3204 111.176L67.9398 111.77C67.1791 113.002 66.8097 114.402 66.9172 115.759C66.9931 116.72 67.3052 117.608 67.8133 118.363L66.8949 119.393C66.0705 118.996 65.1491 118.786 64.1686 118.786C62.6817 118.786 61.1708 119.277 59.8711 120.149L58.8093 119.132C58.1367 118.487 57.0689 118.51 56.4242 119.183C55.7798 119.855 55.8026 120.923 56.4752 121.567L57.5062 122.555C56.5895 123.963 56.137 125.58 56.2605 127.145C56.3478 128.249 56.7193 129.263 57.3219 130.116L56.8906 130.599C56.0712 130.208 55.1561 130.002 54.1833 130.002C52.6959 130.002 51.185 130.493 49.8853 131.365L47.9637 129.524C47.2911 128.88 46.2233 128.902 45.5786 129.575C44.9342 130.248 44.957 131.315 45.6296 131.96L47.5205 133.772C46.6037 135.179 46.1508 136.797 46.2748 138.362C46.3616 139.458 46.7285 140.466 47.324 141.315L46.8858 141.806C46.0711 141.421 45.1628 141.218 44.1979 141.218C42.7106 141.218 41.2001 141.709 39.9 142.581L37.1185 139.916C36.4459 139.272 35.3777 139.294 34.7338 139.967C34.089 140.64 34.1118 141.707 34.7844 142.352L37.5351 144.988C36.6184 146.396 36.1655 148.013 36.2894 149.578C36.3759 150.668 36.739 151.671 37.3285 152.517L27.0463 164.035L16.8825 154.296L19.1631 152.111C19.4013 153.24 19.9538 154.256 20.7815 155.049C21.8927 156.114 23.4188 156.701 25.0782 156.701C27.0813 156.701 29.1138 155.854 30.6551 154.378C32.2154 152.883 33.1103 150.898 33.1103 148.934C33.1103 147.298 32.487 145.801 31.3564 144.717C30.5641 143.957 29.5583 143.447 28.4455 143.213L128.554 45.2311C131.427 42.4197 132.605 38.4418 131.705 34.5913C130.78 30.6308 127.847 27.4895 123.861 26.189L117.51 24.116L117.353 24.073C112.545 23.001 108.211 20.715 104.725 17.4258L105.538 16.6465C108.929 19.4187 112.786 21.5175 117.025 22.8943L128.51 26.6343C132.29 27.8653 135.14 30.8003 136.134 34.4855C137.1 38.0691 136.21 41.7416 133.689 44.5623L106.021 75.5591Z" fill="#EEE6E6"/>
</svg>
