<svg width="76" height="76" viewBox="0 0 76 76" fill="none" xmlns="http://www.w3.org/2000/svg">
<g clip-path="url(#clip0)">
<path d="M29.5872 17.6596L28.6087 24.5321C28.3605 26.2757 30.1688 27.5902 31.7508 26.815L37.9843 23.7606L44.2178 26.815C45.7991 27.59 47.6081 26.2762 47.3598 24.5321L46.3812 17.6596L51.2123 12.6748C52.4379 11.4103 51.7476 9.2838 50.0122 8.98102L43.1738 7.78808L39.9262 1.65285C39.1024 0.0964798 36.8666 0.0958939 36.0424 1.65285L32.7946 7.78808L25.9563 8.98102C24.2215 9.28365 23.5299 11.4098 24.7561 12.6748L29.5872 17.6596ZM34.6104 11.9322C35.2795 11.8154 35.8569 11.3959 36.1747 10.7956L37.9843 7.37734L39.7939 10.7956C40.1116 11.3959 40.6891 11.8154 41.3582 11.9322L45.1683 12.5969L42.4766 15.3742C42.0039 15.8618 41.7833 16.5408 41.8791 17.2131L42.4243 21.0423L38.9512 19.3405C38.3423 19.0421 37.6288 19.0411 37.0177 19.3405L33.5446 21.0423L34.0898 17.2131C34.1856 16.5408 33.965 15.8618 33.4923 15.3742L30.8005 12.5969L34.6104 11.9322Z" fill="#B42C2F"/>
<path d="M73.664 24.7076L68.6902 23.84L66.3281 19.3776C65.5043 17.8214 63.2685 17.8205 62.4443 19.3776L60.0823 23.8398L55.1085 24.7075C53.3737 25.0101 52.6822 27.1363 53.9084 28.4013L57.4222 32.0268L56.7104 37.0254C56.4611 38.776 58.2769 40.0807 59.8524 39.3083L64.3863 37.0868L68.9202 39.3083C70.5018 40.0832 72.3105 38.7695 72.0623 37.0254L71.3505 32.0268L74.8643 28.4013C76.0898 27.1368 75.3994 25.0104 73.664 24.7076ZM67.4456 29.7416C66.9729 30.2292 66.7523 30.9082 66.8481 31.5805L67.1264 33.5356C65.574 32.8312 65.2027 32.4424 64.3862 32.4424C63.5703 32.4424 63.2006 32.8301 61.6459 33.5356L61.9243 31.5805C62.0201 30.9082 61.7995 30.2292 61.3268 29.7416L59.9523 28.3235L61.8978 27.9841C62.5669 27.8674 63.1443 27.4478 63.4622 26.8475L64.386 25.1022L65.31 26.8477C65.6278 27.448 66.2052 27.8675 66.8743 27.9842L68.8197 28.3236L67.4456 29.7416Z" fill="#B42C2F"/>
<path d="M19.2584 37.0255L18.5466 32.0269L22.0604 28.4014C23.286 27.1368 22.5957 25.0103 20.8603 24.7076L15.8865 23.8399L13.5245 19.3777C12.7007 17.8213 10.465 17.8204 9.64071 19.3777L7.27855 23.8401L2.30477 24.7077C0.569988 25.0103 -0.121551 27.1365 1.10465 28.4015L4.61844 32.0271L3.90669 37.0256C3.65855 38.7689 5.46701 40.0839 7.04872 39.3085L11.5826 37.087L16.1165 39.3085C17.6872 40.0783 19.508 38.7787 19.2584 37.0255ZM14.6419 29.7415C14.1692 30.2292 13.9486 30.9081 14.0444 31.5805L14.3227 33.5356L12.5494 32.6666C11.9396 32.3678 11.2256 32.3678 10.6158 32.6666L8.84239 33.5356L9.1207 31.5805C9.2165 30.9081 8.9959 30.2292 8.5232 29.7415L7.14877 28.3235L9.09419 27.9841C9.76331 27.8673 10.3407 27.4478 10.6585 26.8475L11.5825 25.102L12.5063 26.8474C12.824 27.4476 13.4016 27.8673 14.0708 27.9839L16.0162 28.3233L14.6419 29.7415Z" fill="#B42C2F"/>
<path d="M47.0874 58.4974C49.6001 56.0954 51.1676 52.7124 51.1676 48.9699C51.1676 47.9727 51.1676 40.0838 51.1676 39.0879C51.1676 34.8443 47.7152 31.3917 43.4716 31.3917H32.4968C28.2532 31.3917 24.8008 34.8441 24.8008 39.0879V48.9699C24.8008 52.7123 26.3683 56.0952 28.881 58.4972C22.6964 60.4909 18.2091 66.3008 18.2091 73.14V73.2865C18.2091 74.4999 19.1929 75.4837 20.4063 75.4837C21.6198 75.4837 22.6036 74.4999 22.6036 73.2865V73.14C22.6036 69.134 24.7596 65.6234 27.9714 63.7038C29.0895 67.2797 32.0759 70.0363 35.7821 70.8289V73.2865C35.7821 74.4999 36.7658 75.4837 37.9793 75.4837C39.1927 75.4837 40.1765 74.4999 40.1765 73.2865V70.8276C43.8828 70.0327 46.8685 67.2738 47.9844 63.6965C51.2029 65.6145 53.3647 69.1287 53.3647 73.1398V73.2863C53.3647 74.4998 54.3484 75.4835 55.5619 75.4835C56.7753 75.4835 57.7591 74.4998 57.7591 73.2863V73.1398C57.7593 66.3009 53.2719 60.4912 47.0874 58.4974ZM29.1954 47.3176C30.8116 48.4045 32.7081 48.9877 34.695 48.9875C34.8529 48.9875 34.8986 48.9852 35.8291 48.9697C37.0307 48.9491 37.9928 47.9671 37.9888 46.7654L37.9816 44.5755H46.7731V48.9701C46.7731 53.8164 42.8305 57.7591 37.9843 57.7591C33.1381 57.7591 29.1954 53.8163 29.1954 48.9701V47.3176ZM32.4969 35.7865H43.4718C45.2922 35.7865 46.7733 37.2675 46.7733 39.088V40.1811H35.7772C35.1932 40.1811 34.6332 40.4135 34.2209 40.8272C33.2444 41.8069 33.6928 42.9329 33.5869 44.4816C31.132 43.9805 29.1955 41.7984 29.1955 39.088C29.1954 37.2675 30.6764 35.7865 32.4969 35.7865ZM37.9787 66.6674C37.9781 66.6674 37.9775 66.6674 37.9768 66.6674C35.2013 66.6674 32.8554 64.799 32.1265 62.2541C33.4495 62.0771 33.5322 62.1865 42.3786 62.1537C42.87 62.1537 43.3531 62.1895 43.8276 62.2523C43.0998 64.7973 40.7544 66.6665 37.9787 66.6674Z" fill="#B42C2F"/>
</g>
<defs>
<clipPath id="clip0">
<rect width="75" height="75" fill="white" transform="translate(0.484253 0.484619)"/>
</clipPath>
</defs>
</svg>
