<svg width="76" height="76" viewBox="0 0 76 76" fill="none" xmlns="http://www.w3.org/2000/svg">
<g clip-path="url(#clip0)">
<path d="M74.6152 24.4828C75.4727 23.6253 75.4733 22.2332 74.6152 21.3751L56.1497 2.91149C55.2914 2.05353 53.9005 2.05353 53.0423 2.91149L47.2674 8.68575L39.1302 11.1758L31.1254 8.57164L25.2819 2.72867C24.4236 1.87072 23.0325 1.87072 22.1745 2.72867L0.901904 23.9991C0.0443848 24.8566 0.0437989 26.2486 0.901904 27.1068L6.69785 32.9021L8.82715 41.0077C8.03306 41.557 7.75386 41.9629 6.36299 43.3182C2.32339 47.3578 5.02354 54.2411 10.6604 54.5461C10.8379 57.9041 13.5204 60.5801 16.8768 60.7618C17.0543 64.12 19.7369 66.796 23.0931 66.9776C23.1791 68.603 23.8525 70.1188 25.0121 71.2784C27.5798 73.8458 31.7577 73.846 34.3255 71.2784L35.9804 69.6237C36.0127 69.5913 36.0432 69.5575 36.0749 69.5245L38.7508 72.2002C41.3184 74.7681 45.4979 74.7693 48.0668 72.2004C49.1232 71.1442 49.7748 69.792 49.9481 68.3313C49.9765 68.3316 50.0048 68.3333 50.0331 68.3333C51.7198 68.3332 53.407 67.6911 54.6913 66.4073C55.7229 65.3758 56.3687 64.062 56.5598 62.6405C56.6253 62.6424 56.6908 62.6452 56.7563 62.6452C58.443 62.645 60.1301 62.003 61.4142 60.7192C62.4265 59.707 63.0687 58.4234 63.273 57.0323C63.3819 57.0376 63.4907 57.0405 63.5997 57.0405C65.2865 57.0405 66.9737 56.3984 68.2579 55.1144C70.8324 52.54 70.8328 48.3735 68.2579 45.7986L62.1356 39.6769L68.5871 30.5106L74.6152 24.4828ZM8.67188 28.6615L5.56304 25.553L23.7281 7.38966L26.837 10.4982L8.67188 28.6615ZM12.5691 49.5237C11.7145 50.378 10.3245 50.378 9.47051 49.5237C8.61431 48.6678 8.61416 47.2821 9.47051 46.426L11.0219 44.8747C12.393 43.5036 14.7621 44.4769 14.7621 46.4235C14.7621 47.8073 13.6673 48.2642 12.5691 49.5237ZM18.7853 55.7393C17.931 56.5936 16.5412 56.5936 15.6869 55.7393C14.8307 54.8834 14.8305 53.4978 15.6869 52.6418L21.8927 46.4364C22.7471 45.5822 24.1368 45.582 24.9914 46.4362C25.8473 47.2924 25.8476 48.6777 24.9914 49.534L18.7853 55.7393ZM25.0017 61.9552C24.1474 62.8095 22.7575 62.8094 21.9032 61.9551C21.047 61.0992 21.0469 59.7136 21.9032 58.8575L26.5578 54.2036C27.4121 53.3493 28.802 53.3493 29.6563 54.2036C30.5124 55.0596 30.5124 56.4451 29.6563 57.3011H29.6562L25.0017 61.9552ZM32.8729 66.5162L31.218 68.1709C30.3636 69.0253 28.9737 69.0252 28.1193 68.1709C27.2632 67.3148 27.2631 65.9294 28.1194 65.0733L29.7743 63.4185C30.6286 62.5645 32.0186 62.5639 32.8729 63.4185C33.7291 64.2742 33.7293 65.66 32.8729 66.5162ZM65.1504 48.9061C66.0075 49.7629 66.0073 51.15 65.1504 52.0066C64.2954 52.8616 62.9039 52.8619 62.0489 52.0066L56.8838 46.8422C55.8901 45.8487 54.4947 45.9203 53.6588 46.7559C52.8009 47.614 52.801 49.0051 53.659 49.8633L58.3069 54.5109C59.1636 55.3675 59.164 56.7545 58.3068 57.6114C57.4519 58.4666 56.0603 58.4666 55.2054 57.6114C53.5519 55.9497 53.8292 56.2325 50.5604 52.9611C49.7021 52.1031 48.3108 52.1033 47.4529 52.9612C47.4521 52.962 47.4516 52.9627 47.4508 52.9636C47.4505 52.9639 47.4502 52.964 47.4501 52.9643C46.5921 53.8224 46.5923 55.2137 47.4504 56.0718L51.6404 60.2614C52.4458 61.1295 52.4159 62.4679 51.584 63.2998C50.7287 64.1549 49.3374 64.1551 48.4824 63.2998L44.3518 59.1696C43.4936 58.3116 42.1025 58.3117 41.2443 59.1697C40.3863 60.0278 40.3865 61.419 41.2444 62.2772L41.3421 62.3749C41.3436 62.3764 41.3448 62.378 41.3462 62.3795L44.9599 65.9926C45.8165 66.8493 45.8171 68.2359 44.9597 69.0933C44.1047 69.9482 42.7135 69.9486 41.8582 69.0931L37.905 65.1403C37.9065 65.0825 37.9093 65.0251 37.9093 64.9673C37.9093 63.2081 37.2242 61.5545 35.9804 60.3107C35.3624 59.6928 34.6506 59.2252 33.8909 58.9047C35.8764 55.2747 34.0383 50.5626 29.8717 49.4111C30.3426 47.2678 29.7458 44.9758 28.0986 43.3286C25.5311 40.7613 21.353 40.7616 18.7853 43.3286L18.5208 43.5931C17.5406 41.5366 15.5104 40.0457 13.0699 39.862L11.1176 32.4306L30.5457 13.0044L35.0577 14.4723C28.0232 21.5143 26.8091 22.7297 26.6386 22.9003C26.6391 22.9 26.6386 22.9003 26.6376 22.9013C26.6276 22.9113 26.6213 22.9176 26.6178 22.9211C26.6183 22.9207 26.6187 22.9202 26.6191 22.9198C26.6178 22.9211 26.6168 22.9221 26.6155 22.9235C24.0132 25.525 24.0123 29.7373 26.6153 32.3396C29.2115 34.9359 33.4359 34.9361 36.0321 32.3398L42.3075 26.065L65.1504 48.9061ZM58.9813 36.5229L43.8609 21.4041C43.0027 20.5463 41.6115 20.5463 40.7536 21.4041L32.9246 29.2324C32.0417 30.115 30.6054 30.1151 29.7224 29.2322C28.8378 28.3476 28.8375 26.9159 29.7226 26.0311C29.723 26.0307 29.7233 26.0304 29.7237 26.0299C29.7253 26.0283 29.729 26.0247 29.7359 26.0178C29.7356 26.0179 29.7355 26.0182 29.7352 26.0185C29.7365 26.0172 29.7374 26.0163 29.7379 26.0157C29.7378 26.0159 29.7375 26.016 29.7374 26.0163C29.7375 26.016 29.7379 26.0157 29.7382 26.0154C29.7387 26.015 29.7388 26.0149 29.7384 26.0153C29.8797 25.8734 31.1518 24.5969 40.3049 15.4119L47.8141 13.1141L64.0389 29.3373L58.9813 36.5229ZM51.5414 10.6265L54.5959 7.57233L69.9539 22.9289L66.8994 25.9831L51.5414 10.6265Z" fill="#B42C2F"/>
<path d="M29.7351 26.0187C29.7328 26.021 29.729 26.0248 29.7239 26.0301C29.7237 26.0303 29.7234 26.0305 29.7233 26.0307C29.725 26.0288 29.731 26.0228 29.7351 26.0187Z" fill="#B42C2F"/>
<path d="M29.7382 26.0155L29.738 26.0156L29.7383 26.0153L29.7382 26.0155Z" fill="#B42C2F"/>
<path d="M26.6191 22.9197L26.6319 22.907C26.6278 22.9111 26.6228 22.9161 26.6191 22.9197Z" fill="#B42C2F"/>
</g>
<defs>
<clipPath id="clip0">
<rect width="75" height="75" fill="white" transform="translate(0.258545 0.605835)"/>
</clipPath>
</defs>
</svg>
