<svg width="76" height="76" viewBox="0 0 76 76" fill="none" xmlns="http://www.w3.org/2000/svg">
<g clip-path="url(#clip0)">
<path d="M72.8188 13.5565H26.3833V2.57019C26.3833 1.35671 25.3995 0.372925 24.186 0.372925C22.9726 0.372925 21.9888 1.35671 21.9888 2.57019V9.16199H2.21338C0.999902 9.16199 0.0161133 10.1458 0.0161133 11.3593V73.1757C0.0161133 74.3891 0.999902 75.3729 2.21338 75.3729H72.8188C74.0323 75.3729 75.0161 74.3891 75.0161 73.1757V15.7538C75.0161 14.5403 74.0323 13.5565 72.8188 13.5565ZM21.9888 70.9784H4.41064V13.5565H21.9888V70.9784ZM70.6216 70.9784H26.3833V17.951H70.6216V70.9784Z" fill="#B42C2F"/>
<path d="M33.2681 39.9237H64.0298C65.2433 39.9237 66.2271 38.9399 66.2271 37.7264V24.6893C66.2271 23.4759 65.2433 22.4921 64.0298 22.4921H33.2681C32.0546 22.4921 31.0708 23.4759 31.0708 24.6893V37.7264C31.0708 38.9399 32.0546 39.9237 33.2681 39.9237ZM35.4653 26.8866H61.8325V35.5292H35.4653V26.8866Z" fill="#B42C2F"/>
<path d="M33.2681 48.8593H37.6626C38.8761 48.8593 39.8599 47.8755 39.8599 46.662C39.8599 45.4485 38.8761 44.4647 37.6626 44.4647H33.2681C32.0546 44.4647 31.0708 45.4485 31.0708 46.662C31.0708 47.8755 32.0546 48.8593 33.2681 48.8593Z" fill="#B42C2F"/>
<path d="M50.8462 44.4647H46.4517C45.2382 44.4647 44.2544 45.4485 44.2544 46.662C44.2544 47.8755 45.2382 48.8593 46.4517 48.8593H50.8462C52.0597 48.8593 53.0435 47.8755 53.0435 46.662C53.0435 45.4485 52.0597 44.4647 50.8462 44.4647Z" fill="#B42C2F"/>
<path d="M64.0298 44.4647H59.6353C58.4218 44.4647 57.438 45.4485 57.438 46.662C57.438 47.8755 58.4218 48.8593 59.6353 48.8593H64.0298C65.2433 48.8593 66.2271 47.8755 66.2271 46.662C66.2271 45.4485 65.2433 44.4647 64.0298 44.4647Z" fill="#B42C2F"/>
<path d="M33.2681 57.6483H37.6626C38.8761 57.6483 39.8599 56.6645 39.8599 55.451C39.8599 54.2376 38.8761 53.2538 37.6626 53.2538H33.2681C32.0546 53.2538 31.0708 54.2376 31.0708 55.451C31.0708 56.6645 32.0546 57.6483 33.2681 57.6483Z" fill="#B42C2F"/>
<path d="M50.8462 53.2538H46.4517C45.2382 53.2538 44.2544 54.2376 44.2544 55.451C44.2544 56.6645 45.2382 57.6483 46.4517 57.6483H50.8462C52.0597 57.6483 53.0435 56.6645 53.0435 55.451C53.0435 54.2376 52.0597 53.2538 50.8462 53.2538Z" fill="#B42C2F"/>
<path d="M64.0298 53.2538H59.6353C58.4218 53.2538 57.438 54.2376 57.438 55.451C57.438 56.6645 58.4218 57.6483 59.6353 57.6483H64.0298C65.2433 57.6483 66.2271 56.6645 66.2271 55.451C66.2271 54.2376 65.2433 53.2538 64.0298 53.2538Z" fill="#B42C2F"/>
<path d="M37.6626 62.0428H33.2681C32.0546 62.0428 31.0708 63.0266 31.0708 64.2401C31.0708 65.4536 32.0546 66.4374 33.2681 66.4374H37.6626C38.8761 66.4374 39.8599 65.4536 39.8599 64.2401C39.8599 63.0266 38.8761 62.0428 37.6626 62.0428Z" fill="#B42C2F"/>
<path d="M50.8462 62.0428H46.4517C45.2382 62.0428 44.2544 63.0266 44.2544 64.2401C44.2544 65.4536 45.2382 66.4374 46.4517 66.4374H50.8462C52.0597 66.4374 53.0435 65.4536 53.0435 64.2401C53.0435 63.0266 52.0597 62.0428 50.8462 62.0428Z" fill="#B42C2F"/>
<path d="M64.0298 62.0428H59.6353C58.4218 62.0428 57.438 63.0266 57.438 64.2401C57.438 65.4536 58.4218 66.4374 59.6353 66.4374H64.0298C65.2433 66.4374 66.2271 65.4536 66.2271 64.2401C66.2271 63.0266 65.2433 62.0428 64.0298 62.0428Z" fill="#B42C2F"/>
</g>
<defs>
<clipPath id="clip0">
<rect width="75" height="75" fill="white" transform="translate(0.0161133 0.372925)"/>
</clipPath>
</defs>
</svg>
