<svg width="76" height="76" viewBox="0 0 76 76" fill="none" xmlns="http://www.w3.org/2000/svg">
<g clip-path="url(#clip0)">
<path d="M74.3725 68.8321L65.4369 59.8966C64.5795 59.0391 63.1875 59.0385 62.3295 59.8966L55.4317 66.7945L39.7134 48.4207V27.1729H55.0942C56.779 27.1729 57.844 25.3449 56.9975 23.8775L53.2247 17.3379L57.0149 10.5152C57.8273 9.05303 56.768 7.25098 55.0942 7.25098H37.5161C36.3026 7.25098 35.3188 8.23477 35.3188 9.44824V48.6268L19.6302 66.8243L12.7025 59.8966C11.8446 59.0386 10.4533 59.0386 9.59517 59.8966L0.659619 68.8321C0.247705 69.244 0.0161133 69.8029 0.0161133 70.3857V80.0537C0.0161133 81.2672 0.999902 82.251 2.21338 82.251H72.8188C74.0323 82.251 75.0161 81.2672 75.0161 80.0537V70.3857C75.0161 69.8029 74.7845 69.244 74.3725 68.8321ZM24.6744 67.7036L29.3742 72.4034C30.2684 73.2977 31.7272 73.252 32.5657 72.3147L37.3781 66.9338L42.3595 72.4452C43.201 73.3761 44.6533 73.4156 45.5432 72.5254L50.3979 67.6707L59.112 77.8564H15.9214L24.6744 67.7036ZM37.6003 52.7108L47.5329 64.3211L44.0703 67.7837L38.9999 62.174C38.1249 61.2062 36.6022 61.2097 35.7319 62.1826L30.8391 67.6534L27.552 64.3663L37.6003 52.7108ZM39.7134 11.6455H51.3599L48.7789 16.2913C48.404 16.966 48.4106 17.7879 48.7964 18.4563L51.2899 22.7783H39.7134V11.6455ZM4.41064 71.2959L11.1489 64.5576L16.753 70.1616L10.119 77.8564H4.41064V71.2959ZM70.6216 77.8564H64.8952L58.2971 70.1437L63.8833 64.5576L70.6216 71.2959V77.8564Z" fill="#B42C2F"/>
</g>
<defs>
<clipPath id="clip0">
<rect width="75" height="75" fill="white" transform="translate(0.0161133 0.605957)"/>
</clipPath>
</defs>
</svg>
