<svg width="37" height="38" viewBox="0 0 37 38" fill="none" xmlns="http://www.w3.org/2000/svg">
<path fill-rule="evenodd" clip-rule="evenodd" d="M14.9071 28.3792C13.2902 28.2059 11.9042 27.9172 10.4027 27.3397C10.4027 27.1665 9.3055 26.9355 9.3055 26.7622C9.01676 26.6467 9.01676 26.6467 8.67027 26.4157C8.78576 26.4157 8.78582 26.4157 9.36331 26.4735C11.3268 26.4735 12.886 26.0115 14.5029 25.0298C14.7339 24.9143 14.9649 24.6833 15.1959 24.5678C13.7522 24.3945 12.4817 23.9325 11.6732 22.6043C11.5 22.6043 11.1534 21.6803 11.0957 21.5071C11.7309 21.5648 12.3662 21.5649 13.0592 21.3916C10.9803 20.8141 9.53655 19.2549 9.53655 17.0027C10.114 17.2915 10.8647 17.5802 11.5 17.5225C9.59428 16.0788 9.07451 13.8843 10.114 11.6898C10.1717 11.5743 10.7492 12.3828 10.8647 12.3828C10.8647 12.6138 12.8282 14.0575 12.9437 14.173C12.9437 14.3463 14.3297 14.866 14.3297 14.9815C16.0044 15.6745 17.5059 16.1365 19.2961 16.252C19.2961 16.1365 19.2383 15.8478 19.1806 15.4435C19.2383 12.2673 21.7792 10.2461 24.9554 10.9968C25.5329 11.2278 25.9949 11.5166 26.5147 11.8631C26.5147 11.9208 26.8034 12.1518 26.8611 12.2096C27.9006 11.9786 28.7668 11.6321 29.6908 11.1701C29.633 11.3433 28.7668 13.0758 28.4203 13.0758C28.4203 13.1913 27.8428 13.4801 27.7273 13.5956C28.5936 13.4801 29.5175 13.3068 30.2683 12.9026C30.2683 12.9026 30.2683 12.9026 30.2683 12.9603C29.7485 13.6533 28.8823 14.8083 28.0738 15.2125C28.1893 18.7929 26.8034 22.2578 24.3202 24.7988C22.7032 26.358 20.9708 27.3397 18.8341 27.975C18.7763 28.0327 17.679 28.206 17.5058 28.2637C16.6396 28.3215 15.7734 28.3792 14.9071 28.3792V28.3792ZM18.4875 0.371124C28.5935 0.371124 36.7939 8.62917 36.7939 18.6774C36.7939 28.7834 28.5935 37.0415 18.4875 37.0415C8.43925 37.0415 0.181213 28.7834 0.181213 18.6774C0.181213 8.62917 8.43925 0.371124 18.4875 0.371124ZM18.4875 3.31627C26.9766 3.31627 33.9065 10.1884 33.9065 18.6774C33.9065 27.2242 26.9766 34.0963 18.4875 34.0963C9.99847 34.0963 3.06864 27.2242 3.06864 18.6774C3.06864 10.1884 9.99847 3.31627 18.4875 3.31627Z" fill="#2F2F2F"/>
</svg>
