<svg width="37" height="38" viewBox="0 0 37 38" fill="none" xmlns="http://www.w3.org/2000/svg">
<path fill-rule="evenodd" clip-rule="evenodd" d="M18.3631 3.31627C26.8522 3.31627 33.782 10.2461 33.782 18.6774C33.782 27.1665 26.8522 34.0963 18.3631 34.0963C9.87408 34.0963 2.94425 27.1665 2.94425 18.6774C2.94425 10.2461 9.87408 3.31627 18.3631 3.31627ZM18.3631 0.371124C28.4114 0.371124 36.6694 8.62917 36.6694 18.6774C36.6694 28.7834 28.4114 37.0415 18.3631 37.0415C8.25712 37.0415 0.0568237 28.7834 0.0568237 18.6774C0.0568237 8.62917 8.25712 0.371124 18.3631 0.371124ZM17.9011 25.203C17.8434 25.203 17.8434 25.203 17.7856 25.1453H17.4968C17.4968 25.0875 17.2081 25.1453 17.2081 25.0875C17.1503 25.0875 17.0926 25.0298 17.0348 25.0298C17.0348 24.972 16.8616 25.0298 16.8039 24.972C16.8039 24.972 16.6884 24.972 16.6884 24.9143C16.5729 24.9143 16.5151 24.9143 16.3996 24.8565C16.3996 24.7988 16.2842 24.8565 16.2842 24.7988C16.1687 24.7988 16.1686 24.7988 16.1686 24.7988C16.1109 24.741 16.0532 24.7988 15.9954 24.741C15.9377 24.741 15.8799 24.741 15.8799 24.6833C15.7644 24.6833 15.7066 24.6255 15.5911 24.5678C15.5334 24.5678 15.5334 24.5678 15.4757 24.51C15.4757 24.51 15.4179 24.51 15.4179 24.4523C15.3024 24.4523 15.2447 24.3945 15.1869 24.3945C15.1292 24.3368 15.0714 24.3368 14.9559 24.279L14.8982 24.2213C14.8982 24.1635 14.7249 24.1636 14.7249 24.1058L14.6094 24.048C14.5517 24.048 14.3785 23.9326 14.3785 23.9326C14.3207 23.9326 14.263 23.817 14.2052 23.817C14.1475 23.7593 14.0897 23.7016 14.032 23.7016V23.6438C13.9742 23.6438 13.9742 23.6438 13.9742 23.6438C13.9164 23.5861 13.7432 23.5283 13.6854 23.4706C13.6277 23.4706 13.57 23.355 13.57 23.355C13.57 23.2973 13.3389 23.1818 13.3389 23.1818C13.3389 23.1241 13.339 23.124 13.2812 23.124C13.2235 23.124 13.1657 23.0086 13.108 22.9508L12.7615 22.6621L12.5883 22.4889C12.4728 22.3734 12.2994 22.2578 12.2417 22.1423C12.1839 22.0846 12.2417 22.0846 12.184 22.0846V22.0269C12.1262 22.0269 12.0685 21.9113 12.0685 21.9113C12.0107 21.9113 12.0107 21.9114 12.0107 21.8536C11.953 21.8536 11.953 21.7959 11.8952 21.7959C11.8952 21.6804 11.722 21.6226 11.722 21.5649V21.5071C11.6642 21.4493 11.6643 21.3916 11.6065 21.3916C11.6065 21.3339 11.5487 21.3339 11.5487 21.3339C11.5487 21.2761 11.3755 21.1029 11.3755 21.1029C11.3755 21.0451 11.3177 20.9874 11.26 20.9296C11.2022 20.9296 11.2023 20.7564 11.1445 20.7564C11.1445 20.6986 11.0867 20.6986 11.0867 20.6409C11.029 20.6409 10.9713 20.5254 10.9713 20.5254L10.8558 20.3521C10.798 20.3521 10.798 20.2944 10.798 20.2366C10.7402 20.2366 10.7403 20.1211 10.6825 20.1211C10.6825 20.0634 10.6248 19.9479 10.567 19.9479C10.567 19.8902 10.5093 19.8324 10.5093 19.8324C10.5093 19.7169 10.4515 19.7169 10.4515 19.7169C10.3938 19.6592 10.3938 19.6014 10.3361 19.6014C10.3361 19.5437 10.2205 19.4282 10.2205 19.3704C10.2205 19.3704 10.2206 19.3704 10.1628 19.3704C10.1628 19.2549 10.0473 19.1972 10.0473 19.0817C9.98956 19.0239 9.9895 19.0239 9.9895 18.9084C9.93176 18.9084 9.93182 18.8507 9.87407 18.8507C9.87407 18.7929 9.75858 18.5619 9.70083 18.5619V18.5042C9.64308 18.4464 9.64303 18.4464 9.64303 18.3887C9.58528 18.3309 9.58531 18.3309 9.58531 18.3309C9.58531 18.2732 9.46979 18.1577 9.46979 18.0999C9.41204 18.0999 9.3543 17.8689 9.29655 17.8112C9.29655 17.8112 9.18103 17.6379 9.18103 17.5802C9.18103 17.5802 9.18103 17.5802 9.18103 17.5225C9.12328 17.5225 9.12331 17.4647 9.12331 17.4647C9.06556 17.4647 9.06559 17.4069 9.06559 17.3492C9.00784 17.3492 9.00782 17.2337 8.95007 17.1759C8.89232 17.1759 8.9501 17.0605 8.89235 17.0027L8.83455 16.9449C8.7768 16.8872 8.83458 16.8872 8.77683 16.8295V16.7717C8.71908 16.7717 8.66131 16.5407 8.66131 16.483C8.60356 16.483 8.60359 16.483 8.60359 16.4252C8.54585 16.3675 8.60354 16.3675 8.54579 16.3097C8.54579 16.3097 8.54579 16.3097 8.54579 16.252C8.48804 16.1942 8.4303 16.0787 8.37255 16.021C8.37255 15.9632 8.37258 15.8478 8.31483 15.8478C8.31483 15.7323 8.25706 15.6745 8.19931 15.559C8.19931 15.559 8.14159 15.3857 8.14159 15.328C8.08385 15.328 8.08388 15.2703 8.08388 15.2125C8.02613 15.2125 8.08382 15.1548 8.02607 15.1548C8.02607 15.097 8.0261 15.0393 7.96836 14.9815C7.96836 14.866 7.91058 14.8083 7.85283 14.6928C7.79509 14.635 7.85287 14.4618 7.79512 14.404C7.73737 14.3463 7.73731 14.3463 7.73731 14.2885C7.67956 14.2308 7.73734 14.173 7.67959 14.1153V13.9998C7.62185 13.9998 7.62188 13.8843 7.62188 13.8266C7.56413 13.8266 7.56407 13.8265 7.56407 13.7688C7.56407 13.7111 7.5641 13.5378 7.50636 13.48C7.50636 13.4223 7.50639 13.3068 7.44864 13.3068C7.44864 13.1913 7.50639 13.0758 7.44864 12.9603C7.44864 12.9026 7.44864 12.9026 7.44864 12.8448C7.44864 12.7293 7.44861 12.6716 7.50636 12.5561C7.50636 12.5561 7.50636 12.5561 7.50636 12.4983C7.5641 12.4406 7.62181 12.3828 7.73731 12.3251C7.73731 12.3251 7.73737 12.3251 7.79512 12.3251C7.79512 12.2673 7.91061 12.2096 7.96836 12.2096C9.00783 12.2096 9.98958 12.2096 10.9713 12.2096C11.0291 12.2673 11.0868 12.2096 11.1445 12.3251C11.26 12.3251 11.3178 12.3828 11.3755 12.4406C11.4333 12.4406 11.4332 12.6138 11.5487 12.6138C11.5487 12.7293 11.6643 12.7871 11.6643 12.9026C11.722 12.9603 11.722 13.0758 11.722 13.1336C11.7797 13.1913 11.7798 13.1913 11.7798 13.249C11.8375 13.3068 11.8952 13.5955 11.8952 13.6533C11.953 13.6533 11.953 13.7111 11.953 13.7688C12.0108 13.7688 12.0107 13.8266 12.0107 13.8266C12.0107 13.8843 12.1263 14.1153 12.1263 14.173C12.184 14.173 12.2417 14.4618 12.2417 14.4618C12.2994 14.5195 12.2995 14.5773 12.2995 14.5773C12.3573 14.5773 12.3572 14.635 12.3572 14.6928C12.3572 14.6928 12.3572 14.7505 12.3572 14.8083C12.415 14.8083 12.415 14.866 12.415 14.9238C12.4728 14.9238 12.4727 15.0392 12.5305 15.097C12.5882 15.1547 12.5882 15.328 12.646 15.3858C12.646 15.4435 12.6459 15.4435 12.7037 15.4435L12.7615 15.6168C12.7615 15.6168 12.8769 15.8477 12.8769 15.9055C12.9347 15.9055 12.9925 16.021 12.9925 16.0788V16.1365C13.0502 16.1942 13.1657 16.3097 13.1657 16.3675C13.1657 16.3675 13.1657 16.4252 13.1657 16.483C13.2234 16.483 13.2235 16.5407 13.2235 16.5407H13.2812C13.2812 16.6562 13.3967 16.714 13.3967 16.8295C13.4545 16.8295 13.4544 16.945 13.5122 17.0027V17.0605C13.5699 17.0605 13.57 17.1182 13.57 17.1759C13.6277 17.1759 13.6854 17.3492 13.6854 17.3492C13.8009 17.3492 13.7432 17.5225 13.8009 17.5225C13.8009 17.5225 13.801 17.5224 13.8587 17.5802C13.8587 17.5802 13.9164 17.7534 13.9742 17.7534C13.9742 17.8112 13.9742 17.8112 13.9742 17.8112C14.0319 17.8112 14.1474 18.0422 14.1474 18.0422C14.1474 18.0999 14.2052 18.0999 14.2052 18.0999C14.2052 18.0999 14.3207 18.3309 14.3785 18.3309C14.3785 18.3309 14.3785 18.3309 14.3785 18.3887C14.4362 18.3887 14.5517 18.5619 14.5517 18.6197C14.6094 18.6197 14.6672 18.7352 14.6672 18.7352C14.725 18.7352 14.7826 18.8507 14.7826 18.9084C14.8404 18.9084 14.8405 18.9084 14.8405 18.9084C14.8405 19.0239 15.0137 19.0817 15.0714 19.1394C15.0714 19.1972 15.2447 19.3127 15.3025 19.3127C15.3025 19.3704 15.4179 19.4281 15.4757 19.4281C15.4757 19.4859 15.5334 19.4282 15.5911 19.4859C15.6489 19.4859 15.7067 19.4859 15.8222 19.4859C15.8222 19.4282 15.8799 19.4281 15.8799 19.4281C15.9376 19.3704 15.9377 19.3704 15.9954 19.3127C16.0532 19.3127 15.9954 19.1972 16.0531 19.1394C16.0531 19.0817 16.0531 18.7929 16.0531 18.7352C16.0531 17.5225 16.0532 16.3097 16.1109 15.097C16.0532 14.9815 16.0531 14.866 16.0531 14.6928C15.9954 14.635 15.9954 14.5773 15.9954 14.4618C15.9377 14.3463 15.9376 14.2308 15.8799 14.173C15.8799 14.1153 15.8799 14.1153 15.8799 14.1153C15.8221 14.0575 15.8221 13.942 15.7644 13.8843V13.8266C15.7066 13.8266 15.6489 13.6533 15.5911 13.5956C15.5911 13.5956 15.5334 13.48 15.4757 13.48C15.4757 13.48 15.4179 13.3646 15.3602 13.3646C15.3602 13.3068 15.3024 13.1913 15.2446 13.1913C15.2446 13.1336 15.2446 13.1336 15.2446 13.1336C15.1869 13.1336 15.1869 13.0758 15.1869 13.018C15.1292 13.018 15.1291 12.7293 15.1291 12.7293C15.1291 12.6138 15.1869 12.5561 15.2446 12.4983V12.4406C15.3024 12.4406 15.2447 12.3828 15.3025 12.3828C15.3025 12.3251 15.3602 12.3251 15.3602 12.3251C15.4179 12.3251 15.5334 12.2673 15.5334 12.2096C16.9771 12.2096 18.3631 12.2096 19.8068 12.2096C19.8068 12.2673 19.8645 12.2673 19.9223 12.3251C19.98 12.3251 20.0956 12.4983 20.1533 12.5561C20.1533 12.6138 20.1533 12.6716 20.1533 12.6716C20.2111 12.7293 20.211 12.7293 20.211 12.7871C20.211 14.4618 20.211 16.1942 20.211 17.8689C20.2688 17.9844 20.2111 18.1 20.2688 18.1577C20.3266 18.2155 20.2688 18.3309 20.3843 18.3309C20.3843 18.3887 20.4421 18.4464 20.4421 18.4464C20.5576 18.4464 20.673 18.5042 20.7307 18.4464H20.8463C20.8463 18.3887 20.904 18.3887 20.9618 18.3887C20.9618 18.3309 21.0196 18.2732 21.0773 18.2732C21.1351 18.2732 21.2505 18.0999 21.3083 18.0999V18.0422C21.366 18.0422 21.4238 17.9844 21.4238 17.9844C21.4815 17.9267 21.6547 17.7535 21.6547 17.6957C21.7125 17.6957 21.7125 17.6957 21.7703 17.6957C21.7703 17.638 21.8858 17.4647 21.9435 17.4647C21.9435 17.407 21.9435 17.4069 21.9435 17.4069C21.9435 17.3492 21.9435 17.3492 22.0012 17.3492C22.0012 17.2914 22.059 17.2337 22.1167 17.1759C22.1745 17.1759 22.1167 17.1182 22.1745 17.1182C22.1745 17.1182 22.2322 17.0027 22.29 17.0027C22.29 16.945 22.3478 16.8872 22.4055 16.8295V16.7717C22.4633 16.714 22.4632 16.714 22.4632 16.714C22.521 16.714 22.521 16.5985 22.521 16.5985C22.5788 16.5407 22.5787 16.5407 22.5787 16.5407C22.5787 16.5407 22.5787 16.5407 22.6365 16.483C22.6365 16.483 22.6942 16.3097 22.752 16.3097C22.8097 16.1942 22.8675 16.1943 22.8675 16.0788H22.9252C22.983 16.0788 22.9252 15.9632 22.9829 15.9632C22.9829 15.9055 23.0407 15.8478 23.0407 15.8478C23.0407 15.79 23.0407 15.79 23.0985 15.79C23.0985 15.7322 23.0985 15.7323 23.1563 15.6745C23.1563 15.6745 23.1562 15.6168 23.214 15.6168C23.214 15.559 23.214 15.5012 23.2717 15.5012C23.2717 15.4435 23.2718 15.4435 23.3295 15.4435C23.3295 15.328 23.4449 15.2125 23.4449 15.097C23.5027 15.097 23.5027 15.097 23.5027 15.0393C23.5605 15.0393 23.6182 14.866 23.6182 14.8083C23.6759 14.8083 23.7337 14.635 23.7337 14.5773C23.7915 14.5773 23.8492 14.3463 23.9069 14.3463L24.0225 14.1153C24.0225 14.0575 24.0802 13.9998 24.0802 13.942C24.0802 13.8843 24.0802 13.8843 24.138 13.8843V13.8266C24.1957 13.8266 24.1957 13.6533 24.2534 13.6533C24.2534 13.5955 24.2534 13.5955 24.2534 13.5378C24.3112 13.5378 24.3112 13.48 24.3112 13.48C24.3112 13.4223 24.3689 13.249 24.4267 13.249C24.4267 13.1913 24.4267 13.1913 24.4845 13.1336V13.0758C24.4845 13.0181 24.5422 12.9026 24.6 12.8448C24.6 12.7871 24.6 12.7871 24.6577 12.7871C24.6577 12.7293 24.6577 12.7293 24.6577 12.7293C24.6577 12.6716 24.6577 12.6716 24.7154 12.6716C24.7154 12.6138 24.7155 12.6138 24.7732 12.6138C24.7732 12.4983 24.8887 12.4983 24.8887 12.4406C24.9464 12.4406 24.9464 12.3251 25.0619 12.3251C25.0619 12.3251 25.1197 12.3251 25.1774 12.3251C25.1774 12.2096 25.2929 12.3251 25.2929 12.2096H25.3507C26.3324 12.2096 27.3142 12.2096 28.2959 12.2096C28.3536 12.2096 28.3536 12.2096 28.3536 12.2673C28.4114 12.2673 28.4691 12.2673 28.4691 12.2673C28.4691 12.2673 28.4691 12.2673 28.5268 12.3251C28.5846 12.3251 28.7001 12.3828 28.7001 12.4983C28.8156 12.4983 28.8156 13.0758 28.7578 13.1336C28.7578 13.1336 28.7578 13.1913 28.7578 13.249C28.7001 13.249 28.6423 13.5956 28.5846 13.5956C28.5846 13.7688 28.4691 13.8265 28.4691 13.942C28.4114 13.9998 28.4113 13.9998 28.4113 13.9998V14.0575C28.3536 14.1153 28.3536 14.1731 28.2959 14.2308C28.2959 14.2885 28.2958 14.3463 28.2381 14.3463C28.2381 14.4618 28.1226 14.5195 28.1226 14.635C28.0648 14.6928 28.0071 14.7505 28.0071 14.8083C28.0071 14.8083 27.8916 14.9815 27.8916 15.0393C27.8339 15.0393 27.8916 15.097 27.8339 15.097C27.8339 15.1547 27.8338 15.1548 27.7761 15.2125C27.7761 15.2125 27.6029 15.5012 27.5451 15.559C27.5451 15.6167 27.4874 15.6745 27.4874 15.7322C27.4297 15.7322 27.4296 15.79 27.3719 15.8478C27.3141 15.9633 27.2564 16.021 27.1987 16.1365C27.1409 16.1942 27.0831 16.3097 27.0831 16.3675C27.0831 16.3675 27.0832 16.3675 27.0254 16.3675C27.0254 16.4252 26.9676 16.5407 26.9099 16.5407C26.9099 16.5985 26.8522 16.6562 26.8522 16.6562C26.8522 16.7717 26.7366 16.8295 26.6788 16.9449C26.6788 16.9449 26.6212 17.0605 26.5634 17.0605V17.1182C26.5057 17.1182 26.5056 17.2337 26.4479 17.2915C26.4479 17.2915 26.3901 17.4647 26.3324 17.4647C26.3324 17.5225 26.2169 17.638 26.2169 17.6957C26.1592 17.6957 26.1591 17.7534 26.1591 17.7534C26.1014 17.8112 26.1014 17.869 26.0437 17.9267C25.986 17.9267 25.9282 18.0422 25.9282 18.0999L25.8127 18.2732C25.7549 18.2732 25.7549 18.3887 25.6971 18.3887C25.6971 18.4464 25.6394 18.4464 25.6394 18.5042C25.5817 18.5042 25.5817 18.6197 25.5817 18.6197C25.524 18.6197 25.5239 18.6774 25.5239 18.6774C25.4661 18.7352 25.4662 18.7929 25.4085 18.8507C25.4085 18.9084 25.4084 18.9662 25.3507 18.9662C25.3507 19.0817 25.3507 19.1972 25.3507 19.3127C25.3507 19.3127 25.3507 19.3127 25.4085 19.3704C25.4085 19.3704 25.4085 19.3704 25.4085 19.4281C25.4662 19.4859 25.5816 19.7169 25.6971 19.7747C25.7549 19.8324 25.8704 20.0056 25.9859 20.1211L26.2169 20.3521C26.3324 20.4676 26.5056 20.5254 26.5056 20.6409C26.6211 20.7564 26.7944 20.8719 26.8522 20.9874C26.8522 20.9874 27.0254 21.1029 27.0254 21.1606C27.0254 21.2184 27.1986 21.3339 27.2564 21.3916C27.2564 21.4494 27.3719 21.5649 27.4296 21.5649C27.4296 21.6226 27.4296 21.6226 27.4296 21.6226C27.4874 21.6226 27.5451 21.7959 27.6028 21.7959C27.6028 21.8536 27.7184 21.9113 27.7184 21.9691L27.8339 22.0846C27.8916 22.0846 27.8916 22.1423 27.9493 22.2001L28.0071 22.3156C28.0071 22.3733 28.0648 22.3156 28.0648 22.3733C28.1226 22.3733 28.1803 22.5466 28.2381 22.5466C28.2381 22.6043 28.3536 22.7198 28.3536 22.7198C28.3536 22.7776 28.3536 22.7776 28.3536 22.7776C28.4114 22.7776 28.4691 22.9508 28.5268 22.9508C28.5268 23.0086 28.5268 23.0086 28.5846 23.0086V23.0663C28.6423 23.0663 28.6423 23.1818 28.7001 23.1818V23.2396C28.7578 23.2396 28.8156 23.4128 28.8733 23.4706C28.8733 23.5283 29.0466 23.7593 29.1044 23.817V23.8748C29.1621 23.9326 29.1621 23.9903 29.1621 23.9903C29.1621 23.9903 29.1621 24.0481 29.1621 24.1058C29.2198 24.1636 29.2198 24.2213 29.2198 24.279C29.2776 24.3368 29.2776 24.6255 29.2198 24.741C29.2198 24.7988 29.1043 24.972 28.9888 25.0298C28.9888 25.0875 28.8734 25.0875 28.8156 25.1453C28.7579 25.1453 28.7001 25.1453 28.7001 25.203C27.6606 25.203 26.6789 25.203 25.6394 25.203C25.6394 25.1453 25.6394 25.1453 25.6394 25.1453C25.5817 25.1453 25.5239 25.1453 25.5239 25.1453C25.5239 25.0875 25.4085 25.0875 25.4085 25.0875C25.3507 25.0875 25.2352 24.972 25.1774 24.972C25.1774 24.9143 25.0042 24.8565 25.0042 24.7988C25.0042 24.7988 24.8887 24.741 24.8887 24.6833C24.8309 24.6833 24.831 24.6255 24.7732 24.5678C24.7732 24.51 24.6577 24.51 24.6577 24.4523C24.6577 24.3945 24.5999 24.3945 24.5422 24.3945C24.5422 24.3368 24.5422 24.3368 24.4845 24.279C24.4267 24.2213 24.3689 24.048 24.2534 24.048C24.2534 23.9903 24.1957 23.9326 24.1957 23.9326C24.138 23.9326 23.9647 23.7016 23.9069 23.6438L23.8492 23.586C23.8492 23.586 23.8492 23.586 23.8492 23.5283C23.7915 23.5283 23.7914 23.5283 23.7914 23.5283C23.7914 23.4705 23.676 23.4128 23.676 23.4128C23.676 23.3551 23.5605 23.2396 23.5605 23.2396C23.5605 23.1818 23.3295 23.0663 23.3295 23.0086C23.2718 23.0086 23.0407 22.7776 23.0407 22.7198C22.983 22.7198 22.8675 22.5466 22.8097 22.5466C22.8097 22.4888 22.752 22.4888 22.6943 22.4311C22.6943 22.4311 22.4633 22.2001 22.4055 22.1423C22.3478 22.1423 22.2323 22.0846 22.2323 21.9691C22.1745 21.9691 22.0012 21.8536 22.0012 21.8536C21.9435 21.7959 21.9435 21.7959 21.9435 21.7959C21.9435 21.7959 21.7703 21.7381 21.7703 21.6803C21.7125 21.6803 21.6548 21.6226 21.597 21.6226C21.597 21.5649 21.5393 21.5648 21.4815 21.5071C21.4238 21.4493 21.366 21.5071 21.366 21.4494C21.3082 21.4494 21.3083 21.4494 21.2506 21.4494C21.2506 21.3916 21.1928 21.3916 21.135 21.3916C21.0773 21.3339 21.0195 21.3916 20.9618 21.3339C20.8463 21.3339 20.7308 21.3339 20.6153 21.3339C20.6153 21.3916 20.4421 21.3339 20.4421 21.3916C20.3843 21.3916 20.2688 21.5071 20.2688 21.6226C20.2111 21.6804 20.2688 21.7381 20.2688 21.8536C20.2111 21.9114 20.211 21.9691 20.211 22.0269C20.211 22.8931 20.211 23.7015 20.211 24.5678H20.1533C20.1533 24.6833 20.0956 24.8565 19.9801 24.9143C19.9801 24.9143 19.8068 25.0298 19.749 25.0298C19.749 25.0875 19.6913 25.0298 19.6336 25.0875C19.6336 25.0875 19.518 25.0875 19.4603 25.0875C19.4603 25.203 19.2871 25.1453 19.2293 25.203C18.7673 25.203 18.3631 25.203 17.9011 25.203V25.203Z" fill="#2F2F2F"/>
</svg>
