<svg width="38" height="38" viewBox="0 0 38 38" fill="none" xmlns="http://www.w3.org/2000/svg">
<path fill-rule="evenodd" clip-rule="evenodd" d="M18.7601 0.371124C28.8661 0.371124 37.0664 8.62917 37.0664 18.6774C37.0664 28.7834 28.8661 37.0415 18.7601 37.0415C8.71184 37.0415 0.453796 28.7834 0.453796 18.6774C0.453796 8.62917 8.71184 0.371124 18.7601 0.371124ZM23.7842 16.6562C22.3982 16.6562 21.0701 16.6562 19.6841 16.6562C19.6841 15.4435 19.5109 13.9998 19.9729 12.8448C20.3193 12.0363 21.2433 12.2096 21.994 12.2096C22.5715 12.2096 23.149 12.2096 23.7265 12.2096C23.7265 10.9391 23.7265 9.61087 23.7265 8.28266C21.994 8.05166 19.9151 7.8207 18.2404 8.45594C15.4107 9.55316 14.8332 12.7293 15.1797 16.714H11.5415V20.9296H15.1219V29.3609H19.6263V20.9874H22.9757C23.2067 19.5437 23.4955 18.0999 23.7842 16.6562V16.6562ZM18.7601 3.31627C27.2491 3.31627 34.179 10.2461 34.179 18.6774C34.179 27.1665 27.2491 34.0963 18.7601 34.0963C10.271 34.0963 3.34123 27.1665 3.34123 18.6774C3.34123 10.2461 10.271 3.31627 18.7601 3.31627Z"/>
</svg>
