<svg width="38" height="38" viewBox="0 0 38 38" fill="none" xmlns="http://www.w3.org/2000/svg">
<path fill-rule="evenodd" clip-rule="evenodd" d="M19.0904 3.31627C27.5795 3.31627 34.5093 10.1884 34.5093 18.6774C34.5093 27.2242 27.5795 34.0963 19.0904 34.0963C10.6014 34.0963 3.67155 27.2242 3.67155 18.6774C3.67155 10.1884 10.6014 3.31627 19.0904 3.31627ZM19.0904 0.371124C29.1387 0.371124 37.3967 8.62917 37.3967 18.6774C37.3967 28.7834 29.1387 37.0415 19.0904 37.0415C8.98441 37.0415 0.784119 28.7834 0.784119 18.6774C0.784119 8.62917 8.98441 0.371124 19.0904 0.371124ZM14.5283 8.62918H23.5948C26.54 8.62918 28.9655 11.0546 28.9655 13.9998V23.4128C28.9655 26.358 26.54 28.7834 23.5948 28.7834H14.5283C11.5831 28.7834 9.15765 26.358 9.15765 23.4128V13.9998C9.15765 11.0546 11.5831 8.62918 14.5283 8.62918ZM14.7016 10.3039H23.4216C25.5583 10.3039 27.3485 12.0941 27.3485 14.2308V23.1818C27.3485 25.3185 25.5583 27.1087 23.4216 27.1087H14.7016C12.5649 27.1087 10.8324 25.3185 10.8324 23.1818V14.2308C10.8324 12.0941 12.5649 10.3039 14.7016 10.3039ZM19.0904 13.5378C21.9201 13.5378 24.23 15.8477 24.23 18.6774C24.23 21.5649 21.9201 23.8748 19.0904 23.8748C16.203 23.8748 13.8931 21.5649 13.8931 18.6774C13.8931 15.8477 16.203 13.5378 19.0904 13.5378ZM19.0904 15.3858C20.8806 15.3858 22.3821 16.8872 22.3821 18.6774C22.3821 20.5254 20.8806 22.0269 19.0904 22.0269C17.2425 22.0269 15.741 20.5254 15.741 18.6774C15.741 16.8872 17.2425 15.3858 19.0904 15.3858ZM24.23 11.8631C24.9808 11.8631 25.616 12.4406 25.616 13.249C25.616 13.9998 24.9808 14.635 24.23 14.635C23.4793 14.635 22.844 13.9998 22.844 13.249C22.844 12.4406 23.4793 11.8631 24.23 11.8631Z" fill="#2F2F2F"/>
</svg>
