<svg width="106" height="164" viewBox="0 0 106 164" fill="none" xmlns="http://www.w3.org/2000/svg">
<path d="M57.4391 69.6132C50.4489 68.6311 42.4765 69.1509 35.4285 71.1729C31.8468 72.2128 28.6117 73.6571 25.7231 75.6213C22.8346 77.5278 20.3505 79.954 18.0974 82.9581C17.4619 83.7669 16.8265 84.6913 16.2488 85.7312C15.6133 86.6555 15.0934 87.6376 14.6312 88.6197C12.2048 93.4146 11.2228 98.5561 13.3025 102.773C16.942 110.226 12.436 117.274 8.79642 122.935C7.29439 125.304 5.96563 127.441 5.73455 128.712C5.67678 129.175 6.31228 129.579 8.33424 129.925C16.191 131.139 16.0177 132.121 15.3245 136.627C15.2089 137.378 15.0356 138.36 15.0356 139.689C15.0356 139.746 15.0356 139.804 15.0356 139.862C15.0356 139.862 15.0356 139.862 15.0934 139.862C15.1511 139.978 15.3822 140.151 15.6711 140.209C17.7508 140.902 18.0974 141.942 17.5775 143.559C17.4042 144.195 17.1154 144.484 16.8265 144.773C16.8843 144.888 16.9998 145.004 17.1731 145.119C17.4042 145.408 17.8663 145.697 18.3863 145.986C18.5596 146.101 18.7329 146.217 18.9062 146.332C19.1951 146.621 19.4839 147.026 19.715 147.488C19.8883 147.777 20.0039 148.123 20.1194 148.47C20.6393 149.972 21.0437 152.456 21.1015 154.767C21.1015 155.171 21.1593 155.46 21.3326 155.749C21.5637 156.211 22.1414 156.558 22.8346 156.847C23.8167 157.193 25.0877 157.366 26.5319 157.366C30.3448 157.309 35.313 155.922 40.0502 153.091C45.0184 150.087 48.0225 153.785 50.7377 157.135C51.2576 157.829 51.8354 158.522 52.2975 158.984C53.2796 159.966 53.2796 161.526 52.3553 162.45C51.3732 163.432 49.8134 163.432 48.8313 162.45C48.1958 161.815 47.5603 161.006 46.9249 160.255C45.4806 158.464 43.863 156.5 42.5921 157.309C37.0461 160.602 31.2113 162.277 26.5319 162.277C24.51 162.335 22.6613 162.046 21.1015 161.468C19.3684 160.775 17.9819 159.735 17.1153 158.233C16.4799 157.251 16.1332 156.095 16.1332 154.825C16.1332 152.976 15.8444 151.069 15.44 150.029C15.44 149.972 15.44 149.972 15.44 149.972C14.8045 149.567 14.2268 149.163 13.7646 148.701C12.667 147.719 12.1471 146.621 11.916 145.581C11.8004 144.946 11.8005 144.31 11.9738 143.675C11.4538 143.27 10.9917 142.693 10.6451 141.999C10.4718 141.711 10.3562 141.306 10.2407 140.96C10.1829 140.555 10.1251 140.151 10.1251 139.746V139.689C10.1251 138.129 10.2984 136.858 10.4717 135.876C10.5295 135.356 10.5873 135.24 7.5832 134.778C1.9217 133.912 0.30415 131.428 0.881854 127.961C1.28625 125.593 2.84606 123.108 4.63694 120.278C7.641 115.656 11.2805 109.879 8.91194 104.969C6.02342 99.1916 7.17883 92.4903 10.1829 86.4244C10.7606 85.269 11.3961 84.1712 12.0315 83.0736C12.667 82.0915 13.4181 81.0516 14.1691 80.0118C16.7687 76.5455 19.6572 73.7148 22.9501 71.5195C26.2431 69.2665 29.9404 67.5913 34.0998 66.4359C42.0722 64.125 51.1999 63.6628 58.9989 64.8759C64.3137 65.7425 62.754 70.3642 57.4391 69.6132V69.6132Z" fill="#AFA3A6"/>
<path fill-rule="evenodd" clip-rule="evenodd" d="M105.389 56.846C104.407 65.396 100.247 74.4082 92.9102 83.9403L91.1771 83.7092C97.4163 74.0615 100.883 65.9159 101.691 59.2146C102.847 49.1047 99.1494 40.6702 90.5994 33.8533C88.1153 31.8313 85.2268 30.6759 81.9339 30.2715L74.7703 90.6415C74.7703 90.6993 74.7703 90.757 74.7703 90.8148C75.4636 105.373 58.9413 114.27 46.3473 114.443C32.078 114.559 21.506 105.373 22.8925 93.9923C24.2212 82.5537 36.9307 73.1949 51.2 73.0216C60.6743 72.9638 68.4734 76.95 72.2862 82.9581C72.5173 83.1314 72.6906 83.3048 72.8061 83.5359L82.6271 0.693115L85.3423 1.03972C85.3423 6.23906 85.4001 9.30081 85.5734 10.3407C86.3822 14.6157 87.7109 18.1974 89.5018 20.9704L100.247 36.3374C104.58 42.461 106.313 49.278 105.389 56.846V56.846Z" fill="#B42C2F"/>
</svg>
