<svg width="90" height="176" viewBox="0 0 90 176" fill="none" xmlns="http://www.w3.org/2000/svg">
<path fill-rule="evenodd" clip-rule="evenodd" d="M88.9194 56.846C87.8795 65.396 83.72 74.4082 76.3832 83.9403L74.7079 83.7092C80.8893 74.0615 84.3555 65.9159 85.1643 59.2146C86.3775 49.1047 82.6802 40.6702 74.0724 33.8533C71.5883 31.8313 68.6998 30.6759 65.4068 30.2715L58.3011 90.6415C58.3011 90.6993 58.3011 90.757 58.3011 90.8148C58.9366 105.373 42.4142 114.27 29.8203 114.443C15.551 114.559 5.03676 105.373 6.36547 93.9923C7.69419 82.5537 20.4615 73.1949 34.7307 73.0216C44.1473 72.9638 52.0041 76.95 55.817 82.9581C55.9903 83.1314 56.1636 83.3048 56.3369 83.5359L66.1001 0.693115L68.8153 1.03972C68.8731 6.23906 68.9308 9.30081 69.1041 10.3407C69.8552 14.6157 71.1839 18.1974 73.0325 20.9704L83.7778 36.3374C88.1106 42.461 89.7859 49.278 88.9194 56.846Z" fill="#B42C2F"/>
<path d="M0.646264 115.714C-0.162521 114.674 0.0685487 113.23 1.10842 112.421C2.14828 111.67 3.59254 111.844 4.40133 112.883C12.8936 124.206 21.2703 123.109 29.4737 122.011C40.0457 120.567 50.3288 119.18 60.6119 137.494C61.1896 138.591 60.843 140.036 59.6876 140.671C58.59 141.306 57.1457 140.902 56.5102 139.747C47.7869 124.264 39.0636 125.42 30.1092 126.633C20.577 127.904 10.8139 129.233 0.646264 115.714Z" fill="#AFA3A6"/>
<path d="M18.8439 174.755C18.0929 175.795 16.6486 176.026 15.551 175.275C14.5111 174.524 14.28 173.08 15.031 172.04V171.982C15.9554 170.769 16.8219 169.44 17.6885 167.996C18.555 166.552 19.4216 164.992 20.2304 163.317C24.4476 154.882 27.7983 144.657 28.3182 136.742V136.685C28.4915 134.027 28.6649 131.601 30.8601 131.428C32.3622 131.312 33.4598 132.583 33.8064 136.049C33.922 137.32 34.153 138.822 34.4419 140.497C34.7307 142.288 35.1351 144.137 35.5395 145.928C37.677 155.633 41.3743 167.187 45.8227 170.943C46.8048 171.809 46.9203 173.311 46.0537 174.235C45.1872 175.217 43.7429 175.333 42.7608 174.524C37.5615 170.076 33.4598 158.002 31.149 147.777C29.5314 153.727 27.1628 159.908 24.4476 165.396C23.5811 167.13 22.6567 168.805 21.7324 170.365C20.7503 171.982 19.826 173.427 18.8439 174.755V174.755Z" fill="#AFA3A6"/>
</svg>
