<svg width="104" height="165" viewBox="0 0 104 165" fill="none" xmlns="http://www.w3.org/2000/svg">
<path fill-rule="evenodd" clip-rule="evenodd" d="M93.5348 56.846C92.495 65.396 88.3354 74.4082 80.9986 83.9403L79.3233 83.7092C85.5047 74.0615 88.9709 65.9159 89.7797 59.2146C90.9351 49.1047 87.2956 40.6702 78.6878 33.8533C76.2037 31.8313 73.3151 30.6759 70.0222 30.2715L62.9165 90.6415C62.9165 90.6993 62.9164 90.757 62.8587 90.8148C63.5519 105.373 47.0296 114.27 34.4356 114.443C20.1663 114.559 9.59438 105.373 10.9809 93.9923C12.3096 82.5537 25.0191 73.1949 39.2884 73.0216C48.7628 72.9638 56.5617 76.95 60.3746 82.9581C60.6057 83.1314 60.779 83.3048 60.9523 83.5359L70.7154 0.693115L73.4307 1.03972C73.4307 6.23906 73.4885 9.30081 73.6618 10.3407C74.4706 14.6157 75.7993 18.1974 77.5901 20.9704L88.3354 36.3374C92.6682 42.461 94.4014 49.278 93.5348 56.846V56.846Z" fill="#B42C2F"/>
<path d="M54.0776 67.7067C55.2908 68.3422 55.7529 69.8444 55.1752 71.0575C54.5398 72.2707 53.0954 72.7329 51.8823 72.1552C46.5096 69.4977 40.5015 68.5734 34.5511 69.0355C28.7163 69.4977 23.0549 71.3464 18.2599 74.1772C13.5228 77.0079 9.65212 80.8207 7.39908 85.3268C5.7815 88.562 4.97271 92.1438 5.31934 96.0144C6.24366 107.973 10.5187 116.176 14.967 124.668C19.7619 133.854 24.6724 143.386 26.2322 158.118C33.2802 154.074 42.6968 151.243 52.5177 148.297C75.5104 141.364 100.872 133.681 98.0986 108.782C97.752 105.489 96.1921 102.6 93.9969 100.174C91.8016 97.8053 88.9709 96.0143 85.909 94.8011C82.905 93.6457 79.6699 93.1836 76.8391 93.4725C74.4128 93.7613 72.2175 94.6278 70.5999 96.1299C69.6178 97.0542 68.058 96.9965 67.1337 96.0144C66.2093 94.9745 66.2671 93.4146 67.2492 92.4903C69.6756 90.2373 72.8529 88.9663 76.2614 88.562C79.9587 88.1576 83.9449 88.7931 87.6422 90.2373C91.3972 91.6238 94.8635 93.9346 97.5787 96.8231C100.467 99.9427 102.489 103.813 103.009 108.262C106.186 137.262 78.7455 145.524 53.9043 153.034C42.7546 156.384 32.1826 159.562 25.7123 164.357C25.6545 164.414 25.7123 164.357 25.5967 164.415C24.0369 165.57 21.7839 164.472 21.6684 162.566C20.744 146.448 15.5447 136.511 10.5765 126.979C5.89706 117.967 1.39095 109.359 0.351079 96.361C0.00445608 91.6238 0.986535 87.1177 2.95073 83.1315C5.66594 77.7589 10.2298 73.2528 15.718 69.9599C21.2062 66.667 27.6187 64.6449 34.1468 64.125C40.9059 63.5473 47.8384 64.6449 54.0776 67.7067V67.7067ZM22.7082 160.486C22.7082 160.428 22.7082 160.428 22.6505 160.486H22.7082Z" fill="#AFA3A6"/>
</svg>
