<?xml version="1.0" encoding="UTF-8"?>
<!DOCTYPE svg PUBLIC "-//W3C//DTD SVG 1.1//EN" "http://www.w3.org/Graphics/SVG/1.1/DTD/svg11.dtd">
<!-- Creator: CorelDRAW 2018 (64-Bit) -->
<svg xmlns="http://www.w3.org/2000/svg" xml:space="preserve" width="150px" height="172px" version="1.1" style="shape-rendering:geometricPrecision; text-rendering:geometricPrecision; image-rendering:optimizeQuality; fill-rule:evenodd; clip-rule:evenodd"
viewBox="0 0 3.4 3.9"
 xmlns:xlink="http://www.w3.org/1999/xlink">
 <defs>
  <style type="text/css">
   <![CDATA[
    .fil0 {fill:#B42C2F}
   ]]>
  </style>
 </defs>
 <g id="Layer_x0020_1">
  <metadata id="CorelCorpID_0Corel-Layer"/>
  <g id="_1857270666352">
   <path class="fil0" d="M0.18 3.27l0 -0.04 0.08 -0.09 0.13 0 0 0.13 -0.21 0zm0 0.21l0 -0.12 0.21 0 0 0.12 0.08 0 0 -0.42 -0.25 0 -0.13 0.13 0 0.29 0.09 0zm0.44 -0.21l0 -0.13 0.21 0 0 0.13 -0.21 0zm0 0.21l0 -0.12 0.25 0 0.04 -0.05 0 -0.21 -0.04 -0.04 -0.34 0 0 0.42 0.09 0zm0.56 0l0 -0.34 0.15 0 0 -0.08 -0.38 0 0 0.08 0.15 0 0 0.34 0.08 0zm0.52 0l0 -0.17 0.21 0 0 0.17 0.08 0 0 -0.42 -0.08 0 0 0.17 -0.21 0 0 -0.17 -0.09 0 0 0.42 0.09 0zm0.44 -0.08l0 -0.26 0.21 0 0 0.26 -0.21 0zm0.25 0.08l0.04 -0.04 0 -0.34 -0.04 -0.04 -0.3 0 -0.04 0.04 0 0.34 0.04 0.04 0.3 0zm0.18 -0.08l0 -0.09 0.22 0 0 0.09 -0.22 0zm0 -0.17l0 -0.09 0.22 0 0 0.09 -0.22 0zm0.26 0.25l0.04 -0.04 0 -0.13 -0.04 -0.04 0.04 -0.04 0 -0.13 -0.04 -0.04 -0.34 0 0 0.42 0.34 0zm0.18 -0.21l0 -0.04 0.08 -0.09 0.13 0 0 0.13 -0.21 0zm0 0.21l0 -0.12 0.21 0 0 0.12 0.08 0 0 -0.42 -0.25 0 -0.13 0.13 0 0.29 0.09 0z"/>
   <path class="fil0" d="M0.15 3.79c0,-0.02 -0.02,-0.04 -0.06,-0.04l-0.08 0c-0.01,0 -0.01,0 -0.01,0.01l0 0.13c0,0.01 0,0.01 0.01,0.01l0.08 0c0.05,0 0.07,-0.02 0.07,-0.04 0,-0.03 -0.03,-0.04 -0.03,-0.04l0 0c0,0 0.02,-0.01 0.02,-0.03zm-0.06 0.05c0.01,0 0.02,0.01 0.02,0.01 0,0.01 -0.01,0.02 -0.02,0.02l-0.04 0 0 -0.03 0.04 0zm0 -0.06c0.01,0 0.01,0.01 0.01,0.01 0,0.01 -0.01,0.02 -0.01,0.02l-0.04 0 0 -0.03 0.04 0zm0.26 0.09c-0.02,0 -0.04,-0.02 -0.04,-0.05 0,-0.02 0.02,-0.04 0.04,-0.04 0.02,0 0.04,0.02 0.04,0.04 0,0.03 -0.02,0.05 -0.04,0.05zm0 -0.12c-0.06,0 -0.09,0.03 -0.09,0.07 0,0.05 0.03,0.08 0.09,0.08 0.06,0 0.09,-0.03 0.09,-0.08 0,-0.04 -0.03,-0.07 -0.09,-0.07zm0.31 0.07c0,0 0.02,0 0.03,-0.03l0.02 -0.03c0,-0.01 0,-0.01 -0.01,-0.01l-0.03 0c-0.01,0 -0.01,0 -0.02,0.01l-0.02 0.03c0,0.01 0,0.02 -0.02,0.02l-0.01 0 0 -0.05c0,-0.01 0,-0.01 -0.01,-0.01l-0.03 0c-0.01,0 -0.01,0 -0.01,0.01l0 0.13c0,0.01 0,0.01 0.01,0.01l0.03 0c0.01,0 0.01,0 0.01,-0.01l0 -0.05 0.02 0c0.01,0 0.01,0.01 0.02,0.01l0.02 0.04c0,0.01 0,0.01 0.01,0.01l0.04 0c0,0 0,0 0,-0.01l-0.02 -0.04c-0.01,-0.02 -0.03,-0.03 -0.03,-0.03l0 0zm0.27 0.07c0.01,0.01 0.01,0.01 0.01,0.01l0.04 0c0.01,0 0.01,0 0.01,-0.01l-0.06 -0.13c-0.01,-0.01 -0.01,-0.01 -0.01,-0.01l-0.05 0c0,0 -0.01,0 -0.01,0.01l-0.06 0.13c0,0.01 0,0.01 0.01,0.01l0.03 0c0.01,0 0.01,0 0.01,-0.01l0.01 -0.02 0.07 0 0 0.02zm-0.04 -0.1l0 0 0.02 0.05 -0.04 0 0.02 -0.05zm0.36 -0.03c0,-0.01 -0.01,-0.01 -0.01,-0.01l-0.07 0c-0.04,0 -0.06,0.02 -0.07,0.06l-0.02 0.08c0,0.01 0,0.01 0.01,0.01l0.03 0c0,0 0.01,0 0.01,-0.01l0.02 -0.08c0,-0.02 0.01,-0.02 0.02,-0.02l0.03 0 0 0.1c0,0.01 0,0.01 0.01,0.01l0.03 0c0,0 0.01,0 0.01,-0.01l0 -0.13zm0.39 0.06c0,0 -0.01,0 -0.01,0l-0.01 0.01 -0.02 -0.01c-0.02,-0.02 -0.02,-0.02 -0.02,-0.03 0,-0.01 0,-0.01 0.01,-0.01 0.01,0 0.01,0.01 0.01,0.01 0.01,0 0.01,0.01 0.02,0.01l0.02 0c0.01,0 0.01,0 0.01,-0.01 0,-0.02 -0.02,-0.04 -0.06,-0.04 -0.04,0 -0.06,0.02 -0.06,0.04 0,0.02 0.01,0.03 0.01,0.03l0 0c0,0 -0.03,0.01 -0.03,0.04 0,0.02 0.02,0.04 0.05,0.04 0.03,0 0.05,-0.01 0.05,-0.01l0 0 0.01 0c0,0.01 0,0.01 0.01,0.01l0.04 0c0.01,0 0.01,0 0.01,-0.01l-0.04 -0.03 0.02 -0.01c0,-0.01 0,-0.01 0,-0.01l-0.02 -0.02zm-0.07 0.05c-0.01,0 -0.02,-0.01 -0.02,-0.01 0,-0.01 0.01,-0.02 0.01,-0.02l0.02 0.02c0,0 0,0.01 -0.01,0.01zm0.5 -0.11c0,-0.01 0,-0.01 -0.01,-0.01l-0.12 0c0,0 0,0 0,0.01l0 0.13c0,0.01 0,0.01 0,0.01l0.03 0c0.01,0 0.01,0 0.01,-0.01l0 -0.1 0.08 0c0.01,0 0.01,-0.01 0.01,-0.01l0 -0.02zm0.22 0.05l0 0.08c0,0.01 0,0.01 0,0.01l0.04 0c0,0 0,0 0,-0.01l0 -0.13c0,-0.01 0,-0.01 0,-0.01l-0.04 0c-0.01,0 -0.01,0 -0.01,0.01l-0.06 0.08 0 0 0 -0.08c0,-0.01 0,-0.01 -0.01,-0.01l-0.03 0c0,0 0,0 0,0.01l0 0.13c0,0.01 0,0.01 0,0.01l0.04 0c0,0 0.01,0 0.01,-0.01l0.05 -0.08 0.01 0zm0.3 -0.05c0,-0.01 0,-0.01 0,-0.01l-0.14 0c-0.01,0 -0.01,0 -0.01,0.01l0 0.02c0,0 0,0.01 0.01,0.01l0.04 0 0 0.1c0,0.01 0.01,0.01 0.01,0.01l0.03 0c0.01,0 0.01,0 0.01,-0.01l0 -0.1 0.05 0c0,0 0,-0.01 0,-0.01l0 -0.02zm0.23 0.13c0,0.01 0,0.01 0,0.01l0.04 0c0.01,0 0.01,0 0.01,-0.01l-0.06 -0.13c-0.01,-0.01 -0.01,-0.01 -0.01,-0.01l-0.05 0c0,0 0,0 -0.01,0.01l-0.06 0.13c0,0.01 0,0.01 0.01,0.01l0.03 0c0.01,0 0.01,0 0.01,-0.01l0.01 -0.02 0.07 0 0.01 0.02zm-0.05 -0.1l0.01 0 0.01 0.05 -0.04 0 0.02 -0.05zm0.36 0.01c0,-0.03 -0.03,-0.05 -0.08,-0.05l-0.07 0c-0.01,0 -0.01,0 -0.01,0.01l0 0.13c0,0.01 0,0.01 0.01,0.01l0.03 0c0,0 0.01,0 0.01,-0.01l0 -0.03 0.03 0c0.05,0 0.08,-0.02 0.08,-0.06zm-0.11 0.02l0 -0.04 0.03 0c0.02,0 0.03,0.01 0.03,0.02 0,0.02 -0.01,0.02 -0.03,0.02l-0.03 0zm0.33 0.07c0,0.01 0.01,0.01 0.01,0.01l0.04 0c0,0 0.01,0 0,-0.01l-0.06 -0.13c0,-0.01 0,-0.01 -0.01,-0.01l-0.04 0c-0.01,0 -0.01,0 -0.01,0.01l-0.06 0.13c0,0.01 0,0.01 0,0.01l0.04 0c0,0 0.01,0 0.01,-0.01l0.01 -0.02 0.06 0 0.01 0.02zm-0.04 -0.1l0 0 0.02 0.05 -0.04 0 0.02 -0.05z"/>
   <g id="SvgjsG4316" xmlns:name="symbol_mainfill" rel="mainfill">
    <path class="fil0" d="M0.67 1.63c-0.12,0 -0.21,0.09 -0.21,0.2l0 0.54c0,0.12 0.09,0.21 0.21,0.21l0 -0.95z"/>
    <path class="fil0" d="M1.04 2.6c0,0.05 -0.04,0.08 -0.08,0.08l-0.13 0c-0.05,0 -0.08,-0.03 -0.08,-0.08l0 -1c0,-0.04 0.03,-0.08 0.08,-0.08l0.13 0c0.04,0 0.08,0.04 0.08,0.08l0 1z"/>
    <path class="fil0" d="M2.72 2.58c0.11,0 0.2,-0.09 0.2,-0.21l0 -0.54c0,-0.11 -0.09,-0.2 -0.2,-0.2l0 0.95z"/>
    <path class="fil0" d="M2.34 1.6c0,-0.04 0.04,-0.08 0.08,-0.08l0.14 0c0.04,0 0.08,0.04 0.08,0.08l0 1c0,0.05 -0.04,0.08 -0.08,0.08l-0.14 0c-0.04,0 -0.08,-0.03 -0.08,-0.08l0 -1z"/>
    <path class="fil0" d="M1.69 0c-0.76,0 -1.39,0.52 -1.39,1.17l0 1.11 0.08 0 0 -1.11c0,-0.05 0,-0.09 0.01,-0.13l0.14 0 0 -0.02c0.09,-0.46 0.59,-0.81 1.16,-0.81 0.58,0 1.07,0.35 1.16,0.81l0.01 0.02 0.13 0c0.01,0.04 0.01,0.08 0.01,0.13l0 1.11 0.08 0 0 -1.11c0,-0.65 -0.62,-1.17 -1.39,-1.17z"/>
   </g>
  </g>
 </g>
</svg>
