<svg width="151" height="173" viewBox="0 0 151 173" fill="none" xmlns="http://www.w3.org/2000/svg">
<path fill-rule="evenodd" clip-rule="evenodd" d="M8.42856 144.496V142.647L12.1259 138.892H17.6719V144.496H8.42856ZM8.42856 153.797V148.251H17.6719V153.797H21.3692V135.195H10.2772L4.67352 140.798V153.797H8.42856ZM27.7817 144.496V138.892H37.0249V144.496H27.7817ZM27.7817 153.797V148.251H38.8736L40.7222 146.344V137.043L38.8736 135.195H24.0266V153.797H27.7817ZM52.5652 153.797V138.892H59.0354V135.195H42.3398V138.892H48.8101V153.797H52.5652ZM75.2112 153.797V146.344H84.5122V153.797H88.2095V135.195H84.5122V142.647H75.2112V135.195H71.5139V153.797H75.2112ZM94.5643 150.042V138.892H103.865V150.042H94.5643ZM105.714 153.797L107.505 151.948V137.043L105.714 135.195H92.6578L90.867 137.043V151.948L92.6578 153.797H105.714ZM113.917 150.042V146.344H123.161V150.042H113.917ZM113.917 142.647V138.892H123.161V142.647H113.917ZM125.009 153.797L126.858 151.948V146.344L125.009 144.496L126.858 142.647V137.043L125.009 135.195H110.162V153.797H125.009ZM132.982 144.496V142.647L136.679 138.892H142.283V144.496H132.982ZM132.982 153.797V148.251H142.283V153.797H145.922V135.195H134.83L129.284 140.798V153.797H132.982Z" fill="#FEFEFE"/>
<path fill-rule="evenodd" clip-rule="evenodd" d="M7.09986 167.431C7.09986 166.449 6.23329 165.582 4.32686 165.582H0.91843C0.687348 165.582 0.571777 165.698 0.571777 165.871V171.879C0.571777 172.053 0.687348 172.226 0.91843 172.226H4.67351C6.69548 172.226 7.56204 171.301 7.56204 170.261C7.56204 169.048 6.17551 168.759 6.17551 168.759V168.644C6.17551 168.644 7.09986 168.355 7.09986 167.431ZM4.67351 169.568C5.13568 169.568 5.36673 169.799 5.36673 170.146C5.36673 170.435 5.13568 170.666 4.67351 170.666H2.65152V169.568H4.67351ZM4.32686 167.084C4.73126 167.084 4.90456 167.258 4.90456 167.546C4.90456 167.835 4.73126 168.008 4.32686 168.008H2.65152V167.084H4.32686ZM15.9965 170.839C14.9566 170.839 14.3212 170.146 14.3212 168.875C14.3212 167.604 14.9566 166.968 15.9965 166.968C17.0364 166.968 17.7296 167.604 17.7296 168.875C17.7296 170.146 17.0364 170.839 15.9965 170.839ZM15.9965 165.409C13.5124 165.409 12.1259 166.738 12.1259 168.875C12.1259 171.013 13.5124 172.399 15.9965 172.399C18.5384 172.399 19.9249 171.013 19.9249 168.875C19.9249 166.738 18.5384 165.409 15.9965 165.409ZM29.6881 168.702C29.6881 168.702 30.2658 168.529 30.7857 167.546L31.71 165.871C31.7678 165.755 31.7101 165.582 31.479 165.582H29.9769C29.6303 165.582 29.457 165.698 29.3992 165.871L28.4749 167.546C28.3016 167.835 28.1283 168.008 27.6083 168.008H26.9151V165.871C26.9151 165.698 26.7995 165.582 26.5685 165.582H25.182C24.9509 165.582 24.8354 165.698 24.8354 165.871V171.879C24.8354 172.053 24.9509 172.226 25.182 172.226H26.5685C26.7995 172.226 26.9151 172.053 26.9151 171.879V169.626H27.7817C28.3016 169.626 28.4749 169.857 28.6482 170.146L29.5725 171.879C29.6881 172.053 29.8036 172.226 30.208 172.226H31.6523C31.8834 172.226 31.9411 171.995 31.8834 171.879L30.959 170.146C30.3235 168.99 29.6881 168.817 29.6881 168.817V168.702ZM41.7043 171.879C41.7621 172.053 41.9354 172.226 42.1087 172.226H43.7263C43.9574 172.226 44.0729 172.053 43.9574 171.879L41.3577 165.871C41.2422 165.698 41.0689 165.582 40.8955 165.582H38.9891C38.758 165.582 38.6425 165.698 38.5269 165.871L35.8695 171.879C35.8117 172.053 35.9273 172.226 36.1006 172.226H37.6604C37.8337 172.226 38.007 172.053 38.0648 171.879L38.4114 171.012H41.3577L41.7043 171.879ZM39.8557 167.546H39.9712L40.7222 169.453H39.0469L39.8557 167.546ZM55.3959 165.871C55.3959 165.698 55.2804 165.582 55.0493 165.582H52.1608C50.3121 165.582 49.33 166.506 48.9256 168.008L48.0013 171.879C47.9435 172.053 48.1168 172.226 48.3479 172.226H49.7922C49.9655 172.226 50.081 172.053 50.1388 171.879L51.0631 168.008C51.2365 167.488 51.583 167.2 52.1608 167.2H53.3162V171.879C53.3162 172.053 53.4317 172.226 53.6628 172.226H55.0493C55.2804 172.226 55.3959 172.053 55.3959 171.879V165.871ZM72.7848 168.702C72.6692 168.586 72.4382 168.586 72.3227 168.702L71.7449 169.279L71.0517 168.586C70.3007 167.893 69.8963 167.662 69.8963 167.373C69.8963 167.142 70.1274 166.968 70.474 166.968C70.8206 166.968 71.0517 167.2 71.1672 167.373C71.3405 167.546 71.5138 167.72 71.7449 167.72H72.9581C73.1892 167.72 73.3047 167.604 73.3047 167.373C73.3047 166.449 72.2649 165.409 70.474 165.409C68.6831 165.409 67.701 166.333 67.701 167.257C67.701 168.124 68.3365 168.528 68.3365 168.528V168.586C68.3365 168.586 66.8344 168.991 66.8344 170.435C66.8344 171.475 67.701 172.399 69.3764 172.399C70.7051 172.399 71.3983 171.648 71.3983 171.648H71.5139L71.7449 171.879C71.9182 172.053 72.0916 172.226 72.4382 172.226H74.229C74.4601 172.226 74.5757 171.995 74.4601 171.879L72.9581 170.435L73.5358 169.857C73.6514 169.684 73.6514 169.511 73.5358 169.337L72.7848 168.702ZM69.6074 170.839C69.2608 170.839 69.0297 170.608 69.0297 170.319C69.0297 169.857 69.4341 169.626 69.4341 169.626L70.3584 170.492C70.3584 170.492 70.0696 170.839 69.6074 170.839ZM91.7335 165.871C91.7335 165.698 91.5602 165.582 91.3869 165.582H86.072C85.8987 165.582 85.7254 165.698 85.7254 165.871V171.879C85.7254 172.053 85.8987 172.226 86.072 172.226H87.5163C87.6896 172.226 87.8629 172.053 87.8629 171.879V167.2H91.3869C91.5602 167.2 91.7335 167.027 91.7335 166.853V165.871ZM101.266 168.413V171.879C101.266 172.053 101.381 172.226 101.554 172.226H102.999C103.172 172.226 103.345 172.053 103.345 171.879V165.871C103.345 165.698 103.172 165.582 102.999 165.582H101.381C101.15 165.582 100.977 165.755 100.861 165.871L98.4926 169.337H98.3771V165.871C98.3771 165.698 98.2616 165.582 98.0882 165.582H96.644C96.4707 165.582 96.2973 165.698 96.2973 165.871V171.879C96.2973 172.053 96.4707 172.226 96.644 172.226H98.2616C98.4926 172.226 98.6659 171.995 98.7815 171.879L101.15 168.413H101.266ZM114.726 165.871C114.726 165.698 114.553 165.582 114.38 165.582H108.314C108.14 165.582 107.967 165.698 107.967 165.871V166.853C107.967 167.027 108.14 167.2 108.314 167.2H110.278V171.879C110.278 172.053 110.451 172.226 110.624 172.226H112.069C112.242 172.226 112.415 172.053 112.415 171.879V167.2H114.38C114.553 167.2 114.726 167.027 114.726 166.853V165.871ZM124.489 171.879C124.605 172.053 124.72 172.226 124.951 172.226H126.569C126.742 172.226 126.858 172.053 126.8 171.879L124.143 165.871C124.027 165.698 123.912 165.582 123.681 165.582H121.774C121.543 165.582 121.427 165.698 121.312 165.871L118.654 171.879C118.597 172.053 118.712 172.226 118.886 172.226H120.445C120.619 172.226 120.792 172.053 120.85 171.879L121.196 171.012H124.143L124.489 171.879ZM122.641 167.546H122.756L123.507 169.453H121.832L122.641 167.546ZM138.239 168.008C138.239 166.622 137.199 165.582 134.946 165.582H131.653C131.422 165.582 131.306 165.698 131.306 165.871V171.879C131.306 172.053 131.422 172.226 131.653 172.226H133.039C133.27 172.226 133.386 172.053 133.386 171.879V170.435H134.946C137.199 170.435 138.239 169.337 138.239 168.008ZM133.386 168.875V167.084H134.946C135.697 167.084 136.043 167.488 136.043 168.008C136.043 168.528 135.697 168.875 134.946 168.875H133.386ZM148.117 171.879C148.175 172.053 148.348 172.226 148.522 172.226H150.139C150.37 172.226 150.486 172.053 150.37 171.879L147.713 165.871C147.655 165.698 147.482 165.582 147.309 165.582H145.344C145.171 165.582 145.056 165.698 144.94 165.871L142.283 171.879C142.225 172.053 142.34 172.226 142.514 172.226H144.016C144.247 172.226 144.42 172.053 144.478 171.879L144.824 171.012H147.771L148.117 171.879ZM146.269 167.546H146.384L147.135 169.453H145.46L146.269 167.546Z" fill="#FEFEFE"/>
<path fill-rule="evenodd" clip-rule="evenodd" d="M29.8614 72.1672C24.8932 72.1672 20.8492 76.2112 20.8492 81.1794V104.923C20.8492 109.891 24.8932 113.993 29.8614 113.993V72.1672Z" fill="#FEFEFE"/>
<path fill-rule="evenodd" clip-rule="evenodd" d="M46.326 115.033C46.326 117.055 44.7084 118.615 42.7442 118.615H36.9672C35.003 118.615 33.3854 117.055 33.3854 115.033V71.0698C33.3854 69.0478 35.003 67.488 36.9672 67.488H42.7442C44.7084 67.488 46.326 69.0478 46.326 71.0698V115.033Z" fill="#FEFEFE"/>
<path fill-rule="evenodd" clip-rule="evenodd" d="M120.157 113.993C125.183 113.993 129.227 109.891 129.227 104.923V81.1794C129.227 76.2112 125.183 72.1672 120.157 72.1672V113.993Z" fill="#FEFEFE"/>
<path fill-rule="evenodd" clip-rule="evenodd" d="M103.692 71.0698C103.692 69.1056 105.31 67.488 107.332 67.488H113.109C115.073 67.488 116.69 69.1056 116.69 71.0698V115.033C116.69 117.055 115.073 118.615 113.109 118.615H107.332C105.31 118.615 103.692 117.055 103.692 115.033V71.0698Z" fill="#FEFEFE"/>
<path fill-rule="evenodd" clip-rule="evenodd" d="M75.0378 0.531982C41.2999 0.531982 13.8012 23.5246 13.8012 51.8321V100.937H17.3252V51.8321C17.3252 49.9835 17.4985 48.1926 17.7296 46.4595H23.6799L23.911 45.304C27.8394 25.1422 49.7922 9.94859 75.0378 9.94859C100.283 9.94859 122.294 25.1422 126.165 45.304L126.396 46.4595H132.404C132.635 48.1926 132.808 49.9835 132.808 51.8321V100.937H136.274V51.8321C136.274 23.5246 108.834 0.531982 75.0378 0.531982Z" fill="#FEFEFE"/>
</svg>
