<svg width="184" height="60" viewBox="0 0 184 60" fill="none" xmlns="http://www.w3.org/2000/svg">
<path fill-rule="evenodd" clip-rule="evenodd" d="M86.4306 33.9215V32.6878L88.898 30.1818H92.5992V33.9215H86.4306ZM86.4306 40.1286V36.3889H92.5992V40.1286H95.0666V27.7144H87.6643L83.9246 31.4541V40.1286H86.4306ZM99.3461 33.9215V30.1818H105.515V33.9215H99.3461ZM99.3461 40.1286V36.3889H106.748L107.982 35.1552V28.9481L106.748 27.7144H96.8401V40.1286H99.3461ZM115.886 40.1286V30.1818H120.204V27.7144H109.062V30.1818H113.38V40.1286H115.886ZM130.999 40.1286V35.1552H137.206V40.1286H139.673V27.7144H137.206V32.6878H130.999V27.7144H128.531V40.1286H130.999ZM143.914 37.6227V30.1818H150.121V37.6227H143.914ZM151.355 40.1286L152.55 38.8949V28.9481L151.355 27.7144H142.642L141.447 28.9481V38.8949L142.642 40.1286H151.355ZM156.83 37.6227V35.1552H162.998V37.6227H156.83ZM156.83 32.6878V30.1818H162.998V32.6878H156.83ZM164.232 40.1286L165.466 38.8949V35.1552L164.232 33.9215L165.466 32.6878V28.9481L164.232 27.7144H154.324V40.1286H164.232ZM169.552 33.9215V32.6878L172.02 30.1818H175.759V33.9215H169.552ZM169.552 40.1286V36.3889H175.759V40.1286H178.188V27.7144H170.786L167.085 31.4541V40.1286H169.552Z" fill="white"/>
<path fill-rule="evenodd" clip-rule="evenodd" d="M88.2812 48.1663C88.2812 47.4723 87.7029 46.9325 86.4306 46.9325H84.1559C84.0017 46.9325 83.9246 47.0096 83.9246 47.1253V51.1349C83.9246 51.2506 84.0017 51.3277 84.1559 51.3277H86.6619C88.0113 51.3277 88.5896 50.7493 88.5896 50.0554C88.5896 49.2072 87.6643 49.053 87.6643 49.053V48.9759C87.6643 48.9759 88.2812 48.7831 88.2812 48.1663ZM86.6619 49.5927C86.9704 49.5927 87.1246 49.747 87.1246 49.9397C87.1246 50.171 86.9704 50.3253 86.6619 50.3253H85.3125V49.5927H86.6619ZM86.4306 47.9349C86.7005 47.9349 86.8161 48.0506 86.8161 48.2434C86.8161 48.4361 86.7005 48.5518 86.4306 48.5518H85.3125V47.9349H86.4306ZM94.2185 50.4409C93.5245 50.4409 93.1004 49.9783 93.1004 49.1301C93.1004 48.2819 93.5245 47.8193 94.2185 47.8193C94.9124 47.8193 95.3751 48.2819 95.3751 49.1301C95.3751 49.9783 94.9124 50.4409 94.2185 50.4409ZM94.2185 46.7783C92.5607 46.7783 91.6353 47.7036 91.6353 49.1301C91.6353 50.5566 92.5607 51.4819 94.2185 51.4819C95.9148 51.4819 96.8401 50.5566 96.8401 49.1301C96.8401 47.7036 95.9148 46.7783 94.2185 46.7783ZM103.356 49.0144C103.356 49.0144 103.741 48.8602 104.088 48.2434L104.705 47.1253C104.744 47.0482 104.705 46.9325 104.551 46.9325H103.548C103.317 46.9325 103.201 47.0096 103.163 47.1253L102.546 48.2434C102.43 48.4361 102.315 48.5518 101.968 48.5518H101.505V47.1253C101.505 47.0096 101.428 46.9325 101.274 46.9325H100.348C100.194 46.9325 100.117 47.0096 100.117 47.1253V51.1349C100.117 51.2506 100.194 51.3277 100.348 51.3277H101.274C101.428 51.3277 101.505 51.2506 101.505 51.1349V49.6313H102.083C102.43 49.6313 102.546 49.747 102.662 49.9397L103.279 51.1349C103.356 51.2506 103.433 51.3277 103.703 51.3277H104.667C104.821 51.3277 104.859 51.212 104.821 51.1349L104.204 49.9397C103.78 49.2072 103.356 49.053 103.356 49.053V49.0144ZM111.375 51.1349C111.413 51.2506 111.529 51.3277 111.645 51.3277H112.724C112.878 51.3277 112.956 51.2506 112.878 51.1349L111.144 47.1253C111.066 47.0096 110.951 46.9325 110.835 46.9325H109.563C109.409 46.9325 109.331 47.0096 109.254 47.1253L107.481 51.1349C107.442 51.2506 107.519 51.3277 107.635 51.3277H108.676C108.792 51.3277 108.907 51.2506 108.946 51.1349L109.177 50.5566H111.144L111.375 51.1349ZM110.141 48.2434H110.218L110.719 49.5156H109.601L110.141 48.2434ZM120.512 47.1253C120.512 47.0096 120.435 46.9325 120.281 46.9325H118.353C117.119 46.9325 116.464 47.5494 116.194 48.5518L115.577 51.1349C115.539 51.2506 115.654 51.3277 115.809 51.3277H116.772C116.888 51.3277 116.965 51.2506 117.004 51.1349L117.621 48.5518C117.736 48.2048 117.968 47.9735 118.353 47.9735H119.124V51.1349C119.124 51.2506 119.201 51.3277 119.355 51.3277H120.281C120.435 51.3277 120.512 51.2506 120.512 51.1349V47.1253ZM132.117 49.0144C132.04 48.8988 131.885 48.8988 131.808 49.0144L131.423 49.4L130.96 48.9373C130.459 48.4747 130.189 48.3205 130.189 48.1277C130.189 47.9735 130.343 47.8193 130.575 47.8193C130.806 47.8193 130.96 47.9735 131.037 48.1277C131.153 48.2434 131.269 48.359 131.423 48.359H132.232C132.387 48.359 132.464 48.2819 132.464 48.1277C132.464 47.4723 131.77 46.7783 130.575 46.7783C129.379 46.7783 128.724 47.4337 128.724 48.0506C128.724 48.6289 129.148 48.8602 129.148 48.8602V48.9373C129.148 48.9373 128.146 49.2072 128.146 50.1325C128.146 50.865 128.724 51.4819 129.842 51.4819C130.729 51.4819 131.191 50.9807 131.191 50.9807H131.269L131.423 51.1349C131.538 51.2506 131.654 51.3277 131.885 51.3277H133.081C133.235 51.3277 133.312 51.212 133.235 51.1349L132.232 50.1325L132.618 49.747C132.695 49.6698 132.695 49.5542 132.618 49.4385L132.117 49.0144ZM129.996 50.4409C129.765 50.4409 129.611 50.2867 129.611 50.0939C129.611 49.7855 129.881 49.6313 129.881 49.6313L130.497 50.2096C130.497 50.2096 130.305 50.4409 129.996 50.4409ZM144.762 47.1253C144.762 47.0096 144.647 46.9325 144.531 46.9325H140.984C140.868 46.9325 140.753 47.0096 140.753 47.1253V51.1349C140.753 51.2506 140.868 51.3277 140.984 51.3277H141.948C142.064 51.3277 142.179 51.2506 142.179 51.1349V47.9735H144.531C144.647 47.9735 144.762 47.8964 144.762 47.7807V47.1253ZM151.124 48.8217V51.1349C151.124 51.2506 151.201 51.3277 151.316 51.3277H152.28C152.396 51.3277 152.512 51.2506 152.512 51.1349V47.1253C152.512 47.0096 152.396 46.9325 152.28 46.9325H151.201C151.047 46.9325 150.931 47.0482 150.854 47.1253L149.273 49.4385H149.196V47.1253C149.196 47.0096 149.119 46.9325 149.003 46.9325H148.039C147.924 46.9325 147.808 47.0096 147.808 47.1253V51.1349C147.808 51.2506 147.924 51.3277 148.039 51.3277H149.119C149.273 51.3277 149.389 51.212 149.466 51.1349L151.047 48.8217H151.124ZM160.107 47.1253C160.107 47.0096 159.991 46.9325 159.875 46.9325H155.827C155.712 46.9325 155.596 47.0096 155.596 47.1253V47.7807C155.596 47.8964 155.712 47.9735 155.827 47.9735H157.138V51.1349C157.138 51.2506 157.254 51.3277 157.369 51.3277H158.333C158.449 51.3277 158.565 51.2506 158.565 51.1349V47.9735H159.875C159.991 47.9735 160.107 47.8964 160.107 47.7807V47.1253ZM166.622 51.1349C166.699 51.2506 166.777 51.3277 166.931 51.3277H168.01C168.126 51.3277 168.203 51.2506 168.164 51.1349L166.391 47.1253C166.314 47.0096 166.237 46.9325 166.083 46.9325H164.81C164.656 46.9325 164.579 47.0096 164.502 47.1253L162.728 51.1349C162.69 51.2506 162.767 51.3277 162.883 51.3277H163.924C164.039 51.3277 164.155 51.2506 164.193 51.1349L164.425 50.5566H166.391L166.622 51.1349ZM165.389 48.2434H165.466L165.967 49.5156H164.849L165.389 48.2434ZM175.798 48.5132C175.798 47.6265 175.104 46.9325 173.601 46.9325H171.403C171.249 46.9325 171.172 47.0096 171.172 47.1253V51.1349C171.172 51.2506 171.249 51.3277 171.403 51.3277H172.328C172.482 51.3277 172.56 51.2506 172.56 51.1349V50.1325H173.601C175.104 50.1325 175.798 49.4385 175.798 48.5132ZM172.56 49.1301V47.9349H173.601C174.102 47.9349 174.333 48.1663 174.333 48.5132C174.333 48.8602 174.102 49.1301 173.601 49.1301H172.56ZM182.391 51.1349C182.429 51.2506 182.545 51.3277 182.661 51.3277H183.74C183.894 51.3277 183.971 51.2506 183.894 51.1349L182.121 47.1253C182.082 47.0096 181.967 46.9325 181.851 46.9325H180.54C180.424 46.9325 180.347 47.0096 180.27 47.1253L178.497 51.1349C178.458 51.2506 178.535 51.3277 178.651 51.3277H179.653C179.808 51.3277 179.923 51.2506 179.962 51.1349L180.193 50.5566H182.159L182.391 51.1349ZM181.157 48.2434H181.234L181.735 49.5156H180.617L181.157 48.2434Z" fill="white"/>
<path fill-rule="evenodd" clip-rule="evenodd" d="M8.09075 36.2231C5.61622 36.2231 3.60208 38.2661 3.60208 40.7406V52.5665C3.60208 55.0411 5.61622 57.0552 8.09075 57.0552V36.2231Z" fill="white"/>
<path fill-rule="evenodd" clip-rule="evenodd" d="M16.2912 57.602C16.2912 58.5803 15.4855 59.386 14.5072 59.386H11.6299C10.6516 59.386 9.84592 58.5803 9.84592 57.602V35.7054C9.84592 34.6983 10.6516 33.9214 11.6299 33.9214H14.5072C15.4855 33.9214 16.2912 34.6983 16.2912 35.7054V57.602Z" fill="white"/>
<path fill-rule="evenodd" clip-rule="evenodd" d="M53.0639 57.0552C55.5672 57.0552 57.5813 55.0411 57.5813 52.5665V40.7406C57.5813 38.2661 55.5672 36.2231 53.0639 36.2231V57.0552Z" fill="white"/>
<path fill-rule="evenodd" clip-rule="evenodd" d="M44.8634 35.7054C44.8634 34.6983 45.6691 33.9214 46.6761 33.9214H49.5535C50.5318 33.9214 51.3375 34.6983 51.3375 35.7054V57.602C51.3375 58.5803 50.5318 59.386 49.5535 59.386H46.6761C45.6691 59.386 44.8634 58.5803 44.8634 57.602V35.7054Z" fill="white"/>
<path fill-rule="evenodd" clip-rule="evenodd" d="M30.5917 0.543945C13.7879 0.543945 0.0916748 12.0246 0.0916748 26.1237V50.5812H1.84686V26.1237C1.84686 25.2029 1.93318 24.3109 2.04828 23.4477H5.01195L5.12705 22.8722C7.08365 12.8303 18.0176 5.26281 30.5917 5.26281C43.1657 5.26281 54.1285 12.8303 56.0563 22.8722L56.1714 23.4477H59.1638C59.2789 24.3109 59.3652 25.2029 59.3652 26.1237V50.5812H61.0917V26.1237C61.0917 12.0246 47.4242 0.543945 30.5917 0.543945Z" fill="white"/>
</svg>
