<svg width="209" height="60" viewBox="0 0 209 60" fill="none" xmlns="http://www.w3.org/2000/svg">
<path fill-rule="evenodd" clip-rule="evenodd" d="M102.827 49.7767C102.827 49.0134 102.191 48.4196 100.791 48.4196H98.289C98.1193 48.4196 98.0345 48.5045 98.0345 48.6317V53.0422C98.0345 53.1695 98.1193 53.2543 98.289 53.2543H101.046C102.53 53.2543 103.166 52.6181 103.166 51.8548C103.166 50.9218 102.148 50.7521 102.148 50.7521V50.6673C102.148 50.6673 102.827 50.4553 102.827 49.7767V49.7767ZM101.046 51.3459C101.385 51.3459 101.554 51.5155 101.554 51.7275C101.554 51.982 101.385 52.1516 101.046 52.1516H99.5612V51.3459H101.046V51.3459ZM100.791 49.5223C101.088 49.5223 101.215 49.6495 101.215 49.8615C101.215 50.0736 101.088 50.2008 100.791 50.2008H99.5612V49.5223H100.791ZM109.358 52.2789C108.594 52.2789 108.128 51.77 108.128 50.837C108.128 49.904 108.594 49.395 109.358 49.395C110.121 49.395 110.63 49.904 110.63 50.837C110.63 51.77 110.121 52.2789 109.358 52.2789ZM109.358 48.25C107.534 48.25 106.516 49.2678 106.516 50.837C106.516 52.4061 107.534 53.4239 109.358 53.4239C111.224 53.4239 112.242 52.4061 112.242 50.837C112.242 49.2678 111.224 48.25 109.358 48.25ZM119.409 50.7097C119.409 50.7097 119.833 50.5401 120.214 49.8615L120.893 48.6317C120.935 48.5469 120.893 48.4196 120.723 48.4196H119.621C119.366 48.4196 119.239 48.5045 119.197 48.6317L118.518 49.8615C118.391 50.0736 118.264 50.2008 117.882 50.2008H117.373V48.6317C117.373 48.5045 117.288 48.4196 117.119 48.4196H116.101C115.931 48.4196 115.846 48.5045 115.846 48.6317V53.0422C115.846 53.1695 115.931 53.2543 116.101 53.2543H117.119C117.288 53.2543 117.373 53.1695 117.373 53.0422V51.3883H118.009C118.391 51.3883 118.518 51.5155 118.645 51.7275L119.324 53.0422C119.409 53.1695 119.493 53.2543 119.79 53.2543H120.851C121.02 53.2543 121.063 53.127 121.02 53.0422L120.342 51.7275C119.875 50.9218 119.409 50.7521 119.409 50.7521V50.7097ZM128.23 53.0422C128.272 53.1695 128.399 53.2543 128.527 53.2543H129.714C129.884 53.2543 129.969 53.1695 129.884 53.0422L127.975 48.6317C127.89 48.5045 127.763 48.4196 127.636 48.4196H126.237C126.067 48.4196 125.982 48.5045 125.897 48.6317L123.946 53.0422C123.904 53.1695 123.989 53.2543 124.116 53.2543H125.261C125.388 53.2543 125.516 53.1695 125.558 53.0422L125.812 52.4061H127.975L128.23 53.0422V53.0422ZM126.873 49.8615H126.957L127.509 51.261H126.279L126.873 49.8615V49.8615ZM138.281 48.6317C138.281 48.5045 138.196 48.4196 138.026 48.4196H135.906C134.549 48.4196 133.828 49.0982 133.531 50.2008L132.852 53.0422C132.81 53.1695 132.937 53.2543 133.107 53.2543H134.167C134.294 53.2543 134.379 53.1695 134.421 53.0422L135.1 50.2008C135.227 49.8191 135.482 49.5647 135.906 49.5647H136.754V53.0422C136.754 53.1695 136.839 53.2543 137.008 53.2543H138.026C138.196 53.2543 138.281 53.1695 138.281 53.0422V48.6317V48.6317ZM151.046 50.7097C150.961 50.5825 150.791 50.5825 150.707 50.7097L150.282 51.1338L149.774 50.6249C149.222 50.116 148.925 49.9464 148.925 49.7343C148.925 49.5647 149.095 49.395 149.349 49.395C149.604 49.395 149.774 49.5647 149.858 49.7343C149.986 49.8615 150.113 49.9888 150.282 49.9888H151.173C151.343 49.9888 151.428 49.9039 151.428 49.7343C151.428 49.0134 150.664 48.25 149.349 48.25C148.035 48.25 147.314 48.9709 147.314 49.6495C147.314 50.2856 147.78 50.5401 147.78 50.5401V50.6249C147.78 50.6249 146.678 50.9218 146.678 51.9396C146.678 52.7454 147.314 53.4239 148.544 53.4239C149.519 53.4239 150.028 52.8726 150.028 52.8726H150.113L150.282 53.0422C150.41 53.1695 150.537 53.2543 150.791 53.2543H152.106C152.276 53.2543 152.36 53.127 152.276 53.0422L151.173 51.9396L151.597 51.5155C151.682 51.4307 151.682 51.3034 151.597 51.1762L151.046 50.7097V50.7097ZM148.713 52.2789C148.459 52.2789 148.289 52.1092 148.289 51.8972C148.289 51.5579 148.586 51.3883 148.586 51.3883L149.265 52.0244C149.265 52.0244 149.053 52.2789 148.713 52.2789ZM164.956 48.6317C164.956 48.5045 164.829 48.4196 164.702 48.4196H160.8C160.673 48.4196 160.545 48.5045 160.545 48.6317V53.0422C160.545 53.1695 160.673 53.2543 160.8 53.2543H161.86C161.987 53.2543 162.115 53.1695 162.115 53.0422V49.5647H164.702C164.829 49.5647 164.956 49.4799 164.956 49.3526V48.6317ZM171.953 50.4977V53.0422C171.953 53.1695 172.038 53.2543 172.166 53.2543H173.226C173.353 53.2543 173.48 53.1695 173.48 53.0422V48.6317C173.48 48.5045 173.353 48.4196 173.226 48.4196H172.038C171.869 48.4196 171.741 48.5469 171.657 48.6317L169.918 51.1762H169.833V48.6317C169.833 48.5045 169.748 48.4196 169.621 48.4196H168.561C168.434 48.4196 168.306 48.5045 168.306 48.6317V53.0422C168.306 53.1695 168.434 53.2543 168.561 53.2543H169.748C169.918 53.2543 170.045 53.127 170.13 53.0422L171.869 50.4977H171.953ZM181.835 48.6317C181.835 48.5045 181.708 48.4196 181.58 48.4196H177.127C177 48.4196 176.873 48.5045 176.873 48.6317V49.3526C176.873 49.4799 177 49.5647 177.127 49.5647H178.569V53.0422C178.569 53.1695 178.697 53.2543 178.824 53.2543H179.884C180.011 53.2543 180.138 53.1695 180.138 53.0422V49.5647H181.58C181.708 49.5647 181.835 49.4799 181.835 49.3526V48.6317V48.6317ZM189.002 53.0422C189.087 53.1695 189.172 53.2543 189.341 53.2543H190.529C190.656 53.2543 190.741 53.1695 190.698 53.0422L188.747 48.6317C188.663 48.5045 188.578 48.4196 188.408 48.4196H187.009C186.839 48.4196 186.754 48.5045 186.669 48.6317L184.719 53.0422C184.676 53.1695 184.761 53.2543 184.888 53.2543H186.033C186.161 53.2543 186.288 53.1695 186.33 53.0422L186.585 52.4061H188.747L189.002 53.0422V53.0422ZM187.645 49.8615H187.73L188.281 51.261H187.051L187.645 49.8615V49.8615ZM199.095 50.1584C199.095 49.183 198.332 48.4196 196.678 48.4196H194.261C194.091 48.4196 194.006 48.5045 194.006 48.6317V53.0422C194.006 53.1695 194.091 53.2543 194.261 53.2543H195.278C195.448 53.2543 195.533 53.1695 195.533 53.0422V51.9396H196.678C198.332 51.9396 199.095 51.1762 199.095 50.1584ZM195.533 50.837V49.5223H196.678C197.229 49.5223 197.484 49.7767 197.484 50.1584C197.484 50.5401 197.229 50.837 196.678 50.837H195.533V50.837ZM206.347 53.0422C206.39 53.1695 206.517 53.2543 206.644 53.2543H207.832C208.001 53.2543 208.086 53.1695 208.001 53.0422L206.05 48.6317C206.008 48.5045 205.881 48.4196 205.754 48.4196H204.312C204.184 48.4196 204.1 48.5045 204.015 48.6317L202.064 53.0422C202.022 53.1695 202.106 53.2543 202.234 53.2543H203.336C203.506 53.2543 203.633 53.1695 203.675 53.0422L203.93 52.4061H206.093L206.347 53.0422V53.0422ZM204.99 49.8615H205.075L205.626 51.261H204.396L204.99 49.8615Z" fill="#B42C2F"/>
<path fill-rule="evenodd" clip-rule="evenodd" d="M103.946 34.7977V33.4406L106.66 30.684H110.731V34.7977H103.946ZM103.946 41.6256V37.5119H110.731V41.6256H113.446V27.9698H105.303L101.189 32.0835V41.6256H103.946ZM118.153 34.7977V30.684H124.938V34.7977H118.153ZM118.153 41.6256V37.5119H126.296L127.653 36.1548V29.3269L126.296 27.9698H115.396V41.6256H118.153V41.6256ZM136.346 41.6256V30.684H141.096V27.9698H128.84V30.684H133.59V41.6256H136.346V41.6256ZM152.971 41.6256V36.1548H159.799V41.6256H162.513V27.9698H159.799V33.4406H152.971V27.9698H150.257V41.6256H152.971ZM167.178 38.869V30.684H174.006V38.869H167.178ZM175.363 41.6256L176.678 40.2685V29.3269L175.363 27.9698H165.778L164.464 29.3269V40.2685L165.778 41.6256H175.363V41.6256ZM181.385 38.869V36.1548H188.17V38.869H181.385ZM181.385 33.4406V30.684H188.17V33.4406H181.385ZM189.527 41.6256L190.885 40.2685V36.1548L189.527 34.7977L190.885 33.4406V29.3269L189.527 27.9698H178.628V41.6256H189.527ZM195.38 34.7977V33.4406L198.094 30.684H202.208V34.7977H195.38V34.7977ZM195.38 41.6256V37.5119H202.208V41.6256H204.88V27.9698H196.737L192.666 32.0835V41.6256H195.38V41.6256Z" fill="#B42C2F"/>
<path fill-rule="evenodd" clip-rule="evenodd" d="M8.01724 36.4789C5.54271 36.4789 3.52856 38.5218 3.52856 40.9963V52.8223C3.52856 55.2968 5.54271 57.311 8.01724 57.311V36.4789Z" fill="#B42C2F"/>
<path fill-rule="evenodd" clip-rule="evenodd" d="M16.2178 57.8577C16.2178 58.836 15.4121 59.6416 14.4338 59.6416H11.5564C10.5781 59.6416 9.77246 58.836 9.77246 57.8577V35.961C9.77246 34.9539 10.5781 34.177 11.5564 34.177H14.4338C15.4121 34.177 16.2178 34.9539 16.2178 35.961V57.8577Z" fill="#B42C2F"/>
<path fill-rule="evenodd" clip-rule="evenodd" d="M52.9904 57.311C55.4937 57.311 57.5078 55.2968 57.5078 52.8223V40.9963C57.5078 38.5218 55.4937 36.4789 52.9904 36.4789V57.311Z" fill="#B42C2F"/>
<path fill-rule="evenodd" clip-rule="evenodd" d="M44.7899 35.961C44.7899 34.9539 45.5956 34.177 46.6026 34.177H49.48C50.4583 34.177 51.264 34.9539 51.264 35.961V57.8577C51.264 58.836 50.4583 59.6416 49.48 59.6416H46.6026C45.5956 59.6416 44.7899 58.836 44.7899 57.8577V35.961Z" fill="#B42C2F"/>
<path fill-rule="evenodd" clip-rule="evenodd" d="M30.5182 0.799683C13.7144 0.799683 0.0181885 12.2803 0.0181885 26.3794V50.8369H1.77338V26.3794C1.77338 25.4586 1.8597 24.5667 1.97479 23.7035H4.93847L5.05357 23.128C7.01017 13.086 17.9441 5.51855 30.5182 5.51855C43.0922 5.51855 54.055 13.086 55.9828 23.128L56.0979 23.7035H59.0903C59.2054 24.5667 59.2918 25.4586 59.2918 26.3794V50.8369H61.0182V26.3794C61.0182 12.2803 47.3507 0.799683 30.5182 0.799683Z" fill="#B42C2F"/>
</svg>
