<svg width="48" height="61" viewBox="0 0 48 61" fill="none" xmlns="http://www.w3.org/2000/svg">
<path d="M24.3307 0.367554C11.4646 0.367554 0.997375 10.8348 0.997375 23.7009C0.997375 29.9509 4.78393 37.9771 12.2518 47.5554C15.6732 51.9325 19.3783 56.08 23.3433 59.9714C23.6092 60.2257 23.9629 60.3676 24.3307 60.3676C24.6986 60.3676 25.0523 60.2257 25.3181 59.9714C29.2831 56.08 32.9883 51.9325 36.4097 47.5554C43.8775 37.9771 47.6641 29.9509 47.6641 23.7009C47.6641 10.8348 37.1968 0.367554 24.3307 0.367554ZM24.3307 40.3676C15.1402 40.3676 7.66405 32.8914 7.66405 23.7009C7.66405 14.5104 15.1402 7.03422 24.3307 7.03422C33.5212 7.03422 40.9974 14.5104 40.9974 23.7009C40.9974 32.8914 33.5212 40.3676 24.3307 40.3676Z" fill="#B42C2F"/>
<path fill-rule="evenodd" clip-rule="evenodd" d="M14.3156 24.6822C13.2142 24.6822 12.3177 25.5915 12.3177 26.6929V31.9566C12.3177 33.058 13.2142 33.9545 14.3156 33.9545V24.6822V24.6822Z" fill="#B42C2F"/>
<path fill-rule="evenodd" clip-rule="evenodd" d="M17.9657 34.1979C17.9657 34.6333 17.6071 34.9919 17.1716 34.9919H15.8909C15.4555 34.9919 15.0969 34.6333 15.0969 34.1979V24.4517C15.0969 24.0034 15.4555 23.6576 15.8909 23.6576H17.1716C17.6071 23.6576 17.9657 24.0034 17.9657 24.4517V34.1979Z" fill="#B42C2F"/>
<path fill-rule="evenodd" clip-rule="evenodd" d="M34.333 33.9545C35.4473 33.9545 36.3438 33.058 36.3438 31.9566V26.6929C36.3438 25.5915 35.4473 24.6822 34.333 24.6822V33.9545V33.9545Z" fill="#B42C2F"/>
<path fill-rule="evenodd" clip-rule="evenodd" d="M30.683 24.4517C30.683 24.0034 31.0416 23.6576 31.4899 23.6576H32.7706C33.206 23.6576 33.5646 24.0034 33.5646 24.4517V34.1979C33.5646 34.6333 33.206 34.9919 32.7706 34.9919H31.4899C31.0416 34.9919 30.683 34.6333 30.683 34.1979V24.4517Z" fill="#B42C2F"/>
<path fill-rule="evenodd" clip-rule="evenodd" d="M24.3307 8.80142C16.8514 8.80142 10.7552 13.9114 10.7552 20.1869V31.0729H11.5365V20.1869C11.5365 19.7771 11.5749 19.3801 11.6261 18.9959H12.9452L12.9965 18.7397C13.8673 14.27 18.734 10.9018 24.3307 10.9018C29.9274 10.9018 34.8069 14.27 35.665 18.7397L35.7162 18.9959H37.0482C37.0994 19.3801 37.1378 19.7771 37.1378 20.1869V31.0729H37.9062V20.1869C37.9062 13.9114 31.8229 8.80142 24.3307 8.80142Z" fill="#B42C2F"/>
</svg>
