<svg width="19" height="16" viewBox="0 0 19 16" fill="none" xmlns="http://www.w3.org/2000/svg">
<g clip-path="url(#clip0)">
<path d="M5.6497 3.30645C5.36863 2.35425 4.6057 2.45861 4.08407 2.9021C2.79911 4.08905 1.12599 6.58038 2.1968 10.1677C3.09359 13.2069 6.82514 15.1504 6.82514 15.1504H2.47514C2.47514 15.1504 0.229052 12.633 0.028266 9.67211C-0.22604 5.92865 1.2732 3.56774 3.01325 2.02865C4.64621 0.580811 6.19888 0.150391 6.19888 0.150391L9.37497 10.5566L12.5511 0.150391C12.5511 0.150391 14.1037 0.580812 15.7367 2.02865C17.4767 3.56773 18.976 5.92865 18.7217 9.67211C18.5209 12.633 16.2748 15.1504 16.2748 15.1504H11.9248C11.9248 15.1504 15.6561 13.2069 16.5532 10.1677C17.624 6.58079 15.9508 4.08946 14.6659 2.9021C14.1439 2.45861 13.3809 2.35425 13.1003 3.30645C12.1365 6.34558 9.37537 15.0533 9.37537 15.0533C9.37537 15.0533 6.61421 6.34267 5.65049 3.30645H5.6497Z" fill="#2877ED"/>
</g>
<defs>
<clipPath id="clip0">
<rect width="18.75" height="15" fill="white" transform="translate(0 0.150391)"/>
</clipPath>
</defs>
</svg>
