<svg width="160" height="283" viewBox="0 0 160 283" fill="none" xmlns="http://www.w3.org/2000/svg">
<g clip-path="url(#clip0)">
<path d="M25.5375 160.354L107.214 254.055L115.209 247.086L249.982 129.608L257.977 122.639L176.301 28.938L25.5375 160.354ZM30.6163 160.702L175.953 34.0166L222.581 87.509L217.299 92.1131L193.718 65.0601L58.9447 182.538L82.526 209.591L77.2441 214.195L30.6163 160.702ZM83.2951 189.964L92.6845 200.736L85.2396 207.225L64.0236 182.886L69.9191 177.747L81.7457 191.315L83.2951 189.964ZM86.0086 187.599L87.5581 186.248L75.7315 172.68L80.0776 168.892L91.9042 182.46L93.4536 181.109L102.843 191.881L95.3981 198.37L86.0086 187.599ZM96.1671 178.744L97.7166 177.393L85.89 163.826L91.7855 158.687L113.002 183.026L105.557 189.516L96.1671 178.744ZM94.4987 156.322L100.394 151.183L112.221 164.75L113.77 163.4L123.16 174.172L115.715 180.661L94.4987 156.322ZM116.484 161.034L118.033 159.684L106.207 146.116L110.553 142.328L122.379 155.896L123.929 154.545L133.318 165.317L125.873 171.806L116.484 161.034ZM126.642 152.18L128.192 150.829L116.365 137.261L120.711 133.473L132.538 147.041L134.087 145.69L143.477 156.462L136.032 162.951L126.642 152.18ZM136.801 143.325L138.35 141.974L126.524 128.406L132.419 123.268L153.635 147.607L146.19 154.096L136.801 143.325ZM135.132 120.902L141.028 115.764L152.854 129.331L154.404 127.981L163.793 138.752L156.348 145.242L135.132 120.902ZM157.117 125.615L158.667 124.265L146.84 110.697L151.186 106.909L163.013 120.477L164.562 119.126L173.951 129.898L166.507 136.387L157.117 125.616L157.117 125.615ZM167.276 116.761L168.825 115.41L156.998 101.842L162.894 96.7035L184.11 121.043L176.665 127.533L167.276 116.761ZM165.608 94.3379L171.503 89.1989L183.33 102.767L184.879 101.416L194.268 112.188L186.824 118.677L165.608 94.3379ZM187.593 99.051L189.142 97.7005L177.315 84.1327L181.661 80.3444L193.488 93.9121L195.038 92.5615L204.427 103.333L196.982 109.823L187.593 99.051ZM197.751 90.1962L199.3 88.8459L187.474 75.2782L193.369 70.1392L214.585 94.4787L207.14 100.968L197.751 90.1962ZM225.356 127.343L234.745 138.115L227.3 144.604L206.084 120.265L211.98 115.126L223.806 128.694L225.356 127.343ZM224.586 146.97L217.142 153.459L207.752 142.687L209.302 141.337L197.475 127.769L203.37 122.63L224.586 146.97ZM205.039 145.052L214.428 155.824L206.983 162.314L197.594 151.542L199.143 150.192L187.316 136.624L191.663 132.836L203.489 146.403L205.039 145.052ZM194.88 153.908L204.269 164.679L196.825 171.169L187.435 160.397L188.985 159.047L177.158 145.479L181.504 141.69L193.331 155.258L194.88 153.908ZM184.722 162.762L194.111 173.534L186.666 180.023L165.45 155.684L171.346 150.545L183.172 164.113L184.722 162.762ZM183.953 182.389L176.508 188.878L167.119 178.106L168.668 176.756L156.842 163.188L162.737 158.049L183.953 182.389ZM164.405 180.472L173.795 191.243L166.35 197.733L156.96 186.961L158.51 185.611L146.683 172.043L151.029 168.254L162.856 181.822L164.405 180.472ZM154.247 189.326L163.636 200.098L156.191 206.588L134.975 182.248L140.871 177.109L152.697 190.677L154.247 189.326ZM153.478 208.953L146.033 215.443L136.643 204.671L138.193 203.32L126.366 189.753L132.262 184.614L153.478 208.953ZM133.93 207.036L143.319 217.808L135.875 224.297L126.485 213.525L128.035 212.175L116.208 198.607L120.554 194.819L132.381 208.386L133.93 207.036ZM123.772 215.891L133.161 226.662L125.716 233.152L116.327 222.38L117.876 221.03L106.05 207.462L110.396 203.674L122.222 217.241L123.772 215.891ZM113.613 224.746L123.003 235.517L115.558 242.007L94.3416 217.667L100.237 212.528L112.064 226.096L113.613 224.746ZM237.458 135.749L228.069 124.978L229.618 123.627L217.792 110.06L223.687 104.921L244.903 129.26L237.458 135.749ZM89.2627 217.319L112.844 244.372L107.562 248.976L79.6094 216.908L224.946 90.2226L252.899 122.291L247.617 126.895L224.036 99.8416L89.2627 217.319Z" fill="white"/>
<path d="M173.206 41.5295L38.4335 159.007L55.4939 178.579L190.266 61.1017L173.206 41.5295ZM185.188 60.7538L55.8424 173.5L43.5123 159.355L172.858 46.6084L185.188 60.7538Z" fill="white"/>
<path d="M54.8427 154.226L50.5309 157.985L52.8962 160.698L57.208 156.94L54.8427 154.226Z" fill="white"/>
<path d="M60.1043 160.262L55.7925 164.021L58.1578 166.734L62.4696 162.976L60.1043 160.262Z" fill="white"/>
<path d="M64.0986 146.158L59.7867 149.916L62.1521 152.63L66.4639 148.872L64.0986 146.158Z" fill="white"/>
<path d="M69.3602 152.194L65.0483 155.953L67.4137 158.666L71.7255 154.908L69.3602 152.194Z" fill="white"/>
<path d="M73.3544 138.09L69.0426 141.848L71.4079 144.562L75.7197 140.803L73.3544 138.09Z" fill="white"/>
<path d="M78.6161 144.126L74.3043 147.885L76.6696 150.598L80.9815 146.84L78.6161 144.126Z" fill="white"/>
<path d="M82.6103 130.022L78.2985 133.78L80.6638 136.494L84.9756 132.735L82.6103 130.022Z" fill="white"/>
<path d="M87.872 136.058L83.5602 139.817L85.9255 142.53L90.2373 138.772L87.872 136.058Z" fill="white"/>
<path d="M91.8664 121.954L87.5546 125.712L89.9199 128.426L94.2317 124.667L91.8664 121.954Z" fill="white"/>
<path d="M97.1279 127.99L92.816 131.748L95.1813 134.462L99.4932 130.704L97.1279 127.99Z" fill="white"/>
<path d="M141.403 94.9309C144.054 92.6208 144.331 88.5854 142.02 85.9349C139.71 83.2848 135.675 83.0082 133.025 85.3185C130.375 87.6285 130.098 91.6637 132.408 94.3138C134.718 96.9639 138.753 97.2409 141.403 94.9309ZM135.39 88.032C136.544 87.0262 138.301 87.1467 139.307 88.3003C140.313 89.4542 140.192 91.2115 139.038 92.2173C137.885 93.2229 136.127 93.1024 135.121 91.9485C134.116 90.7949 134.236 89.0379 135.39 88.032Z" fill="white"/>
<path d="M157.646 80.7733C160.296 78.4632 160.572 74.4281 158.262 71.7776C155.952 69.1275 151.917 68.8508 149.267 71.1609C146.617 73.4709 146.34 77.5063 148.65 80.1564C150.96 82.8066 154.995 83.0833 157.646 80.7733ZM151.632 73.8744C152.786 72.8689 154.543 72.9893 155.548 74.1429C156.554 75.2969 156.434 77.0542 155.28 78.0597C154.126 79.0656 152.369 78.9451 151.363 77.7911C150.358 76.6375 150.478 74.8803 151.632 73.8744Z" fill="white"/>
<path d="M123.575 94.3139L97.4984 117.044L105.126 125.794L131.202 103.064L123.575 94.3139ZM126.123 102.715L105.474 120.715L102.577 117.392L123.227 99.3924L126.123 102.715Z" fill="white"/>
</g>
<defs>
<clipPath id="clip0">
<rect width="200" height="200" fill="white" transform="translate(0.667603 131.823) rotate(-41.0777)"/>
</clipPath>
</defs>
</svg>
