<svg width="109" height="151" viewBox="0 0 109 151" fill="none" xmlns="http://www.w3.org/2000/svg">
<g clip-path="url(#clip0)">
<path d="M116.566 8.983C115.779 6.34591 111.574 4.19079 104.031 2.5675C96.4501 0.936508 86.3904 0.0378418 75.7044 0.0378418C65.0185 0.0378418 54.9588 0.936508 47.3775 2.56783C39.8354 4.19079 35.6303 6.34591 34.8424 8.983C31.6403 10.4811 30.0177 12.2296 30.0177 14.1862C30.0177 14.4694 30.2068 19.8015 30.3594 22.1675C31.4074 38.4024 35.9051 53.6737 43.2882 65.3463C47.412 71.8659 52.2025 76.9784 57.4242 80.541L51.9191 143.239C51.8709 143.784 52.1597 144.303 52.6474 144.551C59.8661 148.209 67.7855 150.038 75.7044 150.038C83.6234 150.038 91.5424 148.209 98.7615 144.551C99.2492 144.303 99.5377 143.784 99.4898 143.239L93.9847 80.542C99.207 76.9794 103.998 71.8666 108.121 65.3466C115.504 53.6747 120.001 38.4034 121.049 22.1678C121.201 19.8021 121.391 14.4697 121.391 14.1862C121.391 12.2296 119.768 10.4815 116.566 8.983ZM47.9412 5.18518C55.3424 3.59268 65.2023 2.71543 75.7044 2.71543C86.2066 2.71543 96.0665 3.59268 103.468 5.18518C111.82 6.98284 114.027 9.06266 114.027 9.91146C114.027 10.7603 111.82 12.8404 103.468 14.6377C96.0668 16.2306 86.207 17.1075 75.7044 17.1075C65.2023 17.1075 55.3424 16.2306 47.9412 14.6377C39.5884 12.8404 37.3814 10.7603 37.3814 9.91146C37.3814 9.06266 39.5884 6.98284 47.9412 5.18518ZM96.1833 136.2C89.8033 139.182 82.7445 140.757 75.7041 140.757C68.6637 140.757 61.6049 139.181 55.2249 136.2L59.1305 91.7182C64.3809 94.0169 70.0417 95.1707 75.7041 95.1707C81.3662 95.1707 87.0273 94.0169 92.2777 91.7179L96.1833 136.2ZM54.6663 142.562L54.9765 139.029C61.4744 141.913 68.5981 143.435 75.7041 143.435C82.8101 143.435 89.9342 141.913 96.4317 139.029L96.7419 142.562C83.5019 148.96 67.9063 148.96 54.6663 142.562ZM92.0297 88.8927C81.7504 93.6916 69.6574 93.6916 59.3785 88.8927L59.9716 82.1371C64.9382 84.9747 70.2435 86.4574 75.7041 86.4574C81.1647 86.4574 86.4704 84.9751 91.4366 82.1378L92.0297 88.8927ZM75.7041 83.7798C52.6976 83.7798 33.8651 54.6714 32.8449 18.2756C40.2916 23.1843 60.9047 25.067 75.7041 25.067C90.5035 25.067 111.116 23.1843 118.563 18.2756C117.543 54.6714 98.71 83.7798 75.7041 83.7798ZM106.781 19.6251C98.4958 21.4074 87.4594 22.3894 75.7041 22.3894C63.9488 22.3894 52.9124 21.4074 44.627 19.6251C35.2079 17.5985 32.6953 15.2529 32.6953 14.1859C32.6953 13.6313 33.3995 12.7447 35.2685 11.76C36.6782 13.9817 40.7324 15.8253 47.3779 17.2554C54.9588 18.8864 65.0185 19.7851 75.7044 19.7851C86.3907 19.7851 96.4504 18.8864 104.031 17.2554C110.676 15.8253 114.731 13.9824 116.14 11.7603C118.009 12.745 118.713 13.6313 118.713 14.1859C118.713 15.2529 116.2 17.5988 106.781 19.6251Z" fill="#EEE6E6"/>
</g>
<defs>
<clipPath id="clip0">
<rect width="150" height="150" fill="white" transform="translate(0.704102 0.0378418)"/>
</clipPath>
</defs>
</svg>
