<svg width="96" height="151" viewBox="0 0 96 151" fill="none" xmlns="http://www.w3.org/2000/svg">
<g clip-path="url(#clip0)">
<path d="M71.4187 97.2952L37.511 38.5564C34.7071 33.6981 29.8455 30.6599 24.3307 30.2401V19.6486C24.3307 18.9173 23.7379 18.3245 23.0066 18.3245C22.2753 18.3245 21.6825 18.9173 21.6825 19.6486V30.2414C16.1733 30.6652 11.3174 33.7024 8.51613 38.5561L-29.2916 104.038C-32.3166 109.278 -32.3159 115.536 -29.2899 120.777C-26.2636 126.018 -20.8445 129.148 -14.7938 129.148H-5.59199L-26.7293 164.959L-21.0276 168.324L2.096 129.148H54.7931C55.5243 129.148 56.1172 128.555 56.1172 127.823V118.885C56.1172 118.154 55.5243 117.561 54.7931 117.561H8.93456L17.0307 103.844C17.3846 103.974 17.758 104.048 18.1367 104.048C19.2735 104.048 20.3384 103.441 20.9158 102.462L36.8194 75.5173C37.7232 73.986 37.2127 72.0047 35.6813 71.1006L30.9816 68.3265C30.485 68.0336 29.919 67.8787 29.3446 67.8787C28.2078 67.8787 27.1429 68.4864 26.5652 69.4647L10.6616 96.4094C10.2236 97.1512 10.1008 98.0192 10.3156 98.8538C10.4812 99.497 10.834 100.059 11.326 100.484L1.24623 117.561H-13.8841C-15.9366 117.561 -17.7745 116.5 -18.8013 114.722C-19.8282 112.944 -19.8282 110.821 -18.802 109.044L18.0957 45.1368C19.1219 43.3578 20.9601 42.2958 23.0132 42.2958C25.0663 42.2958 26.9046 43.3578 27.9311 45.1371L61.5545 103.37C61.7343 103.681 62.0332 103.906 62.3821 103.993C62.731 104.079 63.1004 104.02 63.405 103.829L70.9758 99.0789C71.5793 98.7002 71.7749 97.9123 71.4187 97.2952ZM-21.9627 164.698L-23.1028 164.025L13.579 101.877L14.7194 102.55L-21.9627 164.698ZM53.4686 120.21V126.499H3.65883L7.37107 120.21H53.4686ZM12.9421 97.756L28.8458 70.8113C28.9507 70.6335 29.1371 70.5273 29.3446 70.5273C29.4476 70.5273 29.5456 70.5544 29.6356 70.6074L34.335 73.3811C34.6091 73.5427 34.7005 73.8976 34.5386 74.1713L18.6349 101.116C18.478 101.382 18.1178 101.481 17.8451 101.32L13.1453 98.5456C12.9666 98.4403 12.9027 98.2794 12.8802 98.1933C12.8577 98.1073 12.8365 97.9351 12.9421 97.756ZM63.161 100.856L30.2249 43.8133C28.7203 41.2047 26.0243 39.6475 23.0132 39.6475C20.0021 39.6475 17.3065 41.2047 15.8019 43.813L-21.0954 107.72C-22.6 110.326 -22.6 113.439 -21.0948 116.046C-19.5895 118.653 -16.8939 120.21 -13.8841 120.21H-0.316925L-4.02917 126.499H-14.7941C-19.8875 126.499 -24.4492 123.865 -26.9965 119.453C-29.5438 115.041 -29.5445 109.773 -26.9982 105.363L10.8096 39.8799C13.1318 35.8562 17.132 33.3184 21.6825 32.9013V35.8664C21.6825 36.5977 22.2753 37.1906 23.0066 37.1906C23.7379 37.1906 24.3307 36.5977 24.3307 35.8664V32.9C28.8868 33.3131 32.8927 35.8519 35.2176 39.8802L68.4874 97.5141L63.161 100.856Z" fill="#EEE6E6"/>
</g>
<defs>
<clipPath id="clip0">
<rect width="150" height="150" fill="white" transform="translate(-54.9818 0.289856)"/>
</clipPath>
</defs>
</svg>
