<svg width="1343" height="47" viewBox="0 0 1343 47" fill="none" xmlns="http://www.w3.org/2000/svg">
<path fill-rule="evenodd" clip-rule="evenodd" d="M488.275 48.5847V1.73305C488.275 0.750947 487.408 0 486.311 0C485.271 0 484.347 0.750947 484.347 1.73305V48.5847H488.275ZM139.111 48.5847V24.7834C139.111 23.859 138.244 23.0503 137.147 23.0503C136.049 23.0503 135.182 23.859 135.182 24.7834V48.5847H139.111ZM132.005 48.5847V10.803C132.005 9.87873 131.081 9.07 130.041 9.07C128.943 9.07 128.077 9.87873 128.077 10.803V48.5847H132.005ZM124.841 48.5847V9.18565C124.841 8.26133 123.975 7.45226 122.877 7.45226C121.837 7.45226 120.913 8.26133 120.913 9.18565V48.5847H124.841ZM117.736 48.5847V1.73305C117.736 0.750947 116.869 0 115.771 0C114.732 0 113.807 0.750947 113.807 1.73305V48.5847H117.736ZM110.63 48.5847V18.7175C110.63 17.7932 109.763 16.9845 108.666 16.9845C107.568 16.9845 106.702 17.7932 106.702 18.7175V48.5847H110.63ZM103.524 48.5847V15.7134C103.524 14.7313 102.658 13.9803 101.56 13.9803C100.462 13.9803 99.5964 14.7313 99.5964 15.7134V48.5847H103.524ZM96.4188 48.5847V24.7834C96.4188 23.859 95.5522 23.0503 94.4546 23.0503C93.357 23.0503 92.4904 23.859 92.4904 24.7834V48.5847H96.4188ZM89.313 48.5847V33.1023C89.313 32.178 88.3887 31.3693 87.3488 31.3693C86.2512 31.3693 85.3847 32.178 85.3847 33.1023V48.5847H89.313ZM82.1495 48.5847V19.3529C82.1495 18.3708 81.283 17.6199 80.1853 17.6199C79.1454 17.6199 78.2211 18.3708 78.2211 19.3529V48.5847H82.1495ZM75.0438 48.5847V17.3311C75.0438 16.349 74.1772 15.5981 73.0796 15.5981C72.0397 15.5981 71.1154 16.349 71.1154 17.3311V48.5847H75.0438ZM67.938 48.5847V15.078C67.938 14.1536 67.0714 13.3449 65.9738 13.3449C64.8762 13.3449 64.0096 14.1536 64.0096 15.078V48.5847H67.938ZM60.8322 48.5847V13.2293C60.8322 12.3049 59.9657 11.4962 58.868 11.4962C57.7704 11.4962 56.9038 12.3049 56.9038 13.2293V48.5847H60.8322ZM53.7265 48.5847V25.1878C53.7265 24.2635 52.8021 23.4547 51.7623 23.4547C50.6646 23.4547 49.7981 24.2635 49.7981 25.1878V48.5847H53.7265ZM46.6207 48.5847V29.8672C46.6207 28.9428 45.6964 28.1341 44.6565 28.1341C43.5589 28.1341 42.6923 28.9428 42.6923 29.8672V48.5847H46.6207ZM39.4572 48.5847V4.56374C39.4572 3.58164 38.5906 2.8307 37.493 2.8307C36.4531 2.8307 35.5288 3.58164 35.5288 4.56374V48.5847H39.4572ZM32.3514 48.5847V13.2293C32.3514 12.3049 31.4849 11.4962 30.3872 11.4962C29.3474 11.4962 28.423 12.3049 28.423 13.2293V48.5847H32.3514ZM25.2457 48.5847V9.58973C25.2457 8.66541 24.3791 7.85669 23.2815 7.85669C22.1838 7.85669 21.3173 8.66541 21.3173 9.58973V48.5847H25.2457ZM18.1399 48.5847V5.54609C18.1399 4.62176 17.2733 3.8127 16.1757 3.8127C15.0781 3.8127 14.2115 4.62176 14.2115 5.54609V48.5847H18.1399ZM11.0341 48.5847V9.01217C11.0341 8.03008 10.1098 7.27913 9.06995 7.27913C7.97232 7.27913 7.10576 8.03008 7.10576 9.01217V48.5847H11.0341ZM3.92839 48.5847V1.73305C3.92839 0.750947 3.00406 0 1.9642 0C0.866558 0 0 0.750947 0 1.73305V48.5847H3.92839ZM142.577 48.5847V24.7834C142.577 23.859 143.443 23.0503 144.541 23.0503C145.639 23.0503 146.505 23.859 146.505 24.7834V48.5847H142.577ZM149.683 48.5847V10.803C149.683 9.87873 150.549 9.07 151.647 9.07C152.745 9.07 153.611 9.87873 153.611 10.803V48.5847H149.683ZM156.788 48.5847V9.18565C156.788 8.26133 157.655 7.45226 158.753 7.45226C159.85 7.45226 160.717 8.26133 160.717 9.18565V48.5847H156.788ZM163.894 48.5847V1.73305C163.894 0.750947 164.819 0 165.858 0C166.956 0 167.823 0.750947 167.823 1.73305V48.5847H163.894ZM171.058 48.5847V18.7175C171.058 17.7932 171.924 16.9845 173.022 16.9845C174.062 16.9845 174.986 17.7932 174.986 18.7175V48.5847H171.058ZM178.164 48.5847V15.7134C178.164 14.7313 179.03 13.9803 180.128 13.9803C181.168 13.9803 182.092 14.7313 182.092 15.7134V48.5847H178.164ZM185.269 48.5847V24.7834C185.269 23.859 186.136 23.0503 187.233 23.0503C188.331 23.0503 189.198 23.859 189.198 24.7834V48.5847H185.269ZM192.375 48.5847V33.1023C192.375 32.178 193.242 31.3693 194.339 31.3693C195.437 31.3693 196.303 32.178 196.303 33.1023V48.5847H192.375ZM199.481 48.5847V19.3529C199.481 18.3708 200.405 17.6199 201.445 17.6199C202.543 17.6199 203.409 18.3708 203.409 19.3529V48.5847H199.481ZM345.64 48.5847V24.7834C345.64 23.859 344.773 23.0503 343.676 23.0503C342.578 23.0503 341.712 23.859 341.712 24.7834V48.5847H345.64ZM338.534 48.5847V10.803C338.534 9.87873 337.61 9.07 336.57 9.07C335.472 9.07 334.606 9.87873 334.606 10.803V48.5847H338.534ZM331.428 48.5847V9.18565C331.428 8.26133 330.504 7.45226 329.464 7.45226C328.367 7.45226 327.442 8.26133 327.442 9.18565V48.5847H331.428ZM324.265 48.5847V1.73305C324.265 0.750947 323.398 0 322.301 0C321.261 0 320.336 0.750947 320.336 1.73305V48.5847H324.265ZM317.159 48.5847V18.7175C317.159 17.7932 316.293 16.9845 315.195 16.9845C314.097 16.9845 313.231 17.7932 313.231 18.7175V48.5847H317.159ZM310.053 48.5847V15.7134C310.053 14.7313 309.187 13.9803 308.089 13.9803C306.992 13.9803 306.125 14.7313 306.125 15.7134V48.5847H310.053ZM302.948 48.5847V24.7834C302.948 23.859 302.081 23.0503 300.983 23.0503C299.886 23.0503 299.019 23.859 299.019 24.7834V48.5847H302.948ZM295.842 48.5847V33.1023C295.842 32.178 294.918 31.3693 293.878 31.3693C292.78 31.3693 291.913 32.178 291.913 33.1023V48.5847H295.842ZM288.678 48.5847V19.3529C288.678 18.3708 287.812 17.6199 286.714 17.6199C285.674 17.6199 284.75 18.3708 284.75 19.3529V48.5847H288.678ZM281.573 48.5847V17.3311C281.573 16.349 280.706 15.5981 279.608 15.5981C278.568 15.5981 277.644 16.349 277.644 17.3311V48.5847H281.573ZM274.467 48.5847V15.078C274.467 14.1536 273.6 13.3449 272.503 13.3449C271.405 13.3449 270.538 14.1536 270.538 15.078V48.5847H274.467ZM267.361 48.5847V13.2293C267.361 12.3049 266.494 11.4962 265.397 11.4962C264.299 11.4962 263.433 12.3049 263.433 13.2293V48.5847H267.361ZM260.255 48.5847V25.1878C260.255 24.2635 259.331 23.4547 258.291 23.4547C257.193 23.4547 256.327 24.2635 256.327 25.1878V48.5847H260.255ZM253.15 48.5847V29.8672C253.15 28.9428 252.225 28.1341 251.185 28.1341C250.088 28.1341 249.221 28.9428 249.221 29.8672V48.5847H253.15ZM245.986 48.5847V4.56374C245.986 3.58164 245.119 2.8307 244.022 2.8307C242.982 2.8307 242.058 3.58164 242.058 4.56374V48.5847H245.986ZM238.88 48.5847V13.2293C238.88 12.3049 238.014 11.4962 236.916 11.4962C235.876 11.4962 234.952 12.3049 234.952 13.2293V48.5847H238.88ZM231.774 48.5847V9.58973C231.774 8.66541 230.908 7.85669 229.81 7.85669C228.713 7.85669 227.846 8.66541 227.846 9.58973V48.5847H231.774ZM224.669 48.5847V5.54609C224.669 4.62176 223.802 3.8127 222.705 3.8127C221.607 3.8127 220.74 4.62176 220.74 5.54609V48.5847H224.669ZM217.563 48.5847V9.01217C217.563 8.03008 216.639 7.27913 215.599 7.27913C214.501 7.27913 213.635 8.03008 213.635 9.01217V48.5847H217.563ZM210.457 48.5847V1.73305C210.457 0.750947 209.533 0 208.493 0C207.395 0 206.529 0.750947 206.529 1.73305V48.5847H210.457ZM349.106 48.5847V24.7834C349.106 23.859 349.973 23.0503 351.07 23.0503C352.168 23.0503 353.035 23.859 353.035 24.7834V48.5847H349.106ZM356.212 48.5847V10.803C356.212 9.87873 357.078 9.07 358.176 9.07C359.274 9.07 360.14 9.87873 360.14 10.803V48.5847H356.212ZM363.318 48.5847V9.18565C363.318 8.26133 364.184 7.45226 365.282 7.45226C366.379 7.45226 367.246 8.26133 367.246 9.18565V48.5847H363.318ZM370.423 48.5847V1.73305C370.423 0.750947 371.348 0 372.388 0C373.485 0 374.352 0.750947 374.352 1.73305V48.5847H370.423ZM377.587 48.5847V18.7175C377.587 17.7932 378.453 16.9845 379.551 16.9845C380.591 16.9845 381.515 17.7932 381.515 18.7175V48.5847H377.587ZM384.693 48.5847V15.7134C384.693 14.7313 385.559 13.9803 386.657 13.9803C387.697 13.9803 388.621 14.7313 388.621 15.7134V48.5847H384.693ZM391.798 48.5847V24.7834C391.798 23.859 392.665 23.0503 393.763 23.0503C394.86 23.0503 395.727 23.859 395.727 24.7834V48.5847H391.798ZM398.904 48.5847V33.1023C398.904 32.178 399.771 31.3693 400.868 31.3693C401.966 31.3693 402.833 32.178 402.833 33.1023V48.5847H398.904ZM406.01 48.5847V19.3529C406.01 18.3708 406.934 17.6199 407.974 17.6199C409.072 17.6199 409.938 18.3708 409.938 19.3529V48.5847H406.01ZM413.116 48.5847V17.3311C413.116 16.349 414.04 15.5981 415.08 15.5981C416.178 15.5981 417.044 16.349 417.044 17.3311V48.5847H413.116ZM420.279 48.5847V15.078C420.279 14.1536 421.146 13.3449 422.243 13.3449C423.283 13.3449 424.208 14.1536 424.208 15.078V48.5847H420.279ZM427.385 48.5847V13.2293C427.385 12.3049 428.252 11.4962 429.349 11.4962C430.389 11.4962 431.313 12.3049 431.313 13.2293V48.5847H427.385ZM434.491 48.5847V25.1878C434.491 24.2635 435.357 23.4547 436.455 23.4547C437.553 23.4547 438.419 24.2635 438.419 25.1878V48.5847H434.491ZM441.597 48.5847V29.8672C441.597 28.9428 442.463 28.1341 443.561 28.1341C444.658 28.1341 445.525 28.9428 445.525 29.8672V48.5847H441.597ZM448.702 48.5847V4.56374C448.702 3.58164 449.627 2.8307 450.666 2.8307C451.764 2.8307 452.631 3.58164 452.631 4.56374V48.5847H448.702ZM455.808 48.5847V13.2293C455.808 12.3049 456.732 11.4962 457.772 11.4962C458.87 11.4962 459.736 12.3049 459.736 13.2293V48.5847H455.808ZM462.972 48.5847V9.58973C462.972 8.66541 463.838 7.85669 464.936 7.85669C465.976 7.85669 466.9 8.66541 466.9 9.58973V48.5847H462.972ZM470.077 48.5847V5.54609C470.077 4.62176 470.944 3.8127 472.042 3.8127C473.081 3.8127 474.006 4.62176 474.006 5.54609V48.5847H470.077ZM477.183 48.5847V9.01217C477.183 8.03008 478.05 7.27913 479.147 7.27913C480.245 7.27913 481.112 8.03008 481.112 9.01217V48.5847H477.183ZM833.511 48.5847V24.7834C833.511 23.859 834.378 23.0503 835.475 23.0503C836.515 23.0503 837.439 23.859 837.439 24.7834V48.5847H833.511ZM840.617 48.5847V10.803C840.617 9.87873 841.483 9.07 842.581 9.07C843.621 9.07 844.545 9.87873 844.545 10.803V48.5847H840.617ZM847.722 48.5847V9.18565C847.722 8.26133 848.589 7.45226 849.687 7.45226C850.784 7.45226 851.651 8.26133 851.651 9.18565V48.5847H847.722ZM854.828 48.5847V1.73305C854.828 0.750947 855.695 0 856.792 0C857.89 0 858.757 0.750947 858.757 1.73305V48.5847H854.828ZM861.934 48.5847V18.7175C861.934 17.7932 862.858 16.9845 863.898 16.9845C864.996 16.9845 865.862 17.7932 865.862 18.7175V48.5847H861.934ZM869.04 48.5847V15.7134C869.04 14.7313 869.964 13.9803 871.004 13.9803C872.102 13.9803 872.968 14.7313 872.968 15.7134V48.5847H869.04ZM876.203 48.5847V24.7834C876.203 23.859 877.07 23.0503 878.167 23.0503C879.207 23.0503 880.132 23.859 880.132 24.7834V48.5847H876.203ZM883.309 48.5847V33.1023C883.309 32.178 884.176 31.3693 885.273 31.3693C886.371 31.3693 887.237 32.178 887.237 33.1023V48.5847H883.309ZM890.415 48.5847V19.3529C890.415 18.3708 891.281 17.6199 892.379 17.6199C893.477 17.6199 894.343 18.3708 894.343 19.3529V48.5847H890.415ZM897.521 48.5847V17.3311C897.521 16.349 898.387 15.5981 899.485 15.5981C900.582 15.5981 901.449 16.349 901.449 17.3311V48.5847H897.521ZM904.626 48.5847V15.078C904.626 14.1536 905.551 13.3449 906.591 13.3449C907.688 13.3449 908.555 14.1536 908.555 15.078V48.5847H904.626ZM911.79 48.5847V13.2293C911.79 12.3049 912.656 11.4962 913.754 11.4962C914.794 11.4962 915.718 12.3049 915.718 13.2293V48.5847H911.79ZM918.896 48.5847V25.1878C918.896 24.2635 919.762 23.4547 920.86 23.4547C921.9 23.4547 922.824 24.2635 922.824 25.1878V48.5847H918.896ZM926.001 48.5847V29.8672C926.001 28.9428 926.868 28.1341 927.966 28.1341C929.063 28.1341 929.93 28.9428 929.93 29.8672V48.5847H926.001ZM933.107 48.5847V4.56374C933.107 3.58164 933.974 2.8307 935.071 2.8307C936.169 2.8307 937.036 3.58164 937.036 4.56374V48.5847H933.107ZM940.213 48.5847V13.2293C940.213 12.3049 941.137 11.4962 942.177 11.4962C943.275 11.4962 944.141 12.3049 944.141 13.2293V48.5847H940.213ZM947.319 48.5847V9.58973C947.319 8.66541 948.243 7.85669 949.283 7.85669C950.38 7.85669 951.247 8.66541 951.247 9.58973V48.5847H947.319ZM954.482 48.5847V5.54609C954.482 4.62176 955.349 3.8127 956.446 3.8127C957.486 3.8127 958.411 4.62176 958.411 5.54609V48.5847H954.482ZM961.588 48.5847V9.01217C961.588 8.03008 962.454 7.27913 963.552 7.27913C964.592 7.27913 965.516 8.03008 965.516 9.01217V48.5847H961.588ZM968.694 48.5847V1.73305C968.694 0.750947 969.56 0 970.658 0C971.756 0 972.622 0.750947 972.622 1.73305V48.5847H968.694ZM830.045 48.5847V24.7834C830.045 23.859 829.12 23.0503 828.081 23.0503C826.983 23.0503 826.116 23.859 826.116 24.7834V48.5847H830.045ZM822.881 48.5847V10.803C822.881 9.87873 822.015 9.07 820.917 9.07C819.877 9.07 818.953 9.87873 818.953 10.803V48.5847H822.881ZM815.775 48.5847V9.18565C815.775 8.26133 814.909 7.45226 813.811 7.45226C812.771 7.45226 811.847 8.26133 811.847 9.18565V48.5847H815.775ZM808.67 48.5847V1.73305C808.67 0.750947 807.803 0 806.706 0C805.608 0 804.741 0.750947 804.741 1.73305V48.5847H808.67ZM801.564 48.5847V18.7175C801.564 17.7932 800.697 16.9845 799.6 16.9845C798.502 16.9845 797.636 17.7932 797.636 18.7175V48.5847H801.564ZM794.458 48.5847V15.7134C794.458 14.7313 793.534 13.9803 792.494 13.9803C791.396 13.9803 790.53 14.7313 790.53 15.7134V48.5847H794.458ZM787.352 48.5847V24.7834C787.352 23.859 786.428 23.0503 785.388 23.0503C784.291 23.0503 783.424 23.859 783.424 24.7834V48.5847H787.352ZM780.189 48.5847V33.1023C780.189 32.178 779.322 31.3693 778.225 31.3693C777.185 31.3693 776.26 32.178 776.26 33.1023V48.5847H780.189ZM773.083 48.5847V19.3529C773.083 18.3708 772.217 17.6199 771.119 17.6199C770.079 17.6199 769.155 18.3708 769.155 19.3529V48.5847H773.083ZM626.982 48.5847V24.7834C626.982 23.859 627.848 23.0503 628.946 23.0503C629.986 23.0503 630.91 23.859 630.91 24.7834V48.5847H626.982ZM634.088 48.5847V10.803C634.088 9.87873 634.954 9.07 636.052 9.07C637.092 9.07 638.016 9.87873 638.016 10.803V48.5847H634.088ZM641.193 48.5847V9.18565C641.193 8.26133 642.06 7.45226 643.157 7.45226C644.255 7.45226 645.122 8.26133 645.122 9.18565V48.5847H641.193ZM648.299 48.5847V1.73305C648.299 0.750947 649.166 0 650.263 0C651.361 0 652.227 0.750947 652.227 1.73305V48.5847H648.299ZM655.405 48.5847V18.7175C655.405 17.7932 656.329 16.9845 657.369 16.9845C658.467 16.9845 659.333 17.7932 659.333 18.7175V48.5847H655.405ZM662.511 48.5847V15.7134C662.511 14.7313 663.435 13.9803 664.475 13.9803C665.572 13.9803 666.439 14.7313 666.439 15.7134V48.5847H662.511ZM669.674 48.5847V24.7834C669.674 23.859 670.541 23.0503 671.638 23.0503C672.678 23.0503 673.603 23.859 673.603 24.7834V48.5847H669.674ZM676.78 48.5847V33.1023C676.78 32.178 677.646 31.3693 678.744 31.3693C679.842 31.3693 680.708 32.178 680.708 33.1023V48.5847H676.78ZM683.886 48.5847V19.3529C683.886 18.3708 684.752 17.6199 685.85 17.6199C686.947 17.6199 687.814 18.3708 687.814 19.3529V48.5847H683.886ZM690.991 48.5847V17.3311C690.991 16.349 691.858 15.5981 692.956 15.5981C694.053 15.5981 694.92 16.349 694.92 17.3311V48.5847H690.991ZM698.097 48.5847V15.078C698.097 14.1536 699.021 13.3449 700.061 13.3449C701.159 13.3449 702.026 14.1536 702.026 15.078V48.5847H698.097ZM705.261 48.5847V13.2293C705.261 12.3049 706.127 11.4962 707.225 11.4962C708.265 11.4962 709.189 12.3049 709.189 13.2293V48.5847H705.261ZM712.366 48.5847V25.1878C712.366 24.2635 713.233 23.4547 714.331 23.4547C715.37 23.4547 716.295 24.2635 716.295 25.1878V48.5847H712.366ZM719.472 48.5847V29.8672C719.472 28.9428 720.339 28.1341 721.436 28.1341C722.534 28.1341 723.401 28.9428 723.401 29.8672V48.5847H719.472ZM726.578 48.5847V4.56374C726.578 3.58164 727.445 2.8307 728.542 2.8307C729.64 2.8307 730.506 3.58164 730.506 4.56374V48.5847H726.578ZM733.684 48.5847V13.2293C733.684 12.3049 734.55 11.4962 735.648 11.4962C736.746 11.4962 737.612 12.3049 737.612 13.2293V48.5847H733.684ZM740.789 48.5847V9.58973C740.789 8.66541 741.714 7.85669 742.754 7.85669C743.851 7.85669 744.718 8.66541 744.718 9.58973V48.5847H740.789ZM747.953 48.5847V5.54609C747.953 4.62176 748.82 3.8127 749.917 3.8127C750.957 3.8127 751.881 4.62176 751.881 5.54609V48.5847H747.953ZM755.059 48.5847V9.01217C755.059 8.03008 755.925 7.27913 757.023 7.27913C758.063 7.27913 758.987 8.03008 758.987 9.01217V48.5847H755.059ZM762.165 48.5847V1.73305C762.165 0.750947 763.031 0 764.129 0C765.226 0 766.093 0.750947 766.093 1.73305V48.5847H762.165ZM623.516 48.5847V24.7834C623.516 23.859 622.591 23.0503 621.551 23.0503C620.454 23.0503 619.587 23.859 619.587 24.7834V48.5847H623.516ZM616.352 48.5847V10.803C616.352 9.87873 615.485 9.07 614.388 9.07C613.348 9.07 612.424 9.87873 612.424 10.803V48.5847H616.352ZM609.246 48.5847V9.18565C609.246 8.26133 608.38 7.45226 607.282 7.45226C606.242 7.45226 605.318 8.26133 605.318 9.18565V48.5847H609.246ZM602.14 48.5847V1.73305C602.14 0.750947 601.274 0 600.176 0C599.079 0 598.212 0.750947 598.212 1.73305V48.5847H602.14ZM595.035 48.5847V18.7175C595.035 17.7932 594.168 16.9845 593.071 16.9845C591.973 16.9845 591.106 17.7932 591.106 18.7175V48.5847H595.035ZM587.929 48.5847V15.7134C587.929 14.7313 587.005 13.9803 585.965 13.9803C584.867 13.9803 584.001 14.7313 584.001 15.7134V48.5847H587.929ZM580.823 48.5847V24.7834C580.823 23.859 579.899 23.0503 578.859 23.0503C577.761 23.0503 576.895 23.859 576.895 24.7834V48.5847H580.823ZM573.66 48.5847V33.1023C573.66 32.178 572.793 31.3693 571.696 31.3693C570.656 31.3693 569.731 32.178 569.731 33.1023V48.5847H573.66ZM566.554 48.5847V19.3529C566.554 18.3708 565.687 17.6199 564.59 17.6199C563.55 17.6199 562.626 18.3708 562.626 19.3529V48.5847H566.554ZM559.448 48.5847V17.3311C559.448 16.349 558.582 15.5981 557.484 15.5981C556.386 15.5981 555.52 16.349 555.52 17.3311V48.5847H559.448ZM552.342 48.5847V15.078C552.342 14.1536 551.476 13.3449 550.378 13.3449C549.281 13.3449 548.414 14.1536 548.414 15.078V48.5847H552.342ZM545.237 48.5847V13.2293C545.237 12.3049 544.312 11.4962 543.272 11.4962C542.175 11.4962 541.308 12.3049 541.308 13.2293V48.5847H545.237ZM538.131 48.5847V25.1878C538.131 24.2635 537.207 23.4547 536.167 23.4547C535.069 23.4547 534.203 24.2635 534.203 25.1878V48.5847H538.131ZM530.967 48.5847V29.8672C530.967 28.9428 530.101 28.1341 529.003 28.1341C527.963 28.1341 527.039 28.9428 527.039 29.8672V48.5847H530.967ZM523.862 48.5847V4.56374C523.862 3.58164 522.995 2.8307 521.897 2.8307C520.8 2.8307 519.933 3.58164 519.933 4.56374V48.5847H523.862ZM516.756 48.5847V13.2293C516.756 12.3049 515.889 11.4962 514.792 11.4962C513.694 11.4962 512.827 12.3049 512.827 13.2293V48.5847H516.756ZM509.65 48.5847V9.58973C509.65 8.66541 508.784 7.85669 507.686 7.85669C506.588 7.85669 505.722 8.66541 505.722 9.58973V48.5847H509.65ZM502.544 48.5847V5.54609C502.544 4.62176 501.62 3.8127 500.58 3.8127C499.482 3.8127 498.616 4.62176 498.616 5.54609V48.5847H502.544ZM495.439 48.5847V9.01217C495.439 8.03008 494.514 7.27913 493.417 7.27913C492.377 7.27913 491.452 8.03008 491.452 9.01217V48.5847H495.439ZM1339 48.5847V1.73305C1339 0.750947 1339.87 0 1340.96 0C1342.06 0 1342.93 0.750947 1342.93 1.73305V48.5847H1339ZM1331.89 48.5847V9.18565C1331.89 8.26133 1332.76 7.45226 1333.86 7.45226C1334.96 7.45226 1335.82 8.26133 1335.82 9.18565V48.5847H1331.89ZM1324.79 48.5847V10.803C1324.79 9.87873 1325.65 9.07 1326.75 9.07C1327.79 9.07 1328.72 9.87873 1328.72 10.803V48.5847H1324.79ZM1317.62 48.5847V24.7834C1317.62 23.859 1318.55 23.0503 1319.65 23.0503C1320.69 23.0503 1321.61 23.859 1321.61 24.7834V48.5847H1317.62ZM1178.98 48.5847V1.73305C1178.98 0.750947 1178.11 0 1177.01 0C1175.97 0 1175.05 0.750947 1175.05 1.73305V48.5847H1178.98ZM1186.08 48.5847V9.01217C1186.08 8.03008 1185.21 7.27913 1184.12 7.27913C1183.08 7.27913 1182.15 8.03008 1182.15 9.01217V48.5847H1186.08ZM1193.24 48.5847V5.54609C1193.24 4.62176 1192.32 3.8127 1191.28 3.8127C1190.18 3.8127 1189.32 4.62176 1189.32 5.54609V48.5847H1193.24ZM1200.35 48.5847V9.58973C1200.35 8.66541 1199.43 7.85669 1198.39 7.85669C1197.29 7.85669 1196.42 8.66541 1196.42 9.58973V48.5847H1200.35ZM1207.46 48.5847V13.2293C1207.46 12.3049 1206.59 11.4962 1205.49 11.4962C1204.39 11.4962 1203.53 12.3049 1203.53 13.2293V48.5847H1207.46ZM1214.56 48.5847V4.56374C1214.56 3.58164 1213.69 2.8307 1212.6 2.8307C1211.5 2.8307 1210.63 3.58164 1210.63 4.56374V48.5847H1214.56ZM1221.67 48.5847V29.8672C1221.67 28.9428 1220.8 28.1341 1219.7 28.1341C1218.66 28.1341 1217.74 28.9428 1217.74 29.8672V48.5847H1221.67ZM1228.77 48.5847V25.1878C1228.77 24.2635 1227.91 23.4547 1226.81 23.4547C1225.77 23.4547 1224.84 24.2635 1224.84 25.1878V48.5847H1228.77ZM1235.94 48.5847V13.2293C1235.94 12.3049 1235.01 11.4962 1233.97 11.4962C1232.87 11.4962 1232.01 12.3049 1232.01 13.2293V48.5847H1235.94ZM1243.04 48.5847V15.078C1243.04 14.1536 1242.12 13.3449 1241.08 13.3449C1239.98 13.3449 1239.11 14.1536 1239.11 15.078V48.5847H1243.04ZM1250.15 48.5847V17.3311C1250.15 16.349 1249.28 15.5981 1248.18 15.5981C1247.09 15.5981 1246.22 16.349 1246.22 17.3311V48.5847H1250.15ZM1257.25 48.5847V19.3529C1257.25 18.3708 1256.39 17.6199 1255.29 17.6199C1254.19 17.6199 1253.33 18.3708 1253.33 19.3529V48.5847H1257.25ZM1264.36 48.5847V33.1023C1264.36 32.178 1263.49 31.3693 1262.4 31.3693C1261.36 31.3693 1260.43 32.178 1260.43 33.1023V48.5847H1264.36ZM1271.47 48.5847V24.7834C1271.47 23.859 1270.6 23.0503 1269.5 23.0503C1268.46 23.0503 1267.54 23.859 1267.54 24.7834V48.5847H1271.47ZM1278.63 48.5847V15.7134C1278.63 14.7313 1277.7 13.9803 1276.66 13.9803C1275.57 13.9803 1274.7 14.7313 1274.7 15.7134V48.5847H1278.63ZM1285.73 48.5847V18.7175C1285.73 17.7932 1284.87 16.9845 1283.77 16.9845C1282.67 16.9845 1281.81 17.7932 1281.81 18.7175V48.5847H1285.73ZM1292.84 48.5847V1.73305C1292.84 0.750947 1291.97 0 1290.88 0C1289.78 0 1288.91 0.750947 1288.91 1.73305V48.5847H1292.84ZM1299.95 48.5847V9.18565C1299.95 8.26133 1299.08 7.45226 1297.98 7.45226C1296.88 7.45226 1296.02 8.26133 1296.02 9.18565V48.5847H1299.95ZM1307.05 48.5847V10.803C1307.05 9.87873 1306.19 9.07 1305.09 9.07C1304.05 9.07 1303.12 9.87873 1303.12 10.803V48.5847H1307.05ZM1314.22 48.5847V24.7834C1314.22 23.859 1313.29 23.0503 1312.25 23.0503C1311.15 23.0503 1310.29 23.859 1310.29 24.7834V48.5847H1314.22ZM1168.06 48.5847V19.3529C1168.06 18.3708 1168.92 17.6199 1170.02 17.6199C1171.12 17.6199 1171.98 18.3708 1171.98 19.3529V48.5847H1168.06ZM1160.95 48.5847V33.1023C1160.95 32.178 1161.82 31.3693 1162.91 31.3693C1163.95 31.3693 1164.88 32.178 1164.88 33.1023V48.5847H1160.95ZM1153.84 48.5847V24.7834C1153.84 23.859 1154.71 23.0503 1155.81 23.0503C1156.85 23.0503 1157.77 23.859 1157.77 24.7834V48.5847H1153.84ZM1146.68 48.5847V15.7134C1146.68 14.7313 1147.61 13.9803 1148.65 13.9803C1149.74 13.9803 1150.61 14.7313 1150.61 15.7134V48.5847H1146.68ZM1139.58 48.5847V18.7175C1139.58 17.7932 1140.44 16.9845 1141.54 16.9845C1142.64 16.9845 1143.5 17.7932 1143.5 18.7175V48.5847H1139.58ZM1132.47 48.5847V1.73305C1132.47 0.750947 1133.34 0 1134.43 0C1135.53 0 1136.4 0.750947 1136.4 1.73305V48.5847H1132.47ZM1125.36 48.5847V9.18565C1125.36 8.26133 1126.23 7.45226 1127.33 7.45226C1128.43 7.45226 1129.29 8.26133 1129.29 9.18565V48.5847H1125.36ZM1118.26 48.5847V10.803C1118.26 9.87873 1119.12 9.07 1120.22 9.07C1121.26 9.07 1122.19 9.87873 1122.19 10.803V48.5847H1118.26ZM1111.09 48.5847V24.7834C1111.09 23.859 1112.02 23.0503 1113.06 23.0503C1114.16 23.0503 1115.02 23.859 1115.02 24.7834V48.5847H1111.09ZM979.555 48.5847V9.01217C979.555 8.03008 978.688 7.27913 977.59 7.27913C976.551 7.27913 975.626 8.03008 975.626 9.01217V48.5847H979.555ZM986.718 48.5847V5.54609C986.718 4.62176 985.794 3.8127 984.754 3.8127C983.656 3.8127 982.79 4.62176 982.79 5.54609V48.5847H986.718ZM993.824 48.5847V9.58973C993.824 8.66541 992.9 7.85669 991.86 7.85669C990.762 7.85669 989.895 8.66541 989.895 9.58973V48.5847H993.824ZM1000.93 48.5847V13.2293C1000.93 12.3049 1000.06 11.4962 998.965 11.4962C997.868 11.4962 997.001 12.3049 997.001 13.2293V48.5847H1000.93ZM1008.03 48.5847V4.56374C1008.03 3.58164 1007.17 2.8307 1006.07 2.8307C1004.97 2.8307 1004.1 3.58164 1004.1 4.56374V48.5847H1008.03ZM1015.14 48.5847V29.8672C1015.14 28.9428 1014.27 28.1341 1013.17 28.1341C1012.13 28.1341 1011.21 28.9428 1011.21 29.8672V48.5847H1015.14ZM1022.24 48.5847V25.1878C1022.24 24.2635 1021.38 23.4547 1020.28 23.4547C1019.24 23.4547 1018.32 24.2635 1018.32 25.1878V48.5847H1022.24ZM1029.41 48.5847V13.2293C1029.41 12.3049 1028.48 11.4962 1027.44 11.4962C1026.35 11.4962 1025.48 12.3049 1025.48 13.2293V48.5847H1029.41ZM1036.51 48.5847V15.078C1036.51 14.1536 1035.59 13.3449 1034.55 13.3449C1033.45 13.3449 1032.58 14.1536 1032.58 15.078V48.5847H1036.51ZM1043.62 48.5847V17.3311C1043.62 16.349 1042.75 15.5981 1041.65 15.5981C1040.56 15.5981 1039.69 16.349 1039.69 17.3311V48.5847H1043.62ZM1050.72 48.5847V19.3529C1050.72 18.3708 1049.86 17.6199 1048.76 17.6199C1047.66 17.6199 1046.8 18.3708 1046.8 19.3529V48.5847H1050.72ZM1057.83 48.5847V33.1023C1057.83 32.178 1056.96 31.3693 1055.87 31.3693C1054.83 31.3693 1053.9 32.178 1053.9 33.1023V48.5847H1057.83ZM1064.94 48.5847V24.7834C1064.94 23.859 1064.07 23.0503 1062.97 23.0503C1061.93 23.0503 1061.01 23.859 1061.01 24.7834V48.5847H1064.94ZM1072.1 48.5847V15.7134C1072.1 14.7313 1071.18 13.9803 1070.14 13.9803C1069.04 13.9803 1068.17 14.7313 1068.17 15.7134V48.5847H1072.1ZM1079.21 48.5847V18.7175C1079.21 17.7932 1078.28 16.9845 1077.24 16.9845C1076.14 16.9845 1075.28 17.7932 1075.28 18.7175V48.5847H1079.21ZM1086.31 48.5847V1.73305C1086.31 0.750947 1085.44 0 1084.35 0C1083.25 0 1082.38 0.750947 1082.38 1.73305V48.5847H1086.31ZM1093.42 48.5847V9.18565C1093.42 8.26133 1092.55 7.45226 1091.45 7.45226C1090.36 7.45226 1089.49 8.26133 1089.49 9.18565V48.5847H1093.42ZM1100.52 48.5847V10.803C1100.52 9.87873 1099.66 9.07 1098.56 9.07C1097.52 9.07 1096.59 9.87873 1096.59 10.803V48.5847H1100.52ZM1107.69 48.5847V24.7834C1107.69 23.859 1106.76 23.0503 1105.72 23.0503C1104.62 23.0503 1103.7 23.859 1103.7 24.7834V48.5847H1107.69Z" fill="#6E6E6E"/>
</svg>
